<svg xmlns="http://www.w3.org/2000/svg" xmlns:xlink="http://www.w3.org/1999/xlink" width="93.934" height="93.934" viewBox="0 0 93.934 93.934">
  <defs>
    <filter id="Path_982547" x="0" y="0" width="93.934" height="93.934" filterUnits="userSpaceOnUse">
      <feOffset dy="3" input="SourceAlpha"/>
      <feGaussianBlur stdDeviation="3" result="blur"/>
      <feFlood flood-opacity="0.161"/>
      <feComposite operator="in" in2="blur"/>
      <feComposite in="SourceGraphic"/>
    </filter>
  </defs>
  <g id="Group_1215548" data-name="Group 1215548" transform="translate(-188.467 -4168.55)">
    <g id="Group_1214517" data-name="Group 1214517" transform="translate(0 24)">
      <g id="Group_1214375" data-name="Group 1214375" transform="translate(197.467 4150.55)">
        <g id="Group_1207741" data-name="Group 1207741">
          <g id="Group_1206678" data-name="Group 1206678">
            <g id="Group_1183665" data-name="Group 1183665">
              <g id="Group_1181743" data-name="Group 1181743">
                <g id="Group_1175133" data-name="Group 1175133">
                  <g id="Group_1167337" data-name="Group 1167337">
                    <g id="Group_1166720" data-name="Group 1166720">
                      <g id="Group_1164305" data-name="Group 1164305">
                        <g id="Group_1163948" data-name="Group 1163948">
                          <g id="Group_1158168" data-name="Group 1158168">
                            <g id="Group_1152576" data-name="Group 1152576">
                              <g id="Group_1148633" data-name="Group 1148633">
                                <g id="Group_1148525" data-name="Group 1148525">
                                  <g transform="matrix(1, 0, 0, 1, -9, -6)" filter="url(#Path_982547)">
                                    <g id="Path_982547-2" data-name="Path 982547" transform="translate(9 6)" fill="#f2f7e5">
                                      <path d="M 37.966796875 74.43359375 C 33.04315185546875 74.43359375 28.26757431030273 73.46962738037109 23.77274131774902 71.56847381591797 C 19.43047523498535 69.73184967041016 15.53040790557861 67.10224914550781 12.18087482452393 63.75271987915039 C 8.831341743469238 60.4031867980957 6.201741218566895 56.50312042236328 4.365118980407715 52.16086196899414 C 2.463963508605957 47.66601943969727 1.499996900558472 42.89044189453125 1.499996900558472 37.966796875 C 1.499996900558472 33.04315185546875 2.463963508605957 28.26757431030273 4.365118980407715 23.77274131774902 C 6.201741218566895 19.43047523498535 8.831341743469238 15.53040790557861 12.18087482452393 12.18087482452393 C 15.53040790557861 8.831341743469238 19.43047523498535 6.201741218566895 23.77274131774902 4.365118980407715 C 28.26757431030273 2.463963508605957 33.04315185546875 1.499996900558472 37.966796875 1.499996900558472 C 42.89044189453125 1.499996900558472 47.66601943969727 2.463963508605957 52.16086196899414 4.365118980407715 C 56.50312042236328 6.201741218566895 60.4031867980957 8.831341743469238 63.75271987915039 12.18087482452393 C 67.10224914550781 15.53040790557861 69.73184967041016 19.43047523498535 71.56847381591797 23.77274131774902 C 73.46962738037109 28.26757431030273 74.43359375 33.04315185546875 74.43359375 37.966796875 C 74.43359375 42.89044189453125 73.46962738037109 47.66601943969727 71.56847381591797 52.16086196899414 C 69.73184967041016 56.50313186645508 67.10224914550781 60.4031867980957 63.75271987915039 63.75271987915039 C 60.4031867980957 67.10224914550781 56.50313186645508 69.73184967041016 52.16086196899414 71.56847381591797 C 47.66601943969727 73.46962738037109 42.89044189453125 74.43359375 37.966796875 74.43359375 Z" stroke="none"/>
                                      <path d="M 37.966796875 3 C 33.2449836730957 3 28.66600799560547 3.924095153808594 24.35705947875977 5.746635437011719 C 20.19359588623047 7.507637023925781 16.45379638671875 10.02928161621094 13.24153518676758 13.24153518676758 C 10.02927398681641 16.45379638671875 7.507621765136719 20.19359588623047 5.746635437011719 24.35705947875977 C 3.924095153808594 28.66600799560547 3 33.2449836730957 3 37.966796875 C 3 42.6886100769043 3.924095153808594 47.26758575439453 5.746635437011719 51.57653427124023 C 7.507621765136719 55.73999786376953 10.02927398681641 59.47979736328125 13.24153518676758 62.69205856323242 C 16.45379638671875 65.90431976318359 20.19359588623047 68.42597198486328 24.35705947875977 70.18695831298828 C 28.66600799560547 72.00949859619141 33.2449836730957 72.93359375 37.966796875 72.93359375 C 42.6886100769043 72.93359375 47.26758575439453 72.00949859619141 51.57653427124023 70.18695831298828 C 55.73999786376953 68.42597198486328 59.47979736328125 65.90431976318359 62.69205856323242 62.69205856323242 C 65.90431976318359 59.47979736328125 68.42597198486328 55.73999786376953 70.18695831298828 51.57653427124023 C 72.00949859619141 47.26758575439453 72.93359375 42.6886100769043 72.93359375 37.966796875 C 72.93359375 33.2449836730957 72.00949859619141 28.66600799560547 70.18695831298828 24.35705947875977 C 68.42597198486328 20.19359588623047 65.90431976318359 16.45379638671875 62.69205856323242 13.24153518676758 C 59.47979736328125 10.02928161621094 55.73999786376953 7.507637023925781 51.57653427124023 5.746635437011719 C 47.26758575439453 3.924095153808594 42.6886100769043 3 37.966796875 3 M 37.966796875 0 C 58.93528366088867 0 75.93359375 16.99832153320312 75.93359375 37.966796875 C 75.93359375 58.93528366088867 58.93528366088867 75.93359375 37.966796875 75.93359375 C 16.99831008911133 75.93359375 0 58.93528366088867 0 37.966796875 C 0 16.99832153320312 16.99831008911133 0 37.966796875 0 Z" stroke="none" fill="#86b60c"/>
                                    </g>
                                  </g>
                                </g>
                              </g>
                            </g>
                          </g>
                        </g>
                      </g>
                    </g>
                  </g>
                </g>
              </g>
            </g>
          </g>
        </g>
      </g>
      <g id="surface1" transform="translate(200.975 4150.55)">
        <path id="Path_1077190" data-name="Path 1077190" d="M92,335.952l-5.722-1.173-3.311,3.429L71.684,329.3l7.527-5.137,8-8.759a3.012,3.012,0,0,1,4.772.427l9.482,10.875a3.5,3.5,0,0,1-.846,5.3l-5.587,3.327A5.193,5.193,0,0,1,92,335.952Zm0,0" transform="translate(-61.196 -268.425)" fill="#ffe7cf"/>
        <path id="Path_1077191" data-name="Path 1077191" d="M133.264,382.892l-2.314-2.654-9.649,5.751a5.2,5.2,0,0,1-3.034.619l-5.012-.54-4.329,3.719,5.839,4.608,3.311-3.429,5.722,1.173a5.2,5.2,0,0,0,3.034-.619l5.587-3.327A3.5,3.5,0,0,0,133.264,382.892Zm0,0" transform="translate(-92.99 -324.61)" fill="#efd5bd"/>
        <path id="Path_1077192" data-name="Path 1077192" d="M170.428,298.357c-1.117-1.733-2.478-.856-3.6-2.589s.243-2.61-.873-4.343-2.478-.856-3.6-2.59.243-2.611-.874-4.344c-.683-1.059-1.92-3.246-2.674-3.547l-6.03,2.98,10.494,16.551a3.423,3.423,0,0,0,4.731,1.022l2.008-1.294a1.334,1.334,0,0,0,.419-1.831Zm0,0" transform="translate(-130.433 -239.843)" fill="#344a5d"/>
        <path id="Path_1077193" data-name="Path 1077193" d="M94.518,273.471l-4.738,2.923a1.912,1.912,0,0,1-2.632-.623l-2.678-4.34a1.913,1.913,0,0,1,.623-2.632l4.737-2.923a1.183,1.183,0,0,1,1.629.386l3.443,5.581A1.183,1.183,0,0,1,94.518,273.471Zm0,0" transform="translate(-71.869 -226.828)" fill="#344a5d"/>
        <path id="Path_1077194" data-name="Path 1077194" d="M111.1,71.541l-9.616,5.933a2.692,2.692,0,0,0-.877,3.7l4.741,7.685a2.693,2.693,0,0,0,3.7.878l9.616-5.933,30.414-6.621-18.424-29.86Zm0,0" transform="translate(-85.549 -40.404)" fill="#fed066"/>
        <path id="Path_1077195" data-name="Path 1077195" d="M158.594,203.344l-30.257,6.875-11.907,7.347,2.77,4.489a2.693,2.693,0,0,0,3.7.878L132.52,217l30.414-6.621Zm0,0" transform="translate(-99.397 -173.595)" fill="#f5b556"/>
        <path id="Path_1077196" data-name="Path 1077196" d="M118.673,225.1l-9.616,5.933a2.693,2.693,0,0,1-3.7-.878l-4.741-7.685a2.692,2.692,0,0,1,.877-3.7l9.616-5.933Zm0,0" transform="translate(-85.549 -181.699)" fill="#fd715c"/>
        <path id="Path_1077197" data-name="Path 1077197" d="M128.337,250.336l-11.907,7.347,2.77,4.489a2.693,2.693,0,0,0,3.7.878l9.616-5.933Zm0,0" transform="translate(-99.397 -213.712)" fill="#d83e3a"/>
        <path id="Path_1077198" data-name="Path 1077198" d="M310.658,62.98l-1.313.81a1.448,1.448,0,0,1-1.992-.472l-19.807-32.1a1.448,1.448,0,0,1,.472-1.992l1.313-.81a1.448,1.448,0,0,1,1.992.471l19.806,32.1A1.448,1.448,0,0,1,310.658,62.98Zm0,0" transform="translate(-245.295 -24.074)" fill="#fd715c"/>
        <path id="Path_1077199" data-name="Path 1077199" d="M408.953,221.5l-3.259-5.281-3.776,2.33,3.258,5.281a1.448,1.448,0,0,0,1.992.472l1.313-.81A1.448,1.448,0,0,0,408.953,221.5Zm0,0" transform="translate(-343.118 -184.587)" fill="#d83e3a"/>
        <path id="Path_1077200" data-name="Path 1077200" d="M250.851,394.845a2.486,2.486,0,0,0,3.417.825l3.624-2.215a2.486,2.486,0,0,0-2.593-4.242l-3.624,2.216A2.485,2.485,0,0,0,250.851,394.845Zm0,0" transform="translate(-213.841 -331.961)" fill="#ffe7cf"/>
        <path id="Path_1077201" data-name="Path 1077201" d="M258.856,391.066a2.471,2.471,0,0,0-1.211-1.015,2.486,2.486,0,0,1-1.166,2.454l-3.624,2.215a2.481,2.481,0,0,1-2.206.189,2.484,2.484,0,0,0,3.759,1.787l3.624-2.215A2.485,2.485,0,0,0,258.856,391.066Zm0,0" transform="translate(-213.979 -332.987)" fill="#efd5bd"/>
        <path id="Path_1077202" data-name="Path 1077202" d="M240.21,361.305a2.523,2.523,0,0,0,3.469.838l3.56-2.176a2.523,2.523,0,0,0-2.632-4.306l-3.56,2.176A2.523,2.523,0,0,0,240.21,361.305Zm0,0" transform="translate(-204.752 -303.313)" fill="#ffe7cf"/>
        <path id="Path_1077203" data-name="Path 1077203" d="M248.2,357.638a2.513,2.513,0,0,0-1.187-1.013,2.522,2.522,0,0,1-1.186,2.471l-3.56,2.176a2.518,2.518,0,0,1-2.283.175,2.521,2.521,0,0,0,3.818,1.835l3.56-2.176A2.523,2.523,0,0,0,248.2,357.638Zm0,0" transform="translate(-204.878 -304.452)" fill="#efd5bd"/>
        <path id="Path_1077204" data-name="Path 1077204" d="M222.074,332.063a2.524,2.524,0,0,0,3.469.838l3.56-2.176a2.523,2.523,0,1,0-2.632-4.306l-3.56,2.176A2.523,2.523,0,0,0,222.074,332.063Zm0,0" transform="translate(-189.269 -278.348)" fill="#ffe7cf"/>
        <path id="Path_1077205" data-name="Path 1077205" d="M230.047,328.462a2.513,2.513,0,0,0-1.158-1,2.522,2.522,0,0,1-1.19,2.434l-3.56,2.176a2.518,2.518,0,0,1-2.312.163,2.519,2.519,0,0,0,3.821,1.872l3.56-2.176A2.524,2.524,0,0,0,230.047,328.462Zm0,0" transform="translate(-189.375 -279.554)" fill="#efd5bd"/>
        <path id="Path_1077206" data-name="Path 1077206" d="M204.978,302.071a2.524,2.524,0,0,0,3.469.838l3.56-2.176a2.523,2.523,0,1,0-2.632-4.306l-3.56,2.176A2.524,2.524,0,0,0,204.978,302.071Zm0,0" transform="translate(-174.675 -252.744)" fill="#ffe7cf"/>
        <path id="Path_1077207" data-name="Path 1077207" d="M213.183,297.93a2.51,2.51,0,0,0-1.413-1.094,2.523,2.523,0,0,1-1.15,2.679l-3.56,2.176a2.517,2.517,0,0,1-2.057.256,2.519,2.519,0,0,0,3.781,1.627l3.56-2.176A2.524,2.524,0,0,0,213.183,297.93Zm0,0" transform="translate(-175.012 -253.41)" fill="#efd5bd"/>
        <path id="Path_1077208" data-name="Path 1077208" d="M140.766,302.124l-.66.4a2.175,2.175,0,0,1-3-.68l-1.094-1.788a1.875,1.875,0,0,0-2.6-.579c-.9,6.6-10.28,6-10.28,6l5.813-8.756a4.678,4.678,0,0,1,1.583-1.63l3.281-2.034a3.34,3.34,0,0,1,4.623,1.03l3.092,5.046A2.177,2.177,0,0,1,140.766,302.124Zm0,0" transform="translate(-105.122 -249.744)" fill="#ffe7cf"/>
        <path id="Path_1077209" data-name="Path 1077209" d="M178.414,324.522l-.025-.041a2.249,2.249,0,0,1-.736.73l-.661.4a2.175,2.175,0,0,1-3-.68l-1.094-1.788a1.876,1.876,0,0,0-2.6-.579,13.06,13.06,0,0,1-3.958,7.238,6.173,6.173,0,0,0,3.958-4.943,1.876,1.876,0,0,1,2.6.579l1.094,1.788a2.175,2.175,0,0,0,3,.68l.661-.4A2.177,2.177,0,0,0,178.414,324.522Zm0,0" transform="translate(-142.008 -275.126)" fill="#efd5bd"/>
        <path id="Path_1077210" data-name="Path 1077210" d="M96.121,399.1l-9.246-10.988,3.044-2.562a.228.228,0,0,1,.321.027l8.953,10.64a.227.227,0,0,1-.027.32Zm0,0" transform="translate(-74.165 -329.102)" fill="#cdd6df"/>
        <path id="Path_1077211" data-name="Path 1077211" d="M124.5,425.746l-4.763-5.66-3.219,2.708,4.909,5.834,3.045-2.562A.227.227,0,0,0,124.5,425.746Zm0,0" transform="translate(-99.47 -358.628)" fill="#96a4aa"/>
        <path id="Path_1077212" data-name="Path 1077212" d="M29.018,408.877l-9.993-11.723a.24.24,0,0,0-.318-.043l-10.643,8.4a1.481,1.481,0,0,0-.563,1.162v3.418a1.481,1.481,0,0,0,1.481,1.481H26.391a1.482,1.482,0,0,0,1.154-.553l1.463-1.82A.241.241,0,0,0,29.018,408.877Zm0,0" transform="translate(-6.403 -338.979)" fill="#3c5666"/>
        <path id="Path_1077213" data-name="Path 1077213" d="M86.226,445.34l-4.739-5.559-6.976,8.256H83.6a1.482,1.482,0,0,0,1.154-.553l1.463-1.821A.24.24,0,0,0,86.226,445.34Zm0,0" transform="translate(-63.611 -375.442)" fill="#194451"/>
        <path id="Path_1077214" data-name="Path 1077214" d="M403.458,91.569a1.1,1.1,0,0,0,1.51.359l5.948-3.659a1.1,1.1,0,1,0-1.15-1.869l-5.947,3.659A1.1,1.1,0,0,0,403.458,91.569Zm0,0" transform="translate(-344.294 -73.621)"/>
        <path id="Path_1077215" data-name="Path 1077215" d="M447.322,167.535l-8.72-.847a1.1,1.1,0,1,0-.212,2.184l8.719.847c.037,0,.072.005.108.005a1.1,1.1,0,0,0,.105-2.189Zm0,0" transform="translate(-373.408 -142.297)"/>
        <path id="Path_1077216" data-name="Path 1077216" d="M369.892,10.284a1.094,1.094,0,0,0,1.42-.625L374.487,1.5a1.1,1.1,0,0,0-2.045-.8l-3.176,8.165A1.1,1.1,0,0,0,369.892,10.284Zm0,0" transform="translate(-315.18)"/>
        <path id="Path_1077217" data-name="Path 1077217" d="M46.962,21.913a2.548,2.548,0,0,0-3.5-.829l-1.313.81a2.545,2.545,0,0,0-.83,3.5l.755,1.223L24.819,47.978l-3.644,2.248a1.1,1.1,0,0,0,1.153,1.868l2.869-1.77,5.592,9.063a4.484,4.484,0,0,0-2.346.491l-.039.02c-.1.052-.2.106-.291.165L24.832,62.1A5.886,5.886,0,0,0,22.9,64.08l-.81,1.221-.6.9-.016-.005-.027-.013c-.046-.02-.092-.043-.136-.068l-.028-.015A1.643,1.643,0,0,1,21.143,66l-.028-.022c-.041-.032-.082-.066-.12-.1l-.014-.013a1.681,1.681,0,0,1-.117-.128l-.023-.03a1.662,1.662,0,0,1-.1-.146L16,57.875a1.595,1.595,0,0,1,.52-2.2l1.42-.875a1.1,1.1,0,0,0-1.152-1.868l-1.42.876a3.791,3.791,0,0,0-1.66,4.249l-1.056.651a3.013,3.013,0,0,0-.981,4.142l2.678,4.34a2.99,2.99,0,0,0,1.868,1.348,3.038,3.038,0,0,0,.7.082,2.987,2.987,0,0,0,1.574-.45l1.057-.652a3.788,3.788,0,0,0,.722.517L17.219,72.63l-.718.49a1.325,1.325,0,0,0-1.453.168l-1.89,1.591a1.334,1.334,0,0,0-1.471.023c-.021.015-.042.03-.062.046L.981,83.348A2.563,2.563,0,0,0,0,85.372V88.79a2.581,2.581,0,0,0,2.578,2.578H19.988A2.565,2.565,0,0,0,22,90.4l1.444-1.8a1.331,1.331,0,0,0,.322-1.019l1.942-1.635a1.316,1.316,0,0,0,.4-.593l4.477.918a1.076,1.076,0,0,0,.2.022c.131,0,.261,0,.391,0a5.834,5.834,0,0,0,3.224-.777l4.511-2.686c.075,0,.151.007.226.007A3.558,3.558,0,0,0,41,82.321l3.624-2.215a3.579,3.579,0,0,0-.247-6.249,3.616,3.616,0,0,0-2.324-5.19,3.608,3.608,0,0,0-2.535-4.244,3.611,3.611,0,0,0-.411-2.8A3.669,3.669,0,0,0,38.628,61l21.741-4.732.755,1.223a2.546,2.546,0,0,0,3.5.83l1.313-.81a2.545,2.545,0,0,0,.829-3.5Zm-29.627,44.4a.816.816,0,0,1-1.122-.266L13.535,61.7A.817.817,0,0,1,13.8,60.58l.931-.574,3.535,5.728ZM20.287,89.03a.38.38,0,0,1-.3.144H2.578a.384.384,0,0,1-.383-.383V85.372a.382.382,0,0,1,.146-.3l9.983-7.88,9,10.554Zm2.231-3.261L14.626,76.51l1.169-.983,7.833,9.309Zm10.755-2.122a4,4,0,0,1-2.347.463l-5.621-1.153a1.094,1.094,0,0,0-.4-.009l-6.9-8.2.625-.427h0l.031-.024c.023-.018.047-.035.069-.054l.031-.03c.022-.02.043-.042.063-.064l.024-.027c.025-.03.048-.06.069-.091l.006-.008.005-.007.005-.009,5.8-8.74c.013-.019.025-.038.036-.058a3.589,3.589,0,0,1,1.212-1.247l3.281-2.034c.061-.038.122-.072.185-.1.028-.014.057-.026.085-.039s.066-.03.1-.043.077-.03.116-.043l.061-.02c.048-.015.1-.029.145-.041h0a2.33,2.33,0,0,1,.535-.065h.011c.053,0,.1,0,.157.006l.05,0c.046,0,.092.009.138.016l.082.015a2.117,2.117,0,0,1,.207.05l.079.022c.035.012.069.025.1.039s.054.02.08.032.067.03.1.047l.074.038c.033.018.066.037.1.056l.066.042c.032.022.065.043.1.067s.038.03.056.045.065.051.1.079a2.1,2.1,0,0,1,.389.466l.081.132,1.17,1.909,1.468,2.4.373.61a.961.961,0,0,1,.087.18,1.024,1.024,0,0,1,.031.594,1.128,1.128,0,0,1-.516.7l-.66.4h0a1.159,1.159,0,0,1-.14.072l-.031.013a1.138,1.138,0,0,1-.144.048l-.018,0a1.149,1.149,0,0,1-.137.024l-.027,0a1.265,1.265,0,0,1-.147,0l-.027,0a1.13,1.13,0,0,1-.147-.019h0a1.074,1.074,0,0,1-.152-.044l-.013,0a1.029,1.029,0,0,1-.284-.164h0a1.059,1.059,0,0,1-.118-.113l-.009-.011a.96.96,0,0,1-.093-.126l-1.094-1.788a2.9,2.9,0,0,0-1.82-1.316,3,3,0,0,0-2.29.376,1.1,1.1,0,0,0-.509.784c-.013.094-.028.186-.045.277-.013.066-.027.132-.042.2,0,.022-.009.044-.014.066-.019.082-.041.163-.064.243l0,.01a4.649,4.649,0,0,1-.517,1.166,0,0,0,0,0,0,0,5.152,5.152,0,0,1-1.742,1.669,1.1,1.1,0,1,0,1.14,1.875,8.028,8.028,0,0,0,1.422-1.092L31.924,78.9a4.547,4.547,0,0,0,3.812,2.069c.08,0,.16,0,.24-.009.031.057.063.114.1.17a3.618,3.618,0,0,0,.443.582Zm.931-8.067v0c.018.051.038.1.059.153l.007.018c.019.046.039.091.061.136.005.01.009.021.014.031.02.042.042.084.064.126.007.013.013.025.019.037.029.054.06.107.092.159.055.09.115.177.177.261l.068.088c.041.051.082.1.125.15s.06.07.091.1.049.048.074.073a3.614,3.614,0,0,0,.278.251l.03.024a3.563,3.563,0,0,0,.606.389,3.613,3.613,0,0,0-.388,1.194,2.33,2.33,0,0,1-1.811-1.053l-5.044-7.955a7.061,7.061,0,0,0,.536-1.548.819.819,0,0,1,.235.02.725.725,0,0,1,.455.326l1.094,1.788.005.007a3.049,3.049,0,0,0,.174.254c.046.06.095.116.144.172.017.019.032.041.05.06l.007.029q.026.114.058.226c.007.022.013.043.019.065.027.085.055.169.089.251,0,.009.007.017.01.025.03.075.064.149.1.222.01.021.02.042.031.063.041.08.084.159.131.237a3.6,3.6,0,0,0,2.2,1.622A3.606,3.606,0,0,0,34.2,75.579Zm.7-13.059.369-.225a1.426,1.426,0,1,1,1.488,2.433l-.366.224-1.085-1.77ZM43.082,75.7a1.388,1.388,0,0,1,.4,2.534L39.856,80.45a1.378,1.378,0,0,1-.962.182l-.058-.011-.03-.006a1.38,1.38,0,0,1-1.034-1.074.083.083,0,0,0,0-.013,1.4,1.4,0,0,1,.368-1.232l.025-.026.049-.045c.017-.015.034-.03.052-.043l.039-.031c.033-.024.065-.047.1-.069l0,0,.72-.44a3.74,3.74,0,0,0,.373-.2l2.772-1.695A1.382,1.382,0,0,1,43.082,75.7Zm-2.524-4.81a1.426,1.426,0,0,1,1.358,2.5l-.653.4a3.666,3.666,0,0,0-.376.2l-2.758,1.685a1.43,1.43,0,0,1-1.488-.28h0c-.031-.029-.06-.058-.088-.089l-.022-.026c-.02-.024-.041-.048-.061-.074s-.052-.073-.076-.111-.046-.08-.066-.121c-.006-.013-.011-.026-.018-.04s-.025-.057-.036-.086-.01-.03-.015-.046-.018-.055-.025-.083-.008-.031-.011-.047-.012-.057-.017-.086l-.007-.045c0-.03-.007-.059-.009-.089,0-.014,0-.029,0-.043,0-.031,0-.062,0-.092,0-.014,0-.027,0-.04,0-.031.005-.062.009-.093,0-.013,0-.026,0-.039s.01-.055.016-.082a1.423,1.423,0,0,1,.457-.78l.028-.027.041-.035c.034-.019.069-.037.1-.058l3.56-2.176Q40.484,70.941,40.558,70.891Zm-1.7-4.378a1.426,1.426,0,0,1,.539,2.513c-.037.02-.073.041-.109.062l-2.749,1.68.027-.022c.053-.042.105-.084.154-.129.031-.028.06-.057.09-.085s.089-.087.132-.134c.029-.031.056-.063.084-.1s.078-.094.115-.142.051-.068.076-.1.068-.1.1-.153c.022-.036.045-.071.065-.108.031-.055.06-.111.088-.168.018-.036.037-.071.053-.107.029-.063.054-.129.079-.194.011-.031.025-.062.036-.094.034-.1.064-.2.089-.3s.042-.2.056-.294c0-.031.007-.063.011-.094.008-.067.014-.134.018-.2,0-.037,0-.073,0-.11,0-.063,0-.125,0-.187,0-.037,0-.074-.006-.111,0-.063-.012-.126-.02-.188,0-.035-.009-.07-.014-.1-.012-.071-.027-.141-.044-.21-.006-.025-.01-.051-.017-.076-.025-.094-.054-.187-.087-.279-.007-.018-.015-.035-.022-.054-.024-.062-.047-.124-.075-.185l.252-.154A1.418,1.418,0,0,1,38.853,66.513ZM64.943,55.43a.35.35,0,0,1-.157.217l-1.313.81a.351.351,0,0,1-.482-.114l-13.82-22.4A1.1,1.1,0,1,0,47.3,35.1l11.844,19.2-25.5,5.551L26.9,48.9l16.4-20.3,1.325,2.148a1.1,1.1,0,1,0,1.868-1.153l-3.3-5.35a.35.35,0,0,1,.114-.482l1.313-.81a.351.351,0,0,1,.482.114L64.9,55.166A.348.348,0,0,1,64.943,55.43Zm0,0" transform="translate(0 -17.676)"/>
      </g>
    </g>
  </g>
</svg>
