<svg xmlns="http://www.w3.org/2000/svg" xmlns:xlink="http://www.w3.org/1999/xlink" width="93.934" height="93.934" viewBox="0 0 93.934 93.934">
  <defs>
    <filter id="Path_982547" x="0" y="0" width="93.934" height="93.934" filterUnits="userSpaceOnUse">
      <feOffset dy="3" input="SourceAlpha"/>
      <feGaussianBlur stdDeviation="3" result="blur"/>
      <feFlood flood-opacity="0.161"/>
      <feComposite operator="in" in2="blur"/>
      <feComposite in="SourceGraphic"/>
    </filter>
  </defs>
  <g id="Group_1215531" data-name="Group 1215531" transform="translate(-821 -1392)">
    <g id="Group_1214503" data-name="Group 1214503">
      <g id="Group_1214142" data-name="Group 1214142" transform="translate(830 1398)">
        <g id="Group_1183158" data-name="Group 1183158" transform="translate(0 0)">
          <g id="Group_1179614" data-name="Group 1179614">
            <g id="Group_1175227" data-name="Group 1175227">
              <g id="Group_1167337" data-name="Group 1167337">
                <g id="Group_1166720" data-name="Group 1166720">
                  <g id="Group_1164305" data-name="Group 1164305">
                    <g id="Group_1163948" data-name="Group 1163948">
                      <g id="Group_1158168" data-name="Group 1158168">
                        <g id="Group_1152576" data-name="Group 1152576">
                          <g id="Group_1148633" data-name="Group 1148633">
                            <g id="Group_1148525" data-name="Group 1148525">
                              <g transform="matrix(1, 0, 0, 1, -9, -6)" filter="url(#Path_982547)">
                                <g id="Path_982547-2" data-name="Path 982547" transform="translate(9 6)" fill="#f5f5f5">
                                  <path d="M 37.966796875 74.43359375 C 33.04315185546875 74.43359375 28.26757431030273 73.46962738037109 23.77274131774902 71.56847381591797 C 19.43047523498535 69.73184967041016 15.53040790557861 67.10224914550781 12.18087482452393 63.75271987915039 C 8.831341743469238 60.4031867980957 6.201741218566895 56.50312042236328 4.365118980407715 52.16086196899414 C 2.463963508605957 47.66601943969727 1.499996900558472 42.89044189453125 1.499996900558472 37.966796875 C 1.499996900558472 33.04315185546875 2.463963508605957 28.26757431030273 4.365118980407715 23.77274131774902 C 6.201741218566895 19.43047523498535 8.831341743469238 15.53040790557861 12.18087482452393 12.18087482452393 C 15.53040790557861 8.831341743469238 19.43047523498535 6.201741218566895 23.77274131774902 4.365118980407715 C 28.26757431030273 2.463963508605957 33.04315185546875 1.499996900558472 37.966796875 1.499996900558472 C 42.89044189453125 1.499996900558472 47.66601943969727 2.463963508605957 52.16086196899414 4.365118980407715 C 56.50312042236328 6.201741218566895 60.4031867980957 8.831341743469238 63.75271987915039 12.18087482452393 C 67.10224914550781 15.53040790557861 69.73184967041016 19.43047523498535 71.56847381591797 23.77274131774902 C 73.46962738037109 28.26757431030273 74.43359375 33.04315185546875 74.43359375 37.966796875 C 74.43359375 42.89044189453125 73.46962738037109 47.66601943969727 71.56847381591797 52.16086196899414 C 69.73184967041016 56.50313186645508 67.10224914550781 60.4031867980957 63.75271987915039 63.75271987915039 C 60.4031867980957 67.10224914550781 56.50313186645508 69.73184967041016 52.16086196899414 71.56847381591797 C 47.66601943969727 73.46962738037109 42.89044189453125 74.43359375 37.966796875 74.43359375 Z" stroke="none"/>
                                  <path d="M 37.966796875 3 C 33.2449836730957 3 28.66600799560547 3.924095153808594 24.35705947875977 5.746635437011719 C 20.19359588623047 7.507637023925781 16.45379638671875 10.02928161621094 13.24153518676758 13.24153518676758 C 10.02927398681641 16.45379638671875 7.507621765136719 20.19359588623047 5.746635437011719 24.35705947875977 C 3.924095153808594 28.66600799560547 3 33.2449836730957 3 37.966796875 C 3 42.6886100769043 3.924095153808594 47.26758575439453 5.746635437011719 51.57653427124023 C 7.507621765136719 55.73999786376953 10.02927398681641 59.47979736328125 13.24153518676758 62.69205856323242 C 16.45379638671875 65.90431976318359 20.19359588623047 68.42597198486328 24.35705947875977 70.18695831298828 C 28.66600799560547 72.00949859619141 33.2449836730957 72.93359375 37.966796875 72.93359375 C 42.6886100769043 72.93359375 47.26758575439453 72.00949859619141 51.57653427124023 70.18695831298828 C 55.73999786376953 68.42597198486328 59.47979736328125 65.90431976318359 62.69205856323242 62.69205856323242 C 65.90431976318359 59.47979736328125 68.42597198486328 55.73999786376953 70.18695831298828 51.57653427124023 C 72.00949859619141 47.26758575439453 72.93359375 42.6886100769043 72.93359375 37.966796875 C 72.93359375 33.2449836730957 72.00949859619141 28.66600799560547 70.18695831298828 24.35705947875977 C 68.42597198486328 20.19359588623047 65.90431976318359 16.45379638671875 62.69205856323242 13.24153518676758 C 59.47979736328125 10.02928161621094 55.73999786376953 7.507637023925781 51.57653427124023 5.746635437011719 C 47.26758575439453 3.924095153808594 42.6886100769043 3 37.966796875 3 M 37.966796875 0 C 58.93528366088867 0 75.93359375 16.99832153320312 75.93359375 37.966796875 C 75.93359375 58.93528366088867 58.93528366088867 75.93359375 37.966796875 75.93359375 C 16.99831008911133 75.93359375 0 58.93528366088867 0 37.966796875 C 0 16.99832153320312 16.99831008911133 0 37.966796875 0 Z" stroke="none" fill="#86b60c"/>
                                </g>
                              </g>
                            </g>
                          </g>
                        </g>
                      </g>
                    </g>
                  </g>
                </g>
              </g>
            </g>
          </g>
        </g>
      </g>
      <g id="work_time" data-name="work time" transform="translate(842 1410)">
        <circle id="Ellipse_12651" data-name="Ellipse 12651" cx="14.359" cy="14.359" r="14.359" transform="translate(20.188 20.188)" fill="#ffdaaa"/>
        <path id="Path_1077114" data-name="Path 1077114" d="M57.226,39.424A14.424,14.424,0,0,1,42.8,53.849c-.264,0-.537-.008-.8-.024a14.424,14.424,0,0,0,0-28.8c.264-.016.537-.024.8-.024A14.424,14.424,0,0,1,57.226,39.424Z" transform="translate(-7.946 -4.569)" fill="#ffc477"/>
        <path id="Path_1077115" data-name="Path 1077115" d="M57.822,11.014l-1.587.393.841,1.4-2.268,2.268-1.4-.841-.393,1.587H49.808l-.393-1.587-1.4.841-2.268-2.268.841-1.4L45,11.014V7.808l1.587-.393-.841-1.4,2.268-2.268,1.4.841L49.808,3h3.205l.393,1.587,1.4-.841,2.268,2.268-.841,1.4,1.587.393Z" transform="translate(-8.542 -0.199)" fill="#c0ab91"/>
        <circle id="Ellipse_12652" data-name="Ellipse 12652" cx="2.393" cy="2.393" r="2.393" transform="translate(40.29 6.786)" fill="#ffde55"/>
        <path id="Path_1077116" data-name="Path 1077116" d="M26.592,19.636a10.486,10.486,0,0,1-.785,1.907l1.138,1.595,1.01,1.418-3.4,3.4-1.418-1.01-1.595-1.138a10.486,10.486,0,0,1-1.907.785l-.609,3.654H14.219l-.609-3.654a10.486,10.486,0,0,1-1.907-.785L8.69,27.954l-3.4-3.4,2.148-3.013a11.633,11.633,0,0,1-.785-1.907L3,19.027V14.219l3.654-.609A13.572,13.572,0,0,1,7.439,11.7L5.292,8.69l3.4-3.4L11.7,7.439a10.486,10.486,0,0,1,1.907-.785L14.219,3h4.808l.609,3.654a10.486,10.486,0,0,1,1.907.785l3.013-2.148,3.4,3.4L25.806,11.7a10.486,10.486,0,0,1,.785,1.907l3.654.609v4.808Z" transform="translate(-0.199 -0.199)" fill="#57a4ff"/>
        <path id="Path_1077117" data-name="Path 1077117" d="M23.014,16.609l-4.007,8.815V19.815H15L19.007,11v5.609Z" transform="translate(-2.582 -1.788)" fill="#ffde55"/>
        <path id="Path_1077118" data-name="Path 1077118" d="M15.822,53.014l-1.587.393.841,1.4-2.268,2.268-1.4-.841-.393,1.587H7.808l-.393-1.587-1.4.841L3.745,54.809l.841-1.4L3,53.014V49.808l1.587-.393-.841-1.4,2.268-2.268,1.4.841L7.808,45h3.205l.393,1.587,1.4-.841,2.268,2.268-.841,1.4,1.587.393Z" transform="translate(-0.199 -8.542)" fill="#c0ab91"/>
        <circle id="Ellipse_12653" data-name="Ellipse 12653" cx="2.393" cy="2.393" r="2.393" transform="translate(6.786 40.29)" fill="#ffde55"/>
        <path id="Path_1077119" data-name="Path 1077119" d="M35.866,3.6H42.65V2H35.437a.8.8,0,0,0-.667.357l-1.6,2.4,1.333.89Z" transform="translate(-6.191 0)"/>
        <path id="Path_1077120" data-name="Path 1077120" d="M25.783,59.492H19v1.6h7.212a.8.8,0,0,0,.667-.357l1.6-2.4-1.333-.889Z" transform="translate(-3.377 -11.014)"/>
        <path id="Path_1077121" data-name="Path 1077121" d="M34.855,19.63a15.049,15.049,0,0,0-7.9,2.228l-.416-.583a11.3,11.3,0,0,0,.466-1.127l3.173-.529a.8.8,0,0,0,.669-.79V14.02a.8.8,0,0,0-.669-.79L27.006,12.7a11.3,11.3,0,0,0-.466-1.127l1.869-2.616a.8.8,0,0,0-.086-1.032l-3.4-3.4a.8.8,0,0,0-1.032-.086L21.275,6.308a11.3,11.3,0,0,0-1.127-.462l-.529-3.173A.8.8,0,0,0,18.828,2H14.02a.8.8,0,0,0-.79.669L12.7,5.842a11.3,11.3,0,0,0-1.127.466L8.957,4.439a.8.8,0,0,0-1.032.086l-3.4,3.4a.8.8,0,0,0-.086,1.032l1.878,2.628A10.621,10.621,0,0,0,5.858,12.7l-3.189.531A.8.8,0,0,0,2,14.02v4.808a.8.8,0,0,0,.669.79l3.188.531a11.9,11.9,0,0,0,.451,1.122l-1.869,2.62a.8.8,0,0,0,.086,1.032l3.4,3.4a.8.8,0,0,0,1.032.086l2.616-1.869a11.3,11.3,0,0,0,1.128.466l.529,3.173a.8.8,0,0,0,.79.669h4.808a.8.8,0,0,0,.79-.669l.529-3.173a11.3,11.3,0,0,0,1.128-.466l.583.416a15.049,15.049,0,0,0-2.228,7.9A15.226,15.226,0,1,0,34.855,19.63ZM20.966,24.9a9.589,9.589,0,0,1-1.763.728.8.8,0,0,0-.561.635l-.493,2.983H14.7l-.5-2.983a.8.8,0,0,0-.561-.635,9.589,9.589,0,0,1-1.763-.728.8.8,0,0,0-.845.054L8.573,26.71,6.138,24.271l1.757-2.46a.8.8,0,0,0,.054-.845,10.828,10.828,0,0,1-.74-1.8.8.8,0,0,0-.623-.521L3.6,18.15V14.7l2.983-.5a.8.8,0,0,0,.623-.521,13.142,13.142,0,0,1,.759-1.834.8.8,0,0,0-.072-.809L6.138,8.577,8.577,6.138l2.46,1.757a.8.8,0,0,0,.845.054,9.589,9.589,0,0,1,1.763-.728.8.8,0,0,0,.561-.635L14.7,3.6H18.15l.5,2.983a.8.8,0,0,0,.561.635,9.589,9.589,0,0,1,1.763.728.8.8,0,0,0,.845-.054l2.46-1.757,2.439,2.439-1.757,2.46a.8.8,0,0,0-.054.845,9.589,9.589,0,0,1,.728,1.763.8.8,0,0,0,.635.561l2.983.5v3.451l-2.983.5a.8.8,0,0,0-.635.561,9.589,9.589,0,0,1-.728,1.763.8.8,0,0,0,.054.845l1.757,2.46-2.439,2.439-2.46-1.757a.8.8,0,0,0-.849-.062Zm14.69,23.537V46.074h-1.6v2.363A13.618,13.618,0,0,1,21.273,35.657h2.363v-1.6H21.262a13.421,13.421,0,0,1,1.9-6.165l.728.52a.8.8,0,0,0,1.032-.086l3.4-3.4a.8.8,0,0,0,.086-1.032l-.52-.728a13.421,13.421,0,0,1,6.165-1.9v2.374h1.6V21.273A13.618,13.618,0,0,1,48.437,34.054H46.074v1.6h2.363A13.618,13.618,0,0,1,35.657,48.437Z" transform="translate(0 0)"/>
        <path id="Path_1077122" data-name="Path 1077122" d="M43.6,31H42v9.616a.8.8,0,0,0,.8.8h6.411v-1.6H43.6Z" transform="translate(-7.946 -5.761)"/>
        <path id="Path_1077123" data-name="Path 1077123" d="M22.815,15.61H19.61V10.8a.8.8,0,0,0-1.531-.332l-4.007,8.815a.8.8,0,0,0,.729,1.133h3.205v4.808a.8.8,0,0,0,.631.784.821.821,0,0,0,.17.018.8.8,0,0,0,.729-.47l4.007-8.815a.8.8,0,0,0-.729-1.133ZM19.61,21.526v-1.91a.8.8,0,0,0-.8-.8H16.046L18.007,14.5v1.91a.8.8,0,0,0,.8.8H21.57Z" transform="translate(-2.384 -1.589)"/>
        <path id="Path_1077124" data-name="Path 1077124" d="M19,6h1.6V7.6H19Z" transform="translate(-3.377 -0.795)"/>
        <path id="Path_1077125" data-name="Path 1077125" d="M0,0H1.6V1.6H0Z" transform="translate(7.923 9.058) rotate(-45)"/>
        <path id="Path_1077126" data-name="Path 1077126" d="M6,19H7.6v1.6H6Z" transform="translate(-0.795 -3.377)"/>
        <path id="Path_1077127" data-name="Path 1077127" d="M0,0H1.6V1.6H0Z" transform="translate(7.921 23.788) rotate(-45)"/>
        <path id="Path_1077128" data-name="Path 1077128" d="M19,32h1.6v1.6H19Z" transform="translate(-3.377 -5.959)"/>
        <path id="Path_1077129" data-name="Path 1077129" d="M0,0H1.6V1.6H0Z" transform="translate(22.652 23.79) rotate(-45)"/>
        <path id="Path_1077130" data-name="Path 1077130" d="M32,19h1.6v1.6H32Z" transform="translate(-5.959 -3.377)"/>
        <path id="Path_1077131" data-name="Path 1077131" d="M0,0H1.6V1.6H0Z" transform="translate(22.654 9.06) rotate(-45)"/>
        <path id="Path_1077132" data-name="Path 1077132" d="M52.205,7a3.205,3.205,0,1,0,3.205,3.205A3.205,3.205,0,0,0,52.205,7Zm0,4.808a1.6,1.6,0,1,1,1.6-1.6A1.6,1.6,0,0,1,52.205,11.808Z" transform="translate(-9.337 -0.993)"/>
        <path id="Path_1077133" data-name="Path 1077133" d="M57.818,6.832,57.282,6.7l.284-.474a.8.8,0,0,0-.121-.979L55.179,2.979a.8.8,0,0,0-.979-.121l-.474.284-.134-.536A.8.8,0,0,0,52.815,2H49.609a.8.8,0,0,0-.777.607l-.134.536-.474-.284a.8.8,0,0,0-.979.121L44.979,5.245a.8.8,0,0,0-.121.979l.284.474-.536.134A.8.8,0,0,0,44,7.609v3.205a.8.8,0,0,0,.607.777l.536.134-.284.474a.8.8,0,0,0,.121.979l2.266,2.266a.8.8,0,0,0,.979.121l.474-.284.134.536a.8.8,0,0,0,.777.607h3.205a.8.8,0,0,0,.777-.607l.134-.536.474.284a.8.8,0,0,0,.979-.121l2.266-2.266a.8.8,0,0,0,.121-.979l-.284-.474.536-.134a.8.8,0,0,0,.607-.777V7.609a.8.8,0,0,0-.607-.777Zm-1,3.357-.978.24a.8.8,0,0,0-.492,1.19l.518.865-1.382,1.382-.865-.518a.8.8,0,0,0-1.19.492l-.244.982H50.235l-.24-.978a.8.8,0,0,0-1.19-.492l-.865.518-1.382-1.382.518-.865a.8.8,0,0,0-.492-1.19l-.982-.244V8.235l.978-.24a.8.8,0,0,0,.492-1.19l-.518-.865,1.382-1.382.865.518a.8.8,0,0,0,1.19-.493l.24-.978h1.954l.24.978a.8.8,0,0,0,1.19.493l.865-.518L55.862,5.94l-.518.865a.8.8,0,0,0,.492,1.19l.978.24Z" transform="translate(-8.343)"/>
        <path id="Path_1077134" data-name="Path 1077134" d="M10.205,49a3.205,3.205,0,1,0,3.205,3.205A3.205,3.205,0,0,0,10.205,49Zm0,4.808a1.6,1.6,0,1,1,1.6-1.6A1.6,1.6,0,0,1,10.205,53.808Z" transform="translate(-0.993 -9.337)"/>
        <path id="Path_1077135" data-name="Path 1077135" d="M15.566,54.2l-.284-.474.536-.134a.8.8,0,0,0,.607-.777V49.609a.8.8,0,0,0-.607-.777l-.536-.134.284-.474a.8.8,0,0,0-.121-.979l-2.266-2.266a.8.8,0,0,0-.979-.121l-.474.284-.134-.536A.8.8,0,0,0,10.815,44H7.609a.8.8,0,0,0-.777.607l-.134.536-.474-.284a.8.8,0,0,0-.979.121L2.979,47.245a.8.8,0,0,0-.121.979l.284.474-.536.134A.8.8,0,0,0,2,49.609v3.205a.8.8,0,0,0,.607.777l.536.134-.284.474a.8.8,0,0,0,.121.979l2.266,2.266a.8.8,0,0,0,.979.121l.474-.284.134.536a.8.8,0,0,0,.777.607h3.205a.8.8,0,0,0,.777-.607l.134-.536.474.284a.8.8,0,0,0,.979-.121l2.266-2.266a.8.8,0,0,0,.121-.979Zm-.744-2.011-.978.24a.8.8,0,0,0-.492,1.19l.518.865-1.382,1.382-.865-.518a.8.8,0,0,0-1.19.492l-.244.982H8.235l-.24-.978a.8.8,0,0,0-1.19-.492l-.865.518L4.555,54.488l.518-.865a.8.8,0,0,0-.492-1.19L3.6,52.189V50.235l.978-.24a.8.8,0,0,0,.492-1.19l-.518-.865,1.382-1.382.865.518a.8.8,0,0,0,1.19-.493l.24-.978h1.954l.24.978a.8.8,0,0,0,1.19.493l.865-.518,1.382,1.382-.518.865a.8.8,0,0,0,.492,1.19l.978.24Z" transform="translate(0 -8.343)"/>
      </g>
    </g>
  </g>
</svg>
