<svg xmlns="http://www.w3.org/2000/svg" xmlns:xlink="http://www.w3.org/1999/xlink" width="108" height="108" viewBox="0 0 108 108">
  <defs>
    <filter id="Path_904820" x="0" y="0" width="108" height="108" filterUnits="userSpaceOnUse">
      <feOffset dy="3" input="SourceAlpha"/>
      <feGaussianBlur stdDeviation="3" result="blur"/>
      <feFlood flood-opacity="0.161"/>
      <feComposite operator="in" in2="blur"/>
      <feComposite in="SourceGraphic"/>
    </filter>
  </defs>
  <g id="Group_1218508" data-name="Group 1218508" transform="translate(-198 -496.805)">
    <g id="Group_1217891" data-name="Group 1217891">
      <g id="Group_1217636" data-name="Group 1217636" transform="translate(1 -319.326)">
        <g id="Group_1215839" data-name="Group 1215839" transform="translate(0 -3216)">
          <g id="Group_1209015" data-name="Group 1209015" transform="translate(0 1366.077)">
            <g id="Group_1207774" data-name="Group 1207774" transform="translate(206 2670.713)">
              <g id="Group_1206630" data-name="Group 1206630" transform="translate(0 1.342)">
                <g id="Group_1185091" data-name="Group 1185091" transform="translate(0 0)">
                  <g id="Group_1179560" data-name="Group 1179560">
                    <g id="Group_1173787" data-name="Group 1173787" transform="translate(0)">
                      <g id="Group_1171910" data-name="Group 1171910">
                        <g id="Group_1167341" data-name="Group 1167341">
                          <g id="Group_1166792" data-name="Group 1166792">
                            <g transform="matrix(1, 0, 0, 1, -9, -6)" filter="url(#Path_904820)">
                              <g id="Path_904820-2" data-name="Path 904820" transform="translate(9 6)" fill="#fff4e6">
                                <path d="M 44.99999618530273 88.50006866455078 C 39.12687301635742 88.50006866455078 33.43022155761719 87.35014343261719 28.06829643249512 85.08222961425781 C 22.88852119445801 82.89136505126953 18.23629570007324 79.75465393066406 14.24084663391113 75.75919342041016 C 10.24540901184082 71.76374053955078 7.108683586120605 67.11151885986328 4.917821407318115 61.93174362182617 C 2.649921178817749 56.56980514526367 1.499996185302734 50.87315368652344 1.499996185302734 45.00003051757812 C 1.499996185302734 39.12690734863281 2.649921178817749 33.43025588989258 4.917821407318115 28.06831741333008 C 7.108683586120605 22.88854217529297 10.24540901184082 18.23631858825684 14.24084663391113 14.24086761474609 C 18.23629570007324 10.24541759490967 22.88852119445801 7.10869312286377 28.06829643249512 4.917842864990234 C 33.43022155761719 2.649930477142334 39.12687301635742 1.500005483627319 44.99999618530273 1.500005483627319 C 50.87311935424805 1.500005483627319 56.56977081298828 2.649930477142334 61.93169784545898 4.917842864990234 C 67.11147308349609 7.10869312286377 71.76369476318359 10.24541759490967 75.75914764404297 14.24086761474609 C 79.75458526611328 18.23631858825684 82.89131164550781 22.88854217529297 85.08216857910156 28.06831741333008 C 87.35007476806641 33.43025588989258 88.5 39.12690734863281 88.5 45.00003051757812 C 88.5 50.87315368652344 87.35007476806641 56.56980514526367 85.08216857910156 61.93174362182617 C 82.89131164550781 67.11151885986328 79.75458526611328 71.76374053955078 75.75914764404297 75.75919342041016 C 71.76369476318359 79.75465393066406 67.11147308349609 82.89136505126953 61.93169784545898 85.08222961425781 C 56.56977081298828 87.35014343261719 50.87311935424805 88.50006866455078 44.99999618530273 88.50006866455078 Z" stroke="none"/>
                                <path d="M 44.99999618530273 3 C 39.32870864868164 3 33.82865142822266 4.110061645507812 28.65262603759766 6.299346923828125 C 23.65165710449219 8.414573669433594 19.15968322753906 11.44334411621094 15.301513671875 15.30152893066406 C 11.44333648681641 19.15969848632812 8.414566040039062 23.65167236328125 6.299339294433594 28.65264511108398 C 4.110054016113281 33.82868576049805 2.999992370605469 39.32874298095703 2.999992370605469 45.00003051757812 C 2.999992370605469 50.67131805419922 4.110054016113281 56.1713752746582 6.299339294433594 61.34741592407227 C 8.414566040039062 66.348388671875 11.44333648681641 70.84036254882812 15.301513671875 74.69853210449219 C 19.15968322753906 78.55671691894531 23.65165710449219 81.58548736572266 28.65262603759766 83.70071411132812 C 33.82865142822266 85.88999938964844 39.32870864868164 87.00006103515625 44.99999618530273 87.00006103515625 C 50.67128372192383 87.00006103515625 56.17134094238281 85.88999938964844 61.34736633300781 83.70071411132812 C 66.34834289550781 81.58548736572266 70.84030914306641 78.55671691894531 74.69847869873047 74.69853210449219 C 78.55665588378906 70.84036254882812 81.58542633056641 66.348388671875 83.70065307617188 61.34741592407227 C 85.88993835449219 56.1713752746582 87 50.67131805419922 87 45.00003051757812 C 87 39.32874298095703 85.88993835449219 33.82868576049805 83.70065307617188 28.65264511108398 C 81.58542633056641 23.65167236328125 78.55665588378906 19.15969848632812 74.69847869873047 15.30152893066406 C 70.84030914306641 11.44334411621094 66.34834289550781 8.414573669433594 61.34736633300781 6.299346923828125 C 56.17134094238281 4.110061645507812 50.67128372192383 3 44.99999618530273 3 M 44.99999618530273 0 C 69.85281372070312 0 90 20.14720153808594 90 45.00003051757812 C 90 69.85285949707031 69.85281372070312 90.00006103515625 44.99999618530273 90.00006103515625 C 20.14717864990234 90.00006103515625 -7.62939453125e-06 69.85285949707031 -7.62939453125e-06 45.00003051757812 C -7.62939453125e-06 20.14720153808594 20.14717864990234 0 44.99999618530273 0 Z" stroke="none" fill="#ff9d1c"/>
                              </g>
                            </g>
                          </g>
                        </g>
                      </g>
                    </g>
                  </g>
                </g>
              </g>
            </g>
          </g>
        </g>
      </g>
      <g id="cultura-en-el-lugar-de-trabajo_1_" data-name="cultura-en-el-lugar-de-trabajo (1)" transform="translate(190.376 502.805)">
        <g id="Group_1217889" data-name="Group 1217889" transform="translate(21.487 1.318)">
          <g id="Group_1217888" data-name="Group 1217888" transform="translate(0)">
            <path id="Path_1090058" data-name="Path 1090058" d="M131.342,92.586H113.235a1.758,1.758,0,0,0-1.758,1.758v9.669a.879.879,0,0,1-.879.879h-4.3a1.758,1.758,0,0,0-1.758,1.758v37.09h7.375a5.9,5.9,0,0,1,3.71,1.3l.161.128.1-.179a7.291,7.291,0,0,1,6.327-3.688h9.125Z" transform="translate(-91.03 -77.629)" fill="#a79ba7"/>
            <path id="Path_1090059" data-name="Path 1090059" d="M231.382,92.586h4.5V141.3h-4.5Z" transform="translate(-195.573 -77.629)" fill="#918291"/>
            <path id="Path_1090060" data-name="Path 1090060" d="M264.949,71.168a7.291,7.291,0,0,1,6.327,3.688l.1.179.161-.128a5.9,5.9,0,0,1,3.71-1.3h8.014V39.171a1.758,1.758,0,0,0-1.758-1.758h-4.516a.879.879,0,0,1-.879-.879V9.258A1.758,1.758,0,0,0,274.352,7.5H257.758A1.758,1.758,0,0,0,256,9.258V71.168Z" transform="translate(-215.864 -7.5)" fill="#e2dee2"/>
            <g id="Group_1217880" data-name="Group 1217880" transform="translate(55.66 0)">
              <path id="Path_1090061" data-name="Path 1090061" d="M346.069,37.413h3.708a.879.879,0,0,1-.879-.879V9.258A1.758,1.758,0,0,0,347.14,7.5h-2.829V35.655A1.758,1.758,0,0,0,346.069,37.413Z" transform="translate(-344.311 -7.5)" fill="#cbc4cc"/>
              <g id="Group_1217879" data-name="Group 1217879" transform="translate(7.152 29.913)">
                <path id="Path_1090062" data-name="Path 1090062" d="M388.948,198.479c.216,0,.428.011.639.029V179.43a1.758,1.758,0,0,0-1.758-1.758H385v21.91A7.572,7.572,0,0,1,388.948,198.479Z" transform="translate(-385 -177.672)" fill="#cbc4cc"/>
              </g>
            </g>
            <g id="Group_1217885" data-name="Group 1217885" transform="translate(0 50.72)">
              <g id="Group_1217882" data-name="Group 1217882" transform="translate(55.565)">
                <g id="Group_1217881" data-name="Group 1217881">
                  <path id="Path_1090063" data-name="Path 1090063" d="M362.342,382.6h-14.75a6.11,6.11,0,0,0-3.82,1.335,7.411,7.411,0,0,1,.969,3.671v12.532h20.9a2.84,2.84,0,0,0,2.84-2.84v-8.56A6.138,6.138,0,0,0,362.342,382.6Z" transform="translate(-343.772 -367.38)" fill="#fdb97e"/>
                  <path id="Path_1090064" data-name="Path 1090064" d="M367.822,383v10.507a1.758,1.758,0,0,1-1.758,1.758H349.283v5.2h20.9a2.84,2.84,0,0,0,2.84-2.84v-8.56A6.14,6.14,0,0,0,367.822,383Z" transform="translate(-348.314 -367.715)" fill="#fea95c"/>
                  <circle id="Ellipse_14441" data-name="Ellipse 14441" cx="7.607" cy="7.607" r="7.607" transform="translate(3.587)" fill="#bb5d4c"/>
                </g>
              </g>
              <g id="Group_1217884" data-name="Group 1217884">
                <g id="Group_1217883" data-name="Group 1217883">
                  <path id="Path_1090065" data-name="Path 1090065" d="M51.407,387.6a7.411,7.411,0,0,1,.969-3.671,6.11,6.11,0,0,0-3.82-1.335H33.806a6.138,6.138,0,0,0-6.138,6.138v8.56a2.84,2.84,0,0,0,2.84,2.84h20.9Z" transform="translate(-27.668 -367.381)" fill="#86e8d0"/>
                  <path id="Path_1090066" data-name="Path 1090066" d="M51.407,387.937a7.409,7.409,0,0,1,.969-3.672A6.109,6.109,0,0,0,49.494,383v10.507a1.758,1.758,0,0,1-1.758,1.758H27.668v2.362a2.84,2.84,0,0,0,2.84,2.84h20.9Z" transform="translate(-27.668 -367.716)" fill="#5de1c4"/>
                  <circle id="Ellipse_14442" data-name="Ellipse 14442" cx="7.607" cy="7.607" r="7.607" transform="translate(5.906)" fill="#ffdfcf"/>
                </g>
              </g>
            </g>
            <g id="Group_1217886" data-name="Group 1217886" transform="translate(23.739 41.736)">
              <path id="Path_1090067" data-name="Path 1090067" d="M220.34,289.015a4.849,4.849,0,0,1-3.961-2.059.665.665,0,0,0-1.089,0,4.85,4.85,0,0,1-3.961,2.059h-7.3l-.24.167v2.732a9.178,9.178,0,0,0,18.357,0v-2.732l-.177-.167Z" transform="translate(-196.565 -279.336)" fill="#ffdfcf"/>
              <path id="Path_1090068" data-name="Path 1090068" d="M242.422,293.278H240.8a4.846,4.846,0,0,1-3.435-1.433v2.978a9.178,9.178,0,0,1-8.758,9.168,9.178,9.178,0,0,0,13.994-7.814v-2.732Z" transform="translate(-217.024 -283.599)" fill="#ffcebf"/>
              <path id="Path_1090069" data-name="Path 1090069" d="M192.673,392.574H165.558a2.84,2.84,0,0,1-2.84-2.84V376.151a7.448,7.448,0,0,1,7.448-7.448h17.9a7.448,7.448,0,0,1,7.448,7.448v13.582A2.84,2.84,0,0,1,192.673,392.574Z" transform="translate(-162.718 -346.947)" fill="#b3dafe"/>
              <path id="Path_1090070" data-name="Path 1090070" d="M190.289,370.627V386.1a2.84,2.84,0,0,1-2.84,2.84H162.718v2.381a2.84,2.84,0,0,0,2.84,2.84h27.115a2.84,2.84,0,0,0,2.84-2.84V377.737A7.452,7.452,0,0,0,190.289,370.627Z" transform="translate(-162.718 -348.533)" fill="#8ac9fe"/>
              <path id="Path_1090071" data-name="Path 1090071" d="M237.967,374.957h3.175l.24-.213,1.689-6.041h-7.009l1.681,6.041Z" transform="translate(-223.17 -346.947)" fill="#d9b1ee"/>
              <path id="Path_1090072" data-name="Path 1090072" d="M241.054,420.9l-2.236-17.829h-3.639L232.951,420.9Z" transform="translate(-220.605 -375.274)" fill="#cb97e7"/>
              <path id="Path_1090073" data-name="Path 1090073" d="M233.6,474.8l-.653,5.221h8.1L240.4,474.8Z" transform="translate(-220.605 -434.391)" fill="#bd80e1"/>
              <path id="Path_1090074" data-name="Path 1090074" d="M222.141,254.78h-1.8a5,5,0,0,1-4.1-2.13.5.5,0,0,0-.817,0,5,5,0,0,1-4.1,2.13h-7.545v-1.168a8.678,8.678,0,0,1,8.678-8.678h1a8.678,8.678,0,0,1,8.678,8.678v1.168Z" transform="translate(-196.565 -244.934)" fill="#685e68"/>
              <path id="Path_1090075" data-name="Path 1090075" d="M256.113,244.934h-.583a8.669,8.669,0,0,1,4.025,7.324v1.155a4.986,4.986,0,0,0,3.435,1.367h1.8v-1.168A8.678,8.678,0,0,0,256.113,244.934Z" transform="translate(-239.215 -244.934)" fill="#554e56"/>
            </g>
            <g id="Group_1217887" data-name="Group 1217887" transform="translate(27.084 9.277)">
              <path id="Path_1090076" data-name="Path 1090076" d="M207.851,73.327a13.053,13.053,0,1,0-16.086,12.694,2.262,2.262,0,0,1,1.338.894l1.15,1.644a.666.666,0,0,0,1.091,0l1.151-1.645a2.246,2.246,0,0,1,1.33-.891,13.054,13.054,0,0,0,10.027-12.7Z" transform="translate(-181.747 -60.275)" fill="#fedf30"/>
            </g>
            <path id="Path_1090077" data-name="Path 1090077" d="M218.607,64.3a13.046,13.046,0,0,1-13.119,21.908,13.026,13.026,0,0,0,5.845,3.131,2.262,2.262,0,0,1,1.338.894l1.15,1.644a.666.666,0,0,0,1.091,0l1.151-1.645a2.247,2.247,0,0,1,1.33-.891A13.052,13.052,0,0,0,218.607,64.3Z" transform="translate(-174.231 -54.316)" fill="#fed402"/>
            <path id="Path_1090078" data-name="Path 1090078" d="M383.7,296.226a7.605,7.605,0,0,1-5.214,13.144c-.233,0-.463-.012-.691-.033a7.606,7.606,0,1,0,5.9-13.111Z" transform="translate(-316.248 -245.473)" fill="#a44f3e"/>
            <path id="Path_1090079" data-name="Path 1090079" d="M80.783,296.226a7.606,7.606,0,0,1-5.214,13.144c-.233,0-.463-.012-.691-.033a7.606,7.606,0,1,0,5.905-13.111Z" transform="translate(-66.579 -245.473)" fill="#ffcebf"/>
          </g>
        </g>
        <g id="Group_1217890" data-name="Group 1217890" transform="translate(20.169 0)">
          <path id="Path_1090080" data-name="Path 1090080" d="M289.822,220.793h2.637v3.688h-2.637Z" transform="translate(-242.422 -181.982)"/>
          <path id="Path_1090081" data-name="Path 1090081" d="M324.287,220.793h2.637v3.688h-2.637Z" transform="translate(-270.829 -181.982)"/>
          <path id="Path_1090082" data-name="Path 1090082" d="M358.752,220.793h2.637v3.688h-2.637Z" transform="translate(-299.235 -181.982)"/>
          <path id="Path_1090083" data-name="Path 1090083" d="M324.287,261.123h2.637v3.688h-2.637Z" transform="translate(-270.829 -215.222)"/>
          <path id="Path_1090084" data-name="Path 1090084" d="M358.752,261.123h2.637v3.688h-2.637Z" transform="translate(-299.235 -215.222)"/>
          <path id="Path_1090085" data-name="Path 1090085" d="M324.287,46.312h2.637V50h-2.637Z" transform="translate(-270.829 -38.171)"/>
          <path id="Path_1090086" data-name="Path 1090086" d="M137.229,220.793h2.637v3.688h-2.637Z" transform="translate(-116.652 -181.982)"/>
          <path id="Path_1090087" data-name="Path 1090087" d="M171.694,220.793h2.637v3.688h-2.637Z" transform="translate(-145.059 -181.982)"/>
          <path id="Path_1090088" data-name="Path 1090088" d="M206.16,220.793H208.8v3.688H206.16Z" transform="translate(-173.466 -181.982)"/>
          <path id="Path_1090089" data-name="Path 1090089" d="M137.229,261.123h2.637v3.688h-2.637Z" transform="translate(-116.652 -215.222)"/>
          <path id="Path_1090090" data-name="Path 1090090" d="M171.694,261.123h2.637v3.688h-2.637Z" transform="translate(-145.059 -215.222)"/>
          <path id="Path_1090091" data-name="Path 1090091" d="M226.172,110.525a1.318,1.318,0,0,0,1.318-1.318v-1.014a1.318,1.318,0,0,0-2.637,0v1.014A1.318,1.318,0,0,0,226.172,110.525Z" transform="translate(-188.874 -88.088)"/>
          <path id="Path_1090092" data-name="Path 1090092" d="M273.464,110.525a1.318,1.318,0,0,0,1.318-1.318v-1.014a1.318,1.318,0,0,0-2.637,0v1.014A1.318,1.318,0,0,0,273.464,110.525Z" transform="translate(-227.853 -88.088)"/>
          <path id="Path_1090093" data-name="Path 1090093" d="M228.237,147.632a1.318,1.318,0,0,0,0,1.864,6.448,6.448,0,0,0,9.124,0,1.318,1.318,0,1,0-1.864-1.864,3.812,3.812,0,0,1-5.4,0A1.319,1.319,0,0,0,228.237,147.632Z" transform="translate(-191.345 -121.363)"/>
          <path id="Path_1090094" data-name="Path 1090094" d="M95.622,65.935H94.574a8.919,8.919,0,0,0-4.369-15V46.23a1.318,1.318,0,0,0-2.637,0v4.518A8.919,8.919,0,0,0,81.92,65.935H80.872a7.478,7.478,0,0,0-3.457.854,8.753,8.753,0,0,0-6.843-3.3h-2a10.472,10.472,0,0,0,3.55-7.86v-3.9a10.008,10.008,0,0,0-9.178-9.96V39.98a1.975,1.975,0,0,0,.307-.344L64.4,37.99a.931.931,0,0,1,.554-.364A14.389,14.389,0,0,0,75.2,18.918h1.063V15.23H73.627v.511A14.529,14.529,0,0,0,69.8,11.829h.4V8.141H67.569v2.418a14.249,14.249,0,0,0-4.627-1.221V3.076a.44.44,0,0,1,.439-.439H79.976a.44.44,0,0,1,.439.439V30.352a2.2,2.2,0,0,0,2.2,2.2h4.516a.44.44,0,0,1,.439.439v7.089a1.318,1.318,0,0,0,2.637,0V32.989a3.08,3.08,0,0,0-3.076-3.076H83.052V3.076A3.08,3.08,0,0,0,79.976,0H63.381a3.08,3.08,0,0,0-3.076,3.076V9.338a14.468,14.468,0,0,0-10.093,5.618h-6.52a3.08,3.08,0,0,0-3.076,3.076v9.23H36.758a3.08,3.08,0,0,0-3.076,3.076V50.818a8.92,8.92,0,0,0-5.009,15.117H27.625a7.465,7.465,0,0,0-7.456,7.456v8.56a4.163,4.163,0,0,0,4.158,4.158h2.492a1.318,1.318,0,0,0,0-2.637H24.327a1.523,1.523,0,0,1-1.522-1.521v-8.56a4.825,4.825,0,0,1,4.82-4.82h14.75a4.765,4.765,0,0,1,2.135.5,8.716,8.716,0,0,0-.6,3.186V83.473H32.971a1.318,1.318,0,1,0,0,2.637H43.918A4.163,4.163,0,0,0,48.066,90H75.181a4.163,4.163,0,0,0,4.149-3.891H98.921a4.163,4.163,0,0,0,4.158-4.158v-8.56a7.465,7.465,0,0,0-7.457-7.456Zm-26.138-10.3a7.86,7.86,0,1,1-15.72,0V54.219H59.99A6.336,6.336,0,0,0,64.5,52.332,6.335,6.335,0,0,0,69,54.219h.482Zm-6.093,10.5-.952,3.4H60.8l-.947-3.4ZM69.48,51.582H69a3.7,3.7,0,0,1-3.019-1.57,1.817,1.817,0,0,0-2.973,0,3.7,3.7,0,0,1-3.019,1.57H53.767a7.367,7.367,0,0,1,7.356-7.209h1a7.367,7.367,0,0,1,7.356,7.209ZM35,65.935a6.289,6.289,0,1,1,6.289-6.289A6.3,6.3,0,0,1,35,65.935Zm10.832.854a7.478,7.478,0,0,0-3.457-.854H41.327a8.92,8.92,0,0,0-5.009-15.117V30.339a.44.44,0,0,1,.439-.439h4.3a2.2,2.2,0,0,0,2.2-2.2V18.033a.44.44,0,0,1,.439-.439H48.6a14.1,14.1,0,0,0-1.109,3.436,1.318,1.318,0,0,0,2.593.48,11.823,11.823,0,0,1,10.979-9.583,11.734,11.734,0,0,1,3.279,23.135,3.564,3.564,0,0,0-2.106,1.418l-.616.88-.615-.879A3.581,3.581,0,0,0,58.9,35.059a11.76,11.76,0,0,1-8.505-8.018,1.318,1.318,0,1,0-2.524.762,14.4,14.4,0,0,0,10.419,9.821.948.948,0,0,1,.564.368L60,39.636a1.973,1.973,0,0,0,.307.344v1.793a10.007,10.007,0,0,0-9.178,9.96v3.9a10.472,10.472,0,0,0,3.55,7.86h-2a8.752,8.752,0,0,0-6.843,3.3ZM56.408,87.363H48.066a1.523,1.523,0,0,1-1.522-1.521V72.259a6.137,6.137,0,0,1,6.13-6.13h4.443l1.342,4.822Zm2.657,0,1.9-15.192h1.312l1.905,15.192ZM76.7,85.842a1.523,1.523,0,0,1-1.522,1.521H66.838L64.78,70.952l1.348-4.822h4.444a6.137,6.137,0,0,1,6.13,6.13ZM88.247,53.357a6.289,6.289,0,1,1-6.289,6.289,6.3,6.3,0,0,1,6.289-6.289Zm12.195,28.595a1.523,1.523,0,0,1-1.521,1.521H79.339V72.259a8.719,8.719,0,0,0-.6-3.186,4.765,4.765,0,0,1,2.135-.5h14.75a4.825,4.825,0,0,1,4.82,4.82Z" transform="translate(-20.169 0)"/>
        </g>
      </g>
    </g>
  </g>
</svg>
