<svg xmlns="http://www.w3.org/2000/svg" width="85" height="93" viewBox="0 0 85 93">
  <g id="Group_1218511" data-name="Group 1218511" transform="translate(-180 -1612)">
    <g id="Group_1217921" data-name="Group 1217921">
      <rect id="Rectangle_420730" data-name="Rectangle 420730" width="62" height="93" transform="translate(203 1612)" fill="#86b60c"/>
      <g id="motivacion_5_" data-name="motivacion (5)" transform="translate(180.001 1616.052)">
        <g id="Group_1217907" data-name="Group 1217907" transform="translate(13.126 6.973)">
          <g id="Group_1217904" data-name="Group 1217904" transform="translate(24.073 0)">
            <path id="Path_1090140" data-name="Path 1090140" d="M225.522,25.653h3.529V45.206h9.4V25.653h3.529a1.441,1.441,0,0,0,1.091-2.383l-8.23-9.542a1.441,1.441,0,0,0-2.183,0l-8.23,9.542A1.441,1.441,0,0,0,225.522,25.653Z" transform="translate(-224.078 -13.229)" fill="#fcb44d"/>
            <path id="Path_1090141" data-name="Path 1090141" d="M275.54,25.655h-2.088a1.441,1.441,0,0,0-1.441,1.441V45.207h4.283V25.655h3.528a1.442,1.442,0,0,0,1.092-2.382l-8.231-9.542a1.441,1.441,0,0,0-2.182,0l-1.051,1.218,7.18,8.325A1.441,1.441,0,0,1,275.54,25.655Z" transform="translate(-261.918 -13.23)" fill="#fb9927"/>
          </g>
          <g id="Group_1217905" data-name="Group 1217905" transform="translate(0 12.093)">
            <path id="Path_1090142" data-name="Path 1090142" d="M80.576,99.035h3.683v20.4h9.811v-20.4h3.683a1.5,1.5,0,0,0,1.139-2.486L90.3,86.592a1.5,1.5,0,0,0-2.278,0l-8.588,9.957a1.5,1.5,0,0,0,1.139,2.486Z" transform="translate(-79.069 -86.071)" fill="#fcb44d"/>
            <path id="Path_1090143" data-name="Path 1090143" d="M132.77,99.04h-2.179a1.5,1.5,0,0,0-1.5,1.5v18.9h4.47V99.04h3.682a1.5,1.5,0,0,0,1.14-2.486L129.789,86.6a1.5,1.5,0,0,0-2.277,0l-1.1,1.271,7.492,8.686a1.5,1.5,0,0,1-1.139,2.486Z" transform="translate(-118.556 -86.074)" fill="#fb9927"/>
          </g>
          <g id="Group_1217906" data-name="Group 1217906" transform="translate(47.29 6.119)">
            <path id="Path_1090144" data-name="Path 1090144" d="M365.372,62.509H368.9v60.622h9.4V62.509h3.529a1.441,1.441,0,0,0,1.091-2.383l-8.23-9.542a1.441,1.441,0,0,0-2.183,0l-8.23,9.542A1.441,1.441,0,0,0,365.372,62.509Z" transform="translate(-363.927 -50.085)" fill="#fcb44d"/>
            <path id="Path_1090145" data-name="Path 1090145" d="M415.39,62.511H413.3a1.441,1.441,0,0,0-1.441,1.441v59.18h4.283V62.511h3.528a1.442,1.442,0,0,0,1.093-2.382l-8.231-9.542a1.441,1.441,0,0,0-2.182,0L409.3,51.8l7.18,8.325A1.441,1.441,0,0,1,415.39,62.511Z" transform="translate(-401.768 -50.086)" fill="#fb9927"/>
          </g>
        </g>
        <g id="Group_1217920" data-name="Group 1217920" transform="translate(-0.001 5.728)">
          <g id="Group_1217908" data-name="Group 1217908" transform="translate(1.247 25.732)">
            <path id="Path_1090146" data-name="Path 1090146" d="M40.339,170.03l1.006-9.267c-2.8-.15-20.875-.5-25.355,15.1-3.617,12.6-.01,24.6-8.295,34.725a.829.829,0,0,0,.66,1.35,13.108,13.108,0,0,0,5.575-1.412l.257,5.53a.83.83,0,0,0,1.4.562,26.075,26.075,0,0,0,7.089-13.207C25.78,189.71,21.359,169.507,40.339,170.03Z" transform="translate(-7.509 -160.728)" fill="#64b9fc"/>
            <path id="Path_1090147" data-name="Path 1090147" d="M73.366,190.754,72.9,195.07c-18.98-.521-14.559,19.681-17.659,33.38a26.085,26.085,0,0,1-7.09,13.207.83.83,0,0,1-1.4-.563l-.2-4.262a27.552,27.552,0,0,0,4.886-10.727C54.473,212.678,49.467,191.58,73.366,190.754Z" transform="translate(-40.068 -185.769)" fill="#31a7fb"/>
          </g>
          <g id="Group_1217919" data-name="Group 1217919">
            <g id="Group_1217917" data-name="Group 1217917" transform="translate(16.33 21.267)">
              <g id="Group_1217916" data-name="Group 1217916">
                <path id="Path_1090148" data-name="Path 1090148" d="M154.88,230.533v23.421l3.736,3.736a4.934,4.934,0,0,1,1.445,3.489v12.444h29.517V255.008l5.81-6.455a7.074,7.074,0,0,0,1.816-4.733V230.533Z" transform="translate(-145.498 -214.48)" fill="#fda79b"/>
                <path id="Path_1090149" data-name="Path 1090149" d="M205.993,241.908V249.6a7.074,7.074,0,0,1-1.382,4.2c-4,1.4-8.114,3.439-14.441,4.579-15.973,2.883-23.65-13.489-24.752-16.064l8.424-4.854C181.765,254.711,192.335,245.186,205.993,241.908Z" transform="translate(-154.286 -220.254)" fill="#fc9085"/>
                <path id="Path_1090150" data-name="Path 1090150" d="M339.678,230.536v13.287a7.08,7.08,0,0,1-1.817,4.734l-5.81,6.453v18.615h-6.337V256.607a4.157,4.157,0,0,1,1.067-2.782l4.743-5.268a7.079,7.079,0,0,0,1.815-4.734V230.536h6.339Z" transform="translate(-287.971 -214.482)" fill="#fc9085"/>
                <g id="Group_1217909" data-name="Group 1217909" transform="translate(11.131 13.606)">
                  <path id="Path_1090151" data-name="Path 1090151" d="M173.839,215.793l-8.424,4.855c1.1,2.575,8.78,18.946,24.754,16.065,12.878-2.323,16.578-8.345,28.848-5.235a.83.83,0,0,0,.945-1.185,13.119,13.119,0,0,0-3.72-4.352l5.039-2.782a.829.829,0,0,0-.024-1.466,22.266,22.266,0,0,0-15.265-1.448C192.333,223.521,181.764,233.047,173.839,215.793Z" transform="translate(-165.415 -215.793)" fill="#64b9fc"/>
                  <path id="Path_1090152" data-name="Path 1090152" d="M209.314,219.675v4.4a7.832,7.832,0,0,1-12.49,6.3,8.2,8.2,0,0,1-9.763-.156,8.444,8.444,0,0,1-9.375.511,8.675,8.675,0,0,1-3.146,2.056,32.736,32.736,0,0,1-9.121-12.136l8.424-4.854c7.924,17.254,18.494,7.729,32.152,4.451A25.481,25.481,0,0,1,209.314,219.675Z" transform="translate(-165.418 -215.795)" fill="#31a7fb"/>
                </g>
                <g id="Group_1217911" data-name="Group 1217911" transform="translate(11.859)">
                  <path id="Path_1090153" data-name="Path 1090153" d="M239.383,160.236a5.148,5.148,0,0,1-5.148-5.148V138.983a5.148,5.148,0,0,1,10.3,0v16.105A5.148,5.148,0,0,1,239.383,160.236Z" transform="translate(-223.538 -133.835)" fill="#fcb3a9"/>
                  <path id="Path_1090154" data-name="Path 1090154" d="M259.04,138.985v16.106a5.151,5.151,0,0,1-7.408,4.626,5.149,5.149,0,0,0,2.89-4.626V138.985a5.158,5.158,0,0,0-2.89-4.626,5.149,5.149,0,0,1,7.408,4.626Z" transform="translate(-238.047 -133.838)" fill="#fda79b"/>
                  <path id="Path_1090155" data-name="Path 1090155" d="M301.162,166.4a4.909,4.909,0,0,1-4.909-4.909V146.131a4.909,4.909,0,0,1,9.818,0v15.357A4.909,4.909,0,0,1,301.162,166.4Z" transform="translate(-275.26 -139.996)" fill="#fcb3a9"/>
                  <path id="Path_1090156" data-name="Path 1090156" d="M319.378,146.132v15.356a4.908,4.908,0,0,1-7.169,4.356,4.9,4.9,0,0,0,2.649-4.356V146.132a4.906,4.906,0,0,0-2.649-4.358,4.91,4.91,0,0,1,7.169,4.358Z" transform="translate(-288.567 -139.996)" fill="#fda79b"/>
                  <path id="Path_1090157" data-name="Path 1090157" d="M359.91,176.446a4.519,4.519,0,0,1-4.519-4.519V157.791a4.519,4.519,0,1,1,9.037,0v14.137A4.519,4.519,0,0,1,359.91,176.446Z" transform="translate(-324.58 -150.045)" fill="#fcb3a9"/>
                  <path id="Path_1090158" data-name="Path 1090158" d="M375.781,157.79v14.137A4.519,4.519,0,0,1,369,175.841a4.516,4.516,0,0,0,2.259-3.913V157.79A4.521,4.521,0,0,0,369,153.877a4.519,4.519,0,0,1,6.778,3.913Z" transform="translate(-335.933 -150.045)" fill="#fda79b"/>
                  <g id="Group_1217910" data-name="Group 1217910" transform="translate(0 1.079)">
                    <path id="Path_1090159" data-name="Path 1090159" d="M175.148,167.087a5.349,5.349,0,0,1-5.349-5.349V145.683a5.349,5.349,0,0,1,10.7,0v16.055A5.349,5.349,0,0,1,175.148,167.087Z" transform="translate(-169.799 -140.334)" fill="#fcb3a9"/>
                    <path id="Path_1090160" data-name="Path 1090160" d="M196.021,145.686v16.055a5.351,5.351,0,0,1-7.608,4.849,5.35,5.35,0,0,0,3.089-4.849V145.686a5.36,5.36,0,0,0-3.089-4.849,5.349,5.349,0,0,1,7.608,4.849Z" transform="translate(-185.323 -140.337)" fill="#fda79b"/>
                  </g>
                </g>
                <g id="Group_1217913" data-name="Group 1217913" transform="translate(0 5.258)">
                  <g id="Group_1217912" data-name="Group 1217912">
                    <path id="Path_1090161" data-name="Path 1090161" d="M107.9,199.874l-6.237-6.237a11.26,11.26,0,0,1,0-15.924l10.544-10.544a5.681,5.681,0,0,1,8.034,8.034L109.77,185.675s10.558.112,14.782,11.831Z" transform="translate(-98.366 -165.504)" fill="#fda79b"/>
                  </g>
                </g>
                <g id="Group_1217915" data-name="Group 1217915" transform="translate(6.471 5.258)">
                  <g id="Group_1217914" data-name="Group 1217914">
                    <path id="Path_1090162" data-name="Path 1090162" d="M152.75,175.205l-10.474,10.472c-1.388-.078-2.779-.064-3.914-.023a.979.979,0,0,1-.73-1.67L148.02,173.6a5.682,5.682,0,0,0-.01-8.044,5.68,5.68,0,0,1,4.74,9.651Z" transform="translate(-137.344 -165.508)" fill="#fc9085"/>
                  </g>
                </g>
              </g>
            </g>
            <g id="Group_1217918" data-name="Group 1217918">
              <path id="Path_1090163" data-name="Path 1090163" d="M16.939,58.98c-.143,1.4-.276,2.922-.392,4.313A79.637,79.637,0,0,1,15.2,73.866,25.319,25.319,0,0,1,9.125,85.785L8.912,81.2a1.245,1.245,0,0,0-1.791-1.061,12.393,12.393,0,0,1-4.143,1.232C7.873,74.927,8.394,67.909,8.943,60.5a65.749,65.749,0,0,1,1.982-13.559c2.555-8.9,9.852-12.308,16.02-13.56,0,.016,0,2.008,0,2.008L22.327,40a1.245,1.245,0,0,0,1.761,1.761L31.053,34.8a4.436,4.436,0,1,1,6.273,6.273L26.854,51.543a1.245,1.245,0,0,0,.867,2.126c.1,0,9.738.228,13.624,11.007a1.245,1.245,0,1,0,2.343-.844c-.186-.516-.385-1.008-.593-1.482a19.74,19.74,0,0,0,5.435.755q.417,0,.837-.017a1.245,1.245,0,1,0-.1-2.488,17.283,17.283,0,0,1-8-1.578,18.224,18.224,0,0,0-3.891-4.173A6.543,6.543,0,0,0,39.353,52.6a6.382,6.382,0,0,0,9.768-.484,6.144,6.144,0,0,0,9.777.209,5.762,5.762,0,0,0,10.383-3.444V46.056a21,21,0,0,1,12.733,1.213l-4.33,2.39a1.245,1.245,0,0,0-.159,2.075,12.418,12.418,0,0,1,2.9,3.121c-7.566-1.7-12.086.057-17.289,2.075a64.426,64.426,0,0,1-8.215,2.738,1.245,1.245,0,1,0,.6,2.417,67.371,67.371,0,0,0,8.517-2.834c.82-.318,1.612-.625,2.394-.911a5.8,5.8,0,0,1-1.141,1.9l-5.81,6.455a1.245,1.245,0,0,0-.32.833V86.138a1.245,1.245,0,0,0,2.49,0V68l2.489-2.765v20.9a1.245,1.245,0,0,0,1.245,1.245h9.4a1.245,1.245,0,0,0,1.245-1.245V56.712a26.214,26.214,0,0,1,4.719.78,2.075,2.075,0,0,0,2.359-2.96,13.791,13.791,0,0,0-2.667-3.555l3.479-1.921a2.074,2.074,0,0,0-.065-3.667A21.923,21.923,0,0,0,76.036,43.2v-4.53a1.245,1.245,0,1,0-2.49,0v4.431a25.752,25.752,0,0,0-4.265.416V34.741A5.763,5.763,0,0,0,66.634,29.9v-4.38a1.245,1.245,0,0,0-1.245-1.245H61.86a.2.2,0,0,1-.148-.324l8.23-9.542a.2.2,0,0,1,.3,0l8.23,9.542a.2.2,0,0,1-.149.324H74.791a1.245,1.245,0,0,0-1.245,1.245V32.65a1.245,1.245,0,0,0,2.49,0V26.761H78.32a2.686,2.686,0,0,0,2.034-4.441l-8.23-9.542a2.686,2.686,0,0,0-4.068,0l-8.23,9.542a2.686,2.686,0,0,0,2.034,4.441h2.284v2.251a5.743,5.743,0,0,0-4.5,1.466,6.152,6.152,0,0,0-6.823-3.369V20.643H55.1A2.686,2.686,0,0,0,57.138,16.2L48.908,6.66a2.686,2.686,0,0,0-4.068,0L36.609,16.2a2.686,2.686,0,0,0,2.034,4.441h2.284v5.916a6.436,6.436,0,0,0-2.476,2.474,6.57,6.57,0,0,0-6.107-2.093L25.3,18.775a2.749,2.749,0,0,0-4.163,0l-8.588,9.957a2.749,2.749,0,0,0,2.082,4.544h2.438v1.344c-.056.036-.113.071-.169.108A20.037,20.037,0,0,0,8.531,46.25,67.713,67.713,0,0,0,6.459,60.312C5.919,67.606,5.408,74.5.47,80.53a2.074,2.074,0,0,0,1.64,3.383,13.782,13.782,0,0,0,4.4-.82l.174,3.75a2.053,2.053,0,0,0,1.3,1.831,2.094,2.094,0,0,0,.779.152,2.055,2.055,0,0,0,1.426-.579A27.318,27.318,0,0,0,17.63,74.416a81.424,81.424,0,0,0,1.4-10.916c.049-.594.1-1.2.152-1.8l9.387,9.387a3.664,3.664,0,0,1,1.08,2.608V86.138a1.245,1.245,0,0,0,2.49,0V73.695a6.139,6.139,0,0,0-1.81-4.369l-9.821-9.82a10.011,10.011,0,0,1-.579-13.529,1.245,1.245,0,0,0-1.9-1.607A12.505,12.505,0,0,0,16.939,58.98ZM42.173,18.152H38.643a.2.2,0,0,1-.149-.324l8.23-9.542a.2.2,0,0,1,.3,0l8.23,9.542a.2.2,0,0,1-.149.324H51.575A1.245,1.245,0,0,0,50.329,19.4v8.867a6.2,6.2,0,0,0-.757.693,6.4,6.4,0,0,0-5.539-3.207c-.208,0-.413.011-.616.03V19.4a1.245,1.245,0,0,0-1.245-1.245ZM19.561,33.217V32.031a1.245,1.245,0,0,0-1.245-1.245H14.633a.259.259,0,0,1-.2-.428L23.025,20.4a.259.259,0,0,1,.392,0L29.9,27.923a6.634,6.634,0,0,0-2.388,2.814,29.438,29.438,0,0,0-7.957,2.48Zm9.912-.353a4.1,4.1,0,0,1,7.8-1.133,6.927,6.927,0,0,0-7.8,1.133Zm8.168,16.614A4.082,4.082,0,0,1,35.023,53.3c-.326-.179-.644-.34-.952-.485a18.1,18.1,0,0,0-3.7-1.275l7.266-7.266Zm6.393,2.673a3.907,3.907,0,0,1-3.9-3.9V41.5a6.944,6.944,0,0,0,0-7.129V32.143a3.9,3.9,0,1,1,7.806,0V48.248A3.907,3.907,0,0,1,44.034,52.151Zm10.057,0a3.668,3.668,0,0,1-3.664-3.664V33.131a3.664,3.664,0,0,1,7.327,0V48.488A3.668,3.668,0,0,1,54.09,52.151Zm12.7-3.274a3.274,3.274,0,0,1-6.547,0V34.741a3.274,3.274,0,1,1,6.547,0Zm-.157,36.015V62.469l.511-.567a8.267,8.267,0,0,0,2.061-4.463,20.6,20.6,0,0,1,4.339-.74V84.893Z" transform="translate(0.001 -5.728)"/>
              <path id="Path_1090164" data-name="Path 1090164" d="M245.239,399.011a1.245,1.245,0,0,0-2.49,0v3.781a12.569,12.569,0,0,0-5.71-4.923,1.245,1.245,0,0,0-.995,2.283,10.652,10.652,0,0,1,5.84,6.614,15.586,15.586,0,0,1,.865,4.627v1.7a1.245,1.245,0,1,0,2.49,0V399.011Z" transform="translate(-196.233 -332.682)"/>
            </g>
          </g>
        </g>
      </g>
    </g>
  </g>
</svg>
