<svg xmlns="http://www.w3.org/2000/svg" xmlns:xlink="http://www.w3.org/1999/xlink" width="93.934" height="93.934" viewBox="0 0 93.934 93.934">
  <defs>
    <filter id="Path_982547" x="0" y="0" width="93.934" height="93.934" filterUnits="userSpaceOnUse">
      <feOffset dy="3" input="SourceAlpha"/>
      <feGaussianBlur stdDeviation="3" result="blur"/>
      <feFlood flood-opacity="0.161"/>
      <feComposite operator="in" in2="blur"/>
      <feComposite in="SourceGraphic"/>
    </filter>
  </defs>
  <g id="Group_1218505" data-name="Group 1218505" transform="translate(-612.533 -1032.581)">
    <g id="Group_1217851" data-name="Group 1217851">
      <g id="Group_1216248" data-name="Group 1216248" transform="translate(621.533 1038.581)">
        <g id="Group_1215746" data-name="Group 1215746">
          <g id="Group_1214375" data-name="Group 1214375">
            <g id="Group_1207741" data-name="Group 1207741">
              <g id="Group_1206678" data-name="Group 1206678">
                <g id="Group_1183665" data-name="Group 1183665">
                  <g id="Group_1181743" data-name="Group 1181743">
                    <g id="Group_1175133" data-name="Group 1175133">
                      <g id="Group_1167337" data-name="Group 1167337">
                        <g id="Group_1166720" data-name="Group 1166720">
                          <g id="Group_1164305" data-name="Group 1164305">
                            <g id="Group_1163948" data-name="Group 1163948">
                              <g id="Group_1158168" data-name="Group 1158168">
                                <g id="Group_1152576" data-name="Group 1152576">
                                  <g id="Group_1148633" data-name="Group 1148633">
                                    <g id="Group_1148525" data-name="Group 1148525">
                                      <g transform="matrix(1, 0, 0, 1, -9, -6)" filter="url(#Path_982547)">
                                        <g id="Path_982547-2" data-name="Path 982547" transform="translate(9 6)" fill="#f2f7e5">
                                          <path d="M 37.966796875 74.43359375 C 33.04315185546875 74.43359375 28.26757431030273 73.46962738037109 23.77274131774902 71.56847381591797 C 19.43047523498535 69.73184967041016 15.53040790557861 67.10224914550781 12.18087482452393 63.75271987915039 C 8.831341743469238 60.4031867980957 6.201741218566895 56.50312042236328 4.365118980407715 52.16086196899414 C 2.463963508605957 47.66601943969727 1.499996900558472 42.89044189453125 1.499996900558472 37.966796875 C 1.499996900558472 33.04315185546875 2.463963508605957 28.26757431030273 4.365118980407715 23.77274131774902 C 6.201741218566895 19.43047523498535 8.831341743469238 15.53040790557861 12.18087482452393 12.18087482452393 C 15.53040790557861 8.831341743469238 19.43047523498535 6.201741218566895 23.77274131774902 4.365118980407715 C 28.26757431030273 2.463963508605957 33.04315185546875 1.499996900558472 37.966796875 1.499996900558472 C 42.89044189453125 1.499996900558472 47.66601943969727 2.463963508605957 52.16086196899414 4.365118980407715 C 56.50312042236328 6.201741218566895 60.4031867980957 8.831341743469238 63.75271987915039 12.18087482452393 C 67.10224914550781 15.53040790557861 69.73184967041016 19.43047523498535 71.56847381591797 23.77274131774902 C 73.46962738037109 28.26757431030273 74.43359375 33.04315185546875 74.43359375 37.966796875 C 74.43359375 42.89044189453125 73.46962738037109 47.66601943969727 71.56847381591797 52.16086196899414 C 69.73184967041016 56.50313186645508 67.10224914550781 60.4031867980957 63.75271987915039 63.75271987915039 C 60.4031867980957 67.10224914550781 56.50313186645508 69.73184967041016 52.16086196899414 71.56847381591797 C 47.66601943969727 73.46962738037109 42.89044189453125 74.43359375 37.966796875 74.43359375 Z" stroke="none"/>
                                          <path d="M 37.966796875 3 C 33.2449836730957 3 28.66600799560547 3.924095153808594 24.35705947875977 5.746635437011719 C 20.19359588623047 7.507637023925781 16.45379638671875 10.02928161621094 13.24153518676758 13.24153518676758 C 10.02927398681641 16.45379638671875 7.507621765136719 20.19359588623047 5.746635437011719 24.35705947875977 C 3.924095153808594 28.66600799560547 3 33.2449836730957 3 37.966796875 C 3 42.6886100769043 3.924095153808594 47.26758575439453 5.746635437011719 51.57653427124023 C 7.507621765136719 55.73999786376953 10.02927398681641 59.47979736328125 13.24153518676758 62.69205856323242 C 16.45379638671875 65.90431976318359 20.19359588623047 68.42597198486328 24.35705947875977 70.18695831298828 C 28.66600799560547 72.00949859619141 33.2449836730957 72.93359375 37.966796875 72.93359375 C 42.6886100769043 72.93359375 47.26758575439453 72.00949859619141 51.57653427124023 70.18695831298828 C 55.73999786376953 68.42597198486328 59.47979736328125 65.90431976318359 62.69205856323242 62.69205856323242 C 65.90431976318359 59.47979736328125 68.42597198486328 55.73999786376953 70.18695831298828 51.57653427124023 C 72.00949859619141 47.26758575439453 72.93359375 42.6886100769043 72.93359375 37.966796875 C 72.93359375 33.2449836730957 72.00949859619141 28.66600799560547 70.18695831298828 24.35705947875977 C 68.42597198486328 20.19359588623047 65.90431976318359 16.45379638671875 62.69205856323242 13.24153518676758 C 59.47979736328125 10.02928161621094 55.73999786376953 7.507637023925781 51.57653427124023 5.746635437011719 C 47.26758575439453 3.924095153808594 42.6886100769043 3 37.966796875 3 M 37.966796875 0 C 58.93528366088867 0 75.93359375 16.99832153320312 75.93359375 37.966796875 C 75.93359375 58.93528366088867 58.93528366088867 75.93359375 37.966796875 75.93359375 C 16.99831008911133 75.93359375 0 58.93528366088867 0 37.966796875 C 0 16.99832153320312 16.99831008911133 0 37.966796875 0 Z" stroke="none" fill="#86b60c"/>
                                        </g>
                                      </g>
                                    </g>
                                  </g>
                                </g>
                              </g>
                            </g>
                          </g>
                        </g>
                      </g>
                    </g>
                  </g>
                </g>
              </g>
            </g>
          </g>
        </g>
      </g>
      <g id="trabajo-en-equipo_4_" data-name="trabajo-en-equipo (4)" transform="translate(626.374 1045.094)">
        <path id="Path_1089878" data-name="Path 1089878" d="M207.621,15.483l-.331.008a7.542,7.542,0,0,0-1.568-4.209l.278-.2a.94.94,0,0,0,.133-1.4,8.983,8.983,0,0,0-2.787-2.019.939.939,0,0,0-1.287.565l-.137.424a7.57,7.57,0,0,0-4.575.053l-.153-.469a.94.94,0,0,0-1.289-.561A8.988,8.988,0,0,0,193.125,9.7a.94.94,0,0,0,.138,1.4l.377.273a7.544,7.544,0,0,0-1.5,4.356h-.372a.94.94,0,0,0-.933,1.05,8.773,8.773,0,0,0,1.068,3.279.94.94,0,0,0,1.373.3l.2-.146a7.617,7.617,0,0,0,3.78,2.873l-.042.13a.939.939,0,0,0,.711,1.212,8.9,8.9,0,0,0,1.718.167h0a8.91,8.91,0,0,0,1.726-.168.94.94,0,0,0,.71-1.212l-.027-.083a7.619,7.619,0,0,0,4.027-3.088l.155.107a.94.94,0,0,0,1.365-.336,9,9,0,0,0,.985-3.3.939.939,0,0,0-.958-1.029ZM199.716,18.7a2.786,2.786,0,1,1,2.787-2.787A2.79,2.79,0,0,1,199.716,18.7Zm0,0" transform="translate(-166.131 -6.594)" fill="#b4b4b4"/>
        <path id="Path_1089879" data-name="Path 1089879" d="M251.084,15.484l-.331.008a7.546,7.546,0,0,0-1.569-4.209l.278-.2a.94.94,0,0,0,.133-1.4,8.983,8.983,0,0,0-2.787-2.019.94.94,0,0,0-1.287.565l-.137.425a7.525,7.525,0,0,0-3.567-.2,7.971,7.971,0,0,1-1.072,15.513.935.935,0,0,0,.637.464,8.9,8.9,0,0,0,1.718.166h0a8.871,8.871,0,0,0,1.726-.168.939.939,0,0,0,.71-1.212l-.027-.083a7.618,7.618,0,0,0,4.027-3.088l.155.106a.94.94,0,0,0,1.365-.336,9,9,0,0,0,.985-3.3.94.94,0,0,0-.958-1.029Zm0,0" transform="translate(-209.594 -6.594)" fill="#9a9999"/>
        <path id="Path_1089880" data-name="Path 1089880" d="M180.89,178.151l-.457.011a10.418,10.418,0,0,0-2.165-5.813l.384-.281a1.3,1.3,0,0,0,.184-1.932,12.408,12.408,0,0,0-3.849-2.788,1.3,1.3,0,0,0-1.778.78l-.19.586a10.452,10.452,0,0,0-6.318.072l-.211-.648a1.3,1.3,0,0,0-1.781-.775,12.417,12.417,0,0,0-3.84,2.8,1.3,1.3,0,0,0,.191,1.932l.52.378a10.421,10.421,0,0,0-2.078,6.015h-.513a1.3,1.3,0,0,0-1.288,1.45,12.11,12.11,0,0,0,1.475,4.528,1.3,1.3,0,0,0,1.9.412l.276-.2a10.527,10.527,0,0,0,5.221,3.968l-.058.18a1.3,1.3,0,0,0,.982,1.673,12.274,12.274,0,0,0,2.373.231h0a12.316,12.316,0,0,0,2.384-.233,1.3,1.3,0,0,0,.981-1.675l-.037-.115a10.52,10.52,0,0,0,5.561-4.265l.213.147a1.3,1.3,0,0,0,1.885-.464,12.422,12.422,0,0,0,1.361-4.553,1.3,1.3,0,0,0-1.324-1.421Zm-5.216,2.912a6.157,6.157,0,1,1,.128-4.3m0,0a6.159,6.159,0,0,1-.128,4.3" transform="translate(-137.286 -145.587)" fill="#b4b4b4"/>
        <path id="Path_1089881" data-name="Path 1089881" d="M212.336,167.447c.122,0,.246-.007.369-.007.218,0,.435.007.65.018A1.29,1.29,0,0,0,212.336,167.447Zm0,0" transform="translate(-184.86 -145.692)" fill="#9a9999"/>
        <path id="Path_1089882" data-name="Path 1089882" d="M248.854,178.151l-.457.011a10.418,10.418,0,0,0-2.165-5.813l.384-.281a1.3,1.3,0,0,0,.184-1.932,12.409,12.409,0,0,0-3.849-2.788,1.3,1.3,0,0,0-1.778.78l-.19.586a10.447,10.447,0,0,0-3.047-.453c-.084,0-.167,0-.25.005a11.762,11.762,0,0,1-1.929,22.284,12.319,12.319,0,0,0,2.072.178h0a12.317,12.317,0,0,0,2.384-.232,1.3,1.3,0,0,0,.981-1.675l-.037-.115a10.524,10.524,0,0,0,5.561-4.265l.213.147a1.3,1.3,0,0,0,1.885-.464,12.422,12.422,0,0,0,1.361-4.554,1.3,1.3,0,0,0-1.324-1.42Zm0,0" transform="translate(-205.251 -145.587)" fill="#9a9999"/>
        <path id="Path_1089883" data-name="Path 1089883" d="M89.3,152.753c0-2.47-1.39-4.472-3.105-4.472s-3.105,2-3.105,4.472,1.391,4.471,3.105,4.471S89.3,155.223,89.3,152.753Zm0,0" transform="translate(-72.338 -129.093)" fill="#ffd4c6"/>
        <path id="Path_1089884" data-name="Path 1089884" d="M23.98,353.546a2.156,2.156,0,0,1-1.277-3.9l7.728-5.667-1.23-5.4a2.171,2.171,0,0,1,1.98-2.331c1.188-.019,3.464,1.077,3.482,2.268l.1,6.516a2.155,2.155,0,0,1-.881,1.771l-8.625,6.325a2.147,2.147,0,0,1-1.273.418Zm0,0" transform="translate(-18.999 -292.736)" fill="#66d6e6"/>
        <path id="Path_1089885" data-name="Path 1089885" d="M79.815,342.883l6.6,5.854.179.159a1.689,1.689,0,0,1,.567,1.215l.2,8.836a1.861,1.861,0,0,1-3.721.1c0-.03,0-.066,0-.1l-1.175-7.678.034-.1-8.355-4.509a3.345,3.345,0,0,1-1.936-3.374" transform="translate(-62.847 -298.512)" fill="#aceded"/>
        <path id="Path_1089886" data-name="Path 1089886" d="M163.1,471.854a4.011,4.011,0,0,0-8.019,0Zm0,0" transform="translate(-135.011 -407.381)" fill="#b4b4b4"/>
        <path id="Path_1089887" data-name="Path 1089887" d="M13.249,448.882a4.011,4.011,0,0,0-5.67-5.67Zm0,0" transform="translate(-6.598 -384.89)" fill="#b4b4b4"/>
        <path id="Path_1089888" data-name="Path 1089888" d="M90.536,242.979H75.52c-.075,0-.151-.006-.226-.006a4.412,4.412,0,0,0-4.4,4.4v8.689h8.8v-8.689c0-.143-.008-.283-.021-.422H90.536a1.986,1.986,0,0,0,0-3.971Zm0,0" transform="translate(-61.721 -211.531)" fill="#fc9086"/>
        <path id="Path_1089889" data-name="Path 1089889" d="M196.283,243.016H192.36a1.986,1.986,0,0,1,0,3.971h3.923a1.986,1.986,0,1,0,0-3.971Zm0,0" transform="translate(-167.468 -211.568)" fill="#f57a73"/>
        <path id="Path_1089890" data-name="Path 1089890" d="M108.973,273.7a.413.413,0,0,0-.41.418v8.693h3.923v-8.689c0-.142-.008-.283-.021-.422Zm0,0" transform="translate(-94.515 -238.284)" fill="#f57a73"/>
        <path id="Path_1089891" data-name="Path 1089891" d="M387.124,152.753c0-2.47-1.39-4.472-3.105-4.472s-3.105,2-3.105,4.472,1.39,4.471,3.105,4.471S387.124,155.223,387.124,152.753Zm0,0" transform="translate(-331.623 -129.093)" fill="#ffd4c6"/>
        <g id="Group_1217850" data-name="Group 1217850" transform="translate(41.741 41.757)">
          <path id="Path_1089892" data-name="Path 1089892" d="M401.853,349.357l-7.327-5.373,1.229-5.4a2.171,2.171,0,0,0-1.98-2.331c-1.188-.019-3.464,1.077-3.481,2.268l-.1,6.517a2.156,2.156,0,0,0,.881,1.77l7.314,5.364" transform="translate(-381.446 -334.493)" fill="#2970d6"/>
          <path id="Path_1089893" data-name="Path 1089893" d="M453.527,440.361l1.311.961a2.156,2.156,0,1,0,2.551-3.478l-.4-.294" transform="translate(-436.581 -422.687)" fill="#2970d6"/>
          <path id="Path_1089894" data-name="Path 1089894" d="M332.093,323.543l-8.58,7.611-.179.159a1.689,1.689,0,0,0-.567,1.215l-.2,8.836a1.861,1.861,0,0,0,3.721.1c0-.03,0-.066,0-.1l1.175-7.678-.034-.1,8.355-4.509a3.336,3.336,0,0,0,1.635-4.454,3.4,3.4,0,0,0-4.5-1.618,3.5,3.5,0,0,0-.827.541Zm0,0" transform="translate(-322.569 -322.686)" fill="#2970d6"/>
        </g>
        <path id="Path_1089895" data-name="Path 1089895" d="M294.945,471.854a4.011,4.011,0,0,1,8.019,0Zm0,0" transform="translate(-256.779 -407.381)" fill="#b4b4b4"/>
        <path id="Path_1089896" data-name="Path 1089896" d="M453.117,448.882a4.011,4.011,0,0,1,5.67-5.67Zm0,0" transform="translate(-393.516 -384.89)" fill="#b4b4b4"/>
        <path id="Path_1089897" data-name="Path 1089897" d="M275.962,242.979h15.016c.075,0,.151-.006.226-.006a4.412,4.412,0,0,1,4.4,4.4v8.689h-8.8v-8.689c0-.143.008-.283.021-.422H275.962a1.986,1.986,0,0,1,0-3.971Zm0,0" transform="translate(-238.524 -211.531)" fill="#ffec56"/>
        <path id="Path_1089898" data-name="Path 1089898" d="M382.236,242.973c-.076,0-.152,0-.226.006h-3.471a4.413,4.413,0,0,1,4.173,4.393v8.689h3.923v-8.689A4.412,4.412,0,0,0,382.236,242.973Zm0,0" transform="translate(-329.555 -211.531)" fill="#f9cd45"/>
        <path id="Path_1089899" data-name="Path 1089899" d="M234.2,50.4a3.767,3.767,0,1,0-3.767-3.767A3.772,3.772,0,0,0,234.2,50.4Zm0-5.573a1.806,1.806,0,1,1-1.806,1.806A1.808,1.808,0,0,1,234.2,44.829Zm0,0" transform="translate(-200.612 -37.32)"/>
        <path id="Path_1089900" data-name="Path 1089900" d="M184.446,13.944a1.919,1.919,0,0,0,2.151.918,8.682,8.682,0,0,0,3,2.259,1.919,1.919,0,0,0,1.537,1.671,9.93,9.93,0,0,0,3.823,0,1.92,1.92,0,0,0,1.526-1.6,8.629,8.629,0,0,0,3.321-2.528,1.92,1.92,0,0,0,2.06-.992,10.026,10.026,0,0,0,1.093-3.658,1.919,1.919,0,0,0-1.376-2.028,8.484,8.484,0,0,0-1.165-3.15,1.921,1.921,0,0,0-.164-2.418,10.043,10.043,0,0,0-3.092-2.24A1.921,1.921,0,0,0,194.729.9a8.571,8.571,0,0,0-3.384.033,1.92,1.92,0,0,0-2.452-.744,10.031,10.031,0,0,0-3.085,2.249,1.921,1.921,0,0,0-.071,2.529,8.478,8.478,0,0,0-1.116,3.264,1.921,1.921,0,0,0-1.363,2.067,9.727,9.727,0,0,0,1.187,3.644Zm1.092-3.829a.981.981,0,0,0,.98-.957,6.549,6.549,0,0,1,1.309-3.791.981.981,0,0,0-.209-1.381l-.339-.246a8.063,8.063,0,0,1,2.4-1.75l.139.425a.981.981,0,0,0,1.239.627A6.616,6.616,0,0,1,195.038,3a.98.98,0,0,0,1.219-.636l.123-.381a8.049,8.049,0,0,1,2.406,1.743l-.241.176a.98.98,0,0,0-.2,1.391,6.55,6.55,0,0,1,1.365,3.663.981.981,0,0,0,.979.927h.024L201,9.871a8.058,8.058,0,0,1-.851,2.846l-.116-.08a.98.98,0,0,0-1.378.272,6.65,6.65,0,0,1-3.507,2.691.982.982,0,0,0-.631,1.237l.013.039a8,8,0,0,1-2.972,0l.028-.086a.981.981,0,0,0-.613-1.23,6.677,6.677,0,0,1-3.294-2.5.981.981,0,0,0-1.384-.235l-.163.119a7.769,7.769,0,0,1-.92-2.827Zm0,0" transform="translate(-159.533 0)"/>
        <path id="Path_1089901" data-name="Path 1089901" d="M79.6,151.608c2.291,0,4.086-2.395,4.086-5.452S81.889,140.7,79.6,140.7s-4.086,2.395-4.086,5.453S77.307,151.608,79.6,151.608Zm0-8.943c1.152,0,2.125,1.6,2.125,3.491s-.973,3.49-2.125,3.49-2.125-1.6-2.125-3.49S78.446,142.665,79.6,142.665Zm0,0" transform="translate(-65.741 -122.495)"/>
        <path id="Path_1089902" data-name="Path 1089902" d="M377.422,151.608c2.291,0,4.086-2.395,4.086-5.452s-1.794-5.453-4.086-5.453-4.086,2.395-4.086,5.453S375.13,151.608,377.422,151.608Zm0-8.943c1.151,0,2.125,1.6,2.125,3.491s-.973,3.49-2.125,3.49-2.125-1.6-2.125-3.49S376.27,142.665,377.422,142.665Zm0,0" transform="translate(-325.026 -122.495)"/>
        <path id="Path_1089903" data-name="Path 1089903" d="M65.95,196.6a4.943,4.943,0,0,0-2.634-1.305c-.053-.068-7.4-5.47-7.4-5.47l.538-2.364a1,1,0,0,0,.021-.153,4.312,4.312,0,0,0,1.576-3.642c0-.009,0-.017,0-.025a1.014,1.014,0,0,0,.009-.124v-1.037a.981.981,0,0,0-1.962,0v.056H49.262v-7.709c0-.105.006-.215.017-.328a.981.981,0,0,0-.977-1.075H37.438a1,1,0,0,1,0-2.01H52.5c.059,0,.117,0,.176,0a3.422,3.422,0,0,1,3.418,3.418v3.729a.981.981,0,0,0,1.961,0v-3.729a5.385,5.385,0,0,0-5.379-5.379q-.126,0-.25.006H43.823a11.5,11.5,0,0,0-1.515-3.527,2.279,2.279,0,0,0-.041-3.061,13.476,13.476,0,0,0-4.154-3.009,2.278,2.278,0,0,0-3.008,1.08A11.484,11.484,0,0,0,30.04,161a2.278,2.278,0,0,0-3.032-1.116,13.479,13.479,0,0,0-4.144,3.022,2.279,2.279,0,0,0,.095,3.193,11.482,11.482,0,0,0-1.408,3.364H13.822c-.083,0-.166-.006-.25-.006a5.385,5.385,0,0,0-5.379,5.379v2.314a.981.981,0,1,0,1.961,0v-2.314a3.422,3.422,0,0,1,3.418-3.418c.059,0,.118,0,.176,0H28.814a1,1,0,0,1,0,2.009H17.95a.981.981,0,0,0-.976,1.075c.011.112.016.222.016.328v7.708H10.154v-1.471a.981.981,0,0,0-1.962,0v2.453c0,.014,0,.028,0,.043a4.541,4.541,0,0,0,1.558,3.718l.579,2.547s-7.344,5.4-7.4,5.469A4.948,4.948,0,0,0,.3,196.6a.981.981,0,0,0-.016,1.4l5.671,5.67a.981.981,0,0,0,.694.288h.011a.981.981,0,0,0,.7-.3,5.015,5.015,0,0,0,1.2-4.753l6.9-5.059a3.139,3.139,0,0,0,1.281-2.575v-.084l1.96,1.058s1.2,8.035,1.354,8.371a4.949,4.949,0,0,0-.968,2.825.981.981,0,0,0,.981,1h8.019a.98.98,0,0,0,.981-1,5.027,5.027,0,0,0-3.589-4.675l-.183-8.207a2.681,2.681,0,0,0-.9-1.918l-.173-.154-5.281-4.854a1.048,1.048,0,0,0,.007-.113v-8.13h.867a13.1,13.1,0,0,0,1.216,2.961,2.278,2.278,0,0,0,2.772,1.021,11.6,11.6,0,0,0,4.374,3.3,2.278,2.278,0,0,0,1.836,2.191,13.33,13.33,0,0,0,5.136,0,2.277,2.277,0,0,0,1.831-2.1,11.536,11.536,0,0,0,4.789-3.652,2.277,2.277,0,0,0,2.661-1.125,13.372,13.372,0,0,0,1.031-2.594H47.3v8.13q0,.047,0,.093l-5.279,4.876-.172.153a2.685,2.685,0,0,0-.9,1.926l-.183,8.2a5.028,5.028,0,0,0-3.589,4.675.981.981,0,0,0,.981,1h8.019a.981.981,0,0,0,.981-1,4.948,4.948,0,0,0-.975-2.834c.016-.051.956-5.878,1.358-8.359l1.964-1.06v.084a3.14,3.14,0,0,0,1.281,2.576l6.9,5.059a5.013,5.013,0,0,0,1.2,4.752.978.978,0,0,0,.7.3H59.6a.98.98,0,0,0,.694-.287l5.671-5.671a.98.98,0,0,0-.016-1.4ZM6.511,201.458l-4.005-4.005a3.027,3.027,0,0,1,4.005,4.005ZM14.78,191.3a1.178,1.178,0,0,1-.48.965l-6.626,4.859a4.861,4.861,0,0,0-1.942-1.491l6.281-4.606a.981.981,0,0,0,.377-1.008l-.306-1.346,2.68,1.447Zm12.129,11.181H21.245a3.027,3.027,0,0,1,5.664,0Zm-3.992-12.534.179.159a.707.707,0,0,1,.237.5l.178,7.985a4.936,4.936,0,0,0-1.771.555l-1.124-7.344a.98.98,0,0,0-.5-1.025l-8.356-4.509-.054-.027a2.828,2.828,0,0,1-1.48-1.744h6.764l5.915,5.437.013.012Zm2.346-24.219a.98.98,0,0,0-.393-.647l-.52-.377a.317.317,0,0,1-.13-.226.313.313,0,0,1,.082-.245,11.5,11.5,0,0,1,3.536-2.578.31.31,0,0,1,.257,0,.315.315,0,0,1,.176.193l.211.649a.981.981,0,0,0,1.239.627,9.467,9.467,0,0,1,5.725-.066.981.981,0,0,0,1.219-.637l.19-.586a.314.314,0,0,1,.175-.194.31.31,0,0,1,.257,0,11.5,11.5,0,0,1,3.544,2.567.317.317,0,0,1-.046.471l-.384.281a.981.981,0,0,0-.2,1.391,9.557,9.557,0,0,1,1.589,3.107H39.3a7.137,7.137,0,0,0-13.228,0H23.58a9.5,9.5,0,0,1,1.5-2.993A.982.982,0,0,0,25.263,165.731Zm6.518,6.694a2.97,2.97,0,0,0-2.966-2.966h-.557a5.178,5.178,0,0,1,8.865.017,2.966,2.966,0,0,0-.348,5.839,5.167,5.167,0,0,1-8.112.076h.152a2.97,2.97,0,0,0,2.966-2.966ZM42.7,177.074a.312.312,0,0,1-.2.159.317.317,0,0,1-.257-.047l-.213-.147a.98.98,0,0,0-1.378.272,9.557,9.557,0,0,1-5.042,3.867.981.981,0,0,0-.63,1.237l.037.114a.316.316,0,0,1-.028.26.311.311,0,0,1-.21.149,11.411,11.411,0,0,1-4.378,0,.309.309,0,0,1-.209-.149.315.315,0,0,1-.029-.26l.058-.18a.98.98,0,0,0-.613-1.229,9.6,9.6,0,0,1-4.734-3.6.98.98,0,0,0-1.385-.235l-.276.2a.317.317,0,0,1-.463-.1,11.146,11.146,0,0,1-.879-2h4.466a7.135,7.135,0,0,0,12.709,0h4.373a11.4,11.4,0,0,1-.716,1.682Zm-3.354,25.411a3.026,3.026,0,0,1,5.664,0Zm6.793-11.7a.981.981,0,0,0-.5,1.019c-.671,4.145-1.01,6.245-1.183,7.32a4.94,4.94,0,0,0-1.711-.525l.178-7.978a.712.712,0,0,1,.238-.51l.179-.159.015-.013,5.885-5.435h6.817a2.719,2.719,0,0,1-1.506,1.744l-.055.027Zm5.816,1.485a1.177,1.177,0,0,1-.48-.965l.017-1.18,2.68-1.446-.306,1.346a.98.98,0,0,0,.376,1.008l6.281,4.606a4.865,4.865,0,0,0-1.943,1.491Zm7.788,9.19a3.033,3.033,0,0,1,4.005-4.005Zm0,0" transform="translate(0 -138.992)"/>
      </g>
    </g>
  </g>
</svg>
