<svg xmlns="http://www.w3.org/2000/svg" xmlns:xlink="http://www.w3.org/1999/xlink" width="113" height="113" viewBox="0 0 113 113">
  <defs>
    <filter id="Path_982547" x="0" y="0" width="113" height="113" filterUnits="userSpaceOnUse">
      <feOffset dy="3" input="SourceAlpha"/>
      <feGaussianBlur stdDeviation="3" result="blur"/>
      <feFlood flood-opacity="0.161"/>
      <feComposite operator="in" in2="blur"/>
      <feComposite in="SourceGraphic"/>
    </filter>
  </defs>
  <g id="Group_1215537" data-name="Group 1215537" transform="translate(-429 -1198.946)">
    <g id="Group_1214511" data-name="Group 1214511">
      <g id="Group_1214345" data-name="Group 1214345" transform="translate(0 -2968)">
        <g id="Group_1210956" data-name="Group 1210956" transform="translate(438 4172.946)">
          <g id="Group_1209935" data-name="Group 1209935">
            <g id="Group_1208705" data-name="Group 1208705">
              <g id="Group_1148633" data-name="Group 1148633">
                <g id="Group_1148525" data-name="Group 1148525">
                  <g transform="matrix(1, 0, 0, 1, -9, -6)" filter="url(#Path_982547)">
                    <g id="Path_982547-2" data-name="Path 982547" transform="translate(9 6)" fill="#ffe1b9">
                      <path d="M 47.5 93.5 C 41.28937149047852 93.5 35.26533508300781 92.28397369384766 29.59518623352051 89.88570404052734 C 24.11771965026855 87.56893157958984 19.19813346862793 84.25196075439453 14.97309303283691 80.02691650390625 C 10.74804019927979 75.80186462402344 7.431066513061523 70.88229370117188 5.114293098449707 65.40481567382812 C 2.716026782989502 59.73468017578125 1.5 53.71062850952148 1.5 47.5 C 1.5 41.28937149047852 2.716026782989502 35.26533508300781 5.114293098449707 29.59518623352051 C 7.431066513061523 24.11771965026855 10.74804019927979 19.19813346862793 14.97309303283691 14.97309303283691 C 19.19813346862793 10.74804019927979 24.11771965026855 7.431066513061523 29.59518623352051 5.114293098449707 C 35.26533508300781 2.716026782989502 41.28937149047852 1.5 47.5 1.5 C 53.71062850952148 1.5 59.73468017578125 2.716026782989502 65.40481567382812 5.114293098449707 C 70.88229370117188 7.431066513061523 75.80186462402344 10.74804019927979 80.02691650390625 14.97309303283691 C 84.25196075439453 19.19813346862793 87.56893157958984 24.11771965026855 89.88570404052734 29.59518623352051 C 92.28397369384766 35.26533508300781 93.5 41.28937149047852 93.5 47.5 C 93.5 53.71062850952148 92.28397369384766 59.73468017578125 89.88570404052734 65.40481567382812 C 87.56893157958984 70.88229370117188 84.25196075439453 75.80186462402344 80.02691650390625 80.02691650390625 C 75.80186462402344 84.25196075439453 70.88229370117188 87.56893157958984 65.40481567382812 89.88570404052734 C 59.73468017578125 92.28397369384766 53.71062850952148 93.5 47.5 93.5 Z" stroke="none"/>
                      <path d="M 47.5 3 C 41.49121475219727 3 35.66376876831055 4.176155090332031 30.17950439453125 6.495796203613281 C 24.88084411621094 8.736953735351562 20.12152099609375 11.94598388671875 16.03375244140625 16.03375244140625 C 11.94598388671875 20.12152099609375 8.736953735351562 24.88084411621094 6.495796203613281 30.17950439453125 C 4.176155090332031 35.66376876831055 3 41.49121475219727 3 47.5 C 3 53.50878524780273 4.176155090332031 59.33623123168945 6.495796203613281 64.82049560546875 C 8.736953735351562 70.11915588378906 11.94598388671875 74.87847900390625 16.03375244140625 78.96624755859375 C 20.12152099609375 83.05401611328125 24.88084411621094 86.26304626464844 30.17950439453125 88.50419616699219 C 35.66376876831055 90.82384490966797 41.49121475219727 92 47.5 92 C 53.50878524780273 92 59.33623123168945 90.82384490966797 64.82049560546875 88.50419616699219 C 70.11915588378906 86.26304626464844 74.87847900390625 83.05401611328125 78.96624755859375 78.96624755859375 C 83.05401611328125 74.87847900390625 86.26304626464844 70.11915588378906 88.50419616699219 64.82049560546875 C 90.82384490966797 59.33623123168945 92 53.50878524780273 92 47.5 C 92 41.49121475219727 90.82384490966797 35.66376876831055 88.50419616699219 30.17950439453125 C 86.26304626464844 24.88084411621094 83.05401611328125 20.12152099609375 78.96624755859375 16.03375244140625 C 74.87847900390625 11.94598388671875 70.11915588378906 8.736953735351562 64.82049560546875 6.495796203613281 C 59.33623123168945 4.176155090332031 53.50878524780273 3 47.5 3 M 47.5 0 C 73.7335205078125 0 95 21.2664794921875 95 47.5 C 95 73.7335205078125 73.7335205078125 95 47.5 95 C 21.2664794921875 95 0 73.7335205078125 0 47.5 C 0 21.2664794921875 21.2664794921875 0 47.5 0 Z" stroke="none" fill="#ff9d1c"/>
                    </g>
                  </g>
                </g>
              </g>
            </g>
          </g>
        </g>
      </g>
      <g id="hablando" transform="translate(455 1223.493)">
        <g id="Group_1214509" data-name="Group 1214509" transform="translate(1.205 1.205)">
          <g id="Group_1214508" data-name="Group 1214508">
            <g id="Group_1214507" data-name="Group 1214507">
              <g id="Group_1214505" data-name="Group 1214505">
                <g id="Group_1214504" data-name="Group 1214504">
                  <path id="Path_1077136" data-name="Path 1077136" d="M176.744,87.442l-.676,6.075H145.306l2.4-12.249a13.814,13.814,0,0,0-3.987-12.611,24.675,24.675,0,0,1-7.665-17.933c-.4-14.837,10.588-24.708,25.424-25.1,13.633-.363,23.424,4.969,26.536,18.036A8.153,8.153,0,0,1,188,47.43l-.229.964a3.816,3.816,0,0,0,.771,3.314l6.259,7.8a1.927,1.927,0,0,1-.958,3.081L189.229,63.9a1.074,1.074,0,0,0-.446,1.813l1.554,1.474a.788.788,0,0,1-.1,1.226l-2,1.643a1.14,1.14,0,0,0-.148,1.613c.222.266,1.9,1.807,1.9,1.807a.8.8,0,0,1-.149,1.376l-2.168,1.084,2.3,4.609a3.723,3.723,0,0,1-3.932,4.962l-5.993-.7A2.983,2.983,0,0,0,176.744,87.442Z" transform="translate(-136.041 -25.604)" fill="#ffe6cf"/>
                </g>
              </g>
              <g id="Group_1214506" data-name="Group 1214506" transform="translate(0 0)">
                <path id="Path_1077137" data-name="Path 1077137" d="M337.779,25.623a43.046,43.046,0,0,1,5.442.183c-13.435,1.462-23.069,11.008-22.7,24.92a24.675,24.675,0,0,0,7.665,17.933,13.814,13.814,0,0,1,3.987,12.611l-2.4,12.249H321.61l2.4-12.249a13.814,13.814,0,0,0-3.987-12.611,24.675,24.675,0,0,1-7.665-17.933C311.96,35.89,322.943,26.018,337.779,25.623Z" transform="translate(-312.345 -25.605)" fill="#efd0b6"/>
              </g>
            </g>
            <path id="Path_1077138" data-name="Path 1077138" d="M208.928,437.053a2.811,2.811,0,0,1-2.808-2.953l.23-4.565a2.074,2.074,0,0,1,2.215-1.922l32,2.261a5.785,5.785,0,0,1,4.292,2.4l2.77,3.782a.629.629,0,0,1-.508,1H208.928Z" transform="translate(-199.803 -363.011)" fill="#a26bf9"/>
          </g>
        </g>
        <g id="Group_1214510" data-name="Group 1214510">
          <path id="Path_1077139" data-name="Path 1077139" d="M.354,217.532a1.205,1.205,0,0,1,1.7-1.7,24.484,24.484,0,0,1,0,34.586,1.205,1.205,0,0,1-1.7-1.7A22.071,22.071,0,0,0,.354,217.532Z" transform="translate(73.061 -183.76)"/>
          <path id="Path_1077140" data-name="Path 1077140" d="M47.419,258.432a15.089,15.089,0,0,0-4.442-10.743,1.205,1.205,0,1,1,1.7-1.7,17.622,17.622,0,0,1,0,24.895,1.205,1.205,0,0,1-1.7-1.7A15.091,15.091,0,0,0,47.419,258.432Z" transform="translate(25.593 -209.071)"/>
          <path id="Path_1077141" data-name="Path 1077141" d="M85.608,276.139a1.205,1.205,0,0,1,1.7,0,10.763,10.763,0,0,1,0,15.2,1.205,1.205,0,1,1-1.7-1.7,8.349,8.349,0,0,0,0-11.794A1.205,1.205,0,0,1,85.608,276.139Z" transform="translate(-21.884 -234.38)"/>
          <path id="Path_1077142" data-name="Path 1077142" d="M136.584,63.232a25.855,25.855,0,0,1-8.035-18.769,26.465,26.465,0,0,1,1.86-10.742,1.205,1.205,0,0,1,2.233.908,24.075,24.075,0,0,0-1.683,9.77,23.561,23.561,0,0,0,7.3,17.1,14.959,14.959,0,0,1,4.335,13.711l-1.5,7.68,20.6,1.455a1.205,1.205,0,1,1-.17,2.4L138.42,85.114a.869.869,0,0,0-.927.8l-.23,4.551a1.606,1.606,0,0,0,1.6,1.687h37.056l-2.106-2.875a4.567,4.567,0,0,0-3.4-1.9l-4.04-.285a1.205,1.205,0,1,1,.17-2.4l2.272.161.426-3.83a4.189,4.189,0,0,1,4.647-3.7l5.993.7a2.518,2.518,0,0,0,2.68-3.3l-2.27-4.54a1.205,1.205,0,0,1,.539-1.617l1.67-.835c-.641-.591-1.446-1.345-1.644-1.582a2.346,2.346,0,0,1,.309-3.316l1.692-1.391-1.209-1.146a2.28,2.28,0,0,1,.946-3.847l4.617-1.312a.722.722,0,0,0,.359-1.154l-.011-.014-6.254-7.791a5.047,5.047,0,0,1-1.009-4.354l.229-.964a6.977,6.977,0,0,0,.008-3.215c-2.794-11.727-11.313-17.482-25.332-17.11-8.682.232-16.1,3.875-20.349,10a1.205,1.205,0,1,1-1.98-1.375c4.692-6.758,12.807-10.779,22.265-11.031,7.27-.193,13.292,1.21,17.9,4.173,4.953,3.186,8.265,8.162,9.843,14.788a9.4,9.4,0,0,1-.008,4.331l-.229.964a2.624,2.624,0,0,0,.528,2.267l.011.014,6.254,7.792a3.132,3.132,0,0,1-1.564,5l-4.4,1.249,1.388,1.316a1.993,1.993,0,0,1-.2,3.06l-1.909,1.569c.237.244,1.028.984,1.709,1.608a2,2,0,0,1-.408,3.392l-1.066.533,1.766,3.531a1.224,1.224,0,0,1,.056.13,4.928,4.928,0,0,1-5.205,6.568l-5.993-.7a1.778,1.778,0,0,0-1.973,1.57l-.418,3.763a6.957,6.957,0,0,1,4.544,2.813l2.77,3.782a1.835,1.835,0,0,1-1.48,2.918H138.868a4.017,4.017,0,0,1-4.011-4.219l.23-4.565v-.024a3.283,3.283,0,0,1,3.5-3.04l.073.005,1.561-7.972A12.56,12.56,0,0,0,136.584,63.232Z" transform="translate(-128.538 -18.105)"/>
        </g>
      </g>
    </g>
  </g>
</svg>
