<svg xmlns="http://www.w3.org/2000/svg" width="85" height="89" viewBox="0 0 85 89">
  <g id="Group_1218538" data-name="Group 1218538" transform="translate(-180 -10572)">
    <g id="Group_1218319" data-name="Group 1218319">
      <rect id="Rectangle_420741" data-name="Rectangle 420741" width="59" height="89" transform="translate(206 10572)" fill="#f2f7e5"/>
      <g id="motivacion_6_" data-name="motivacion (6)" transform="translate(180 10576)">
        <path id="Path_1090501" data-name="Path 1090501" d="M160.844,109.961a4.98,4.98,0,0,0-4.98,4.98v-4.98a4.98,4.98,0,0,0-9.961,0v-4.98a4.98,4.98,0,0,0-9.961,0v4.98a4.98,4.98,0,0,0-9.961,0v8.467a4.98,4.98,0,0,0-4.98,4.98v12.451c0,9.961,9.961,14.941,9.961,14.941v15.938h24.9V150.8s9.961-4.98,9.961-14.941V114.941A4.98,4.98,0,0,0,160.844,109.961Z" transform="translate(-100.912 -83.398)" fill="#ffcebf"/>
        <path id="Path_1090502" data-name="Path 1090502" d="M247.66,8.3a1.66,1.66,0,0,0,1.66-1.66V1.66a1.66,1.66,0,0,0-3.32,0v4.98A1.66,1.66,0,0,0,247.66,8.3Z" transform="translate(-205.16)"/>
        <path id="Path_1090503" data-name="Path 1090503" d="M457.66,249.32h5.977a1.66,1.66,0,0,0,0-3.32H457.66a1.66,1.66,0,0,0,0,3.32Z" transform="translate(-380.297 -205.16)"/>
        <path id="Path_1090504" data-name="Path 1090504" d="M1.66,249.32H7.637a1.66,1.66,0,0,0,0-3.32H1.66a1.66,1.66,0,0,0,0,3.32Z" transform="translate(0 -205.16)"/>
        <path id="Path_1090505" data-name="Path 1090505" d="M397.324,76.646l3.523-3.523a1.66,1.66,0,0,0-2.348-2.348L394.976,74.3a1.66,1.66,0,1,0,2.348,2.348Z" transform="translate(-328.999 -58.62)"/>
        <path id="Path_1090506" data-name="Path 1090506" d="M80.3,76.646A1.66,1.66,0,0,0,82.646,74.3l-3.523-3.523a1.66,1.66,0,0,0-2.348,2.348Z" transform="translate(-63.624 -58.62)"/>
        <circle id="Ellipse_14466" data-name="Ellipse 14466" cx="1.5" cy="1.5" r="1.5" transform="translate(41 82)"/>
        <path id="Path_1090507" data-name="Path 1090507" d="M111,115.068V127.52c0,9.1,7.323,14.326,9.961,15.912V158.4a1.66,1.66,0,0,0,1.66,1.66h4.98a1.66,1.66,0,0,0,0-3.32h-3.32V142.461a1.665,1.665,0,0,0-.915-1.483c-.09-.046-9.046-4.671-9.046-13.458V115.068a3.327,3.327,0,0,1,3.32-3.322h18.095a8.315,8.315,0,0,1-8.134,6.642h-4.98a1.66,1.66,0,0,0,0,3.32A13.3,13.3,0,0,1,135.9,134.99a1.66,1.66,0,0,0,3.32,0,8.31,8.31,0,0,1,8.3-8.3,1.66,1.66,0,0,0,0-3.32,11.619,11.619,0,0,0-9.629,5.121,16.707,16.707,0,0,0-6.326-7.479,11.687,11.687,0,0,0,6.547-5.98,6.607,6.607,0,0,0,4.427,1.69c.426,0,.861.007,1.261.007a11.582,11.582,0,0,0,2.233-.157,6.633,6.633,0,0,0,9.787,4.244v6.7c0,8.787-8.956,13.412-9.043,13.457a1.66,1.66,0,0,0-.918,1.485v14.277h-3.32a1.66,1.66,0,0,0,0,3.32h4.98a1.66,1.66,0,0,0,1.66-1.66V143.432c2.637-1.587,9.961-6.812,9.961-15.912V106.6a6.636,6.636,0,0,0-10-5.723,6.635,6.635,0,0,0-9.961-4.98,6.64,6.64,0,0,0-13.2,0,6.636,6.636,0,0,0-10,5.723v7.017A6.653,6.653,0,0,0,111,115.068Zm41.5-11.787a3.324,3.324,0,0,1,3.32,3.32v8.467a3.32,3.32,0,0,1-6.641,0V106.6A3.324,3.324,0,0,1,152.5,103.281Zm-9.961-4.98a3.324,3.324,0,0,1,3.32,3.32v10.957a1.158,1.158,0,0,1-.1.6,6.964,6.964,0,0,1-2.552.23c-.22,0-.444,0-.672,0a3.324,3.324,0,0,1-3.32-3.32v-8.467A3.324,3.324,0,0,1,142.543,98.3Zm-13.281-1.66a3.32,3.32,0,0,1,6.641,0v11.787h-6.641Zm-6.641,1.66a3.324,3.324,0,0,1,3.32,3.32v6.807H119.3v-6.807A3.324,3.324,0,0,1,122.621,98.3Z" transform="translate(-92.572 -75.059)"/>
      </g>
    </g>
  </g>
</svg>
