<svg xmlns="http://www.w3.org/2000/svg" width="96.296" height="112" viewBox="0 0 96.296 112">
  <g id="Group_1218521" data-name="Group 1218521" transform="translate(-621.704 -4234)">
    <g id="Group_1217959" data-name="Group 1217959" transform="translate(-1 11)">
      <rect id="Rectangle_420731" data-name="Rectangle 420731" width="67" height="112" transform="translate(652 4223)" fill="#ff9d1c"/>
      <g id="inteligencia-emocional_1_" data-name="inteligencia-emocional (1)" transform="translate(600.564 4233.025)">
        <g id="Group_1217957" data-name="Group 1217957" transform="translate(23.634 1.494)">
          <path id="Path_1090264" data-name="Path 1090264" d="M140.643,371.049l1.494-1.6,1.494,1.6h10.812a44.568,44.568,0,0,0-1.874-13.132c-4.464-14.575-15.362-20.058-15.362-20.058H104.445s-10.9,5.484-15.364,20.058a44.568,44.568,0,0,0-1.874,13.132H98.021l1.494-1.156,1.494,1.156Z" transform="translate(-75.741 -272.062)" fill="#9ee4e5"/>
          <g id="Group_1217956" data-name="Group 1217956" transform="translate(0 27.542)">
            <circle id="Ellipse_14462" data-name="Ellipse 14462" cx="9.393" cy="9.393" r="9.393" fill="#80dad8"/>
            <circle id="Ellipse_14463" data-name="Ellipse 14463" cx="9.393" cy="9.393" r="9.393" transform="translate(71.382)" fill="#80dad8"/>
            <path id="Path_1090265" data-name="Path 1090265" d="M182.355,337.859H149.595a27.285,27.285,0,0,0-6.01,4.565,41.382,41.382,0,0,0,44.779,0A27.284,27.284,0,0,0,182.355,337.859Z" transform="translate(-120.89 -299.603)" fill="#80dad8"/>
          </g>
          <circle id="Ellipse_14464" data-name="Ellipse 14464" cx="35.484" cy="35.484" r="35.484" transform="translate(9.601)" fill="#9ee4e5"/>
          <path id="Path_1090266" data-name="Path 1090266" d="M160.013,79.549h26.4c6.183,0,8.982-7.854,4.1-11.654q-.091-.07-.184-.139l-.012-.009,0-.011a7.3,7.3,0,0,0-6.935-9.541h-.015a7.306,7.306,0,0,0-11.224-3.647h0A7.306,7.306,0,0,0,160.923,58.2h-.014a7.305,7.305,0,0,0-6.935,9.542l0,.009-.012.009q-.094.068-.184.139c-4.877,3.8-2.08,11.654,4.1,11.654Z" transform="translate(-127.066 -44.066)" fill="#fdaab8"/>
          <path id="Path_1090267" data-name="Path 1090267" d="M166.143,62.165a20.925,20.925,0,0,1,2.017-8.991,7.3,7.3,0,0,0-7.234,5.029h-.014a7.305,7.305,0,0,0-6.935,9.542l0,.009-.012.009q-.093.068-.184.139c-4.877,3.8-2.08,11.654,4.1,11.654h17.476a20.986,20.986,0,0,1-9.221-17.391Z" transform="translate(-127.068 -44.072)" fill="#fd8aa4"/>
          <path id="Path_1090268" data-name="Path 1090268" d="M225.336,397.3c-.3-4.8-5.836-7.427-10.133-4.087-4.294-3.337-9.833-.719-10.133,4.087-.313,5.035,4.894,8.544,9.345,10.928a1.664,1.664,0,0,0,1.575,0C220.456,405.832,225.648,402.323,225.336,397.3Z" transform="translate(-170.12 -315.186)" fill="#fd8aa4"/>
          <path id="Path_1090269" data-name="Path 1090269" d="M210.155,392.827c0-.274.011-.546.027-.816a5.893,5.893,0,0,0-5.111,5.527c-.313,5.035,4.894,8.544,9.345,10.928a1.664,1.664,0,0,0,1.575,0,36.793,36.793,0,0,0,4.189-2.568A13.537,13.537,0,0,1,210.155,392.827Z" transform="translate(-170.12 -315.428)" fill="#f47090"/>
        </g>
        <g id="Group_1217958" data-name="Group 1217958" transform="translate(22.14 0)">
          <path id="Path_1090270" data-name="Path 1090270" d="M170.708,224.615a3.2,3.2,0,0,1-4.832,0,1.494,1.494,0,0,0-2.252,1.963,6.189,6.189,0,0,0,9.337,0,1.494,1.494,0,0,0-2.252-1.963Z" transform="translate(-135.15 -179.469)"/>
          <path id="Path_1090271" data-name="Path 1090271" d="M305.625,224.615a3.2,3.2,0,0,1-4.832,0,1.494,1.494,0,0,0-2.252,1.963,6.188,6.188,0,0,0,9.336,0,1.494,1.494,0,1,0-2.252-1.963Z" transform="translate(-243.195 -179.469)"/>
          <path id="Path_1090272" data-name="Path 1090272" d="M238.527,248.251a3.042,3.042,0,0,1-4.593,0,1.494,1.494,0,0,0-2.252,1.963,6.03,6.03,0,0,0,9.1,0,1.494,1.494,0,0,0-2.252-1.963Z" transform="translate(-189.653 -198.397)"/>
          <path id="Path_1090273" data-name="Path 1090273" d="M185.993,61.183a8.8,8.8,0,0,0-7.59-10.44,8.8,8.8,0,0,0-12.267-3.983,8.8,8.8,0,0,0-12.266,3.982,8.8,8.8,0,0,0-7.59,10.441,8.046,8.046,0,0,0,5.591,13.841H180.4a8.046,8.046,0,0,0,5.592-13.84ZM180.4,72.035h-1.467a15.045,15.045,0,0,1-2.8-7.5,1.494,1.494,0,0,0-1.494-1.485h-.009a1.494,1.494,0,0,0-1.485,1.5,11.742,11.742,0,0,0,.313,2.462,10.19,10.19,0,0,0-2.223.591,1.494,1.494,0,1,0,1.089,2.782,7.189,7.189,0,0,1,2.046-.472,19.3,19.3,0,0,0,1,2.119H156.892a19.264,19.264,0,0,0,1-2.119,7.19,7.19,0,0,1,2.046.472,1.494,1.494,0,0,0,1.089-2.782,10.2,10.2,0,0,0-2.223-.591,11.754,11.754,0,0,0,.313-2.462,1.494,1.494,0,0,0-1.485-1.5h-.008a1.494,1.494,0,0,0-1.494,1.485,15.044,15.044,0,0,1-2.8,7.5h-1.462a5.047,5.047,0,0,1-3.023-9.1,1.506,1.506,0,0,0,.535-1.67,5.809,5.809,0,0,1,5.528-7.591,1.494,1.494,0,0,0,1.42-1.029,5.805,5.805,0,0,1,8.256-3.319,17.994,17.994,0,0,0,.328,3.741,7.315,7.315,0,0,1-1.841.9,1.494,1.494,0,1,0,.88,2.855,9.844,9.844,0,0,0,1.825-.788,7.806,7.806,0,0,0,1.023,1.8,1.494,1.494,0,0,0,2.348-1.847c-1.009-1.283-1.643-4.46-1.579-6.6a5.809,5.809,0,0,1,8.373,3.257,1.513,1.513,0,0,0,1.431,1.029,5.807,5.807,0,0,1,5.513,7.6,1.512,1.512,0,0,0,.552,1.671,5.048,5.048,0,0,1-3.038,9.094Z" transform="translate(-119.559 -36.552)"/>
          <path id="Path_1090274" data-name="Path 1090274" d="M210.689,403.528c4.527-2.425,10.5-6.342,10.131-12.338h0a7.524,7.524,0,0,0-11.624-5.8,7.524,7.524,0,0,0-11.623,5.8c-.372,6,5.6,9.913,10.13,12.338A3.153,3.153,0,0,0,210.689,403.528Zm-10.135-12.152c.227-3.638,4.4-5.584,7.725-3a1.494,1.494,0,0,0,1.834,0c3.325-2.585,7.5-.636,7.725,3,.127,2.05-.622,5.267-8.561,9.52a.168.168,0,0,1-.163,0C205.313,398.858,200.289,395.656,200.555,391.376Z" transform="translate(-162.619 -307.679)"/>
          <path id="Path_1090275" data-name="Path 1090275" d="M104.478,27.544a36.875,36.875,0,0,0-8.608-15.665,1.494,1.494,0,1,0-2.193,2.029,33.971,33.971,0,1,1-4.23-3.867A1.494,1.494,0,0,0,91.27,7.674,36.629,36.629,0,0,0,68.718,0,37.042,37.042,0,0,0,32.962,27.543a10.885,10.885,0,1,0,.886,21.738A37.167,37.167,0,0,0,48.57,67.969a35.479,35.479,0,0,0-6.3,6.135,1.494,1.494,0,1,0,2.33,1.87,31.76,31.76,0,0,1,6.764-6.337,37.016,37.016,0,0,0,34.7,0c8.358,5.679,14.344,15.974,14.749,29.351h-9.3V90.961a1.494,1.494,0,1,0-2.988,0v8.026H48.9V90.961a1.494,1.494,0,1,0-2.988,0v8.027h-9.3a39.477,39.477,0,0,1,4.812-18.3,1.494,1.494,0,1,0-2.606-1.461,42.993,42.993,0,0,0-5.216,21.253,1.494,1.494,0,0,0,1.494,1.494h67.236a1.494,1.494,0,0,0,1.494-1.494c0-14.484-6-25.8-14.96-32.514a37.167,37.167,0,0,0,14.719-18.685,10.885,10.885,0,1,0,.89-21.738ZM32.934,46.328A7.9,7.9,0,0,1,32.3,30.563a37.275,37.275,0,0,0,.638,15.765Zm71.567,0a37.339,37.339,0,0,0,.638-15.765,7.9,7.9,0,0,1-.638,15.765Z" transform="translate(-22.14 0)"/>
        </g>
      </g>
    </g>
  </g>
</svg>
