<svg xmlns="http://www.w3.org/2000/svg" xmlns:xlink="http://www.w3.org/1999/xlink" width="108" height="108" viewBox="0 0 108 108">
  <defs>
    <filter id="Path_904820" x="0" y="-0.001" width="108" height="108" filterUnits="userSpaceOnUse">
      <feOffset dy="3" input="SourceAlpha"/>
      <feGaussianBlur stdDeviation="3" result="blur"/>
      <feFlood flood-opacity="0.161"/>
      <feComposite operator="in" in2="blur"/>
      <feComposite in="SourceGraphic"/>
    </filter>
  </defs>
  <g id="Group_1218536" data-name="Group 1218536" transform="translate(-195 -10133.132)">
    <g id="Group_1218318" data-name="Group 1218318" transform="translate(0 8)">
      <g id="Group_1217675" data-name="Group 1217675" transform="translate(-2 9789)">
        <g id="Group_1215839" data-name="Group 1215839" transform="translate(0 -3696)">
          <g id="Group_1209015" data-name="Group 1209015" transform="translate(0 1366.077)">
            <g id="Group_1207774" data-name="Group 1207774" transform="translate(206 2670.713)">
              <g id="Group_1206630" data-name="Group 1206630" transform="translate(0 1.342)">
                <g id="Group_1185091" data-name="Group 1185091" transform="translate(0 0)">
                  <g id="Group_1179560" data-name="Group 1179560">
                    <g id="Group_1173787" data-name="Group 1173787" transform="translate(0)">
                      <g id="Group_1171910" data-name="Group 1171910">
                        <g id="Group_1167341" data-name="Group 1167341">
                          <g id="Group_1166792" data-name="Group 1166792">
                            <g transform="matrix(1, 0, 0, 1, -9, -6)" filter="url(#Path_904820)">
                              <g id="Path_904820-2" data-name="Path 904820" transform="translate(9 6)" fill="#e9f9fd">
                                <path d="M 44.99999618530273 88.50006866455078 C 39.12687301635742 88.50006866455078 33.43022155761719 87.35014343261719 28.06829643249512 85.08222961425781 C 22.88852119445801 82.89136505126953 18.23629570007324 79.75465393066406 14.24084663391113 75.75919342041016 C 10.24540901184082 71.76374053955078 7.108683586120605 67.11151885986328 4.917821407318115 61.93174362182617 C 2.649921178817749 56.56980514526367 1.499996185302734 50.87315368652344 1.499996185302734 45.00003051757812 C 1.499996185302734 39.12690734863281 2.649921178817749 33.43025588989258 4.917821407318115 28.06831741333008 C 7.108683586120605 22.88854217529297 10.24540901184082 18.23631858825684 14.24084663391113 14.24086761474609 C 18.23629570007324 10.24541759490967 22.88852119445801 7.10869312286377 28.06829643249512 4.917842864990234 C 33.43022155761719 2.649930477142334 39.12687301635742 1.500005483627319 44.99999618530273 1.500005483627319 C 50.87311935424805 1.500005483627319 56.56977081298828 2.649930477142334 61.93169784545898 4.917842864990234 C 67.11147308349609 7.10869312286377 71.76369476318359 10.24541759490967 75.75914764404297 14.24086761474609 C 79.75458526611328 18.23631858825684 82.89131164550781 22.88854217529297 85.08216857910156 28.06831741333008 C 87.35007476806641 33.43025588989258 88.5 39.12690734863281 88.5 45.00003051757812 C 88.5 50.87315368652344 87.35007476806641 56.56980514526367 85.08216857910156 61.93174362182617 C 82.89131164550781 67.11151885986328 79.75458526611328 71.76374053955078 75.75914764404297 75.75919342041016 C 71.76369476318359 79.75465393066406 67.11147308349609 82.89136505126953 61.93169784545898 85.08222961425781 C 56.56977081298828 87.35014343261719 50.87311935424805 88.50006866455078 44.99999618530273 88.50006866455078 Z" stroke="none"/>
                                <path d="M 44.99999618530273 3 C 39.32870864868164 3 33.82865142822266 4.110061645507812 28.65262603759766 6.299346923828125 C 23.65165710449219 8.414573669433594 19.15968322753906 11.44334411621094 15.301513671875 15.30152893066406 C 11.44333648681641 19.15969848632812 8.414566040039062 23.65167236328125 6.299339294433594 28.65264511108398 C 4.110054016113281 33.82868576049805 2.999992370605469 39.32874298095703 2.999992370605469 45.00003051757812 C 2.999992370605469 50.67131805419922 4.110054016113281 56.1713752746582 6.299339294433594 61.34741592407227 C 8.414566040039062 66.348388671875 11.44333648681641 70.84036254882812 15.301513671875 74.69853210449219 C 19.15968322753906 78.55671691894531 23.65165710449219 81.58548736572266 28.65262603759766 83.70071411132812 C 33.82865142822266 85.88999938964844 39.32870864868164 87.00006103515625 44.99999618530273 87.00006103515625 C 50.67128372192383 87.00006103515625 56.17134094238281 85.88999938964844 61.34736633300781 83.70071411132812 C 66.34834289550781 81.58548736572266 70.84030914306641 78.55671691894531 74.69847869873047 74.69853210449219 C 78.55665588378906 70.84036254882812 81.58542633056641 66.348388671875 83.70065307617188 61.34741592407227 C 85.88993835449219 56.1713752746582 87 50.67131805419922 87 45.00003051757812 C 87 39.32874298095703 85.88993835449219 33.82868576049805 83.70065307617188 28.65264511108398 C 81.58542633056641 23.65167236328125 78.55665588378906 19.15969848632812 74.69847869873047 15.30152893066406 C 70.84030914306641 11.44334411621094 66.34834289550781 8.414573669433594 61.34736633300781 6.299346923828125 C 56.17134094238281 4.110061645507812 50.67128372192383 3 44.99999618530273 3 M 44.99999618530273 0 C 69.85281372070312 0 90 20.14720153808594 90 45.00003051757812 C 90 69.85285949707031 69.85281372070312 90.00006103515625 44.99999618530273 90.00006103515625 C 20.14717864990234 90.00006103515625 -7.62939453125e-06 69.85285949707031 -7.62939453125e-06 45.00003051757812 C -7.62939453125e-06 20.14720153808594 20.14717864990234 0 44.99999618530273 0 Z" stroke="none" fill="#1d7083"/>
                              </g>
                            </g>
                          </g>
                        </g>
                      </g>
                    </g>
                  </g>
                </g>
              </g>
            </g>
          </g>
        </g>
      </g>
      <g id="discusion_1_" data-name="discusion (1)" transform="translate(212.366 10148.332)">
        <g id="Group_1217902" data-name="Group 1217902" transform="translate(1.073 1.114)">
          <path id="Path_1090095" data-name="Path 1090095" d="M31.038,383.03H12.209a4.709,4.709,0,0,0-4.71,4.709v12.667H35.747V387.739A4.709,4.709,0,0,0,31.038,383.03Z" transform="translate(-7.499 -329.298)" fill="#c4e2ff"/>
          <path id="Path_1090096" data-name="Path 1090096" d="M150.131,383.03H146.48a4.709,4.709,0,0,1,4.71,4.709v12.667h3.651V387.739A4.709,4.709,0,0,0,150.131,383.03Z" transform="translate(-126.592 -329.298)" fill="#b3dafe"/>
          <path id="Path_1090097" data-name="Path 1090097" d="M75.71,319.652v7.073l4.347,2.9,4.347-2.9v-7.073Z" transform="translate(-65.949 -274.99)" fill="#ffbfb1"/>
          <path id="Path_1090098" data-name="Path 1090098" d="M32.419,195.454c-.049,0-.1,0-.145,0a10.493,10.493,0,0,0-20.694,0c-.048,0-.1,0-.145,0a3.563,3.563,0,0,0,0,7.125c.049,0,.1,0,.145,0a10.493,10.493,0,0,0,20.694,0c.048,0,.1,0,.145,0a3.563,3.563,0,1,0,0-7.125Z" transform="translate(-7.819 -161.07)" fill="#ffcebf"/>
          <path id="Path_1090099" data-name="Path 1090099" d="M108.08,195.454c-.049,0-.1,0-.145,0A10.5,10.5,0,0,0,96.168,186.8a10.5,10.5,0,0,1,8.927,8.653c.048,0,.1,0,.145,0a3.563,3.563,0,0,1,0,7.125c-.049,0-.1,0-.145,0a10.5,10.5,0,0,1-8.927,8.653,10.5,10.5,0,0,0,11.767-8.653c.048,0,.1,0,.145,0a3.563,3.563,0,1,0,0-7.125Z" transform="translate(-83.48 -161.07)" fill="#ffbfb1"/>
          <path id="Path_1090100" data-name="Path 1090100" d="M53.7,369.078l-3.675,2,5.184,3.864,2.837-2.963Z" transform="translate(-43.944 -317.343)" fill="#b3dafe"/>
          <path id="Path_1090101" data-name="Path 1090101" d="M110.436,369.078l3.675,2-5.184,3.864-2.838-2.963Z" transform="translate(-91.981 -317.343)" fill="#b3dafe"/>
          <path id="Path_1090102" data-name="Path 1090102" d="M35.468,149.97a4.438,4.438,0,0,0-3.771-2.1H23.162a7.873,7.873,0,0,0-7.873,7.873v6.433h14.9a5.924,5.924,0,0,0,3.968-1.518,4.009,4.009,0,0,0,3.144,1.518h3.973V155.86A5.891,5.891,0,0,0,35.468,149.97Z" transform="translate(-14.174 -127.794)" fill="#c4573a"/>
          <path id="Path_1090103" data-name="Path 1090103" d="M92.746,389.331l-2.228,2.326.808,3.165h2.841l.808-3.165Z" transform="translate(-78.638 -334.698)" fill="#fd544d"/>
          <path id="Path_1090104" data-name="Path 1090104" d="M88.641,427.706,87.385,434.1h5.352l-1.256-6.393Z" transform="translate(-75.953 -367.581)" fill="#fd544d"/>
          <path id="Path_1090105" data-name="Path 1090105" d="M115.578,476.971H60.993a.716.716,0,0,1-.715-.715V473.1a.716.716,0,0,1,.715-.716h54.584a.716.716,0,0,1,.715.716v3.159A.715.715,0,0,1,115.578,476.971Z" transform="translate(-52.725 -405.863)" fill="#fed5b0"/>
          <g id="Group_1217892" data-name="Group 1217892" transform="translate(19.756 40.893)">
            <path id="Path_1090106" data-name="Path 1090106" d="M147.827,295.453h-1.2a1.073,1.073,0,1,1,0-2.146h1.2a1.073,1.073,0,1,1,0,2.146Z" transform="translate(-145.556 -293.307)" fill="#ffb09e"/>
          </g>
          <g id="Group_1217893" data-name="Group 1217893" transform="translate(5.928 40.893)">
            <path id="Path_1090107" data-name="Path 1090107" d="M51.195,295.453H50a1.073,1.073,0,1,1,0-2.146h1.2a1.073,1.073,0,1,1,0,2.146Z" transform="translate(-48.924 -293.307)" fill="#ffb09e"/>
          </g>
          <g id="Group_1217894" data-name="Group 1217894" transform="translate(13.466 20.081)">
            <path id="Path_1090108" data-name="Path 1090108" d="M109.43,149.97a4.438,4.438,0,0,0-3.771-2.1H101.6a4.438,4.438,0,0,1,3.771,2.1,5.891,5.891,0,0,1,5.808,5.89v6.318l.084,0h3.973V155.86A5.891,5.891,0,0,0,109.43,149.97Z" transform="translate(-101.603 -147.875)" fill="#a74b30"/>
          </g>
          <path id="Path_1090109" data-name="Path 1090109" d="M103.334,7.542c-6.953,0-12.59,5.025-12.59,11.224a10.994,10.994,0,0,0,5.849,9.481l-.658,2.217a.429.429,0,0,0,.534.534l4.23-1.255a14.124,14.124,0,0,0,2.635.247c6.953,0,12.59-5.025,12.59-11.224s-5.637-11.224-12.59-11.224Z" transform="translate(-78.832 -7.542)" fill="#b3dafe"/>
          <g id="Group_1217895" data-name="Group 1217895" transform="translate(16.748 9.635)">
            <circle id="Ellipse_14443" data-name="Ellipse 14443" cx="1.67" cy="1.67" r="1.67" fill="#0078c8"/>
            <circle id="Ellipse_14444" data-name="Ellipse 14444" cx="1.67" cy="1.67" r="1.67" transform="translate(6.085)" fill="#0078c8"/>
            <circle id="Ellipse_14445" data-name="Ellipse 14445" cx="1.67" cy="1.67" r="1.67" transform="translate(12.169)" fill="#0078c8"/>
          </g>
          <g id="Group_1217896" data-name="Group 1217896" transform="translate(22.879)">
            <path id="Path_1090110" data-name="Path 1090110" d="M169.007,7.542a14.232,14.232,0,0,0-1.623.093c6.187.71,10.967,5.423,10.967,11.132S173.579,29.179,167.4,29.9a14.165,14.165,0,0,0,1.606.095c6.953,0,12.59-5.025,12.59-11.224S175.96,7.542,169.007,7.542Z" transform="translate(-167.384 -7.542)" fill="#8ac9fe"/>
          </g>
          <path id="Path_1090111" data-name="Path 1090111" d="M118.321,369.078l-1.639,1.093,1.663.9-3.054,2.277,1.521,1.588L122,371.075Z" transform="translate(-99.866 -317.343)" fill="#8ac9fe"/>
          <path id="Path_1090112" data-name="Path 1090112" d="M300.981,472.381H276.643a.716.716,0,0,1,.715.716v3.159a.716.716,0,0,1-.715.715h24.338a.716.716,0,0,0,.716-.715V473.1A.716.716,0,0,0,300.981,472.381Z" transform="translate(-238.129 -405.863)" fill="#fdb97e"/>
          <path id="Path_1090113" data-name="Path 1090113" d="M330.635,383.03H311.806a4.709,4.709,0,0,0-4.71,4.709v12.667h28.248V387.739A4.71,4.71,0,0,0,330.635,383.03Z" transform="translate(-264.224 -329.298)" fill="#c4e2ff"/>
          <path id="Path_1090114" data-name="Path 1090114" d="M375.307,326.725v-7.073H384v7.073l-5.59,4.359Z" transform="translate(-322.674 -274.99)" fill="#ffcebf"/>
          <path id="Path_1090115" data-name="Path 1090115" d="M397.667,331.01l5.495-4.285v-7.073h-5.495Z" transform="translate(-341.835 -274.99)" fill="#ffbfb1"/>
          <path id="Path_1090116" data-name="Path 1090116" d="M333.379,202.576a10.493,10.493,0,0,0,20.694,0c.048,0,.1,0,.145,0a3.563,3.563,0,1,0,0-7.125c-.049,0-.1,0-.145,0a10.493,10.493,0,0,0-20.694,0Z" transform="translate(-286.746 -161.07)" fill="#ffcebf"/>
          <path id="Path_1090117" data-name="Path 1090117" d="M407.677,195.454c-.049,0-.1,0-.145,0a10.5,10.5,0,0,0-11.767-8.653,10.5,10.5,0,0,1,8.927,8.653c.048,0,.1,0,.145,0a3.563,3.563,0,1,1,0,7.125c-.049,0-.1,0-.145,0a10.5,10.5,0,0,1-8.927,8.653,10.5,10.5,0,0,0,11.767-8.653c.048,0,.1,0,.145,0a3.563,3.563,0,1,0,0-7.125Z" transform="translate(-340.205 -161.07)" fill="#ffbfb1"/>
          <path id="Path_1090118" data-name="Path 1090118" d="M386.242,399.542l-1.8,1.762.509,3.007H387.5l.513-2.666Z" transform="translate(-330.505 -343.447)" fill="#3e5959"/>
          <path id="Path_1090119" data-name="Path 1090119" d="M383.43,432.875l-.763,10.243h4.293l-.983-10.243Z" transform="translate(-328.981 -372.011)" fill="#3e5959"/>
          <g id="Group_1217897" data-name="Group 1217897" transform="translate(61.074 40.893)">
            <path id="Path_1090120" data-name="Path 1090120" d="M436.57,295.453h-1.2a1.073,1.073,0,1,1,0-2.146h1.2a1.073,1.073,0,1,1,0,2.146Z" transform="translate(-434.299 -293.307)" fill="#ffb09e"/>
          </g>
          <g id="Group_1217898" data-name="Group 1217898" transform="translate(47.247 40.893)">
            <path id="Path_1090121" data-name="Path 1090121" d="M339.938,295.453h-1.2a1.073,1.073,0,1,1,0-2.146h1.2a1.073,1.073,0,0,1,0,2.146Z" transform="translate(-337.667 -293.307)" fill="#ffb09e"/>
          </g>
          <path id="Path_1090122" data-name="Path 1090122" d="M325.513,162.181H344.4v-5.566a8.74,8.74,0,0,0-8.74-8.74h-8.866A7.792,7.792,0,0,0,319,155.667,6.514,6.514,0,0,0,325.513,162.181Z" transform="translate(-274.424 -127.794)" fill="#c4573a"/>
          <path id="Path_1090123" data-name="Path 1090123" d="M257.888,11.05c6.953,0,12.59,5.025,12.59,11.224a10.994,10.994,0,0,1-5.849,9.481l.658,2.217a.429.429,0,0,1-.534.534l-4.23-1.255a14.123,14.123,0,0,1-2.635.247c-6.953,0-12.59-5.025-12.59-11.224s5.637-11.224,12.59-11.224Z" transform="translate(-211.269 -10.548)" fill="#f9c6c6"/>
          <g id="Group_1217899" data-name="Group 1217899" transform="translate(38.94 10.673)">
            <circle id="Ellipse_14446" data-name="Ellipse 14446" cx="1.67" cy="1.67" r="1.67" fill="#f47c7c"/>
            <circle id="Ellipse_14447" data-name="Ellipse 14447" cx="1.67" cy="1.67" r="1.67" transform="translate(6.084)" fill="#f47c7c"/>
            <circle id="Ellipse_14448" data-name="Ellipse 14448" cx="1.67" cy="1.67" r="1.67" transform="translate(12.169)" fill="#f47c7c"/>
          </g>
          <path id="Path_1090124" data-name="Path 1090124" d="M411.119,147.875h-4.056a8.74,8.74,0,0,1,8.74,8.74v5.566h4.056v-5.566A8.74,8.74,0,0,0,411.119,147.875Z" transform="translate(-349.886 -127.794)" fill="#a74b30"/>
          <g id="Group_1217900" data-name="Group 1217900" transform="translate(44.996 0.502)">
            <path id="Path_1090125" data-name="Path 1090125" d="M336.15,22.275c0-6.2-5.637-11.224-12.59-11.224a14.232,14.232,0,0,0-1.623.093c6.187.71,10.967,5.423,10.967,11.132a10.994,10.994,0,0,1-5.849,9.481l.57,1.921,2.8.831a.429.429,0,0,0,.534-.534l-.658-2.217A11,11,0,0,0,336.15,22.275Z" transform="translate(-321.938 -11.051)" fill="#f9b1b1"/>
          </g>
          <g id="Group_1217901" data-name="Group 1217901" transform="translate(49.906 51.735)">
            <path id="Path_1090126" data-name="Path 1090126" d="M452.157,383.03h-3.245a4.709,4.709,0,0,1,4.71,4.709v12.667h3.245V387.739A4.71,4.71,0,0,0,452.157,383.03Z" transform="translate(-435.652 -381.034)" fill="#b3dafe"/>
            <path id="Path_1090127" data-name="Path 1090127" d="M359.164,376.3l2.917-2.862-3.1-4.359-2.727,2Z" transform="translate(-356.25 -369.078)" fill="#b3dafe"/>
            <path id="Path_1090128" data-name="Path 1090128" d="M399.647,376.581,397,373.437l5.59-4.359,3.175,2Z" transform="translate(-391.169 -369.078)" fill="#b3dafe"/>
          </g>
          <path id="Path_1090129" data-name="Path 1090129" d="M410.064,369.078l-1.449,1.13,1.378.867-4.272,3.845,1.4,1.661,6.117-5.506Z" transform="translate(-348.737 -317.343)" fill="#8ac9fe"/>
        </g>
        <g id="Group_1217903" data-name="Group 1217903" transform="translate(0 0.04)">
          <path id="Path_1090130" data-name="Path 1090130" d="M355.452,264.55a1.073,1.073,0,0,0-1.073,1.073v1.715a1.073,1.073,0,1,0,2.146,0v-1.715A1.073,1.073,0,0,0,355.452,264.55Z" transform="translate(-303.668 -226.699)"/>
          <path id="Path_1090131" data-name="Path 1090131" d="M427.028,264.55a1.073,1.073,0,0,0-1.073,1.073v1.715a1.073,1.073,0,1,0,2.146,0v-1.715A1.073,1.073,0,0,0,427.028,264.55Z" transform="translate(-365.001 -226.699)"/>
          <path id="Path_1090132" data-name="Path 1090132" d="M380.126,300.807a1.073,1.073,0,0,0-1.073,1.073,1.17,1.17,0,0,1-2.31,0,1.073,1.073,0,0,0-2.146,0,3.306,3.306,0,0,0,6.6,0A1.073,1.073,0,0,0,380.126,300.807Z" transform="translate(-320.992 -257.768)"/>
          <path id="Path_1090133" data-name="Path 1090133" d="M67.781,267.338v-1.715a1.073,1.073,0,1,0-2.146,0v1.715a1.073,1.073,0,1,0,2.146,0Z" transform="translate(-56.243 -226.699)"/>
          <path id="Path_1090134" data-name="Path 1090134" d="M138.285,268.411a1.073,1.073,0,0,0,1.073-1.073v-1.715a1.073,1.073,0,0,0-2.146,0v1.715A1.073,1.073,0,0,0,138.285,268.411Z" transform="translate(-117.577 -226.699)"/>
          <path id="Path_1090135" data-name="Path 1090135" d="M89.154,305.012a3.223,3.223,0,0,0,3.3-3.131,1.073,1.073,0,0,0-2.146,0,1.17,1.17,0,0,1-2.31,0,1.073,1.073,0,1,0-2.146,0A3.223,3.223,0,0,0,89.154,305.012Z" transform="translate(-73.568 -257.769)"/>
          <circle id="Ellipse_14449" data-name="Ellipse 14449" cx="1.67" cy="1.67" r="1.67" transform="translate(17.821 10.709)"/>
          <circle id="Ellipse_14450" data-name="Ellipse 14450" cx="1.67" cy="1.67" r="1.67" transform="translate(23.905 10.709)"/>
          <path id="Path_1090136" data-name="Path 1090136" d="M212.914,76.545a1.67,1.67,0,1,0-1.67,1.67A1.67,1.67,0,0,0,212.914,76.545Z" transform="translate(-179.585 -64.166)"/>
          <path id="Path_1090137" data-name="Path 1090137" d="M281.288,85.468a1.67,1.67,0,1,0-1.67-1.67A1.669,1.669,0,0,0,281.288,85.468Z" transform="translate(-239.605 -70.382)"/>
          <path id="Path_1090138" data-name="Path 1090138" d="M323.806,85.468a1.67,1.67,0,1,0-1.669-1.67A1.67,1.67,0,0,0,323.806,85.468Z" transform="translate(-276.04 -70.382)"/>
          <circle id="Ellipse_14451" data-name="Ellipse 14451" cx="1.67" cy="1.67" r="1.67" transform="translate(52.182 11.747)"/>
          <path id="Path_1090139" data-name="Path 1090139" d="M72.193,63.05a1.073,1.073,0,0,0,1.073-1.073V59.555a5.789,5.789,0,0,0-5.783-5.783h-1.6l-2.411-1.516V50.788a11.5,11.5,0,0,0,5.608-7.357A4.642,4.642,0,0,0,72,36a1.067,1.067,0,0,0,.123-.5V29.935a9.824,9.824,0,0,0-9.813-9.813h-3.6a11.452,11.452,0,0,0,2.643-7.282c0-6.781-6.129-12.3-13.663-12.3A14.217,14.217,0,0,0,36.84,5.376,14.1,14.1,0,0,0,25.575.04,13.774,13.774,0,0,0,13.021,7.475a1.073,1.073,0,1,0,1.936.926A11.622,11.622,0,0,1,25.574,2.186a11.832,11.832,0,0,1,9.954,5.044,11.357,11.357,0,0,0-1.492,5.189c0,.023,0,.046,0,.069a11.3,11.3,0,0,0,1.189,5.39,12.02,12.02,0,0,1-9.649,4.611,13.076,13.076,0,0,1-2.434-.228,1.074,1.074,0,0,0-.506.025l-3.092.917a6.147,6.147,0,0,0,.364-1.35c.026-.805-.584-.936-1.451-1.539a9.826,9.826,0,0,1-4.388-7.569,1.073,1.073,0,1,0-2.144.1A11.6,11.6,0,0,0,15,20.122H10.061a8.957,8.957,0,0,0-8.947,8.947V35.5a1.066,1.066,0,0,0,.11.472,4.641,4.641,0,0,0,2.723,7.664A11.505,11.505,0,0,0,9.761,51.1V52.21L6.887,53.772h-1.1A5.789,5.789,0,0,0,0,59.555V72.222a1.073,1.073,0,0,0,1.073,1.073h71.12a1.073,1.073,0,0,0,1.073-1.073V67a1.073,1.073,0,1,0-2.146,0v4.152H60.027l-.875-9.119.119-.621a1.082,1.082,0,0,0,.9-.259l5.811-5.231h1.5a3.64,3.64,0,0,1,3.636,3.636v2.422a1.073,1.073,0,0,0,1.073,1.073Zm-1.364-24.2a2.492,2.492,0,0,1-2.489,2.489l-.1,0a1.07,1.07,0,0,0-1.1.9,9.42,9.42,0,0,1-18.562.086V35.67a7.539,7.539,0,0,0,3.588.9H69.337a2.48,2.48,0,0,1,1.492,2.281Zm-13.8,16.818-2.255-3.167v-.678a11.9,11.9,0,0,0,3.069.409,11.78,11.78,0,0,0,3.479-.53v.619Zm.4,3.94L57.183,60.9h-.754l-.264-1.56.57-.559Zm4.875-37.344a7.675,7.675,0,0,1,7.667,7.667v4.493h-.254a4.669,4.669,0,0,0-1.191-.2c-.033,0-16.538,0-16.571,0a5.564,5.564,0,0,1-3.542-1.3,5.424,5.424,0,0,1-1.693-3.939,6.735,6.735,0,0,1,1.214-3.852,15.611,15.611,0,0,0,2.319-.215h.01L54.251,26.1a1.5,1.5,0,0,0,1.868-1.868L55.7,22.808c.265-.172.522-.353.771-.54ZM36.188,12.387c.271-5.32,5.249-9.7,11.5-9.7,6.35,0,11.516,4.554,11.516,10.151a9.909,9.909,0,0,1-5.3,8.547,1.073,1.073,0,0,0-.5,1.239l.32,1.079-3.092-.917h0a1.1,1.1,0,0,0-.5-.026h0c-7.3,1.383-14.272-3.668-13.936-10.376ZM3.261,29.068a6.808,6.808,0,0,1,6.8-6.8h7.453l.056.038c-.541,1.823-.4,1.341-.436,1.484A1.5,1.5,0,0,0,19.016,25.6L23,24.417a4.8,4.8,0,0,1,4.1,4.763v5.247H24.2a2.931,2.931,0,0,1-2.3-1.113,1.074,1.074,0,0,0-1.556-.131,4.864,4.864,0,0,1-3.251,1.244H3.261ZM5.893,42.442a1.073,1.073,0,0,0-1.1-.9,2.489,2.489,0,0,1-.224-4.972H17.091a7.007,7.007,0,0,0,3.871-1.164c1.627,1.348,3.184,1.164,4.834,1.164a2.489,2.489,0,0,1-.224,4.972,1.076,1.076,0,0,0-1.1.9,9.42,9.42,0,0,1-18.577,0Zm12.245,14.84-1.3-1.353L19.585,54.1l1.631.886Zm5.421-1.364h1.053a3.64,3.64,0,0,1,3.636,3.636v7H18.74L17.7,61.27l.38-1.49a1.081,1.081,0,0,0,.578-.21Zm-8.916,6.393h1.075l.834,4.246H13.809Zm-.5-3.926L15.181,57.3l1.041,1.087-.454,1.78H14.594Zm1.041-3.928-3.274-2.183v-.3a11.682,11.682,0,0,0,6.548,0v.3Zm-4.4-.356L13.52,55.93l-1.3,1.353L9.146,54.988ZM7.552,68.347v2.8H2.146V59.555a3.64,3.64,0,0,1,3.636-3.636H6.8l4.9,3.651a1.082,1.082,0,0,0,.578.21l.38,1.489-1.039,5.289H9.341a1.791,1.791,0,0,0-1.789,1.789Zm35.32,2.8H9.7V68.7H42.872v2.444Zm0-11.593v7H30.395v-7a5.789,5.789,0,0,0-5.783-5.783H23.476L20.6,52.211V51.1a11.5,11.5,0,0,0,5.813-7.466,4.641,4.641,0,0,0,2.723-7.664,1.068,1.068,0,0,0,.11-.472V29.18a6.948,6.948,0,0,0-1.786-4.665A14.119,14.119,0,0,0,36.434,19.8a13.92,13.92,0,0,0,9.1,5.183,8.885,8.885,0,0,0-.957,4,7.557,7.557,0,0,0,2.067,5.2c-.08.312-.147.624-.2.935-.023.138-.015-.382-.015,7.3A11.42,11.42,0,0,0,52.633,51v1.3l-2,1.468H48.655a5.79,5.79,0,0,0-5.783,5.783ZM53.763,71.148H45.018V59.555a3.64,3.64,0,0,1,3.636-3.636h1.694l2.607,4.674a1.072,1.072,0,0,0,1.324.477l.162.958Zm.383-12.829-1.767-3.168,1.084-.794L55.4,57.084Zm1.77,12.829.6-8.1h.576l.777,8.1Zm3.649-12.336-1.215-1.443,4.117-3.211L63.8,55Z" transform="translate(0 -0.04)"/>
        </g>
      </g>
    </g>
  </g>
</svg>
