<svg xmlns="http://www.w3.org/2000/svg" xmlns:xlink="http://www.w3.org/1999/xlink" width="93.934" height="93.934" viewBox="0 0 93.934 93.934">
  <defs>
    <filter id="Path_982547" x="0" y="0" width="93.934" height="93.934" filterUnits="userSpaceOnUse">
      <feOffset dy="3" input="SourceAlpha"/>
      <feGaussianBlur stdDeviation="3" result="blur"/>
      <feFlood flood-opacity="0.161"/>
      <feComposite operator="in" in2="blur"/>
      <feComposite in="SourceGraphic"/>
    </filter>
  </defs>
  <g id="Group_1214640" data-name="Group 1214640" transform="translate(-611.295 -5128)">
    <g id="Group_1214433" data-name="Group 1214433" transform="translate(-0.771 -2738.674)">
      <g id="Group_1183190" data-name="Group 1183190" transform="translate(1 1016.674)">
        <g id="Group_1179611" data-name="Group 1179611" transform="translate(428 4723.467)">
          <g id="Group_1175227" data-name="Group 1175227" transform="translate(-5.967 140.533)">
            <g id="Group_1167337" data-name="Group 1167337" transform="translate(198.033 1992)">
              <g id="Group_1166720" data-name="Group 1166720">
                <g id="Group_1164305" data-name="Group 1164305">
                  <g id="Group_1163948" data-name="Group 1163948">
                    <g id="Group_1158168" data-name="Group 1158168">
                      <g id="Group_1152576" data-name="Group 1152576">
                        <g id="Group_1148633" data-name="Group 1148633">
                          <g id="Group_1148525" data-name="Group 1148525">
                            <g transform="matrix(1, 0, 0, 1, -9, -6)" filter="url(#Path_982547)">
                              <g id="Path_982547-2" data-name="Path 982547" transform="translate(9 6)" fill="#f5f5f5">
                                <path d="M 37.966796875 74.43359375 C 33.04315185546875 74.43359375 28.26757431030273 73.46962738037109 23.77274131774902 71.56847381591797 C 19.43047523498535 69.73184967041016 15.53040790557861 67.10224914550781 12.18087482452393 63.75271987915039 C 8.831341743469238 60.4031867980957 6.201741218566895 56.50312042236328 4.365118980407715 52.16086196899414 C 2.463963508605957 47.66601943969727 1.499996900558472 42.89044189453125 1.499996900558472 37.966796875 C 1.499996900558472 33.04315185546875 2.463963508605957 28.26757431030273 4.365118980407715 23.77274131774902 C 6.201741218566895 19.43047523498535 8.831341743469238 15.53040790557861 12.18087482452393 12.18087482452393 C 15.53040790557861 8.831341743469238 19.43047523498535 6.201741218566895 23.77274131774902 4.365118980407715 C 28.26757431030273 2.463963508605957 33.04315185546875 1.499996900558472 37.966796875 1.499996900558472 C 42.89044189453125 1.499996900558472 47.66601943969727 2.463963508605957 52.16086196899414 4.365118980407715 C 56.50312042236328 6.201741218566895 60.4031867980957 8.831341743469238 63.75271987915039 12.18087482452393 C 67.10224914550781 15.53040790557861 69.73184967041016 19.43047523498535 71.56847381591797 23.77274131774902 C 73.46962738037109 28.26757431030273 74.43359375 33.04315185546875 74.43359375 37.966796875 C 74.43359375 42.89044189453125 73.46962738037109 47.66601943969727 71.56847381591797 52.16086196899414 C 69.73184967041016 56.50313186645508 67.10224914550781 60.4031867980957 63.75271987915039 63.75271987915039 C 60.4031867980957 67.10224914550781 56.50313186645508 69.73184967041016 52.16086196899414 71.56847381591797 C 47.66601943969727 73.46962738037109 42.89044189453125 74.43359375 37.966796875 74.43359375 Z" stroke="none"/>
                                <path d="M 37.966796875 3 C 33.2449836730957 3 28.66600799560547 3.924095153808594 24.35705947875977 5.746635437011719 C 20.19359588623047 7.507637023925781 16.45379638671875 10.02928161621094 13.24153518676758 13.24153518676758 C 10.02927398681641 16.45379638671875 7.507621765136719 20.19359588623047 5.746635437011719 24.35705947875977 C 3.924095153808594 28.66600799560547 3 33.2449836730957 3 37.966796875 C 3 42.6886100769043 3.924095153808594 47.26758575439453 5.746635437011719 51.57653427124023 C 7.507621765136719 55.73999786376953 10.02927398681641 59.47979736328125 13.24153518676758 62.69205856323242 C 16.45379638671875 65.90431976318359 20.19359588623047 68.42597198486328 24.35705947875977 70.18695831298828 C 28.66600799560547 72.00949859619141 33.2449836730957 72.93359375 37.966796875 72.93359375 C 42.6886100769043 72.93359375 47.26758575439453 72.00949859619141 51.57653427124023 70.18695831298828 C 55.73999786376953 68.42597198486328 59.47979736328125 65.90431976318359 62.69205856323242 62.69205856323242 C 65.90431976318359 59.47979736328125 68.42597198486328 55.73999786376953 70.18695831298828 51.57653427124023 C 72.00949859619141 47.26758575439453 72.93359375 42.6886100769043 72.93359375 37.966796875 C 72.93359375 33.2449836730957 72.00949859619141 28.66600799560547 70.18695831298828 24.35705947875977 C 68.42597198486328 20.19359588623047 65.90431976318359 16.45379638671875 62.69205856323242 13.24153518676758 C 59.47979736328125 10.02928161621094 55.73999786376953 7.507637023925781 51.57653427124023 5.746635437011719 C 47.26758575439453 3.924095153808594 42.6886100769043 3 37.966796875 3 M 37.966796875 0 C 58.93528366088867 0 75.93359375 16.99832153320312 75.93359375 37.966796875 C 75.93359375 58.93528366088867 58.93528366088867 75.93359375 37.966796875 75.93359375 C 16.99831008911133 75.93359375 0 58.93528366088867 0 37.966796875 C 0 16.99832153320312 16.99831008911133 0 37.966796875 0 Z" stroke="none" fill="#86b60c"/>
                              </g>
                            </g>
                          </g>
                        </g>
                      </g>
                    </g>
                  </g>
                </g>
              </g>
            </g>
          </g>
        </g>
      </g>
    </g>
    <g id="creativo_1_" data-name="creativo (1)" transform="translate(636.227 5147)">
      <path id="Path_1077571" data-name="Path 1077571" d="M49.806,251.84a5,5,0,0,1-4.6,4.988c-.134.012-.271.017-.408.017a4.946,4.946,0,0,1-1.022-.1H13.632a4.942,4.942,0,0,1-1.022.1h0a5,5,0,0,1-.467-9.986,4.629,4.629,0,0,1,.47-.023,5.075,5.075,0,0,1,.62.037H44.181a5.075,5.075,0,0,1,.62-.037,4.948,4.948,0,0,1,.87.076,5,5,0,0,1,4.135,4.928Zm0,0" transform="translate(-6.67 -216.496)" fill="#ffd0a6"/>
      <path id="Path_1077572" data-name="Path 1077572" d="M78.035,246.912v6.34a14,14,0,0,1-.463,3.576c-.134.012-.271.017-.408.017a4.944,4.944,0,0,1-1.022-.1H46a4.94,4.94,0,0,1-1.022.1h0a14.021,14.021,0,0,1-.467-3.593v-6.394a4.629,4.629,0,0,1,.47-.023,5.075,5.075,0,0,1,.62.037H76.545a5.075,5.075,0,0,1,.62-.037,4.99,4.99,0,0,1,.871.076Zm0,0" transform="translate(-39.034 -216.496)" fill="#e8b182"/>
      <path id="Path_1077573" data-name="Path 1077573" d="M87.186,395.4H56.637a15.275,15.275,0,0,1,30.549,0Zm0,0" transform="translate(-49.676 -333.402)" fill="#56d8d8"/>
      <path id="Path_1077574" data-name="Path 1077574" d="M136.714,398.223H113.106a15.281,15.281,0,0,1,11.8-14.879,15.285,15.285,0,0,1,11.8,14.879Zm0,0" transform="translate(-99.204 -336.225)" fill="#77f6fb"/>
      <path id="Path_1077575" data-name="Path 1077575" d="M135.3,422.5l-3.4,6.9-4.032-4.389L123.83,429.4l-3.4-6.9" transform="translate(-105.627 -370.565)" fill="#56d8d8"/>
      <path id="Path_1077576" data-name="Path 1077576" d="M87.186,119.8v10.4a15.275,15.275,0,0,1-30.549,0V119.8a15.275,15.275,0,0,1,30.549,0Zm0,0" transform="translate(-49.675 -91.675)" fill="#e8b182"/>
      <path id="Path_1077577" data-name="Path 1077577" d="M128.584,121.762v10.4a15.279,15.279,0,0,1-12.374,15,15.28,15.28,0,0,1-12.374-15v-10.4a15.28,15.28,0,0,1,12.374-15,15.281,15.281,0,0,1,12.374,15Zm0,0" transform="translate(-91.073 -93.64)" fill="#ffd0a6"/>
      <path id="Path_1077578" data-name="Path 1077578" d="M87.186,119.8v2.255c-18.083-.023-24.094-7.419-24.094-7.419,0,3.072-3.072,6.314-6.455,7.419V119.8a15.275,15.275,0,0,1,30.549,0Zm0,0" transform="translate(-49.675 -91.676)" fill="#5b5b68"/>
      <path id="Path_1077579" data-name="Path 1077579" d="M74.809,104.8a15.3,15.3,0,0,0-11.548,10.03c-.117-.124-.173-.193-.173-.193,0,3.072-3.072,6.314-6.455,7.419V119.8a15.289,15.289,0,0,1,18.176-15Zm0,0" transform="translate(-49.672 -91.676)" fill="#40404c"/>
      <path id="Path_1077580" data-name="Path 1077580" d="M130.765,15.512a7.9,7.9,0,0,1-3.7,6.7h-8.416a7.908,7.908,0,0,1,5.921-14.414c.056.012.114.025.17.039a7.909,7.909,0,0,1,6.022,7.68Zm0,0" transform="translate(-100.824 -6.671)" fill="#fcbb65"/>
      <path id="Path_1077581" data-name="Path 1077581" d="M157.619,17.122a7.9,7.9,0,0,1-3.7,6.7h-4.653A7.909,7.909,0,0,1,151.6,9.441,7.909,7.909,0,0,1,157.619,17.122Zm0,0" transform="translate(-127.678 -8.281)" fill="#fed563"/>
      <path id="Path_1077582" data-name="Path 1077582" d="M145.9,127.018a2.072,2.072,0,0,1-2.073,2.073H137.1a2.073,2.073,0,1,1,0-4.146h6.73A2.073,2.073,0,0,1,145.9,127.018Zm0,0" transform="translate(-118.431 -109.588)" fill="#d5e8ec"/>
      <path id="Path_1077583" data-name="Path 1077583" d="M154.743,160.744a2.074,2.074,0,0,1-2.073,2.073h-3.85a2.073,2.073,0,1,1,0-4.146h3.85A2.073,2.073,0,0,1,154.743,160.744Zm0,0" transform="translate(-128.709 -139.169)" fill="#d5e8ec"/>
      <path id="Path_1077584" data-name="Path 1077584" d="M293.5,60.329a.935.935,0,0,0,.934.935h5.7a.935.935,0,0,0,0-1.87h-5.7A.935.935,0,0,0,293.5,60.329Zm0,0" transform="translate(-257.421 -52.094)"/>
      <path id="Path_1077585" data-name="Path 1077585" d="M294.427,3.409a.93.93,0,0,0,.447-.114L297.7,1.755a.935.935,0,0,0-.9-1.641l-2.822,1.54a.934.934,0,0,0,.448,1.755Zm0,0" transform="translate(-257.417 0)"/>
      <path id="Path_1077586" data-name="Path 1077586" d="M293.982,108.02l2.822,1.539a.935.935,0,1,0,.9-1.641l-2.822-1.539a.935.935,0,0,0-.9,1.641Zm0,0" transform="translate(-257.42 -93.203)"/>
      <path id="Path_1077587" data-name="Path 1077587" d="M4.387,61.264h5.7a.935.935,0,1,0,0-1.87h-5.7a.935.935,0,0,0,0,1.87Zm0,0" transform="translate(-3.029 -52.094)"/>
      <path id="Path_1077588" data-name="Path 1077588" d="M27.37,1.755l2.822,1.539a.935.935,0,0,0,.9-1.641L28.265.114a.935.935,0,1,0-.895,1.641Zm0,0" transform="translate(-23.578 0)"/>
      <path id="Path_1077589" data-name="Path 1077589" d="M30.192,106.379l-2.822,1.539a.935.935,0,1,0,.895,1.641l2.822-1.539a.935.935,0,1,0-.895-1.641Zm0,0" transform="translate(-23.578 -93.203)"/>
      <path id="Path_1077590" data-name="Path 1077590" d="M144.232,335.475a6.86,6.86,0,0,0,4.866-2.012.935.935,0,0,0-1.322-1.322,5.017,5.017,0,0,1-7.087,0,.935.935,0,0,0-1.322,1.322,6.859,6.859,0,0,0,4.865,2.012Zm0,0" transform="translate(-121.997 -291.076)"/>
      <path id="Path_1077591" data-name="Path 1077591" d="M38.209,41.285a5.938,5.938,0,0,0,.237-11.868V28.126a16.227,16.227,0,0,0-8.965-14.505,8.841,8.841,0,1,0-14.789.155,16.233,16.233,0,0,0-5.9,5.287.935.935,0,0,0,1.549,1.047,14.35,14.35,0,0,1,5.588-4.866q.181.171.372.334a3.005,3.005,0,0,0,1.142,4.6,3.009,3.009,0,0,0,2.664,4.407h3.85a3.005,3.005,0,0,0,2.662-4.4,3.006,3.006,0,0,0,1.142-4.6q.264-.223.508-.464a14.355,14.355,0,0,1,8.3,13.012v1.311c-4.946-.082-11.675-.8-17.347-3.548a16.208,16.208,0,0,1-5.087-3.517.934.934,0,0,0-1.66.589c0,2.177-2,4.714-4.586,6.021v-.857a14.277,14.277,0,0,1,.837-4.839.935.935,0,0,0-1.759-.632,16.146,16.146,0,0,0-.947,5.472v1.285l-.087,0a5.939,5.939,0,1,0,0,11.879c.108,0,.215,0,.322-.009a16.194,16.194,0,0,0,4.8,8.982A16.166,16.166,0,0,0,6.027,62a.935.935,0,0,0,.934.935h19.6a.935.935,0,0,0,0-1.87H23.17V56.846l2.409,2.623a.934.934,0,0,0,1.526-.219l3.316-6.729a16.123,16.123,0,0,0,1.558-1.039q.2.186.4.379a14.239,14.239,0,0,1,4.171,9.206H30.3a.935.935,0,1,0,0,1.869H37.51A.935.935,0,0,0,38.445,62,16.106,16.106,0,0,0,33.7,50.54c-.093-.094-.188-.185-.283-.277a16.243,16.243,0,0,0,4.8-8.978ZM23.96,18.572H18.67a1.138,1.138,0,1,1,0-2.276H25.4a1.138,1.138,0,1,1,0,2.276Zm-1.925-16.7a6.963,6.963,0,0,1,6.971,6.971A6.938,6.938,0,0,1,26.1,14.509a3,3,0,0,0-.7-.083H22.97V12.364a3.244,3.244,0,0,0,2.3-3.1.935.935,0,1,0-1.869,0,1.369,1.369,0,0,1-2.739,0,.935.935,0,1,0-1.869,0,3.244,3.244,0,0,0,2.3,3.1v2.062H18.67a3.044,3.044,0,0,0-.7.082A6.972,6.972,0,0,1,22.035,1.873Zm2.73,20.512a1.13,1.13,0,0,1-.805.333H20.11a1.138,1.138,0,1,1,0-2.276h3.85a1.138,1.138,0,0,1,.805,1.943ZM42.2,35.348a4.075,4.075,0,0,1-3.781,4.059q.024-.437.024-.88V35.188a1.172,1.172,0,0,1,1.1.682.935.935,0,1,0,1.714-.746,2.993,2.993,0,0,0-2.818-1.8V31.291A4.076,4.076,0,0,1,42.2,35.348ZM5.939,39.418a4.07,4.07,0,1,1,0-8.14l.087,0v2.042a2.993,2.993,0,0,0-2.818,1.8.935.935,0,1,0,1.714.746,1.173,1.173,0,0,1,1.1-.682v3.339c0,.3.009.594.025.888l-.112,0ZM7.9,38.527V31.034a11.58,11.58,0,0,0,4.259-3,8.947,8.947,0,0,0,1.888-3.184c2.621,2.159,9.317,6.258,22.533,6.46v7.22a14.34,14.34,0,1,1-28.68,0ZM20.762,54.669,18.438,57.2l-1.684-3.417a16.108,16.108,0,0,0,4.008.887Zm-12.837,6.4A14.3,14.3,0,0,1,12.5,51.476a16.275,16.275,0,0,0,1.546,1.032l3.322,6.741a.935.935,0,0,0,.705.512.951.951,0,0,0,.133.009.935.935,0,0,0,.688-.3L21.3,56.846v4.221ZM26.032,57.2l-2.323-2.529c.54-.049,1.076-.123,1.6-.225a16.192,16.192,0,0,0,2.4-.656Zm0,0" transform="translate(0 -0.003)"/>
      <path id="Path_1077592" data-name="Path 1077592" d="M120.1,267a.935.935,0,0,0,.935-.935v-3.755a.935.935,0,0,0-1.869,0v3.755A.935.935,0,0,0,120.1,267Zm0,0" transform="translate(-104.518 -229.252)"/>
      <path id="Path_1077593" data-name="Path 1077593" d="M228.372,267a.935.935,0,0,0,.934-.935v-3.755a.935.935,0,0,0-1.869,0v3.755A.935.935,0,0,0,228.372,267Zm0,0" transform="translate(-199.482 -229.252)"/>
    </g>
  </g>
</svg>
