<svg xmlns="http://www.w3.org/2000/svg" xmlns:xlink="http://www.w3.org/1999/xlink" width="93.934" height="93.934" viewBox="0 0 93.934 93.934">
  <defs>
    <filter id="Path_982547" x="0" y="0" width="93.934" height="93.934" filterUnits="userSpaceOnUse">
      <feOffset dy="3" input="SourceAlpha"/>
      <feGaussianBlur stdDeviation="3" result="blur"/>
      <feFlood flood-opacity="0.161"/>
      <feComposite operator="in" in2="blur"/>
      <feComposite in="SourceGraphic"/>
    </filter>
  </defs>
  <g id="Group_1215557" data-name="Group 1215557" transform="translate(-189 -6056.533)">
    <g id="Group_1214520" data-name="Group 1214520" transform="translate(0 60)">
      <g id="Group_1214400" data-name="Group 1214400" transform="translate(0 5099.669)">
        <g id="Group_1200933" data-name="Group 1200933" transform="translate(0 -3717.169)">
          <g id="Group_1183815" data-name="Group 1183815" transform="translate(0 4267.973)">
            <g id="Group_1181939" data-name="Group 1181939" transform="translate(0 -388.939)">
              <g id="Group_1175133" data-name="Group 1175133" transform="translate(-0.033 -1251)">
                <g id="Group_1167337" data-name="Group 1167337" transform="translate(198.033 1992)">
                  <g id="Group_1166720" data-name="Group 1166720">
                    <g id="Group_1164305" data-name="Group 1164305">
                      <g id="Group_1163948" data-name="Group 1163948">
                        <g id="Group_1158168" data-name="Group 1158168">
                          <g id="Group_1152576" data-name="Group 1152576">
                            <g id="Group_1148633" data-name="Group 1148633">
                              <g id="Group_1148525" data-name="Group 1148525">
                                <g transform="matrix(1, 0, 0, 1, -9, -6)" filter="url(#Path_982547)">
                                  <g id="Path_982547-2" data-name="Path 982547" transform="translate(9 6)" fill="#f2f7e5">
                                    <path d="M 37.966796875 74.43359375 C 33.04315185546875 74.43359375 28.26757431030273 73.46962738037109 23.77274131774902 71.56847381591797 C 19.43047523498535 69.73184967041016 15.53040790557861 67.10224914550781 12.18087482452393 63.75271987915039 C 8.831341743469238 60.4031867980957 6.201741218566895 56.50312042236328 4.365118980407715 52.16086196899414 C 2.463963508605957 47.66601943969727 1.499996900558472 42.89044189453125 1.499996900558472 37.966796875 C 1.499996900558472 33.04315185546875 2.463963508605957 28.26757431030273 4.365118980407715 23.77274131774902 C 6.201741218566895 19.43047523498535 8.831341743469238 15.53040790557861 12.18087482452393 12.18087482452393 C 15.53040790557861 8.831341743469238 19.43047523498535 6.201741218566895 23.77274131774902 4.365118980407715 C 28.26757431030273 2.463963508605957 33.04315185546875 1.499996900558472 37.966796875 1.499996900558472 C 42.89044189453125 1.499996900558472 47.66601943969727 2.463963508605957 52.16086196899414 4.365118980407715 C 56.50312042236328 6.201741218566895 60.4031867980957 8.831341743469238 63.75271987915039 12.18087482452393 C 67.10224914550781 15.53040790557861 69.73184967041016 19.43047523498535 71.56847381591797 23.77274131774902 C 73.46962738037109 28.26757431030273 74.43359375 33.04315185546875 74.43359375 37.966796875 C 74.43359375 42.89044189453125 73.46962738037109 47.66601943969727 71.56847381591797 52.16086196899414 C 69.73184967041016 56.50313186645508 67.10224914550781 60.4031867980957 63.75271987915039 63.75271987915039 C 60.4031867980957 67.10224914550781 56.50313186645508 69.73184967041016 52.16086196899414 71.56847381591797 C 47.66601943969727 73.46962738037109 42.89044189453125 74.43359375 37.966796875 74.43359375 Z" stroke="none"/>
                                    <path d="M 37.966796875 3 C 33.2449836730957 3 28.66600799560547 3.924095153808594 24.35705947875977 5.746635437011719 C 20.19359588623047 7.507637023925781 16.45379638671875 10.02928161621094 13.24153518676758 13.24153518676758 C 10.02927398681641 16.45379638671875 7.507621765136719 20.19359588623047 5.746635437011719 24.35705947875977 C 3.924095153808594 28.66600799560547 3 33.2449836730957 3 37.966796875 C 3 42.6886100769043 3.924095153808594 47.26758575439453 5.746635437011719 51.57653427124023 C 7.507621765136719 55.73999786376953 10.02927398681641 59.47979736328125 13.24153518676758 62.69205856323242 C 16.45379638671875 65.90431976318359 20.19359588623047 68.42597198486328 24.35705947875977 70.18695831298828 C 28.66600799560547 72.00949859619141 33.2449836730957 72.93359375 37.966796875 72.93359375 C 42.6886100769043 72.93359375 47.26758575439453 72.00949859619141 51.57653427124023 70.18695831298828 C 55.73999786376953 68.42597198486328 59.47979736328125 65.90431976318359 62.69205856323242 62.69205856323242 C 65.90431976318359 59.47979736328125 68.42597198486328 55.73999786376953 70.18695831298828 51.57653427124023 C 72.00949859619141 47.26758575439453 72.93359375 42.6886100769043 72.93359375 37.966796875 C 72.93359375 33.2449836730957 72.00949859619141 28.66600799560547 70.18695831298828 24.35705947875977 C 68.42597198486328 20.19359588623047 65.90431976318359 16.45379638671875 62.69205856323242 13.24153518676758 C 59.47979736328125 10.02928161621094 55.73999786376953 7.507637023925781 51.57653427124023 5.746635437011719 C 47.26758575439453 3.924095153808594 42.6886100769043 3 37.966796875 3 M 37.966796875 0 C 58.93528366088867 0 75.93359375 16.99832153320312 75.93359375 37.966796875 C 75.93359375 58.93528366088867 58.93528366088867 75.93359375 37.966796875 75.93359375 C 16.99831008911133 75.93359375 0 58.93528366088867 0 37.966796875 C 0 16.99832153320312 16.99831008911133 0 37.966796875 0 Z" stroke="none" fill="#86b60c"/>
                                  </g>
                                </g>
                              </g>
                            </g>
                          </g>
                        </g>
                      </g>
                    </g>
                  </g>
                </g>
              </g>
            </g>
          </g>
        </g>
      </g>
      <g id="XMLID_919_" transform="translate(206.339 6017.455)">
        <path id="XMLID_2025_" d="M153.629,253.847v-4.969h-2.165a11.328,11.328,0,0,0-1.5-3.622l1.532-1.531-3.513-3.513-1.532,1.532a11.331,11.331,0,0,0-3.622-1.5v-2.166h-4.969v2.166a11.325,11.325,0,0,0-3.622,1.5l-1.532-1.532-3.513,3.513,1.531,1.531a11.329,11.329,0,0,0-1.5,3.622h-2.165v4.969h2.164a11.329,11.329,0,0,0,1.5,3.623l-1.53,1.53,3.513,3.513,1.53-1.53a11.327,11.327,0,0,0,3.624,1.5v2.163h4.969v-2.163a11.327,11.327,0,0,0,3.624-1.5l1.53,1.53L151.495,259l-1.53-1.53a11.329,11.329,0,0,0,1.5-3.623Zm-13.286,3.791a6.273,6.273,0,1,1,6.273-6.273A6.273,6.273,0,0,1,140.344,257.638Z" transform="translate(-110.413 -214.182)" fill="#91def5"/>
        <g id="XMLID_1357_" transform="translate(5.329 1.002)">
          <g id="XMLID_1700_" transform="translate(6.354 4.765)">
            <g id="XMLID_1702_">
              <path id="XMLID_85_" d="M110.271,75.25l-9.822-9.822-3.765-5.811a14.034,14.034,0,0,0-7.478-2.158l-11.586,13L96.339,89.181A2.463,2.463,0,1,0,99.822,85.7a2.463,2.463,0,1,0,3.483-3.483,2.463,2.463,0,1,0,3.483-3.483,2.463,2.463,0,0,0,3.483-3.483Z" transform="translate(-77.62 -57.458)" fill="#ffcbbe"/>
              <g id="XMLID_1705_" transform="translate(2.534 13.999)">
                <path id="XMLID_2018_" d="M103.586,199.6l1.944-1.944a2.463,2.463,0,1,1,3.483,3.483l-1.944,1.944a2.463,2.463,0,1,1-3.483-3.483Z" transform="translate(-102.865 -196.932)" fill="#fff"/>
                <path id="XMLID_2017_" d="M138.286,234.3l1.944-1.944a2.463,2.463,0,0,1,3.483,3.483l-1.944,1.944a2.463,2.463,0,0,1-3.483-3.483Z" transform="translate(-134.082 -228.151)" fill="#fff"/>
                <path id="XMLID_2016_" d="M172.987,269l1.944-1.944a2.463,2.463,0,0,1,3.483,3.483l-1.944,1.944A2.463,2.463,0,0,1,172.987,269Z" transform="translate(-165.3 -259.368)" fill="#fff"/>
                <path id="XMLID_2015_" d="M207.687,303.7l1.944-1.944a2.463,2.463,0,0,1,3.483,3.483l-1.944,1.944a2.463,2.463,0,0,1-3.483-3.483Z" transform="translate(-196.517 -290.586)" fill="#fff"/>
                <path id="XMLID_2014_" d="M103.586,199.6l1.944-1.944a2.463,2.463,0,1,1,3.483,3.483l-1.944,1.944a2.463,2.463,0,1,1-3.483-3.483Z" transform="translate(-102.865 -196.932)" fill="#fff"/>
                <path id="XMLID_1884_" d="M138.286,234.3l1.944-1.944a2.463,2.463,0,0,1,3.483,3.483l-1.944,1.944a2.463,2.463,0,0,1-3.483-3.483Z" transform="translate(-134.082 -228.151)" fill="#fff"/>
                <path id="XMLID_1707_" d="M172.987,269l1.944-1.944a2.463,2.463,0,0,1,3.483,3.483l-1.944,1.944A2.463,2.463,0,0,1,172.987,269Z" transform="translate(-165.3 -259.368)" fill="#fff"/>
                <path id="XMLID_1706_" d="M207.687,303.7l1.944-1.944a2.463,2.463,0,0,1,3.483,3.483l-1.944,1.944a2.463,2.463,0,0,1-3.483-3.483Z" transform="translate(-196.517 -290.586)" fill="#fff"/>
              </g>
              <path id="XMLID_1703_" d="M216.286,90.631l4.013-4.013-12-12.062h-2.112a14.034,14.034,0,0,0-9.924,4.111,2.747,2.747,0,0,0,3.885,3.885l1.733-1.733h4.579Z" transform="translate(-183.635 -72.84)" fill="#f2bb88"/>
            </g>
          </g>
          <g id="XMLID_1571_">
            <g id="XMLID_1388_" transform="translate(8.888 18.763)">
              <path id="XMLID_1406_" d="M103.586,199.6l1.944-1.944a2.463,2.463,0,1,1,3.483,3.483l-1.944,1.944a2.463,2.463,0,1,1-3.483-3.483Z" transform="translate(-102.865 -196.932)" fill="#f2bb88"/>
              <path id="XMLID_1402_" d="M138.286,234.3l1.944-1.944a2.463,2.463,0,0,1,3.483,3.483l-1.944,1.944a2.463,2.463,0,0,1-3.483-3.483Z" transform="translate(-134.082 -228.151)" fill="#f2bb88"/>
              <path id="XMLID_1386_" d="M172.987,269l1.944-1.944a2.463,2.463,0,0,1,3.483,3.483l-1.944,1.944A2.463,2.463,0,0,1,172.987,269Z" transform="translate(-165.3 -259.368)" fill="#f2bb88"/>
              <path id="XMLID_1385_" d="M207.687,303.7l1.944-1.944a2.463,2.463,0,0,1,3.483,3.483l-1.944,1.944a2.463,2.463,0,0,1-3.483-3.483Z" transform="translate(-196.517 -290.586)" fill="#f2bb88"/>
            </g>
            <path id="XMLID_2843_" d="M325.146,28.078,313.083,16.015a1.966,1.966,0,0,1,0-2.781l2.673-2.673a1.966,1.966,0,0,1,2.781,0L330.6,22.625a1.966,1.966,0,0,1,0,2.781l-2.673,2.673a1.966,1.966,0,0,1-2.781,0Z" transform="translate(-282.578 -9.986)" fill="#f6838d"/>
            <path id="XMLID_1830_" d="M20.342,28.078,32.405,16.015a1.966,1.966,0,0,0,0-2.781l-2.673-2.673a1.966,1.966,0,0,0-2.781,0L14.889,22.625a1.966,1.966,0,0,0,0,2.781l2.673,2.673a1.966,1.966,0,0,0,2.781,0Z" transform="translate(-14.313 -9.986)" fill="#ffcb7c"/>
          </g>
        </g>
        <g id="XMLID_82_" transform="translate(4.327 -0.001)">
          <path id="XMLID_109_" d="M54.061,12.931,42,.868a2.973,2.973,0,0,0-4.2,0L35.125,3.541a2.972,2.972,0,0,0-.749,2.938h-.137a15.163,15.163,0,0,0-3.332.369,15.079,15.079,0,0,0-6.014-2,2.951,2.951,0,0,0-.762-1.311L21.459.868a2.973,2.973,0,0,0-4.2,0L14.421,3.705A1,1,0,0,0,15.84,5.125l2.838-2.838a.962.962,0,0,1,1.361,0L22.712,4.96a.964.964,0,0,1,0,1.361L10.649,18.384a.964.964,0,0,1-1.361,0L6.615,15.711a.962.962,0,0,1,0-1.361l2.838-2.838a1,1,0,1,0-1.419-1.419L5.2,12.931a2.973,2.973,0,0,0,0,4.2L7.869,19.8a2.974,2.974,0,0,0,3.528.5l2.228,2.228a3.466,3.466,0,0,0,3.056,5.1H16.7a3.459,3.459,0,0,0,2.5,3.344,12.293,12.293,0,0,0-1.163,2.71H16.645a1,1,0,0,0-1,1v4.969a1,1,0,0,0,1,1h1.386a12.279,12.279,0,0,0,1.019,2.46l-.98.98a1,1,0,0,0,0,1.419l3.513,3.513a1,1,0,0,0,1.419,0l.98-.98a12.288,12.288,0,0,0,2.46,1.02v1.385a1,1,0,0,0,1,1h4.969a1,1,0,0,0,1-1V49.081a12.277,12.277,0,0,0,2.46-1.02l.98.98a1,1,0,0,0,1.419,0l3.513-3.513a1,1,0,0,0,0-1.419l-.98-.98a12.285,12.285,0,0,0,1.019-2.46h1.386a1,1,0,0,0,1-1V34.7a1,1,0,0,0-1-1H41.83a12.3,12.3,0,0,0-.8-2.026,3.5,3.5,0,0,0,.527-.433,3.456,3.456,0,0,0,1.013-2.468h.018a3.469,3.469,0,0,0,3.057-5.1L48.7,20.613a3,3,0,0,0,.589.059,2.961,2.961,0,0,0,2.1-.868l2.673-2.673a2.974,2.974,0,0,0,0-4.2ZM35.87,8.486,46.928,19.544l-2.594,2.594-9.112-9.112a1,1,0,0,0-.71-.294h0l-4.579.009a1,1,0,0,0-.708.294l-1.733,1.733A1.743,1.743,0,0,1,25.025,12.3a12.946,12.946,0,0,1,9.214-3.817h1.63ZM15.648,25.2a1.461,1.461,0,0,1,0-2.063h0L17.592,21.2a1.459,1.459,0,0,1,2.063,2.063L17.712,25.2A1.461,1.461,0,0,1,15.648,25.2Zm3.483,1.419,1.944-1.944a1.459,1.459,0,0,1,2.063,2.063l-1.944,1.944a1.459,1.459,0,1,1-2.063-2.063Zm5.533,10.434.014.014a3.467,3.467,0,0,0,4.343.454l.673.673a3.465,3.465,0,0,0,5.5-.806,5.269,5.269,0,0,1-10.534-.21c0-.042,0-.084,0-.125Zm8.512-.278a1.461,1.461,0,0,1-2.063,0l-.621-.621,1.031-1.031a3.454,3.454,0,0,0,.805-1.259l.848.848a1.461,1.461,0,0,1,0,2.063ZM30.1,31.644a1.459,1.459,0,0,1,0,2.063L28.16,35.652A1.459,1.459,0,0,1,26.1,33.588l1.944-1.944a1.461,1.461,0,0,1,2.063,0Zm-3.483-1.42-1.944,1.944a1.459,1.459,0,1,1-2.063-2.063l1.944-1.944a1.459,1.459,0,0,1,2.063,2.063ZM42.213,35.7v2.961h-1.16a1,1,0,0,0-.98.786,10.3,10.3,0,0,1-1.368,3.3A1,1,0,0,0,38.842,44l.821.821-2.094,2.094-.82-.82a1,1,0,0,0-1.248-.137,10.3,10.3,0,0,1-3.3,1.369,1,1,0,0,0-.786.98v1.159H28.45V48.3a1,1,0,0,0-.786-.98,10.3,10.3,0,0,1-3.3-1.369,1,1,0,0,0-1.248.137l-.82.82L20.2,44.818,21.02,44a1,1,0,0,0,.137-1.248,10.3,10.3,0,0,1-1.368-3.3,1,1,0,0,0-.98-.786h-1.16V35.7H18.81a1,1,0,0,0,.98-.786,10.3,10.3,0,0,1,.764-2.208,3.466,3.466,0,0,0,2.587,1.859A7.277,7.277,0,1,0,37,35.447a3.458,3.458,0,0,0,2.093-3.169,10.3,10.3,0,0,1,.981,2.636,1,1,0,0,0,.98.786h1.161Zm1.411-9.369a1.459,1.459,0,0,1-2.063,0l-8.614-8.614a1,1,0,0,0-1.42,1.419l8.614,8.614a1.459,1.459,0,0,1-2.063,2.064h0L29.464,21.2a1,1,0,0,0-1.42,1.42l8.614,8.614A1.459,1.459,0,1,1,34.6,33.3l-3.072-3.072-.012-.011a3.455,3.455,0,0,0-2.458-1,3.463,3.463,0,0,0-3.464-3.485h-.018a3.46,3.46,0,0,0-3.483-3.481,3.464,3.464,0,0,0-5.915-2.47l-1.234,1.234L12.9,18.973,24.132,7.741a2.957,2.957,0,0,0,.61-.887,13.068,13.068,0,0,1,3.452.885,15.03,15.03,0,0,0-4.588,3.144,3.751,3.751,0,0,0,5.3,5.3l1.439-1.439L34.1,14.74l9.527,9.527a1.459,1.459,0,0,1,0,2.063Zm9.017-10.619-2.673,2.673a.964.964,0,0,1-1.361,0L36.544,6.321a.964.964,0,0,1,0-1.361l2.673-2.673a.962.962,0,0,1,1.361,0L52.641,14.35a.962.962,0,0,1,0,1.361Z" transform="translate(-4.327 0.001)"/>
          <path id="XMLID_124_" d="M71.153,67.83a1,1,0,1,0-.71-.294A1.015,1.015,0,0,0,71.153,67.83Z" transform="translate(-63.544 -59.216)"/>
        </g>
      </g>
    </g>
  </g>
</svg>
