<svg xmlns="http://www.w3.org/2000/svg" xmlns:xlink="http://www.w3.org/1999/xlink" width="103" height="103" viewBox="0 0 103 103">
  <defs>
    <filter id="Path_978624" x="0" y="0" width="103" height="103" filterUnits="userSpaceOnUse">
      <feOffset dy="3" input="SourceAlpha"/>
      <feGaussianBlur stdDeviation="3" result="blur"/>
      <feFlood flood-opacity="0.161"/>
      <feComposite operator="in" in2="blur"/>
      <feComposite in="SourceGraphic"/>
    </filter>
  </defs>
  <g id="Group_1218540" data-name="Group 1218540" transform="translate(-616 -10886)">
    <g id="Group_1218342" data-name="Group 1218342">
      <g id="Group_1217676" data-name="Group 1217676" transform="translate(625 10892)">
        <g id="Group_1215797" data-name="Group 1215797">
          <g id="Group_1208646" data-name="Group 1208646">
            <g id="Group_1180764" data-name="Group 1180764">
              <g id="Group_1179463" data-name="Group 1179463">
                <g id="Group_1144531" data-name="Group 1144531">
                  <g transform="matrix(1, 0, 0, 1, -9, -6)" filter="url(#Path_978624)">
                    <g id="Path_978624-2" data-name="Path 978624" transform="translate(9 6)" fill="#fff4e6">
                      <path d="M 42.5 83.5 C 36.96437835693359 83.5 31.59512901306152 82.41617584228516 26.54141235351562 80.27863311767578 C 21.65934181213379 78.21369171142578 17.27447128295898 75.25723266601562 13.50862312316895 71.49137878417969 C 9.742764472961426 67.72553253173828 6.786305904388428 63.34066009521484 4.721364498138428 58.45858764648438 C 2.583823442459106 53.40486907958984 1.5 48.03562164306641 1.5 42.5 C 1.5 36.96437835693359 2.583823442459106 31.59512901306152 4.721364498138428 26.54141235351562 C 6.786305904388428 21.65934181213379 9.742764472961426 17.27447128295898 13.50862312316895 13.50862312316895 C 17.27447128295898 9.742764472961426 21.65934181213379 6.786305904388428 26.54141235351562 4.721364498138428 C 31.59512901306152 2.583823442459106 36.96437835693359 1.5 42.5 1.5 C 48.03562164306641 1.5 53.40486907958984 2.583823442459106 58.45858764648438 4.721364498138428 C 63.34066009521484 6.786305904388428 67.72553253173828 9.742764472961426 71.49137878417969 13.50862312316895 C 75.25723266601562 17.27447128295898 78.21369171142578 21.65934181213379 80.27863311767578 26.54141235351562 C 82.41617584228516 31.59512901306152 83.5 36.96437835693359 83.5 42.5 C 83.5 48.03562164306641 82.41617584228516 53.40486907958984 80.27863311767578 58.45858764648438 C 78.21369171142578 63.34066009521484 75.25723266601562 67.72553253173828 71.49137878417969 71.49137878417969 C 67.72553253173828 75.25723266601562 63.34066009521484 78.21369171142578 58.45858764648438 80.27863311767578 C 53.40486907958984 82.41617584228516 48.03562164306641 83.5 42.5 83.5 Z" stroke="none"/>
                      <path d="M 42.5 3 C 37.16621398925781 3 31.99356079101562 4.043960571289062 27.125732421875 6.102882385253906 C 22.42246627807617 8.092185974121094 18.19785308837891 10.94070434570312 14.56928253173828 14.56928253173828 C 10.94070434570312 18.19785308837891 8.092185974121094 22.42246627807617 6.102882385253906 27.125732421875 C 4.043960571289062 31.99356079101562 3 37.16621398925781 3 42.5 C 3 47.83378601074219 4.043960571289062 53.00643920898438 6.102882385253906 57.87425231933594 C 8.092185974121094 62.57753372192383 10.94070434570312 66.80213165283203 14.56928253173828 70.43071746826172 C 18.19786834716797 74.05929565429688 22.42246627807617 76.90781402587891 27.125732421875 78.89711761474609 C 31.99356079101562 80.95603942871094 37.16621398925781 82 42.5 82 C 47.83378601074219 82 53.00642395019531 80.95603942871094 57.87425231933594 78.89711761474609 C 62.57753372192383 76.90781402587891 66.80213165283203 74.05929565429688 70.43071746826172 70.43071746826172 C 74.05929565429688 66.80213165283203 76.90781402587891 62.57753372192383 78.89711761474609 57.87425231933594 C 80.95603942871094 53.00642395019531 82 47.83378601074219 82 42.5 C 82 37.16621398925781 80.95603942871094 31.99356079101562 78.89711761474609 27.125732421875 C 76.90781402587891 22.42246627807617 74.05929565429688 18.19786834716797 70.43071746826172 14.56928253173828 C 66.80213165283203 10.94070434570312 62.57753372192383 8.092185974121094 57.87425231933594 6.102882385253906 C 53.00643920898438 4.043960571289062 47.83378601074219 3 42.5 3 M 42.5 0 C 65.97209167480469 0 85 19.02789306640625 85 42.5 C 85 65.97209167480469 65.97209167480469 85 42.5 85 C 19.02789306640625 85 0 65.97209167480469 0 42.5 C 0 19.02789306640625 19.02789306640625 0 42.5 0 Z" stroke="none" fill="#ff9d1c"/>
                    </g>
                  </g>
                </g>
              </g>
            </g>
          </g>
        </g>
      </g>
      <g id="idea-genial" transform="translate(636 10914)">
        <g id="Group_1218340" data-name="Group 1218340">
          <g id="Group_1218320" data-name="Group 1218320">
            <path id="Path_1090508" data-name="Path 1090508" d="M48,50.79a12.247,12.247,0,0,1,2.31-1.25L54,48a10.569,10.569,0,0,1,8,10.25V62H42a13.417,13.417,0,0,1,2.44-7.73A13.251,13.251,0,0,1,48,50.79Z" fill="#e6e9ed"/>
          </g>
          <g id="Group_1218321" data-name="Group 1218321">
            <path id="Path_1090509" data-name="Path 1090509" d="M44.44,54.27A13.417,13.417,0,0,0,42,62H22a13.436,13.436,0,0,0-2.41-7.69,11.339,11.339,0,0,1,3.51-3.62,11.118,11.118,0,0,1,3.19-1.39L28,57l4-4,4,4,1.71-7.7a10.969,10.969,0,0,1,3.13,1.36,11.1,11.1,0,0,1,3.49,3.53Z" fill="#4fc1e9"/>
          </g>
          <g id="Group_1218322" data-name="Group 1218322">
            <path id="Path_1090510" data-name="Path 1090510" d="M37.71,49.3,36,57l-4-4,4-4.01A10.537,10.537,0,0,1,37.71,49.3Z" fill="#3bafda"/>
          </g>
          <g id="Group_1218323" data-name="Group 1218323">
            <path id="Path_1090511" data-name="Path 1090511" d="M28,48.99,32,53l-4,4-1.71-7.7A10.537,10.537,0,0,1,28,48.99Z" fill="#3bafda"/>
          </g>
          <g id="Group_1218324" data-name="Group 1218324">
            <path id="Path_1090512" data-name="Path 1090512" d="M8,62H2V58.25A10.579,10.579,0,0,1,10,48l1,4,5,3,1.52-3.03a12.809,12.809,0,0,1,2.07,2.34A13.436,13.436,0,0,1,22,62Z" fill="#b4dd7f"/>
          </g>
          <g id="Group_1218325" data-name="Group 1218325">
            <path id="Path_1090513" data-name="Path 1090513" d="M16,50.79a10.681,10.681,0,0,1,1.52,1.18L16,55l-5-3-1-4,3.69,1.54A12.247,12.247,0,0,1,16,50.79Z" fill="#a0d468"/>
          </g>
          <g id="Group_1218326" data-name="Group 1218326">
            <path id="Path_1090514" data-name="Path 1090514" d="M10,40v5l-1.17-.58A12.387,12.387,0,0,1,2,33.36V30h8v5a2.006,2.006,0,0,0-2,2v.17a2.006,2.006,0,0,0,.59,1.42Z" fill="#656d78"/>
          </g>
          <g id="Group_1218327" data-name="Group 1218327">
            <path id="Path_1090515" data-name="Path 1090515" d="M62,30v3.36a12.387,12.387,0,0,1-6.83,11.06L54,45V40l1.41-1.41A2.006,2.006,0,0,0,56,37.17V37a2.006,2.006,0,0,0-2-2V30Z" fill="#fcd770"/>
          </g>
          <g id="Group_1218328" data-name="Group 1218328">
            <path id="Path_1090516" data-name="Path 1090516" d="M48,45h-.59A3.414,3.414,0,0,1,44,41.59V39l-.58-.29A2.567,2.567,0,0,1,42,36.42a2.455,2.455,0,0,1,.13-.81L44,30H54v5a2.006,2.006,0,0,1,2,2v.17a2.006,2.006,0,0,1-.59,1.42L54,40v8l-3.69,1.54A12.247,12.247,0,0,0,48,50.79Z" fill="#f0d0b4"/>
          </g>
          <g id="Group_1218329" data-name="Group 1218329">
            <path id="Path_1090517" data-name="Path 1090517" d="M35,45.99l1,3L32,53l-4-4.01,1-3Z" fill="#f0d0b4"/>
          </g>
          <g id="Group_1218330" data-name="Group 1218330">
            <path id="Path_1090518" data-name="Path 1090518" d="M40,36.42v4.57a5,5,0,0,1-5,5H29a5,5,0,0,1-5-5V30H40Z" fill="#f0d0b4"/>
          </g>
          <g id="Group_1218331" data-name="Group 1218331">
            <path id="Path_1090519" data-name="Path 1090519" d="M16,45v5.79a12.247,12.247,0,0,0-2.31-1.25L10,48V40L8.59,38.59A2.006,2.006,0,0,1,8,37.17V37a2.006,2.006,0,0,1,2-2V30H20l1.87,5.61a2.455,2.455,0,0,1,.13.81,2.567,2.567,0,0,1-1.42,2.29L20,39v2.59A3.414,3.414,0,0,1,16.59,45Z" fill="#f0d0b4"/>
          </g>
          <g id="Group_1218332" data-name="Group 1218332">
            <path id="Path_1090520" data-name="Path 1090520" d="M11,12V30H5V12Z" fill="#69d6f4"/>
          </g>
          <g id="Group_1218333" data-name="Group 1218333">
            <path id="Path_1090521" data-name="Path 1090521" d="M11,12h6V30H11Z" fill="#ef7385"/>
          </g>
          <g id="Group_1218334" data-name="Group 1218334">
            <path id="Path_1090522" data-name="Path 1090522" d="M12.45,2.89,17,12H5L9.55,2.89a1.626,1.626,0,0,1,2.9,0Z" fill="#969faa"/>
          </g>
          <g id="Group_1218335" data-name="Group 1218335">
            <path id="Path_1090523" data-name="Path 1090523" d="M37,26v4H27V26H37Z" fill="#aab2bd"/>
          </g>
          <g id="Group_1218336" data-name="Group 1218336">
            <path id="Path_1090524" data-name="Path 1090524" d="M30.73,2.07a11,11,0,0,0-5.69,19.44A5.148,5.148,0,0,1,27,25.47V26H37v-.53a5.065,5.065,0,0,1,1.92-3.93A11,11,0,0,0,30.73,2.07Z" fill="#ffeaa7"/>
          </g>
          <g id="Group_1218337" data-name="Group 1218337">
            <path id="Path_1090525" data-name="Path 1090525" d="M37.41,11.59A1.955,1.955,0,0,1,38,13a2.006,2.006,0,0,1-2,2H33.74l.14-2.13A2,2,0,0,1,35.87,11H36a1.955,1.955,0,0,1,1.41.59Z" fill="#fcd770"/>
          </g>
          <g id="Group_1218338" data-name="Group 1218338">
            <circle id="Ellipse_14467" data-name="Ellipse 14467" cx="2" cy="2" r="2" transform="translate(50 22)" fill="#ef7385"/>
          </g>
          <g id="Group_1218339" data-name="Group 1218339">
            <path id="Path_1090526" data-name="Path 1090526" d="M30.12,12.87,30.26,15H28a2.015,2.015,0,0,1-2-2,2.006,2.006,0,0,1,2-2h.13a2,2,0,0,1,1.99,1.87Z" fill="#fcd770"/>
          </g>
        </g>
        <g id="Group_1218341" data-name="Group 1218341">
          <path id="Path_1090527" data-name="Path 1090527" d="M55.614,45.312A13.288,13.288,0,0,0,63,33.361V29H43.279l-2.1,6.29A3.592,3.592,0,0,0,41,36.416,3.543,3.543,0,0,0,42.969,39.6L43,41.586a4.372,4.372,0,0,0,4,4.374v4.3a14.463,14.463,0,0,0-2.552,2.354,12.012,12.012,0,0,0-7.7-4.537l-.414-1.243A6.007,6.007,0,0,0,41,40.986V29H38V25.47a4.057,4.057,0,0,1,1.544-3.149A11.988,11.988,0,0,0,40,4.054,12,12,0,0,0,20.147,11.1,11.948,11.948,0,0,0,24.405,22.28,4.158,4.158,0,0,1,26,25.473V29H23V40.986a6.007,6.007,0,0,0,4.664,5.845l-.415,1.244a12.2,12.2,0,0,0-7.694,4.541A14.48,14.48,0,0,0,17,50.257v-4.3a4.375,4.375,0,0,0,4-4.374V39.618l.031-.015a3.563,3.563,0,0,0,1.786-4.314L20.721,29H18V11.764L13.342,2.448a2.618,2.618,0,0,0-4.684,0L4,11.764V29H1v4.361A13.288,13.288,0,0,0,8.386,45.312L9,45.619v1.635A11.54,11.54,0,0,0,1,58.247V63H63V58.246a11.54,11.54,0,0,0-8-10.993V45.618ZM61,33.361a11.283,11.283,0,0,1-6,10V40.414l1.121-1.121A2.978,2.978,0,0,0,57,37.171V37a3.006,3.006,0,0,0-2-2.829V31h6ZM49,46h2V44H47.413a2.4,2.4,0,0,1-1.705-.707A2.427,2.427,0,0,1,45,41.586v-3.2l-1.136-.569a1.562,1.562,0,0,1-.784-1.891L44.721,31H53v5h1a1,1,0,0,1,1,1v.171a1,1,0,0,1-.293.708L53,39.586v7.747l-3.077,1.282q-.471.2-.923.423ZM32,51.583l-2.856-2.867.577-1.731h4.558l.577,1.731Zm-4.348-1.529L30.587,53l-2.006,2.006L27.487,50.08Zm8.7,0,.165.026L35.419,55,33.413,53ZM25.671,20.732a9.97,9.97,0,0,1-3.548-9.33,10.073,10.073,0,0,1,8.72-8.338,10,10,0,0,1,7.444,17.7A6.061,6.061,0,0,0,36.027,25H34.069l.6-9H36a3,3,0,0,0,0-6h-.129a3.008,3.008,0,0,0-2.993,2.8L32.8,14H31.2l-.08-1.2A3.008,3.008,0,0,0,28.129,10H28a3,3,0,1,0,0,6h1.331l.6,9H27.972a6.183,6.183,0,0,0-2.3-4.268ZM31.935,25l-.6-9h1.329l-.6,9ZM34.8,14l.071-1.066a1,1,0,0,1,1-.934H36a1,1,0,0,1,0,2Zm-5.6,0H28a1,1,0,0,1,0-2h.129a1,1,0,0,1,1,.934ZM28,27h8v2H28ZM25,40.986V31H39v9.986a4,4,0,0,1-4,4H29a4,4,0,0,1-4-4ZM16.277,52.21l-.689,1.377-3.719-2.231-.417-1.667,1.855.773A12.515,12.515,0,0,1,16.277,52.21ZM20.92,35.921a1.565,1.565,0,0,1-.784,1.893L19,38.383v3.2A2.412,2.412,0,0,1,16.587,44H13v2h2v3.039q-.451-.227-.923-.423L11,47.333V39.586L9.293,37.879A1,1,0,0,1,9,37.171V37a1,1,0,0,1,1-1h1V31h8.279ZM12,29V13h4V29ZM10.447,3.341a.641.641,0,0,1,1.1,0L15.382,11H6.618ZM6,13h4V29H6ZM3,33.361V31H9v3.171A3.006,3.006,0,0,0,7,37v.171a2.982,2.982,0,0,0,.879,2.122L9,40.414v2.943a11.284,11.284,0,0,1-6-10ZM9,61V55H7v6H3V58.246a9.543,9.543,0,0,1,6.286-8.979l.844,3.377,6.281,3.769,1.384-2.769A12.449,12.449,0,0,1,20.96,61Zm13.966,0A14.461,14.461,0,0,0,20.8,54.316a10.18,10.18,0,0,1,4.75-3.72L27.419,59,32,54.414,36.581,59l1.868-8.407A10.025,10.025,0,0,1,43.2,54.314,14.455,14.455,0,0,0,41.034,61ZM61,58.246V61H57V55H55v6H43.04a12.463,12.463,0,0,1,7.653-10.539l3.378-1.407A9.547,9.547,0,0,1,61,58.246Z"/>
          <path id="Path_1090528" data-name="Path 1090528" d="M36,38H34a1,1,0,0,1-1,1H29v2h4A3,3,0,0,0,36,38Z"/>
          <path id="Path_1090529" data-name="Path 1090529" d="M49,24a3,3,0,1,0,3-3A3,3,0,0,0,49,24Zm4,0a1,1,0,1,1-1-1A1,1,0,0,1,53,24Z"/>
          <path id="Path_1090530" data-name="Path 1090530" d="M48,8.728A3.732,3.732,0,0,1,51.728,5h.545A3.728,3.728,0,0,1,54.6,11.639L51,14.52V19h2V15.48l2.85-2.28A5.727,5.727,0,0,0,52.272,3h-.545A5.734,5.734,0,0,0,46,8.728V9h2Z"/>
        </g>
      </g>
    </g>
  </g>
</svg>
