<svg xmlns="http://www.w3.org/2000/svg" xmlns:xlink="http://www.w3.org/1999/xlink" width="93.934" height="93.934" viewBox="0 0 93.934 93.934">
  <defs>
    <filter id="Path_982547" x="0" y="0" width="93.934" height="93.934" filterUnits="userSpaceOnUse">
      <feOffset dy="3" input="SourceAlpha"/>
      <feGaussianBlur stdDeviation="3" result="blur"/>
      <feFlood flood-opacity="0.161"/>
      <feComposite operator="in" in2="blur"/>
      <feComposite in="SourceGraphic"/>
    </filter>
  </defs>
  <g id="Group_1215593" data-name="Group 1215593" transform="translate(-815.295 -5021)">
    <g id="Group_1214639" data-name="Group 1214639" transform="translate(0 -257)">
      <g id="Group_1214437" data-name="Group 1214437" transform="translate(623.229 -2588.674)">
        <g id="Group_1183196" data-name="Group 1183196" transform="translate(1 1016.674)">
          <g id="Group_1179610" data-name="Group 1179610" transform="translate(8 4723.467)">
            <g id="Group_1175227" data-name="Group 1175227" transform="translate(-5.967 140.533)">
              <g id="Group_1167337" data-name="Group 1167337" transform="translate(198.033 1992)">
                <g id="Group_1166720" data-name="Group 1166720">
                  <g id="Group_1164305" data-name="Group 1164305">
                    <g id="Group_1163948" data-name="Group 1163948">
                      <g id="Group_1158168" data-name="Group 1158168">
                        <g id="Group_1152576" data-name="Group 1152576">
                          <g id="Group_1148633" data-name="Group 1148633">
                            <g id="Group_1148525" data-name="Group 1148525">
                              <g transform="matrix(1, 0, 0, 1, -9, -6)" filter="url(#Path_982547)">
                                <g id="Path_982547-2" data-name="Path 982547" transform="translate(9 6)" fill="#f5f5f5">
                                  <path d="M 37.966796875 74.43359375 C 33.04315185546875 74.43359375 28.26757431030273 73.46962738037109 23.77274131774902 71.56847381591797 C 19.43047523498535 69.73184967041016 15.53040790557861 67.10224914550781 12.18087482452393 63.75271987915039 C 8.831341743469238 60.4031867980957 6.201741218566895 56.50312042236328 4.365118980407715 52.16086196899414 C 2.463963508605957 47.66601943969727 1.499996900558472 42.89044189453125 1.499996900558472 37.966796875 C 1.499996900558472 33.04315185546875 2.463963508605957 28.26757431030273 4.365118980407715 23.77274131774902 C 6.201741218566895 19.43047523498535 8.831341743469238 15.53040790557861 12.18087482452393 12.18087482452393 C 15.53040790557861 8.831341743469238 19.43047523498535 6.201741218566895 23.77274131774902 4.365118980407715 C 28.26757431030273 2.463963508605957 33.04315185546875 1.499996900558472 37.966796875 1.499996900558472 C 42.89044189453125 1.499996900558472 47.66601943969727 2.463963508605957 52.16086196899414 4.365118980407715 C 56.50312042236328 6.201741218566895 60.4031867980957 8.831341743469238 63.75271987915039 12.18087482452393 C 67.10224914550781 15.53040790557861 69.73184967041016 19.43047523498535 71.56847381591797 23.77274131774902 C 73.46962738037109 28.26757431030273 74.43359375 33.04315185546875 74.43359375 37.966796875 C 74.43359375 42.89044189453125 73.46962738037109 47.66601943969727 71.56847381591797 52.16086196899414 C 69.73184967041016 56.50313186645508 67.10224914550781 60.4031867980957 63.75271987915039 63.75271987915039 C 60.4031867980957 67.10224914550781 56.50313186645508 69.73184967041016 52.16086196899414 71.56847381591797 C 47.66601943969727 73.46962738037109 42.89044189453125 74.43359375 37.966796875 74.43359375 Z" stroke="none"/>
                                  <path d="M 37.966796875 3 C 33.2449836730957 3 28.66600799560547 3.924095153808594 24.35705947875977 5.746635437011719 C 20.19359588623047 7.507637023925781 16.45379638671875 10.02928161621094 13.24153518676758 13.24153518676758 C 10.02927398681641 16.45379638671875 7.507621765136719 20.19359588623047 5.746635437011719 24.35705947875977 C 3.924095153808594 28.66600799560547 3 33.2449836730957 3 37.966796875 C 3 42.6886100769043 3.924095153808594 47.26758575439453 5.746635437011719 51.57653427124023 C 7.507621765136719 55.73999786376953 10.02927398681641 59.47979736328125 13.24153518676758 62.69205856323242 C 16.45379638671875 65.90431976318359 20.19359588623047 68.42597198486328 24.35705947875977 70.18695831298828 C 28.66600799560547 72.00949859619141 33.2449836730957 72.93359375 37.966796875 72.93359375 C 42.6886100769043 72.93359375 47.26758575439453 72.00949859619141 51.57653427124023 70.18695831298828 C 55.73999786376953 68.42597198486328 59.47979736328125 65.90431976318359 62.69205856323242 62.69205856323242 C 65.90431976318359 59.47979736328125 68.42597198486328 55.73999786376953 70.18695831298828 51.57653427124023 C 72.00949859619141 47.26758575439453 72.93359375 42.6886100769043 72.93359375 37.966796875 C 72.93359375 33.2449836730957 72.00949859619141 28.66600799560547 70.18695831298828 24.35705947875977 C 68.42597198486328 20.19359588623047 65.90431976318359 16.45379638671875 62.69205856323242 13.24153518676758 C 59.47979736328125 10.02928161621094 55.73999786376953 7.507637023925781 51.57653427124023 5.746635437011719 C 47.26758575439453 3.924095153808594 42.6886100769043 3 37.966796875 3 M 37.966796875 0 C 58.93528366088867 0 75.93359375 16.99832153320312 75.93359375 37.966796875 C 75.93359375 58.93528366088867 58.93528366088867 75.93359375 37.966796875 75.93359375 C 16.99831008911133 75.93359375 0 58.93528366088867 0 37.966796875 C 0 16.99832153320312 16.99831008911133 0 37.966796875 0 Z" stroke="none" fill="#86b60c"/>
                                </g>
                              </g>
                            </g>
                          </g>
                        </g>
                      </g>
                    </g>
                  </g>
                </g>
              </g>
            </g>
          </g>
        </g>
      </g>
      <g id="responsabilidad" transform="translate(792.021 5279.948)">
        <g id="Group_1214599" data-name="Group 1214599" transform="translate(80.106 14.136)">
          <path id="Path_1077511" data-name="Path 1077511" d="M319.315,113.073l1.227,2.486a.746.746,0,0,0,.562.408l2.744.4a.746.746,0,0,1,.413,1.272l-1.985,1.935a.746.746,0,0,0-.215.66l.469,2.733a.746.746,0,0,1-1.082.786l-2.454-1.29a.746.746,0,0,0-.694,0l-2.454,1.29a.746.746,0,0,1-1.082-.786l.469-2.733a.746.746,0,0,0-.215-.66l-1.985-1.935a.746.746,0,0,1,.413-1.272l2.744-.4a.746.746,0,0,0,.562-.408l1.227-2.486A.746.746,0,0,1,319.315,113.073Z" transform="translate(-312.805 -112.657)" fill="#fed402"/>
        </g>
        <g id="Group_1214601" data-name="Group 1214601" transform="translate(80.106 17.437)">
          <g id="Group_1214600" data-name="Group 1214600">
            <path id="Path_1077512" data-name="Path 1077512" d="M318.163,144.634l.469-2.733a.746.746,0,0,0-.215-.66l-1.985-1.935a.737.737,0,0,1-.2-.343l-.044.009-2.744.4a.746.746,0,0,0-.413,1.272l1.985,1.935a.746.746,0,0,1,.215.66l-.469,2.733a.746.746,0,0,0,1.082.786l2.454-1.29a.424.424,0,1,0-.135-.833Z" transform="translate(-312.805 -138.963)" fill="#fac600"/>
          </g>
        </g>
        <g id="Group_1214602" data-name="Group 1214602" transform="translate(73.13 0.941)">
          <path id="Path_1077513" data-name="Path 1077513" d="M262.089,7.812l.92,1.865a.559.559,0,0,0,.421.306l2.058.3a.559.559,0,0,1,.31.954l-1.489,1.451a.559.559,0,0,0-.161.5l.351,2.05a.559.559,0,0,1-.812.59l-1.841-.968a.56.56,0,0,0-.521,0l-1.841.968a.559.559,0,0,1-.812-.59l.352-2.05a.559.559,0,0,0-.161-.5l-1.489-1.451a.559.559,0,0,1,.31-.954l2.058-.3a.559.559,0,0,0,.421-.306l.92-1.865A.56.56,0,0,1,262.089,7.812Z" transform="translate(-257.207 -7.5)" fill="#fed402"/>
        </g>
        <g id="Group_1214603" data-name="Group 1214603" transform="translate(66.257 29.488)">
          <path id="Path_1077514" data-name="Path 1077514" d="M206.061,252.48h6.7a2.8,2.8,0,0,1,2.588,1.734,9.852,9.852,0,1,0-9.29-1.734Z" transform="translate(-202.44 -235)" fill="#97d729"/>
          <path id="Path_1077515" data-name="Path 1077515" d="M206.06,252.48h5.094a9.848,9.848,0,0,1,3.681-17.146,9.85,9.85,0,0,0-8.775,17.146Z" transform="translate(-202.439 -235)" fill="#8bc727"/>
        </g>
        <g id="Group_1214607" data-name="Group 1214607" transform="translate(47.658 43.674)">
          <g id="Group_1214604" data-name="Group 1214604" transform="translate(31.199 1.755)">
            <path id="Path_1077516" data-name="Path 1077516" d="M306.388,371.551a2.8,2.8,0,0,0,1.979-.82l7.813-7.813c-.019-.02-.035-.041-.054-.06a2.8,2.8,0,0,0-3.958,0l-7.942,7.942a2.8,2.8,0,0,1-1.373.751h3.535Z" transform="translate(-302.853 -362.039)" fill="#ffe5c2"/>
          </g>
          <path id="Path_1077517" data-name="Path 1077517" d="M226.7,371.984a1.882,1.882,0,0,0,1.882,1.856h12.406a2.8,2.8,0,0,0,1.979-.82l7.942-7.942a2.8,2.8,0,0,1,3.532-.349,2.8,2.8,0,0,0-4.741-2.417l-7.942,7.942a2.8,2.8,0,0,1-1.979.82H226.692Z" transform="translate(-205.049 -359.806)" fill="#fed2a4"/>
          <path id="Path_1077518" data-name="Path 1077518" d="M180.036,376.279a2.8,2.8,0,0,0-3.958,0l-7.942,7.942a2.8,2.8,0,0,1-1.979.82H153.751a1.882,1.882,0,0,1-1.882-1.856l-.019-1.378a1.882,1.882,0,0,1,1.882-1.909h5.33a2.847,2.847,0,0,0,2.871-2.7,2.8,2.8,0,0,0-2.8-2.895H141.118v13.554l3.7,1.481a18.246,18.246,0,0,0,6.773,1.3H167.32A5.59,5.59,0,0,0,171.272,389l8.763-8.763A2.8,2.8,0,0,0,180.036,376.279Z" transform="translate(-130.213 -371.006)" fill="#ffe5c2"/>
          <path id="Path_1077519" data-name="Path 1077519" d="M171.237,388.065H155.512a18.247,18.247,0,0,1-6.773-1.3l-2.252-.9a2.51,2.51,0,0,1-1.578-2.33V374.3h-3.791v13.554l3.7,1.481a18.247,18.247,0,0,0,6.773,1.3h15.725A5.59,5.59,0,0,0,171.273,389l1.04-1.04A5.6,5.6,0,0,1,171.237,388.065Z" transform="translate(-130.214 -371.006)" fill="#fed2a4"/>
          <g id="Group_1214605" data-name="Group 1214605">
            <path id="Path_1077520" data-name="Path 1077520" d="M55.028,367.633H64.31a.811.811,0,0,0,.811-.811v-17.96a.811.811,0,0,0-.811-.811H55.028a.811.811,0,0,0-.811.811v17.96A.811.811,0,0,0,55.028,367.633Z" transform="translate(-54.217 -348.05)" fill="#b3dafe"/>
          </g>
          <g id="Group_1214606" data-name="Group 1214606" transform="translate(0)">
            <path id="Path_1077521" data-name="Path 1077521" d="M59.473,366.822v-17.96a.811.811,0,0,1,.811-.811H55.028a.811.811,0,0,0-.811.811v17.96a.811.811,0,0,0,.811.811h5.256A.811.811,0,0,1,59.473,366.822Z" transform="translate(-54.217 -348.05)" fill="#8ac9fe"/>
          </g>
        </g>
        <g id="Group_1214614" data-name="Group 1214614" transform="translate(47.937 5.647)">
          <g id="Group_1214608" data-name="Group 1214608" transform="translate(0 0)">
            <path id="Path_1077522" data-name="Path 1077522" d="M81.427,59.142v-3.3a.689.689,0,0,0-.689-.689h-2.4a.692.692,0,0,1-.657-.484,9.145,9.145,0,0,0-.567-1.366.693.693,0,0,1,.122-.808l1.7-1.7a.689.689,0,0,0,0-.975L76.6,47.494a.689.689,0,0,0-.975,0l-1.7,1.7a.693.693,0,0,1-.808.122,9.124,9.124,0,0,0-1.366-.567.692.692,0,0,1-.484-.657v-2.4A.689.689,0,0,0,70.582,45h-3.3a.689.689,0,0,0-.689.689v2.4a.692.692,0,0,1-.484.657,9.125,9.125,0,0,0-1.366.567.693.693,0,0,1-.808-.122l-1.7-1.7a.689.689,0,0,0-.975,0l-2.331,2.331a.689.689,0,0,0,0,.975l1.7,1.7a.692.692,0,0,1,.122.808,9.107,9.107,0,0,0-.567,1.366.692.692,0,0,1-.657.484h-2.4a.689.689,0,0,0-.689.689v3.3a.689.689,0,0,0,.689.689h2.4a.692.692,0,0,1,.657.484,9.124,9.124,0,0,0,.567,1.366.693.693,0,0,1-.122.808l-1.7,1.7a.689.689,0,0,0,0,.975l2.331,2.331a.689.689,0,0,0,.975,0l1.7-1.7a.693.693,0,0,1,.808-.122,9.123,9.123,0,0,0,1.366.567.692.692,0,0,1,.484.657v2.4a.689.689,0,0,0,.689.689h3.3a.689.689,0,0,0,.689-.689V66.9a.692.692,0,0,1,.484-.657,9.123,9.123,0,0,0,1.366-.567.693.693,0,0,1,.808.122l1.7,1.7a.689.689,0,0,0,.975,0l2.331-2.331a.689.689,0,0,0,0-.975l-1.7-1.7a.693.693,0,0,1-.122-.808,9.125,9.125,0,0,0,.567-1.366.692.692,0,0,1,.657-.484h2.4A.689.689,0,0,0,81.427,59.142Z" transform="translate(-56.44 -45)" fill="#baafb9"/>
          </g>
          <g id="Group_1214610" data-name="Group 1214610" transform="translate(0)">
            <g id="Group_1214609" data-name="Group 1214609">
              <path id="Path_1077523" data-name="Path 1077523" d="M63.413,57.493a9.413,9.413,0,0,1,7.869-9.284.685.685,0,0,1-.011-.12v-2.4A.689.689,0,0,0,70.582,45h-3.3a.689.689,0,0,0-.689.689v2.4a.692.692,0,0,1-.484.657,9.125,9.125,0,0,0-1.366.567.692.692,0,0,1-.808-.122l-1.7-1.7a.689.689,0,0,0-.975,0l-2.331,2.331a.689.689,0,0,0,0,.975l1.7,1.7a.692.692,0,0,1,.122.808,9.107,9.107,0,0,0-.567,1.366.692.692,0,0,1-.657.484h-2.4a.689.689,0,0,0-.689.689v3.3a.689.689,0,0,0,.689.689h2.4a.692.692,0,0,1,.657.484,9.124,9.124,0,0,0,.567,1.366.693.693,0,0,1-.122.808l-1.7,1.7a.689.689,0,0,0,0,.975l2.331,2.331a.689.689,0,0,0,.975,0l1.7-1.7a.693.693,0,0,1,.808-.122,9.125,9.125,0,0,0,1.366.567.692.692,0,0,1,.484.657v2.4a.689.689,0,0,0,.689.689h3.3a.689.689,0,0,0,.689-.689V66.9a.684.684,0,0,1,.011-.119,9.413,9.413,0,0,1-7.869-9.284Z" transform="translate(-56.44 -45)" fill="#aa9ea9"/>
            </g>
          </g>
          <g id="Group_1214611" data-name="Group 1214611" transform="translate(7.073 7.073)">
            <circle id="Ellipse_13455" data-name="Ellipse 13455" cx="5.42" cy="5.42" r="5.42" fill="#e5e1e5"/>
          </g>
          <g id="Group_1214612" data-name="Group 1214612" transform="translate(10.663 10.663)">
            <circle id="Ellipse_13456" data-name="Ellipse 13456" cx="1.831" cy="1.831" r="1.831" fill="#baafb9"/>
          </g>
          <g id="Group_1214613" data-name="Group 1214613" transform="translate(10.663 10.663)">
            <path id="Path_1077524" data-name="Path 1077524" d="M143.1,131.8a1.829,1.829,0,0,1,.989-1.624,1.831,1.831,0,1,0,0,3.249A1.829,1.829,0,0,1,143.1,131.8Z" transform="translate(-141.413 -129.973)" fill="#aa9ea9"/>
          </g>
        </g>
        <g id="Group_1214615" data-name="Group 1214615" transform="translate(46.717 0)">
          <path id="Path_1077525" data-name="Path 1077525" d="M305.386,110.024a1.677,1.677,0,0,0,.427,1.73l1.912,1.864-.451,2.632a1.685,1.685,0,0,0,2.448,1.778l2.363-1.242,2.363,1.242a1.687,1.687,0,0,0,2.448-1.778l-.451-2.631,1.912-1.864a1.687,1.687,0,0,0-.935-2.878l-2.642-.384L313.6,106.1a1.687,1.687,0,0,0-3.026,0l-1.182,2.394-2.642.384A1.677,1.677,0,0,0,305.386,110.024Zm4.376.316a1.687,1.687,0,0,0,1.27-.923l1.052-2.132,1.052,2.132a1.687,1.687,0,0,0,1.27.923l2.352.342-1.7,1.659a1.687,1.687,0,0,0-.485,1.493l.4,2.343-2.1-1.106a1.687,1.687,0,0,0-1.57,0l-2.1,1.106.4-2.343a1.686,1.686,0,0,0-.485-1.493l-1.7-1.659Z" transform="translate(-272.854 -91.962)"/>
          <path id="Path_1077526" data-name="Path 1077526" d="M251.5,6.662l-.318,1.852a1.5,1.5,0,0,0,2.177,1.582l1.663-.874,1.663.874a1.5,1.5,0,0,0,2.177-1.582l-.318-1.852,1.345-1.311a1.5,1.5,0,0,0-.832-2.56l-1.859-.27L256.372.836a1.5,1.5,0,0,0-2.691,0l-.831,1.685-1.859.27a1.5,1.5,0,0,0-.832,2.559Zm3.18-4.993h0Zm-1.365,2.686a1.5,1.5,0,0,0,1.13-.821l.578-1.171.578,1.171a1.5,1.5,0,0,0,1.13.821l1.292.188-.935.912a1.5,1.5,0,0,0-.432,1.328l.221,1.287-1.156-.608a1.5,1.5,0,0,0-1.4,0l-1.156.608.221-1.287a1.5,1.5,0,0,0-.432-1.328l-.935-.912Z" transform="translate(-224.232 0)"/>
          <path id="Path_1077527" data-name="Path 1077527" d="M245.43,286.7l-4.739,4.739-3.407-3.407a.941.941,0,0,0-1.331,1.331l4.073,4.073a.941.941,0,0,0,1.331,0l5.4-5.4a.941.941,0,0,0-1.331-1.331Z" transform="translate(-211.966 -250.487)"/>
          <path id="Path_1077528" data-name="Path 1077528" d="M98.146,247.234c-.038-.038-.077-.074-.116-.11a3.738,3.738,0,0,0-5.859-3.091,3.741,3.741,0,0,0-4.664.5l-7.942,7.942a1.847,1.847,0,0,1-.817.476h-8.4a.945.945,0,0,1,.158-.214.934.934,0,0,1,.67-.28h5.33a3.741,3.741,0,0,0,3.782-4.224,10.8,10.8,0,0,0,6.237-7.126.941.941,0,0,0-1.817-.49,8.914,8.914,0,0,1-5.125,5.873,3.8,3.8,0,0,0-.315-.372,3.71,3.71,0,0,0-2.689-1.14H70.23a8.907,8.907,0,1,1,14.632-8.335.941.941,0,0,0,1.85-.346,10.79,10.79,0,1,0-19.065,8.68H59.5v-1.542a1.754,1.754,0,0,0-1.752-1.752H48.469a1.754,1.754,0,0,0-1.752,1.752V261.4a1.754,1.754,0,0,0,1.752,1.752h9.282A1.754,1.754,0,0,0,59.5,261.4v-.534l2.414.965A19.106,19.106,0,0,0,69.04,263.2H84.764a6.488,6.488,0,0,0,4.618-1.913l3.061-3.061a.941.941,0,0,0-1.331-1.331l-3.061,3.06a4.619,4.619,0,0,1-3.288,1.362H69.04a17.23,17.23,0,0,1-6.423-1.236L59.5,258.837V246.862H76.58a1.858,1.858,0,0,1,1.857,1.922,1.911,1.911,0,0,1-1.93,1.793h-5.33a2.823,2.823,0,0,0-2.823,2.863l.019,1.378A2.835,2.835,0,0,0,71.2,257.6H83.6a3.715,3.715,0,0,0,2.644-1.1l7.942-7.942a1.858,1.858,0,1,1,2.627,2.627l-2.6,2.6a.941.941,0,0,0,1.331,1.331l2.6-2.6a3.744,3.744,0,0,0,0-5.289ZM57.622,261.268H48.6v-17.7h9.022Zm36.671-16.014a1.858,1.858,0,0,1,1.6.906,3.734,3.734,0,0,0-3.031,1.073l-7.942,7.942a1.845,1.845,0,0,1-1.313.544H71.2a.944.944,0,0,1-.938-.884H82.393a3.716,3.716,0,0,0,2.645-1.1l7.942-7.942A1.845,1.845,0,0,1,94.292,245.255Zm-5.454.613a1.859,1.859,0,0,1,1.87-.459l-7,7a1.846,1.846,0,0,1-1.314.544h-.641Z" transform="translate(-46.717 -198.953)"/>
          <path id="Path_1077529" data-name="Path 1077529" d="M50.569,54.213h2.218a10.117,10.117,0,0,0,.49,1.18l-1.57,1.57a1.63,1.63,0,0,0,0,2.306L54.039,61.6a1.632,1.632,0,0,0,2.306,0l1.57-1.57a10.117,10.117,0,0,0,1.18.49v2.218a1.632,1.632,0,0,0,1.63,1.63h3.3a1.632,1.632,0,0,0,1.63-1.63V60.521a10.1,10.1,0,0,0,1.18-.49L68.4,61.6a1.632,1.632,0,0,0,2.306,0l2.331-2.331a1.63,1.63,0,0,0,0-2.306l-1.57-1.57a10.118,10.118,0,0,0,.49-1.18h2.218a1.632,1.632,0,0,0,1.63-1.63v-3.3a1.632,1.632,0,0,0-1.63-1.63H71.96a10.113,10.113,0,0,0-.49-1.18l1.57-1.57a1.632,1.632,0,0,0,0-2.306L70.708,40.27a1.632,1.632,0,0,0-2.306,0l-1.57,1.57a10.12,10.12,0,0,0-1.18-.49V39.13a1.632,1.632,0,0,0-1.63-1.63h-3.3a1.632,1.632,0,0,0-1.63,1.63v2.218a10.122,10.122,0,0,0-1.18.49l-1.57-1.57a1.632,1.632,0,0,0-2.306,0L51.708,42.6a1.632,1.632,0,0,0,0,2.306l1.57,1.57a10.108,10.108,0,0,0-.49,1.18H50.569a1.632,1.632,0,0,0-1.63,1.63v3.3A1.632,1.632,0,0,0,50.569,54.213Zm.252-4.675H52.97A1.63,1.63,0,0,0,54.523,48.4a8.2,8.2,0,0,1,.509-1.225,1.63,1.63,0,0,0-.294-1.9l-1.521-1.521,1.975-1.975L56.713,43.3a1.63,1.63,0,0,0,1.9.294,8.205,8.205,0,0,1,1.225-.509,1.63,1.63,0,0,0,1.136-1.553V39.382H63.77v2.149a1.63,1.63,0,0,0,1.136,1.553,8.222,8.222,0,0,1,1.225.509,1.63,1.63,0,0,0,1.9-.294l1.521-1.521,1.975,1.975-1.521,1.521a1.63,1.63,0,0,0-.294,1.9,8.218,8.218,0,0,1,.509,1.225,1.63,1.63,0,0,0,1.553,1.136h2.149v2.793H71.777a1.63,1.63,0,0,0-1.553,1.136,8.22,8.22,0,0,1-.509,1.225,1.63,1.63,0,0,0,.294,1.9l1.521,1.521L69.555,60.09,68.034,58.57a1.63,1.63,0,0,0-1.9-.294,8.208,8.208,0,0,1-1.225.509,1.63,1.63,0,0,0-1.136,1.553v2.149H60.977V60.338a1.63,1.63,0,0,0-1.136-1.553,8.206,8.206,0,0,1-1.225-.509,1.63,1.63,0,0,0-1.9.294L55.192,60.09l-1.975-1.975L54.738,56.6a1.63,1.63,0,0,0,.294-1.9,8.207,8.207,0,0,1-.509-1.225,1.63,1.63,0,0,0-1.553-1.136H50.821Z" transform="translate(-48.66 -32.794)"/>
          <path id="Path_1077530" data-name="Path 1077530" d="M111.666,106.587a6.367,6.367,0,0,0,5.82-3.793.941.941,0,1,0-1.722-.761,4.48,4.48,0,1,1-.006-3.628.941.941,0,0,0,1.719-.766,6.362,6.362,0,1,0-5.812,8.949Z" transform="translate(-97.952 -82.086)"/>
          <path id="Path_1077531" data-name="Path 1077531" d="M133.913,125.246a2.772,2.772,0,1,0,2.772-2.772A2.775,2.775,0,0,0,133.913,125.246Zm3.661,0a.889.889,0,1,1-.889-.889A.89.89,0,0,1,137.574,125.246Z" transform="translate(-122.971 -107.106)"/>
        </g>
      </g>
    </g>
  </g>
</svg>
