<svg xmlns="http://www.w3.org/2000/svg" xmlns:xlink="http://www.w3.org/1999/xlink" width="93.934" height="93.934" viewBox="0 0 93.934 93.934">
  <defs>
    <filter id="Path_982547" x="0" y="0" width="93.934" height="93.934" filterUnits="userSpaceOnUse">
      <feOffset dy="3" input="SourceAlpha"/>
      <feGaussianBlur stdDeviation="3" result="blur"/>
      <feFlood flood-opacity="0.161"/>
      <feComposite operator="in" in2="blur"/>
      <feComposite in="SourceGraphic"/>
    </filter>
  </defs>
  <g id="Group_1215528" data-name="Group 1215528" transform="translate(-191.066 -1250)">
    <g id="Group_1214497" data-name="Group 1214497">
      <g id="Group_1214139" data-name="Group 1214139" transform="translate(200.066 1256)">
        <g id="Group_1183158" data-name="Group 1183158" transform="translate(0 0)">
          <g id="Group_1179614" data-name="Group 1179614">
            <g id="Group_1175227" data-name="Group 1175227">
              <g id="Group_1167337" data-name="Group 1167337">
                <g id="Group_1166720" data-name="Group 1166720">
                  <g id="Group_1164305" data-name="Group 1164305">
                    <g id="Group_1163948" data-name="Group 1163948">
                      <g id="Group_1158168" data-name="Group 1158168">
                        <g id="Group_1152576" data-name="Group 1152576">
                          <g id="Group_1148633" data-name="Group 1148633">
                            <g id="Group_1148525" data-name="Group 1148525">
                              <g transform="matrix(1, 0, 0, 1, -9, -6)" filter="url(#Path_982547)">
                                <g id="Path_982547-2" data-name="Path 982547" transform="translate(9 6)" fill="#f5f5f5">
                                  <path d="M 37.966796875 74.43359375 C 33.04315185546875 74.43359375 28.26757431030273 73.46962738037109 23.77274131774902 71.56847381591797 C 19.43047523498535 69.73184967041016 15.53040790557861 67.10224914550781 12.18087482452393 63.75271987915039 C 8.831341743469238 60.4031867980957 6.201741218566895 56.50312042236328 4.365118980407715 52.16086196899414 C 2.463963508605957 47.66601943969727 1.499996900558472 42.89044189453125 1.499996900558472 37.966796875 C 1.499996900558472 33.04315185546875 2.463963508605957 28.26757431030273 4.365118980407715 23.77274131774902 C 6.201741218566895 19.43047523498535 8.831341743469238 15.53040790557861 12.18087482452393 12.18087482452393 C 15.53040790557861 8.831341743469238 19.43047523498535 6.201741218566895 23.77274131774902 4.365118980407715 C 28.26757431030273 2.463963508605957 33.04315185546875 1.499996900558472 37.966796875 1.499996900558472 C 42.89044189453125 1.499996900558472 47.66601943969727 2.463963508605957 52.16086196899414 4.365118980407715 C 56.50312042236328 6.201741218566895 60.4031867980957 8.831341743469238 63.75271987915039 12.18087482452393 C 67.10224914550781 15.53040790557861 69.73184967041016 19.43047523498535 71.56847381591797 23.77274131774902 C 73.46962738037109 28.26757431030273 74.43359375 33.04315185546875 74.43359375 37.966796875 C 74.43359375 42.89044189453125 73.46962738037109 47.66601943969727 71.56847381591797 52.16086196899414 C 69.73184967041016 56.50313186645508 67.10224914550781 60.4031867980957 63.75271987915039 63.75271987915039 C 60.4031867980957 67.10224914550781 56.50313186645508 69.73184967041016 52.16086196899414 71.56847381591797 C 47.66601943969727 73.46962738037109 42.89044189453125 74.43359375 37.966796875 74.43359375 Z" stroke="none"/>
                                  <path d="M 37.966796875 3 C 33.2449836730957 3 28.66600799560547 3.924095153808594 24.35705947875977 5.746635437011719 C 20.19359588623047 7.507637023925781 16.45379638671875 10.02928161621094 13.24153518676758 13.24153518676758 C 10.02927398681641 16.45379638671875 7.507621765136719 20.19359588623047 5.746635437011719 24.35705947875977 C 3.924095153808594 28.66600799560547 3 33.2449836730957 3 37.966796875 C 3 42.6886100769043 3.924095153808594 47.26758575439453 5.746635437011719 51.57653427124023 C 7.507621765136719 55.73999786376953 10.02927398681641 59.47979736328125 13.24153518676758 62.69205856323242 C 16.45379638671875 65.90431976318359 20.19359588623047 68.42597198486328 24.35705947875977 70.18695831298828 C 28.66600799560547 72.00949859619141 33.2449836730957 72.93359375 37.966796875 72.93359375 C 42.6886100769043 72.93359375 47.26758575439453 72.00949859619141 51.57653427124023 70.18695831298828 C 55.73999786376953 68.42597198486328 59.47979736328125 65.90431976318359 62.69205856323242 62.69205856323242 C 65.90431976318359 59.47979736328125 68.42597198486328 55.73999786376953 70.18695831298828 51.57653427124023 C 72.00949859619141 47.26758575439453 72.93359375 42.6886100769043 72.93359375 37.966796875 C 72.93359375 33.2449836730957 72.00949859619141 28.66600799560547 70.18695831298828 24.35705947875977 C 68.42597198486328 20.19359588623047 65.90431976318359 16.45379638671875 62.69205856323242 13.24153518676758 C 59.47979736328125 10.02928161621094 55.73999786376953 7.507637023925781 51.57653427124023 5.746635437011719 C 47.26758575439453 3.924095153808594 42.6886100769043 3 37.966796875 3 M 37.966796875 0 C 58.93528366088867 0 75.93359375 16.99832153320312 75.93359375 37.966796875 C 75.93359375 58.93528366088867 58.93528366088867 75.93359375 37.966796875 75.93359375 C 16.99831008911133 75.93359375 0 58.93528366088867 0 37.966796875 C 0 16.99832153320312 16.99831008911133 0 37.966796875 0 Z" stroke="none" fill="#86b60c"/>
                                </g>
                              </g>
                            </g>
                          </g>
                        </g>
                      </g>
                    </g>
                  </g>
                </g>
              </g>
            </g>
          </g>
        </g>
      </g>
      <g id="multinacional" transform="translate(160.934 1266.379)">
        <path id="Path_1077032" data-name="Path 1077032" d="M368.954,146.246l7.754,3.616v32.13h-7.754Z" transform="translate(-277.393 -127.521)" fill="#9facba"/>
        <path id="Path_1077033" data-name="Path 1077033" d="M368.954,146.246v35.746h3.616v-34.06Z" transform="translate(-277.393 -127.521)" fill="#8d9ca8"/>
        <path id="Path_1077034" data-name="Path 1077034" d="M90.235,146.246l-7.754,3.616v32.13h7.754Z" transform="translate(-27.599 -127.521)" fill="#9facba"/>
        <path id="Path_1077035" data-name="Path 1077035" d="M118.422,146.246v35.746h-3.615v-34.06Z" transform="translate(-55.786 -127.521)" fill="#8d9ca8"/>
        <path id="Path_1077036" data-name="Path 1077036" d="M143.045,46.537l14.462-6.781V89.137H143.045Z" transform="translate(-80.409 -34.666)" fill="#d9e7ec"/>
        <path id="Path_1077037" data-name="Path 1077037" d="M270.462,46.537,256,39.756V89.137h14.462Z" transform="translate(-178.902 -34.666)" fill="#c5d3dd"/>
        <path id="Path_1077038" data-name="Path 1077038" d="M326.6,72.858V118h5.423V75.4Z" transform="translate(-240.459 -63.53)" fill="#b6c4cf"/>
        <g id="Group_1214494" data-name="Group 1214494" transform="translate(80.979 11.195)">
          <path id="Path_1077039" data-name="Path 1077039" d="M286.3,91.317l6.7,3.143v-3.88l-6.7-3.142Z" transform="translate(-286.305 -87.437)" fill="#01d0fb"/>
          <path id="Path_1077040" data-name="Path 1077040" d="M286.3,155.258l6.7,3.143v-3.88l-6.7-3.143Z" transform="translate(-286.305 -143.191)" fill="#01d0fb"/>
          <path id="Path_1077041" data-name="Path 1077041" d="M286.3,219.2l6.7,3.143v-3.88l-6.7-3.143Z" transform="translate(-286.305 -198.946)" fill="#01d0fb"/>
        </g>
        <path id="Path_1077042" data-name="Path 1077042" d="M180.052,91.317l-6.7,3.143v-3.88l6.7-3.142Z" transform="translate(-106.834 -76.242)" fill="#62dbfb"/>
        <path id="Path_1077043" data-name="Path 1077043" d="M180.052,155.258l-6.7,3.143v-3.88l6.7-3.143Z" transform="translate(-106.834 -131.996)" fill="#62dbfb"/>
        <path id="Path_1077044" data-name="Path 1077044" d="M180.052,219.2l-6.7,3.143v-3.88l6.7-3.143Z" transform="translate(-106.834 -187.751)" fill="#62dbfb"/>
        <g id="Group_1214495" data-name="Group 1214495" transform="translate(51.789 39.285)">
          <path id="Path_1077045" data-name="Path 1077045" d="M83.639,306.83A25.309,25.309,0,0,0,58.33,332.139h50.618A25.309,25.309,0,0,0,83.639,306.83Z" transform="translate(-58.33 -306.83)" fill="#62dbfb"/>
          <path id="Path_1077046" data-name="Path 1077046" d="M200.473,306.83a25.278,25.278,0,0,0-8.153,1.342l2.521,5.079a3.12,3.12,0,0,0,4.685,1.094,3.119,3.119,0,0,1,4.393.619l.265.356a3.12,3.12,0,0,0,2.941,1.226l1.652-.234a3.12,3.12,0,0,0,2.478-1.983l1.615-4.259A25.193,25.193,0,0,0,200.473,306.83Z" transform="translate(-175.164 -306.83)" fill="#a2e62e"/>
          <path id="Path_1077047" data-name="Path 1077047" d="M366.142,359.69h8.673a25.288,25.288,0,0,0-11.579-21.263,25.367,25.367,0,0,1,2.906,21.263Z" transform="translate(-324.197 -334.381)" fill="#01d0fb"/>
          <path id="Path_1077048" data-name="Path 1077048" d="M71.395,369.559l2.582-3.168a2.02,2.02,0,0,0,.454-1.276v-2.509a2.019,2.019,0,0,0-.857-1.651l-2.848-2a2.019,2.019,0,0,1-.771-1.068l-2.2-7.285A25.259,25.259,0,0,0,58.329,370.3h11.5A2.019,2.019,0,0,0,71.395,369.559Z" transform="translate(-58.329 -344.993)" fill="#a2e62e"/>
          <path id="Path_1077049" data-name="Path 1077049" d="M323.61,395.661l3.521,2.589a2.773,2.773,0,0,0,1.643.539H330.5a2.772,2.772,0,0,1,2.348,1.3h6.426A25.2,25.2,0,0,0,334.1,384.76l.05,1.974a2.773,2.773,0,0,1-1.532,2.55l-2.013,1.006a2.773,2.773,0,0,1-1.773.241l-3.052-.6a2.773,2.773,0,0,0-3.305,2.721v.771A2.774,2.774,0,0,0,323.61,395.661Z" transform="translate(-288.659 -374.782)" fill="#a2e62e"/>
          <path id="Path_1077050" data-name="Path 1077050" d="M390.609,400.091h6.423a25.2,25.2,0,0,0-5.172-15.331l.05,1.974a2.773,2.773,0,0,1-1.532,2.55l-1.029.514a25.453,25.453,0,0,1-.633,9.029A2.776,2.776,0,0,1,390.609,400.091Z" transform="translate(-346.414 -374.782)" fill="#97d729"/>
        </g>
        <g id="Group_1214496" data-name="Group 1214496" transform="translate(50.829 0)">
          <path id="Path_1077051" data-name="Path 1077051" d="M279.358,85.645l6.7,3.143a.96.96,0,0,0,1.368-.87v-3.88a.96.96,0,0,0-.553-.869l-6.7-3.143a.96.96,0,0,0-1.368.869v3.88A.96.96,0,0,0,279.358,85.645Zm1.368-3.239,4.782,2.242v1.759l-4.782-2.242Z" transform="translate(-249.616 -69.701)"/>
          <path id="Path_1077052" data-name="Path 1077052" d="M279.358,149.587l6.7,3.143a.96.96,0,0,0,1.368-.87v-3.88a.96.96,0,0,0-.553-.869l-6.7-3.143a.96.96,0,0,0-1.368.87v3.88A.96.96,0,0,0,279.358,149.587Zm1.368-3.239,4.782,2.242v1.759l-4.782-2.242Z" transform="translate(-249.616 -125.456)"/>
          <path id="Path_1077053" data-name="Path 1077053" d="M279.358,213.53l6.7,3.143a.96.96,0,0,0,1.368-.869v-3.88a.961.961,0,0,0-.553-.869l-6.7-3.142a.96.96,0,0,0-1.368.869v3.88A.96.96,0,0,0,279.358,213.53Zm1.368-3.239,4.782,2.242v1.759l-4.782-2.242Z" transform="translate(-249.616 -181.212)"/>
          <path id="Path_1077054" data-name="Path 1077054" d="M174.027,80.086a.96.96,0,0,0-.923-.059l-6.7,3.143a.96.96,0,0,0-.553.869v3.88a.96.96,0,0,0,1.368.869l6.7-3.143a.96.96,0,0,0,.553-.869V80.9A.96.96,0,0,0,174.027,80.086Zm-1.475,4.08-4.782,2.242V84.649l4.782-2.242Z" transform="translate(-151.123 -69.701)"/>
          <path id="Path_1077055" data-name="Path 1077055" d="M174.027,144.028a.96.96,0,0,0-.923-.059l-6.7,3.143a.96.96,0,0,0-.553.87v3.88a.96.96,0,0,0,1.368.87l6.7-3.143a.96.96,0,0,0,.553-.869v-3.88A.96.96,0,0,0,174.027,144.028Zm-1.475,4.08-4.782,2.242v-1.759l4.782-2.242Z" transform="translate(-151.123 -125.456)"/>
          <path id="Path_1077056" data-name="Path 1077056" d="M174.027,207.97a.96.96,0,0,0-.923-.059l-6.7,3.142a.96.96,0,0,0-.553.869v3.88a.96.96,0,0,0,1.368.869l6.7-3.143a.96.96,0,0,0,.553-.87v-3.88A.96.96,0,0,0,174.027,207.97Zm-1.475,4.08-4.782,2.242v-1.759l4.782-2.242Z" transform="translate(-151.123 -181.211)"/>
          <path id="Path_1077057" data-name="Path 1077057" d="M100.274,52.238V39.819a.96.96,0,1,0-1.921,0v9.358a26.491,26.491,0,0,0-5.833-5.834V20.232l5.833,2.72V35.338a.96.96,0,0,0,1.921,0V18.46a.96.96,0,1,0-1.921,0v2.373l-5.833-2.72V11.871A.961.961,0,0,0,91.968,11L84.5,7.5V3.978a.96.96,0,1,0-1.921,0V6.6L78.059,4.48V.96a.96.96,0,1,0-1.921,0V4.48L71.621,6.6V3.978a.96.96,0,1,0-1.921,0V7.5L62.228,11a.96.96,0,0,0-.553.869v6.241l-5.833,2.72V18.46a.96.96,0,1,0-1.921,0V28.768a.96.96,0,1,0,1.921,0V22.952l5.833-2.72V43.343a26.49,26.49,0,0,0-5.833,5.834V33.249a.96.96,0,0,0-1.921,0V52.238a26.106,26.106,0,0,0-3.093,12.356.96.96,0,0,0,.96.96h50.618a.96.96,0,0,0,.96-.96A26.105,26.105,0,0,0,100.274,52.238ZM90.6,42.069a26.1,26.1,0,0,0-12.542-3.724V6.6L90.6,12.482ZM77.1,40.246a24.2,24.2,0,0,1,11.2,2.733l-1.314,3.467a2.16,2.16,0,0,1-1.715,1.372l-1.652.235A2.158,2.158,0,0,1,81.58,47.2l-.265-.356a4.08,4.08,0,0,0-5.745-.809,2.159,2.159,0,0,1-3.243-.757l-2.02-4.069a24.273,24.273,0,0,1,6.792-.966ZM63.6,12.482,76.138,6.6V38.344A26.1,26.1,0,0,0,63.6,42.069Zm-2.87,34.107.436,1.444A.96.96,0,0,0,63,47.478l-.672-2.228a24.337,24.337,0,0,1,6.139-3.423l2.138,4.308a4.08,4.08,0,0,0,6.127,1.431,2.159,2.159,0,0,1,3.041.428l.265.356a4.078,4.078,0,0,0,3.847,1.6l1.652-.235a4.08,4.08,0,0,0,3.241-2.593l1.206-3.183a24.543,24.543,0,0,1,6.3,5.674l.041,1.646a1.818,1.818,0,0,1-1,1.666l-2.01,1.006a1.811,1.811,0,0,1-1.162.158L89.1,53.5a3.732,3.732,0,0,0-4.45,3.663v.772a3.747,3.747,0,0,0,1.521,3.008l3.522,2.59c.051.037.1.07.156.1H66.271l1.913-2.346a3,3,0,0,0,.668-1.882V56.9a2.983,2.983,0,0,0-1.264-2.437l-2.85-2.006a1.062,1.062,0,0,1-.4-.555l-.038-.129a.96.96,0,1,0-1.841.547l.04.136a3,3,0,0,0,1.138,1.573l2.849,2.005a1.061,1.061,0,0,1,.449.866v2.508a1.068,1.068,0,0,1-.237.67l-2.582,3.167a1.052,1.052,0,0,1-.821.391H52.768a24.293,24.293,0,0,1,7.958-17.046ZM96.465,63.634a3.708,3.708,0,0,0-2.831-1.3H91.9a1.811,1.811,0,0,1-1.074-.352l-3.52-2.589a1.82,1.82,0,0,1-.739-1.461v-.772a1.812,1.812,0,0,1,2.16-1.778l3.052.6a3.768,3.768,0,0,0,2.387-.324l2.012-1.007A3.746,3.746,0,0,0,98.108,52.3a24.182,24.182,0,0,1,3.32,11.334H96.465Z" transform="translate(-50.829 0)"/>
        </g>
      </g>
    </g>
  </g>
</svg>
