<svg xmlns="http://www.w3.org/2000/svg" xmlns:xlink="http://www.w3.org/1999/xlink" width="113" height="113" viewBox="0 0 113 113">
  <defs>
    <filter id="Path_982547" x="0" y="0" width="113" height="113" filterUnits="userSpaceOnUse">
      <feOffset dy="3" input="SourceAlpha"/>
      <feGaussianBlur stdDeviation="3" result="blur"/>
      <feFlood flood-opacity="0.161"/>
      <feComposite operator="in" in2="blur"/>
      <feComposite in="SourceGraphic"/>
    </filter>
  </defs>
  <g id="Group_1215562" data-name="Group 1215562" transform="translate(-158 -7012)">
    <g id="Group_1214538" data-name="Group 1214538" transform="translate(0 60)">
      <g id="Group_1214407" data-name="Group 1214407" transform="translate(3.457 -163.674)">
        <g id="Group_1207777" data-name="Group 1207777" transform="translate(163.542 7121.674)">
          <g id="Group_1200358" data-name="Group 1200358">
            <g id="Group_1185978" data-name="Group 1185978">
              <g id="Group_1180760" data-name="Group 1180760">
                <g id="Group_1174888" data-name="Group 1174888">
                  <g id="Group_1166845" data-name="Group 1166845">
                    <g id="Group_1166720" data-name="Group 1166720">
                      <g id="Group_1164305" data-name="Group 1164305">
                        <g id="Group_1163948" data-name="Group 1163948">
                          <g id="Group_1158168" data-name="Group 1158168">
                            <g id="Group_1152576" data-name="Group 1152576">
                              <g id="Group_1148633" data-name="Group 1148633">
                                <g id="Group_1148525" data-name="Group 1148525">
                                  <g transform="matrix(1, 0, 0, 1, -9, -6)" filter="url(#Path_982547)">
                                    <g id="Path_982547-2" data-name="Path 982547" transform="translate(9 6)" fill="#e9f9fd">
                                      <path d="M 47.5 93.5 C 41.28937149047852 93.5 35.26533508300781 92.28397369384766 29.59518623352051 89.88570404052734 C 24.11771965026855 87.56893157958984 19.19813346862793 84.25196075439453 14.97309303283691 80.02691650390625 C 10.74804019927979 75.80186462402344 7.431066513061523 70.88229370117188 5.114293098449707 65.40481567382812 C 2.716026782989502 59.73468017578125 1.5 53.71062850952148 1.5 47.5 C 1.5 41.28937149047852 2.716026782989502 35.26533508300781 5.114293098449707 29.59518623352051 C 7.431066513061523 24.11771965026855 10.74804019927979 19.19813346862793 14.97309303283691 14.97309303283691 C 19.19813346862793 10.74804019927979 24.11771965026855 7.431066513061523 29.59518623352051 5.114293098449707 C 35.26533508300781 2.716026782989502 41.28937149047852 1.5 47.5 1.5 C 53.71062850952148 1.5 59.73468017578125 2.716026782989502 65.40481567382812 5.114293098449707 C 70.88229370117188 7.431066513061523 75.80186462402344 10.74804019927979 80.02691650390625 14.97309303283691 C 84.25196075439453 19.19813346862793 87.56893157958984 24.11771965026855 89.88570404052734 29.59518623352051 C 92.28397369384766 35.26533508300781 93.5 41.28937149047852 93.5 47.5 C 93.5 53.71062850952148 92.28397369384766 59.73468017578125 89.88570404052734 65.40481567382812 C 87.56893157958984 70.88229370117188 84.25196075439453 75.80186462402344 80.02691650390625 80.02691650390625 C 75.80186462402344 84.25196075439453 70.88229370117188 87.56893157958984 65.40481567382812 89.88570404052734 C 59.73468017578125 92.28397369384766 53.71062850952148 93.5 47.5 93.5 Z" stroke="none"/>
                                      <path d="M 47.5 3 C 41.49121475219727 3 35.66376876831055 4.176155090332031 30.17950439453125 6.495796203613281 C 24.88084411621094 8.736953735351562 20.12152099609375 11.94598388671875 16.03375244140625 16.03375244140625 C 11.94598388671875 20.12152099609375 8.736953735351562 24.88084411621094 6.495796203613281 30.17950439453125 C 4.176155090332031 35.66376876831055 3 41.49121475219727 3 47.5 C 3 53.50878524780273 4.176155090332031 59.33623123168945 6.495796203613281 64.82049560546875 C 8.736953735351562 70.11915588378906 11.94598388671875 74.87847900390625 16.03375244140625 78.96624755859375 C 20.12152099609375 83.05401611328125 24.88084411621094 86.26304626464844 30.17950439453125 88.50419616699219 C 35.66376876831055 90.82384490966797 41.49121475219727 92 47.5 92 C 53.50878524780273 92 59.33623123168945 90.82384490966797 64.82049560546875 88.50419616699219 C 70.11915588378906 86.26304626464844 74.87847900390625 83.05401611328125 78.96624755859375 78.96624755859375 C 83.05401611328125 74.87847900390625 86.26304626464844 70.11915588378906 88.50419616699219 64.82049560546875 C 90.82384490966797 59.33623123168945 92 53.50878524780273 92 47.5 C 92 41.49121475219727 90.82384490966797 35.66376876831055 88.50419616699219 30.17950439453125 C 86.26304626464844 24.88084411621094 83.05401611328125 20.12152099609375 78.96624755859375 16.03375244140625 C 74.87847900390625 11.94598388671875 70.11915588378906 8.736953735351562 64.82049560546875 6.495796203613281 C 59.33623123168945 4.176155090332031 53.50878524780273 3 47.5 3 M 47.5 0 C 73.7335205078125 0 95 21.2664794921875 95 47.5 C 95 73.7335205078125 73.7335205078125 95 47.5 95 C 21.2664794921875 95 0 73.7335205078125 0 47.5 C 0 21.2664794921875 21.2664794921875 0 47.5 0 Z" stroke="none" fill="#36ceef"/>
                                    </g>
                                  </g>
                                </g>
                              </g>
                            </g>
                          </g>
                        </g>
                      </g>
                    </g>
                  </g>
                </g>
              </g>
            </g>
          </g>
        </g>
      </g>
      <g id="proceso-de-trabajo" transform="translate(176.815 6967.315)">
        <g id="Group_1214536" data-name="Group 1214536" transform="translate(1.177 1.178)">
          <path id="Path_1077301" data-name="Path 1077301" d="M63.468,11.018h0a33.493,33.493,0,0,0-33.32,30.11l8.841-.414A24.816,24.816,0,0,1,63.468,19.739l-.039.014v3.385l8.548-6.906L63.429,8v3.032" transform="translate(-26.888 -8)" fill="#ffe27a"/>
          <path id="Path_1077302" data-name="Path 1077302" d="M112.9,75.8l6.438-5.2A24.782,24.782,0,0,0,88.161,93.387l.3-.014A24.815,24.815,0,0,1,112.941,72.4l-.039.014Z" transform="translate(-76.361 -60.658)" fill="#f9cf58"/>
          <path id="Path_1077303" data-name="Path 1077303" d="M175.972,158.007l-2.8-.421a13.067,13.067,0,0,0-2.06-4.97l1.683-2.279a1,1,0,0,0-.1-1.3l-1.45-1.45a1,1,0,0,0-1.3-.1l-2.279,1.683a13.067,13.067,0,0,0-4.97-2.06l-.421-2.8a1,1,0,0,0-.991-.853h-2.05a1,1,0,0,0-.991.853l-.421,2.8a13.066,13.066,0,0,0-4.97,2.06l-2.279-1.683a1,1,0,0,0-1.3.1l-1.45,1.45a1,1,0,0,0-.1,1.3l1.683,2.279a13.067,13.067,0,0,0-2.06,4.97l-2.8.421a1,1,0,0,0-.853.991v2.05a1,1,0,0,0,.853.991l2.8.421a13.068,13.068,0,0,0,2.06,4.97l-1.683,2.279a1,1,0,0,0,.1,1.3l1.45,1.45a1,1,0,0,0,1.3.1l2.279-1.683a13.067,13.067,0,0,0,4.97,2.06l.421,2.8a1,1,0,0,0,.991.853h2.05a1,1,0,0,0,.991-.853l.421-2.8a13.066,13.066,0,0,0,4.97-2.06l2.279,1.683a1,1,0,0,0,1.3-.1l1.45-1.45a1,1,0,0,0,.1-1.3l-1.683-2.279a13.067,13.067,0,0,0,2.06-4.97l2.8-.421a1,1,0,0,0,.853-.991V159a1,1,0,0,0-.853-.991Zm-15.714,8.647a6.631,6.631,0,1,1,6.631-6.631A6.631,6.631,0,0,1,160.258,166.654Z" transform="translate(-123.718 -123.516)" fill="#ff4755"/>
          <path id="Path_1077304" data-name="Path 1077304" d="M11.052,206.248c0,.011,0,.023,0,.034A33.493,33.493,0,0,0,41.164,239.6l-.519-8.859a24.773,24.773,0,0,1-20.871-24.462c0-.011,0-.023,0-.034h3.364L16.232,197.7,8,206.248h3.032" transform="translate(-8 -169.775)" fill="#8bcaff"/>
          <path id="Path_1077305" data-name="Path 1077305" d="M206.248,299.887h.068a24.773,24.773,0,0,0,24.46-20.864l8.867-.6a33.492,33.492,0,0,1-33.327,30.188h-.068v3.019L197.7,303.4l8.548-6.906v3.385Z" transform="translate(-169.775 -238.614)" fill="#98db7c"/>
          <path id="Path_1077306" data-name="Path 1077306" d="M224.447,266.325a6.657,6.657,0,0,0-.133-1.325,6.632,6.632,0,0,1-13,0,6.632,6.632,0,1,0,13.13,1.325Z" transform="translate(-181.275 -227.168)" fill="#fc2b3a"/>
          <path id="Path_1077307" data-name="Path 1077307" d="M217.778,305.961a33.64,33.64,0,0,1-6.638-.659l6.569,6.327v-3.019h.068A33.492,33.492,0,0,0,251.1,278.422l-.456.474A33.5,33.5,0,0,1,217.778,305.961Z" transform="translate(-181.237 -238.615)" fill="#82d361"/>
          <path id="Path_1077308" data-name="Path 1077308" d="M55.584,285.982a33.506,33.506,0,0,1-26.748-30.214h-.1c0,.011,0,.023,0,.034a33.493,33.493,0,0,0,30.112,33.32Z" transform="translate(-25.681 -219.295)" fill="#6cc4ff"/>
          <path id="Path_1077309" data-name="Path 1077309" d="M308.85,62.963c0-.011,0-.023,0-.034A33.492,33.492,0,0,0,278.664,29.6l5.246,5.052-4.708,3.8a24.773,24.773,0,0,1,20.928,24.471c0,.011,0,.023,0,.034H296.7l6.906,8.548,8.232-8.548Z" transform="translate(-238.821 -26.422)" fill="#ffba57"/>
          <g id="Group_1214535" data-name="Group 1214535" transform="translate(40.381 9.936)">
            <path id="Path_1077310" data-name="Path 1077310" d="M284.914,75.5l-2.6,2.1a24.775,24.775,0,0,1,20.892,23.152q.035-.661.036-1.331A24.777,24.777,0,0,0,284.914,75.5Z" transform="translate(-282.316 -75.501)" fill="#ffac3e"/>
          </g>
        </g>
        <g id="Group_1214537" data-name="Group 1214537" transform="translate(0 0)">
          <path id="Path_1077311" data-name="Path 1077311" d="M211.322,203.347a7.755,7.755,0,0,0-7.281,10.413,1.106,1.106,0,1,0,2.078-.76,5.538,5.538,0,1,1,2.35,2.845,1.106,1.106,0,0,0-1.142,1.9,7.751,7.751,0,1,0,4-14.393Z" transform="translate(-173.604 -173.413)"/>
          <path id="Path_1077312" data-name="Path 1077312" d="M169.558,150.306,167.507,150a14.093,14.093,0,0,0-1.64-3.957l1.233-1.669a2.1,2.1,0,0,0-.205-2.746l-1.452-1.453a2.1,2.1,0,0,0-2.746-.205l-1.669,1.233a14.086,14.086,0,0,0-3.956-1.64l-.308-2.051a2.1,2.1,0,0,0-2.087-1.8h-2.054a2.1,2.1,0,0,0-2.087,1.8l-.308,2.051a14.087,14.087,0,0,0-3.956,1.64l-1.669-1.233a2.1,2.1,0,0,0-2.746.205l-1.452,1.452a2.1,2.1,0,0,0-.205,2.746l1.233,1.669a14.076,14.076,0,0,0-1.64,3.957l-2.051.308a2.1,2.1,0,0,0-1.8,2.087v2.054a2.1,2.1,0,0,0,1.8,2.087l2.051.308a14.088,14.088,0,0,0,1.64,3.957l-1.233,1.669a2.1,2.1,0,0,0,.205,2.746l1.452,1.453a2.1,2.1,0,0,0,2.746.205l1.669-1.233a14.085,14.085,0,0,0,3.956,1.64l.308,2.051a2.1,2.1,0,0,0,2.087,1.8h2.054a2.1,2.1,0,0,0,2.087-1.8l.308-2.051a14.086,14.086,0,0,0,3.956-1.64l1.669,1.233a2.1,2.1,0,0,0,2.746-.205l1.452-1.453a2.1,2.1,0,0,0,.205-2.746l-1.233-1.669a14.082,14.082,0,0,0,1.64-3.957l2.051-.308a2.1,2.1,0,0,0,1.8-2.087v-2.054a2.1,2.1,0,0,0-1.8-2.087Zm-.416,4.053-2.719.409a1.106,1.106,0,0,0-.923.89,11.926,11.926,0,0,1-1.89,4.56,1.106,1.106,0,0,0,.024,1.282l1.634,2.212-1.328,1.328-2.212-1.634a1.107,1.107,0,0,0-1.282-.023,11.927,11.927,0,0,1-4.56,1.89,1.106,1.106,0,0,0-.89.923l-.409,2.719H152.71l-.409-2.719a1.106,1.106,0,0,0-.89-.923,11.927,11.927,0,0,1-4.56-1.89,1.105,1.105,0,0,0-1.282.024l-2.212,1.634-1.328-1.328,1.634-2.212a1.106,1.106,0,0,0,.023-1.282,11.925,11.925,0,0,1-1.89-4.56,1.106,1.106,0,0,0-.923-.89l-2.719-.409v-1.878l2.719-.409a1.106,1.106,0,0,0,.923-.89,11.926,11.926,0,0,1,1.89-4.56,1.106,1.106,0,0,0-.023-1.282l-1.634-2.212,1.328-1.328,2.212,1.634a1.106,1.106,0,0,0,1.282.024,11.93,11.93,0,0,1,4.56-1.89,1.106,1.106,0,0,0,.89-.923l.409-2.719h1.878l.409,2.719a1.107,1.107,0,0,0,.89.923,11.924,11.924,0,0,1,4.56,1.89,1.106,1.106,0,0,0,1.282-.023l2.212-1.634,1.328,1.328-1.634,2.212a1.106,1.106,0,0,0-.024,1.282,11.926,11.926,0,0,1,1.89,4.56,1.106,1.106,0,0,0,.923.89l2.719.409Z" transform="translate(-115.932 -115.735)"/>
          <path id="Path_1077313" data-name="Path 1077313" d="M75.28,37.285a1.106,1.106,0,0,0-1.018-.673h-1.9A34.662,34.662,0,0,0,41.521,3.232L38.484.307a1.113,1.113,0,0,0-1.873.8V3.039a34.416,34.416,0,0,0-18.845,6.3,1.106,1.106,0,0,0,1.275,1.808A32.239,32.239,0,0,1,37.717,5.234a1.106,1.106,0,0,0,1.106-1.106V3.7l5.788,5.575-5.789,4.677v-1.09a1.106,1.106,0,0,0-1.106-1.106A25.931,25.931,0,0,0,12.583,31.324L10.212,28.39a1.113,1.113,0,0,0-1.657-.072l-2.6,2.7a32.409,32.409,0,0,1,9.756-17.181,1.106,1.106,0,1,0-1.5-1.626A34.592,34.592,0,0,0,3.273,33.8L.306,36.883a1.114,1.114,0,0,0,.8,1.874H3.071A34.663,34.663,0,0,0,33.837,72.129l3.045,2.932a1.113,1.113,0,0,0,1.873-.8V72.332A34.4,34.4,0,0,0,57.9,65.865a1.106,1.106,0,1,0-1.29-1.8A32.225,32.225,0,0,1,37.7,70.134h-.055a1.106,1.106,0,0,0-1.106,1.106v.424l-5.788-5.575,5.788-4.677V62.5a1.106,1.106,0,0,0,1.1,1.106h.075a25.931,25.931,0,0,0,25.117-19.5l2.319,2.87a1.113,1.113,0,0,0,1.657.072l2.684-2.787a32.428,32.428,0,0,1-9.572,17.082,1.106,1.106,0,1,0,1.514,1.613A34.614,34.614,0,0,0,72.169,41.487l2.89-3a1.105,1.105,0,0,0,.221-1.2ZM28.388,65.156a1.113,1.113,0,0,0-.072,1.657l2.734,2.633A32.459,32.459,0,0,1,5.268,37.688V37.65a1.106,1.106,0,0,0-1.106-1.106H3.7l5.574-5.789,4.677,5.789H12.9a1.1,1.1,0,0,0-1.106,1.1v.038A25.932,25.932,0,0,0,31.3,62.8Zm24.8-9.5a23.7,23.7,0,0,1-14.432,5.719V59.1a1.114,1.114,0,0,0-1.8-.861l-3.448,2.786A23.718,23.718,0,0,1,14.03,38.756h2.241a1.114,1.114,0,0,0,.861-1.8l-2.763-3.42A23.717,23.717,0,0,1,36.611,14v2.274a1.114,1.114,0,0,0,1.8.861l3.46-2.8A23.718,23.718,0,0,1,61.4,36.612h-2.31a1.114,1.114,0,0,0-.861,1.8L61.052,41.9a23.723,23.723,0,0,1-7.865,13.751Zm12.9-11.04L61.41,38.825h1.123a1.1,1.1,0,0,0,1.106-1.1v-.038A25.932,25.932,0,0,0,44.083,12.551l2.894-2.338a1.113,1.113,0,0,0,.072-1.657L44.3,5.905A32.458,32.458,0,0,1,70.166,37.68v.038a1.106,1.106,0,0,0,1.106,1.106h.389Z" transform="translate(0 0)"/>
        </g>
      </g>
    </g>
  </g>
</svg>
