<svg xmlns="http://www.w3.org/2000/svg" xmlns:xlink="http://www.w3.org/1999/xlink" width="93.934" height="93.934" viewBox="0 0 93.934 93.934">
  <defs>
    <filter id="Path_982547" x="0" y="0" width="93.934" height="93.934" filterUnits="userSpaceOnUse">
      <feOffset dy="3" input="SourceAlpha"/>
      <feGaussianBlur stdDeviation="3" result="blur"/>
      <feFlood flood-opacity="0.161"/>
      <feComposite operator="in" in2="blur"/>
      <feComposite in="SourceGraphic"/>
    </filter>
  </defs>
  <g id="Group_1215590" data-name="Group 1215590" transform="translate(-1031.295 -4871)">
    <g id="Group_1214661" data-name="Group 1214661" transform="translate(0 -257)">
      <g id="Group_1214434" data-name="Group 1214434" transform="translate(-0.771 -2738.522)">
        <g id="Group_1183184" data-name="Group 1183184" transform="translate(1 1016.523)">
          <g id="Group_1179612" data-name="Group 1179612" transform="translate(848 4723.467)">
            <g id="Group_1175227" data-name="Group 1175227" transform="translate(-5.967 140.533)">
              <g id="Group_1167337" data-name="Group 1167337" transform="translate(198.033 1992)">
                <g id="Group_1166720" data-name="Group 1166720">
                  <g id="Group_1164305" data-name="Group 1164305">
                    <g id="Group_1163948" data-name="Group 1163948">
                      <g id="Group_1158168" data-name="Group 1158168">
                        <g id="Group_1152576" data-name="Group 1152576">
                          <g id="Group_1148633" data-name="Group 1148633">
                            <g id="Group_1148525" data-name="Group 1148525">
                              <g transform="matrix(1, 0, 0, 1, -9, -6)" filter="url(#Path_982547)">
                                <g id="Path_982547-2" data-name="Path 982547" transform="translate(9 6)" fill="#f5f5f5">
                                  <path d="M 37.966796875 74.43359375 C 33.04315185546875 74.43359375 28.26757431030273 73.46962738037109 23.77274131774902 71.56847381591797 C 19.43047523498535 69.73184967041016 15.53040790557861 67.10224914550781 12.18087482452393 63.75271987915039 C 8.831341743469238 60.4031867980957 6.201741218566895 56.50312042236328 4.365118980407715 52.16086196899414 C 2.463963508605957 47.66601943969727 1.499996900558472 42.89044189453125 1.499996900558472 37.966796875 C 1.499996900558472 33.04315185546875 2.463963508605957 28.26757431030273 4.365118980407715 23.77274131774902 C 6.201741218566895 19.43047523498535 8.831341743469238 15.53040790557861 12.18087482452393 12.18087482452393 C 15.53040790557861 8.831341743469238 19.43047523498535 6.201741218566895 23.77274131774902 4.365118980407715 C 28.26757431030273 2.463963508605957 33.04315185546875 1.499996900558472 37.966796875 1.499996900558472 C 42.89044189453125 1.499996900558472 47.66601943969727 2.463963508605957 52.16086196899414 4.365118980407715 C 56.50312042236328 6.201741218566895 60.4031867980957 8.831341743469238 63.75271987915039 12.18087482452393 C 67.10224914550781 15.53040790557861 69.73184967041016 19.43047523498535 71.56847381591797 23.77274131774902 C 73.46962738037109 28.26757431030273 74.43359375 33.04315185546875 74.43359375 37.966796875 C 74.43359375 42.89044189453125 73.46962738037109 47.66601943969727 71.56847381591797 52.16086196899414 C 69.73184967041016 56.50313186645508 67.10224914550781 60.4031867980957 63.75271987915039 63.75271987915039 C 60.4031867980957 67.10224914550781 56.50313186645508 69.73184967041016 52.16086196899414 71.56847381591797 C 47.66601943969727 73.46962738037109 42.89044189453125 74.43359375 37.966796875 74.43359375 Z" stroke="none"/>
                                  <path d="M 37.966796875 3 C 33.2449836730957 3 28.66600799560547 3.924095153808594 24.35705947875977 5.746635437011719 C 20.19359588623047 7.507637023925781 16.45379638671875 10.02928161621094 13.24153518676758 13.24153518676758 C 10.02927398681641 16.45379638671875 7.507621765136719 20.19359588623047 5.746635437011719 24.35705947875977 C 3.924095153808594 28.66600799560547 3 33.2449836730957 3 37.966796875 C 3 42.6886100769043 3.924095153808594 47.26758575439453 5.746635437011719 51.57653427124023 C 7.507621765136719 55.73999786376953 10.02927398681641 59.47979736328125 13.24153518676758 62.69205856323242 C 16.45379638671875 65.90431976318359 20.19359588623047 68.42597198486328 24.35705947875977 70.18695831298828 C 28.66600799560547 72.00949859619141 33.2449836730957 72.93359375 37.966796875 72.93359375 C 42.6886100769043 72.93359375 47.26758575439453 72.00949859619141 51.57653427124023 70.18695831298828 C 55.73999786376953 68.42597198486328 59.47979736328125 65.90431976318359 62.69205856323242 62.69205856323242 C 65.90431976318359 59.47979736328125 68.42597198486328 55.73999786376953 70.18695831298828 51.57653427124023 C 72.00949859619141 47.26758575439453 72.93359375 42.6886100769043 72.93359375 37.966796875 C 72.93359375 33.2449836730957 72.00949859619141 28.66600799560547 70.18695831298828 24.35705947875977 C 68.42597198486328 20.19359588623047 65.90431976318359 16.45379638671875 62.69205856323242 13.24153518676758 C 59.47979736328125 10.02928161621094 55.73999786376953 7.507637023925781 51.57653427124023 5.746635437011719 C 47.26758575439453 3.924095153808594 42.6886100769043 3 37.966796875 3 M 37.966796875 0 C 58.93528366088867 0 75.93359375 16.99832153320312 75.93359375 37.966796875 C 75.93359375 58.93528366088867 58.93528366088867 75.93359375 37.966796875 75.93359375 C 16.99831008911133 75.93359375 0 58.93528366088867 0 37.966796875 C 0 16.99832153320312 16.99831008911133 0 37.966796875 0 Z" stroke="none" fill="#86b60c"/>
                                </g>
                              </g>
                            </g>
                          </g>
                        </g>
                      </g>
                    </g>
                  </g>
                </g>
              </g>
            </g>
          </g>
        </g>
      </g>
      <g id="lider" transform="translate(1056.984 5140.613)">
        <g id="Group_1214658" data-name="Group 1214658" transform="translate(1.157 1.343)">
          <path id="Path_1077609" data-name="Path 1077609" d="M303.053,272.854v-5.445H288.184v21.076h14.869V272.854Z" transform="translate(-255.995 -237.645)" fill="#fff"/>
          <path id="Path_1077610" data-name="Path 1077610" d="M416.689,263.624v5.45l9.871-.093V245.459L416.689,248v15.625Z" transform="translate(-369.63 -218.235)" fill="#5c90ae"/>
          <path id="Path_1077611" data-name="Path 1077611" d="M42.189,231.579h-1.75c-3.2,0-4.227-2.507-5.5-4.109l-.889-1.119a6.71,6.71,0,0,0-5.254-2.536H21.248l.769,4.988H13.427a2.776,2.776,0,0,0,0,5.552h-.651a2.776,2.776,0,1,0,0,5.551h1.809a2.776,2.776,0,0,0,0,5.552h1.045a2.776,2.776,0,0,0,0,5.551H29.6a6.71,6.71,0,0,0,4.367-1.616l.907-.778A6.71,6.71,0,0,1,39.243,247h2.946Z" transform="translate(-10 -199.096)" fill="#ffc6ae"/>
          <path id="Path_1077612" data-name="Path 1077612" d="M43.219,39.893,38.965,12.311a2.508,2.508,0,1,0-4.957.772l4.232,26.809Z" transform="translate(-31.203 -10.185)" fill="#f9f5f3"/>
          <path id="Path_1077613" data-name="Path 1077613" d="M108,458.832l.3,2.274a2.386,2.386,0,1,1-4.733.608l-.362-2.881Z" transform="translate(-92.422 -406.918)" fill="#f9f5f3"/>
          <g id="Group_1214657" data-name="Group 1214657" transform="translate(7.807 2.447)">
            <path id="Path_1077614" data-name="Path 1077614" d="M77.472,31.329H91.446L89.552,45.205H79.585Z" transform="translate(-77.472 -31.329)" fill="#ff7e96"/>
            <path id="Path_1077615" data-name="Path 1077615" d="M179.109,65.365h10.111l-2.961,7.17,5.074,6.707H177.215Z" transform="translate(-165.674 -61.427)" fill="#ff7e96"/>
          </g>
        </g>
        <g id="Group_1214660" data-name="Group 1214660" transform="translate(0 0.186)">
          <g id="Group_1214659" data-name="Group 1214659" transform="translate(0 0)">
            <path id="Path_1077616" data-name="Path 1077616" d="M408.937,349.208a1.156,1.156,0,1,0-.626,1.511A1.168,1.168,0,0,0,408.937,349.208Z" transform="translate(-359.654 -308.193)"/>
            <path id="Path_1077617" data-name="Path 1077617" d="M58.8,27.652a1.157,1.157,0,0,0-1-.206l-9.73,2.5H33.346a1.157,1.157,0,0,0-1.157,1.157v1.563H31.6c-2.013,0-2.87-1.234-3.861-2.663-.234-.338-1.622-2.128-1.622-2.128a7.825,7.825,0,0,0-6.16-2.974H13.4l-.938-6.082h7.259l-.358,2.625a1.171,1.171,0,0,0,1.146,1.314H34.625a1.167,1.167,0,0,0,.923-1.855l-4.675-6.179L33.581,8.17a1.157,1.157,0,0,0-1.07-1.6H23.727l.358-2.625a1.171,1.171,0,0,0-1.146-1.314H9.9A3.642,3.642,0,0,0,6.44.186,3.7,3.7,0,0,0,2.82,4.422L6.841,29.894H4.585A3.931,3.931,0,0,0,1.513,36.28a3.931,3.931,0,0,0,.819,6.691,3.929,3.929,0,0,0,1.244,5.241,3.931,3.931,0,0,0,3.21,6.2h4.134l.234,1.867a3.543,3.543,0,1,0,7.028-.9l-.129-.964h2.7a7.871,7.871,0,0,0,5.12-1.894l.908-.778A5.556,5.556,0,0,1,30.4,50.4h1.789v1.778a1.157,1.157,0,0,0,1.157,1.157h14.88l9.871-.093a1.157,1.157,0,0,0,1.146-1.157V28.567a1.157,1.157,0,0,0-.448-.914ZM30.782,8.885l-2.3,5.571a1.157,1.157,0,0,0,.147,1.14L32.3,20.447H21.832L23.411,8.885h7.371ZM21.256,7.556l0,.016-1.22,8.938H12.1L10.318,4.947H21.613ZM5.106,4.062A1.364,1.364,0,0,1,6.44,2.5c.892,0,1.263.7,1.38,1.464l4,25.93H9.184ZM15.89,55.683a1.229,1.229,0,1,1-2.438.311l-.2-1.58h2.467ZM30.4,48.09a7.871,7.871,0,0,0-5.12,1.895l-.907.778A5.556,5.556,0,0,1,20.758,52.1H6.787a1.619,1.619,0,0,1,0-3.237,1.157,1.157,0,0,0,0-2.314H5.742a1.619,1.619,0,1,1,0-3.237,1.157,1.157,0,0,0,0-2.314H3.933a1.619,1.619,0,1,1,0-3.237h.651a1.157,1.157,0,0,0,0-2.314,1.619,1.619,0,0,1,0-3.237h13.9a1.157,1.157,0,1,0,0-2.314H14.166l-.412-2.674h6.2a5.523,5.523,0,0,1,4.348,2.1s1.309,1.686,1.533,2.008c1.071,1.543,2.539,3.657,5.762,3.657h.593V48.09H30.4Zm26.53,2.853-7.557.071V46.732a1.157,1.157,0,0,0-2.314,0v4.293H34.5V32.264H47.059v4.288a1.157,1.157,0,0,0,2.314,0V32l7.557-1.945Z" transform="translate(0 -0.186)"/>
          </g>
        </g>
      </g>
    </g>
  </g>
</svg>
