<svg xmlns="http://www.w3.org/2000/svg" xmlns:xlink="http://www.w3.org/1999/xlink" width="113" height="113" viewBox="0 0 113 113">
  <defs>
    <filter id="Path_982547" x="0" y="0" width="113" height="113" filterUnits="userSpaceOnUse">
      <feOffset dy="3" input="SourceAlpha"/>
      <feGaussianBlur stdDeviation="3" result="blur"/>
      <feFlood flood-opacity="0.161"/>
      <feComposite operator="in" in2="blur"/>
      <feComposite in="SourceGraphic"/>
    </filter>
  </defs>
  <g id="Group_1215538" data-name="Group 1215538" transform="translate(-1059 -1198.946)">
    <g id="Group_1214512" data-name="Group 1214512">
      <g id="Group_1214349" data-name="Group 1214349" transform="translate(0 -2968)">
        <g id="Group_1212851" data-name="Group 1212851" transform="translate(1068 4172.946)">
          <g id="Group_1209935" data-name="Group 1209935">
            <g id="Group_1208705" data-name="Group 1208705">
              <g id="Group_1148633" data-name="Group 1148633">
                <g id="Group_1148525" data-name="Group 1148525">
                  <g transform="matrix(1, 0, 0, 1, -9, -6)" filter="url(#Path_982547)">
                    <g id="Path_982547-2" data-name="Path 982547" transform="translate(9 6)" fill="#ffe1b9">
                      <path d="M 47.5 93.5 C 41.28937149047852 93.5 35.26533508300781 92.28397369384766 29.59518623352051 89.88570404052734 C 24.11771965026855 87.56893157958984 19.19813346862793 84.25196075439453 14.97309303283691 80.02691650390625 C 10.74804019927979 75.80186462402344 7.431066513061523 70.88229370117188 5.114293098449707 65.40481567382812 C 2.716026782989502 59.73468017578125 1.5 53.71062850952148 1.5 47.5 C 1.5 41.28937149047852 2.716026782989502 35.26533508300781 5.114293098449707 29.59518623352051 C 7.431066513061523 24.11771965026855 10.74804019927979 19.19813346862793 14.97309303283691 14.97309303283691 C 19.19813346862793 10.74804019927979 24.11771965026855 7.431066513061523 29.59518623352051 5.114293098449707 C 35.26533508300781 2.716026782989502 41.28937149047852 1.5 47.5 1.5 C 53.71062850952148 1.5 59.73468017578125 2.716026782989502 65.40481567382812 5.114293098449707 C 70.88229370117188 7.431066513061523 75.80186462402344 10.74804019927979 80.02691650390625 14.97309303283691 C 84.25196075439453 19.19813346862793 87.56893157958984 24.11771965026855 89.88570404052734 29.59518623352051 C 92.28397369384766 35.26533508300781 93.5 41.28937149047852 93.5 47.5 C 93.5 53.71062850952148 92.28397369384766 59.73468017578125 89.88570404052734 65.40481567382812 C 87.56893157958984 70.88229370117188 84.25196075439453 75.80186462402344 80.02691650390625 80.02691650390625 C 75.80186462402344 84.25196075439453 70.88229370117188 87.56893157958984 65.40481567382812 89.88570404052734 C 59.73468017578125 92.28397369384766 53.71062850952148 93.5 47.5 93.5 Z" stroke="none"/>
                      <path d="M 47.5 3 C 41.49121475219727 3 35.66376876831055 4.176155090332031 30.17950439453125 6.495796203613281 C 24.88084411621094 8.736953735351562 20.12152099609375 11.94598388671875 16.03375244140625 16.03375244140625 C 11.94598388671875 20.12152099609375 8.736953735351562 24.88084411621094 6.495796203613281 30.17950439453125 C 4.176155090332031 35.66376876831055 3 41.49121475219727 3 47.5 C 3 53.50878524780273 4.176155090332031 59.33623123168945 6.495796203613281 64.82049560546875 C 8.736953735351562 70.11915588378906 11.94598388671875 74.87847900390625 16.03375244140625 78.96624755859375 C 20.12152099609375 83.05401611328125 24.88084411621094 86.26304626464844 30.17950439453125 88.50419616699219 C 35.66376876831055 90.82384490966797 41.49121475219727 92 47.5 92 C 53.50878524780273 92 59.33623123168945 90.82384490966797 64.82049560546875 88.50419616699219 C 70.11915588378906 86.26304626464844 74.87847900390625 83.05401611328125 78.96624755859375 78.96624755859375 C 83.05401611328125 74.87847900390625 86.26304626464844 70.11915588378906 88.50419616699219 64.82049560546875 C 90.82384490966797 59.33623123168945 92 53.50878524780273 92 47.5 C 92 41.49121475219727 90.82384490966797 35.66376876831055 88.50419616699219 30.17950439453125 C 86.26304626464844 24.88084411621094 83.05401611328125 20.12152099609375 78.96624755859375 16.03375244140625 C 74.87847900390625 11.94598388671875 70.11915588378906 8.736953735351562 64.82049560546875 6.495796203613281 C 59.33623123168945 4.176155090332031 53.50878524780273 3 47.5 3 M 47.5 0 C 73.7335205078125 0 95 21.2664794921875 95 47.5 C 95 73.7335205078125 73.7335205078125 95 47.5 95 C 21.2664794921875 95 0 73.7335205078125 0 47.5 C 0 21.2664794921875 21.2664794921875 0 47.5 0 Z" stroke="none" fill="#ff9d1c"/>
                    </g>
                  </g>
                </g>
              </g>
            </g>
          </g>
        </g>
      </g>
      <g id="XMLID_1021_" transform="translate(1068 1221.059)">
        <g id="XMLID_1170_" transform="translate(0 0)">
          <path id="XMLID_768_" d="M132.686,286.212l5.931,5.931a4.265,4.265,0,0,0,6.031-6.031l-4.179-4.179Z" transform="translate(-88.121 -242.039)" fill="#ffddcf"/>
          <path id="XMLID_1344_" d="M71.42,139.314l5.931,5.931a4.265,4.265,0,0,0,6.031-6.031L79.2,135.035a27.637,27.637,0,0,0-43.869,6.425l-4.5,8.336,6.077,23Z" transform="translate(-11.343 -110.655)" fill="#ffddcf"/>
          <path id="XMLID_1313_" d="M351.7,292.853l11.77-3.154a3.046,3.046,0,0,0,2.154-3.731L359,261.251a3.046,3.046,0,0,0-3.731-2.154l-11.77,3.154a3.046,3.046,0,0,0-2.154,3.731l6.623,24.717A3.046,3.046,0,0,0,351.7,292.853Z" transform="translate(-339.718 -222.594)" fill="#91def5"/>
          <g id="XMLID_2768_" transform="translate(23.467 1.52)">
            <path id="XMLID_2775_" d="M0,51.022H13.4V0H0Z" transform="translate(45.554 36.078) rotate(135)" fill="#ffcb7c"/>
            <path id="XMLID_2774_" d="M26.917,283.837,19.478,266.92,10,276.4Z" transform="translate(26.079 -230.834)" fill="#98a1b3"/>
          </g>
          <path id="XMLID_1251_" d="M154.6,239.219l9.228-9.228a4.874,4.874,0,0,1,6.893,6.893l-9.228,9.228a21.174,21.174,0,0,1-19.459,12.827h-.782Z" transform="translate(-115.681 -196.799)" fill="#ffddcf"/>
          <path id="XMLID_682_" d="M3.388,58.208l11.77-3.154A4.569,4.569,0,0,1,19.421,56.1L22.652,50.1a29.261,29.261,0,0,1,8.217-9.522L22.387,32.1a1.523,1.523,0,0,1,0-2.154l9.478-9.478a1.524,1.524,0,0,1,2.154,0L48.335,34.784a29.16,29.16,0,0,1,20.6,8.541L73.117,47.5A5.784,5.784,0,0,1,70.5,57.192l7.361,16.741A1.523,1.523,0,0,1,75.85,75.94L59.108,68.577A5.788,5.788,0,0,1,49.419,71.2l-1.658-1.658-.664.664A22.666,22.666,0,0,1,27.5,83.652,4.571,4.571,0,0,1,24.146,88.6l-11.77,3.154a4.568,4.568,0,0,1-5.6-3.231l-1.5-5.588a1.523,1.523,0,0,1,2.942-.788l1.5,5.588a1.525,1.525,0,0,0,1.866,1.077l11.77-3.154a1.523,1.523,0,0,0,1.077-1.865L17.812,59.074A1.526,1.526,0,0,0,15.946,58L4.176,61.151A1.525,1.525,0,0,0,3.1,63.016L4.676,68.9a1.523,1.523,0,1,1-2.942.788L.157,63.8a4.575,4.575,0,0,1,3.231-5.6Zm22.23-27.185L46.9,52.308l.171-.171a6.353,6.353,0,0,1,3.111-1.716L28.2,28.438ZM32.941,23.7l-2.585,2.585L64.286,60.213l2.585-2.585ZM70.963,53.535a2.742,2.742,0,0,0,0-3.877l-4.179-4.179a25.917,25.917,0,0,0-15.2-7.448l15.5,15.5A2.744,2.744,0,0,0,70.963,53.535ZM68.527,60.28,62.2,66.608l11.295,4.967Zm-8.98,4.672,2.585-2.585-4.3-4.3a6.358,6.358,0,0,1-1.713,3.114l-.171.171Zm-7.973,4.1a2.742,2.742,0,1,0,3.877-3.877l-1.658-1.658L49.915,67.39ZM26.742,80.631a19.626,19.626,0,0,0,17.675-11.9,1.525,1.525,0,0,1,.323-.477l9.228-9.228a3.351,3.351,0,1,0-4.739-4.739L40,63.519a1.523,1.523,0,0,1-2.154-2.154l6.9-6.9-11.7-11.7a26.2,26.2,0,0,0-7.717,8.787l-4.265,7.909Z" transform="translate(-0.001 -20.022)"/>
        </g>
        <g id="XMLID_928_" transform="translate(3.455 54.374)">
          <path id="XMLID_273_" d="M470.843,380.049a1.524,1.524,0,1,0-1.077-.446A1.538,1.538,0,0,0,470.843,380.049Z" transform="translate(-469.32 -377.003)"/>
        </g>
      </g>
    </g>
  </g>
</svg>
