<svg xmlns="http://www.w3.org/2000/svg" xmlns:xlink="http://www.w3.org/1999/xlink" width="103" height="103" viewBox="0 0 103 103">
  <defs>
    <filter id="Path_978624" x="0" y="0" width="103" height="103" filterUnits="userSpaceOnUse">
      <feOffset dy="3" input="SourceAlpha"/>
      <feGaussianBlur stdDeviation="3" result="blur"/>
      <feFlood flood-opacity="0.161"/>
      <feComposite operator="in" in2="blur"/>
      <feComposite in="SourceGraphic"/>
    </filter>
  </defs>
  <g id="Group_1215611" data-name="Group 1215611" transform="translate(-611 -5826)">
    <g id="Group_1214689" data-name="Group 1214689" transform="translate(0 46)">
      <g id="Group_1215520" data-name="Group 1215520">
        <g id="Group_1208646" data-name="Group 1208646" transform="translate(620 5786)">
          <g id="Group_1180764" data-name="Group 1180764">
            <g id="Group_1179463" data-name="Group 1179463">
              <g id="Group_1144531" data-name="Group 1144531">
                <g transform="matrix(1, 0, 0, 1, -9, -6)" filter="url(#Path_978624)">
                  <g id="Path_978624-2" data-name="Path 978624" transform="translate(9 6)" fill="#f6f3ef">
                    <path d="M 42.5 83.5 C 36.96437835693359 83.5 31.59512901306152 82.41617584228516 26.54141235351562 80.27863311767578 C 21.65934181213379 78.21369171142578 17.27447128295898 75.25723266601562 13.50862312316895 71.49137878417969 C 9.742764472961426 67.72553253173828 6.786305904388428 63.34066009521484 4.721364498138428 58.45858764648438 C 2.583823442459106 53.40486907958984 1.5 48.03562164306641 1.5 42.5 C 1.5 36.96437835693359 2.583823442459106 31.59512901306152 4.721364498138428 26.54141235351562 C 6.786305904388428 21.65934181213379 9.742764472961426 17.27447128295898 13.50862312316895 13.50862312316895 C 17.27447128295898 9.742764472961426 21.65934181213379 6.786305904388428 26.54141235351562 4.721364498138428 C 31.59512901306152 2.583823442459106 36.96437835693359 1.5 42.5 1.5 C 48.03562164306641 1.5 53.40486907958984 2.583823442459106 58.45858764648438 4.721364498138428 C 63.34066009521484 6.786305904388428 67.72553253173828 9.742764472961426 71.49137878417969 13.50862312316895 C 75.25723266601562 17.27447128295898 78.21369171142578 21.65934181213379 80.27863311767578 26.54141235351562 C 82.41617584228516 31.59512901306152 83.5 36.96437835693359 83.5 42.5 C 83.5 48.03562164306641 82.41617584228516 53.40486907958984 80.27863311767578 58.45858764648438 C 78.21369171142578 63.34066009521484 75.25723266601562 67.72553253173828 71.49137878417969 71.49137878417969 C 67.72553253173828 75.25723266601562 63.34066009521484 78.21369171142578 58.45858764648438 80.27863311767578 C 53.40486907958984 82.41617584228516 48.03562164306641 83.5 42.5 83.5 Z" stroke="none"/>
                    <path d="M 42.5 3 C 37.16621398925781 3 31.99356079101562 4.043960571289062 27.125732421875 6.102882385253906 C 22.42246627807617 8.092185974121094 18.19785308837891 10.94070434570312 14.56928253173828 14.56928253173828 C 10.94070434570312 18.19785308837891 8.092185974121094 22.42246627807617 6.102882385253906 27.125732421875 C 4.043960571289062 31.99356079101562 3 37.16621398925781 3 42.5 C 3 47.83378601074219 4.043960571289062 53.00643920898438 6.102882385253906 57.87425231933594 C 8.092185974121094 62.57753372192383 10.94070434570312 66.80213165283203 14.56928253173828 70.43071746826172 C 18.19786834716797 74.05929565429688 22.42246627807617 76.90781402587891 27.125732421875 78.89711761474609 C 31.99356079101562 80.95603942871094 37.16621398925781 82 42.5 82 C 47.83378601074219 82 53.00642395019531 80.95603942871094 57.87425231933594 78.89711761474609 C 62.57753372192383 76.90781402587891 66.80213165283203 74.05929565429688 70.43071746826172 70.43071746826172 C 74.05929565429688 66.80213165283203 76.90781402587891 62.57753372192383 78.89711761474609 57.87425231933594 C 80.95603942871094 53.00642395019531 82 47.83378601074219 82 42.5 C 82 37.16621398925781 80.95603942871094 31.99356079101562 78.89711761474609 27.125732421875 C 76.90781402587891 22.42246627807617 74.05929565429688 18.19786834716797 70.43071746826172 14.56928253173828 C 66.80213165283203 10.94070434570312 62.57753372192383 8.092185974121094 57.87425231933594 6.102882385253906 C 53.00643920898438 4.043960571289062 47.83378601074219 3 42.5 3 M 42.5 0 C 65.97209167480469 0 85 19.02789306640625 85 42.5 C 85 65.97209167480469 65.97209167480469 85 42.5 85 C 19.02789306640625 85 0 65.97209167480469 0 42.5 C 0 19.02789306640625 19.02789306640625 0 42.5 0 Z" stroke="none" fill="#7b776f"/>
                  </g>
                </g>
              </g>
            </g>
          </g>
        </g>
        <g id="asistente-virtual" transform="translate(597.934 5788.75)">
          <g id="Group_1215515" data-name="Group 1215515" transform="translate(32.635 7.5)">
            <g id="Group_1215514" data-name="Group 1215514" transform="translate(0 0)">
              <circle id="Ellipse_14339" data-name="Ellipse 14339" cx="30.938" cy="30.938" r="30.938" transform="translate(0 3.587)" fill="#d8ecfe"/>
              <path id="Path_1084414" data-name="Path 1084414" d="M128.945,67.227A30.938,30.938,0,0,1,89.5,114.1a30.938,30.938,0,1,0,39.443-46.874Z" transform="translate(-81.613 -58.942)" fill="#c4e2ff"/>
              <g id="Group_1215510" data-name="Group 1215510" transform="translate(19.459 25.826)">
                <path id="Path_1084415" data-name="Path 1084415" d="M288.273,205.178a.833.833,0,0,0,.832.832h6.122V193.676h-.282a11.376,11.376,0,0,1-6.672,8.6v2.9Z" transform="translate(-272.27 -193.676)" fill="#c57a44"/>
                <path id="Path_1084416" data-name="Path 1084416" d="M179.866,205.177v-2.9a11.375,11.375,0,0,1-6.672-8.6h-.282v12.334h6.122A.833.833,0,0,0,179.866,205.177Z" transform="translate(-172.912 -193.675)" fill="#d88a55"/>
              </g>
              <path id="Path_1084417" data-name="Path 1084417" d="M137.514,23.421h4.359V21.489a8.839,8.839,0,0,1,8.829-8.829h5.022a8.839,8.839,0,0,1,8.829,8.829v1.932h4.359a3.708,3.708,0,0,1,.8.088v-2.02A14.005,14.005,0,0,0,155.723,7.5H150.7a14.005,14.005,0,0,0-13.989,13.989v2.02A3.708,3.708,0,0,1,137.514,23.421Z" transform="translate(-122.274 -7.5)" fill="#685e68"/>
              <g id="Group_1215511" data-name="Group 1215511" transform="translate(35.993 0.233)">
                <path id="Path_1084418" data-name="Path 1084418" d="M292.1,9.177a8.924,8.924,0,0,1,1.255,4.574v1.214a8.839,8.839,0,0,1,5.029,7.968v1.932h4.359a3.708,3.708,0,0,1,.8.088v-2.02A14.012,14.012,0,0,0,292.1,9.177Z" transform="translate(-292.102 -9.177)" fill="#554e56"/>
              </g>
              <path id="Path_1084419" data-name="Path 1084419" d="M340.872,121.274h-4.359v8.25a11.361,11.361,0,0,1-.143,1.794h4.5a3.851,3.851,0,0,0,3.851-3.851v-2.342A3.851,3.851,0,0,0,340.872,121.274Z" transform="translate(-294.236 -105.491)" fill="#433f43"/>
              <g id="Group_1215512" data-name="Group 1215512" transform="translate(11.388 11.699)">
                <path id="Path_1084420" data-name="Path 1084420" d="M122.942,129.524v-8.25h-4.359a3.851,3.851,0,0,0-3.851,3.851v2.342a3.851,3.851,0,0,0,3.851,3.851h4.5A11.378,11.378,0,0,1,122.942,129.524Z" transform="translate(-114.732 -117.19)" fill="#7a6d79"/>
                <path id="Path_1084421" data-name="Path 1084421" d="M195.6,95.24h-4.853a1.947,1.947,0,0,1-1.682-.971l-1.211-2.1a.677.677,0,0,0-1.172,0l-1.211,2.1a1.947,1.947,0,0,1-1.682.971H173.37l-.457.139v8.788a11.478,11.478,0,0,0,11.478,11.478h0a11.478,11.478,0,0,0,11.478-11.478V95.378Z" transform="translate(-164.842 -91.832)" fill="#ffdfcf"/>
                <path id="Path_1084422" data-name="Path 1084422" d="M237.112,116.387h-4.853l-.047,0v7.889a11.476,11.476,0,0,1-11.1,11.469,11.43,11.43,0,0,0,4.792,1.049h0a11.478,11.478,0,0,0,11.478-11.478v-8.788Z" transform="translate(-206.352 -112.979)" fill="#ffcebf"/>
              </g>
              <path id="Path_1084423" data-name="Path 1084423" d="M125.245,281.592h-28.7a8.967,8.967,0,0,0-8.967,8.967v7.87a31.093,31.093,0,0,0,3.788,3.66,2.1,2.1,0,0,1,.778,1.725l-.35,7.216a1.413,1.413,0,0,0,2.176,1.256l6.573-4.233a2.09,2.09,0,0,1,1.717-.245,30.967,30.967,0,0,0,31.95-9.379v-7.87A8.967,8.967,0,0,0,125.245,281.592Z" transform="translate(-79.96 -243.57)" fill="#fe5694"/>
              <path id="Path_1084424" data-name="Path 1084424" d="M105.915,325.942a30.789,30.789,0,0,1-16.391-4.7,31.1,31.1,0,0,0,3.519,3.358,2.1,2.1,0,0,1,.778,1.725l-.35,7.216a1.413,1.413,0,0,0,2.176,1.256l6.573-4.233a2.09,2.09,0,0,1,1.717-.245,30.967,30.967,0,0,0,31.95-9.379v-7.87a8.927,8.927,0,0,0-1.764-5.341A30.944,30.944,0,0,1,105.915,325.942Z" transform="translate(-81.632 -266.084)" fill="#fd3581"/>
              <path id="Path_1084425" data-name="Path 1084425" d="M190.168,258.194v-2.963a11.3,11.3,0,0,1-9.326,0v2.963a.694.694,0,0,1-.694.694h-5.942v.538a11.3,11.3,0,0,0,11.3,11.3h0a11.3,11.3,0,0,0,11.3-11.3v-.538h-5.942A.694.694,0,0,1,190.168,258.194Z" transform="translate(-154.567 -220.866)" fill="#ffb09e"/>
              <g id="Group_1215513" data-name="Group 1215513" transform="translate(19.459 5.022)">
                <path id="Path_1084426" data-name="Path 1084426" d="M186.9,43.7H181.88a8.967,8.967,0,0,0-8.967,8.967v1.255H183.79a2.081,2.081,0,0,0,1.8-1.04l1.211-2.1a.538.538,0,0,1,.932,0l1.211,2.1a2.081,2.081,0,0,0,1.8,1.04h5.121V52.668A8.967,8.967,0,0,0,186.9,43.7Z" transform="translate(-172.913 -43.701)" fill="#d88a55"/>
                <path id="Path_1084427" data-name="Path 1084427" d="M301.147,49.788v9.377l.047,0h5.121V57.911A8.967,8.967,0,0,0,301.147,49.788Z" transform="translate(-283.358 -48.944)" fill="#c57a44"/>
              </g>
              <path id="Path_1084428" data-name="Path 1084428" d="M239.309,200.8h-4.854a1.423,1.423,0,0,1-1.423-1.423v-1.638a1.423,1.423,0,0,1,1.423-1.423h3.431a1.423,1.423,0,0,1,1.423,1.423V200.8Z" transform="translate(-205.233 -170.122)" fill="#7a6d79"/>
            </g>
          </g>
          <g id="Group_1215519" data-name="Group 1215519" transform="translate(32.73 7.5)">
            <g id="Group_1215516" data-name="Group 1215516" transform="translate(19.364 25.826)">
              <path id="Path_1084429" data-name="Path 1084429" d="M337.529,205.872v-12.2h-.14" transform="translate(-314.573 -193.676)" fill="none" stroke="#000" stroke-linecap="round" stroke-linejoin="round" stroke-miterlimit="10" stroke-width="1"/>
              <line id="Line_625" data-name="Line 625" y2="12.196" fill="none" stroke="#000" stroke-linecap="round" stroke-linejoin="round" stroke-miterlimit="10" stroke-width="1"/>
            </g>
            <path id="Path_1084430" data-name="Path 1084430" d="M169.712,23.367V21.489A14.005,14.005,0,0,0,155.723,7.5H150.7a14.005,14.005,0,0,0-13.989,13.989v1.878" transform="translate(-122.369 -7.5)" fill="none" stroke="#000" stroke-linecap="round" stroke-linejoin="round" stroke-miterlimit="10" stroke-width="1"/>
            <path id="Path_1084431" data-name="Path 1084431" d="M337.391,131.317h4.36a3.851,3.851,0,0,0,3.851-3.851v-2.342a3.851,3.851,0,0,0-3.851-3.851h-4.22" transform="translate(-295.21 -105.49)" fill="none" stroke="#000" stroke-linecap="round" stroke-linejoin="round" stroke-miterlimit="10" stroke-width="1"/>
            <path id="Path_1084432" data-name="Path 1084432" d="M122.8,121.274h-4.22a3.851,3.851,0,0,0-3.851,3.851v2.342a3.851,3.851,0,0,0,3.851,3.851h4.36" transform="translate(-103.439 -105.491)" fill="none" stroke="#000" stroke-linecap="round" stroke-linejoin="round" stroke-miterlimit="10" stroke-width="1"/>
            <g id="Group_1215517" data-name="Group 1215517" transform="translate(26.359 19.37)">
              <line id="Line_626" data-name="Line 626" y2="0.897" fill="none" stroke="#000" stroke-linecap="round" stroke-linejoin="round" stroke-miterlimit="10" stroke-width="1"/>
              <line id="Line_627" data-name="Line 627" y2="0.897" transform="translate(8.968)" fill="none" stroke="#000" stroke-linecap="round" stroke-linejoin="round" stroke-miterlimit="10" stroke-width="1"/>
            </g>
            <path id="Path_1084433" data-name="Path 1084433" d="M249.193,198.8H263.72a2.69,2.69,0,0,0,2.69-2.69V194" transform="translate(-219.247 -168.129)" fill="none" stroke="#000" stroke-linecap="round" stroke-linejoin="round" stroke-miterlimit="10" stroke-width="1"/>
            <path id="Path_1084434" data-name="Path 1084434" d="M239.309,200.8h-4.854a1.423,1.423,0,0,1-1.423-1.423v-1.638a1.423,1.423,0,0,1,1.423-1.423h3.431a1.423,1.423,0,0,1,1.423,1.423V200.8Z" transform="translate(-205.328 -170.122)" fill="none" stroke="#000" stroke-linecap="round" stroke-linejoin="round" stroke-miterlimit="10" stroke-width="1"/>
            <g id="Group_1215518" data-name="Group 1215518" transform="translate(30.843 54.442)">
              <line id="Line_628" data-name="Line 628" y2="0.416" fill="none" stroke="#000" stroke-linecap="round" stroke-linejoin="round" stroke-miterlimit="10" stroke-width="1"/>
              <line id="Line_629" data-name="Line 629" y2="0.416" transform="translate(0 5.554)" fill="none" stroke="#000" stroke-linecap="round" stroke-linejoin="round" stroke-miterlimit="10" stroke-width="1"/>
            </g>
            <path id="Path_1084435" data-name="Path 1084435" d="M99.6,281.591H96.55a8.967,8.967,0,0,0-8.967,8.967v7.87a31.085,31.085,0,0,0,3.788,3.66,2.1,2.1,0,0,1,.778,1.725l-.35,7.216a1.413,1.413,0,0,0,2.176,1.256l6.573-4.233a2.09,2.09,0,0,1,1.717-.245,30.967,30.967,0,0,0,31.95-9.379v-7.87a8.967,8.967,0,0,0-8.967-8.967H122.2v.538a11.274,11.274,0,0,1-.7,3.925" transform="translate(-80.055 -243.569)" fill="none" stroke="#000" stroke-linecap="round" stroke-linejoin="round" stroke-miterlimit="10" stroke-width="1"/>
            <path id="Path_1084436" data-name="Path 1084436" d="M33.325,273.881a30.805,30.805,0,0,0,7.527,17.9" transform="translate(-33.324 -236.929)" fill="none" stroke="#000" stroke-linecap="round" stroke-linejoin="round" stroke-miterlimit="10" stroke-width="1"/>
            <path id="Path_1084437" data-name="Path 1084437" d="M49.331,60.616A30.942,30.942,0,0,0,33.319,85.345" transform="translate(-33.319 -53.248)" fill="none" stroke="#000" stroke-linecap="round" stroke-linejoin="round" stroke-miterlimit="10" stroke-width="1"/>
            <path id="Path_1084438" data-name="Path 1084438" d="M371.057,108.105a30.94,30.94,0,0,0-8.484-47.489" transform="translate(-316.899 -53.248)" fill="none" stroke="#000" stroke-linecap="round" stroke-linejoin="round" stroke-miterlimit="10" stroke-width="1"/>
            <path id="Path_1084439" data-name="Path 1084439" d="M180.841,256.353v2.808a.694.694,0,0,1-.694.694h-5.942v.538a11.3,11.3,0,0,0,11.3,11.3h0a11.262,11.262,0,0,0,7.96-3.281" transform="translate(-154.661 -221.832)" fill="none" stroke="#000" stroke-linecap="round" stroke-linejoin="round" stroke-miterlimit="10" stroke-width="1"/>
            <path id="Path_1084440" data-name="Path 1084440" d="M295.908,259.854h-5.942a.694.694,0,0,1-.694-.694v-2.808" transform="translate(-253.766 -221.832)" fill="none" stroke="#000" stroke-linecap="round" stroke-linejoin="round" stroke-miterlimit="10" stroke-width="1"/>
            <path id="Path_1084441" data-name="Path 1084441" d="M186.9,43.7H181.88a8.967,8.967,0,0,0-8.967,8.967v1.255H183.79a2.081,2.081,0,0,0,1.8-1.04l1.211-2.1a.538.538,0,0,1,.932,0l1.211,2.1a2.081,2.081,0,0,0,1.8,1.04h5.121V52.668A8.967,8.967,0,0,0,186.9,43.7Z" transform="translate(-153.549 -38.679)" fill="none" stroke="#000" stroke-linecap="round" stroke-linejoin="round" stroke-miterlimit="10" stroke-width="1"/>
            <path id="Path_1084442" data-name="Path 1084442" d="M172.913,117.4v8.788a11.478,11.478,0,0,0,11.478,11.478h0a11.478,11.478,0,0,0,11.478-11.478V117.4" transform="translate(-153.549 -102.151)" fill="none" stroke="#000" stroke-linecap="round" stroke-linejoin="round" stroke-miterlimit="10" stroke-width="1"/>
          </g>
        </g>
      </g>
    </g>
  </g>
</svg>
