<svg xmlns="http://www.w3.org/2000/svg" xmlns:xlink="http://www.w3.org/1999/xlink" width="110" height="110" viewBox="0 0 110 110">
  <defs>
    <filter id="Path_982547" x="0" y="0" width="110" height="110" filterUnits="userSpaceOnUse">
      <feOffset dy="3" input="SourceAlpha"/>
      <feGaussianBlur stdDeviation="3" result="blur"/>
      <feFlood flood-opacity="0.161"/>
      <feComposite operator="in" in2="blur"/>
      <feComposite in="SourceGraphic"/>
    </filter>
  </defs>
  <g id="Group_1218569" data-name="Group 1218569" transform="translate(1045 -3548.715)">
    <g id="Group_1217955" data-name="Group 1217955">
      <g id="Group_1217660" data-name="Group 1217660" transform="translate(-2158 845.715)">
        <g id="Group_1185952" data-name="Group 1185952" transform="translate(-0.461 1749)">
          <g id="Group_1184115" data-name="Group 1184115" transform="translate(-33.519 -1471.333)">
            <g id="Group_1183744" data-name="Group 1183744" transform="translate(458.936 -388.667)">
              <g id="Group_1181546" data-name="Group 1181546" transform="translate(-4.696 -130.677)">
                <g id="Group_1177563" data-name="Group 1177563" transform="translate(0.279 -12113.323)">
                  <g id="Group_1173148" data-name="Group 1173148" transform="translate(701.461 15064)">
                    <g id="Group_1163803" data-name="Group 1163803" transform="translate(0 0)">
                      <g id="Group_1163015" data-name="Group 1163015">
                        <g id="Group_1157017" data-name="Group 1157017" transform="translate(0 0)">
                          <g id="Group_1155793" data-name="Group 1155793" transform="translate(0 0)">
                            <g id="Group_1154704" data-name="Group 1154704">
                              <g id="Group_1150790" data-name="Group 1150790">
                                <g id="Group_1154214" data-name="Group 1154214">
                                  <g id="Group_1152583" data-name="Group 1152583">
                                    <g id="Group_1146973" data-name="Group 1146973" transform="translate(0 0)">
                                      <g id="Group_1146954" data-name="Group 1146954">
                                        <g transform="matrix(1, 0, 0, 1, -9, -6)" filter="url(#Path_982547)">
                                          <g id="Path_982547-2" data-name="Path 982547" transform="translate(9 6)" fill="#f2f7e5">
                                            <path d="M 46.00000381469727 90.49988555908203 C 39.99188232421875 90.49988555908203 34.16427230834961 89.32352447509766 28.67905807495117 87.00347137451172 C 23.38020324707031 84.76226043701172 18.62103080749512 81.55342864990234 14.53375053405762 77.46615600585938 C 10.44645690917969 73.37887573242188 7.237643718719482 68.61971282958984 4.996417045593262 63.32085800170898 C 2.676363706588745 57.83565902709961 1.500003814697266 52.00806045532227 1.500003814697266 45.99993896484375 C 1.500003814697266 39.99181747436523 2.676363706588745 34.16421890258789 4.996417045593262 28.67901802062988 C 7.237643718719482 23.38017845153809 10.44645690917969 18.62101936340332 14.53375053405762 14.53373908996582 C 18.62103080749512 10.44645881652832 23.38020324707031 7.237632274627686 28.67905807495117 4.996418952941895 C 34.16427230834961 2.676365613937378 39.99188232421875 1.500005602836609 46.00000381469727 1.500005602836609 C 52.00812530517578 1.500005602836609 57.83573532104492 2.676365613937378 63.32094955444336 4.996418952941895 C 68.61980438232422 7.237632274627686 73.37896728515625 10.44645881652832 77.46625518798828 14.53373908996582 C 81.55353546142578 18.62101936340332 84.76236724853516 23.38017845153809 87.00359344482422 28.67901802062988 C 89.32364654541016 34.16421890258789 90.5 39.99181747436523 90.5 45.99993896484375 C 90.5 52.00806045532227 89.32364654541016 57.83565902709961 87.00359344482422 63.32085800170898 C 84.76236724853516 68.61971282958984 81.55353546142578 73.37887573242188 77.46625518798828 77.46615600585938 C 73.37896728515625 81.55342864990234 68.61980438232422 84.76226043701172 63.32094955444336 87.00347137451172 C 57.83573532104492 89.32352447509766 52.00812530517578 90.49988555908203 46.00000381469727 90.49988555908203 Z" stroke="none"/>
                                            <path d="M 46.00000381469727 2.999992370605469 C 40.19371795654297 2.999992370605469 34.56270217895508 4.136497497558594 29.26338958740234 6.377906799316406 C 24.14333343505859 8.543510437011719 19.54441833496094 11.64437866210938 15.59440612792969 15.59439849853516 C 11.64440155029297 19.54439544677734 8.54351806640625 24.14329528808594 6.377914428710938 29.26335144042969 C 4.136505126953125 34.56266784667969 3.000007629394531 40.19366836547852 3.000007629394531 45.99993896484375 C 3.000007629394531 51.80620956420898 4.136505126953125 57.43722534179688 6.377914428710938 62.73654174804688 C 8.54351806640625 67.85658264160156 11.64440155029297 72.45548248291016 15.59440612792969 76.40549468994141 C 19.54441833496094 80.35549926757812 24.14333343505859 83.45636749267578 29.26337432861328 85.62196350097656 C 34.56270217895508 87.86338043212891 40.19371795654297 88.9998779296875 46.00000381469727 88.9998779296875 C 51.80628967285156 88.9998779296875 57.43730545043945 87.86338043212891 62.73663330078125 85.62196350097656 C 67.85667419433594 83.45636749267578 72.45558929443359 80.35549926757812 76.40560150146484 76.40549468994141 C 80.35560607910156 72.45548248291016 83.45648956298828 67.85658264160156 85.62208557128906 62.73654174804688 C 87.86350250244141 57.43722534179688 89 51.80620956420898 89 45.99993896484375 C 89 40.19366836547852 87.86350250244141 34.56266784667969 85.62208557128906 29.26335144042969 C 83.45648956298828 24.14329528808594 80.35560607910156 19.54439544677734 76.40560150146484 15.59439849853516 C 72.45558929443359 11.64437866210938 67.85667419433594 8.543510437011719 62.73661804199219 6.377906799316406 C 57.43730545043945 4.136497497558594 51.80628967285156 2.999992370605469 46.00000381469727 2.999992370605469 M 46.00000381469727 -7.62939453125e-06 C 71.40510559082031 -7.62939453125e-06 92 20.59487915039062 92 45.99993896484375 C 92 71.40501403808594 71.40510559082031 91.99988555908203 46.00000381469727 91.99988555908203 C 20.59490203857422 91.99988555908203 7.62939453125e-06 71.40501403808594 7.62939453125e-06 45.99993896484375 C 7.62939453125e-06 20.59487915039062 20.59490203857422 -7.62939453125e-06 46.00000381469727 -7.62939453125e-06 Z" stroke="none" fill="#86b60c"/>
                                          </g>
                                        </g>
                                      </g>
                                    </g>
                                  </g>
                                </g>
                              </g>
                            </g>
                          </g>
                        </g>
                      </g>
                    </g>
                  </g>
                </g>
              </g>
            </g>
          </g>
        </g>
      </g>
      <g id="apoyo-de-equipo_1_" data-name="apoyo-de-equipo (1)" transform="translate(-1030.032 3570.675)">
        <path id="Path_1090247" data-name="Path 1090247" d="M275.354,137.838l-.051-.064a2.264,2.264,0,0,0-2.433-.758L254.8,147.827a2.966,2.966,0,0,0,4.2,2.025l7.615-3.724-1.221,6.1,7.473.864,3.467-9.367A6.16,6.16,0,0,0,275.354,137.838Zm0,0" transform="translate(-213.707 -114.413)" fill="#fdb659"/>
        <path id="Path_1090248" data-name="Path 1090248" d="M274.558,139.2a2.263,2.263,0,0,1,1.677.144,6.156,6.156,0,0,0-.88-1.509l-.051-.064a2.265,2.265,0,0,0-2.433-.758l-18.066,10.811a2.954,2.954,0,0,0,1.8,2.118Zm0,0" transform="translate(-213.707 -114.414)" fill="#fd9e28"/>
        <path id="Path_1090249" data-name="Path 1090249" d="M274.168,231.844l-2.078,10.068a2.186,2.186,0,0,1-.72,1.22l-5.921,5.068a.534.534,0,0,0,.007.818l1.539,1.27a.672.672,0,0,0,.762.065l7.214-4.133a3.9,3.9,0,0,0,1.821-1.563l4.848-11.949Zm0,0" transform="translate(-222.477 -194.028)" fill="#38627c"/>
        <path id="Path_1090250" data-name="Path 1090250" d="M318.877,231.844l-.117.517a7.762,7.762,0,0,0,3.7,8.439l4.336,2.492a2.8,2.8,0,0,1,1.392,2.678l-.466,5.118a.208.208,0,0,0,.207.226h2.9a.208.208,0,0,0,.2-.16l1.806-7.705a2.208,2.208,0,0,0-.2-1.87l-6.288-8.871Zm0,0" transform="translate(-267.186 -194.028)" fill="#4f7693"/>
        <path id="Path_1090251" data-name="Path 1090251" d="M388.962,119.278l-2.564,1.481a2.519,2.519,0,0,1-3.441-.922l-.586-1.015a2.519,2.519,0,0,1,.922-3.441l2.564-1.481a2.52,2.52,0,0,1,3.442.922l.586,1.015A2.519,2.519,0,0,1,388.962,119.278Zm0,0" transform="translate(-320.413 -94.824)" fill="#fedfc5"/>
        <path id="Path_1090252" data-name="Path 1090252" d="M43.92,137.838l-.051-.064a2.264,2.264,0,0,0-2.433-.758L23.371,147.827a2.965,2.965,0,0,0,4.2,2.025l7.616-3.724-1.221,6.1,7.473.864,3.467-9.367a6.16,6.16,0,0,0-.984-5.889Zm0,0" transform="translate(-19.602 -114.413)" fill="#83d9ff"/>
        <path id="Path_1090253" data-name="Path 1090253" d="M25.058,149.664l18.065-10.811a2.264,2.264,0,0,1,1.478.055,6.184,6.184,0,0,0-.68-1.07l-.051-.064a2.264,2.264,0,0,0-2.433-.758L23.371,147.827a2.951,2.951,0,0,0,1.759,2.1c-.027-.086-.052-.173-.072-.263Zm0,0" transform="translate(-19.602 -114.413)" fill="#43a3f9"/>
        <path id="Path_1090254" data-name="Path 1090254" d="M42.733,231.844l-2.077,10.068a2.187,2.187,0,0,1-.721,1.22L34.014,248.2a.535.535,0,0,0,.008.818l1.539,1.27a.671.671,0,0,0,.762.065l7.214-4.133a3.894,3.894,0,0,0,1.822-1.563l4.848-11.949Zm0,0" transform="translate(-28.372 -194.028)" fill="#38627c"/>
        <path id="Path_1090255" data-name="Path 1090255" d="M87.441,231.844l-.117.517a7.763,7.763,0,0,0,3.7,8.439l4.336,2.492a2.8,2.8,0,0,1,1.392,2.678l-.465,5.118a.207.207,0,0,0,.207.226h2.9a.207.207,0,0,0,.2-.16l1.806-7.705a2.2,2.2,0,0,0-.2-1.87l-6.287-8.871Zm0,0" transform="translate(-73.08 -194.028)" fill="#4f7693"/>
        <path id="Path_1090256" data-name="Path 1090256" d="M157.528,119.278l-2.564,1.481a2.52,2.52,0,0,1-3.442-.922l-.586-1.015a2.52,2.52,0,0,1,.922-3.441l2.564-1.481a2.52,2.52,0,0,1,3.442.922l.586,1.015A2.52,2.52,0,0,1,157.528,119.278Zm0,0" transform="translate(-126.308 -94.824)" fill="#fedfc5"/>
        <path id="Path_1090257" data-name="Path 1090257" d="M8.164,40.825,40.186,21.739a1.012,1.012,0,0,1,1.374.329L51.24,37.39,78.66,21.4a.359.359,0,0,1,.473.1l4.438,6.255a.538.538,0,0,0,.968-.214l3.1-16.806a.539.539,0,0,0-.463-.632L70.449,8a.539.539,0,0,0-.5.849l4.4,6.134a.358.358,0,0,1-.108.517L54.918,26.97a.315.315,0,0,1-.433-.115L44.232,8.952A1.025,1.025,0,0,0,42.658,8.7L7.636,40.107a.448.448,0,0,0,.528.718Zm0,0" transform="translate(-6.276 -6.29)" fill="#69d998"/>
        <path id="Path_1090258" data-name="Path 1090258" d="M84.693,67.7,80.255,61.45a.359.359,0,0,0-.473-.1L57.022,74.623a5.589,5.589,0,0,1-7.541-1.843l-6.8-10.763a1.012,1.012,0,0,0-1.374-.329L17.783,75.71l-10.145,9.1a.448.448,0,0,0,.528.718L40.188,66.441a1.012,1.012,0,0,1,1.374.329l9.68,15.323L78.662,66.1a.359.359,0,0,1,.473.1l4.438,6.255a.539.539,0,0,0,.969-.214l.8-4.357a.533.533,0,0,1-.651-.182Zm0,0" transform="translate(-6.278 -50.992)" fill="#3dc5a1"/>
        <path id="Path_1090259" data-name="Path 1090259" d="M373.873,367.742h-4.819a1.21,1.21,0,1,0,0,2.42h4.819a1.21,1.21,0,1,0,0-2.42Zm0,0" transform="translate(-308.513 -308.007)"/>
        <path id="Path_1090260" data-name="Path 1090260" d="M244.171,348.2l-3.882-3.4a1.21,1.21,0,1,0-1.593,1.822l3.882,3.4a1.21,1.21,0,0,0,1.593-1.821Zm0,0" transform="translate(-199.849 -288.512)"/>
        <path id="Path_1090261" data-name="Path 1090261" d="M142.438,367.742H137.62a1.21,1.21,0,0,0,0,2.42h4.819a1.21,1.21,0,1,0,0-2.42Zm0,0" transform="translate(-114.409 -308.007)"/>
        <path id="Path_1090262" data-name="Path 1090262" d="M12.738,348.2l-3.882-3.4a1.21,1.21,0,1,0-1.593,1.822l3.882,3.4a1.21,1.21,0,0,0,1.593-1.821Zm0,0" transform="translate(-5.745 -288.512)"/>
        <path id="Path_1090263" data-name="Path 1090263" d="M82.246,3.314a1.756,1.756,0,0,0-1.193-.7L64.323.514a1.748,1.748,0,0,0-1.638,2.753l3.858,5.38L48.806,19.175l-9.8-17.114a2.236,2.236,0,0,0-3.432-.553L18.222,17.069a1.21,1.21,0,1,0,1.615,1.8L37.02,3.461,47.159,21.167a1.524,1.524,0,0,0,2.1.553L68.576,10.255a1.569,1.569,0,0,0,.474-2.263l-3.5-4.886,14.5,1.818L77.361,19.469l-3.518-4.959a1.56,1.56,0,0,0-2.068-.447l-6.291,3.668a3.78,3.78,0,0,0-.645.295l-2.564,1.481a3.716,3.716,0,0,0-.648.474l-2.315,1.35a3.439,3.439,0,0,0-.5.113,1.2,1.2,0,0,0-.269.119L45.356,29.456,36.307,15.131a2.211,2.211,0,0,0-3.016-.722l-11.8,7.034-.008,0a1.2,1.2,0,0,0-.268.119L8.048,29.443l8.392-7.527a1.21,1.21,0,1,0-1.615-1.8L.552,32.916a1.657,1.657,0,0,0,1.956,2.658l.718-.428A4.181,4.181,0,0,0,8.5,36.525l5.417-2.649L11.1,47.642a.967.967,0,0,1-.319.541,1.21,1.21,0,0,0,1.567,1.843,3.392,3.392,0,0,0,1.122-1.9l.7-3.383a8.963,8.963,0,0,0,2.758,2.817l-1.046,2.58c-.154.311-.5.525-1.092.869l-.231.135L7.671,55.091l-.633-.522,1.539-1.318A1.21,1.21,0,0,0,7,51.414L4.857,53.252a1.744,1.744,0,0,0,.021,2.671L6.42,57.2a1.9,1.9,0,0,0,2.132.18l7.215-4.133.015-.009.224-.131a4.514,4.514,0,0,0,2.079-1.966q.012-.026.023-.053l.929-2.29,2.646,1.52a1.592,1.592,0,0,1,.79,1.52l-.466,5.118A1.417,1.417,0,0,0,23.418,58.5h2.9A1.411,1.411,0,0,0,27.7,57.4l1.793-7.652a3.405,3.405,0,0,0-.337-2.83c-.014-.023-.03-.046-.045-.069L23.19,38.5l3.246-8.768.006-.016a7.4,7.4,0,0,0,.424-2.274,3.669,3.669,0,0,0,2.394-.461L31.825,25.5a3.733,3.733,0,0,0,1.365-5.094L32.6,19.393a3.718,3.718,0,0,0-1.028-1.144l2.788-1.661L43.279,30.7l-2.8,1.677a1.209,1.209,0,0,0-.56,1.3,4.175,4.175,0,0,0,5.911,2.85L56.523,31.3a1.21,1.21,0,1,0-1.064-2.173L44.765,34.353a1.76,1.76,0,0,1-2.121-.454l2.947-1.764L60,23.731a1.05,1.05,0,0,1,.648.382l.051.064a3.734,3.734,0,0,0,.209.425l.586,1.015,0,0a4.924,4.924,0,0,1,0,3.281L58.359,37.37l-4.63-.536-.594-.069.03-.151a1.21,1.21,0,0,0-2.373-.475l-2.364,11.5a.977.977,0,0,1-.323.547l-5.918,5.067a1.744,1.744,0,0,0,.021,2.671l1.539,1.27a1.9,1.9,0,0,0,2.136.182L53.1,53.242l.015-.009.224-.131a4.511,4.511,0,0,0,2.079-1.966c.008-.017.016-.035.023-.052l.929-2.29,2.646,1.52a1.592,1.592,0,0,1,.789,1.52l-.465,5.118A1.417,1.417,0,0,0,60.747,58.5h2.9a1.412,1.412,0,0,0,1.38-1.094l1.794-7.652a3.409,3.409,0,0,0-.338-2.831c-.014-.023-.03-.046-.045-.068L60.52,38.5l3.246-8.768.006-.016a7.386,7.386,0,0,0,.424-2.274,3.669,3.669,0,0,0,2.394-.461L69.154,25.5a3.733,3.733,0,0,0,1.365-5.094l-.586-1.015a3.739,3.739,0,0,0-.818-.977l3.205-1.869,3.987,5.618a1.748,1.748,0,0,0,3.145-.694l3.1-16.806a1.756,1.756,0,0,0-.308-1.35ZM27.182,49.028a1.051,1.051,0,0,0-.033.118l-1.625,6.931H24.515l.366-4.025a4.017,4.017,0,0,0-1.994-3.836l-4.336-2.492a6.518,6.518,0,0,1-3.227-6.578l.923.106,4.912.569,5.947,8.39A.993.993,0,0,1,27.182,49.028ZM24.164,28.9l-3.135,8.467-4.847-.56-.377-.044.846-4.226,2.542-1.244a1.21,1.21,0,1,0-1.064-2.173l-3.068,1.5-.02.009L7.435,34.352a1.762,1.762,0,0,1-2.12-.452L22.394,23.721a1.048,1.048,0,0,1,.926.392l.05.064a3.787,3.787,0,0,0,.209.425l.586,1.016,0,0a4.924,4.924,0,0,1,0,3.281Zm6.451-5.5-2.564,1.481a1.309,1.309,0,0,1-1.708-.357,7.4,7.4,0,0,0-.808-1.5,1.311,1.311,0,0,1,.621-1.43l2.564-1.481a1.3,1.3,0,0,1,.653-.176,1.322,1.322,0,0,1,.341.045,1.3,1.3,0,0,1,.8.61l.586,1.015a1.312,1.312,0,0,1-.479,1.789ZM53.208,50.142c-.154.312-.5.525-1.093.87l-.23.135L45,55.091l-.633-.522,5.307-4.544a3.41,3.41,0,0,0,1.122-1.9l.7-3.383a8.963,8.963,0,0,0,2.759,2.816Zm11.3-1.115a1.206,1.206,0,0,0-.034.118l-1.625,6.931H61.845l.366-4.025a4.018,4.018,0,0,0-1.994-3.836l-4.336-2.492a6.518,6.518,0,0,1-3.227-6.578l1.163.134,4.672.541,5.947,8.39a1,1,0,0,1,.076.817ZM66.7,19.946a1.318,1.318,0,0,1,.341.045,1.3,1.3,0,0,1,.8.61l.586,1.015a1.311,1.311,0,0,1-.479,1.789L65.38,24.887a1.309,1.309,0,0,1-1.708-.357,7.411,7.411,0,0,0-.808-1.5,1.315,1.315,0,0,1,.263-1.126l3.313-1.932a1.3,1.3,0,0,1,.261-.03Zm0,0" transform="translate(0 0)"/>
      </g>
    </g>
  </g>
</svg>
