<svg xmlns="http://www.w3.org/2000/svg" width="98.26" height="55.826" viewBox="0 0 98.26 55.826">
  <g id="Group_1215561" data-name="Group 1215561" transform="translate(-481.74 -6705.587)">
    <g id="flecha-hacia-arriba" transform="translate(579 6596.263) rotate(90)">
      <path id="Path_1052084" data-name="Path 1052084" d="M179.965,62.264h0V42.571h11.488L171.76,6.467l-19.693,36.1h11.487V62.264Z" transform="translate(-34.523 -6.031)" fill="#ffe100"/>
      <path id="Path_1052085" data-name="Path 1052085" d="M124.5,42.571l19.693-36.1-26.257,36.1" transform="translate(-6.954 -6.031)" fill="#fff"/>
      <path id="Path_1052086" data-name="Path 1052086" d="M280.724,42.571l-26.257-36.1h0l19.693,36.1" transform="translate(-117.23 -6.031)" fill="#ffa800"/>
      <path id="Path_1052087" data-name="Path 1052087" d="M238.713,334.015h0a3.292,3.292,0,0,1-3.282,3.282h-3.282a3.292,3.292,0,0,1-3.282-3.282h0a3.292,3.292,0,0,1,3.282-3.282h3.282a3.292,3.292,0,0,1,3.282,3.282" transform="translate(-96.553 -267.936)" fill="#ffe100"/>
      <path id="Path_1052088" data-name="Path 1052088" d="M266.282,334.015A3.292,3.292,0,0,1,263,337.3h3.282a3.282,3.282,0,0,0,0-6.564H263a3.292,3.292,0,0,1,3.282,3.282" transform="translate(-124.122 -267.936)" fill="#ffa800"/>
      <path id="Path_1052089" data-name="Path 1052089" d="M215.082,337.3h3.282a3.282,3.282,0,0,1,0-6.564h-3.282a3.282,3.282,0,0,0,0,6.564" transform="translate(-82.769 -267.936)" fill="#fff"/>
      <path id="Path_1052090" data-name="Path 1052090" d="M238.713,402.282h0a3.292,3.292,0,0,1-3.282,3.282h-3.282a3.292,3.292,0,0,1-3.282-3.282h0A3.292,3.292,0,0,1,232.148,399h3.282a3.292,3.292,0,0,1,3.282,3.282" transform="translate(-96.553 -323.075)" fill="#ffe100"/>
      <path id="Path_1052091" data-name="Path 1052091" d="M266.282,402.282A3.292,3.292,0,0,1,263,405.564h3.282a3.282,3.282,0,0,0,0-6.564H263a3.292,3.292,0,0,1,3.282,3.282" transform="translate(-124.122 -323.075)" fill="#ffa800"/>
      <path id="Path_1052092" data-name="Path 1052092" d="M215.081,405.564h3.282a3.282,3.282,0,0,1,0-6.564h-3.282a3.282,3.282,0,1,0,0,6.564" transform="translate(-82.768 -323.075)" fill="#fff"/>
      <path id="Path_1052093" data-name="Path 1052093" d="M238.713,470.548h0a3.292,3.292,0,0,1-3.282,3.282h-3.282a3.292,3.292,0,0,1-3.282-3.282h0a3.292,3.292,0,0,1,3.282-3.282h3.282a3.292,3.292,0,0,1,3.282,3.282" transform="translate(-96.553 -378.212)" fill="#ffe100"/>
      <path id="Path_1052094" data-name="Path 1052094" d="M266.282,470.548A3.292,3.292,0,0,1,263,473.83h3.282a3.282,3.282,0,0,0,0-6.564H263a3.292,3.292,0,0,1,3.282,3.282" transform="translate(-124.122 -378.212)" fill="#ffa800"/>
      <path id="Path_1052095" data-name="Path 1052095" d="M215.082,473.83h3.282a3.282,3.282,0,0,1,0-6.564h-3.282a3.282,3.282,0,0,0,0,6.564" transform="translate(-82.769 -378.212)" fill="#fff"/>
      <path id="Path_1052096" data-name="Path 1052096" d="M218.037,332.046H208.19a4.923,4.923,0,0,1,0-9.846h9.846a4.923,4.923,0,0,1,0,9.846Zm-9.846-6.564a1.641,1.641,0,0,0,0,3.282h9.846a1.641,1.641,0,0,0,0-3.282Z" transform="translate(-75.877 -261.044)"/>
      <path id="Path_1052097" data-name="Path 1052097" d="M218.037,400.313H208.19a4.923,4.923,0,0,1,0-9.846h9.846a4.923,4.923,0,0,1,0,9.846Zm-9.846-6.564a1.641,1.641,0,0,0,0,3.282h9.846a1.641,1.641,0,0,0,0-3.282Z" transform="translate(-75.877 -316.183)"/>
      <path id="Path_1052098" data-name="Path 1052098" d="M218.037,468.579H208.19a4.923,4.923,0,0,1,0-9.846h9.846a4.923,4.923,0,0,1,0,9.846Zm-9.846-6.564a1.641,1.641,0,1,0,0,3.282h9.846a1.641,1.641,0,1,0,0-3.282Z" transform="translate(-75.877 -371.32)"/>
      <path id="Path_1052099" data-name="Path 1052099" d="M145.442,57.873H129.031a1.55,1.55,0,0,1-1.641-1.641V38.18H110.98a1.724,1.724,0,0,1-1.477-.821,1.51,1.51,0,0,1,.164-1.641l26.257-36.1a1.708,1.708,0,0,1,2.626,0l9.518,13.129a1.765,1.765,0,0,1-.328,2.3,2.032,2.032,0,0,1-2.3-.492L137.236,3.226,114.262,34.9h14.77a1.55,1.55,0,0,1,1.641,1.641V54.591H143.8V36.539a1.55,1.55,0,0,1,1.641-1.641h14.77l-7.877-11a1.641,1.641,0,1,1,2.626-1.969l9.846,13.457a1.821,1.821,0,0,1-1.313,2.79H147.083V56.232A1.55,1.55,0,0,1,145.442,57.873Z"/>
      <path id="Path_1052100" data-name="Path 1052100" d="M313.347,90.881a1.641,1.641,0,1,0,1.641-1.641,1.55,1.55,0,0,0-1.641,1.641" transform="translate(-164.787 -72.886)"/>
    </g>
  </g>
</svg>
