<svg xmlns="http://www.w3.org/2000/svg" xmlns:xlink="http://www.w3.org/1999/xlink" width="108" height="108" viewBox="0 0 108 108">
  <defs>
    <filter id="Path_978624" x="0" y="0" width="108" height="108" filterUnits="userSpaceOnUse">
      <feOffset dy="3" input="SourceAlpha"/>
      <feGaussianBlur stdDeviation="3" result="blur"/>
      <feFlood flood-opacity="0.161"/>
      <feComposite operator="in" in2="blur"/>
      <feComposite in="SourceGraphic"/>
    </filter>
    <filter id="Path_1076716" x="0" y="0" width="108" height="108" filterUnits="userSpaceOnUse">
      <feOffset dy="3" input="SourceAlpha"/>
      <feGaussianBlur stdDeviation="3" result="blur-2"/>
      <feFlood flood-opacity="0.161"/>
      <feComposite operator="in" in2="blur-2"/>
      <feComposite in="SourceGraphic"/>
    </filter>
  </defs>
  <g id="Group_1215564" data-name="Group 1215564" transform="translate(-197 -7735)">
    <g id="Group_1214542" data-name="Group 1214542" transform="translate(0 72)">
      <g id="Group_1209415" data-name="Group 1209415" transform="translate(206 7669)">
        <g id="Group_1208078" data-name="Group 1208078" transform="translate(0)">
          <g id="Group_1181203" data-name="Group 1181203">
            <g id="Group_1172348" data-name="Group 1172348">
              <g id="Group_1171897" data-name="Group 1171897">
                <g id="Group_1171052" data-name="Group 1171052">
                  <g id="Group_1164581" data-name="Group 1164581">
                    <g id="Group_1144123" data-name="Group 1144123">
                      <g transform="matrix(1, 0, 0, 1, -9, -6)" filter="url(#Path_978624)">
                        <g id="Path_978624-2" data-name="Path 978624" transform="translate(9 6)" fill="#fbfbf9">
                          <path d="M 45 88.5 C 39.12687683105469 88.5 33.43022537231445 87.35007476806641 28.06830024719238 85.08217620849609 C 22.88852500915527 82.89131164550781 18.23629951477051 79.75458526611328 14.2408504486084 75.75914764404297 C 10.24541282653809 71.76370239257812 7.108687400817871 67.11147308349609 4.917825222015381 61.93170166015625 C 2.649924993515015 56.56977462768555 1.5 50.87312316894531 1.5 45 C 1.5 39.12687683105469 2.649924993515015 33.43022537231445 4.917825222015381 28.06830024719238 C 7.108687400817871 22.88852500915527 10.24541282653809 18.23629951477051 14.2408504486084 14.2408504486084 C 18.23629951477051 10.24541282653809 22.88852500915527 7.108687400817871 28.06830024719238 4.917825222015381 C 33.43022537231445 2.649924993515015 39.12687683105469 1.5 45 1.5 C 50.87312316894531 1.5 56.56977462768555 2.649924993515015 61.93170166015625 4.917825222015381 C 67.11147308349609 7.108687400817871 71.76370239257812 10.24541282653809 75.75914764404297 14.2408504486084 C 79.75458526611328 18.23629951477051 82.89131164550781 22.88852500915527 85.08217620849609 28.06830024719238 C 87.35007476806641 33.43022537231445 88.5 39.12687683105469 88.5 45 C 88.5 50.87312316894531 87.35007476806641 56.56977462768555 85.08217620849609 61.93170166015625 C 82.89131164550781 67.11147308349609 79.75458526611328 71.76370239257812 75.75914764404297 75.75914764404297 C 71.76370239257812 79.75458526611328 67.11147308349609 82.89131164550781 61.93170166015625 85.08217620849609 C 56.56977462768555 87.35007476806641 50.87312316894531 88.5 45 88.5 Z" stroke="none"/>
                          <path d="M 45 3 C 39.32871246337891 3 33.82865524291992 4.110054016113281 28.65262985229492 6.299339294433594 C 23.65165710449219 8.414573669433594 19.15968322753906 11.44334411621094 15.301513671875 15.301513671875 C 11.44334411621094 19.15968322753906 8.414573669433594 23.65165710449219 6.299339294433594 28.65262985229492 C 4.110054016113281 33.82865524291992 3 39.32871246337891 3 45 C 3 50.67128753662109 4.110054016113281 56.17134475708008 6.299339294433594 61.34737396240234 C 8.414573669433594 66.34834289550781 11.44334411621094 70.84031677246094 15.301513671875 74.698486328125 C 19.15968322753906 78.55665588378906 23.65165710449219 81.58542633056641 28.65262985229492 83.70066070556641 C 33.82865524291992 85.88994598388672 39.32871246337891 87 45 87 C 50.67128753662109 87 56.17134475708008 85.88994598388672 61.34737396240234 83.70066070556641 C 66.34834289550781 81.58542633056641 70.84031677246094 78.55665588378906 74.698486328125 74.698486328125 C 78.55665588378906 70.84031677246094 81.58542633056641 66.34834289550781 83.70066070556641 61.34737396240234 C 85.88994598388672 56.17134475708008 87 50.67128753662109 87 45 C 87 39.32871246337891 85.88994598388672 33.82865524291992 83.70066070556641 28.65262985229492 C 81.58542633056641 23.65165710449219 78.55665588378906 19.15968322753906 74.698486328125 15.301513671875 C 70.84031677246094 11.44334411621094 66.34834289550781 8.414573669433594 61.34737396240234 6.299339294433594 C 56.17134475708008 4.110054016113281 50.67128753662109 3 45 3 M 45 0 C 69.85281372070312 0 90 20.14718627929688 90 45 C 90 69.85281372070312 69.85281372070312 90 45 90 C 20.14718627929688 90 0 69.85281372070312 0 45 C 0 20.14718627929688 20.14718627929688 0 45 0 Z" stroke="none" fill="#7b776f"/>
                        </g>
                      </g>
                      <g transform="matrix(1, 0, 0, 1, -9, -6)" filter="url(#Path_1076716)">
                        <g id="Path_1076716-2" data-name="Path 1076716" transform="translate(9 6)" fill="#fbfbf9">
                          <path d="M 45 88.5 C 39.12687683105469 88.5 33.43022537231445 87.35007476806641 28.06830024719238 85.08217620849609 C 22.88852500915527 82.89131164550781 18.23629951477051 79.75458526611328 14.2408504486084 75.75914764404297 C 10.24541282653809 71.76370239257812 7.108687400817871 67.11147308349609 4.917825222015381 61.93170166015625 C 2.649924993515015 56.56977462768555 1.5 50.87312316894531 1.5 45 C 1.5 39.12687683105469 2.649924993515015 33.43022537231445 4.917825222015381 28.06830024719238 C 7.108687400817871 22.88852500915527 10.24541282653809 18.23629951477051 14.2408504486084 14.2408504486084 C 18.23629951477051 10.24541282653809 22.88852500915527 7.108687400817871 28.06830024719238 4.917825222015381 C 33.43022537231445 2.649924993515015 39.12687683105469 1.5 45 1.5 C 50.87312316894531 1.5 56.56977462768555 2.649924993515015 61.93170166015625 4.917825222015381 C 67.11147308349609 7.108687400817871 71.76370239257812 10.24541282653809 75.75914764404297 14.2408504486084 C 79.75458526611328 18.23629951477051 82.89131164550781 22.88852500915527 85.08217620849609 28.06830024719238 C 87.35007476806641 33.43022537231445 88.5 39.12687683105469 88.5 45 C 88.5 50.87312316894531 87.35007476806641 56.56977462768555 85.08217620849609 61.93170166015625 C 82.89131164550781 67.11147308349609 79.75458526611328 71.76370239257812 75.75914764404297 75.75914764404297 C 71.76370239257812 79.75458526611328 67.11147308349609 82.89131164550781 61.93170166015625 85.08217620849609 C 56.56977462768555 87.35007476806641 50.87312316894531 88.5 45 88.5 Z" stroke="none"/>
                          <path d="M 45 3 C 39.32871246337891 3 33.82865524291992 4.110054016113281 28.65262985229492 6.299339294433594 C 23.65165710449219 8.414573669433594 19.15968322753906 11.44334411621094 15.301513671875 15.301513671875 C 11.44334411621094 19.15968322753906 8.414573669433594 23.65165710449219 6.299339294433594 28.65262985229492 C 4.110054016113281 33.82865524291992 3 39.32871246337891 3 45 C 3 50.67128753662109 4.110054016113281 56.17134475708008 6.299339294433594 61.34737396240234 C 8.414573669433594 66.34834289550781 11.44334411621094 70.84031677246094 15.301513671875 74.698486328125 C 19.15968322753906 78.55665588378906 23.65165710449219 81.58542633056641 28.65262985229492 83.70066070556641 C 33.82865524291992 85.88994598388672 39.32871246337891 87 45 87 C 50.67128753662109 87 56.17134475708008 85.88994598388672 61.34737396240234 83.70066070556641 C 66.34834289550781 81.58542633056641 70.84031677246094 78.55665588378906 74.698486328125 74.698486328125 C 78.55665588378906 70.84031677246094 81.58542633056641 66.34834289550781 83.70066070556641 61.34737396240234 C 85.88994598388672 56.17134475708008 87 50.67128753662109 87 45 C 87 39.32871246337891 85.88994598388672 33.82865524291992 83.70066070556641 28.65262985229492 C 81.58542633056641 23.65165710449219 78.55665588378906 19.15968322753906 74.698486328125 15.301513671875 C 70.84031677246094 11.44334411621094 66.34834289550781 8.414573669433594 61.34737396240234 6.299339294433594 C 56.17134475708008 4.110054016113281 50.67128753662109 3 45 3 M 45 0 C 69.85281372070312 0 90 20.14718627929688 90 45 C 90 69.85281372070312 69.85281372070312 90 45 90 C 20.14718627929688 90 0 69.85281372070312 0 45 C 0 20.14718627929688 20.14718627929688 0 45 0 Z" stroke="none" fill="#7b776f"/>
                        </g>
                      </g>
                    </g>
                  </g>
                </g>
              </g>
            </g>
          </g>
        </g>
      </g>
      <g id="personas" transform="translate(208.444 7652.873)">
        <g id="Group_1214540" data-name="Group 1214540" transform="translate(1.24 33.304)">
          <path id="Path_1077314" data-name="Path 1077314" d="M340.3,345.556l-6.492-2.164A2.651,2.651,0,0,1,332,340.877V336.16h-7.006v4.717c0,1.141-1.677,2.154-2.76,2.515l-6.492,2.164a5.3,5.3,0,0,0-3.626,5.03v4.132h31.815v-4.132A5.3,5.3,0,0,0,340.3,345.556Z" transform="translate(-261.74 -287.113)" fill="#fbbd80"/>
          <path id="Path_1077315" data-name="Path 1077315" d="M383.062,340.877V336.16h-7.954v4.717a2.651,2.651,0,0,1-1.813,2.515l1.259,3.773a6.594,6.594,0,0,0,3.694-3.086,2.481,2.481,0,0,1,1.93-1.335,11.72,11.72,0,0,0,3.16-.758A2.6,2.6,0,0,1,383.062,340.877Z" transform="translate(-312.805 -287.113)" fill="#f4aa73"/>
          <path id="Path_1077316" data-name="Path 1077316" d="M340.3,384.213l-5.212-1.737-5.6,3.733a2.651,2.651,0,0,1-2.941,0l-5.6-3.733-5.212,1.737a5.3,5.3,0,0,0-3.625,5.03v4.132l13.256,3.977h18.558v-8.109A5.3,5.3,0,0,0,340.3,384.213Z" transform="translate(-261.741 -325.769)" fill="#b8b2b8"/>
          <path id="Path_1077317" data-name="Path 1077317" d="M323.069,384.564a5.228,5.228,0,0,0,.622-.26l-2.742-1.828-5.212,1.737a5.3,5.3,0,0,0-3.626,5.03v4.132a3.965,3.965,0,0,0,2.651,3.733v-7.865a2.647,2.647,0,0,1,1.814-2.515Z" transform="translate(-261.739 -325.769)" fill="#4e3d4d"/>
          <path id="Path_1077318" data-name="Path 1077318" d="M364.124,231.951h-5.3a6.628,6.628,0,0,0-6.628,6.628v.776a4.526,4.526,0,0,0,1.326,3.2h15.907a4.526,4.526,0,0,0,1.326-3.2v-.776A6.628,6.628,0,0,0,364.124,231.951Z" transform="translate(-295.192 -200.136)" fill="#d48c64"/>
          <path id="Path_1077319" data-name="Path 1077319" d="M357.5,232.759a6.63,6.63,0,0,0-5.3,6.494v.776a4.526,4.526,0,0,0,1.326,3.2H357.5V232.759Z" transform="translate(-295.192 -200.811)" fill="#c6805d"/>
          <path id="Path_1077320" data-name="Path 1077320" d="M360.8,275.672l2.308-1.538a2.652,2.652,0,0,1,2.309-.309l10.7,3.567v1.326a7.954,7.954,0,1,1-15.907,0v-1.942A1.326,1.326,0,0,1,360.8,275.672Z" transform="translate(-301.882 -234.972)" fill="#ffd18d"/>
          <path id="Path_1077321" data-name="Path 1077321" d="M364.187,278.886v-4.995a2.645,2.645,0,0,0-1.079.412l-2.308,1.538a1.325,1.325,0,0,0-.59,1.1v1.942a7.926,7.926,0,0,0,9.942,7.693A7.95,7.95,0,0,1,364.187,278.886Z" transform="translate(-301.883 -235.141)" fill="#fbbd80"/>
          <path id="Path_1077322" data-name="Path 1077322" d="M35.689,345.556,29.2,343.392c-1.083-.361-2.373-1.374-2.373-2.515l.56-4.717H19.43v4.717a2.651,2.651,0,0,1-1.813,2.515l-6.492,2.164a5.3,5.3,0,0,0-3.626,5.03v4.132l31.815-.015v-4.117A5.3,5.3,0,0,0,35.689,345.556Z" transform="translate(-7.5 -287.113)" fill="#af6e4d"/>
          <path id="Path_1077323" data-name="Path 1077323" d="M78.449,340.877V336.16H70.5v4.717a2.651,2.651,0,0,1-1.813,2.515l1.259,3.773a6.594,6.594,0,0,0,3.694-3.086,2.481,2.481,0,0,1,1.93-1.335,11.719,11.719,0,0,0,3.16-.758A2.6,2.6,0,0,1,78.449,340.877Z" transform="translate(-58.565 -287.113)" fill="#845252"/>
          <path id="Path_1077324" data-name="Path 1077324" d="M35.689,384.213l-5.212-1.737-5.6,3.733a2.651,2.651,0,0,1-2.941,0l-5.6-3.733-5.212,1.737a5.3,5.3,0,0,0-3.626,5.03l3.977,8.109H26.058l13.256-8.109A5.3,5.3,0,0,0,35.689,384.213Z" transform="translate(-7.5 -325.769)" fill="#887f88"/>
          <path id="Path_1077325" data-name="Path 1077325" d="M59.511,231.951h-5.3a6.628,6.628,0,0,0-6.628,6.628v.776a4.526,4.526,0,0,0,1.326,3.2H64.813a4.526,4.526,0,0,0,1.326-3.2v-.776A6.628,6.628,0,0,0,59.511,231.951Z" transform="translate(-40.952 -200.136)" fill="#615260"/>
          <path id="Path_1077326" data-name="Path 1077326" d="M52.883,232.759a6.63,6.63,0,0,0-5.3,6.494v.776a4.526,4.526,0,0,0,1.326,3.2h3.977V232.759Z" transform="translate(-40.952 -200.811)" fill="#4e3d4d"/>
          <path id="Path_1077327" data-name="Path 1077327" d="M56.186,275.672l2.308-1.538a2.652,2.652,0,0,1,2.309-.309l10.7,3.567v1.326a7.954,7.954,0,1,1-15.907,0v-1.942A1.326,1.326,0,0,1,56.186,275.672Z" transform="translate(-47.642 -234.972)" fill="#c6805d"/>
          <path id="Path_1077328" data-name="Path 1077328" d="M59.574,278.886v-4.995a2.646,2.646,0,0,0-1.079.412l-2.308,1.538a1.326,1.326,0,0,0-.59,1.1v1.942a7.926,7.926,0,0,0,9.942,7.693A7.95,7.95,0,0,1,59.574,278.886Z" transform="translate(-47.643 -235.141)" fill="#af6e4d"/>
          <path id="Path_1077329" data-name="Path 1077329" d="M161.17,294.746l-9.563-3.187a3.977,3.977,0,0,1-2.719-3.773v-7.739H135.632v7.739a3.977,3.977,0,0,1-2.719,3.773l-9.562,3.187a5.3,5.3,0,0,0-3.626,5.03v8.109a3.977,3.977,0,0,0,3.977,3.977h37.117a3.977,3.977,0,0,0,3.977-3.977v-8.109A5.3,5.3,0,0,0,161.17,294.746Z" transform="translate(-101.167 -240.279)" fill="#e29a6c"/>
          <path id="Path_1077330" data-name="Path 1077330" d="M202.2,280.048v7.738a3.977,3.977,0,0,1-2.719,3.773l1.256,3.773a7.967,7.967,0,0,0,5.145-5.379A2.7,2.7,0,0,1,208.564,288a16.9,16.9,0,0,0,6.887-1.352v-6.6H202.2Z" transform="translate(-167.729 -240.28)" fill="#d48c64"/>
          <path id="Path_1077331" data-name="Path 1077331" d="M210.641,345.79,203.4,352.8a1.326,1.326,0,0,1-1.843,0l-7.244-7.006-2.44,7.687,6.628,13.256h7.954l6.628-13.256Z" transform="translate(-161.382 -295.15)" fill="#eceaec"/>
          <path id="Path_1077332" data-name="Path 1077332" d="M200.1,349.189l.734-.245a6.589,6.589,0,0,0,2.251-1.311l-1.907-1.844Z" transform="translate(-168.249 -295.15)" fill="#dbd8db"/>
          <path id="Path_1077333" data-name="Path 1077333" d="M134.1,345.79a3.96,3.96,0,0,1-1.182.64l-9.562,3.187a5.3,5.3,0,0,0-3.626,5.03l3.977,12.086h9.279Z" transform="translate(-101.167 -295.15)" fill="#615260"/>
          <path id="Path_1077334" data-name="Path 1077334" d="M123.7,354.649a1.326,1.326,0,0,1,.908-1.259l9.559-3.188a7.324,7.324,0,0,0,.746-.316l-.819-4.1a3.963,3.963,0,0,1-1.182.64l-9.562,3.187a5.3,5.3,0,0,0-3.626,5.03v12.086H123.7V354.649Z" transform="translate(-101.168 -295.15)" fill="#4e3d4d"/>
          <circle id="Ellipse_13444" data-name="Ellipse 13444" cx="9.279" cy="9.279" r="9.279" transform="translate(31.815 0)" fill="#845252"/>
          <path id="Path_1077335" data-name="Path 1077335" d="M167.636,114.173h-10.6a13.256,13.256,0,0,1,0-26.512h10.6a13.256,13.256,0,0,1,0,26.512Z" transform="translate(-121.239 -79.707)" fill="#70393c"/>
          <path id="Path_1077336" data-name="Path 1077336" d="M189.1,176.977a13.256,13.256,0,0,1-13.256-13.256v-2.651a9.279,9.279,0,0,1,9.279-9.279h17.233v11.93A13.256,13.256,0,0,1,189.1,176.977Z" transform="translate(-148.001 -133.231)" fill="#f4aa73"/>
          <path id="Path_1077337" data-name="Path 1077337" d="M181.141,163.72v-3.977a7.954,7.954,0,0,1,7.954-7.954h-3.977a9.279,9.279,0,0,0-9.279,9.279v2.651a13.263,13.263,0,0,0,15.907,12.99A13.26,13.26,0,0,1,181.141,163.72Z" transform="translate(-148.001 -133.231)" fill="#e29a6c"/>
          <path id="Path_1077338" data-name="Path 1077338" d="M213.3,100.917a13.256,13.256,0,0,0-13.256-13.256h-10.6a13.173,13.173,0,0,0-6.835,1.914c2.136,4.92,7.893,13.844,21.836,15.156A3.956,3.956,0,0,1,208,108.68V111.5a13.223,13.223,0,0,0,5.3-10.587Z" transform="translate(-153.645 -79.707)" fill="#7a4646"/>
          <path id="Path_1077339" data-name="Path 1077339" d="M169.149,345.79a3.961,3.961,0,0,1-1.182.64l-3.6,1.2-2.36,4.658A2.651,2.651,0,0,0,162,354.67l6.031,12.063h5.3Z" transform="translate(-136.22 -295.15)" fill="#736572"/>
          <path id="Path_1077340" data-name="Path 1077340" d="M305.377,345.79a3.961,3.961,0,0,0,1.182.64l9.562,3.187a5.3,5.3,0,0,1,3.626,5.03v12.085H306.491Z" transform="translate(-256.118 -295.15)" fill="#615260"/>
          <g id="Group_1214539" data-name="Group 1214539" transform="translate(0 50.64)">
            <path id="Path_1077341" data-name="Path 1077341" d="M284.236,345.79a3.962,3.962,0,0,0,1.182.64l3.6,1.2,2.36,4.658a2.651,2.651,0,0,1,.006,2.384l-6.031,12.063h-5.3Z" transform="translate(-234.977 -345.79)" fill="#736572"/>
            <path id="Path_1077342" data-name="Path 1077342" d="M11.477,389.242a1.322,1.322,0,0,1,.908-1.257l6.492-2.164a6.569,6.569,0,0,0,.781-.324l.7-.34-4.022-2.681-5.212,1.737a5.3,5.3,0,0,0-3.626,5.03v8.109h3.977Z" transform="translate(-7.5 -376.408)" fill="#736572"/>
          </g>
        </g>
        <g id="Group_1214541" data-name="Group 1214541" transform="translate(0 32.064)">
          <path id="Path_1077343" data-name="Path 1077343" d="M155.3,86.595l-9.562-3.187a2.733,2.733,0,0,1-1.871-2.6V75.963a14.52,14.52,0,0,0,6.483-10.123,14.5,14.5,0,0,0-3.962-24.9,10.518,10.518,0,0,0-20.778,0,14.5,14.5,0,0,0-3.962,24.9,14.52,14.52,0,0,0,6.483,10.123v4.848a2.733,2.733,0,0,1-1.871,2.6L116.7,86.595a6.534,6.534,0,0,0-4.474,6.207v12.086a1.24,1.24,0,1,0,2.481,0V92.8a4.057,4.057,0,0,1,2.778-3.854l3.078-1.026-.984,1.969a3.91,3.91,0,0,0,0,3.481l6.035,12.071a1.24,1.24,0,1,0,2.219-1.109L121.8,92.262a1.419,1.419,0,0,1,0-1.262l2.091-4.186,3.054-1.018,3.867,19.335a1.24,1.24,0,0,0,2.433-.486l-3.425-17.125,5.336,5.016a1.24,1.24,0,0,0,1.7,0l5.336-5.016-3.425,17.125a1.24,1.24,0,1,0,2.433.486L145.062,85.8l3.054,1.018L150.207,91a1.419,1.419,0,0,1,0,1.262l-6.035,12.071a1.24,1.24,0,1,0,2.219,1.109l6.035-12.071a3.91,3.91,0,0,0,0-3.481l-.984-1.969,3.078,1.026A4.057,4.057,0,0,1,157.3,92.8v12.086a1.24,1.24,0,1,0,2.481,0V92.8A6.535,6.535,0,0,0,155.3,86.595ZM136,34.545a8.083,8.083,0,0,1,7.682,5.669,14.523,14.523,0,0,0-2.379-.2H130.7a14.521,14.521,0,0,0-2.379.2A8.083,8.083,0,0,1,136,34.545ZM123.986,63.793V60.915a7.761,7.761,0,0,1,2.288-5.524,1.24,1.24,0,1,0-1.754-1.754,10.225,10.225,0,0,0-3.015,7.278v1.344a12.013,12.013,0,0,1,1.728-17.149c1.167,2.532,5.632,10.461,16.832,13.472a1.24,1.24,0,0,0,.644-2.4A23.877,23.877,0,0,1,128.5,48.651a20.221,20.221,0,0,1-3.15-4.892A11.939,11.939,0,0,1,130.7,42.5h10.6A12.03,12.03,0,0,1,153.32,54.514a11.909,11.909,0,0,1-2.822,7.745,5.172,5.172,0,0,0-4.69-5.167,1.24,1.24,0,1,0-.234,2.469,2.736,2.736,0,0,1,2.444,2.715v1.518a12.016,12.016,0,1,1-24.032,0ZM136,89.929,129.6,83.907a5.208,5.208,0,0,0,1.018-3.1v-3.56a14.491,14.491,0,0,0,10.776,0v3.56a5.208,5.208,0,0,0,1.018,3.1Z" transform="translate(-93.667 -32.064)"/>
          <path id="Path_1077344" data-name="Path 1077344" d="M14.411,247.641V246.4a9.2,9.2,0,0,0,11.93-8.778v-.848a5.722,5.722,0,0,0,1.326-3.678v-.777a7.877,7.877,0,0,0-7.868-7.868H14.5a7.877,7.877,0,0,0-7.868,7.868v.777a5.722,5.722,0,0,0,1.326,3.678v.848a9.189,9.189,0,0,0,3.977,7.565v2.455a1.409,1.409,0,0,1-.965,1.338l-6.492,2.164A6.535,6.535,0,0,0,0,257.351v8.109a1.24,1.24,0,1,0,2.481,0v-8.109A4.057,4.057,0,0,1,5.258,253.5l4.636-1.545,3.914,2.609a1.24,1.24,0,0,0,1.376-2.064l-2.469-1.646A3.884,3.884,0,0,0,14.411,247.641Zm-5.3-15.322a5.394,5.394,0,0,1,5.388-5.388h5.3a5.394,5.394,0,0,1,5.388,5.388v.777a3.261,3.261,0,0,1-.508,1.752l-11.116-3.705a1.241,1.241,0,0,0-1.08.145l-3.344,2.23a3.322,3.322,0,0,1-.03-.421v-.777Zm1.326,5.3v-1.988l2.92-1.947,10.507,3.5v.432a6.713,6.713,0,0,1-13.427,0Z" transform="translate(0 -192.636)"/>
          <path id="Path_1077345" data-name="Path 1077345" d="M41.321,432.87a1.24,1.24,0,0,0-1.24,1.24v5.3a1.24,1.24,0,1,0,2.481,0v-5.3A1.24,1.24,0,0,0,41.321,432.87Z" transform="translate(-33.453 -366.59)"/>
          <path id="Path_1077346" data-name="Path 1077346" d="M367.886,251.144l-6.492-2.164a1.409,1.409,0,0,1-.965-1.338v-2.455a9.189,9.189,0,0,0,3.977-7.565v-.848a5.722,5.722,0,0,0,1.326-3.678v-.777a7.877,7.877,0,0,0-7.868-7.868h-5.3a7.877,7.877,0,0,0-7.868,7.868v.777a5.721,5.721,0,0,0,1.326,3.678v.848a9.2,9.2,0,0,0,11.93,8.778v1.242a3.884,3.884,0,0,0,1.7,3.21l-2.469,1.646a1.24,1.24,0,1,0,1.376,2.064l3.914-2.609L367.1,253.5a4.057,4.057,0,0,1,2.778,3.854v8.109a1.24,1.24,0,1,0,2.481,0v-8.109A6.535,6.535,0,0,0,367.886,251.144Zm-20.713-18.825a5.394,5.394,0,0,1,5.388-5.388h5.3a5.394,5.394,0,0,1,5.388,5.388v.777a3.261,3.261,0,0,1-.508,1.752l-11.115-3.705a1.241,1.241,0,0,0-1.08.145l-3.344,2.23a3.325,3.325,0,0,1-.03-.421Zm1.326,5.3v-1.988l2.92-1.947,10.507,3.5v.432a6.713,6.713,0,0,1-13.427,0Z" transform="translate(-287.692 -192.636)"/>
          <path id="Path_1077347" data-name="Path 1077347" d="M458.159,432.87a1.24,1.24,0,0,0-1.24,1.24v5.3a1.24,1.24,0,1,0,2.48,0v-5.3A1.24,1.24,0,0,0,458.159,432.87Z" transform="translate(-381.359 -366.59)"/>
        </g>
      </g>
    </g>
  </g>
</svg>
