<svg xmlns="http://www.w3.org/2000/svg" xmlns:xlink="http://www.w3.org/1999/xlink" width="93.934" height="93.934" viewBox="0 0 93.934 93.934">
  <defs>
    <filter id="Path_982547" x="0" y="0" width="93.934" height="93.934" filterUnits="userSpaceOnUse">
      <feOffset dy="3" input="SourceAlpha"/>
      <feGaussianBlur stdDeviation="3" result="blur"/>
      <feFlood flood-opacity="0.161"/>
      <feComposite operator="in" in2="blur"/>
      <feComposite in="SourceGraphic"/>
    </filter>
  </defs>
  <g id="Group_1215594" data-name="Group 1215594" transform="translate(-1130.066 -5021)">
    <g id="Group_1214656" data-name="Group 1214656" transform="translate(0 -257)">
      <g id="Group_1214438" data-name="Group 1214438" transform="translate(938 -2588.674)">
        <g id="Group_1183196" data-name="Group 1183196" transform="translate(1 1016.674)">
          <g id="Group_1179610" data-name="Group 1179610" transform="translate(8 4723.467)">
            <g id="Group_1175227" data-name="Group 1175227" transform="translate(-5.967 140.533)">
              <g id="Group_1167337" data-name="Group 1167337" transform="translate(198.033 1992)">
                <g id="Group_1166720" data-name="Group 1166720">
                  <g id="Group_1164305" data-name="Group 1164305">
                    <g id="Group_1163948" data-name="Group 1163948">
                      <g id="Group_1158168" data-name="Group 1158168">
                        <g id="Group_1152576" data-name="Group 1152576">
                          <g id="Group_1148633" data-name="Group 1148633">
                            <g id="Group_1148525" data-name="Group 1148525">
                              <g transform="matrix(1, 0, 0, 1, -9, -6)" filter="url(#Path_982547)">
                                <g id="Path_982547-2" data-name="Path 982547" transform="translate(9 6)" fill="#f5f5f5">
                                  <path d="M 37.966796875 74.43359375 C 33.04315185546875 74.43359375 28.26757431030273 73.46962738037109 23.77274131774902 71.56847381591797 C 19.43047523498535 69.73184967041016 15.53040790557861 67.10224914550781 12.18087482452393 63.75271987915039 C 8.831341743469238 60.4031867980957 6.201741218566895 56.50312042236328 4.365118980407715 52.16086196899414 C 2.463963508605957 47.66601943969727 1.499996900558472 42.89044189453125 1.499996900558472 37.966796875 C 1.499996900558472 33.04315185546875 2.463963508605957 28.26757431030273 4.365118980407715 23.77274131774902 C 6.201741218566895 19.43047523498535 8.831341743469238 15.53040790557861 12.18087482452393 12.18087482452393 C 15.53040790557861 8.831341743469238 19.43047523498535 6.201741218566895 23.77274131774902 4.365118980407715 C 28.26757431030273 2.463963508605957 33.04315185546875 1.499996900558472 37.966796875 1.499996900558472 C 42.89044189453125 1.499996900558472 47.66601943969727 2.463963508605957 52.16086196899414 4.365118980407715 C 56.50312042236328 6.201741218566895 60.4031867980957 8.831341743469238 63.75271987915039 12.18087482452393 C 67.10224914550781 15.53040790557861 69.73184967041016 19.43047523498535 71.56847381591797 23.77274131774902 C 73.46962738037109 28.26757431030273 74.43359375 33.04315185546875 74.43359375 37.966796875 C 74.43359375 42.89044189453125 73.46962738037109 47.66601943969727 71.56847381591797 52.16086196899414 C 69.73184967041016 56.50313186645508 67.10224914550781 60.4031867980957 63.75271987915039 63.75271987915039 C 60.4031867980957 67.10224914550781 56.50313186645508 69.73184967041016 52.16086196899414 71.56847381591797 C 47.66601943969727 73.46962738037109 42.89044189453125 74.43359375 37.966796875 74.43359375 Z" stroke="none"/>
                                  <path d="M 37.966796875 3 C 33.2449836730957 3 28.66600799560547 3.924095153808594 24.35705947875977 5.746635437011719 C 20.19359588623047 7.507637023925781 16.45379638671875 10.02928161621094 13.24153518676758 13.24153518676758 C 10.02927398681641 16.45379638671875 7.507621765136719 20.19359588623047 5.746635437011719 24.35705947875977 C 3.924095153808594 28.66600799560547 3 33.2449836730957 3 37.966796875 C 3 42.6886100769043 3.924095153808594 47.26758575439453 5.746635437011719 51.57653427124023 C 7.507621765136719 55.73999786376953 10.02927398681641 59.47979736328125 13.24153518676758 62.69205856323242 C 16.45379638671875 65.90431976318359 20.19359588623047 68.42597198486328 24.35705947875977 70.18695831298828 C 28.66600799560547 72.00949859619141 33.2449836730957 72.93359375 37.966796875 72.93359375 C 42.6886100769043 72.93359375 47.26758575439453 72.00949859619141 51.57653427124023 70.18695831298828 C 55.73999786376953 68.42597198486328 59.47979736328125 65.90431976318359 62.69205856323242 62.69205856323242 C 65.90431976318359 59.47979736328125 68.42597198486328 55.73999786376953 70.18695831298828 51.57653427124023 C 72.00949859619141 47.26758575439453 72.93359375 42.6886100769043 72.93359375 37.966796875 C 72.93359375 33.2449836730957 72.00949859619141 28.66600799560547 70.18695831298828 24.35705947875977 C 68.42597198486328 20.19359588623047 65.90431976318359 16.45379638671875 62.69205856323242 13.24153518676758 C 59.47979736328125 10.02928161621094 55.73999786376953 7.507637023925781 51.57653427124023 5.746635437011719 C 47.26758575439453 3.924095153808594 42.6886100769043 3 37.966796875 3 M 37.966796875 0 C 58.93528366088867 0 75.93359375 16.99832153320312 75.93359375 37.966796875 C 75.93359375 58.93528366088867 58.93528366088867 75.93359375 37.966796875 75.93359375 C 16.99831008911133 75.93359375 0 58.93528366088867 0 37.966796875 C 0 16.99832153320312 16.99831008911133 0 37.966796875 0 Z" stroke="none" fill="#86b60c"/>
                                </g>
                              </g>
                            </g>
                          </g>
                        </g>
                      </g>
                    </g>
                  </g>
                </g>
              </g>
            </g>
          </g>
        </g>
      </g>
      <g id="colaboracion" transform="translate(1146.483 5293.934)">
        <g id="Group_1214655" data-name="Group 1214655" transform="translate(2.05 4.05)">
          <g id="Group_1214641" data-name="Group 1214641" transform="translate(6.3 6.3)">
            <path id="Path_1077594" data-name="Path 1077594" d="M24.8,24.7V31H8.41A21.575,21.575,0,0,1,8,26.8,16.777,16.777,0,0,1,24.8,10v8.4H21.65a3.15,3.15,0,0,0,0,6.3Z" transform="translate(-8 -10)" fill="#fcd770"/>
          </g>
          <g id="Group_1214642" data-name="Group 1214642" transform="translate(56.7 12.6)">
            <path id="Path_1077595" data-name="Path 1077595" d="M62.3,17.05v10.5a1.053,1.053,0,0,1-1.05,1.05h-4.2A1.053,1.053,0,0,1,56,27.55V17.05A1.04,1.04,0,0,1,57.05,16h4.2A1.053,1.053,0,0,1,62.3,17.05Z" transform="translate(-56 -16)" fill="#75b1f2"/>
          </g>
          <g id="Group_1214643" data-name="Group 1214643" transform="translate(0 44.1)">
            <path id="Path_1077596" data-name="Path 1077596" d="M8.3,47.05v12.6a1.047,1.047,0,0,1-.116.472,1.033,1.033,0,0,1-.934.577H3.05A1.053,1.053,0,0,1,2,59.65V47.05A1.053,1.053,0,0,1,3.05,46h4.2a1.033,1.033,0,0,1,.934.577A1.047,1.047,0,0,1,8.3,47.05Z" transform="translate(-2 -46)" fill="#b4dd7f"/>
          </g>
          <g id="Group_1214644" data-name="Group 1214644" transform="translate(21 54.6)">
            <path id="Path_1077597" data-name="Path 1077597" d="M33.119,57.48a2.053,2.053,0,0,0,1.48.619,2.086,2.086,0,0,0-2.048,2.551A6.317,6.317,0,0,1,28.3,62.3,6.309,6.309,0,0,1,22,56H32.5A2.053,2.053,0,0,0,33.119,57.48Z" transform="translate(-22 -56)" fill="#aab2bd"/>
          </g>
          <g id="Group_1214645" data-name="Group 1214645" transform="translate(21 50.4)">
            <path id="Path_1077598" data-name="Path 1077598" d="M33.119,53.48a2.053,2.053,0,0,0,1.48.619,2.106,2.106,0,0,0-2.1,2.1H22V52H32.5A2.053,2.053,0,0,0,33.119,53.48Z" transform="translate(-22 -52)" fill="#ccd1d9"/>
          </g>
          <g id="Group_1214646" data-name="Group 1214646" transform="translate(6.71 27.3)">
            <path id="Path_1077599" data-name="Path 1077599" d="M27.93,34.2a3.15,3.15,0,0,1,0,6.3H24.78v4.2H17.64q-.488,0-.976.031v-.01L12.391,39.03a22,22,0,0,1-4-9.03H24.78v4.2Z" transform="translate(-8.39 -30)" fill="#fcd770"/>
          </g>
          <g id="Group_1214647" data-name="Group 1214647" transform="translate(21 27.3)">
            <path id="Path_1077600" data-name="Path 1077600" d="M38.453,44.7a19.534,19.534,0,0,0-2.373,4.2,18.359,18.359,0,0,0-.724,2.1H34.6a2.106,2.106,0,0,0-2.1,2.1H22v-.6c.147-.084.284-.179.42-.273A4.608,4.608,0,0,0,24.1,49.95l4.4-.735a2.273,2.273,0,0,0-.378-4.515H24.1V40.5h3.15a3.15,3.15,0,0,0,0-6.3H24.1V30h21l-.987,4.441a19.766,19.766,0,0,1-4.526,8.841A14.576,14.576,0,0,0,38.453,44.7Z" transform="translate(-22 -30)" fill="#fcd770"/>
          </g>
          <g id="Group_1214648" data-name="Group 1214648" transform="translate(23.1 2.1)">
            <path id="Path_1077601" data-name="Path 1077601" d="M39.55,8.73a7.706,7.706,0,0,1,5.166,6.038l.084.525a4.593,4.593,0,0,1-1.134-1.46A2.763,2.763,0,0,0,41.188,12.3,2.474,2.474,0,0,0,38.7,14.788a2.568,2.568,0,0,0,.326,1.239,13.434,13.434,0,0,0,4.924,4.956,13.664,13.664,0,0,0,3.234,1.344L47.1,22.8V27H30.3V20.7H27.15a3.15,3.15,0,0,1,0-6.3H30.3V6h4.221a1.824,1.824,0,0,0,1.228,1.47Z" transform="translate(-24 -6)" fill="#fcd770"/>
          </g>
          <g id="Group_1214649" data-name="Group 1214649" transform="translate(35.081 42)">
            <path id="Path_1077602" data-name="Path 1077602" d="M43.81,44.619a2.053,2.053,0,0,1,.619,1.481,2.106,2.106,0,0,1-2.1,2.1H35.41A19.534,19.534,0,0,1,37.783,44h4.547A2.053,2.053,0,0,1,43.81,44.619Z" transform="translate(-35.41 -44)" fill="#f0d0b4"/>
          </g>
          <g id="Group_1214650" data-name="Group 1214650" transform="translate(31.5 52.5)">
            <path id="Path_1077603" data-name="Path 1077603" d="M38.3,54a2.115,2.115,0,0,1,2.1,2.1,2.106,2.106,0,0,1-2.1,2.1H34.1A2.115,2.115,0,0,1,32,56.1,2.106,2.106,0,0,1,34.1,54Z" transform="translate(-32 -54)" fill="#f0d0b4"/>
          </g>
          <g id="Group_1214651" data-name="Group 1214651" transform="translate(31.5 56.7)">
            <path id="Path_1077604" data-name="Path 1077604" d="M38.3,58a2.115,2.115,0,0,1,2.1,2.1,2.106,2.106,0,0,1-2.1,2.1H34.1a2.053,2.053,0,0,1-1.48-.619,2,2,0,0,1-.567-1.029A2.086,2.086,0,0,1,34.1,58Z" transform="translate(-32 -58)" fill="#f0d0b4"/>
          </g>
          <g id="Group_1214652" data-name="Group 1214652" transform="translate(31.5 48.3)">
            <path id="Path_1077605" data-name="Path 1077605" d="M39.78,50.619a2.053,2.053,0,0,1,.62,1.48,2.106,2.106,0,0,1-2.1,2.1H34.1A2.115,2.115,0,0,1,32,52.1,2.106,2.106,0,0,1,34.1,50h4.2A2.053,2.053,0,0,1,39.78,50.619Z" transform="translate(-32 -50)" fill="#f0d0b4"/>
          </g>
          <g id="Group_1214653" data-name="Group 1214653" transform="translate(6.185 42)">
            <path id="Path_1077606" data-name="Path 1077606" d="M22.705,52.4v4.2a6.309,6.309,0,0,0,6.3,6.3H17.665a18.637,18.637,0,0,1-8.358-1.974l-1.418-.7a1.047,1.047,0,0,0,.116-.472V47.15a1.047,1.047,0,0,0-.116-.472l1.418-.7a18.487,18.487,0,0,1,7.381-1.943q.488-.031.976-.031H28.827a2.273,2.273,0,0,1,.378,4.515l-4.4.735a4.608,4.608,0,0,1-1.68,2.278c-.136.094-.273.189-.42.273Z" transform="translate(-7.89 -44)" fill="#f0d0b4"/>
          </g>
          <g id="Group_1214654" data-name="Group 1214654" transform="translate(33.6)">
            <path id="Path_1077607" data-name="Path 1077607" d="M44.3,15.392l-.084-.525A7.706,7.706,0,0,0,39.05,8.83l-3.8-1.26A1.824,1.824,0,0,1,34.021,6.1,2.389,2.389,0,0,1,34,5.827,1.828,1.828,0,0,1,35.827,4h2.236a17.913,17.913,0,0,1,14.9,7.969A18.112,18.112,0,0,0,55.2,14.7l2.2,2.2a1.065,1.065,0,0,0-.3.745v10.5l-4.084-4.084A3.973,3.973,0,0,0,50.2,22.9a13.533,13.533,0,0,1-3.517-.472,13.664,13.664,0,0,1-3.234-1.344,13.434,13.434,0,0,1-4.924-4.956,2.568,2.568,0,0,1-.326-1.239A2.474,2.474,0,0,1,40.688,12.4a2.763,2.763,0,0,1,2.478,1.533,4.592,4.592,0,0,0,1.134,1.46Z" transform="translate(-34 -4)" fill="#f0d0b4"/>
          </g>
        </g>
        <path id="Path_1077608" data-name="Path 1077608" d="M64,15.6H59.8a2.058,2.058,0,0,0-.537.079L57.6,14.012a16.975,16.975,0,0,1-2.106-2.569A18.919,18.919,0,0,0,39.716,3H37.481a2.876,2.876,0,0,0-2.759,2.1H30.4v8.4H28.3a4.157,4.157,0,0,0-2.1.584V9.3H25.15A17.87,17.87,0,0,0,7.3,27.15a23.247,23.247,0,0,0,4.62,13.86l3.164,4.218a19.811,19.811,0,0,0-5.9,1.854l-.732.366A2.088,2.088,0,0,0,7.3,47.1H3.1A2.1,2.1,0,0,0,1,49.2V61.8a2.1,2.1,0,0,0,2.1,2.1H7.3a2.088,2.088,0,0,0,1.155-.349l.733.366A19.832,19.832,0,0,0,18.009,66H29.35a7.333,7.333,0,0,0,3.907-1.126A3.128,3.128,0,0,0,35.65,66h4.2a3.137,3.137,0,0,0,2.331-5.25,3.1,3.1,0,0,0,0-4.2A3.137,3.137,0,0,0,39.85,51.3h4.2a3.15,3.15,0,0,0,0-6.3H41.7a20.872,20.872,0,0,0,4.485-8.981L47.459,30.3H26.2V24H22a2.1,2.1,0,1,1,0-4.2h2.684A4.186,4.186,0,0,0,28.3,21.9h2.1v6.3H49.3V23.765A14.441,14.441,0,0,0,51.855,24a2.908,2.908,0,0,1,2.067.856L57.768,28.7A2.1,2.1,0,0,0,59.8,30.3H64a2.1,2.1,0,0,0,2.1-2.1V17.7A2.1,2.1,0,0,0,64,15.6ZM13.6,39.75a21.078,21.078,0,0,1-3.519-7.35H24.1v4.2h4.2a2.1,2.1,0,1,1,0,4.2H24.1V45H18.009c-.153,0-.308.009-.461.014ZM3.1,61.8V49.2H7.3V61.8Zm14.909,2.1a17.722,17.722,0,0,1-7.882-1.861L9.4,61.676V49.324l.727-.363A17.719,17.719,0,0,1,18.009,47.1H29.177a1.224,1.224,0,0,1,.2,2.432l-5.023.837-.2.6A3.555,3.555,0,0,1,20.78,53.4H19.9v2.1h.88A5.663,5.663,0,0,0,22,55.353v3.3a7.325,7.325,0,0,0,2.215,5.25Zm14.684-8.4a3.121,3.121,0,0,0,.626,1.05,3.121,3.121,0,0,0-.626,1.05H24.1V55.5ZM40.9,58.65a1.052,1.052,0,0,1-1.05,1.05h-4.2a1.05,1.05,0,0,1,0-2.1h4.2A1.052,1.052,0,0,1,40.9,58.65ZM24.206,59.7h8.487a3.121,3.121,0,0,0,.626,1.05,3.121,3.121,0,0,0-.816,2.07,5.218,5.218,0,0,1-8.3-3.12ZM39.85,63.9h-4.2a1.05,1.05,0,1,1,0-2.1h4.2a1.05,1.05,0,1,1,0,2.1Zm1.05-9.45a1.052,1.052,0,0,1-1.05,1.05h-4.2a1.05,1.05,0,1,1,0-2.1h4.2A1.052,1.052,0,0,1,40.9,54.45Zm4.2-6.3a1.052,1.052,0,0,1-1.05,1.05H38.8a18.858,18.858,0,0,1,1.246-2.1h4A1.052,1.052,0,0,1,45.1,48.15ZM44.841,32.4l-.7,3.165a18.757,18.757,0,0,1-4.282,8.373,20.962,20.962,0,0,0-4.22,7.365,3.145,3.145,0,0,0-2.943,2.1H25.165A5.636,5.636,0,0,0,25.9,52.24l3.818-.636a3.324,3.324,0,0,0-.546-6.6H26.2V42.9h2.1a4.2,4.2,0,0,0,0-8.4H26.2V32.4ZM22,17.7a4.2,4.2,0,1,0,0,8.4h2.1v4.2H9.649A20.8,20.8,0,0,1,9.4,27.15,15.772,15.772,0,0,1,24.1,11.435V17.7Zm25.2,8.4H32.5V19.8H28.3a2.1,2.1,0,1,1,0-4.2h4.2V7.2h2.42a2.873,2.873,0,0,0,1.65,1.413l3.8,1.268a6.631,6.631,0,0,1,2.54,1.563,3.864,3.864,0,0,0-.574-.045,3.539,3.539,0,0,0-3.073,5.3A14.529,14.529,0,0,0,47.2,23.228Zm4.655-4.2A12.423,12.423,0,0,1,41.09,15.651,1.439,1.439,0,0,1,42.34,13.5a1.707,1.707,0,0,1,1.536.95,5.849,5.849,0,0,0,5.259,3.25H51.4V15.6H49.135a3.762,3.762,0,0,1-2.217-.724l-.021-.129a8.724,8.724,0,0,0-5.86-6.858l-3.8-1.268a.78.78,0,0,1,.248-1.52h2.234a16.826,16.826,0,0,1,14.027,7.506,19,19,0,0,0,2.369,2.89l1.666,1.666a2.117,2.117,0,0,0-.078.538v7.965l-2.294-2.294A4.991,4.991,0,0,0,51.855,21.9ZM59.8,28.2V17.7H64V28.2Z" transform="translate(0 0)"/>
      </g>
    </g>
  </g>
</svg>
