<svg xmlns="http://www.w3.org/2000/svg" xmlns:xlink="http://www.w3.org/1999/xlink" width="93.934" height="93.934" viewBox="0 0 93.934 93.934">
  <defs>
    <filter id="Path_982547" x="0" y="0" width="93.934" height="93.934" filterUnits="userSpaceOnUse">
      <feOffset dy="3" input="SourceAlpha"/>
      <feGaussianBlur stdDeviation="3" result="blur"/>
      <feFlood flood-opacity="0.161"/>
      <feComposite operator="in" in2="blur"/>
      <feComposite in="SourceGraphic"/>
    </filter>
  </defs>
  <g id="Group_1215547" data-name="Group 1215547" transform="translate(-188.467 -4028.97)">
    <g id="Group_1214519" data-name="Group 1214519" transform="translate(0 24)">
      <g id="Group_1214374" data-name="Group 1214374" transform="translate(197.467 4010.97)">
        <g id="Group_1207740" data-name="Group 1207740">
          <g id="Group_1185504" data-name="Group 1185504">
            <g id="Group_1183665" data-name="Group 1183665">
              <g id="Group_1181743" data-name="Group 1181743">
                <g id="Group_1175133" data-name="Group 1175133">
                  <g id="Group_1167337" data-name="Group 1167337">
                    <g id="Group_1166720" data-name="Group 1166720">
                      <g id="Group_1164305" data-name="Group 1164305">
                        <g id="Group_1163948" data-name="Group 1163948">
                          <g id="Group_1158168" data-name="Group 1158168">
                            <g id="Group_1152576" data-name="Group 1152576">
                              <g id="Group_1148633" data-name="Group 1148633">
                                <g id="Group_1148525" data-name="Group 1148525">
                                  <g transform="matrix(1, 0, 0, 1, -9, -6)" filter="url(#Path_982547)">
                                    <g id="Path_982547-2" data-name="Path 982547" transform="translate(9 6)" fill="#f2f7e5">
                                      <path d="M 37.966796875 74.43359375 C 33.04315185546875 74.43359375 28.26757431030273 73.46962738037109 23.77274131774902 71.56847381591797 C 19.43047523498535 69.73184967041016 15.53040790557861 67.10224914550781 12.18087482452393 63.75271987915039 C 8.831341743469238 60.4031867980957 6.201741218566895 56.50312042236328 4.365118980407715 52.16086196899414 C 2.463963508605957 47.66601943969727 1.499996900558472 42.89044189453125 1.499996900558472 37.966796875 C 1.499996900558472 33.04315185546875 2.463963508605957 28.26757431030273 4.365118980407715 23.77274131774902 C 6.201741218566895 19.43047523498535 8.831341743469238 15.53040790557861 12.18087482452393 12.18087482452393 C 15.53040790557861 8.831341743469238 19.43047523498535 6.201741218566895 23.77274131774902 4.365118980407715 C 28.26757431030273 2.463963508605957 33.04315185546875 1.499996900558472 37.966796875 1.499996900558472 C 42.89044189453125 1.499996900558472 47.66601943969727 2.463963508605957 52.16086196899414 4.365118980407715 C 56.50312042236328 6.201741218566895 60.4031867980957 8.831341743469238 63.75271987915039 12.18087482452393 C 67.10224914550781 15.53040790557861 69.73184967041016 19.43047523498535 71.56847381591797 23.77274131774902 C 73.46962738037109 28.26757431030273 74.43359375 33.04315185546875 74.43359375 37.966796875 C 74.43359375 42.89044189453125 73.46962738037109 47.66601943969727 71.56847381591797 52.16086196899414 C 69.73184967041016 56.50313186645508 67.10224914550781 60.4031867980957 63.75271987915039 63.75271987915039 C 60.4031867980957 67.10224914550781 56.50313186645508 69.73184967041016 52.16086196899414 71.56847381591797 C 47.66601943969727 73.46962738037109 42.89044189453125 74.43359375 37.966796875 74.43359375 Z" stroke="none"/>
                                      <path d="M 37.966796875 3 C 33.2449836730957 3 28.66600799560547 3.924095153808594 24.35705947875977 5.746635437011719 C 20.19359588623047 7.507637023925781 16.45379638671875 10.02928161621094 13.24153518676758 13.24153518676758 C 10.02927398681641 16.45379638671875 7.507621765136719 20.19359588623047 5.746635437011719 24.35705947875977 C 3.924095153808594 28.66600799560547 3 33.2449836730957 3 37.966796875 C 3 42.6886100769043 3.924095153808594 47.26758575439453 5.746635437011719 51.57653427124023 C 7.507621765136719 55.73999786376953 10.02927398681641 59.47979736328125 13.24153518676758 62.69205856323242 C 16.45379638671875 65.90431976318359 20.19359588623047 68.42597198486328 24.35705947875977 70.18695831298828 C 28.66600799560547 72.00949859619141 33.2449836730957 72.93359375 37.966796875 72.93359375 C 42.6886100769043 72.93359375 47.26758575439453 72.00949859619141 51.57653427124023 70.18695831298828 C 55.73999786376953 68.42597198486328 59.47979736328125 65.90431976318359 62.69205856323242 62.69205856323242 C 65.90431976318359 59.47979736328125 68.42597198486328 55.73999786376953 70.18695831298828 51.57653427124023 C 72.00949859619141 47.26758575439453 72.93359375 42.6886100769043 72.93359375 37.966796875 C 72.93359375 33.2449836730957 72.00949859619141 28.66600799560547 70.18695831298828 24.35705947875977 C 68.42597198486328 20.19359588623047 65.90431976318359 16.45379638671875 62.69205856323242 13.24153518676758 C 59.47979736328125 10.02928161621094 55.73999786376953 7.507637023925781 51.57653427124023 5.746635437011719 C 47.26758575439453 3.924095153808594 42.6886100769043 3 37.966796875 3 M 37.966796875 0 C 58.93528366088867 0 75.93359375 16.99832153320312 75.93359375 37.966796875 C 75.93359375 58.93528366088867 58.93528366088867 75.93359375 37.966796875 75.93359375 C 16.99831008911133 75.93359375 0 58.93528366088867 0 37.966796875 C 0 16.99832153320312 16.99831008911133 0 37.966796875 0 Z" stroke="none" fill="#86b60c"/>
                                    </g>
                                  </g>
                                </g>
                              </g>
                            </g>
                          </g>
                        </g>
                      </g>
                    </g>
                  </g>
                </g>
              </g>
            </g>
          </g>
        </g>
      </g>
      <g id="evento-virtual" transform="translate(210.541 4027.117)">
        <path id="Path_1077152" data-name="Path 1077152" d="M191.624,390.746h12.52v8.807h-12.52Z" transform="translate(-172.991 -352.749)" fill="#596c76"/>
        <path id="Path_1077153" data-name="Path 1077153" d="M204.14,390.741v3.914h-8.208a.849.849,0,0,0-.849.849v4.045H191.62v-8.808Z" transform="translate(-172.987 -352.745)" fill="#465a61"/>
        <path id="Path_1077154" data-name="Path 1077154" d="M52.351,46.593H10.976A3.476,3.476,0,0,1,7.5,43.117V10.977A3.476,3.476,0,0,1,10.976,7.5H52.351a3.476,3.476,0,0,1,3.476,3.476v32.14a3.476,3.476,0,0,1-3.476,3.476Z" transform="translate(-6.771 -6.77)" fill="#7a8c98"/>
        <path id="Path_1077155" data-name="Path 1077155" d="M15.631,46.589H10.975A3.475,3.475,0,0,1,7.5,43.114V10.974A3.476,3.476,0,0,1,10.975,7.5h4.656a3.476,3.476,0,0,0-3.475,3.476v32.14A3.475,3.475,0,0,0,15.631,46.589Z" transform="translate(-6.771 -6.767)" fill="#596c76"/>
        <path id="Path_1077156" data-name="Path 1077156" d="M251.283,38.059V54.13H227.24V37.5h23.484A.56.56,0,0,1,251.283,38.059Z" transform="translate(-205.144 -33.853)" fill="#03bed7"/>
        <path id="Path_1077157" data-name="Path 1077157" d="M251.283,208.511v16.07a.56.56,0,0,1-.559.558H227.24V208.511Z" transform="translate(-205.144 -188.234)" fill="#fe646f"/>
        <path id="Path_1077158" data-name="Path 1077158" d="M55.95,37.5V70.755H38.058A.559.559,0,0,1,37.5,70.2V38.056a.559.559,0,0,1,.558-.558Z" transform="translate(-33.854 -33.85)" fill="#ffe177"/>
        <path id="Path_1077159" data-name="Path 1077159" d="M39.239,70.2a3.524,3.524,0,0,0,.045.558H38.058A.559.559,0,0,1,37.5,70.2V38.056a.559.559,0,0,1,.558-.558h1.225a3.527,3.527,0,0,0-.045.559Z" transform="translate(-33.854 -33.85)" fill="#ffd15b"/>
        <path id="Path_1077160" data-name="Path 1077160" d="M55.95,70.893V95.6a5.489,5.489,0,0,1-.623.035H38.213a5.566,5.566,0,0,1-.713-.046V71.033A4.953,4.953,0,0,1,41.7,68.7H51.838a4.95,4.95,0,0,1,4.112,2.192Z" transform="translate(-33.854 -62.019)" fill="#d1a08f"/>
        <path id="Path_1077161" data-name="Path 1077161" d="M41.818,78.727a4.947,4.947,0,0,0,.171,6.347A5.661,5.661,0,0,0,39.864,87.1a5.626,5.626,0,0,0,4.812,8.538H38.214A5.57,5.57,0,0,1,37.5,95.6V71.042a4.95,4.95,0,0,1,4.2-2.331h6.462a4.95,4.95,0,0,0-4.951,4.95,4.363,4.363,0,0,0,1.626,3.616c-.038,1.712-2.351.606-3.02,1.45Z" transform="translate(-33.854 -62.028)" fill="#c68d7a"/>
        <path id="Path_1077162" data-name="Path 1077162" d="M67.845,301.41h.99a6.451,6.451,0,0,1,6.451,6.451,1.109,1.109,0,0,1-1.109,1.109H62.5a1.109,1.109,0,0,1-1.109-1.109A6.451,6.451,0,0,1,67.845,301.41Z" transform="translate(-55.424 -272.1)" fill="#03bed7"/>
        <path id="Path_1077163" data-name="Path 1077163" d="M67.061,303.292a6.432,6.432,0,0,0-1.889,4.563,1.109,1.109,0,0,0,1.109,1.109H62.5a1.109,1.109,0,0,1-1.109-1.109,6.451,6.451,0,0,1,6.452-6.452h.99a6.454,6.454,0,0,1,1.395.151A6.438,6.438,0,0,0,67.061,303.292Z" transform="translate(-55.423 -272.094)" fill="#07b2cd"/>
        <path id="Path_1077164" data-name="Path 1077164" d="M77.043,156.909a6.734,6.734,0,0,1-4.259,5.489v1.47a2.463,2.463,0,0,1-2.335,2.481,2.425,2.425,0,0,1-2.514-2.423V162.4a6.732,6.732,0,0,1-4.3-6.278v-3.1a6.705,6.705,0,0,1,.7-2.99.785.785,0,0,1,.857-.421,5.51,5.51,0,0,0,4.453-1.063.445.445,0,0,1,.717.354v.5a6.73,6.73,0,0,0,6.027,6.692.743.743,0,0,1,.657.825Z" transform="translate(-57.445 -134.01)" fill="#ffdfcf"/>
        <path id="Path_1077165" data-name="Path 1077165" d="M73.152,169.8c-.121.057-.243.109-.367.157v1.47A2.463,2.463,0,0,1,70.45,173.9a2.425,2.425,0,0,1-2.514-2.423v-1.528a6.732,6.732,0,0,1-4.3-6.278v-3.1a6.705,6.705,0,0,1,.7-2.99.785.785,0,0,1,.857-.421,5.523,5.523,0,0,0,3.241-.343,6.7,6.7,0,0,0-.836,3.249v3.1a6.73,6.73,0,0,0,5.557,6.628Z" transform="translate(-57.445 -141.564)" fill="#ffcebf"/>
        <path id="Path_1077166" data-name="Path 1077166" d="M152.976,462.541h-20.3a2.04,2.04,0,0,0,0,4.08h20.3a2.04,2.04,0,0,0,0-4.08Z" transform="translate(-117.932 -417.563)" fill="#7a8c98"/>
        <path id="Path_1077167" data-name="Path 1077167" d="M135.14,466.021a2.033,2.033,0,0,0,1.442.6h-3.908a2.04,2.04,0,0,1,0-4.08h3.908a2.04,2.04,0,0,0-1.442,3.482Z" transform="translate(-117.932 -417.561)" fill="#596c76"/>
        <path id="Path_1077168" data-name="Path 1077168" d="M284.251,210.34V213.2a4.446,4.446,0,0,1-4.447,4.446h-6.738a4.447,4.447,0,0,1-4.447-4.446V210.34a7.816,7.816,0,0,1,.216-1.829h15.2A7.816,7.816,0,0,1,284.251,210.34Z" transform="translate(-242.5 -188.234)" fill="#596c76"/>
        <path id="Path_1077169" data-name="Path 1077169" d="M277.419,217.645h-4.353a4.447,4.447,0,0,1-4.446-4.447V210.34a7.817,7.817,0,0,1,.216-1.829h4.186a4.352,4.352,0,0,0,1.471,3.008l-1.521,1.679A4.447,4.447,0,0,0,277.419,217.645Z" transform="translate(-242.5 -188.234)" fill="#465a61"/>
        <path id="Path_1077170" data-name="Path 1077170" d="M305.865,337.7H294.83a5.163,5.163,0,0,1,5.121-4.505h.792A5.163,5.163,0,0,1,305.865,337.7Z" transform="translate(-266.161 -300.791)" fill="#d9b1ee"/>
        <path id="Path_1077171" data-name="Path 1077171" d="M301.86,333.3a5.163,5.163,0,0,0-4.006,4.384H294.83a5.163,5.163,0,0,1,5.121-4.506h.793A5.151,5.151,0,0,1,301.86,333.3Z" transform="translate(-266.161 -300.782)" fill="#cb97e7"/>
        <path id="Path_1077172" data-name="Path 1077172" d="M306.96,230.661v2.463a5.386,5.386,0,0,1-3.445,5.024v1.2a1.971,1.971,0,0,1-1.869,1.986,1.941,1.941,0,0,1-2.012-1.939v-1.246a5.387,5.387,0,0,1-3.443-5.024v-2.463a5.443,5.443,0,0,1,.05-.74.452.452,0,0,1,.62-.353,4.3,4.3,0,0,0,4.407-.7.477.477,0,0,1,.615,0,4.3,4.3,0,0,0,4.407.7.451.451,0,0,1,.62.353,5.4,5.4,0,0,1,.051.74Z" transform="translate(-267.389 -206.509)" fill="#ffdfcf"/>
        <path id="Path_1077173" data-name="Path 1077173" d="M303.775,245.278c-.086.04-.172.076-.26.11v1.2a1.971,1.971,0,0,1-1.869,1.986,1.941,1.941,0,0,1-2.012-1.939v-1.246a5.387,5.387,0,0,1-3.443-5.024V237.9a5.442,5.442,0,0,1,.05-.74.452.452,0,0,1,.62-.353,4.322,4.322,0,0,0,2.522.225q-.022.24-.022.485v2.463a5.386,5.386,0,0,0,4.414,5.3Z" transform="translate(-267.389 -213.747)" fill="#ffcebf"/>
        <path id="Path_1077174" data-name="Path 1077174" d="M307.711,168.907H296.88a5.094,5.094,0,0,1,5.025-4.266h.781A5.092,5.092,0,0,1,307.711,168.907Z" transform="translate(-268.012 -148.63)" fill="#9be69d"/>
        <path id="Path_1077175" data-name="Path 1077175" d="M303.788,164.751a5.1,5.1,0,0,0-3.926,4.147H296.88a5.093,5.093,0,0,1,5.025-4.267h.782A5.072,5.072,0,0,1,303.788,164.751Z" transform="translate(-268.012 -148.621)" fill="#6fd7a3"/>
        <path id="Path_1077176" data-name="Path 1077176" d="M308.584,45.366v2.608a5.312,5.312,0,0,1-3.4,4.955v1.228a1.914,1.914,0,0,1-3.828,0V52.929a5.312,5.312,0,0,1-3.4-4.954V45.366c0-2.933,2.377-3.456,5.311-3.456,1.467,0,2.794-.6,3.755.365A3.881,3.881,0,0,1,308.584,45.366Z" transform="translate(-268.99 -37.669)" fill="#d1a08f"/>
        <path id="Path_1077177" data-name="Path 1077177" d="M305.44,58.719q-.127.058-.257.108v1.228a1.914,1.914,0,0,1-3.827,0V58.827a5.317,5.317,0,0,1-3.4-4.955V51.264c0-2.508,1.739-2.933,4.078-3a6.573,6.573,0,0,0-.445.872,6.326,6.326,0,0,0-.506,2.418v1.943a5.313,5.313,0,0,0,4.353,5.225Z" transform="translate(-268.987 -43.566)" fill="#c68d7a"/>
        <path id="Path_1077178" data-name="Path 1077178" d="M308.59,37.5V41.55h-.225a1.923,1.923,0,0,1-1.872-1.481.57.57,0,0,0-.553-.441H300.62a.57.57,0,0,0-.553.441,1.923,1.923,0,0,1-1.872,1.481h-.225V37.5Z" transform="translate(-268.996 -33.853)" fill="#596c76"/>
        <path id="Path_1077179" data-name="Path 1077179" d="M301.6,37.5v2.127h-.981a.571.571,0,0,0-.553.441,1.922,1.922,0,0,1-1.871,1.481h-.225V37.5Z" transform="translate(-268.996 -33.853)" fill="#465a61"/>
        <g id="Group_1214516" data-name="Group 1214516" transform="translate(0 0.002)">
          <path id="Path_1077180" data-name="Path 1077180" d="M102.1,200.338v-.963a.729.729,0,1,0-1.459,0v.963a.729.729,0,1,0,1.459,0Z" transform="translate(-90.857 -179.329)"/>
          <path id="Path_1077181" data-name="Path 1077181" d="M109.708,246.736a.729.729,0,0,0-.662-1.3,3.717,3.717,0,0,1-3.365,0,.729.729,0,0,0-.662,1.3,5.179,5.179,0,0,0,4.689,0Z" transform="translate(-94.447 -221.499)"/>
          <path id="Path_1077182" data-name="Path 1077182" d="M45.581,0H4.205A4.21,4.21,0,0,0,0,4.207v32.14a4.21,4.21,0,0,0,4.205,4.205H17.9v3.7H14.742a2.769,2.769,0,1,0,0,5.539h2.206a.729.729,0,1,0,0-1.459H14.742a1.311,1.311,0,0,1,0-2.622h20.3a1.311,1.311,0,0,1,0,2.622H20.352a.729.729,0,1,0,0,1.459H35.043a2.769,2.769,0,0,0,0-5.539H31.882v-3.7h13.7a4.21,4.21,0,0,0,4.205-4.205V4.207A4.21,4.21,0,0,0,45.581,0ZM30.423,44.249H19.362v-3.7H30.423Zm17.9-7.9a2.75,2.75,0,0,1-2.746,2.746H4.205a2.75,2.75,0,0,1-2.746-2.746V4.207A2.75,2.75,0,0,1,4.205,1.46H45.581a2.75,2.75,0,0,1,2.746,2.746Z" transform="translate(0 -0.002)"/>
          <path id="Path_1077183" data-name="Path 1077183" d="M331.117,286.914a2.829,2.829,0,0,1-2.561,0,.729.729,0,0,0-.662,1.3,4.292,4.292,0,0,0,3.885,0,.729.729,0,0,0-.662-1.3Z" transform="translate(-295.651 -258.943)"/>
          <path id="Path_1077184" data-name="Path 1077184" d="M324.9,250.948v-.771a.729.729,0,0,0-1.459,0v.771a.729.729,0,0,0,1.459,0Z" transform="translate(-291.993 -225.193)"/>
          <path id="Path_1077185" data-name="Path 1077185" d="M365.426,249.448a.729.729,0,0,0-.729.729v.771a.729.729,0,0,0,1.459,0v-.771A.729.729,0,0,0,365.426,249.448Z" transform="translate(-329.235 -225.193)"/>
          <path id="Path_1077186" data-name="Path 1077186" d="M332.308,118.9a2.78,2.78,0,0,1-2.516,0,.729.729,0,0,0-.662,1.3,4.243,4.243,0,0,0,3.841,0,.729.729,0,1,0-.662-1.3Z" transform="translate(-296.766 -107.264)"/>
          <path id="Path_1077187" data-name="Path 1077187" d="M327.517,84.165a.729.729,0,0,0,.729-.729v-.76a.729.729,0,1,0-1.459,0v.76A.729.729,0,0,0,327.517,84.165Z" transform="translate(-295.012 -73.978)"/>
          <path id="Path_1077188" data-name="Path 1077188" d="M364.094,81.946a.729.729,0,0,0-.729.729v.76a.729.729,0,1,0,1.459,0v-.76A.729.729,0,0,0,364.094,81.946Z" transform="translate(-328.032 -73.978)"/>
          <path id="Path_1077189" data-name="Path 1077189" d="M72.663,30H31.287A1.289,1.289,0,0,0,30,31.285V42.331a.729.729,0,1,0,1.459,0V36.312a4.307,4.307,0,0,1,.486-.585,4.2,4.2,0,0,1,2.985-1.236H45.067a4.221,4.221,0,0,1,3.383,1.7V59.962H47.072a7.217,7.217,0,0,0-3.921-3.793v-.22a7.43,7.43,0,0,0,4.254-5.887A1.473,1.473,0,0,0,46.1,48.427a5.981,5.981,0,0,1-5.373-5.967v-.5a1.174,1.174,0,0,0-1.9-.928,4.721,4.721,0,0,1-2.937,1.011,4.81,4.81,0,0,1-.926-.09,1.52,1.52,0,0,0-1.651.812,7.387,7.387,0,0,0-.775,3.315v3.1a7.462,7.462,0,0,0,4.3,6.759v.222a7.177,7.177,0,0,0-3.917,3.791H31.459V45.734a.729.729,0,1,0-1.459,0V63.426a1.289,1.289,0,0,0,1.287,1.287H72.663a1.289,1.289,0,0,0,1.288-1.287V31.285A1.289,1.289,0,0,0,72.663,30Zm-.17,16.629H67.367a5.881,5.881,0,0,0-3.354-3.811A6.031,6.031,0,0,0,66.3,40.875a.729.729,0,1,0-1.19-.844,4.576,4.576,0,0,1-2.09,1.629.729.729,0,0,0-.467.68v1.228a1.184,1.184,0,0,1-2.369,0V42.339a.729.729,0,0,0-.466-.68,4.582,4.582,0,0,1-2.929-4.274V35.456a2.636,2.636,0,0,0,2.046-1.873H63.9a2.636,2.636,0,0,0,2.046,1.873v1.885a.729.729,0,1,0,1.459,0V31.457h5.086ZM68.1,49.185v2.858a3.708,3.708,0,0,1-.752,2.245c.019-.2.03-.394.03-.593V51.231a6.142,6.142,0,0,0-.057-.84,1.181,1.181,0,0,0-1.619-.928,3.573,3.573,0,0,1-3.659-.583,1.2,1.2,0,0,0-1.559,0,3.573,3.573,0,0,1-3.658.583,1.181,1.181,0,0,0-1.619.929,6.164,6.164,0,0,0-.057.839v2.463a6.172,6.172,0,0,0,.119,1.211,3.71,3.71,0,0,1-1.341-2.862V49.185a7.136,7.136,0,0,1,.086-1.1h14A7.16,7.16,0,0,1,68.1,49.185ZM65.948,33.937a1.185,1.185,0,0,1-.657-.807,1.294,1.294,0,0,0-1.263-1H58.706a1.293,1.293,0,0,0-1.263,1,1.186,1.186,0,0,1-.657.808v-2.48h9.162v2.48Zm-10.62,3.448a6.042,6.042,0,0,0,3.4,5.431h0a5.84,5.84,0,0,0-1.863,1.249,5.775,5.775,0,0,0-1.493,2.562H49.908V31.457h5.419v5.929Zm8.556,6.988a4.419,4.419,0,0,1,1.949,2.254H56.9a4.349,4.349,0,0,1,1.95-2.252,2.643,2.643,0,0,0,5.034,0ZM49.908,48.085h2.637a8.594,8.594,0,0,0-.071,1.1v2.858a5.161,5.161,0,0,0,3.641,4.943,6.179,6.179,0,0,0,.83,1.032A6.093,6.093,0,0,0,58.6,59.2v.013a5.885,5.885,0,0,0-3.451,4.046H49.908Zm7.83,13.422a4.463,4.463,0,0,1,.982-.739,2.676,2.676,0,0,0,2.546,1.866l.1,0a2.663,2.663,0,0,0,2.442-1.872,4.446,4.446,0,0,1,2.069,2.494H56.662A4.448,4.448,0,0,1,57.738,61.507Zm5.207-3.469a.729.729,0,0,0-.467.68v1.2a1.246,1.246,0,0,1-1.166,1.257,1.212,1.212,0,0,1-1.257-1.211V58.718a.729.729,0,0,0-.466-.68,4.657,4.657,0,0,1-2.977-4.343V51.231q0-.146.009-.292a5.034,5.034,0,0,0,4.647-.813,5.034,5.034,0,0,0,4.646.813q.009.145.009.292v2.463a4.685,4.685,0,0,1-2.979,4.344ZM45.067,33.032H34.93a5.637,5.637,0,0,0-3.471,1.186V31.457H48.45v2.695A5.674,5.674,0,0,0,45.067,33.032ZM48.45,63.255h-.824a1.846,1.846,0,0,0,.049-.414,7.2,7.2,0,0,0-.142-1.42h.918v1.835ZM34,49.189v-3.1a5.941,5.941,0,0,1,.623-2.666.054.054,0,0,1,.05-.031h.013a6.269,6.269,0,0,0,1.208.117,6.16,6.16,0,0,0,3.375-.992,7.435,7.435,0,0,0,6.68,7.365.019.019,0,0,1,.008.015,5.979,5.979,0,0,1-3.8,4.893.729.729,0,0,0-.467.68v1.47a1.74,1.74,0,0,1-1.632,1.753A1.7,1.7,0,0,1,38.3,56.995V55.467a.729.729,0,0,0-.466-.68A6.04,6.04,0,0,1,34,49.189Zm.107,11.745a5.723,5.723,0,0,1,2.823-3.2A3.156,3.156,0,0,0,40,60.149l.118,0a3.2,3.2,0,0,0,2.94-2.423,5.711,5.711,0,0,1,3.162,5.117.38.38,0,0,1-.38.38H34.161a.38.38,0,0,1-.38-.38,5.7,5.7,0,0,1,.326-1.907Zm-2.648.486h1.006a7.2,7.2,0,0,0-.142,1.42,1.83,1.83,0,0,0,.049.414h-.913Zm35.933,1.835a5.905,5.905,0,0,0-3.454-4.049V59.2a6.147,6.147,0,0,0,2.624-2.456,5.153,5.153,0,0,0,3-4.7V49.185a8.612,8.612,0,0,0-.071-1.1h3v15.17h-5.1Z" transform="translate(-27.083 -27.081)"/>
        </g>
      </g>
    </g>
  </g>
</svg>
