<svg xmlns="http://www.w3.org/2000/svg" xmlns:xlink="http://www.w3.org/1999/xlink" width="93.934" height="93.934" viewBox="0 0 93.934 93.934">
  <defs>
    <filter id="Path_982547" x="0" y="0" width="93.934" height="93.934" filterUnits="userSpaceOnUse">
      <feOffset dy="3" input="SourceAlpha"/>
      <feGaussianBlur stdDeviation="3" result="blur"/>
      <feFlood flood-opacity="0.161"/>
      <feComposite operator="in" in2="blur"/>
      <feComposite in="SourceGraphic"/>
    </filter>
  </defs>
  <g id="Group_1215559" data-name="Group 1215559" transform="translate(-1035.066 -6058.533)">
    <g id="Group_1214534" data-name="Group 1214534" transform="translate(0 60)">
      <g id="Group_1214402" data-name="Group 1214402" transform="translate(7 5101.669)">
        <g id="Group_1206327" data-name="Group 1206327" transform="translate(839.066 -3717.169)">
          <g id="Group_1183815" data-name="Group 1183815" transform="translate(0 4267.973)">
            <g id="Group_1181939" data-name="Group 1181939" transform="translate(0 -388.939)">
              <g id="Group_1175133" data-name="Group 1175133" transform="translate(-0.033 -1251)">
                <g id="Group_1167337" data-name="Group 1167337" transform="translate(198.033 1992)">
                  <g id="Group_1166720" data-name="Group 1166720">
                    <g id="Group_1164305" data-name="Group 1164305">
                      <g id="Group_1163948" data-name="Group 1163948">
                        <g id="Group_1158168" data-name="Group 1158168">
                          <g id="Group_1152576" data-name="Group 1152576">
                            <g id="Group_1148633" data-name="Group 1148633">
                              <g id="Group_1148525" data-name="Group 1148525">
                                <g transform="matrix(1, 0, 0, 1, -9, -6)" filter="url(#Path_982547)">
                                  <g id="Path_982547-2" data-name="Path 982547" transform="translate(9 6)" fill="#f2f7e5">
                                    <path d="M 37.966796875 74.43359375 C 33.04315185546875 74.43359375 28.26757431030273 73.46962738037109 23.77274131774902 71.56847381591797 C 19.43047523498535 69.73184967041016 15.53040790557861 67.10224914550781 12.18087482452393 63.75271987915039 C 8.831341743469238 60.4031867980957 6.201741218566895 56.50312042236328 4.365118980407715 52.16086196899414 C 2.463963508605957 47.66601943969727 1.499996900558472 42.89044189453125 1.499996900558472 37.966796875 C 1.499996900558472 33.04315185546875 2.463963508605957 28.26757431030273 4.365118980407715 23.77274131774902 C 6.201741218566895 19.43047523498535 8.831341743469238 15.53040790557861 12.18087482452393 12.18087482452393 C 15.53040790557861 8.831341743469238 19.43047523498535 6.201741218566895 23.77274131774902 4.365118980407715 C 28.26757431030273 2.463963508605957 33.04315185546875 1.499996900558472 37.966796875 1.499996900558472 C 42.89044189453125 1.499996900558472 47.66601943969727 2.463963508605957 52.16086196899414 4.365118980407715 C 56.50312042236328 6.201741218566895 60.4031867980957 8.831341743469238 63.75271987915039 12.18087482452393 C 67.10224914550781 15.53040790557861 69.73184967041016 19.43047523498535 71.56847381591797 23.77274131774902 C 73.46962738037109 28.26757431030273 74.43359375 33.04315185546875 74.43359375 37.966796875 C 74.43359375 42.89044189453125 73.46962738037109 47.66601943969727 71.56847381591797 52.16086196899414 C 69.73184967041016 56.50313186645508 67.10224914550781 60.4031867980957 63.75271987915039 63.75271987915039 C 60.4031867980957 67.10224914550781 56.50313186645508 69.73184967041016 52.16086196899414 71.56847381591797 C 47.66601943969727 73.46962738037109 42.89044189453125 74.43359375 37.966796875 74.43359375 Z" stroke="none"/>
                                    <path d="M 37.966796875 3 C 33.2449836730957 3 28.66600799560547 3.924095153808594 24.35705947875977 5.746635437011719 C 20.19359588623047 7.507637023925781 16.45379638671875 10.02928161621094 13.24153518676758 13.24153518676758 C 10.02927398681641 16.45379638671875 7.507621765136719 20.19359588623047 5.746635437011719 24.35705947875977 C 3.924095153808594 28.66600799560547 3 33.2449836730957 3 37.966796875 C 3 42.6886100769043 3.924095153808594 47.26758575439453 5.746635437011719 51.57653427124023 C 7.507621765136719 55.73999786376953 10.02927398681641 59.47979736328125 13.24153518676758 62.69205856323242 C 16.45379638671875 65.90431976318359 20.19359588623047 68.42597198486328 24.35705947875977 70.18695831298828 C 28.66600799560547 72.00949859619141 33.2449836730957 72.93359375 37.966796875 72.93359375 C 42.6886100769043 72.93359375 47.26758575439453 72.00949859619141 51.57653427124023 70.18695831298828 C 55.73999786376953 68.42597198486328 59.47979736328125 65.90431976318359 62.69205856323242 62.69205856323242 C 65.90431976318359 59.47979736328125 68.42597198486328 55.73999786376953 70.18695831298828 51.57653427124023 C 72.00949859619141 47.26758575439453 72.93359375 42.6886100769043 72.93359375 37.966796875 C 72.93359375 33.2449836730957 72.00949859619141 28.66600799560547 70.18695831298828 24.35705947875977 C 68.42597198486328 20.19359588623047 65.90431976318359 16.45379638671875 62.69205856323242 13.24153518676758 C 59.47979736328125 10.02928161621094 55.73999786376953 7.507637023925781 51.57653427124023 5.746635437011719 C 47.26758575439453 3.924095153808594 42.6886100769043 3 37.966796875 3 M 37.966796875 0 C 58.93528366088867 0 75.93359375 16.99832153320312 75.93359375 37.966796875 C 75.93359375 58.93528366088867 58.93528366088867 75.93359375 37.966796875 75.93359375 C 16.99831008911133 75.93359375 0 58.93528366088867 0 37.966796875 C 0 16.99832153320312 16.99831008911133 0 37.966796875 0 Z" stroke="none" fill="#86b60c"/>
                                  </g>
                                </g>
                              </g>
                            </g>
                          </g>
                        </g>
                      </g>
                    </g>
                  </g>
                </g>
              </g>
            </g>
          </g>
        </g>
      </g>
      <g id="discrepar" transform="translate(1056.431 6006.015)">
        <g id="Group_1214532" data-name="Group 1214532" transform="translate(0.751 12.843)">
          <g id="Group_1214527" data-name="Group 1214527" transform="translate(27.073 26.229)">
            <path id="Path_1077272" data-name="Path 1077272" d="M300.849,283.293l-6.557.766-.776.091-2.345-1.565a4.238,4.238,0,0,0-2.356-.714h-7.273a1.751,1.751,0,0,0,0,3.5H279.97a1.751,1.751,0,1,0,0,3.5,1.751,1.751,0,1,0,0,3.5h1.392a1.751,1.751,0,0,0,0,3.5h5.21l-.748,4.94a1.835,1.835,0,0,0,3.547.88l.556-1.592a5.868,5.868,0,0,1,1.586-2.4l2-1.827h7.334V283.293Z" transform="translate(-278.219 -281.871)" fill="#ffe5c2"/>
            <path id="Path_1077273" data-name="Path 1077273" d="M445.446,296.094v12.583h-6.562l.005-.015v-11.8Z" transform="translate(-422.817 -294.672)" fill="#fed2a4"/>
            <path id="Path_1077274" data-name="Path 1077274" d="M366.9,421.914l-2,1.827a5.859,5.859,0,0,0-1.586,2.4l-.556,1.591a1.836,1.836,0,0,1-3,.725,1.823,1.823,0,0,0,.468-.725l.556-1.591a5.867,5.867,0,0,1,1.585-2.4l1.315-1.2a2.4,2.4,0,0,1,1.62-.628Z" transform="translate(-351.6 -407.909)" fill="#fed2a4"/>
            <path id="Path_1077275" data-name="Path 1077275" d="M467.244,299.266v-12.88a.9.9,0,0,0-.895-.895H464a.9.9,0,0,0-.895.895v12.88a.9.9,0,0,0,.895.895h2.35a.9.9,0,0,0,.895-.895Z" transform="translate(-444.614 -285.129)" fill="#a274bf"/>
            <path id="Path_1077276" data-name="Path 1077276" d="M473.658,285.491h-2.35c-.028,0-.056,0-.083,0a.9.9,0,0,1,.812.891v12.88a.9.9,0,0,1-.812.891c.027,0,.055,0,.083,0h2.35a.9.9,0,0,0,.895-.895V286.386A.9.9,0,0,0,473.658,285.491Z" transform="translate(-451.923 -285.129)" fill="#925cb4"/>
          </g>
          <g id="Group_1214529" data-name="Group 1214529" transform="translate(0.025 26.229)">
            <path id="Path_1077277" data-name="Path 1077277" d="M22.033,288.922h0l.748-4.94a1.835,1.835,0,0,0-3.547-.88l-.556,1.592a5.867,5.867,0,0,1-1.586,2.4l-2,1.827H7.756V301.5l7.334-.857,2.344,1.565a4.245,4.245,0,0,0,2.357.714h5.5V288.922Z" transform="translate(-7.756 -281.871)" fill="#ffbd86"/>
            <g id="Group_1214528" data-name="Group 1214528" transform="translate(14.75 7.05)">
              <path id="Path_1077278" data-name="Path 1077278" d="M161.56,459.154a1.751,1.751,0,0,1-1.751,1.751H157a1.751,1.751,0,0,1,0-3.5h2.807A1.751,1.751,0,0,1,161.56,459.154Z" transform="translate(-155.252 -446.899)" fill="#f6a96c"/>
              <path id="Path_1077279" data-name="Path 1077279" d="M163.13,424.144a1.751,1.751,0,0,1-1.751,1.751H157a1.751,1.751,0,0,1,0-3.5h4.378A1.751,1.751,0,0,1,163.13,424.144Z" transform="translate(-155.251 -415.391)" fill="#f6a96c"/>
              <path id="Path_1077280" data-name="Path 1077280" d="M163.13,389.133a1.751,1.751,0,0,1-1.751,1.751H157a1.751,1.751,0,0,1,0-3.5h4.378A1.751,1.751,0,0,1,163.13,389.133Z" transform="translate(-155.251 -383.881)" fill="#f6a96c"/>
              <path id="Path_1077281" data-name="Path 1077281" d="M161.739,354.123a1.751,1.751,0,0,1-1.751,1.751H157a1.751,1.751,0,0,1,0-3.5h2.986A1.751,1.751,0,0,1,161.739,354.123Z" transform="translate(-155.252 -352.372)" fill="#f6a96c"/>
            </g>
            <path id="Path_1077282" data-name="Path 1077282" d="M175.522,457.4h-2.811a1.75,1.75,0,0,1,0,3.5h2.811a1.751,1.751,0,1,0,0-3.5Z" transform="translate(-156.215 -439.849)" fill="#ea9b58"/>
            <path id="Path_1077283" data-name="Path 1077283" d="M191.193,422.393h-2.816a1.751,1.751,0,0,1,0,3.5h2.816a1.751,1.751,0,0,0,0-3.5Z" transform="translate(-170.314 -408.34)" fill="#ea9b58"/>
            <path id="Path_1077284" data-name="Path 1077284" d="M191.193,387.382h-2.816a1.751,1.751,0,0,1,0,3.5h2.816a1.751,1.751,0,0,0,0-3.5Z" transform="translate(-170.314 -376.83)" fill="#ea9b58"/>
            <path id="Path_1077285" data-name="Path 1077285" d="M177.271,352.371h-2.816a1.751,1.751,0,0,1,0,3.5h2.816a1.751,1.751,0,0,0,0-3.5Z" transform="translate(-157.784 -345.321)" fill="#ea9b58"/>
            <path id="Path_1077286" data-name="Path 1077286" d="M101.944,282.062a1.835,1.835,0,0,0-2.023.268,1.834,1.834,0,0,1,.6,1.653l-.748,4.94-2.31,4.679a2.819,2.819,0,0,1-.49.7.514.514,0,0,0,.357.877h.016a2.83,2.83,0,0,0,2.537-1.577l2.31-4.679.748-4.94A1.835,1.835,0,0,0,101.944,282.062Z" transform="translate(-87.922 -281.873)" fill="#f6a96c"/>
            <path id="Path_1077287" data-name="Path 1077287" d="M7.756,342.995v12.88a.9.9,0,0,0,.895.895H11a.9.9,0,0,0,.895-.895v-12.88A.9.9,0,0,0,11,342.1H8.651A.9.9,0,0,0,7.756,342.995Z" transform="translate(-7.756 -336.077)" fill="#a274bf"/>
            <path id="Path_1077288" data-name="Path 1077288" d="M19.931,342.1H17.68c-.05,0,.6.451.6.895v12.88c0,.444-.652.895-.6.895h2.25a.9.9,0,0,0,.895-.895v-12.88A.9.9,0,0,0,19.931,342.1Z" transform="translate(-16.685 -336.077)" fill="#925cb4"/>
          </g>
          <g id="Group_1214531" data-name="Group 1214531">
            <path id="Path_1077289" data-name="Path 1077289" d="M27.365,38.887a11.308,11.308,0,1,0-17.6-2.021L7.62,41.2A1.072,1.072,0,0,0,9.057,42.64l4.337-2.146a11.312,11.312,0,0,0,13.971-1.607Z" transform="translate(-7.505 -19.595)" fill="#fff8bf"/>
            <path id="Path_1077290" data-name="Path 1077290" d="M116.9,38.89a11.3,11.3,0,0,1-9.9,3.151,11.3,11.3,0,0,0-.006-22.282A11.3,11.3,0,0,1,116.9,38.89Z" transform="translate(-97.044 -19.598)" fill="#fcf2a9"/>
            <g id="Group_1214530" data-name="Group 1214530" transform="translate(4.701 6.78)">
              <path id="Path_1077291" data-name="Path 1077291" d="M60.031,96.994a1.348,1.348,0,0,1-.956-.4l-4.17-4.17a1.352,1.352,0,0,1,1.912-1.912l3.214,3.214,5.94-5.94A1.352,1.352,0,0,1,67.883,89.7l-6.9,6.9A1.348,1.348,0,0,1,60.031,96.994Z" transform="translate(-54.508 -87.394)" fill="#97da7b"/>
            </g>
            <path id="Path_1077292" data-name="Path 1077292" d="M276.111,38.887a11.308,11.308,0,1,1,17.6-2.02l2.146,4.337a1.072,1.072,0,0,1-1.436,1.436l-4.337-2.146A11.312,11.312,0,0,1,276.111,38.887Z" transform="translate(-246.268 -19.595)" fill="#fff8bf"/>
            <path id="Path_1077293" data-name="Path 1077293" d="M379.06,42.643l-2.28-1.128a1.1,1.1,0,0,0-.1-.308l-1.628-3.29a2.243,2.243,0,0,1,.011-1.994,11.3,11.3,0,0,0-8.216-16.164A11.3,11.3,0,0,1,378.351,36.87l2.145,4.337A1.072,1.072,0,0,1,379.06,42.643Z" transform="translate(-330.909 -19.598)" fill="#fcf2a9"/>
            <path id="Path_1077294" data-name="Path 1077294" d="M339.587,88.243l-2.931-2.931a1.352,1.352,0,1,1,1.912-1.912l2.931,2.931L344.43,83.4a1.352,1.352,0,0,1,1.912,1.912l-2.931,2.931,2.931,2.931a1.352,1.352,0,1,1-1.913,1.912L341.5,90.156l-2.931,2.931a1.352,1.352,0,0,1-1.913-1.912Z" transform="translate(-303.383 -76.663)" fill="#fe99a0"/>
          </g>
        </g>
        <g id="Group_1214533" data-name="Group 1214533" transform="translate(0.001 12.092)">
          <path id="Path_1077295" data-name="Path 1077295" d="M293.208,274.738h-2.35a1.646,1.646,0,0,0-1.644,1.627l-2.257.264-2.115-1.412a4.972,4.972,0,0,0-2.773-.841h-7.273a2.5,2.5,0,0,0-2.247,3.595,2.5,2.5,0,0,0-1.107,4.157,2.5,2.5,0,0,0,.952,4.109,2.5,2.5,0,0,0,2.223,3.644h4.337l-.618,4.077a2.576,2.576,0,0,0,1.414,2.706,2.633,2.633,0,0,0,3.583-1.467l.556-1.592a5.135,5.135,0,0,1,1.383-2.094l1.788-1.631h2.274a1.647,1.647,0,0,0,1.523,1.027h2.35a1.647,1.647,0,0,0,1.645-1.645V276.382A1.647,1.647,0,0,0,293.208,274.738Zm.145,14.525a.145.145,0,0,1-.145.145h-2.35a.145.145,0,0,1-.145-.145v-8.67a.75.75,0,1,0-1.5,0v7.788h-2.444a.75.75,0,0,0-.505.2l-2,1.827a6.639,6.639,0,0,0-1.789,2.708l-.556,1.592a1.114,1.114,0,0,1-1.5.616,1.081,1.081,0,0,1-.593-1.136l.652-4.3h1a.75.75,0,1,0,0-1.5h-6.852a1,1,0,0,1,0-2h1.953a.75.75,0,0,0,0-1.5h-3.345a1,1,0,0,1,0-2h3.345a.75.75,0,0,0,0-1.5h-3.345a1,1,0,0,1,0-2h3.345a.75.75,0,0,0,0-1.5h-1.774a1,1,0,0,1,0-2h7.273a3.477,3.477,0,0,1,1.94.588l2.345,1.565a.836.836,0,0,0,.5.121l3.183-.372c.683-.033.716-.84.673-1.4a.145.145,0,0,1,.145-.145h2.35a.145.145,0,0,1,.145.145Z" transform="translate(-243.649 -248.146)"/>
          <path id="Path_1077296" data-name="Path 1077296" d="M22.716,285.073a2.5,2.5,0,0,0-2.223-3.644H16.156l.618-4.078a2.585,2.585,0,0,0-5-1.239A8.046,8.046,0,0,1,9.837,279.8L8.049,281.43H5.775A1.647,1.647,0,0,0,4.251,280.4H1.9a1.647,1.647,0,0,0-1.645,1.645v12.88A1.647,1.647,0,0,0,1.9,296.573h2.35A1.646,1.646,0,0,0,5.9,294.946l2.258-.264,2.114,1.411a4.973,4.973,0,0,0,2.773.842h7.273a2.5,2.5,0,0,0,2.248-3.6,2.5,2.5,0,0,0,1.107-4.158,2.5,2.5,0,0,0-.953-4.109Zm-.831,3.359H17.507a1,1,0,0,1,0-2h4.378a1,1,0,0,1,0,2Zm-.392-4.5a1,1,0,0,1-1,1H17.507a1,1,0,0,1-.006-2h2.992A1,1,0,0,1,21.494,283.93ZM4.251,295.073H1.9a.145.145,0,0,1-.145-.145v-12.88A.145.145,0,0,1,1.9,281.9h2.35a.145.145,0,0,1,.145.145v12.88A.145.145,0,0,1,4.251,295.073Zm6.85-.227-2.344-1.565a.75.75,0,0,0-.5-.121l-2.357.276V282.93H8.34a.824.824,0,0,0,.5-.2l2-1.827a9.21,9.21,0,0,0,2.344-4.3,1.085,1.085,0,0,1,2.1.52l-.731,4.824L12.3,286.527a2.067,2.067,0,0,1-1.865,1.159.75.75,0,1,0,0,1.5,3.558,3.558,0,0,0,3.21-2l1.4-2.831a2.5,2.5,0,0,0,.68,1.322,2.55,2.55,0,0,0,0,3.5,2.55,2.55,0,0,0,0,3.5,2.549,2.549,0,0,0-.508,2.751H13.041a3.479,3.479,0,0,1-1.94-.589Zm9.213.589H17.507a1,1,0,0,1,0-2h2.807a1,1,0,0,1,0,2Zm1.571-3.5H17.507a1,1,0,0,1,0-2h4.378a1,1,0,0,1,0,2Z" transform="translate(-0.23 -248.15)"/>
          <path id="Path_1077297" data-name="Path 1077297" d="M12.892,12.1A12.046,12.046,0,0,0,2.159,30.152L.195,34.122a1.8,1.8,0,0,0,.345,2.1,1.8,1.8,0,0,0,1.28.539,1.84,1.84,0,0,0,.817-.194l4.337-2.146a.75.75,0,0,0-.665-1.345L1.97,35.219a.3.3,0,0,1-.371-.061.3.3,0,0,1-.061-.371L3.685,30.45a.75.75,0,0,0-.036-.729,10.562,10.562,0,1,1,6.4,4.664.75.75,0,0,0-.363,1.456,12.052,12.052,0,0,0,11.453-3.173A12.046,12.046,0,0,0,12.892,12.1Z" transform="translate(-0.001 -12.095)"/>
          <path id="Path_1077298" data-name="Path 1077298" d="M53.283,91a2.09,2.09,0,0,0,1.487-.616l6.9-6.9a2.1,2.1,0,0,0-2.973-2.973l-5.409,5.409L50.6,83.244a2.1,2.1,0,0,0-2.973,2.973l4.17,4.17A2.088,2.088,0,0,0,53.283,91Zm-4.772-6.272a.6.6,0,0,1,1.028-.426l3.214,3.214a.75.75,0,0,0,1.061,0l5.94-5.94a.6.6,0,1,1,.852.852l-6.9,6.9a.6.6,0,0,1-.852,0l-4.17-4.17A.6.6,0,0,1,48.511,84.731Z" transform="translate(-42.31 -73.122)"/>
          <path id="Path_1077299" data-name="Path 1077299" d="M276.051,36.126a12.123,12.123,0,0,0,7.315-1.531l3.97,1.964a1.836,1.836,0,0,0,.817.194,1.828,1.828,0,0,0,1.625-2.635l-1.964-3.97a12.06,12.06,0,1,0-11.762,5.978Zm-6.219-19.393a10.559,10.559,0,0,1,16.49,12.984.75.75,0,0,0-.036.729l2.146,4.337a.322.322,0,0,1-.432.431l-4.337-2.146a.75.75,0,0,0-.729.036,10.606,10.606,0,0,1-6.722,1.529,10.558,10.558,0,0,1-6.38-17.9Z" transform="translate(-238.768 -12.092)"/>
          <path id="Path_1077300" data-name="Path 1077300" d="M328.762,85.38a2.1,2.1,0,0,0,3.589,1.487l2.4-2.4,2.4,2.4a2.1,2.1,0,0,0,2.973-2.973l-2.4-2.4,2.4-2.4a2.1,2.1,0,0,0-2.973-2.973l-2.4,2.4-2.4-2.4a2.088,2.088,0,0,0-1.487-.616h0a2.1,2.1,0,0,0-1.487,3.589l2.4,2.4-2.4,2.4A2.088,2.088,0,0,0,328.762,85.38Zm1.677-.426,2.931-2.931a.75.75,0,0,0,0-1.061l-2.931-2.931a.6.6,0,1,1,.852-.852l2.931,2.931a.75.75,0,0,0,1.061,0l2.931-2.931a.6.6,0,1,1,.852.852l-2.931,2.931a.75.75,0,0,0,0,1.061l2.931,2.931a.6.6,0,1,1-.852.852l-2.931-2.931a.75.75,0,0,0-1.061,0l-2.931,2.931a.6.6,0,1,1-.852-.852Z" transform="translate(-295.884 -69.162)"/>
        </g>
      </g>
    </g>
  </g>
</svg>
