<svg xmlns="http://www.w3.org/2000/svg" xmlns:xlink="http://www.w3.org/1999/xlink" width="93.934" height="93.934" viewBox="0 0 93.934 93.934">
  <defs>
    <filter id="Path_982547" x="0" y="0" width="93.934" height="93.934" filterUnits="userSpaceOnUse">
      <feOffset dy="3" input="SourceAlpha"/>
      <feGaussianBlur stdDeviation="3" result="blur"/>
      <feFlood flood-opacity="0.161"/>
      <feComposite operator="in" in2="blur"/>
      <feComposite in="SourceGraphic"/>
    </filter>
  </defs>
  <g id="Group_1215591" data-name="Group 1215591" transform="translate(-185.295 -5021)">
    <g id="Group_1214637" data-name="Group 1214637" transform="translate(0 -257)">
      <g id="Group_1214435" data-name="Group 1214435" transform="translate(-6.771 -2588.674)">
        <g id="Group_1183196" data-name="Group 1183196" transform="translate(1 1016.674)">
          <g id="Group_1179610" data-name="Group 1179610" transform="translate(8 4723.467)">
            <g id="Group_1175227" data-name="Group 1175227" transform="translate(-5.967 140.533)">
              <g id="Group_1167337" data-name="Group 1167337" transform="translate(198.033 1992)">
                <g id="Group_1166720" data-name="Group 1166720">
                  <g id="Group_1164305" data-name="Group 1164305">
                    <g id="Group_1163948" data-name="Group 1163948">
                      <g id="Group_1158168" data-name="Group 1158168">
                        <g id="Group_1152576" data-name="Group 1152576">
                          <g id="Group_1148633" data-name="Group 1148633">
                            <g id="Group_1148525" data-name="Group 1148525">
                              <g transform="matrix(1, 0, 0, 1, -9, -6)" filter="url(#Path_982547)">
                                <g id="Path_982547-2" data-name="Path 982547" transform="translate(9 6)" fill="#f5f5f5">
                                  <path d="M 37.966796875 74.43359375 C 33.04315185546875 74.43359375 28.26757431030273 73.46962738037109 23.77274131774902 71.56847381591797 C 19.43047523498535 69.73184967041016 15.53040790557861 67.10224914550781 12.18087482452393 63.75271987915039 C 8.831341743469238 60.4031867980957 6.201741218566895 56.50312042236328 4.365118980407715 52.16086196899414 C 2.463963508605957 47.66601943969727 1.499996900558472 42.89044189453125 1.499996900558472 37.966796875 C 1.499996900558472 33.04315185546875 2.463963508605957 28.26757431030273 4.365118980407715 23.77274131774902 C 6.201741218566895 19.43047523498535 8.831341743469238 15.53040790557861 12.18087482452393 12.18087482452393 C 15.53040790557861 8.831341743469238 19.43047523498535 6.201741218566895 23.77274131774902 4.365118980407715 C 28.26757431030273 2.463963508605957 33.04315185546875 1.499996900558472 37.966796875 1.499996900558472 C 42.89044189453125 1.499996900558472 47.66601943969727 2.463963508605957 52.16086196899414 4.365118980407715 C 56.50312042236328 6.201741218566895 60.4031867980957 8.831341743469238 63.75271987915039 12.18087482452393 C 67.10224914550781 15.53040790557861 69.73184967041016 19.43047523498535 71.56847381591797 23.77274131774902 C 73.46962738037109 28.26757431030273 74.43359375 33.04315185546875 74.43359375 37.966796875 C 74.43359375 42.89044189453125 73.46962738037109 47.66601943969727 71.56847381591797 52.16086196899414 C 69.73184967041016 56.50313186645508 67.10224914550781 60.4031867980957 63.75271987915039 63.75271987915039 C 60.4031867980957 67.10224914550781 56.50313186645508 69.73184967041016 52.16086196899414 71.56847381591797 C 47.66601943969727 73.46962738037109 42.89044189453125 74.43359375 37.966796875 74.43359375 Z" stroke="none"/>
                                  <path d="M 37.966796875 3 C 33.2449836730957 3 28.66600799560547 3.924095153808594 24.35705947875977 5.746635437011719 C 20.19359588623047 7.507637023925781 16.45379638671875 10.02928161621094 13.24153518676758 13.24153518676758 C 10.02927398681641 16.45379638671875 7.507621765136719 20.19359588623047 5.746635437011719 24.35705947875977 C 3.924095153808594 28.66600799560547 3 33.2449836730957 3 37.966796875 C 3 42.6886100769043 3.924095153808594 47.26758575439453 5.746635437011719 51.57653427124023 C 7.507621765136719 55.73999786376953 10.02927398681641 59.47979736328125 13.24153518676758 62.69205856323242 C 16.45379638671875 65.90431976318359 20.19359588623047 68.42597198486328 24.35705947875977 70.18695831298828 C 28.66600799560547 72.00949859619141 33.2449836730957 72.93359375 37.966796875 72.93359375 C 42.6886100769043 72.93359375 47.26758575439453 72.00949859619141 51.57653427124023 70.18695831298828 C 55.73999786376953 68.42597198486328 59.47979736328125 65.90431976318359 62.69205856323242 62.69205856323242 C 65.90431976318359 59.47979736328125 68.42597198486328 55.73999786376953 70.18695831298828 51.57653427124023 C 72.00949859619141 47.26758575439453 72.93359375 42.6886100769043 72.93359375 37.966796875 C 72.93359375 33.2449836730957 72.00949859619141 28.66600799560547 70.18695831298828 24.35705947875977 C 68.42597198486328 20.19359588623047 65.90431976318359 16.45379638671875 62.69205856323242 13.24153518676758 C 59.47979736328125 10.02928161621094 55.73999786376953 7.507637023925781 51.57653427124023 5.746635437011719 C 47.26758575439453 3.924095153808594 42.6886100769043 3 37.966796875 3 M 37.966796875 0 C 58.93528366088867 0 75.93359375 16.99832153320312 75.93359375 37.966796875 C 75.93359375 58.93528366088867 58.93528366088867 75.93359375 37.966796875 75.93359375 C 16.99831008911133 75.93359375 0 58.93528366088867 0 37.966796875 C 0 16.99832153320312 16.99831008911133 0 37.966796875 0 Z" stroke="none" fill="#86b60c"/>
                                </g>
                              </g>
                            </g>
                          </g>
                        </g>
                      </g>
                    </g>
                  </g>
                </g>
              </g>
            </g>
          </g>
        </g>
      </g>
      <g id="motivacion" transform="translate(202.295 5288.936)">
        <g id="Group_1214623" data-name="Group 1214623" transform="translate(8.625 6.546)">
          <g id="Group_1214620" data-name="Group 1214620" transform="translate(15.819 0)">
            <path id="Path_1077546" data-name="Path 1077546" d="M225.027,21.393h2.319V34.242h6.178V21.393h2.319a.947.947,0,0,0,.717-1.566l-5.408-6.27a.947.947,0,0,0-1.434,0l-5.408,6.27A.947.947,0,0,0,225.027,21.393Z" transform="translate(-224.078 -13.229)" fill="#fcb44d"/>
            <path id="Path_1077547" data-name="Path 1077547" d="M273.452,21.4H272.08a.947.947,0,0,0-.947.947v11.9h2.815V21.4h2.318a.947.947,0,0,0,.718-1.566l-5.409-6.271a.947.947,0,0,0-1.434,0l-.69.8,4.718,5.47A.947.947,0,0,1,273.452,21.4Z" transform="translate(-264.501 -13.231)" fill="#fb9927"/>
          </g>
          <g id="Group_1214621" data-name="Group 1214621" transform="translate(0 7.946)">
            <path id="Path_1077548" data-name="Path 1077548" d="M80.059,94.59h2.42V108h6.447V94.59h2.42a.988.988,0,0,0,.748-1.634l-5.643-6.543a.988.988,0,0,0-1.5,0l-5.643,6.543a.988.988,0,0,0,.748,1.634Z" transform="translate(-79.069 -86.07)" fill="#fcb44d"/>
            <path id="Path_1077549" data-name="Path 1077549" d="M130.591,94.594h-1.432a.988.988,0,0,0-.988.988V108h2.937V94.594h2.419a.988.988,0,0,0,.749-1.634l-5.644-6.543a.988.988,0,0,0-1.5,0l-.72.835,4.923,5.708A.988.988,0,0,1,130.591,94.594Z" transform="translate(-121.251 -86.075)" fill="#fb9927"/>
          </g>
          <g id="Group_1214622" data-name="Group 1214622" transform="translate(31.076 4.021)">
            <path id="Path_1077550" data-name="Path 1077550" d="M364.876,58.249H367.2V98.085h6.178V58.249h2.319a.947.947,0,0,0,.717-1.566L371,50.413a.947.947,0,0,0-1.434,0l-5.408,6.27a.947.947,0,0,0,.717,1.566Z" transform="translate(-363.927 -50.085)" fill="#fcb44d"/>
            <path id="Path_1077551" data-name="Path 1077551" d="M413.3,58.251H411.93a.947.947,0,0,0-.947.947V98.087H413.8V58.251h2.318a.947.947,0,0,0,.718-1.566l-5.409-6.271a.947.947,0,0,0-1.434,0l-.69.8,4.718,5.47A.947.947,0,0,1,413.3,58.251Z" transform="translate(-404.351 -50.087)" fill="#fb9927"/>
          </g>
        </g>
        <g id="Group_1214636" data-name="Group 1214636" transform="translate(-0.001 5.728)">
          <g id="Group_1214624" data-name="Group 1214624" transform="translate(0.819 16.909)">
            <path id="Path_1077552" data-name="Path 1077552" d="M29.082,166.84l.661-6.089c-1.838-.1-13.718-.331-16.661,9.921-2.377,8.28-.007,16.168-5.451,22.819a.545.545,0,0,0,.434.887,8.614,8.614,0,0,0,3.664-.928l.169,3.634a.545.545,0,0,0,.921.369,17.135,17.135,0,0,0,4.658-8.679C19.515,179.772,16.61,166.5,29.082,166.84Z" transform="translate(-7.509 -160.728)" fill="#64b9fc"/>
            <path id="Path_1077553" data-name="Path 1077553" d="M64.171,190.754l-.308,2.836c-12.472-.342-9.567,12.933-11.6,21.935A17.141,17.141,0,0,1,47.6,224.2a.546.546,0,0,1-.921-.37l-.13-2.8a18.1,18.1,0,0,0,3.211-7.049C51.756,205.161,48.466,191.3,64.171,190.754Z" transform="translate(-42.29 -187.478)" fill="#31a7fb"/>
          </g>
          <g id="Group_1214635" data-name="Group 1214635" transform="translate(0 0)">
            <g id="Group_1214633" data-name="Group 1214633" transform="translate(10.731 13.975)">
              <g id="Group_1214632" data-name="Group 1214632">
                <path id="Path_1077554" data-name="Path 1077554" d="M154.88,230.533v15.391l2.455,2.455a3.242,3.242,0,0,1,.95,2.293v8.177h19.4V246.616l3.818-4.241a4.649,4.649,0,0,0,1.194-3.11v-8.732Z" transform="translate(-148.715 -219.984)" fill="#fda79b"/>
                <path id="Path_1077555" data-name="Path 1077555" d="M192.081,240.382v5.051a4.649,4.649,0,0,1-.908,2.761c-2.629.923-5.332,2.26-9.49,3.009-10.5,1.894-15.541-8.864-16.265-10.556l5.536-3.19C176.16,248.8,183.106,242.536,192.081,240.382Z" transform="translate(-158.102 -226.153)" fill="#fc9085"/>
                <path id="Path_1077556" data-name="Path 1077556" d="M334.89,230.536v8.731a4.653,4.653,0,0,1-1.194,3.111l-3.818,4.24v12.233h-4.164V247.668a2.732,2.732,0,0,1,.7-1.828l3.117-3.462a4.652,4.652,0,0,0,1.193-3.111v-8.731h4.165Z" transform="translate(-300.912 -219.987)" fill="#fc9085"/>
                <g id="Group_1214625" data-name="Group 1214625" transform="translate(7.314 8.941)">
                  <path id="Path_1077557" data-name="Path 1077557" d="M170.951,215.793l-5.536,3.19c.724,1.692,5.77,12.45,16.266,10.556,8.463-1.527,10.894-5.484,18.957-3.44a.546.546,0,0,0,.621-.779,8.621,8.621,0,0,0-2.445-2.86l3.311-1.828a.545.545,0,0,0-.016-.963,14.631,14.631,0,0,0-10.031-.951C183.1,220.871,176.158,227.131,170.951,215.793Z" transform="translate(-165.415 -215.793)" fill="#64b9fc"/>
                  <path id="Path_1077558" data-name="Path 1077558" d="M194.263,218.345v2.889a5.147,5.147,0,0,1-8.207,4.142,5.387,5.387,0,0,1-6.416-.1,5.549,5.549,0,0,1-6.16.336,5.7,5.7,0,0,1-2.068,1.351,21.512,21.512,0,0,1-5.994-7.975l5.536-3.19c5.207,11.338,12.153,5.079,21.128,2.925A16.745,16.745,0,0,1,194.263,218.345Z" transform="translate(-165.419 -215.795)" fill="#31a7fb"/>
                </g>
                <g id="Group_1214627" data-name="Group 1214627" transform="translate(7.793)">
                  <path id="Path_1077559" data-name="Path 1077559" d="M237.618,151.184a3.383,3.383,0,0,1-3.383-3.383V137.218a3.383,3.383,0,0,1,6.766,0V147.8A3.383,3.383,0,0,1,237.618,151.184Z" transform="translate(-227.206 -133.835)" fill="#fcb3a9"/>
                  <path id="Path_1077560" data-name="Path 1077560" d="M256.5,137.22V147.8a3.385,3.385,0,0,1-4.868,3.04,3.383,3.383,0,0,0,1.9-3.04V137.22a3.39,3.39,0,0,0-1.9-3.04,3.383,3.383,0,0,1,4.868,3.04Z" transform="translate(-242.705 -133.838)" fill="#fda79b"/>
                  <path id="Path_1077561" data-name="Path 1077561" d="M299.479,157.765a3.226,3.226,0,0,1-3.226-3.226V144.448a3.226,3.226,0,1,1,6.451,0v10.091A3.226,3.226,0,0,1,299.479,157.765Z" transform="translate(-282.458 -140.416)" fill="#fcb3a9"/>
                  <path id="Path_1077562" data-name="Path 1077562" d="M316.92,144.448v10.091a3.225,3.225,0,0,1-4.711,2.862,3.219,3.219,0,0,0,1.741-2.862V144.448a3.224,3.224,0,0,0-1.741-2.864,3.227,3.227,0,0,1,4.711,2.864Z" transform="translate(-296.673 -140.416)" fill="#fda79b"/>
                  <path id="Path_1077563" data-name="Path 1077563" d="M358.36,168.5a2.969,2.969,0,0,1-2.969-2.969v-9.29a2.969,2.969,0,1,1,5.939,0v9.29A2.969,2.969,0,0,1,358.36,168.5Z" transform="translate(-335.144 -151.152)" fill="#fcb3a9"/>
                  <path id="Path_1077564" data-name="Path 1077564" d="M373.457,156.241v9.29A2.97,2.97,0,0,1,369,168.1a2.968,2.968,0,0,0,1.485-2.572v-9.29A2.971,2.971,0,0,0,369,153.67a2.969,2.969,0,0,1,4.454,2.572Z" transform="translate(-347.272 -151.152)" fill="#fda79b"/>
                  <g id="Group_1214626" data-name="Group 1214626" transform="translate(0 0.709)">
                    <path id="Path_1077565" data-name="Path 1077565" d="M173.314,157.914A3.515,3.515,0,0,1,169.8,154.4v-10.55a3.515,3.515,0,1,1,7.029,0V154.4A3.515,3.515,0,0,1,173.314,157.914Z" transform="translate(-169.799 -140.334)" fill="#fcb3a9"/>
                    <path id="Path_1077566" data-name="Path 1077566" d="M193.412,143.853V154.4a3.516,3.516,0,0,1-5,3.187,3.516,3.516,0,0,0,2.03-3.187v-10.55a3.522,3.522,0,0,0-2.03-3.187,3.515,3.515,0,0,1,5,3.187Z" transform="translate(-186.382 -140.338)" fill="#fda79b"/>
                  </g>
                </g>
                <g id="Group_1214629" data-name="Group 1214629" transform="translate(0 3.455)">
                  <g id="Group_1214628" data-name="Group 1214628">
                    <path id="Path_1077567" data-name="Path 1077567" d="M104.631,188.089l-4.1-4.1a7.4,7.4,0,0,1,0-10.464l6.929-6.929a3.733,3.733,0,0,1,5.279,5.279l-6.882,6.882s6.938.074,9.713,7.774Z" transform="translate(-98.366 -165.504)" fill="#fda79b"/>
                  </g>
                </g>
                <g id="Group_1214631" data-name="Group 1214631" transform="translate(4.252 3.455)">
                  <g id="Group_1214630" data-name="Group 1214630">
                    <path id="Path_1077568" data-name="Path 1077568" d="M147.468,171.88l-6.883,6.881c-.912-.051-1.826-.042-2.572-.015a.643.643,0,0,1-.479-1.1l6.826-6.825a3.734,3.734,0,0,0-.006-5.286,3.733,3.733,0,0,1,3.115,6.342Z" transform="translate(-137.344 -165.508)" fill="#fc9085"/>
                  </g>
                </g>
              </g>
            </g>
            <g id="Group_1214634" data-name="Group 1214634">
              <path id="Path_1077569" data-name="Path 1077569" d="M11.131,40.721c-.094.918-.181,1.92-.258,2.834A52.332,52.332,0,0,1,9.989,50.5,16.638,16.638,0,0,1,6,58.335l-.14-3.014a.818.818,0,0,0-1.177-.7,8.143,8.143,0,0,1-2.722.809C5.174,51.2,5.516,46.589,5.877,41.718a43.206,43.206,0,0,1,1.3-8.91c1.679-5.848,6.474-8.088,10.527-8.911,0,.01,0,1.32,0,1.32L14.672,28.25a.818.818,0,0,0,1.157,1.157l4.577-4.577a2.915,2.915,0,1,1,4.122,4.122l-6.882,6.882a.818.818,0,0,0,.57,1.4c.064,0,6.4.15,8.952,7.233a.818.818,0,1,0,1.539-.555c-.122-.339-.253-.663-.39-.974a12.972,12.972,0,0,0,3.572.5q.274,0,.55-.011a.818.818,0,1,0-.066-1.635,11.357,11.357,0,0,1-5.258-1.037,11.975,11.975,0,0,0-2.557-2.742,4.3,4.3,0,0,0,1.3-1.479,4.194,4.194,0,0,0,6.419-.318,4.037,4.037,0,0,0,6.425.137,3.786,3.786,0,0,0,6.823-2.263V32.228a13.8,13.8,0,0,1,8.367.8L51.048,34.6a.818.818,0,0,0-.1,1.364,8.16,8.16,0,0,1,1.909,2.051c-4.972-1.115-7.942.038-11.361,1.364a42.335,42.335,0,0,1-5.4,1.8.818.818,0,1,0,.394,1.588,44.27,44.27,0,0,0,5.6-1.862c.539-.209,1.059-.411,1.573-.6a3.811,3.811,0,0,1-.75,1.245l-3.818,4.241a.818.818,0,0,0-.21.547V58.568a.818.818,0,1,0,1.636,0V46.649l1.636-1.817V58.567a.818.818,0,0,0,.818.818h6.178a.818.818,0,0,0,.818-.818V39.231a17.226,17.226,0,0,1,3.1.513,1.364,1.364,0,0,0,1.55-1.945,9.063,9.063,0,0,0-1.752-2.336L55.15,34.2a1.363,1.363,0,0,0-.043-2.41,14.406,14.406,0,0,0-5.143-1.435V27.378a.818.818,0,1,0-1.636,0V30.29a16.923,16.923,0,0,0-2.8.273v-5.77a3.787,3.787,0,0,0-1.739-3.184V18.731a.818.818,0,0,0-.818-.818H40.65a.129.129,0,0,1-.1-.213l5.408-6.27a.129.129,0,0,1,.2,0l5.408,6.27a.129.129,0,0,1-.1.213H49.147a.818.818,0,0,0-.818.818v4.688a.818.818,0,0,0,1.636,0v-3.87h1.5A1.765,1.765,0,0,0,52.8,16.631l-5.408-6.27a1.765,1.765,0,0,0-2.673,0l-5.408,6.27a1.765,1.765,0,0,0,1.337,2.918h1.5v1.479a3.774,3.774,0,0,0-2.958.964,4.043,4.043,0,0,0-4.483-2.214v-4.25h1.5a1.765,1.765,0,0,0,1.337-2.918L32.138,6.34a1.765,1.765,0,0,0-2.673,0l-5.408,6.27a1.765,1.765,0,0,0,1.337,2.918h1.5v3.887a4.229,4.229,0,0,0-1.627,1.626,4.317,4.317,0,0,0-4.013-1.376L16.627,14.3a1.806,1.806,0,0,0-2.736,0L8.248,20.844A1.806,1.806,0,0,0,9.616,23.83h1.6v.883l-.111.071a13.167,13.167,0,0,0-5.5,7.572A44.5,44.5,0,0,0,4.244,41.6c-.355,4.793-.691,9.32-3.936,13.286a1.363,1.363,0,0,0,1.077,2.223,9.057,9.057,0,0,0,2.89-.539l.114,2.464a1.349,1.349,0,0,0,.855,1.2,1.376,1.376,0,0,0,.512.1,1.351,1.351,0,0,0,.937-.38,17.951,17.951,0,0,0,4.891-9.089,53.506,53.506,0,0,0,.919-7.173c.033-.39.066-.786.1-1.183l6.168,6.168a2.408,2.408,0,0,1,.71,1.714v8.177a.818.818,0,0,0,1.636,0V50.391a4.034,4.034,0,0,0-1.189-2.871l-6.453-6.453a6.579,6.579,0,0,1-.381-8.89.818.818,0,0,0-1.25-1.056,8.218,8.218,0,0,0-.715,9.6ZM27.713,13.892H25.393a.129.129,0,0,1-.1-.213L30.7,7.409a.129.129,0,0,1,.2,0l5.408,6.27a.129.129,0,0,1-.1.213H33.891a.818.818,0,0,0-.818.818v5.827a4.073,4.073,0,0,0-.5.455,4.2,4.2,0,0,0-3.64-2.108c-.136,0-.271.007-.4.02V14.71a.818.818,0,0,0-.818-.818Zm-14.859,9.9v-.78a.818.818,0,0,0-.818-.818H9.615a.17.17,0,0,1-.129-.281L15.13,15.37a.17.17,0,0,1,.257,0l4.264,4.943a4.359,4.359,0,0,0-1.569,1.849A19.345,19.345,0,0,0,12.854,23.792Zm6.513-.232a2.7,2.7,0,0,1,5.127-.745,4.552,4.552,0,0,0-5.127.745Zm5.367,10.918a2.683,2.683,0,0,1-1.72,2.513c-.214-.117-.423-.224-.625-.319a11.891,11.891,0,0,0-2.429-.838l4.774-4.775Zm4.2,1.756a2.568,2.568,0,0,1-2.565-2.565V29.234a4.563,4.563,0,0,0,0-4.684V23.086a2.565,2.565,0,1,1,5.129,0V33.669A2.568,2.568,0,0,1,28.935,36.234Zm6.609,0a2.41,2.41,0,0,1-2.407-2.407V23.735a2.407,2.407,0,0,1,4.815,0V33.826A2.41,2.41,0,0,1,35.544,36.234Zm8.346-2.151a2.151,2.151,0,1,1-4.3,0v-9.29a2.151,2.151,0,1,1,4.3,0Zm-.1,23.667V43.014l.336-.373a5.432,5.432,0,0,0,1.355-2.933,13.536,13.536,0,0,1,2.852-.487V57.749Z" transform="translate(0.001 -5.728)"/>
              <path id="Path_1077570" data-name="Path 1077570" d="M241.83,398.584a.818.818,0,1,0-1.636,0v2.485a8.259,8.259,0,0,0-3.752-3.235.818.818,0,0,0-.654,1.5,7,7,0,0,1,3.838,4.347,10.242,10.242,0,0,1,.568,3.041v1.116a.818.818,0,1,0,1.636,0v-9.253Z" transform="translate(-209.627 -354.997)"/>
            </g>
          </g>
        </g>
      </g>
    </g>
  </g>
</svg>
