<svg xmlns="http://www.w3.org/2000/svg" xmlns:xlink="http://www.w3.org/1999/xlink" width="93.934" height="93.934" viewBox="0 0 93.934 93.934">
  <defs>
    <filter id="Path_982547" x="0" y="0" width="93.934" height="93.934" filterUnits="userSpaceOnUse">
      <feOffset dy="3" input="SourceAlpha"/>
      <feGaussianBlur stdDeviation="3" result="blur"/>
      <feFlood flood-opacity="0.161"/>
      <feComposite operator="in" in2="blur"/>
      <feComposite in="SourceGraphic"/>
    </filter>
  </defs>
  <g id="Group_1218506" data-name="Group 1218506" transform="translate(-612.533 -1199.533)">
    <g id="Group_1217855" data-name="Group 1217855">
      <g id="Group_1216251" data-name="Group 1216251" transform="translate(621.533 1203.926)">
        <g id="Group_1215747" data-name="Group 1215747" transform="translate(0 1.607)">
          <g id="Group_1214376" data-name="Group 1214376">
            <g id="Group_1207744" data-name="Group 1207744">
              <g id="Group_1206679" data-name="Group 1206679">
                <g id="Group_1183665" data-name="Group 1183665">
                  <g id="Group_1181743" data-name="Group 1181743">
                    <g id="Group_1175133" data-name="Group 1175133">
                      <g id="Group_1167337" data-name="Group 1167337">
                        <g id="Group_1166720" data-name="Group 1166720">
                          <g id="Group_1164305" data-name="Group 1164305">
                            <g id="Group_1163948" data-name="Group 1163948">
                              <g id="Group_1158168" data-name="Group 1158168">
                                <g id="Group_1152576" data-name="Group 1152576">
                                  <g id="Group_1148633" data-name="Group 1148633">
                                    <g id="Group_1148525" data-name="Group 1148525">
                                      <g transform="matrix(1, 0, 0, 1, -9, -6)" filter="url(#Path_982547)">
                                        <g id="Path_982547-2" data-name="Path 982547" transform="translate(9 6)" fill="#f2f7e5">
                                          <path d="M 37.966796875 74.43359375 C 33.04315185546875 74.43359375 28.26757431030273 73.46962738037109 23.77274131774902 71.56847381591797 C 19.43047523498535 69.73184967041016 15.53040790557861 67.10224914550781 12.18087482452393 63.75271987915039 C 8.831341743469238 60.4031867980957 6.201741218566895 56.50312042236328 4.365118980407715 52.16086196899414 C 2.463963508605957 47.66601943969727 1.499996900558472 42.89044189453125 1.499996900558472 37.966796875 C 1.499996900558472 33.04315185546875 2.463963508605957 28.26757431030273 4.365118980407715 23.77274131774902 C 6.201741218566895 19.43047523498535 8.831341743469238 15.53040790557861 12.18087482452393 12.18087482452393 C 15.53040790557861 8.831341743469238 19.43047523498535 6.201741218566895 23.77274131774902 4.365118980407715 C 28.26757431030273 2.463963508605957 33.04315185546875 1.499996900558472 37.966796875 1.499996900558472 C 42.89044189453125 1.499996900558472 47.66601943969727 2.463963508605957 52.16086196899414 4.365118980407715 C 56.50312042236328 6.201741218566895 60.4031867980957 8.831341743469238 63.75271987915039 12.18087482452393 C 67.10224914550781 15.53040790557861 69.73184967041016 19.43047523498535 71.56847381591797 23.77274131774902 C 73.46962738037109 28.26757431030273 74.43359375 33.04315185546875 74.43359375 37.966796875 C 74.43359375 42.89044189453125 73.46962738037109 47.66601943969727 71.56847381591797 52.16086196899414 C 69.73184967041016 56.50313186645508 67.10224914550781 60.4031867980957 63.75271987915039 63.75271987915039 C 60.4031867980957 67.10224914550781 56.50313186645508 69.73184967041016 52.16086196899414 71.56847381591797 C 47.66601943969727 73.46962738037109 42.89044189453125 74.43359375 37.966796875 74.43359375 Z" stroke="none"/>
                                          <path d="M 37.966796875 3 C 33.2449836730957 3 28.66600799560547 3.924095153808594 24.35705947875977 5.746635437011719 C 20.19359588623047 7.507637023925781 16.45379638671875 10.02928161621094 13.24153518676758 13.24153518676758 C 10.02927398681641 16.45379638671875 7.507621765136719 20.19359588623047 5.746635437011719 24.35705947875977 C 3.924095153808594 28.66600799560547 3 33.2449836730957 3 37.966796875 C 3 42.6886100769043 3.924095153808594 47.26758575439453 5.746635437011719 51.57653427124023 C 7.507621765136719 55.73999786376953 10.02927398681641 59.47979736328125 13.24153518676758 62.69205856323242 C 16.45379638671875 65.90431976318359 20.19359588623047 68.42597198486328 24.35705947875977 70.18695831298828 C 28.66600799560547 72.00949859619141 33.2449836730957 72.93359375 37.966796875 72.93359375 C 42.6886100769043 72.93359375 47.26758575439453 72.00949859619141 51.57653427124023 70.18695831298828 C 55.73999786376953 68.42597198486328 59.47979736328125 65.90431976318359 62.69205856323242 62.69205856323242 C 65.90431976318359 59.47979736328125 68.42597198486328 55.73999786376953 70.18695831298828 51.57653427124023 C 72.00949859619141 47.26758575439453 72.93359375 42.6886100769043 72.93359375 37.966796875 C 72.93359375 33.2449836730957 72.00949859619141 28.66600799560547 70.18695831298828 24.35705947875977 C 68.42597198486328 20.19359588623047 65.90431976318359 16.45379638671875 62.69205856323242 13.24153518676758 C 59.47979736328125 10.02928161621094 55.73999786376953 7.507637023925781 51.57653427124023 5.746635437011719 C 47.26758575439453 3.924095153808594 42.6886100769043 3 37.966796875 3 M 37.966796875 0 C 58.93528366088867 0 75.93359375 16.99832153320312 75.93359375 37.966796875 C 75.93359375 58.93528366088867 58.93528366088867 75.93359375 37.966796875 75.93359375 C 16.99831008911133 75.93359375 0 58.93528366088867 0 37.966796875 C 0 16.99832153320312 16.99831008911133 0 37.966796875 0 Z" stroke="none" fill="#86b60c"/>
                                        </g>
                                      </g>
                                    </g>
                                  </g>
                                </g>
                              </g>
                            </g>
                          </g>
                        </g>
                      </g>
                    </g>
                  </g>
                </g>
              </g>
            </g>
          </g>
        </g>
      </g>
      <g id="colaboracion_1_" data-name="colaboracion (1)" transform="translate(632.26 1224.515)">
        <path id="Path_1089904" data-name="Path 1089904" d="M384.956,395.159H378.8a4.658,4.658,0,0,0-3.223,4.431v6.359a.844.844,0,0,0,.844.844h10.918a.844.844,0,0,0,.844-.844V399.59A4.658,4.658,0,0,0,384.956,395.159Z" transform="translate(-335.611 -353.105)" fill="#ffe07d"/>
        <path id="Path_1089905" data-name="Path 1089905" d="M446.417,395.159h-2.064a4.658,4.658,0,0,1,3.223,4.431v7.2h1.22a.844.844,0,0,0,.844-.844V399.59A4.658,4.658,0,0,0,446.417,395.159Z" transform="translate(-397.071 -353.105)" fill="#ffd064"/>
        <path id="Path_1089906" data-name="Path 1089906" d="M27.347,395.159H21.188a4.658,4.658,0,0,0-3.223,4.431v6.359a.844.844,0,0,0,.844.844H29.726a.844.844,0,0,0,.844-.844V399.59A4.658,4.658,0,0,0,27.347,395.159Z" transform="translate(-16.053 -353.105)" fill="#b3e59f"/>
        <path id="Path_1089907" data-name="Path 1089907" d="M88.808,395.159H86.744a4.658,4.658,0,0,1,3.223,4.431v7.2h1.22a.844.844,0,0,0,.844-.844V399.59A4.658,4.658,0,0,0,88.808,395.159Z" transform="translate(-77.514 -353.105)" fill="#95d6a4"/>
        <path id="Path_1089908" data-name="Path 1089908" d="M207.691,283.632h-9.238a1.683,1.683,0,0,1-1.683-1.683v-4.4a6.3,6.3,0,0,1,12.605,0v4.4A1.683,1.683,0,0,1,207.691,283.632Z" transform="translate(-175.832 -242.38)" fill="#e27d47"/>
        <path id="Path_1089909" data-name="Path 1089909" d="M246.909,271.249a6.332,6.332,0,0,0-1.082.094,6.3,6.3,0,0,1,5.22,6.208v4.4a1.683,1.683,0,0,1-1.683,1.683h2.165a1.683,1.683,0,0,0,1.683-1.683v-4.4A6.3,6.3,0,0,0,246.909,271.249Z" transform="translate(-219.67 -242.38)" fill="#dd6938"/>
        <path id="Path_1089910" data-name="Path 1089910" d="M16.625,271.249H13.207c-2.44,0-4.426,2.325-4.446,5.21-.018,2.594-.3,5.2-1.261,6.773a23.483,23.483,0,0,0,14.832,0c-.958-1.576-1.243-4.179-1.261-6.773C21.051,273.574,19.065,271.249,16.625,271.249Z" transform="translate(-6.702 -242.38)" fill="#365e7d"/>
        <path id="Path_1089911" data-name="Path 1089911" d="M77.478,277.154a21.794,21.794,0,0,0,.873,6.795,18,18,0,0,0,2.54-.717c-.958-1.576-1.243-4.179-1.261-6.773-.02-2.885-2.006-5.21-4.446-5.21H73.032C75.472,271.249,77.458,273.884,77.478,277.154Z" transform="translate(-65.261 -242.38)" fill="#2b4d66"/>
        <path id="Path_1089912" data-name="Path 1089912" d="M65.891,399.732a1.346,1.346,0,0,1-1.346-1.346v-2.61h2.692v2.61A1.346,1.346,0,0,1,65.891,399.732Z" transform="translate(-57.677 -353.657)" fill="#ffcbbe"/>
        <path id="Path_1089913" data-name="Path 1089913" d="M40.661,330.85a4.35,4.35,0,0,1-4.351-4.35v-3.608a.2.2,0,0,1,.218-.2c2,.139,4.2-.1,5.337-.89a.2.2,0,0,1,.246.012,3.381,3.381,0,0,0,2.678.885.2.2,0,0,1,.222.2v3.6A4.351,4.351,0,0,1,40.661,330.85Z" transform="translate(-32.446 -287.519)" fill="#ffddce"/>
        <path id="Path_1089914" data-name="Path 1089914" d="M73.128,328.3a3.393,3.393,0,0,1-1.73-.266v4.069a4.351,4.351,0,0,1-3.374,4.239,4.349,4.349,0,0,0,5.327-4.239v-3.6A.2.2,0,0,0,73.128,328.3Z" transform="translate(-60.785 -293.127)" fill="#ffcbbe"/>
        <path id="Path_1089915" data-name="Path 1089915" d="M206.151,395.159h-6.159a4.658,4.658,0,0,0-3.223,4.431v6.359a.844.844,0,0,0,.844.844H208.53a.844.844,0,0,0,.844-.844V399.59A4.658,4.658,0,0,0,206.151,395.159Z" transform="translate(-175.832 -353.105)" fill="#bed8fb"/>
        <path id="Path_1089916" data-name="Path 1089916" d="M267.612,395.159h-2.064a4.658,4.658,0,0,1,3.223,4.431v7.2h1.22a.844.844,0,0,0,.844-.844V399.59A4.658,4.658,0,0,0,267.612,395.159Z" transform="translate(-237.292 -353.105)" fill="#9dc6fb"/>
        <path id="Path_1089917" data-name="Path 1089917" d="M244.7,399.732a1.346,1.346,0,0,1-1.346-1.346v-2.61h2.692v2.61A1.346,1.346,0,0,1,244.7,399.732Z" transform="translate(-217.455 -353.657)" fill="#ffcbbe"/>
        <path id="Path_1089918" data-name="Path 1089918" d="M219.464,330.85a4.35,4.35,0,0,1-4.351-4.35v-3.608a.2.2,0,0,1,.218-.2c2,.139,4.2-.1,5.337-.89a.2.2,0,0,1,.246.012,3.381,3.381,0,0,0,2.678.885.2.2,0,0,1,.222.2v3.6A4.35,4.35,0,0,1,219.464,330.85Z" transform="translate(-192.225 -287.519)" fill="#ffddce"/>
        <path id="Path_1089919" data-name="Path 1089919" d="M251.932,328.3a3.392,3.392,0,0,1-1.73-.266v4.069a4.351,4.351,0,0,1-3.374,4.239,4.349,4.349,0,0,0,5.327-4.239v-3.6A.2.2,0,0,0,251.932,328.3Z" transform="translate(-220.563 -293.127)" fill="#ffcbbe"/>
        <path id="Path_1089920" data-name="Path 1089920" d="M374.234,271.249h-3.419c-2.44,0-4.426,2.325-4.446,5.21-.018,2.594-.3,5.2-1.261,6.773a23.483,23.483,0,0,0,14.832,0c-.958-1.576-1.243-4.179-1.261-6.773C378.66,273.574,376.674,271.249,374.234,271.249Z" transform="translate(-326.259 -242.38)" fill="#365e7d"/>
        <path id="Path_1089921" data-name="Path 1089921" d="M435.087,277.154a21.794,21.794,0,0,0,.873,6.795,18,18,0,0,0,2.54-.717c-.958-1.576-1.243-4.179-1.261-6.773-.02-2.885-2.006-5.21-4.446-5.21h-2.152C433.081,271.249,435.067,273.884,435.087,277.154Z" transform="translate(-384.818 -242.38)" fill="#2b4d66"/>
        <path id="Path_1089922" data-name="Path 1089922" d="M423.5,399.732a1.346,1.346,0,0,1-1.346-1.346v-2.61h2.692v2.61A1.346,1.346,0,0,1,423.5,399.732Z" transform="translate(-377.234 -353.657)" fill="#ffcbbe"/>
        <path id="Path_1089923" data-name="Path 1089923" d="M398.27,330.85a4.35,4.35,0,0,1-4.351-4.35v-3.608a.2.2,0,0,1,.218-.2c2,.139,4.2-.1,5.337-.89a.2.2,0,0,1,.246.012,3.381,3.381,0,0,0,2.678.885.2.2,0,0,1,.222.2v3.6A4.351,4.351,0,0,1,398.27,330.85Z" transform="translate(-352.004 -287.519)" fill="#ffddce"/>
        <path id="Path_1089924" data-name="Path 1089924" d="M430.737,328.3a3.393,3.393,0,0,1-1.73-.266v4.069a4.351,4.351,0,0,1-3.374,4.239,4.349,4.349,0,0,0,5.327-4.239v-3.6A.2.2,0,0,0,430.737,328.3Z" transform="translate(-380.342 -293.127)" fill="#ffcbbe"/>
        <path id="Path_1089925" data-name="Path 1089925" d="M58.289,7.508H9.595A2.1,2.1,0,0,0,7.5,9.6V26.425a2.1,2.1,0,0,0,2.095,2.095h1.971a.793.793,0,0,1,.647.335l2.056,2.9a.794.794,0,0,0,1.295,0l2.056-2.9a.793.793,0,0,1,.647-.335H30.591a.793.793,0,0,1,.647.335l2.056,2.9a.794.794,0,0,0,1.295,0l2.056-2.9a.794.794,0,0,1,.647-.335H49.617a.793.793,0,0,1,.647.335l2.056,2.9a.794.794,0,0,0,1.295,0l2.056-2.9a.794.794,0,0,1,.647-.335h1.971a2.1,2.1,0,0,0,2.095-2.095V9.6a2.1,2.1,0,0,0-2.095-2.095Z" transform="translate(-6.702 -6.703)" fill="#bed8fb"/>
        <g id="Group_1217852" data-name="Group 1217852" transform="translate(48.661 0.805)">
          <path id="Path_1089926" data-name="Path 1089926" d="M460.239,7.508h-2.926A2.1,2.1,0,0,1,459.408,9.6V27.382a2.083,2.083,0,0,1-.337,1.137h1.168a2.1,2.1,0,0,0,2.095-2.095V9.6a2.1,2.1,0,0,0-2.095-2.095Z" transform="translate(-457.313 -7.508)" fill="#9dc6fb"/>
        </g>
        <g id="Group_1217853" data-name="Group 1217853" transform="translate(36.711 4.801)">
          <path id="Path_1089927" data-name="Path 1089927" d="M403.031,49.316a2.221,2.221,0,0,1,2.013,3.167l3.141,2.978a6.475,6.475,0,0,0-5.154-10.4q-.17,0-.339.009Z" transform="translate(-396.555 -45.065)" fill="#b3e59f"/>
          <path id="Path_1089928" data-name="Path 1089928" d="M403.031,45.063q-.17,0-.339.009l.015.182a7.678,7.678,0,0,1,3.56,8.386l1.918,1.819a6.475,6.475,0,0,0-5.154-10.4Z" transform="translate(-396.555 -45.063)" fill="#95d6a4"/>
          <path id="Path_1089929" data-name="Path 1089929" d="M349.265,51.614a2.225,2.225,0,0,1,2.225-2.225l-.339-4.242A6.476,6.476,0,0,0,347.616,56.8l2.35-3.572a2.217,2.217,0,0,1-.7-1.618Z" transform="translate(-345.014 -45.138)" fill="#dd636e"/>
          <path id="Path_1089930" data-name="Path 1089930" d="M375.352,114.781a2.22,2.22,0,0,1-3.537.676l-2.35,3.572a6.476,6.476,0,0,0,9.028-1.27Z" transform="translate(-366.862 -107.363)" fill="#ffe07d"/>
          <path id="Path_1089931" data-name="Path 1089931" d="M412.3,125.674a7.685,7.685,0,0,1-2.857,4.363,6.466,6.466,0,0,0,4.775-2.545Z" transform="translate(-402.584 -117.097)" fill="#ffd064"/>
        </g>
        <path id="Path_1089932" data-name="Path 1089932" d="M52.94,95.5H49.707a.4.4,0,0,1-.4-.4V90.644a.4.4,0,0,1,.4-.4H52.94a.4.4,0,0,1,.4.4V95.1A.4.4,0,0,1,52.94,95.5Z" transform="translate(-44.063 -80.638)" fill="#ffe07d"/>
        <path id="Path_1089933" data-name="Path 1089933" d="M69.347,90.247H67.671a.4.4,0,0,1,.4.4V95.1a.4.4,0,0,1-.4.4h1.676a.4.4,0,0,0,.4-.4V90.644a.4.4,0,0,0-.4-.4Z" transform="translate(-60.47 -80.638)" fill="#ffd064"/>
        <path id="Path_1089934" data-name="Path 1089934" d="M119.439,86.562h-3.233a.4.4,0,0,1-.4-.4V80.644a.4.4,0,0,1,.4-.4h3.233a.4.4,0,0,1,.4.4v5.521A.4.4,0,0,1,119.439,86.562Z" transform="translate(-103.486 -71.702)" fill="#b3e59f"/>
        <path id="Path_1089935" data-name="Path 1089935" d="M136.963,80.247H135.42a.4.4,0,0,1,.4.4v5.521a.4.4,0,0,1-.4.4h1.543a.4.4,0,0,0,.4-.4V80.644A.4.4,0,0,0,136.963,80.247Z" transform="translate(-121.011 -71.702)" fill="#95d6a4"/>
        <path id="Path_1089936" data-name="Path 1089936" d="M185.938,68.69H182.7a.4.4,0,0,1-.4-.4v-7.65a.4.4,0,0,1,.4-.4h3.233a.4.4,0,0,1,.4.4v7.65A.4.4,0,0,1,185.938,68.69Z" transform="translate(-162.909 -53.83)" fill="#dd636e"/>
        <path id="Path_1089937" data-name="Path 1089937" d="M202.674,60.247h-1.637a.4.4,0,0,1,.4.4v7.65a.4.4,0,0,1-.4.4h1.637a.4.4,0,0,0,.4-.4v-7.65A.4.4,0,0,0,202.674,60.247Z" transform="translate(-179.646 -53.83)" fill="#da4a54"/>
        <g id="Group_1217854" data-name="Group 1217854" transform="translate(0 0.007)">
          <path id="Path_1089938" data-name="Path 1089938" d="M15.168,269.751c-.023-3.31-2.375-6-5.244-6H6.505c-2.869,0-5.221,2.693-5.244,6-.021,3.008-.406,5.149-1.145,6.364a.8.8,0,0,0,.406,1.163A18.6,18.6,0,0,0,3.04,278a5.44,5.44,0,0,0-1.927,4.163v6.36a1.644,1.644,0,0,0,1.642,1.642H5.273a.8.8,0,0,0,0-1.6H2.756a.046.046,0,0,1-.046-.046v-6.36a3.846,3.846,0,0,1,2.258-3.511,5.16,5.16,0,0,0,1.1.687v1.069a2.144,2.144,0,1,0,4.288,0v-1.069a5.159,5.159,0,0,0,1.1-.687,3.846,3.846,0,0,1,2.258,3.511v6.36a.046.046,0,0,1-.046.046H8.464a.8.8,0,0,0,0,1.6h5.21a1.644,1.644,0,0,0,1.642-1.642v-6.36A5.44,5.44,0,0,0,13.388,278a18.576,18.576,0,0,0,2.518-.72.8.8,0,0,0,.406-1.163c-.739-1.215-1.124-3.356-1.145-6.364Zm-3.4,4.907a3.552,3.552,0,0,1-7.1,0v-2.984a10.549,10.549,0,0,0,4.827-.826,4.075,4.075,0,0,0,2.278.815v3Zm-3,5.748a.548.548,0,1,1-1.1,0v-.629a5.109,5.109,0,0,0,1.1,0Zm4.282-3.966a5.124,5.124,0,0,0,.318-1.782v-3.6a1,1,0,0,0-1.088-1,2.591,2.591,0,0,1-2.091-.7,1,1,0,0,0-1.221-.06,8.582,8.582,0,0,1-4.825.749,1,1,0,0,0-1.072,1v3.608a5.124,5.124,0,0,0,.318,1.782q-.76-.163-1.463-.376a17.362,17.362,0,0,0,.936-6.3c.017-2.436,1.653-4.418,3.648-4.418H9.924c1.995,0,3.631,1.982,3.648,4.418a17.359,17.359,0,0,0,.936,6.3Q13.806,276.277,13.045,276.44Z" transform="translate(0 -235.684)"/>
          <path id="Path_1089939" data-name="Path 1089939" d="M196.37,263.748a7.054,7.054,0,0,0-3.183.757.8.8,0,0,0-1.577-.125l-.112.526-.012-.009a.8.8,0,0,0-.952,1.281l.3.226a7.065,7.065,0,0,0-1.569,4.444v4.4a2.484,2.484,0,0,0,2.286,2.473,5.438,5.438,0,0,0-2.286,4.442v6.359a1.643,1.643,0,0,0,1.642,1.642h10.918a1.644,1.644,0,0,0,1.642-1.642v-6.359a5.439,5.439,0,0,0-2.286-4.442,2.484,2.484,0,0,0,2.286-2.473v-4.4A7.109,7.109,0,0,0,196.37,263.748Zm3.552,10.91a3.552,3.552,0,0,1-7.1,0v-2.984a10.552,10.552,0,0,0,4.827-.826,4.074,4.074,0,0,0,2.278.815v3Zm-4.1,5.119a5.109,5.109,0,0,0,1.1,0v.629a.548.548,0,1,1-1.1,0Zm6.052,8.744a.046.046,0,0,1-.046.046H190.911a.046.046,0,0,1-.046-.046v-6.359a3.846,3.846,0,0,1,2.258-3.511,5.153,5.153,0,0,0,1.1.687v1.069a2.144,2.144,0,1,0,4.288,0v-1.069a5.155,5.155,0,0,0,1.1-.687,3.846,3.846,0,0,1,2.258,3.511v6.359Zm0-13.275a.886.886,0,0,1-.553.82,5.132,5.132,0,0,0,.2-1.408v-3.6a1,1,0,0,0-1.088-1,2.591,2.591,0,0,1-2.091-.7,1,1,0,0,0-1.221-.06,8.581,8.581,0,0,1-4.825.749,1,1,0,0,0-1.072,1v3.608a5.132,5.132,0,0,0,.2,1.408.886.886,0,0,1-.553-.82v-4.4a5.5,5.5,0,1,1,11.009,0v4.4Z" transform="translate(-169.13 -235.684)"/>
          <path id="Path_1089940" data-name="Path 1089940" d="M372.777,269.751c-.023-3.31-2.375-6-5.244-6h-3.419c-2.869,0-5.221,2.693-5.244,6-.021,3.007-.406,5.149-1.145,6.364a.8.8,0,0,0,.406,1.163,18.6,18.6,0,0,0,2.518.72,5.44,5.44,0,0,0-1.927,4.163v6.36a1.644,1.644,0,0,0,1.642,1.642h10.918a1.644,1.644,0,0,0,1.642-1.642v-3.083a.8.8,0,0,0-1.6,0v3.083a.046.046,0,0,1-.046.046H360.364a.046.046,0,0,1-.046-.046v-6.36a3.846,3.846,0,0,1,2.258-3.511,5.158,5.158,0,0,0,1.1.687v1.069a2.144,2.144,0,1,0,4.288,0v-1.069a5.159,5.159,0,0,0,1.1-.687,3.846,3.846,0,0,1,2.258,3.511v.086a.8.8,0,1,0,1.6,0v-.086A5.44,5.44,0,0,0,371,278a18.6,18.6,0,0,0,2.518-.72.8.8,0,0,0,.406-1.163C373.182,274.9,372.8,272.758,372.777,269.751Zm-3.4,1.912v2.995a3.552,3.552,0,0,1-7.1,0v-2.984a10.552,10.552,0,0,0,4.827-.826A4.075,4.075,0,0,0,369.376,271.663Zm-3,8.743a.548.548,0,0,1-1.1,0v-.629a5.11,5.11,0,0,0,1.1,0Zm4.282-3.966a5.125,5.125,0,0,0,.318-1.782v-3.6a1,1,0,0,0-1.088-1,2.589,2.589,0,0,1-2.091-.7,1,1,0,0,0-1.222-.061,8.586,8.586,0,0,1-4.825.749,1,1,0,0,0-1.072,1v3.608a5.125,5.125,0,0,0,.318,1.782q-.76-.163-1.463-.376a17.362,17.362,0,0,0,.936-6.3c.017-2.436,1.653-4.418,3.648-4.418h3.419c1.995,0,3.631,1.982,3.648,4.418a17.358,17.358,0,0,0,.936,6.3Q371.415,276.277,370.654,276.44Z" transform="translate(-319.558 -235.684)"/>
          <path id="Path_1089941" data-name="Path 1089941" d="M344.787,52.112a7.274,7.274,0,1,0-.38-14.538h0a7.274,7.274,0,0,0,.381,14.538Zm-1.427-7.274a1.425,1.425,0,1,1,1.427,1.427A1.428,1.428,0,0,1,343.36,44.837Zm1.427,5.678a5.629,5.629,0,0,1-2.768-.718l1.468-2.231a3.014,3.014,0,0,0,3.423-.582l1.93,1.83A5.63,5.63,0,0,1,344.787,50.515Zm5.678-5.678a5.624,5.624,0,0,1-.671,2.681l-2.071-1.963a3.026,3.026,0,0,0-2.192-3.648l-.218-2.724a5.686,5.686,0,0,1,5.151,5.654Zm-11.356,0a5.675,5.675,0,0,1,4.61-5.578l.214,2.678a3.019,3.019,0,0,0-1.661,4.572l-1.526,2.319a5.625,5.625,0,0,1-1.637-3.991Z" transform="translate(-301.6 -33.567)"/>
          <path id="Path_1089942" data-name="Path 1089942" d="M41.811,83.943V88.4A1.2,1.2,0,0,0,43.006,89.6h3.233A1.2,1.2,0,0,0,47.434,88.4V83.943a1.2,1.2,0,0,0-1.195-1.195H43.006A1.2,1.2,0,0,0,41.811,83.943Zm1.6.4h2.431V88H43.407Z" transform="translate(-37.362 -73.944)"/>
          <path id="Path_1089943" data-name="Path 1089943" d="M109.5,80.659h3.233a1.2,1.2,0,0,0,1.195-1.195V73.943a1.2,1.2,0,0,0-1.195-1.195H109.5a1.2,1.2,0,0,0-1.195,1.195v5.521A1.2,1.2,0,0,0,109.5,80.659Zm.4-6.315h2.431v4.719h-2.431Z" transform="translate(-96.785 -65.008)"/>
          <path id="Path_1089944" data-name="Path 1089944" d="M179.237,62.787a1.2,1.2,0,0,0,1.195-1.195v-7.65a1.2,1.2,0,0,0-1.195-1.195H176a1.2,1.2,0,0,0-1.195,1.195v7.65A1.2,1.2,0,0,0,176,62.787Zm-2.832-8.443h2.431v6.847h-2.431Z" transform="translate(-156.208 -47.136)"/>
          <path id="Path_1089945" data-name="Path 1089945" d="M250.614,67.343H255.2a.8.8,0,0,0,0-1.6h-4.582a.8.8,0,0,0,0,1.6Z" transform="translate(-223.234 -58.752)"/>
          <path id="Path_1089946" data-name="Path 1089946" d="M250.614,94.019H255.2a.8.8,0,0,0,0-1.6h-4.582a.8.8,0,0,0,0,1.6Z" transform="translate(-223.234 -82.589)"/>
          <path id="Path_1089947" data-name="Path 1089947" d="M250.614,120.7H255.2a.8.8,0,0,0,0-1.6h-4.582a.8.8,0,0,0,0,1.6Z" transform="translate(-223.234 -106.427)"/>
          <path id="Path_1089948" data-name="Path 1089948" d="M51.587.007H8.8a.8.8,0,1,0,0,1.6H51.587a1.3,1.3,0,0,1,1.3,1.3V19.722a1.3,1.3,0,0,1-1.3,1.3H49.616a1.594,1.594,0,0,0-1.3.671l-2.049,2.9-2.056-2.9a1.594,1.594,0,0,0-1.3-.671H30.59a1.594,1.594,0,0,0-1.3.671l-2.049,2.9-2.056-2.9a1.594,1.594,0,0,0-1.3-.671H11.565a1.593,1.593,0,0,0-1.3.671l-2.049,2.9-2.056-2.9a1.594,1.594,0,0,0-1.3-.671H2.893a1.3,1.3,0,0,1-1.3-1.3V2.9a1.3,1.3,0,0,1,1.3-1.3H5.605a.8.8,0,0,0,0-1.6H2.893A2.9,2.9,0,0,0,0,2.9V19.722a2.9,2.9,0,0,0,2.893,2.893l1.967,0,2.056,2.9a1.591,1.591,0,0,0,2.6,0l2.052-2.9,12.321,0,2.056,2.9a1.591,1.591,0,0,0,2.6,0l2.052-2.9,12.321,0,2.056,2.9a1.591,1.591,0,0,0,2.6,0l2.052-2.9h1.971a2.9,2.9,0,0,0,2.893-2.893V2.9A2.9,2.9,0,0,0,51.587.007Z" transform="translate(0 -0.007)"/>
        </g>
      </g>
    </g>
  </g>
</svg>
