<svg xmlns="http://www.w3.org/2000/svg" xmlns:xlink="http://www.w3.org/1999/xlink" width="108" height="108" viewBox="0 0 108 108">
  <defs>
    <filter id="Path_904820" x="0" y="0" width="108" height="108" filterUnits="userSpaceOnUse">
      <feOffset dy="3" input="SourceAlpha"/>
      <feGaussianBlur stdDeviation="3" result="blur"/>
      <feFlood flood-opacity="0.161"/>
      <feComposite operator="in" in2="blur"/>
      <feComposite in="SourceGraphic"/>
    </filter>
  </defs>
  <g id="Group_1215573" data-name="Group 1215573" transform="translate(-616.999 -1060.131)">
    <g id="Group_1214543" data-name="Group 1214543" transform="translate(0 -257)">
      <g id="Group_1209015" data-name="Group 1209015" transform="translate(625.999 1323.131)">
        <g id="Group_1207774" data-name="Group 1207774" transform="translate(0 0)">
          <g id="Group_1206630" data-name="Group 1206630" transform="translate(0 0)">
            <g id="Group_1185091" data-name="Group 1185091">
              <g id="Group_1179560" data-name="Group 1179560">
                <g id="Group_1173787" data-name="Group 1173787">
                  <g id="Group_1171910" data-name="Group 1171910">
                    <g id="Group_1167341" data-name="Group 1167341">
                      <g id="Group_1166792" data-name="Group 1166792">
                        <g transform="matrix(1, 0, 0, 1, -9, -6)" filter="url(#Path_904820)">
                          <g id="Path_904820-2" data-name="Path 904820" transform="translate(9 6)" fill="#e9f9fd">
                            <path d="M 44.99999618530273 88.50005340576172 C 39.12687301635742 88.50005340576172 33.43022155761719 87.35012817382812 28.06829643249512 85.08221435546875 C 22.88852119445801 82.89136505126953 18.23629570007324 79.754638671875 14.24084663391113 75.75918579101562 C 10.24540901184082 71.76374053955078 7.108683586120605 67.11151123046875 4.917821407318115 61.93173980712891 C 2.649921178817749 56.56980133056641 1.499996185302734 50.87314987182617 1.499996185302734 45.00002670288086 C 1.499996185302734 39.12690353393555 2.649921178817749 33.43025207519531 4.917821407318115 28.06831359863281 C 7.108683586120605 22.8885383605957 10.24540901184082 18.23631477355957 14.24084663391113 14.24086380004883 C 18.23629570007324 10.2454137802124 22.88852119445801 7.108689308166504 28.06829643249512 4.917839050292969 C 33.43022155761719 2.649926662445068 39.12687301635742 1.500001668930054 44.99999618530273 1.500001668930054 C 50.87311935424805 1.500001668930054 56.56977081298828 2.649926662445068 61.93169784545898 4.917839050292969 C 67.11147308349609 7.108689308166504 71.76369476318359 10.2454137802124 75.75914764404297 14.24086380004883 C 79.75458526611328 18.23631477355957 82.89131164550781 22.8885383605957 85.08216857910156 28.06831359863281 C 87.35007476806641 33.43025207519531 88.5 39.12690353393555 88.5 45.00002670288086 C 88.5 50.87314987182617 87.35007476806641 56.56980133056641 85.08216857910156 61.93173980712891 C 82.89131164550781 67.11151123046875 79.75458526611328 71.76374053955078 75.75914764404297 75.75918579101562 C 71.76369476318359 79.754638671875 67.11147308349609 82.89136505126953 61.93169784545898 85.08221435546875 C 56.56977081298828 87.35012817382812 50.87311935424805 88.50005340576172 44.99999618530273 88.50005340576172 Z" stroke="none"/>
                            <path d="M 44.99999618530273 3 C 39.32870864868164 3 33.82865142822266 4.110054016113281 28.65262603759766 6.299339294433594 C 23.65165710449219 8.414566040039062 19.15968322753906 11.44334411621094 15.301513671875 15.30152893066406 C 11.44333648681641 19.15969848632812 8.414566040039062 23.65167236328125 6.299339294433594 28.65264129638672 C 4.110054016113281 33.82868194580078 2.999992370605469 39.32873916625977 2.999992370605469 45.00002670288086 C 2.999992370605469 50.67131423950195 4.110054016113281 56.17137145996094 6.299339294433594 61.347412109375 C 8.414566040039062 66.34838104248047 11.44333648681641 70.84035491943359 15.301513671875 74.69852447509766 C 19.15968322753906 78.55670928955078 23.65165710449219 81.58547973632812 28.65262603759766 83.70071411132812 C 33.82865142822266 85.88999938964844 39.32870864868164 87.00005340576172 44.99999618530273 87.00005340576172 C 50.67128372192383 87.00005340576172 56.17134094238281 85.88999938964844 61.34736633300781 83.70071411132812 C 66.34834289550781 81.58547973632812 70.84030914306641 78.55670928955078 74.69847869873047 74.69852447509766 C 78.55665588378906 70.84035491943359 81.58542633056641 66.34838104248047 83.70065307617188 61.347412109375 C 85.88993835449219 56.17137145996094 87 50.67131423950195 87 45.00002670288086 C 87 39.32873916625977 85.88993835449219 33.82868194580078 83.70065307617188 28.65264129638672 C 81.58542633056641 23.65167236328125 78.55665588378906 19.15969848632812 74.69847869873047 15.30152893066406 C 70.84030914306641 11.44334411621094 66.34834289550781 8.414566040039062 61.34736633300781 6.299339294433594 C 56.17134094238281 4.110054016113281 50.67128372192383 3 44.99999618530273 3 M 44.99999618530273 0 C 69.85281372070312 0 90 20.14720153808594 90 45.00002670288086 C 90 69.85285949707031 69.85281372070312 90.00005340576172 44.99999618530273 90.00005340576172 C 20.14717864990234 90.00005340576172 -7.62939453125e-06 69.85285949707031 -7.62939453125e-06 45.00002670288086 C -7.62939453125e-06 20.14720153808594 20.14717864990234 0 44.99999618530273 0 Z" stroke="none" fill="#1d7083"/>
                          </g>
                        </g>
                      </g>
                    </g>
                  </g>
                </g>
              </g>
            </g>
          </g>
        </g>
      </g>
      <g id="grupo_1_" data-name="grupo (1)" transform="translate(627.976 1325.024)">
        <path id="Path_1077348" data-name="Path 1077348" d="M41.654,28.107A13.182,13.182,0,1,0,19.2,28.07,4.259,4.259,0,0,0,22.822,30.1H38.049a4.236,4.236,0,0,0,3.6-2Zm0,0" transform="translate(-14.354 -6.242)" fill="#c47a4a"/>
        <path id="Path_1077349" data-name="Path 1077349" d="M99.022,28.1a4.235,4.235,0,0,1-3.605,2H92.223a4.235,4.235,0,0,0,3.605-2A13.185,13.185,0,0,0,86.211,8.094a13.184,13.184,0,0,1,14.772,12.792A13.131,13.131,0,0,1,99.022,28.1Zm0,0" transform="translate(-71.723 -6.239)" fill="#b26944"/>
        <path id="Path_1077350" data-name="Path 1077350" d="M57.728,91.224a7.669,7.669,0,0,1-7.669-7.669V76.57a3.323,3.323,0,0,1,3.324-3.323h8.691A3.323,3.323,0,0,1,65.4,76.57v6.986a7.668,7.668,0,0,1-7.668,7.669Zm0,0" transform="translate(-41.646 -60.521)" fill="#fdd1a7"/>
        <path id="Path_1077351" data-name="Path 1077351" d="M54.216,62.457c-1.193,9.032-12.27,7.306-12.27,7.306V62.457Zm0,0" transform="translate(-34.897 -51.545)" fill="#c47a4a"/>
        <path id="Path_1077352" data-name="Path 1077352" d="M35.248,343.61a13.182,13.182,0,1,0-25.868-.072,4.2,4.2,0,0,1-.848,3.473,4.544,4.544,0,0,0,3.512,7.428H32.6a4.544,4.544,0,0,0,3.512-7.428,4.1,4.1,0,0,1-.862-3.4Zm0,0" transform="translate(-6.24 -272.328)" fill="#ff5a96"/>
        <path id="Path_1077353" data-name="Path 1077353" d="M103.613,349.9a4.546,4.546,0,0,1-4.544,4.546H96.3a4.544,4.544,0,0,0,3.512-7.43,4.1,4.1,0,0,1-.862-3.4,13.187,13.187,0,0,0-11.548-15.7,13.416,13.416,0,0,1,2.086-.054,13.187,13.187,0,0,1,12.235,15.752,4.1,4.1,0,0,0,.862,3.4,4.523,4.523,0,0,1,1.032,2.884Zm0,0" transform="translate(-72.711 -272.328)" fill="#ff3b82"/>
        <path id="Path_1077354" data-name="Path 1077354" d="M57.728,411.061a7.669,7.669,0,0,1-7.669-7.669v-6.986a3.324,3.324,0,0,1,3.324-3.324h8.691a3.323,3.323,0,0,1,3.323,3.324v6.986a7.668,7.668,0,0,1-7.668,7.669Zm0,0" transform="translate(-41.646 -326.605)" fill="#fdd1a7"/>
        <path id="Path_1077355" data-name="Path 1077355" d="M54.216,382.293c-1.193,9.033-12.27,7.307-12.27,7.307v-7.307Zm0,0" transform="translate(-34.897 -317.629)" fill="#ff5a96"/>
        <path id="Path_1077356" data-name="Path 1077356" d="M362.275,28.107a13.182,13.182,0,1,0-22.458-.037,4.26,4.26,0,0,0,3.628,2.035H358.67a4.238,4.238,0,0,0,3.6-2Zm0,0" transform="translate(-281.092 -6.242)" fill="#756f6f"/>
        <path id="Path_1077357" data-name="Path 1077357" d="M419.64,28.1a4.235,4.235,0,0,1-3.6,2h-3.193a4.231,4.231,0,0,0,3.6-2,13.184,13.184,0,0,0-9.617-20.009A13.185,13.185,0,0,1,421.6,20.887,13.126,13.126,0,0,1,419.64,28.1Zm0,0" transform="translate(-338.457 -6.239)" fill="#5b5555"/>
        <path id="Path_1077358" data-name="Path 1077358" d="M378.345,91.224a7.669,7.669,0,0,1-7.669-7.669V76.57A3.323,3.323,0,0,1,374,73.246h8.691a3.323,3.323,0,0,1,3.324,3.323v6.986a7.669,7.669,0,0,1-7.669,7.669Zm0,0" transform="translate(-308.381 -60.521)" fill="#fdd1a7"/>
        <path id="Path_1077359" data-name="Path 1077359" d="M374.836,62.457c-1.193,9.032-12.27,7.306-12.27,7.306V62.457Zm0,0" transform="translate(-301.634 -51.545)" fill="#756f6f"/>
        <path id="Path_1077360" data-name="Path 1077360" d="M355.866,343.61A13.182,13.182,0,1,0,330,343.539a4.2,4.2,0,0,1-.848,3.473,4.543,4.543,0,0,0,3.512,7.428h20.553a4.544,4.544,0,0,0,3.512-7.428,4.1,4.1,0,0,1-.861-3.4Zm0,0" transform="translate(-272.974 -272.328)" fill="#ffa730"/>
        <path id="Path_1077361" data-name="Path 1077361" d="M424.234,349.9a4.546,4.546,0,0,1-4.544,4.546h-2.773a4.544,4.544,0,0,0,3.512-7.43,4.1,4.1,0,0,1-.862-3.4,13.2,13.2,0,0,0-11.548-15.7,13.414,13.414,0,0,1,2.086-.054,13.2,13.2,0,0,1,12.235,15.752,4.1,4.1,0,0,0,.862,3.4,4.522,4.522,0,0,1,1.032,2.884Zm0,0" transform="translate(-339.448 -272.328)" fill="#fa8916"/>
        <path id="Path_1077362" data-name="Path 1077362" d="M378.345,411.061a7.669,7.669,0,0,1-7.669-7.669v-6.986A3.324,3.324,0,0,1,374,393.082h8.691a3.324,3.324,0,0,1,3.324,3.324v6.986a7.669,7.669,0,0,1-7.669,7.669Zm0,0" transform="translate(-308.381 -326.605)" fill="#fdd1a7"/>
        <path id="Path_1077363" data-name="Path 1077363" d="M374.836,382.293c-1.193,9.033-12.27,7.307-12.27,7.307v-7.307Zm0,0" transform="translate(-301.634 -317.629)" fill="#ffa730"/>
        <path id="Path_1077364" data-name="Path 1077364" d="M226.769,233H205.755a1.762,1.762,0,0,0-1.762,1.762v11.385a1.761,1.761,0,0,0,1.762,1.762h11.494v1.481a1.762,1.762,0,0,0,2.949,1.3l3.052-2.783h3.519a1.762,1.762,0,0,0,1.762-1.762V234.758A1.762,1.762,0,0,0,226.769,233Zm0,0" transform="translate(-169.71 -193.423)" fill="#00c2f8"/>
        <path id="Path_1077365" data-name="Path 1077365" d="M324.05,234.758v11.385a1.762,1.762,0,0,1-1.761,1.761h-3.481a1.761,1.761,0,0,0,1.761-1.761V234.758A1.761,1.761,0,0,0,318.809,233h3.481A1.761,1.761,0,0,1,324.05,234.758Zm0,0" transform="translate(-265.23 -193.423)" fill="#00abef"/>
        <path id="Path_1077366" data-name="Path 1077366" d="M163.762,167.027H181.6a1.762,1.762,0,0,1,1.762,1.762v9.8a1.762,1.762,0,0,1-1.762,1.762h-4.142v1.988a1.762,1.762,0,0,1-2.954,1.3l-3.575-3.286h-7.171A1.762,1.762,0,0,1,162,178.589v-9.8a1.762,1.762,0,0,1,1.762-1.762Zm0,0" transform="translate(-134.774 -138.541)" fill="#ffb54e"/>
        <path id="Path_1077367" data-name="Path 1077367" d="M261.807,168.794v9.8a1.762,1.762,0,0,1-1.762,1.761h-3.76a1.761,1.761,0,0,0,1.762-1.761v-9.8a1.761,1.761,0,0,0-1.762-1.762h3.76A1.762,1.762,0,0,1,261.807,168.794Zm0,0" transform="translate(-213.214 -138.545)" fill="#ff9a1b"/>
        <path id="Path_1077368" data-name="Path 1077368" d="M84.727,73.883a2.823,2.823,0,0,1-.6-2.354,14.445,14.445,0,0,0-8.472-16.1,35,35,0,0,0-.263-25.312,8.944,8.944,0,0,0,3.277-5.1,5.461,5.461,0,0,0,3.584-2.485,14.392,14.392,0,0,0-.671-16.135,1.261,1.261,0,0,0-2.028,1.5A11.872,11.872,0,0,1,80.111,21.2a2.945,2.945,0,0,1-1.217,1.1V16.048a4.588,4.588,0,0,0-4.5-4.582q.033-.193.059-.39a1.26,1.26,0,0,0-2.5-.33,6.463,6.463,0,0,1-4.647,5.7,14.513,14.513,0,0,1-5.774.577,1.261,1.261,0,0,0-.5,2.459V22.3A3,3,0,0,1,59.8,21.169,11.921,11.921,0,0,1,70.251,3.024a11.7,11.7,0,0,1,5.328,1.415,1.26,1.26,0,1,0,1.2-2.218,14.44,14.44,0,0,0-20.648,8.563,34.954,34.954,0,0,0-26.219,0,14.441,14.441,0,1,0-26.143,11.7,5.5,5.5,0,0,0,3.609,2.525,8.949,8.949,0,0,0,3.277,5.1,35,35,0,0,0-.264,25.308,14.34,14.34,0,0,0-3.152,1.853,1.26,1.26,0,1,0,1.545,1.991A11.925,11.925,0,0,1,27.772,71.036,5.338,5.338,0,0,0,28.9,75.485a3.241,3.241,0,0,1,.746,2.083,3.288,3.288,0,0,1-3.284,3.284H24.027a8.866,8.866,0,0,0,.983-4.065V69.8a4.588,4.588,0,0,0-4.5-4.582c.022-.129.043-.259.06-.39a1.26,1.26,0,0,0-2.5-.33,6.46,6.46,0,0,1-2.5,4.586c-3.185,2.392-8.276,1.648-8.326,1.641a1.26,1.26,0,0,0-.388,2.491c.029,0,.132.02.3.039v3.531a8.866,8.866,0,0,0,.983,4.065H5.8A3.288,3.288,0,0,1,2.52,77.568a3.241,3.241,0,0,1,.746-2.083,5.44,5.44,0,0,0,1.111-4.514,11.987,11.987,0,0,1-.218-2.276A11.794,11.794,0,0,1,5.428,63.34a1.26,1.26,0,1,0-2.251-1.134,14.3,14.3,0,0,0-1.537,6.489A14.5,14.5,0,0,0,1.9,71.451a2.931,2.931,0,0,1-.584,2.432A5.8,5.8,0,0,0,5.8,83.372h4.254a8.91,8.91,0,0,0,12.045,0h4.254A5.8,5.8,0,0,0,32,76.2a35.026,35.026,0,0,0,22.05,0,5.8,5.8,0,0,0,5.64,7.173h4.254a8.91,8.91,0,0,0,12.045,0h4.254a5.8,5.8,0,0,0,4.486-9.49Zm-75.054,2.9V73.356a13.086,13.086,0,0,0,7.4-2.247,8.473,8.473,0,0,0,2.7-3.372h.66A2.066,2.066,0,0,1,22.49,69.8v6.986a6.409,6.409,0,1,1-12.817,0ZM68.127,18.826a8.97,8.97,0,0,0,5.521-4.84h.662a2.065,2.065,0,0,1,2.063,2.063v6.986a6.409,6.409,0,0,1-12.817,0V19.6a15.605,15.605,0,0,0,4.571-.776ZM5.914,21.169a11.922,11.922,0,1,1,20.313.033,2.946,2.946,0,0,1-1.216,1.1V16.048a4.588,4.588,0,0,0-4.5-4.582q.032-.193.058-.39a1.26,1.26,0,0,0-2.5-.33,6.462,6.462,0,0,1-4.647,5.7,14.513,14.513,0,0,1-5.774.577,1.261,1.261,0,0,0-.5,2.459V22.3a3,3,0,0,1-1.237-1.128Zm3.758,1.865V19.6a15.609,15.609,0,0,0,4.571-.776,8.97,8.97,0,0,0,5.521-4.84h.662a2.065,2.065,0,0,1,2.063,2.063v6.986a6.408,6.408,0,1,1-12.817,0ZM30.307,72.863a2.8,2.8,0,0,1-.062-1.335A14.43,14.43,0,0,0,12.786,54.637a32.474,32.474,0,0,1,.083-23.274,8.921,8.921,0,0,0,11.917-6.35,5.453,5.453,0,0,0,3.584-2.485,14.391,14.391,0,0,0,2.149-7.907c-.009-.444-.041-.885-.091-1.322a32.437,32.437,0,0,1,25.187,0,14.628,14.628,0,0,0-.1,1.641,14.4,14.4,0,0,0,2.128,7.546,5.5,5.5,0,0,0,3.609,2.526,8.922,8.922,0,0,0,11.917,6.351,32.469,32.469,0,0,1,.085,23.271A14.44,14.44,0,0,0,55.522,68.694a14.508,14.508,0,0,0,.264,2.757,3.049,3.049,0,0,1-.058,1.416,32.44,32.44,0,0,1-25.421,0ZM69.964,83.2a6.416,6.416,0,0,1-6.409-6.409V73.356a13.086,13.086,0,0,0,7.4-2.247,8.475,8.475,0,0,0,2.7-3.372h.66A2.066,2.066,0,0,1,76.373,69.8v6.986A6.416,6.416,0,0,1,69.964,83.2Zm10.277-2.344H77.911a8.867,8.867,0,0,0,.983-4.065V69.8a4.588,4.588,0,0,0-4.5-4.582c.022-.129.043-.259.06-.39a1.26,1.26,0,0,0-2.5-.33,6.46,6.46,0,0,1-2.5,4.586c-3.185,2.392-8.276,1.648-8.326,1.641a1.26,1.26,0,0,0-.388,2.491c.029,0,.132.02.3.039v3.531a8.866,8.866,0,0,0,.983,4.065H59.688A3.288,3.288,0,0,1,56.4,77.568a3.241,3.241,0,0,1,.746-2.084,5.443,5.443,0,0,0,1.111-4.513,11.994,11.994,0,0,1-.218-2.277A11.923,11.923,0,0,1,70.592,56.788,11.93,11.93,0,0,1,81.656,71.036a5.338,5.338,0,0,0,1.124,4.448,3.244,3.244,0,0,1,.746,2.083,3.288,3.288,0,0,1-3.284,3.284Zm0,0" transform="translate(0)"/>
        <path id="Path_1077369" data-name="Path 1077369" d="M188.616,185.026V173.64a3.026,3.026,0,0,0-3.022-3.022h-7.206v-8.064a3.025,3.025,0,0,0-3.022-3.022H157.522a3.025,3.025,0,0,0-3.022,3.022v9.8a3.026,3.026,0,0,0,3.022,3.022h4.035v9.65a3.026,3.026,0,0,0,3.022,3.022h2.4a1.26,1.26,0,1,0,0-2.521h-2.4a.5.5,0,0,1-.5-.5v-9.65h.125l3.214,2.954a2.992,2.992,0,0,0,2.032.8,3.047,3.047,0,0,0,1.229-.262,2.983,2.983,0,0,0,1.807-2.767v-.728h2.881a3.024,3.024,0,0,0,2.915-2.237h7.313a.5.5,0,0,1,.5.5v11.385a.5.5,0,0,1-.5.5h-3.519a1.262,1.262,0,0,0-.85.329l-3.051,2.784a.5.5,0,0,1-.84-.371v-1.481a1.26,1.26,0,0,0-1.26-1.26h-3.295a1.26,1.26,0,1,0,0,2.521h2.034v.221a2.985,2.985,0,0,0,1.8,2.765,3.043,3.043,0,0,0,1.233.263,2.992,2.992,0,0,0,2.024-.8l2.691-2.454h3.031a3.026,3.026,0,0,0,3.022-3.022Zm-12.75-12.672a.5.5,0,0,1-.5.5h-4.142a1.261,1.261,0,0,0-1.26,1.26V176.1a.5.5,0,0,1-.84.37l-3.575-3.286a1.261,1.261,0,0,0-.853-.333h-7.171a.5.5,0,0,1-.5-.5v-9.8a.5.5,0,0,1,.5-.5h17.843a.5.5,0,0,1,.5.5v9.8Zm0,0" transform="translate(-128.535 -132.305)"/>
        <path id="Path_1077370" data-name="Path 1077370" d="M199.715,199.172h-6.271a1.26,1.26,0,0,0,0,2.521h6.271a1.26,1.26,0,1,0,0-2.521Zm0,0" transform="translate(-159.886 -165.284)"/>
        <path id="Path_1077371" data-name="Path 1077371" d="M280.214,272.373a1.26,1.26,0,1,0,0-2.521h-5.923a1.26,1.26,0,0,0,0,2.521Zm0,0" transform="translate(-227.146 -224.085)"/>
      </g>
    </g>
  </g>
</svg>
