<svg xmlns="http://www.w3.org/2000/svg" xmlns:xlink="http://www.w3.org/1999/xlink" width="93.934" height="93.934" viewBox="0 0 93.934 93.934">
  <defs>
    <filter id="Path_982547" x="0" y="0" width="93.934" height="93.934" filterUnits="userSpaceOnUse">
      <feOffset dy="3" input="SourceAlpha"/>
      <feGaussianBlur stdDeviation="3" result="blur"/>
      <feFlood flood-opacity="0.161"/>
      <feComposite operator="in" in2="blur"/>
      <feComposite in="SourceGraphic"/>
    </filter>
  </defs>
  <g id="Group_1215530" data-name="Group 1215530" transform="translate(-191.066 -1392)">
    <g id="Group_1214502" data-name="Group 1214502">
      <g id="Group_1214141" data-name="Group 1214141" transform="translate(200.066 1398)">
        <g id="Group_1183158" data-name="Group 1183158" transform="translate(0 0)">
          <g id="Group_1179614" data-name="Group 1179614">
            <g id="Group_1175227" data-name="Group 1175227">
              <g id="Group_1167337" data-name="Group 1167337">
                <g id="Group_1166720" data-name="Group 1166720">
                  <g id="Group_1164305" data-name="Group 1164305">
                    <g id="Group_1163948" data-name="Group 1163948">
                      <g id="Group_1158168" data-name="Group 1158168">
                        <g id="Group_1152576" data-name="Group 1152576">
                          <g id="Group_1148633" data-name="Group 1148633">
                            <g id="Group_1148525" data-name="Group 1148525">
                              <g transform="matrix(1, 0, 0, 1, -9, -6)" filter="url(#Path_982547)">
                                <g id="Path_982547-2" data-name="Path 982547" transform="translate(9 6)" fill="#f5f5f5">
                                  <path d="M 37.966796875 74.43359375 C 33.04315185546875 74.43359375 28.26757431030273 73.46962738037109 23.77274131774902 71.56847381591797 C 19.43047523498535 69.73184967041016 15.53040790557861 67.10224914550781 12.18087482452393 63.75271987915039 C 8.831341743469238 60.4031867980957 6.201741218566895 56.50312042236328 4.365118980407715 52.16086196899414 C 2.463963508605957 47.66601943969727 1.499996900558472 42.89044189453125 1.499996900558472 37.966796875 C 1.499996900558472 33.04315185546875 2.463963508605957 28.26757431030273 4.365118980407715 23.77274131774902 C 6.201741218566895 19.43047523498535 8.831341743469238 15.53040790557861 12.18087482452393 12.18087482452393 C 15.53040790557861 8.831341743469238 19.43047523498535 6.201741218566895 23.77274131774902 4.365118980407715 C 28.26757431030273 2.463963508605957 33.04315185546875 1.499996900558472 37.966796875 1.499996900558472 C 42.89044189453125 1.499996900558472 47.66601943969727 2.463963508605957 52.16086196899414 4.365118980407715 C 56.50312042236328 6.201741218566895 60.4031867980957 8.831341743469238 63.75271987915039 12.18087482452393 C 67.10224914550781 15.53040790557861 69.73184967041016 19.43047523498535 71.56847381591797 23.77274131774902 C 73.46962738037109 28.26757431030273 74.43359375 33.04315185546875 74.43359375 37.966796875 C 74.43359375 42.89044189453125 73.46962738037109 47.66601943969727 71.56847381591797 52.16086196899414 C 69.73184967041016 56.50313186645508 67.10224914550781 60.4031867980957 63.75271987915039 63.75271987915039 C 60.4031867980957 67.10224914550781 56.50313186645508 69.73184967041016 52.16086196899414 71.56847381591797 C 47.66601943969727 73.46962738037109 42.89044189453125 74.43359375 37.966796875 74.43359375 Z" stroke="none"/>
                                  <path d="M 37.966796875 3 C 33.2449836730957 3 28.66600799560547 3.924095153808594 24.35705947875977 5.746635437011719 C 20.19359588623047 7.507637023925781 16.45379638671875 10.02928161621094 13.24153518676758 13.24153518676758 C 10.02927398681641 16.45379638671875 7.507621765136719 20.19359588623047 5.746635437011719 24.35705947875977 C 3.924095153808594 28.66600799560547 3 33.2449836730957 3 37.966796875 C 3 42.6886100769043 3.924095153808594 47.26758575439453 5.746635437011719 51.57653427124023 C 7.507621765136719 55.73999786376953 10.02927398681641 59.47979736328125 13.24153518676758 62.69205856323242 C 16.45379638671875 65.90431976318359 20.19359588623047 68.42597198486328 24.35705947875977 70.18695831298828 C 28.66600799560547 72.00949859619141 33.2449836730957 72.93359375 37.966796875 72.93359375 C 42.6886100769043 72.93359375 47.26758575439453 72.00949859619141 51.57653427124023 70.18695831298828 C 55.73999786376953 68.42597198486328 59.47979736328125 65.90431976318359 62.69205856323242 62.69205856323242 C 65.90431976318359 59.47979736328125 68.42597198486328 55.73999786376953 70.18695831298828 51.57653427124023 C 72.00949859619141 47.26758575439453 72.93359375 42.6886100769043 72.93359375 37.966796875 C 72.93359375 33.2449836730957 72.00949859619141 28.66600799560547 70.18695831298828 24.35705947875977 C 68.42597198486328 20.19359588623047 65.90431976318359 16.45379638671875 62.69205856323242 13.24153518676758 C 59.47979736328125 10.02928161621094 55.73999786376953 7.507637023925781 51.57653427124023 5.746635437011719 C 47.26758575439453 3.924095153808594 42.6886100769043 3 37.966796875 3 M 37.966796875 0 C 58.93528366088867 0 75.93359375 16.99832153320312 75.93359375 37.966796875 C 75.93359375 58.93528366088867 58.93528366088867 75.93359375 37.966796875 75.93359375 C 16.99831008911133 75.93359375 0 58.93528366088867 0 37.966796875 C 0 16.99832153320312 16.99831008911133 0 37.966796875 0 Z" stroke="none" fill="#86b60c"/>
                                </g>
                              </g>
                            </g>
                          </g>
                        </g>
                      </g>
                    </g>
                  </g>
                </g>
              </g>
            </g>
          </g>
        </g>
      </g>
      <g id="grupo" transform="translate(212.346 1410.131)">
        <path id="Path_1077074" data-name="Path 1077074" d="M24.024,90.05H14.106a.78.78,0,0,1-.78-.78V87.08a5.739,5.739,0,0,1,5.739-5.739h0A5.739,5.739,0,0,1,24.8,87.08V89.27A.781.781,0,0,1,24.024,90.05Z" transform="translate(-11.989 -72.997)" fill="#c3da40"/>
        <path id="Path_1077075" data-name="Path 1077075" d="M131.312,250.86a4.92,4.92,0,0,1-2.123-2.5,5.113,5.113,0,0,1-3.079-4.744,5.056,5.056,0,0,1,4.968-5.129H137.4a5.131,5.131,0,0,1,0,10.258h-4.9a4.923,4.923,0,0,0,.051,1.31l.227,1.34a.214.214,0,0,1-.329.214Z" transform="translate(-113.456 -214.374)" fill="#ff62a7"/>
        <path id="Path_1077076" data-name="Path 1077076" d="M168.942,243.616a5.056,5.056,0,0,0-4.968-5.129H157.65a4.806,4.806,0,0,0-2,.438,8.152,8.152,0,0,0,8.17,7.563h4.272A5.216,5.216,0,0,0,168.942,243.616Z" transform="translate(-140.029 -214.375)" fill="#fc5479"/>
        <path id="Path_1077077" data-name="Path 1077077" d="M196.805,194.75a6.013,6.013,0,0,0,.138-1.988H190.8a6.291,6.291,0,1,1-.1-12.582h7.936a6.348,6.348,0,0,1,6.378,6.215,6.267,6.267,0,0,1-3.9,5.9,6.678,6.678,0,0,1-3.127,3.336l-1.178.68a.214.214,0,0,1-.316-.234Z" transform="translate(-165.913 -161.918)" fill="#31d2f7"/>
        <path id="Path_1077078" data-name="Path 1077078" d="M189.559,188.277a6.3,6.3,0,0,1,6.29-6.388H203a6.415,6.415,0,0,0-4.362-1.709h-7.936a6.291,6.291,0,1,0,.1,12.582h.776A6.217,6.217,0,0,1,189.559,188.277Z" transform="translate(-165.912 -161.918)" fill="#13ace8"/>
        <path id="Path_1077079" data-name="Path 1077079" d="M394.507,90.05h-9.918a.78.78,0,0,1-.78-.78V87.08a5.739,5.739,0,0,1,5.739-5.739h0a5.739,5.739,0,0,1,5.739,5.739V89.27A.781.781,0,0,1,394.507,90.05Z" transform="translate(-345.298 -72.997)" fill="#ffcf59"/>
        <path id="Path_1077080" data-name="Path 1077080" d="M24.024,395.578H14.106a.78.78,0,0,1-.78-.78v-2.189a5.739,5.739,0,0,1,5.739-5.739h0a5.739,5.739,0,0,1,5.739,5.739V394.8A.781.781,0,0,1,24.024,395.578Z" transform="translate(-11.989 -347.868)" fill="#ff62a7"/>
        <path id="Path_1077081" data-name="Path 1077081" d="M394.507,395.578h-9.918a.78.78,0,0,1-.78-.78v-2.189a5.739,5.739,0,0,1,5.739-5.739h0a5.739,5.739,0,0,1,5.739,5.739V394.8A.781.781,0,0,1,394.507,395.578Z" transform="translate(-345.298 -347.868)" fill="#31d2f7"/>
        <path id="Path_1077082" data-name="Path 1077082" d="M17.735,89.27V87.08a5.741,5.741,0,0,1,3.534-5.3,5.721,5.721,0,0,0-2.205-.44h0a5.739,5.739,0,0,0-5.739,5.739V89.27a.78.78,0,0,0,.78.78h4.41A.78.78,0,0,1,17.735,89.27Z" transform="translate(-11.988 -72.997)" fill="#adbc15"/>
        <path id="Path_1077083" data-name="Path 1077083" d="M388.217,89.27V87.08a5.74,5.74,0,0,1,3.534-5.3,5.721,5.721,0,0,0-2.205-.44h0a5.739,5.739,0,0,0-5.739,5.739V89.27a.78.78,0,0,0,.78.78H389A.78.78,0,0,1,388.217,89.27Z" transform="translate(-345.296 -72.997)" fill="#ffb55c"/>
        <path id="Path_1077084" data-name="Path 1077084" d="M17.735,394.8v-2.189a5.74,5.74,0,0,1,3.534-5.3,5.722,5.722,0,0,0-2.205-.44h0a5.739,5.739,0,0,0-5.739,5.739V394.8a.78.78,0,0,0,.78.78h4.41A.78.78,0,0,1,17.735,394.8Z" transform="translate(-11.988 -347.868)" fill="#fc5479"/>
        <path id="Path_1077085" data-name="Path 1077085" d="M388.217,394.8v-2.189a5.74,5.74,0,0,1,3.534-5.3,5.722,5.722,0,0,0-2.205-.44h0a5.739,5.739,0,0,0-5.739,5.739V394.8a.78.78,0,0,0,.78.78H389A.78.78,0,0,1,388.217,394.8Z" transform="translate(-345.296 -347.868)" fill="#13ace8"/>
        <g id="Group_1214500" data-name="Group 1214500" transform="translate(3.308 4.173)">
          <path id="Path_1077086" data-name="Path 1077086" d="M36.683,47.21A3.719,3.719,0,1,1,40.4,43.49,3.723,3.723,0,0,1,36.683,47.21Z" transform="translate(-32.964 -39.771)" fill="#fad393"/>
          <path id="Path_1077087" data-name="Path 1077087" d="M407.165,47.21a3.719,3.719,0,1,1,3.719-3.719A3.723,3.723,0,0,1,407.165,47.21Z" transform="translate(-366.272 -39.771)" fill="#fad393"/>
          <path id="Path_1077088" data-name="Path 1077088" d="M36.683,352.739a3.719,3.719,0,1,1,3.719-3.719A3.724,3.724,0,0,1,36.683,352.739Z" transform="translate(-32.964 -314.644)" fill="#fad393"/>
          <path id="Path_1077089" data-name="Path 1077089" d="M407.165,352.739a3.719,3.719,0,1,1,3.719-3.719A3.724,3.724,0,0,1,407.165,352.739Z" transform="translate(-366.272 -314.644)" fill="#fad393"/>
        </g>
        <g id="Group_1214501" data-name="Group 1214501" transform="translate(3.307 4.173)">
          <path id="Path_1077090" data-name="Path 1077090" d="M36.476,43.49a3.722,3.722,0,0,1,1.963-3.277,3.719,3.719,0,1,0,0,6.555A3.722,3.722,0,0,1,36.476,43.49Z" transform="translate(-32.963 -39.771)" fill="#edb769"/>
          <path id="Path_1077091" data-name="Path 1077091" d="M406.959,43.49a3.722,3.722,0,0,1,1.963-3.277,3.719,3.719,0,1,0,0,6.555A3.722,3.722,0,0,1,406.959,43.49Z" transform="translate(-366.272 -39.771)" fill="#edb769"/>
          <path id="Path_1077092" data-name="Path 1077092" d="M36.476,349.019a3.722,3.722,0,0,1,1.963-3.277,3.719,3.719,0,1,0,0,6.555A3.722,3.722,0,0,1,36.476,349.019Z" transform="translate(-32.963 -314.644)" fill="#edb769"/>
          <path id="Path_1077093" data-name="Path 1077093" d="M406.959,349.019a3.722,3.722,0,0,1,1.963-3.277,3.719,3.719,0,1,0,0,6.555A3.722,3.722,0,0,1,406.959,349.019Z" transform="translate(-366.272 -314.644)" fill="#edb769"/>
        </g>
        <path id="Path_1077094" data-name="Path 1077094" d="M124.368,23.512a.833.833,0,0,0,.419-.113,24.007,24.007,0,0,1,2.491-1.258.836.836,0,0,0-.665-1.534,25.692,25.692,0,0,0-2.665,1.345.836.836,0,0,0,.42,1.559Z" transform="translate(-111.136 -18.295)"/>
        <path id="Path_1077095" data-name="Path 1077095" d="M290.972,5.512a23.953,23.953,0,0,1,2.718.637.836.836,0,1,0,.476-1.6,25.634,25.634,0,0,0-2.908-.681.836.836,0,0,0-.286,1.647Z" transform="translate(-261.153 -3.283)"/>
        <path id="Path_1077096" data-name="Path 1077096" d="M233.715,1.918l.05,0c.474-.028.956-.042,1.432-.042h0c.452,0,.909.013,1.358.038a.836.836,0,0,0,.093-1.669c-.48-.027-.968-.04-1.452-.04h0c-.509,0-1.024.015-1.531.045a.836.836,0,0,0,.048,1.67Z" transform="translate(-209.513)"/>
        <path id="Path_1077097" data-name="Path 1077097" d="M489.244,190.275a.836.836,0,0,0-.619,1.007,24.046,24.046,0,0,1,.487,2.749.836.836,0,0,0,.829.738.845.845,0,0,0,.1-.006.836.836,0,0,0,.732-.928,25.683,25.683,0,0,0-.521-2.941A.836.836,0,0,0,489.244,190.275Z" transform="translate(-439.576 -170.98)"/>
        <path id="Path_1077098" data-name="Path 1077098" d="M480.522,308.3a.836.836,0,1,0,1.571.572,25.615,25.615,0,0,0,.856-2.864.836.836,0,0,0-1.627-.384A23.961,23.961,0,0,1,480.522,308.3Z" transform="translate(-432.262 -274.193)"/>
        <path id="Path_1077099" data-name="Path 1077099" d="M345.9,21.833a24.029,24.029,0,0,1,2.5,1.251.836.836,0,0,0,.835-1.448,25.68,25.68,0,0,0-2.671-1.338.836.836,0,1,0-.66,1.536Z" transform="translate(-310.742 -18.016)"/>
        <path id="Path_1077100" data-name="Path 1077100" d="M7.318,305.257a.836.836,0,0,0-.62,1.006,25.592,25.592,0,0,0,.858,2.861.836.836,0,0,0,1.57-.573,23.932,23.932,0,0,1-.8-2.674A.835.835,0,0,0,7.318,305.257Z" transform="translate(-6.005 -274.425)"/>
        <path id="Path_1077101" data-name="Path 1077101" d="M177.1,6.329a.834.834,0,0,0,.241-.036,23.951,23.951,0,0,1,2.716-.646A.836.836,0,0,0,179.768,4a25.619,25.619,0,0,0-2.906.691.836.836,0,0,0,.24,1.637Z" transform="translate(-158.58 -3.406)"/>
        <path id="Path_1077102" data-name="Path 1077102" d="M494.692,247.347a.836.836,0,0,0-.836.836v.053a24.386,24.386,0,0,1-.16,2.788.836.836,0,1,0,1.66.192,26.047,26.047,0,0,0,.171-2.98v-.053A.836.836,0,0,0,494.692,247.347Z" transform="translate(-444.154 -222.346)"/>
        <path id="Path_1077103" data-name="Path 1077103" d="M265.758,491.813a24.169,24.169,0,0,1-2.774.322.836.836,0,0,0,.048,1.67h.049a25.8,25.8,0,0,0,2.966-.345.836.836,0,1,0-.289-1.646Z" transform="translate(-235.888 -442.271)"/>
        <path id="Path_1077104" data-name="Path 1077104" d="M208.552,492.177a24.179,24.179,0,0,1-2.774-.319.836.836,0,1,0-.288,1.647,25.837,25.837,0,0,0,2.966.342h.048a.836.836,0,0,0,.047-1.67Z" transform="translate(-184.249 -442.311)"/>
        <path id="Path_1077105" data-name="Path 1077105" d="M153.487,476.43a23.881,23.881,0,0,1-2.625-.954.836.836,0,0,0-.662,1.535,25.636,25.636,0,0,0,2.809,1.02.836.836,0,1,0,.478-1.6Z" transform="translate(-134.675 -427.523)"/>
        <path id="Path_1077106" data-name="Path 1077106" d="M2.359,195.534a.835.835,0,0,0,.925-.735,24.022,24.022,0,0,1,.479-2.75.836.836,0,0,0-1.627-.382,25.724,25.724,0,0,0-.512,2.942A.836.836,0,0,0,2.359,195.534Z" transform="translate(-1.456 -171.672)"/>
        <path id="Path_1077107" data-name="Path 1077107" d="M322.037,475.379a23.957,23.957,0,0,1-2.623.956.836.836,0,1,0,.48,1.6,25.623,25.623,0,0,0,2.807-1.023.836.836,0,0,0-.664-1.534Z" transform="translate(-286.828 -427.435)"/>
        <path id="Path_1077108" data-name="Path 1077108" d="M1.1,252.686a.836.836,0,0,0,.733-.927,24.369,24.369,0,0,1-.163-2.788.836.836,0,0,0-.836-.835h0a.836.836,0,0,0-.835.837,26.052,26.052,0,0,0,.174,2.98.836.836,0,0,0,.829.739A.849.849,0,0,0,1.1,252.686Z" transform="translate(0 -223.056)"/>
        <path id="Path_1077109" data-name="Path 1077109" d="M6.478,47.008h9.656a1.778,1.778,0,0,0,1.776-1.776V43.218a6.035,6.035,0,0,0-.323-1.954.754.754,0,1,0-1.427.487,4.531,4.531,0,0,1,.242,1.467v2.014a.269.269,0,0,1-.268.268H6.478a.269.269,0,0,1-.268-.268V43.218a4.547,4.547,0,0,1,1.512-3.382,4.414,4.414,0,1,0-.7-1.379A6.056,6.056,0,0,0,4.7,43.218v2.014A1.778,1.778,0,0,0,6.478,47.008Zm4.779-12.742a2.915,2.915,0,1,1-2.915,2.915A2.918,2.918,0,0,1,11.257,34.266Z" transform="translate(-4.23 -29.288)"/>
        <path id="Path_1077110" data-name="Path 1077110" d="M375.652,43.219v2.014a1.778,1.778,0,0,0,1.776,1.776h9.656a1.778,1.778,0,0,0,1.776-1.776V43.219a6.035,6.035,0,0,0-.323-1.954.754.754,0,1,0-1.427.487,4.534,4.534,0,0,1,.242,1.467v2.014a.269.269,0,0,1-.268.268h-9.656a.269.269,0,0,1-.268-.268V43.219a4.547,4.547,0,0,1,1.512-3.382,4.413,4.413,0,1,0-.7-1.379A6.055,6.055,0,0,0,375.652,43.219Zm6.555-8.952a2.915,2.915,0,1,1-2.915,2.915A2.918,2.918,0,0,1,382.207,34.267Z" transform="translate(-337.96 -29.289)"/>
        <path id="Path_1077111" data-name="Path 1077111" d="M387.581,345.663a.754.754,0,0,0-.47.957,4.532,4.532,0,0,1,.242,1.467V350.1a.269.269,0,0,1-.268.268h-9.656a.269.269,0,0,1-.268-.268v-2.014a4.547,4.547,0,0,1,1.512-3.382,4.413,4.413,0,1,0-.7-1.379,6.056,6.056,0,0,0-2.32,4.761V350.1a1.778,1.778,0,0,0,1.776,1.776h9.656a1.778,1.778,0,0,0,1.776-1.776v-2.014a6.036,6.036,0,0,0-.323-1.954A.754.754,0,0,0,387.581,345.663Zm-5.374-6.528a2.915,2.915,0,1,1-2.915,2.915A2.918,2.918,0,0,1,382.207,339.135Z" transform="translate(-337.959 -303.567)"/>
        <path id="Path_1077112" data-name="Path 1077112" d="M16.631,345.663a.754.754,0,0,0-.47.957,4.531,4.531,0,0,1,.242,1.467V350.1a.269.269,0,0,1-.268.268H6.478a.269.269,0,0,1-.268-.268v-2.014a4.547,4.547,0,0,1,1.512-3.382,4.413,4.413,0,1,0-.7-1.379,6.056,6.056,0,0,0-2.32,4.761V350.1a1.778,1.778,0,0,0,1.776,1.776h9.656a1.778,1.778,0,0,0,1.776-1.776v-2.014a6.035,6.035,0,0,0-.323-1.954A.754.754,0,0,0,16.631,345.663Zm-5.374-6.528a2.915,2.915,0,1,1-2.915,2.915A2.918,2.918,0,0,1,11.257,339.135Z" transform="translate(-4.23 -303.567)"/>
        <path id="Path_1077113" data-name="Path 1077113" d="M139.966,173.165h-8.024a7,7,0,0,0-6.9,5.851h-.274a5.76,5.76,0,0,0-5.672,5.833,5.825,5.825,0,0,0,3.224,5.262c.968,2.345,3.988,3.469,4.122,3.518a.754.754,0,0,0,.945-1.02,5.457,5.457,0,0,1-.51-1.927h4.215a5.678,5.678,0,0,0,5.208-3.526h1.2a6.554,6.554,0,0,1-.669,2.6.754.754,0,0,0,.934,1.031c.167-.059,3.974-1.432,5.142-4.283a6.995,6.995,0,0,0-2.941-13.341Zm2.062,12.079a.741.741,0,0,0-.431.458,5.86,5.86,0,0,1-2.774,2.918,6.773,6.773,0,0,0,.149-2.3.756.756,0,0,0-.75-.675h-6.279a5.447,5.447,0,0,1-2.043-.4.75.75,0,0,0-.813.162l-.011.011a.748.748,0,0,0,.25,1.223,6.948,6.948,0,0,0,2.616.509h2.669a4.13,4.13,0,0,1-3.52,2.018h-4.948a.752.752,0,0,0-.749.666,5.69,5.69,0,0,0,.052,1.583,4.271,4.271,0,0,1-1.8-2.076.779.779,0,0,0-.433-.487,4.31,4.31,0,0,1-2.607-4.011,4.251,4.251,0,0,1,4.164-4.325h.188a6.936,6.936,0,0,0,.494,2.24.748.748,0,0,0,1.224.253l.011-.011a.748.748,0,0,0,.163-.809,5.453,5.453,0,0,1-.392-2.16,5.537,5.537,0,0,1,5.563-5.364h7.854a5.578,5.578,0,0,1,5.579,5.5A5.466,5.466,0,0,1,142.027,185.244Z" transform="translate(-107.147 -155.607)"/>
      </g>
    </g>
  </g>
</svg>
