<svg xmlns="http://www.w3.org/2000/svg" xmlns:xlink="http://www.w3.org/1999/xlink" width="108" height="108" viewBox="0 0 108 108">
  <defs>
    <filter id="Path_904820" x="0" y="0" width="108" height="108" filterUnits="userSpaceOnUse">
      <feOffset dy="3" input="SourceAlpha"/>
      <feGaussianBlur stdDeviation="3" result="blur"/>
      <feFlood flood-opacity="0.161"/>
      <feComposite operator="in" in2="blur"/>
      <feComposite in="SourceGraphic"/>
    </filter>
  </defs>
  <g id="Group_1215599" data-name="Group 1215599" transform="translate(-191.999 -1365)">
    <g id="Group_1214663" data-name="Group 1214663" transform="translate(0 42)">
      <g id="Group_1214441" data-name="Group 1214441" transform="translate(200.999 1329)">
        <g id="Group_1207774" data-name="Group 1207774" transform="translate(0 0)">
          <g id="Group_1206630" data-name="Group 1206630" transform="translate(0 0)">
            <g id="Group_1185091" data-name="Group 1185091">
              <g id="Group_1179560" data-name="Group 1179560">
                <g id="Group_1173787" data-name="Group 1173787">
                  <g id="Group_1171910" data-name="Group 1171910">
                    <g id="Group_1167341" data-name="Group 1167341">
                      <g id="Group_1166792" data-name="Group 1166792">
                        <g transform="matrix(1, 0, 0, 1, -9, -6)" filter="url(#Path_904820)">
                          <g id="Path_904820-2" data-name="Path 904820" transform="translate(9 6)" fill="#f2f7e5">
                            <path d="M 44.99999618530273 88.50005340576172 C 39.12687301635742 88.50005340576172 33.43022155761719 87.35012817382812 28.06829643249512 85.08221435546875 C 22.88852119445801 82.89136505126953 18.23629570007324 79.754638671875 14.24084663391113 75.75918579101562 C 10.24540901184082 71.76374053955078 7.108683586120605 67.11151123046875 4.917821407318115 61.93173980712891 C 2.649921178817749 56.56980133056641 1.499996185302734 50.87314987182617 1.499996185302734 45.00002670288086 C 1.499996185302734 39.12690353393555 2.649921178817749 33.43025207519531 4.917821407318115 28.06831359863281 C 7.108683586120605 22.8885383605957 10.24540901184082 18.23631477355957 14.24084663391113 14.24086380004883 C 18.23629570007324 10.2454137802124 22.88852119445801 7.108689308166504 28.06829643249512 4.917839050292969 C 33.43022155761719 2.649926662445068 39.12687301635742 1.500001668930054 44.99999618530273 1.500001668930054 C 50.87311935424805 1.500001668930054 56.56977081298828 2.649926662445068 61.93169784545898 4.917839050292969 C 67.11147308349609 7.108689308166504 71.76369476318359 10.2454137802124 75.75914764404297 14.24086380004883 C 79.75458526611328 18.23631477355957 82.89131164550781 22.8885383605957 85.08216857910156 28.06831359863281 C 87.35007476806641 33.43025207519531 88.5 39.12690353393555 88.5 45.00002670288086 C 88.5 50.87314987182617 87.35007476806641 56.56980133056641 85.08216857910156 61.93173980712891 C 82.89131164550781 67.11151123046875 79.75458526611328 71.76374053955078 75.75914764404297 75.75918579101562 C 71.76369476318359 79.754638671875 67.11147308349609 82.89136505126953 61.93169784545898 85.08221435546875 C 56.56977081298828 87.35012817382812 50.87311935424805 88.50005340576172 44.99999618530273 88.50005340576172 Z" stroke="none"/>
                            <path d="M 44.99999618530273 3 C 39.32870864868164 3 33.82865142822266 4.110054016113281 28.65262603759766 6.299339294433594 C 23.65165710449219 8.414566040039062 19.15968322753906 11.44334411621094 15.301513671875 15.30152893066406 C 11.44333648681641 19.15969848632812 8.414566040039062 23.65167236328125 6.299339294433594 28.65264129638672 C 4.110054016113281 33.82868194580078 2.999992370605469 39.32873916625977 2.999992370605469 45.00002670288086 C 2.999992370605469 50.67131423950195 4.110054016113281 56.17137145996094 6.299339294433594 61.347412109375 C 8.414566040039062 66.34838104248047 11.44333648681641 70.84035491943359 15.301513671875 74.69852447509766 C 19.15968322753906 78.55670928955078 23.65165710449219 81.58547973632812 28.65262603759766 83.70071411132812 C 33.82865142822266 85.88999938964844 39.32870864868164 87.00005340576172 44.99999618530273 87.00005340576172 C 50.67128372192383 87.00005340576172 56.17134094238281 85.88999938964844 61.34736633300781 83.70071411132812 C 66.34834289550781 81.58547973632812 70.84030914306641 78.55670928955078 74.69847869873047 74.69852447509766 C 78.55665588378906 70.84035491943359 81.58542633056641 66.34838104248047 83.70065307617188 61.347412109375 C 85.88993835449219 56.17137145996094 87 50.67131423950195 87 45.00002670288086 C 87 39.32873916625977 85.88993835449219 33.82868194580078 83.70065307617188 28.65264129638672 C 81.58542633056641 23.65167236328125 78.55665588378906 19.15969848632812 74.69847869873047 15.30152893066406 C 70.84030914306641 11.44334411621094 66.34834289550781 8.414566040039062 61.34736633300781 6.299339294433594 C 56.17134094238281 4.110054016113281 50.67128372192383 3 44.99999618530273 3 M 44.99999618530273 0 C 69.85281372070312 0 90 20.14720153808594 90 45.00002670288086 C 90 69.85285949707031 69.85281372070312 90.00005340576172 44.99999618530273 90.00005340576172 C 20.14717864990234 90.00005340576172 -7.62939453125e-06 69.85285949707031 -7.62939453125e-06 45.00002670288086 C -7.62939453125e-06 20.14720153808594 20.14717864990234 0 44.99999618530273 0 Z" stroke="none" fill="#496406"/>
                          </g>
                        </g>
                      </g>
                    </g>
                  </g>
                </g>
              </g>
            </g>
          </g>
        </g>
      </g>
      <g id="comunicacion-efectiva" transform="translate(184.64 1324.008)">
        <g id="Group_1214662" data-name="Group 1214662" transform="translate(27.91 27.041)">
          <path id="Path_1077618" data-name="Path 1077618" d="M49.861,33.84H66.444A4.574,4.574,0,0,1,71.005,38.4V49.313a4.57,4.57,0,0,1-4.561,4.556H55.4l-5.54,5.9v-5.9A4.573,4.573,0,0,1,45.3,49.313V38.4a4.577,4.577,0,0,1,4.561-4.561Z" transform="translate(-43.805 -33.84)" fill="#fbb13c" fill-rule="evenodd"/>
          <path id="Path_1077619" data-name="Path 1077619" d="M323.974,33.84H307.391A4.577,4.577,0,0,0,302.83,38.4V49.313a4.573,4.573,0,0,0,4.561,4.556h11.048l5.536,5.9v-5.9a4.57,4.57,0,0,0,4.561-4.556V38.4a4.575,4.575,0,0,0-4.561-4.561Z" transform="translate(-262.939 -33.84)" fill="#fbb13c" fill-rule="evenodd"/>
          <path id="Path_1077620" data-name="Path 1077620" d="M207.77,170.62a9.2,9.2,0,1,1-9.2,9.2A9.2,9.2,0,0,1,207.77,170.62Z" transform="translate(-174.223 -150.227)" fill="#73d2de" fill-rule="evenodd"/>
          <path id="Path_1077621" data-name="Path 1077621" d="M50.206,281.22A14.936,14.936,0,1,1,35.27,296.156,14.937,14.937,0,0,1,50.206,281.22Z" transform="translate(-35.27 -244.337)" fill="#ffb703" fill-rule="evenodd"/>
          <path id="Path_1077622" data-name="Path 1077622" d="M89.549,364.87H84.81a6.105,6.105,0,0,0-6.09,6.086v2.714H95.639v-2.714A6.105,6.105,0,0,0,89.549,364.87Z" transform="translate(-72.242 -315.516)" fill="#cc4242" fill-rule="evenodd"/>
          <path id="Path_1077623" data-name="Path 1077623" d="M111.471,311.33a4.2,4.2,0,1,0,4.2,4.2A4.2,4.2,0,0,0,111.471,311.33Z" transform="translate(-96.535 -269.958)" fill="#fbd1a2" fill-rule="evenodd"/>
          <path id="Path_1077624" data-name="Path 1077624" d="M299.846,281.22a14.936,14.936,0,1,0,14.936,14.936A14.935,14.935,0,0,0,299.846,281.22Z" transform="translate(-247.691 -244.337)" fill="#ffb703" fill-rule="evenodd"/>
          <path id="Path_1077625" data-name="Path 1077625" d="M334.439,364.87h4.743a6.108,6.108,0,0,1,6.09,6.086v2.714H328.35v-2.714A6.106,6.106,0,0,1,334.439,364.87Z" transform="translate(-284.654 -315.516)" fill="#cc4242" fill-rule="evenodd"/>
          <path id="Path_1077626" data-name="Path 1077626" d="M361.111,311.33a4.2,4.2,0,1,1-4.2,4.2A4.2,4.2,0,0,1,361.111,311.33Z" transform="translate(-308.956 -269.958)" fill="#fbd1a2" fill-rule="evenodd"/>
        </g>
        <path id="Path_1077627" data-name="Path 1077627" d="M79.968,67.22a5.4,5.4,0,0,1,4.538,8.313,7.291,7.291,0,0,1,5.109,6.948v2.713a1.19,1.19,0,0,1-1.188,1.188H71.506a1.19,1.19,0,0,1-1.188-1.188V82.481h0a7.3,7.3,0,0,1,5.118-6.948A5.4,5.4,0,0,1,79.968,67.22Zm2.087,10.368A5.413,5.413,0,0,1,79.968,78v.009a5.4,5.4,0,0,1-2.092-.422H77.6A4.914,4.914,0,0,0,72.7,82.484h0v1.525H87.241V82.484a4.925,4.925,0,0,0-4.9-4.895h-.283Zm.043-7.1a3.009,3.009,0,1,0-2.131,5.135v0A3.017,3.017,0,0,0,82.1,70.488Zm-2.131-5.372A13.743,13.743,0,1,0,93.712,78.86,13.743,13.743,0,0,0,79.968,65.116Zm-11.4,2.341a16.129,16.129,0,1,1,0,22.81,16.125,16.125,0,0,1,0-22.81ZM42.752,69.609a3.01,3.01,0,1,0,3.013,3h-.009a3,3,0,0,0-3-3ZM38.935,68.8a5.395,5.395,0,0,1,9.209,3.812h0a5.376,5.376,0,0,1-.854,2.921A7.3,7.3,0,0,1,52.4,82.483h0V85.2a1.19,1.19,0,0,1-1.191,1.188H34.291A1.19,1.19,0,0,1,33.1,85.2V82.483a7.291,7.291,0,0,1,5.109-6.948A5.415,5.415,0,0,1,38.935,68.8Zm5.909,8.786a5.407,5.407,0,0,1-4.188,0h-.274a4.92,4.92,0,0,0-4.9,4.895v1.525H50.022V82.483h0a4.919,4.919,0,0,0-4.895-4.9v0h-.279ZM42.752,62.732A16.13,16.13,0,1,1,26.62,78.86,16.127,16.127,0,0,1,42.752,62.732Zm9.716,6.411a13.744,13.744,0,1,0,0,19.437A13.744,13.744,0,0,0,52.468,69.143ZM63.735,53.621a1.194,1.194,0,1,1,1.686,1.691L61.089,59.64a1.189,1.189,0,0,1-1.771-.092L57.26,57.291a1.191,1.191,0,0,1,1.762-1.6l1.264,1.387Zm-2.375-7.38A10.39,10.39,0,1,1,50.968,56.63,10.392,10.392,0,0,1,61.36,46.241Zm5.66,4.729a8.006,8.006,0,1,0,0,11.322A8,8,0,0,0,67.02,50.971ZM87.593,38.335a1.191,1.191,0,0,1,0,2.382H75.006a1.191,1.191,0,1,1,0-2.382Zm0-5.4a1.193,1.193,0,0,1,0,2.387H80.717a1.193,1.193,0,0,1,0-2.387Zm1.255-4.708H72.265v.009A3.378,3.378,0,0,0,68.9,31.6h0V42.514h0a3.384,3.384,0,0,0,3.364,3.368v0H83.312a1.2,1.2,0,0,1,.926.44l3.417,3.644V47.07a1.193,1.193,0,0,1,1.191-1.191,3.379,3.379,0,0,0,3.368-3.364V31.6A3.386,3.386,0,0,0,88.848,28.229ZM72.265,25.854H88.848A5.757,5.757,0,0,1,94.6,31.6V42.514a5.766,5.766,0,0,1-4.556,5.625V52.97h0a1.191,1.191,0,0,1-2.057.816L82.8,48.266H72.265v-.009a5.756,5.756,0,0,1-5.752-5.743h0V31.6h0a5.767,5.767,0,0,1,5.752-5.752ZM35.127,40.717a1.191,1.191,0,1,1,0-2.382H47.714a1.191,1.191,0,1,1,0,2.382Zm0-5.393a1.193,1.193,0,1,1,0-2.387H42a1.193,1.193,0,0,1,0,2.387Zm-1.258-9.47H50.457v0A5.76,5.76,0,0,1,56.2,31.6h0V42.514a5.767,5.767,0,0,1-5.752,5.752v-.009H39.925L34.74,53.785a1.191,1.191,0,0,1-2.057-.816h0V48.135a5.762,5.762,0,0,1-4.561-5.621V31.6h.009a5.756,5.756,0,0,1,5.743-5.752Zm16.588,2.375H33.869v.009A3.384,3.384,0,0,0,30.5,31.6h0V42.514a3.375,3.375,0,0,0,3.364,3.364,1.194,1.194,0,0,1,1.2,1.191V49.96l3.478-3.706v0a1.176,1.176,0,0,1,.866-.376H50.457v0a3.378,3.378,0,0,0,3.364-3.364V31.6h0a3.385,3.385,0,0,0-3.368-3.364Z" transform="translate(0 0)"/>
      </g>
    </g>
  </g>
</svg>
