<svg xmlns="http://www.w3.org/2000/svg" xmlns:xlink="http://www.w3.org/1999/xlink" width="93.934" height="93.934" viewBox="0 0 93.934 93.934">
  <defs>
    <filter id="Path_982547" x="0" y="0" width="93.934" height="93.934" filterUnits="userSpaceOnUse">
      <feOffset dy="3" input="SourceAlpha"/>
      <feGaussianBlur stdDeviation="3" result="blur"/>
      <feFlood flood-opacity="0.161"/>
      <feComposite operator="in" in2="blur"/>
      <feComposite in="SourceGraphic"/>
    </filter>
  </defs>
  <g id="Group_1218504" data-name="Group 1218504" transform="translate(-612.533 -889.502)">
    <g id="Group_1217849" data-name="Group 1217849">
      <g id="Group_1216246" data-name="Group 1216246" transform="translate(621.533 891.334)">
        <g id="Group_1215745" data-name="Group 1215745" transform="translate(0 4.168)">
          <g id="Group_1214374" data-name="Group 1214374">
            <g id="Group_1207740" data-name="Group 1207740">
              <g id="Group_1185504" data-name="Group 1185504">
                <g id="Group_1183665" data-name="Group 1183665">
                  <g id="Group_1181743" data-name="Group 1181743">
                    <g id="Group_1175133" data-name="Group 1175133">
                      <g id="Group_1167337" data-name="Group 1167337">
                        <g id="Group_1166720" data-name="Group 1166720">
                          <g id="Group_1164305" data-name="Group 1164305">
                            <g id="Group_1163948" data-name="Group 1163948">
                              <g id="Group_1158168" data-name="Group 1158168">
                                <g id="Group_1152576" data-name="Group 1152576">
                                  <g id="Group_1148633" data-name="Group 1148633">
                                    <g id="Group_1148525" data-name="Group 1148525">
                                      <g transform="matrix(1, 0, 0, 1, -9, -6)" filter="url(#Path_982547)">
                                        <g id="Path_982547-2" data-name="Path 982547" transform="translate(9 6)" fill="#f2f7e5">
                                          <path d="M 37.966796875 74.43359375 C 33.04315185546875 74.43359375 28.26757431030273 73.46962738037109 23.77274131774902 71.56847381591797 C 19.43047523498535 69.73184967041016 15.53040790557861 67.10224914550781 12.18087482452393 63.75271987915039 C 8.831341743469238 60.4031867980957 6.201741218566895 56.50312042236328 4.365118980407715 52.16086196899414 C 2.463963508605957 47.66601943969727 1.499996900558472 42.89044189453125 1.499996900558472 37.966796875 C 1.499996900558472 33.04315185546875 2.463963508605957 28.26757431030273 4.365118980407715 23.77274131774902 C 6.201741218566895 19.43047523498535 8.831341743469238 15.53040790557861 12.18087482452393 12.18087482452393 C 15.53040790557861 8.831341743469238 19.43047523498535 6.201741218566895 23.77274131774902 4.365118980407715 C 28.26757431030273 2.463963508605957 33.04315185546875 1.499996900558472 37.966796875 1.499996900558472 C 42.89044189453125 1.499996900558472 47.66601943969727 2.463963508605957 52.16086196899414 4.365118980407715 C 56.50312042236328 6.201741218566895 60.4031867980957 8.831341743469238 63.75271987915039 12.18087482452393 C 67.10224914550781 15.53040790557861 69.73184967041016 19.43047523498535 71.56847381591797 23.77274131774902 C 73.46962738037109 28.26757431030273 74.43359375 33.04315185546875 74.43359375 37.966796875 C 74.43359375 42.89044189453125 73.46962738037109 47.66601943969727 71.56847381591797 52.16086196899414 C 69.73184967041016 56.50313186645508 67.10224914550781 60.4031867980957 63.75271987915039 63.75271987915039 C 60.4031867980957 67.10224914550781 56.50313186645508 69.73184967041016 52.16086196899414 71.56847381591797 C 47.66601943969727 73.46962738037109 42.89044189453125 74.43359375 37.966796875 74.43359375 Z" stroke="none"/>
                                          <path d="M 37.966796875 3 C 33.2449836730957 3 28.66600799560547 3.924095153808594 24.35705947875977 5.746635437011719 C 20.19359588623047 7.507637023925781 16.45379638671875 10.02928161621094 13.24153518676758 13.24153518676758 C 10.02927398681641 16.45379638671875 7.507621765136719 20.19359588623047 5.746635437011719 24.35705947875977 C 3.924095153808594 28.66600799560547 3 33.2449836730957 3 37.966796875 C 3 42.6886100769043 3.924095153808594 47.26758575439453 5.746635437011719 51.57653427124023 C 7.507621765136719 55.73999786376953 10.02927398681641 59.47979736328125 13.24153518676758 62.69205856323242 C 16.45379638671875 65.90431976318359 20.19359588623047 68.42597198486328 24.35705947875977 70.18695831298828 C 28.66600799560547 72.00949859619141 33.2449836730957 72.93359375 37.966796875 72.93359375 C 42.6886100769043 72.93359375 47.26758575439453 72.00949859619141 51.57653427124023 70.18695831298828 C 55.73999786376953 68.42597198486328 59.47979736328125 65.90431976318359 62.69205856323242 62.69205856323242 C 65.90431976318359 59.47979736328125 68.42597198486328 55.73999786376953 70.18695831298828 51.57653427124023 C 72.00949859619141 47.26758575439453 72.93359375 42.6886100769043 72.93359375 37.966796875 C 72.93359375 33.2449836730957 72.00949859619141 28.66600799560547 70.18695831298828 24.35705947875977 C 68.42597198486328 20.19359588623047 65.90431976318359 16.45379638671875 62.69205856323242 13.24153518676758 C 59.47979736328125 10.02928161621094 55.73999786376953 7.507637023925781 51.57653427124023 5.746635437011719 C 47.26758575439453 3.924095153808594 42.6886100769043 3 37.966796875 3 M 37.966796875 0 C 58.93528366088867 0 75.93359375 16.99832153320312 75.93359375 37.966796875 C 75.93359375 58.93528366088867 58.93528366088867 75.93359375 37.966796875 75.93359375 C 16.99831008911133 75.93359375 0 58.93528366088867 0 37.966796875 C 0 16.99832153320312 16.99831008911133 0 37.966796875 0 Z" stroke="none" fill="#86b60c"/>
                                        </g>
                                      </g>
                                    </g>
                                  </g>
                                </g>
                              </g>
                            </g>
                          </g>
                        </g>
                      </g>
                    </g>
                  </g>
                </g>
              </g>
            </g>
          </g>
        </g>
      </g>
      <g id="motivacion-del-equipo" transform="translate(627.812 910.051)">
        <g id="Group_1217848" data-name="Group 1217848" transform="translate(3.629 8.84)">
          <path id="Path_1089856" data-name="Path 1089856" d="M199.1,78.98a7.467,7.467,0,0,0-7.466,7.465c0,3.144,1.458,4.277,2.934,6a4.554,4.554,0,0,1,1.136,3.074h6.8a4.56,4.56,0,0,1,1.136-3.074c1.474-1.727,2.93-2.859,2.93-6A7.464,7.464,0,0,0,199.1,78.98Z" transform="translate(-171.041 -78.667)" fill="#ffd400" fill-rule="evenodd"/>
          <path id="Path_1089857" data-name="Path 1089857" d="M233.505,234.13h-6.8V237a1.725,1.725,0,0,0,1.532,1.861h3.731A1.726,1.726,0,0,0,233.505,237Z" transform="translate(-202.052 -215.819)" fill="#2a4a68" fill-rule="evenodd"/>
          <path id="Path_1089858" data-name="Path 1089858" d="M221.042,217.747h-6.584a1.728,1.728,0,0,1,0-3.457h6.584a1.728,1.728,0,0,1,0,3.457Z" transform="translate(-189.693 -198.281)" fill="#2f5274" fill-rule="evenodd"/>
          <path id="Path_1089859" data-name="Path 1089859" d="M186.525,401.36h-3.6a7.575,7.575,0,0,0-7.552,7.552v3.3a1.056,1.056,0,0,0,1.053,1.05h16.6a1.056,1.056,0,0,0,1.053-1.05v-3.3A7.575,7.575,0,0,0,186.525,401.36Z" transform="translate(-156.667 -363.65)" fill="#ffd400" fill-rule="evenodd"/>
          <path id="Path_1089860" data-name="Path 1089860" d="M344.178,401.36h3.6a7.575,7.575,0,0,1,7.552,7.552v3.3a1.056,1.056,0,0,1-1.053,1.05h-16.6a1.053,1.053,0,0,1-1.05-1.05v-3.3A7.572,7.572,0,0,1,344.178,401.36Z" transform="translate(-299.221 -363.65)" fill="#4ca3ff" fill-rule="evenodd"/>
          <path id="Path_1089861" data-name="Path 1089861" d="M21.692,401.36h3.6a7.572,7.572,0,0,1,7.548,7.552v3.3a1.053,1.053,0,0,1-1.05,1.05h-16.6a1.056,1.056,0,0,1-1.053-1.05v-3.3A7.575,7.575,0,0,1,21.692,401.36Z" transform="translate(-14.14 -363.65)" fill="#4ca3ff" fill-rule="evenodd"/>
          <path id="Path_1089862" data-name="Path 1089862" d="M51.147,401.36h3.6a7.5,7.5,0,0,1,3.687.967,7.941,7.941,0,0,1-10.976,0A7.5,7.5,0,0,1,51.147,401.36Z" transform="translate(-43.595 -363.65)" fill="#4493e6" fill-rule="evenodd"/>
          <path id="Path_1089863" data-name="Path 1089863" d="M48.138,319.666a6.118,6.118,0,1,0-6.118-6.118A6.129,6.129,0,0,0,48.138,319.666Z" transform="translate(-38.786 -280.616)" fill="#fbc894" fill-rule="evenodd"/>
          <path id="Path_1089864" data-name="Path 1089864" d="M370.527,82.744V99.107h-5.068V82.744H361.53l6.464-6.464,6.462,6.464Z" transform="translate(-321.232 -76.28)" fill="#70da40" fill-rule="evenodd"/>
          <path id="Path_1089865" data-name="Path 1089865" d="M48.037,82.744V99.107H42.969V82.744H39.04L45.5,76.28l6.462,6.464Z" transform="translate(-36.152 -76.28)" fill="#70da40" fill-rule="evenodd"/>
          <path id="Path_1089866" data-name="Path 1089866" d="M212.377,401.36h3.6a7.5,7.5,0,0,1,3.687.967,7.941,7.941,0,0,1-10.976,0A7.5,7.5,0,0,1,212.377,401.36Z" transform="translate(-186.122 -363.65)" fill="#e6bf00" fill-rule="evenodd"/>
          <path id="Path_1089867" data-name="Path 1089867" d="M209.368,319.666a6.118,6.118,0,1,0-6.118-6.118A6.132,6.132,0,0,0,209.368,319.666Z" transform="translate(-181.313 -280.616)" fill="#fbc894" fill-rule="evenodd"/>
          <path id="Path_1089868" data-name="Path 1089868" d="M373.607,401.36h3.6a7.5,7.5,0,0,1,3.687.967,7.941,7.941,0,0,1-10.976,0A7.5,7.5,0,0,1,373.607,401.36Z" transform="translate(-328.649 -363.65)" fill="#4493e6" fill-rule="evenodd"/>
          <path id="Path_1089869" data-name="Path 1089869" d="M370.628,319.666a6.118,6.118,0,1,0-6.118-6.118A6.129,6.129,0,0,0,370.628,319.666Z" transform="translate(-323.867 -280.616)" fill="#fbc894" fill-rule="evenodd"/>
          <path id="Path_1089870" data-name="Path 1089870" d="M40.629,82.744,46.3,77.075,45.5,76.28,39.04,82.744Z" transform="translate(-36.152 -76.28)" fill="#65c43a" fill-rule="evenodd"/>
          <path id="Path_1089871" data-name="Path 1089871" d="M72.91,132H74.5v16.363H72.91Z" transform="translate(-66.093 -125.536)" fill="#65c43a" fill-rule="evenodd"/>
          <path id="Path_1089872" data-name="Path 1089872" d="M363.119,82.744l5.669-5.669-.795-.795-6.464,6.464Z" transform="translate(-321.232 -76.28)" fill="#65c43a" fill-rule="evenodd"/>
          <path id="Path_1089873" data-name="Path 1089873" d="M395.4,132h1.589v16.363H395.4Z" transform="translate(-351.173 -125.536)" fill="#65c43a" fill-rule="evenodd"/>
          <path id="Path_1089874" data-name="Path 1089874" d="M229.551,247.637a1.726,1.726,0,0,1-1.532-1.861v-1.713h-1.2c-.035,0-.071,0-.106,0v1.717a1.725,1.725,0,0,0,1.532,1.861Z" transform="translate(-202.052 -224.597)" fill="#26435e" fill-rule="evenodd"/>
          <path id="Path_1089875" data-name="Path 1089875" d="M214.352,217.743c.035,0,.071,0,.106,0h1.2v0a1.724,1.724,0,0,1-1.308-.738,1.716,1.716,0,0,1,0-1.972,1.731,1.731,0,0,1,1.245-.734.011.011,0,0,1,0-.009h-1.133a1.728,1.728,0,0,0-.1,3.453Z" transform="translate(-189.693 -198.281)" fill="#2a4a68" fill-rule="evenodd"/>
          <path id="Path_1089876" data-name="Path 1089876" d="M194.555,92.448a4.531,4.531,0,0,1,1.066,2.238c.058-.006.118-.009.175-.009h1.133a4.562,4.562,0,0,0-1.063-2.227c-1.474-1.727-2.934-2.859-2.934-6a7.465,7.465,0,0,1,6.81-7.437c-.217-.02-.434-.029-.658-.029a7.467,7.467,0,0,0-7.466,7.465c0,3.144,1.46,4.277,2.935,6Z" transform="translate(-171.032 -78.667)" fill="#e6bf00" fill-rule="evenodd"/>
        </g>
        <path id="Path_1089877" data-name="Path 1089877" d="M26.372,22.646a3.876,3.876,0,0,1,.662,1.073A2.684,2.684,0,0,0,27.3,28.54v1.022a2.672,2.672,0,0,0,2.485,2.82h3.794a2.671,2.671,0,0,0,2.485-2.82V28.54a2.684,2.684,0,0,0,.268-4.821A3.886,3.886,0,0,1,37,22.645c.2-.233.4-.461.6-.681a8.044,8.044,0,0,0,2.6-6.022,8.515,8.515,0,1,0-17.029,0,8.046,8.046,0,0,0,2.6,6.022c.2.22.4.448.6.682Zm8.657,2.59q.04,0,.08,0l.017,0a.827.827,0,0,1-.1,1.648H28.341a.827.827,0,0,1,0-1.654Zm-1.447,5.287H29.789c-.3,0-.626-.412-.626-.962v-.814H34.21v.814c0,.551-.331.962-.626.962Zm-1.9-21.239a6.665,6.665,0,0,1,6.657,6.657c0,2.4-.893,3.4-2.13,4.784-.2.227-.414.464-.625.712a5.667,5.667,0,0,0-1.1,1.941h-5.6a5.683,5.683,0,0,0-1.1-1.94c-.212-.249-.423-.486-.628-.713-1.237-1.384-2.13-2.385-2.13-4.784a6.664,6.664,0,0,1,6.656-6.657ZM23.37,3.4a.929.929,0,1,1,1.609-.929l1.989,3.446a.929.929,0,0,1-1.609.929Zm-5.5,4.569a.929.929,0,0,1,1.269-.34l3.446,1.989a.929.929,0,0,1-.929,1.609L18.209,9.234A.929.929,0,0,1,17.87,7.965ZM36.405,5.913l1.989-3.446A.929.929,0,1,1,40,3.4L38.014,6.842a.928.928,0,0,1-.805.464.928.928,0,0,1-.8-1.393ZM30.756,4.9V.919a.929.929,0,0,1,1.858,0V4.9a.929.929,0,0,1-1.858,0Zm9.69,5.985a.929.929,0,0,1,.34-1.269l3.446-1.989a.929.929,0,0,1,.929,1.609l-3.446,1.989a.93.93,0,0,1-1.269-.34ZM28.03,17.139a.929.929,0,1,1,1.313-1.313l1.53,1.529L34.027,14.2a.929.929,0,0,1,1.314,1.314l-3.811,3.814a.927.927,0,0,1-1.313,0ZM59.236,48.667A8.714,8.714,0,0,0,56.07,46.2a7.147,7.147,0,1,0-10.756,0,8.714,8.714,0,0,0-3.166,2.465,8.571,8.571,0,0,0-.959,1.492,8.571,8.571,0,0,0-.959-1.492A8.714,8.714,0,0,0,37.064,46.2a7.147,7.147,0,1,0-10.756,0,8.714,8.714,0,0,0-3.166,2.465,8.571,8.571,0,0,0-.959,1.492A8.618,8.618,0,0,0,18.06,46.2,7.147,7.147,0,1,0,7.3,46.2a8.714,8.714,0,0,0-3.166,2.465A8.608,8.608,0,0,0,2.25,54.029v3.354a2,2,0,0,0,2,2H21.116a1.982,1.982,0,0,0,1.068-.313,1.982,1.982,0,0,0,1.068.313H40.122a1.982,1.982,0,0,0,1.068-.313,1.982,1.982,0,0,0,1.068.313H59.128a2,2,0,0,0,2-2V54.029a8.629,8.629,0,0,0-1.89-5.363ZM50.691,36.213A5.29,5.29,0,1,1,45.4,41.5,5.295,5.295,0,0,1,50.691,36.213Zm-19.006,0A5.29,5.29,0,1,1,26.4,41.5,5.3,5.3,0,0,1,31.685,36.213Zm-19.006,0A5.29,5.29,0,1,1,7.391,41.5a5.3,5.3,0,0,1,5.289-5.29Zm8.434,21.315H18.16v-3.2a.929.929,0,0,0-1.858,0v3.2H9.057v-3.2a.929.929,0,0,0-1.858,0v3.2H4.249a.146.146,0,0,1-.143-.143V54.032a6.821,6.821,0,0,1,4.808-6.458,7.126,7.126,0,0,0,7.532,0,6.821,6.821,0,0,1,4.807,6.458v3.354A.145.145,0,0,1,21.114,57.528Zm19.006,0H37.165v-3.2a.929.929,0,0,0-1.858,0v3.2H28.063v-3.2a.929.929,0,0,0-1.858,0v3.2H23.25a.147.147,0,0,1-.139-.143V54.032a6.821,6.821,0,0,1,4.808-6.458,7.124,7.124,0,0,0,7.531,0,6.821,6.821,0,0,1,4.808,6.458v3.354A.143.143,0,0,1,40.12,57.528Zm19.146-.144a.144.144,0,0,1-.139.143H56.172v-3.2a.929.929,0,0,0-1.858,0v3.2H47.069v-3.2a.929.929,0,0,0-1.858,0v3.2H42.257a.146.146,0,0,1-.14-.143V54.032a6.821,6.821,0,0,1,4.808-6.458,7.124,7.124,0,0,0,7.531,0,6.821,6.821,0,0,1,4.808,6.458v3.352Zm-16-42.421a.929.929,0,0,0,.858.573h3.064v15.7a.929.929,0,0,0,.929.929h5.149a.929.929,0,0,0,.929-.929v-15.7h3.062a.929.929,0,0,0,.658-1.586L51.35,7.38a.927.927,0,0,0-1.313,0l-6.567,6.57A.926.926,0,0,0,43.267,14.963Zm7.424-5.612,4.325,4.327h-1.75a.929.929,0,0,0-.929.929V30.3H49.044v-15.7a.929.929,0,0,0-.929-.929h-1.75ZM6.113,15.537H9.175v15.7a.929.929,0,0,0,.929.929h5.149a.929.929,0,0,0,.929-.929v-15.7h3.066a.929.929,0,0,0,.657-1.586L13.336,7.38a.927.927,0,0,0-1.314,0l-6.567,6.57a.928.928,0,0,0,.658,1.585ZM12.68,9.351l4.327,4.327H15.254a.929.929,0,0,0-.929.929V30.3H11.034v-15.7a.929.929,0,0,0-.929-.929H8.355Z" transform="translate(0 0)"/>
      </g>
    </g>
  </g>
</svg>
