<svg xmlns="http://www.w3.org/2000/svg" width="36.929" height="37.891" viewBox="0 0 36.929 37.891">
  <g id="Group_1215534" data-name="Group 1215534" transform="translate(-352.64 -666.431)">
    <g id="habla" transform="translate(346.14 666.431)">
      <g id="Group_1214774" data-name="Group 1214774" transform="translate(6.5 0)">
        <path id="Path_1078482" data-name="Path 1078482" d="M32.039,10.1V2.435A2.437,2.437,0,0,0,29.605,0H24.444a.74.74,0,1,0,0,1.48h5.162a.955.955,0,0,1,.954.955V15.607a.955.955,0,0,1-.954.955H27.238a.74.74,0,0,0-.718.56l-.728,2.9-2.485-3.176a.74.74,0,0,0-.583-.284H8.934a.955.955,0,0,1-.954-.955V2.435a.955.955,0,0,1,.954-.955H17.8A.74.74,0,1,0,17.8,0H8.934A2.437,2.437,0,0,0,6.5,2.435V15.607a2.437,2.437,0,0,0,2.434,2.435H20.459a11.82,11.82,0,0,0-.566,2.487c-.018.151-.025.263-.032.353a.759.759,0,0,1-.124.418L17.4,25.993a1.517,1.517,0,0,0-.132,1.482,1.372,1.372,0,0,0,1.216.53h1.331a23.253,23.253,0,0,0,.384,3.381c.052.314.105.639.157.977a2.169,2.169,0,0,0,2.075,1.971h4.178a2.8,2.8,0,0,0,.074.3l.729,2.377a1.1,1.1,0,0,0,1.06.88h8.417A1.1,1.1,0,0,0,37.987,36.8V31.856A11.817,11.817,0,0,0,32.039,10.1Zm4.831,20.71a.74.74,0,0,0-.363.637v4.968H28.779L28.1,34.2a1.926,1.926,0,0,1-.054-.248,1.171,1.171,0,0,0-1.328-1.1H22.433c-.37,0-.561-.387-.612-.717-.053-.345-.107-.674-.159-.992a20.334,20.334,0,0,1-.369-3.48,1.121,1.121,0,0,0-.275-.878,1.221,1.221,0,0,0-.975-.265l-.264,0H18.79l2.272-4.565a2.134,2.134,0,0,0,.276-.974c.005-.079.012-.168.025-.285a10.33,10.33,0,0,1,.676-2.658h.324l3.2,4.084a.74.74,0,0,0,1.3-.276l.956-3.808h1.79a2.437,2.437,0,0,0,2.434-2.435v-4.03A10.337,10.337,0,0,1,36.87,30.806Z" transform="translate(-6.5 0)"/>
        <path id="Path_1078483" data-name="Path 1078483" d="M62.621,164.894h6.159a.74.74,0,0,0,0-1.48H62.621a.74.74,0,0,0,0,1.48Z" transform="translate(-57.782 -151.32)"/>
        <path id="Path_1078484" data-name="Path 1078484" d="M62.621,113.389H65.25a.74.74,0,0,0,0-1.48H62.621a.74.74,0,1,0,0,1.48Z" transform="translate(-57.782 -103.627)"/>
        <path id="Path_1078485" data-name="Path 1078485" d="M72.571,60.377h-9.95a.74.74,0,0,0,0,1.48h9.95a.74.74,0,0,0,0-1.48Z" transform="translate(-57.782 -55.909)"/>
        <path id="Path_1078486" data-name="Path 1078486" d="M249.251,61.857a.74.74,0,1,0,0-1.48h-2.214a.74.74,0,0,0,0,1.48Z" transform="translate(-228.55 -55.909)"/>
        <path id="Path_1078487" data-name="Path 1078487" d="M201.824,163.414h-6a.74.74,0,1,0,0,1.48h6a.74.74,0,0,0,0-1.48Z" transform="translate(-181.124 -151.32)"/>
        <path id="Path_1078488" data-name="Path 1078488" d="M147.375,112.649a.74.74,0,0,0,.74.74h9.535a.74.74,0,1,0,0-1.48h-9.535A.74.74,0,0,0,147.375,112.649Z" transform="translate(-136.949 -103.627)"/>
        <path id="Path_1078489" data-name="Path 1078489" d="M39.4,338.582a.74.74,0,0,0-1.047,0,7.968,7.968,0,0,0,0,11.245.74.74,0,1,0,1.047-1.046,6.486,6.486,0,0,1,0-9.154.74.74,0,0,0,0-1.047Z" transform="translate(-33.849 -313.325)"/>
        <path id="Path_1078490" data-name="Path 1078490" d="M91.817,365.965a.74.74,0,0,0-1.047,0,5.094,5.094,0,0,0,0,7.193.74.74,0,1,0,1.047-1.046,3.612,3.612,0,0,1,0-5.1A.74.74,0,0,0,91.817,365.965Z" transform="translate(-83.157 -338.681)"/>
        <path id="Path_1078491" data-name="Path 1078491" d="M194.816,1.48a.74.74,0,0,0,0-1.48h0a.74.74,0,0,0,0,1.48Z" transform="translate(-180.193 0)"/>
      </g>
    </g>
  </g>
</svg>
