<svg xmlns="http://www.w3.org/2000/svg" xmlns:xlink="http://www.w3.org/1999/xlink" width="113" height="113" viewBox="0 0 113 113">
  <defs>
    <filter id="Path_982547" x="0" y="0" width="113" height="113" filterUnits="userSpaceOnUse">
      <feOffset dy="3" input="SourceAlpha"/>
      <feGaussianBlur stdDeviation="3" result="blur"/>
      <feFlood flood-opacity="0.161"/>
      <feComposite operator="in" in2="blur"/>
      <feComposite in="SourceGraphic"/>
    </filter>
  </defs>
  <g id="Group_1215612" data-name="Group 1215612" transform="translate(-158 -6172)">
    <g id="Group_1214695" data-name="Group 1214695" transform="translate(0 46)">
      <g id="Group_1214449" data-name="Group 1214449" transform="translate(3.457 -989.674)">
        <g id="Group_1207777" data-name="Group 1207777" transform="translate(163.542 7121.674)">
          <g id="Group_1200358" data-name="Group 1200358">
            <g id="Group_1185978" data-name="Group 1185978">
              <g id="Group_1180760" data-name="Group 1180760">
                <g id="Group_1174888" data-name="Group 1174888">
                  <g id="Group_1166845" data-name="Group 1166845">
                    <g id="Group_1166720" data-name="Group 1166720">
                      <g id="Group_1164305" data-name="Group 1164305">
                        <g id="Group_1163948" data-name="Group 1163948">
                          <g id="Group_1158168" data-name="Group 1158168">
                            <g id="Group_1152576" data-name="Group 1152576">
                              <g id="Group_1148633" data-name="Group 1148633">
                                <g id="Group_1148525" data-name="Group 1148525">
                                  <g transform="matrix(1, 0, 0, 1, -9, -6)" filter="url(#Path_982547)">
                                    <g id="Path_982547-2" data-name="Path 982547" transform="translate(9 6)" fill="#e9f9fd">
                                      <path d="M 47.5 93.5 C 41.28937149047852 93.5 35.26533508300781 92.28397369384766 29.59518623352051 89.88570404052734 C 24.11771965026855 87.56893157958984 19.19813346862793 84.25196075439453 14.97309303283691 80.02691650390625 C 10.74804019927979 75.80186462402344 7.431066513061523 70.88229370117188 5.114293098449707 65.40481567382812 C 2.716026782989502 59.73468017578125 1.5 53.71062850952148 1.5 47.5 C 1.5 41.28937149047852 2.716026782989502 35.26533508300781 5.114293098449707 29.59518623352051 C 7.431066513061523 24.11771965026855 10.74804019927979 19.19813346862793 14.97309303283691 14.97309303283691 C 19.19813346862793 10.74804019927979 24.11771965026855 7.431066513061523 29.59518623352051 5.114293098449707 C 35.26533508300781 2.716026782989502 41.28937149047852 1.5 47.5 1.5 C 53.71062850952148 1.5 59.73468017578125 2.716026782989502 65.40481567382812 5.114293098449707 C 70.88229370117188 7.431066513061523 75.80186462402344 10.74804019927979 80.02691650390625 14.97309303283691 C 84.25196075439453 19.19813346862793 87.56893157958984 24.11771965026855 89.88570404052734 29.59518623352051 C 92.28397369384766 35.26533508300781 93.5 41.28937149047852 93.5 47.5 C 93.5 53.71062850952148 92.28397369384766 59.73468017578125 89.88570404052734 65.40481567382812 C 87.56893157958984 70.88229370117188 84.25196075439453 75.80186462402344 80.02691650390625 80.02691650390625 C 75.80186462402344 84.25196075439453 70.88229370117188 87.56893157958984 65.40481567382812 89.88570404052734 C 59.73468017578125 92.28397369384766 53.71062850952148 93.5 47.5 93.5 Z" stroke="none"/>
                                      <path d="M 47.5 3 C 41.49121475219727 3 35.66376876831055 4.176155090332031 30.17950439453125 6.495796203613281 C 24.88084411621094 8.736953735351562 20.12152099609375 11.94598388671875 16.03375244140625 16.03375244140625 C 11.94598388671875 20.12152099609375 8.736953735351562 24.88084411621094 6.495796203613281 30.17950439453125 C 4.176155090332031 35.66376876831055 3 41.49121475219727 3 47.5 C 3 53.50878524780273 4.176155090332031 59.33623123168945 6.495796203613281 64.82049560546875 C 8.736953735351562 70.11915588378906 11.94598388671875 74.87847900390625 16.03375244140625 78.96624755859375 C 20.12152099609375 83.05401611328125 24.88084411621094 86.26304626464844 30.17950439453125 88.50419616699219 C 35.66376876831055 90.82384490966797 41.49121475219727 92 47.5 92 C 53.50878524780273 92 59.33623123168945 90.82384490966797 64.82049560546875 88.50419616699219 C 70.11915588378906 86.26304626464844 74.87847900390625 83.05401611328125 78.96624755859375 78.96624755859375 C 83.05401611328125 74.87847900390625 86.26304626464844 70.11915588378906 88.50419616699219 64.82049560546875 C 90.82384490966797 59.33623123168945 92 53.50878524780273 92 47.5 C 92 41.49121475219727 90.82384490966797 35.66376876831055 88.50419616699219 30.17950439453125 C 86.26304626464844 24.88084411621094 83.05401611328125 20.12152099609375 78.96624755859375 16.03375244140625 C 74.87847900390625 11.94598388671875 70.11915588378906 8.736953735351562 64.82049560546875 6.495796203613281 C 59.33623123168945 4.176155090332031 53.50878524780273 3 47.5 3 M 47.5 0 C 73.7335205078125 0 95 21.2664794921875 95 47.5 C 95 73.7335205078125 73.7335205078125 95 47.5 95 C 21.2664794921875 95 0 73.7335205078125 0 47.5 C 0 21.2664794921875 21.2664794921875 0 47.5 0 Z" stroke="none" fill="#36ceef"/>
                                    </g>
                                  </g>
                                </g>
                              </g>
                            </g>
                          </g>
                        </g>
                      </g>
                    </g>
                  </g>
                </g>
              </g>
            </g>
          </g>
        </g>
      </g>
      <g id="empleado-del-mes" transform="translate(180 6144.491)">
        <g id="Group_1214693" data-name="Group 1214693" transform="translate(1.271 1.213)">
          <g id="Group_1214690" data-name="Group 1214690">
            <circle id="Ellipse_13464" data-name="Ellipse 13464" cx="33.014" cy="33.014" r="33.014" fill="#98db7c"/>
          </g>
          <path id="Path_1077681" data-name="Path 1077681" d="M64.754,238.753a33.012,33.012,0,0,1-56.329-21.98,33.013,33.013,0,1,0,65.968,0A32.894,32.894,0,0,1,64.754,238.753Z" transform="translate(-8.395 -185.123)" fill="#82d361"/>
          <path id="Path_1077682" data-name="Path 1077682" d="M125.507,215.16V210.6a3.856,3.856,0,0,0-.393-.02,3.8,3.8,0,1,0,.774,7.512A11.4,11.4,0,0,1,125.507,215.16Z" transform="translate(-104.198 -179.867)" fill="#f4b184"/>
          <path id="Path_1077683" data-name="Path 1077683" d="M297.387,210.577a3.817,3.817,0,0,0-.392.02v4.562a11.4,11.4,0,0,1-.381,2.93,3.8,3.8,0,1,0,.774-7.512Z" transform="translate(-252.918 -179.867)" fill="#f4b184"/>
          <path id="Path_1077684" data-name="Path 1077684" d="M125.115,229.046a3.8,3.8,0,0,1-3.542-2.431,3.8,3.8,0,0,0,4.316,5.081,11.4,11.4,0,0,1-.377-2.67A3.854,3.854,0,0,1,125.115,229.046Z" transform="translate(-104.198 -193.473)" fill="#eaa678"/>
          <path id="Path_1077685" data-name="Path 1077685" d="M297.388,229.047a3.853,3.853,0,0,1-.4-.021,11.4,11.4,0,0,1-.377,2.67,3.8,3.8,0,0,0,4.316-5.081A3.8,3.8,0,0,1,297.388,229.047Z" transform="translate(-252.919 -193.473)" fill="#eaa678"/>
          <path id="Path_1077686" data-name="Path 1077686" d="M148.946,133.615v16.25a11.384,11.384,0,0,0,22.767,0v-16.25Z" transform="translate(-127.637 -114.572)" fill="#ffc89f"/>
          <path id="Path_1077687" data-name="Path 1077687" d="M160.33,234.19a11.384,11.384,0,0,1-11.384-11.384v2.729a11.384,11.384,0,1,0,22.767,0v-2.729A11.384,11.384,0,0,1,160.33,234.19Z" transform="translate(-127.637 -190.242)" fill="#f7bc94"/>
          <path id="Path_1077688" data-name="Path 1077688" d="M126.44,315.9h-8.323A14.026,14.026,0,0,0,104.1,329.579a33.05,33.05,0,0,0,36.371.422v-.079A14.026,14.026,0,0,0,126.44,315.9Z" transform="translate(-89.585 -269.22)" fill="#8bcaff"/>
          <path id="Path_1077689" data-name="Path 1077689" d="M104.387,389.455a14.048,14.048,0,0,0-.292,2.531,33.05,33.05,0,0,0,36.371.422v-.078a14.107,14.107,0,0,0-.224-2.507A33.055,33.055,0,0,1,104.387,389.455Z" transform="translate(-89.585 -331.627)" fill="#60b8ff"/>
          <path id="Path_1077690" data-name="Path 1077690" d="M137.955,97.507c-2.256-1.259-4.348-4.921-4.348-4.921-2.176,4.041-6.9,4.476-6.9,4.476a5.332,5.332,0,0,0-1.181-3.979,13.608,13.608,0,0,1-10.032,4.593,2.194,2.194,0,0,1-.573-.091c-2.98-.888-5.764-4.442-5.764-4.442,4.313.13,5.748-2.594,5.748-2.594-4.407.13-4.709-4.3-4.709-4.3,6.646.844,7.976-2.983,13.837-4.669s10.011,2.668,10.011,2.668,5.94-.558,6.45,5.338c.487,5.636-2.54,7.918-2.54,7.918" transform="translate(-93.88 -70.099)" fill="#7b7179"/>
          <g id="Group_1214691" data-name="Group 1214691" transform="translate(15.277 19.297)">
            <path id="Path_1077691" data-name="Path 1077691" d="M125.683,148.5a.758.758,0,0,0-1.261-.644,13.6,13.6,0,0,1-8.928,3.48,2.194,2.194,0,0,1-.573-.091,9.851,9.851,0,0,1-3.349-1.975,8.267,8.267,0,0,1-2.415.262s2.784,3.554,5.764,4.442a2.194,2.194,0,0,0,.573.091,13.608,13.608,0,0,0,10.032-4.593A9.5,9.5,0,0,0,125.683,148.5Z" transform="translate(-109.157 -145.784)" fill="#726a71"/>
            <path id="Path_1077692" data-name="Path 1077692" d="M232.079,135.29a8.61,8.61,0,0,1-2.056,4.938.752.752,0,0,1-.993.106,14.871,14.871,0,0,1-3.215-3.619.757.757,0,0,0-1.214-.059c-2.5,3.007-7.472,2.321-7.472,2.321a5.333,5.333,0,0,1,1.181,3.979s4.725-.435,6.9-4.476c0,0,2.092,3.662,4.348,4.921,0,0,3.1-2.334,2.522-8.112Z" transform="translate(-200.761 -135.29)" fill="#726a71"/>
          </g>
          <path id="Path_1077693" data-name="Path 1077693" d="M206.063,320.831h-5.107l-1.114-4.934h7.335Z" transform="translate(-170.817 -269.22)" fill="#c61926"/>
          <path id="Path_1077694" data-name="Path 1077694" d="M191.89,362.452a33.2,33.2,0,0,0,9.762.094l-2.335-14.1h-5.107Z" transform="translate(-164.071 -296.835)" fill="#ff4755"/>
          <path id="Path_1077695" data-name="Path 1077695" d="M192.33,423.287l-.441,2.66a33.2,33.2,0,0,0,9.762.094l-.442-2.67A33.2,33.2,0,0,1,192.33,423.287Z" transform="translate(-164.07 -360.33)" fill="#fc2b3a"/>
          <circle id="Ellipse_13465" data-name="Ellipse 13465" cx="13.685" cy="13.685" r="13.685" transform="translate(42.028 61.508) rotate(-45)" fill="#ff4755"/>
          <path id="Path_1077696" data-name="Path 1077696" d="M336.762,417.051a13.686,13.686,0,0,1-13.617-12.32q-.067.673-.068,1.364a13.685,13.685,0,0,0,27.369,0q0-.691-.068-1.364A13.686,13.686,0,0,1,336.762,417.051Z" transform="translate(-275.37 -344.587)" fill="#fc2b3a"/>
          <path id="Path_1077697" data-name="Path 1077697" d="M374.879,364.888l1.184,2.4a1.3,1.3,0,0,0,.976.709l2.648.385a1.3,1.3,0,0,1,.718,2.211l-1.916,1.868a1.3,1.3,0,0,0-.373,1.147l.452,2.637a1.3,1.3,0,0,1-1.881,1.366l-2.368-1.245a1.3,1.3,0,0,0-1.206,0l-2.368,1.245a1.3,1.3,0,0,1-1.881-1.366l.452-2.637a1.3,1.3,0,0,0-.373-1.147l-1.916-1.868a1.3,1.3,0,0,1,.718-2.211l2.648-.385a1.3,1.3,0,0,0,.976-.709l1.184-2.4A1.3,1.3,0,0,1,374.879,364.888Z" transform="translate(-312.325 -310.171)" fill="#fff5f5"/>
          <g id="Group_1214692" data-name="Group 1214692" transform="translate(56.52 63.316)">
            <path id="Path_1077698" data-name="Path 1077698" d="M390.865,428l-4.178-2.2a1.3,1.3,0,0,0-1.206,0L381.3,428l-.07.411a1.3,1.3,0,0,0,1.881,1.366l2.368-1.245a1.3,1.3,0,0,1,1.206,0l2.368,1.245a1.3,1.3,0,0,0,1.881-1.366Z" transform="translate(-381.212 -425.654)" fill="#efe2dd"/>
          </g>
        </g>
        <g id="Group_1214694" data-name="Group 1214694" transform="translate(0 0)">
          <path id="Path_1077699" data-name="Path 1077699" d="M65.56,48.185A34.233,34.233,0,0,0,34.267,0,34.075,34.075,0,0,0,10.033,10.022a34.671,34.671,0,0,0-3.278,3.785,1.14,1.14,0,0,0,1.83,1.361,32.039,32.039,0,0,1,48.3-3.535,31.914,31.914,0,0,1,6.281,36.291c-.141,0-.282-.006-.424-.006a14.866,14.866,0,0,0-11.817,5.844A15.34,15.34,0,0,0,40.8,47.009a12.608,12.608,0,0,0,5-6.354,4.942,4.942,0,0,0,.711-9.828V29.1c.942-.959,2.967-3.627,2.543-8.528a6.7,6.7,0,0,0-2.3-4.777,7.844,7.844,0,0,0-4.874-1.627,11.555,11.555,0,0,0-10.8-2.615A21.808,21.808,0,0,0,25.5,14.17c-2.3,1.395-4.121,2.5-7.845,2.024A1.14,1.14,0,0,0,16.372,17.4a5.8,5.8,0,0,0,3.44,4.975,6.272,6.272,0,0,1-3.31.713,1.139,1.139,0,0,0-.933,1.841c.116.148,2.739,3.456,5.81,4.651v1.244a4.942,4.942,0,0,0,.711,9.828,12.608,12.608,0,0,0,5,6.352,15.18,15.18,0,0,0-7.553,3.709A1.14,1.14,0,1,0,21.071,52.4a12.908,12.908,0,0,1,8.283-3.346l.866,3.829-2.1,12.689a31.976,31.976,0,0,1-11.245-4.549,12.908,12.908,0,0,1,1.593-5.342,1.141,1.141,0,0,0-1.993-1.109,15.168,15.168,0,0,0-1.719,4.953,32.184,32.184,0,0,1-3.1-2.724A31.632,31.632,0,0,1,2.569,38.532,32.135,32.135,0,0,1,6.2,18.87a1.141,1.141,0,0,0-2-1.1A34.428,34.428,0,0,0,.307,38.838,34.253,34.253,0,0,0,29,68.031a34.824,34.824,0,0,0,5.319.41,34.066,34.066,0,0,0,13.81-2.923,14.886,14.886,0,0,0,22.315,9.96,1.14,1.14,0,1,0-1.182-1.949,12.579,12.579,0,1,1,3.173-2.73,1.14,1.14,0,0,0,1.755,1.456,14.843,14.843,0,0,0-8.628-24.07ZM48.43,35.713A2.667,2.667,0,0,1,46.378,38.3a12.561,12.561,0,0,0,.131-1.8V33.157A2.668,2.668,0,0,1,48.43,35.713Zm-28.972,0a2.668,2.668,0,0,1,1.921-2.556V36.5a12.564,12.564,0,0,0,.131,1.8,2.668,2.668,0,0,1-2.052-2.59Zm3.4-8.081a1.062,1.062,0,0,1-.277-.044,10.1,10.1,0,0,1-3.71-2.44,6.615,6.615,0,0,0,4.378-2.987,1.139,1.139,0,0,0-1.043-1.67A3.127,3.127,0,0,1,19,18.58c3.482.081,5.53-1.159,7.683-2.463a19.627,19.627,0,0,1,5.03-2.377A9.354,9.354,0,0,1,40.617,16.1a1.152,1.152,0,0,0,.928.349,6.389,6.389,0,0,1,2.595.412,4.172,4.172,0,0,1,2.639,3.9,9.573,9.573,0,0,1-.9,5.328,6.4,6.4,0,0,1-.664,1.026A16.8,16.8,0,0,1,42,23.106,1.141,1.141,0,0,0,41,22.531H40.99a1.141,1.141,0,0,0-.99.6,7.8,7.8,0,0,1-4.755,3.615,7.237,7.237,0,0,0-1.477-3.308,1.141,1.141,0,0,0-.859-.407,1.118,1.118,0,0,0-.87.384,12.5,12.5,0,0,1-9.185,4.218Zm.807,8.869V29.884a15.052,15.052,0,0,0,9.019-3.873,3.177,3.177,0,0,1,.282,1.908,1.14,1.14,0,0,0,1.221,1.371,10.907,10.907,0,0,0,6.795-3.559,14.989,14.989,0,0,0,3.249,3.493V36.5a10.283,10.283,0,0,1-20.566,0ZM36.2,49.047l-.6,2.665h-3.3l-.6-2.665ZM34.272,66.172a32.028,32.028,0,0,1-3.9-.24L32.349,53.99h3.19L37.532,66A31.966,31.966,0,0,1,34.272,66.172Zm13.6-3.4q0,.181,0,.361a32.014,32.014,0,0,1-8.083,2.561L37.669,52.885l.866-3.831a13.013,13.013,0,0,1,11.017,6.862,14.74,14.74,0,0,0-1.681,6.852Z" transform="translate(0 0)"/>
          <path id="Path_1077700" data-name="Path 1077700" d="M375.24,365.258a2.437,2.437,0,0,0-1.353-4.158l-2.657-.386a.16.16,0,0,1-.12-.087l-1.188-2.4a2.443,2.443,0,0,0-4.379,0l-1.188,2.4a.16.16,0,0,1-.12.087l-2.657.386a2.437,2.437,0,0,0-1.353,4.158l1.923,1.871a.159.159,0,0,1,.046.141l-.454,2.642a2.439,2.439,0,0,0,3.543,2.57l2.377-1.247a.159.159,0,0,1,.149,0l2.376,1.247a2.441,2.441,0,0,0,3.543-2.57l-.454-2.642a.159.159,0,0,1,.046-.141Zm-3.515.24a2.435,2.435,0,0,0-.7,2.158l.454,2.642a.16.16,0,0,1-.232.168l-2.376-1.247a2.444,2.444,0,0,0-2.272,0l-2.377,1.247a.16.16,0,0,1-.232-.168l.454-2.642a2.435,2.435,0,0,0-.7-2.158l-1.923-1.871a.159.159,0,0,1,.088-.272l2.657-.385a2.441,2.441,0,0,0,1.839-1.334l1.188-2.4a.16.16,0,0,1,.286,0l1.188,2.4a2.44,2.44,0,0,0,1.838,1.334l2.657.386a.159.159,0,0,1,.089.272Z" transform="translate(-304.986 -302.764)"/>
          <path id="Path_1077701" data-name="Path 1077701" d="M200.36,250.738a4.679,4.679,0,0,0,4.388-2.366,1.141,1.141,0,1,0-2.038-1.022c-.528,1.1-2.275,1.109-2.35,1.109s-1.824-.013-2.351-1.112a1.141,1.141,0,1,0-2.037,1.025A4.678,4.678,0,0,0,200.36,250.738Z" transform="translate(-166.136 -209.275)"/>
          <path id="Path_1077702" data-name="Path 1077702" d="M181.009,202.973a1.14,1.14,0,0,0-1.141,1.139v2.557a1.141,1.141,0,0,0,2.282,0v-2.557A1.14,1.14,0,0,0,181.009,202.973Z" transform="translate(-152.6 -172.203)"/>
          <path id="Path_1077703" data-name="Path 1077703" d="M254.039,207.808a1.14,1.14,0,0,0,1.141-1.139v-2.557a1.141,1.141,0,0,0-2.282,0v2.557A1.14,1.14,0,0,0,254.039,207.808Z" transform="translate(-214.559 -172.202)"/>
        </g>
      </g>
    </g>
  </g>
</svg>
