<svg xmlns="http://www.w3.org/2000/svg" xmlns:xlink="http://www.w3.org/1999/xlink" width="93.934" height="93.934" viewBox="0 0 93.934 93.934">
  <defs>
    <filter id="Path_982547" x="0" y="0" width="93.934" height="93.934" filterUnits="userSpaceOnUse">
      <feOffset dy="3" input="SourceAlpha"/>
      <feGaussianBlur stdDeviation="3" result="blur"/>
      <feFlood flood-opacity="0.161"/>
      <feComposite operator="in" in2="blur"/>
      <feComposite in="SourceGraphic"/>
    </filter>
  </defs>
  <g id="Group_1215589" data-name="Group 1215589" transform="translate(-191.295 -4871)">
    <g id="Group_1214594" data-name="Group 1214594" transform="translate(0 -257)">
      <g id="Group_1214432" data-name="Group 1214432" transform="translate(-0.771 -2738.674)">
        <g id="Group_1183196" data-name="Group 1183196" transform="translate(1 1016.674)">
          <g id="Group_1179610" data-name="Group 1179610" transform="translate(8 4723.467)">
            <g id="Group_1175227" data-name="Group 1175227" transform="translate(-5.967 140.533)">
              <g id="Group_1167337" data-name="Group 1167337" transform="translate(198.033 1992)">
                <g id="Group_1166720" data-name="Group 1166720">
                  <g id="Group_1164305" data-name="Group 1164305">
                    <g id="Group_1163948" data-name="Group 1163948">
                      <g id="Group_1158168" data-name="Group 1158168">
                        <g id="Group_1152576" data-name="Group 1152576">
                          <g id="Group_1148633" data-name="Group 1148633">
                            <g id="Group_1148525" data-name="Group 1148525">
                              <g transform="matrix(1, 0, 0, 1, -9, -6)" filter="url(#Path_982547)">
                                <g id="Path_982547-2" data-name="Path 982547" transform="translate(9 6)" fill="#f5f5f5">
                                  <path d="M 37.966796875 74.43359375 C 33.04315185546875 74.43359375 28.26757431030273 73.46962738037109 23.77274131774902 71.56847381591797 C 19.43047523498535 69.73184967041016 15.53040790557861 67.10224914550781 12.18087482452393 63.75271987915039 C 8.831341743469238 60.4031867980957 6.201741218566895 56.50312042236328 4.365118980407715 52.16086196899414 C 2.463963508605957 47.66601943969727 1.499996900558472 42.89044189453125 1.499996900558472 37.966796875 C 1.499996900558472 33.04315185546875 2.463963508605957 28.26757431030273 4.365118980407715 23.77274131774902 C 6.201741218566895 19.43047523498535 8.831341743469238 15.53040790557861 12.18087482452393 12.18087482452393 C 15.53040790557861 8.831341743469238 19.43047523498535 6.201741218566895 23.77274131774902 4.365118980407715 C 28.26757431030273 2.463963508605957 33.04315185546875 1.499996900558472 37.966796875 1.499996900558472 C 42.89044189453125 1.499996900558472 47.66601943969727 2.463963508605957 52.16086196899414 4.365118980407715 C 56.50312042236328 6.201741218566895 60.4031867980957 8.831341743469238 63.75271987915039 12.18087482452393 C 67.10224914550781 15.53040790557861 69.73184967041016 19.43047523498535 71.56847381591797 23.77274131774902 C 73.46962738037109 28.26757431030273 74.43359375 33.04315185546875 74.43359375 37.966796875 C 74.43359375 42.89044189453125 73.46962738037109 47.66601943969727 71.56847381591797 52.16086196899414 C 69.73184967041016 56.50313186645508 67.10224914550781 60.4031867980957 63.75271987915039 63.75271987915039 C 60.4031867980957 67.10224914550781 56.50313186645508 69.73184967041016 52.16086196899414 71.56847381591797 C 47.66601943969727 73.46962738037109 42.89044189453125 74.43359375 37.966796875 74.43359375 Z" stroke="none"/>
                                  <path d="M 37.966796875 3 C 33.2449836730957 3 28.66600799560547 3.924095153808594 24.35705947875977 5.746635437011719 C 20.19359588623047 7.507637023925781 16.45379638671875 10.02928161621094 13.24153518676758 13.24153518676758 C 10.02927398681641 16.45379638671875 7.507621765136719 20.19359588623047 5.746635437011719 24.35705947875977 C 3.924095153808594 28.66600799560547 3 33.2449836730957 3 37.966796875 C 3 42.6886100769043 3.924095153808594 47.26758575439453 5.746635437011719 51.57653427124023 C 7.507621765136719 55.73999786376953 10.02927398681641 59.47979736328125 13.24153518676758 62.69205856323242 C 16.45379638671875 65.90431976318359 20.19359588623047 68.42597198486328 24.35705947875977 70.18695831298828 C 28.66600799560547 72.00949859619141 33.2449836730957 72.93359375 37.966796875 72.93359375 C 42.6886100769043 72.93359375 47.26758575439453 72.00949859619141 51.57653427124023 70.18695831298828 C 55.73999786376953 68.42597198486328 59.47979736328125 65.90431976318359 62.69205856323242 62.69205856323242 C 65.90431976318359 59.47979736328125 68.42597198486328 55.73999786376953 70.18695831298828 51.57653427124023 C 72.00949859619141 47.26758575439453 72.93359375 42.6886100769043 72.93359375 37.966796875 C 72.93359375 33.2449836730957 72.00949859619141 28.66600799560547 70.18695831298828 24.35705947875977 C 68.42597198486328 20.19359588623047 65.90431976318359 16.45379638671875 62.69205856323242 13.24153518676758 C 59.47979736328125 10.02928161621094 55.73999786376953 7.507637023925781 51.57653427124023 5.746635437011719 C 47.26758575439453 3.924095153808594 42.6886100769043 3 37.966796875 3 M 37.966796875 0 C 58.93528366088867 0 75.93359375 16.99832153320312 75.93359375 37.966796875 C 75.93359375 58.93528366088867 58.93528366088867 75.93359375 37.966796875 75.93359375 C 16.99831008911133 75.93359375 0 58.93528366088867 0 37.966796875 C 0 16.99832153320312 16.99831008911133 0 37.966796875 0 Z" stroke="none" fill="#86b60c"/>
                                </g>
                              </g>
                            </g>
                          </g>
                        </g>
                      </g>
                    </g>
                  </g>
                </g>
              </g>
            </g>
          </g>
        </g>
      </g>
      <g id="conexion" transform="translate(213 5147)">
        <g id="Group_1214560" data-name="Group 1214560" transform="translate(15.641 16.401)">
          <g id="Group_1214556" data-name="Group 1214556" transform="translate(0 0)">
            <path id="Path_1077449" data-name="Path 1077449" d="M177.931,177.783v-1.905a.836.836,0,0,0-.836-.836h-1.262a.83.83,0,0,1-.777-.527q-.058-.15-.122-.3a.831.831,0,0,1,.177-.922L176,172.4a.836.836,0,0,0,0-1.183l-1.347-1.347a.836.836,0,0,0-1.183,0l-.893.893a.831.831,0,0,1-.922.177q-.146-.065-.3-.122a.83.83,0,0,1-.527-.777v-1.262a.836.836,0,0,0-.836-.836h-1.905a.836.836,0,0,0-.836.836v1.262a.83.83,0,0,1-.527.777q-.15.058-.3.122a.831.831,0,0,1-.922-.177l-.893-.893a.836.836,0,0,0-1.183,0l-1.347,1.347a.836.836,0,0,0,0,1.183l.893.893a.831.831,0,0,1,.177.922q-.065.146-.122.3a.83.83,0,0,1-.777.527H161a.836.836,0,0,0-.836.836v1.905a.836.836,0,0,0,.836.836h1.262a.83.83,0,0,1,.777.527q.058.15.122.3a.831.831,0,0,1-.177.922l-.893.893a.836.836,0,0,0,0,1.183l1.347,1.347a.836.836,0,0,0,1.183,0l.893-.893a.831.831,0,0,1,.922-.177q.146.065.3.122a.83.83,0,0,1,.527.777v1.262a.836.836,0,0,0,.836.836H170a.836.836,0,0,0,.836-.836v-1.262a.83.83,0,0,1,.527-.777q.15-.058.3-.122a.831.831,0,0,1,.922.177l.893.893a.836.836,0,0,0,1.183,0L176,182.439a.836.836,0,0,0,0-1.183l-.893-.893a.831.831,0,0,1-.177-.922q.065-.146.122-.3a.83.83,0,0,1,.777-.527h1.262a.836.836,0,0,0,.837-.836Z" transform="translate(-160.16 -167.945)" fill="#cdbfba"/>
          </g>
          <g id="Group_1214557" data-name="Group 1214557" transform="translate(7.096)">
            <path id="Path_1077450" data-name="Path 1077450" d="M242.662,175.041H241.4a.83.83,0,0,1-.777-.527q-.058-.15-.122-.3a.831.831,0,0,1,.177-.922l.893-.893a.836.836,0,0,0,0-1.183l-1.347-1.347a.836.836,0,0,0-1.183,0l-.893.893a.831.831,0,0,1-.922.177q-.146-.065-.3-.122a.83.83,0,0,1-.527-.777v-1.262a.836.836,0,0,0-.836-.836h-1.905a.836.836,0,0,0-.836.836v.265a8.791,8.791,0,0,1,0,15.567v.265a.836.836,0,0,0,.836.836h1.905a.836.836,0,0,0,.836-.836v-1.262a.83.83,0,0,1,.527-.777q.15-.058.3-.122a.831.831,0,0,1,.922.177l.893.893a.836.836,0,0,0,1.183,0l1.347-1.347a.837.837,0,0,0,0-1.183l-.893-.893a.831.831,0,0,1-.177-.922q.065-.146.122-.3a.83.83,0,0,1,.777-.527h1.262a.836.836,0,0,0,.836-.836v-1.905A.836.836,0,0,0,242.662,175.041Z" transform="translate(-232.824 -167.945)" fill="#b9acac"/>
          </g>
          <g id="Group_1214558" data-name="Group 1214558" transform="translate(6.023 6.023)">
            <circle id="Ellipse_13446" data-name="Ellipse 13446" cx="2.862" cy="2.862" r="2.862" fill="#9e9797"/>
          </g>
          <g id="Group_1214559" data-name="Group 1214559" transform="translate(7.545 6.023)">
            <path id="Path_1077451" data-name="Path 1077451" d="M238.757,229.618a2.849,2.849,0,0,0-1.341.333,2.862,2.862,0,0,1,0,5.058,2.862,2.862,0,1,0,1.341-5.392Z" transform="translate(-237.416 -229.618)" fill="#868686"/>
          </g>
        </g>
        <g id="Group_1214568" data-name="Group 1214568" transform="translate(30.892 0.732)">
          <g id="Group_1214567" data-name="Group 1214567">
            <g id="Group_1214566" data-name="Group 1214566">
              <g id="Group_1214561" data-name="Group 1214561">
                <circle id="Ellipse_13447" data-name="Ellipse 13447" cx="9.188" cy="9.188" r="9.188" fill="#ffe177"/>
              </g>
              <g id="Group_1214562" data-name="Group 1214562" transform="translate(2.341 12.84)">
                <path id="Path_1077452" data-name="Path 1077452" d="M350.386,138.979a4.87,4.87,0,0,1-6.474,0,9.206,9.206,0,0,0-3.61,2.474,9.185,9.185,0,0,0,13.694,0A9.207,9.207,0,0,0,350.386,138.979Z" transform="translate(-340.302 -138.979)" fill="#0182fc"/>
              </g>
              <g id="Group_1214565" data-name="Group 1214565" transform="translate(4.208 4.208)">
                <g id="Group_1214563" data-name="Group 1214563">
                  <circle id="Ellipse_13448" data-name="Ellipse 13448" cx="4.981" cy="4.981" r="4.981" fill="#ffcebf"/>
                </g>
                <g id="Group_1214564" data-name="Group 1214564" transform="translate(3.495)">
                  <path id="Path_1077453" data-name="Path 1077453" d="M396.691,50.587a4.976,4.976,0,0,0-1.485.225,4.982,4.982,0,0,1,0,9.51,4.981,4.981,0,1,0,1.485-9.736Z" transform="translate(-395.206 -50.587)" fill="#ffb09e"/>
                </g>
              </g>
            </g>
          </g>
        </g>
        <g id="Group_1214576" data-name="Group 1214576" transform="translate(0.732 0.732)">
          <g id="Group_1214575" data-name="Group 1214575">
            <g id="Group_1214574" data-name="Group 1214574">
              <g id="Group_1214569" data-name="Group 1214569">
                <circle id="Ellipse_13449" data-name="Ellipse 13449" cx="9.188" cy="9.188" r="9.188" fill="#fe646f"/>
              </g>
              <g id="Group_1214570" data-name="Group 1214570" transform="translate(2.341 12.84)">
                <path id="Path_1077454" data-name="Path 1077454" d="M41.56,138.979a4.87,4.87,0,0,1-6.473,0,9.206,9.206,0,0,0-3.61,2.474,9.185,9.185,0,0,0,13.694,0A9.206,9.206,0,0,0,41.56,138.979Z" transform="translate(-31.476 -138.979)" fill="#0182fc"/>
              </g>
              <g id="Group_1214573" data-name="Group 1214573" transform="translate(4.208 4.208)">
                <g id="Group_1214571" data-name="Group 1214571">
                  <circle id="Ellipse_13450" data-name="Ellipse 13450" cx="4.981" cy="4.981" r="4.981" fill="#ffcebf"/>
                </g>
                <g id="Group_1214572" data-name="Group 1214572" transform="translate(3.487)">
                  <path id="Path_1077455" data-name="Path 1077455" d="M87.787,50.587a4.978,4.978,0,0,0-1.494.228,4.982,4.982,0,0,1,0,9.5,4.981,4.981,0,1,0,1.493-9.733Z" transform="translate(-86.293 -50.587)" fill="#ffb09e"/>
                </g>
              </g>
            </g>
          </g>
        </g>
        <g id="Group_1214584" data-name="Group 1214584" transform="translate(0.732 30.892)">
          <g id="Group_1214583" data-name="Group 1214583">
            <g id="Group_1214582" data-name="Group 1214582">
              <g id="Group_1214577" data-name="Group 1214577">
                <circle id="Ellipse_13451" data-name="Ellipse 13451" cx="9.188" cy="9.188" r="9.188" fill="#ffe177"/>
              </g>
              <g id="Group_1214578" data-name="Group 1214578" transform="translate(2.341 12.84)">
                <path id="Path_1077456" data-name="Path 1077456" d="M41.56,447.8a4.87,4.87,0,0,1-6.473,0,9.206,9.206,0,0,0-3.61,2.474,9.185,9.185,0,0,0,13.694,0A9.206,9.206,0,0,0,41.56,447.8Z" transform="translate(-31.476 -447.804)" fill="#0182fc"/>
              </g>
              <g id="Group_1214581" data-name="Group 1214581" transform="translate(4.208 4.208)">
                <g id="Group_1214579" data-name="Group 1214579">
                  <circle id="Ellipse_13452" data-name="Ellipse 13452" cx="4.981" cy="4.981" r="4.981" fill="#ffcebf"/>
                </g>
                <g id="Group_1214580" data-name="Group 1214580" transform="translate(3.487)">
                  <path id="Path_1077457" data-name="Path 1077457" d="M87.787,359.413a4.978,4.978,0,0,0-1.494.228,4.982,4.982,0,0,1,0,9.5,4.981,4.981,0,1,0,1.493-9.733Z" transform="translate(-86.293 -359.413)" fill="#ffb09e"/>
                </g>
              </g>
            </g>
          </g>
        </g>
        <g id="Group_1214592" data-name="Group 1214592" transform="translate(30.892 30.892)">
          <g id="Group_1214591" data-name="Group 1214591">
            <g id="Group_1214590" data-name="Group 1214590">
              <g id="Group_1214585" data-name="Group 1214585">
                <circle id="Ellipse_13453" data-name="Ellipse 13453" cx="9.188" cy="9.188" r="9.188" fill="#97da7b"/>
              </g>
              <g id="Group_1214586" data-name="Group 1214586" transform="translate(2.341 12.84)">
                <path id="Path_1077458" data-name="Path 1077458" d="M350.386,447.8a4.87,4.87,0,0,1-6.474,0,9.206,9.206,0,0,0-3.61,2.474,9.185,9.185,0,0,0,13.694,0A9.207,9.207,0,0,0,350.386,447.8Z" transform="translate(-340.302 -447.804)" fill="#0182fc"/>
              </g>
              <g id="Group_1214589" data-name="Group 1214589" transform="translate(4.208 4.208)">
                <g id="Group_1214587" data-name="Group 1214587">
                  <circle id="Ellipse_13454" data-name="Ellipse 13454" cx="4.981" cy="4.981" r="4.981" fill="#ffcebf"/>
                </g>
                <g id="Group_1214588" data-name="Group 1214588" transform="translate(3.496)">
                  <path id="Path_1077459" data-name="Path 1077459" d="M396.692,359.413a4.976,4.976,0,0,0-1.485.225,4.982,4.982,0,0,1,0,9.51,4.981,4.981,0,1,0,1.485-9.736Z" transform="translate(-395.207 -359.413)" fill="#ffb09e"/>
                </g>
              </g>
            </g>
          </g>
        </g>
        <g id="Group_1214593" data-name="Group 1214593" transform="translate(0 0)">
          <path id="Path_1077460" data-name="Path 1077460" d="M168.407,177.535l1.347-1.347a1.571,1.571,0,0,0,0-2.219l-.893-.893a.1.1,0,0,1-.025-.107c.048-.107.093-.218.136-.329a.1.1,0,0,1,.093-.058h1.262a1.571,1.571,0,0,0,1.569-1.569v-1.905a1.571,1.571,0,0,0-1.569-1.569h-1.262a.1.1,0,0,1-.093-.058c-.043-.111-.089-.222-.136-.329a.1.1,0,0,1,.025-.107l.893-.893a1.571,1.571,0,0,0,0-2.219l-1.347-1.347a1.571,1.571,0,0,0-2.219,0l-.893.893a.1.1,0,0,1-.107.025c-.108-.048-.219-.094-.329-.136a.1.1,0,0,1-.058-.093v-1.262a1.571,1.571,0,0,0-1.569-1.569h-1.905a1.571,1.571,0,0,0-1.569,1.569v1.262a.1.1,0,0,1-.058.093c-.11.042-.221.088-.329.136a.1.1,0,0,1-.107-.025l-.893-.893a1.571,1.571,0,0,0-2.219,0l-1.347,1.347a1.571,1.571,0,0,0,0,2.219l.893.893a.1.1,0,0,1,.025.107c-.048.108-.094.219-.136.329a.1.1,0,0,1-.093.058h-1.262a1.571,1.571,0,0,0-1.569,1.569v1.905a1.571,1.571,0,0,0,1.569,1.569h1.262a.1.1,0,0,1,.093.058c.042.11.088.221.136.329a.1.1,0,0,1-.025.107l-.893.893a1.571,1.571,0,0,0,0,2.219l1.347,1.347a1.571,1.571,0,0,0,2.219,0l.893-.893a.1.1,0,0,1,.107-.025c.107.048.218.093.329.136a.1.1,0,0,1,.058.093v1.262a1.571,1.571,0,0,0,1.569,1.569h1.905a1.571,1.571,0,0,0,1.569-1.569v-1.262a.1.1,0,0,1,.058-.093c.111-.043.222-.089.329-.136a.1.1,0,0,1,.107.025l.893.893a1.57,1.57,0,0,0,2.218,0Zm-2.075-1.928a1.571,1.571,0,0,0-1.737-.328c-.085.038-.173.074-.262.108a1.571,1.571,0,0,0-1,1.461v1.262a.1.1,0,0,1-.1.1h-1.905a.1.1,0,0,1-.1-.1v-1.262a1.571,1.571,0,0,0-1-1.46c-.089-.034-.177-.071-.262-.108a1.536,1.536,0,0,0-.623-.131,1.578,1.578,0,0,0-1.113.459l-.893.893a.1.1,0,0,1-.147,0l-1.347-1.347a.1.1,0,0,1,0-.147l.893-.893a1.572,1.572,0,0,0,.328-1.737c-.038-.086-.075-.174-.108-.262a1.571,1.571,0,0,0-1.461-1H154.23a.1.1,0,0,1-.1-.1v-1.905a.1.1,0,0,1,.1-.1h1.262a1.571,1.571,0,0,0,1.461-1c.034-.088.07-.176.108-.262a1.572,1.572,0,0,0-.328-1.737l-.893-.893a.1.1,0,0,1,0-.147l1.347-1.347a.1.1,0,0,1,.147,0l.893.893a1.571,1.571,0,0,0,1.737.328c.086-.038.174-.075.262-.108a1.571,1.571,0,0,0,1-1.461v-1.262a.1.1,0,0,1,.1-.1h1.905a.1.1,0,0,1,.1.1v1.262a1.571,1.571,0,0,0,1,1.461c.088.034.176.07.262.108a1.572,1.572,0,0,0,1.737-.328l.893-.893a.1.1,0,0,1,.147,0l1.347,1.347a.1.1,0,0,1,0,.147l-.893.893a1.572,1.572,0,0,0-.328,1.737c.038.085.074.173.108.262a1.571,1.571,0,0,0,1.461,1h1.262a.1.1,0,0,1,.1.1v1.905a.1.1,0,0,1-.1.1h-1.262a1.571,1.571,0,0,0-1.46,1c-.034.089-.071.177-.108.262a1.572,1.572,0,0,0,.328,1.737l.893.893a.1.1,0,0,1,0,.147l-1.347,1.347a.1.1,0,0,1-.147,0Z" transform="translate(-137.753 -144.775)"/>
          <path id="Path_1077461" data-name="Path 1077461" d="M217.928,222.118a3.595,3.595,0,1,0,3.595,3.595A3.6,3.6,0,0,0,217.928,222.118Zm0,5.725a2.13,2.13,0,1,1,2.13-2.13A2.132,2.132,0,0,1,217.928,227.843Z" transform="translate(-193.402 -200.427)"/>
          <path id="Path_1077462" data-name="Path 1077462" d="M388.911,79.164a.732.732,0,0,0,.732-.732v-.553a.732.732,0,0,0-1.465,0v.553A.732.732,0,0,0,388.911,79.164Z" transform="translate(-350.271 -69.612)"/>
          <path id="Path_1077463" data-name="Path 1077463" d="M418.378,79.164a.732.732,0,0,0,.732-.732v-.553a.732.732,0,0,0-1.465,0v.553A.732.732,0,0,0,418.378,79.164Z" transform="translate(-376.86 -69.612)"/>
          <path id="Path_1077464" data-name="Path 1077464" d="M388.317,109.195a2.489,2.489,0,0,0,2.336-1.561.732.732,0,0,0-1.353-.561,1.063,1.063,0,0,1-1.964,0,.732.732,0,1,0-1.353.561A2.489,2.489,0,0,0,388.317,109.195Z" transform="translate(-348.237 -96.209)"/>
          <path id="Path_1077465" data-name="Path 1077465" d="M223.15,85.389h.977a.732.732,0,1,0,0-1.465h-.977a.732.732,0,1,0,0,1.465Z" transform="translate(-200.697 -75.728)"/>
          <path id="Path_1077466" data-name="Path 1077466" d="M258.15,85.389h.977a.732.732,0,0,0,0-1.465h-.977a.732.732,0,0,0,0,1.465Z" transform="translate(-232.279 -75.728)"/>
          <path id="Path_1077467" data-name="Path 1077467" d="M293.15,9.661h.873q0,.13,0,.26a9.934,9.934,0,0,0,9.188,9.894v.271a.732.732,0,1,0,1.465,0v-.271A9.921,9.921,0,1,0,294.17,8.2l-.043,0h-.977a.732.732,0,0,0,0,1.465Zm7.328,4.8a5.7,5.7,0,0,0,6.926,0,8.529,8.529,0,0,1,2.361,1.585,8.441,8.441,0,0,1-11.649,0A8.526,8.526,0,0,1,300.478,14.46Zm3.463-12.995a8.451,8.451,0,0,1,6.8,13.482,10.012,10.012,0,0,0-2.239-1.584,5.712,5.712,0,1,0-9.924-5.4.732.732,0,1,0,1.376.5,4.248,4.248,0,1,1,0,2.915.732.732,0,1,0-1.376.5,5.669,5.669,0,0,0,.81,1.482,10.014,10.014,0,0,0-2.238,1.584,8.451,8.451,0,0,1,6.8-13.482Z" transform="translate(-263.861 0)"/>
          <path id="Path_1077468" data-name="Path 1077468" d="M94.819,258.175a.732.732,0,0,0-.732.732v.977a.732.732,0,0,0,1.465,0v-.977A.732.732,0,0,0,94.819,258.175Z" transform="translate(-84.899 -232.962)"/>
          <path id="Path_1077469" data-name="Path 1077469" d="M95.552,223.907a.732.732,0,0,0-1.465,0v.977a.732.732,0,0,0,1.465,0Z" transform="translate(-84.899 -201.38)"/>
          <path id="Path_1077470" data-name="Path 1077470" d="M20.086,303.892h-.271a9.936,9.936,0,0,0-9.161-9.161v-.823a.732.732,0,0,0-1.465,0v.824a9.892,9.892,0,0,0-4.419,1.413.732.732,0,1,0,.762,1.251A8.454,8.454,0,0,1,16.716,309.65a10.012,10.012,0,0,0-2.239-1.585,5.713,5.713,0,1,0-9.112,0,10.012,10.012,0,0,0-2.239,1.585,8.447,8.447,0,0,1,.065-10.145.732.732,0,0,0-1.165-.888A9.832,9.832,0,0,0,0,304.624a9.921,9.921,0,0,0,19.814.732h.271a.732.732,0,0,0,0-1.465ZM9.921,300.376a4.248,4.248,0,1,1-4.248,4.248A4.253,4.253,0,0,1,9.921,300.376ZM4.1,310.749a8.53,8.53,0,0,1,2.361-1.585,5.7,5.7,0,0,0,6.927,0,8.528,8.528,0,0,1,2.361,1.585,8.441,8.441,0,0,1-11.649,0Z" transform="translate(0 -264.544)"/>
          <path id="Path_1077471" data-name="Path 1077471" d="M224.884,402.913h-.977a.732.732,0,0,0,0,1.465h.977a.732.732,0,0,0,0-1.465Z" transform="translate(-201.38 -363.566)"/>
          <path id="Path_1077472" data-name="Path 1077472" d="M259.884,402.913h-.977a.732.732,0,0,0,0,1.465h.977a.732.732,0,0,0,0-1.465Z" transform="translate(-232.962 -363.566)"/>
          <path id="Path_1077473" data-name="Path 1077473" d="M9.188,19.814v.271a.732.732,0,1,0,1.465,0v-.271a9.934,9.934,0,0,0,9.188-9.894q0-.131,0-.26h.174a.732.732,0,1,0,0-1.465h-.321a9.921,9.921,0,1,0-10.5,11.619Zm.732-5.646a4.248,4.248,0,1,1,4.248-4.248,4.253,4.253,0,0,1-4.248,4.248Zm-3.463.291a5.7,5.7,0,0,0,6.927,0,8.529,8.529,0,0,1,2.361,1.585,8.441,8.441,0,0,1-11.649,0A8.525,8.525,0,0,1,6.457,14.46Zm3.463-13a8.451,8.451,0,0,1,6.8,13.482,10.013,10.013,0,0,0-2.239-1.584,5.713,5.713,0,1,0-9.112,0,10.015,10.015,0,0,0-2.239,1.584,8.452,8.452,0,0,1,6.8-13.482Z" transform="translate(0 0)"/>
          <path id="Path_1077474" data-name="Path 1077474" d="M80.086,79.164a.732.732,0,0,0,.732-.732v-.553a.732.732,0,0,0-1.465,0v.553A.732.732,0,0,0,80.086,79.164Z" transform="translate(-71.605 -69.612)"/>
          <path id="Path_1077475" data-name="Path 1077475" d="M109.553,79.164a.732.732,0,0,0,.732-.732v-.553a.732.732,0,0,0-1.465,0v.553A.732.732,0,0,0,109.553,79.164Z" transform="translate(-98.194 -69.612)"/>
          <path id="Path_1077476" data-name="Path 1077476" d="M79.489,103.5a2.489,2.489,0,0,0-2.336,1.561.732.732,0,0,0,1.353.561,1.063,1.063,0,0,1,1.964,0,.732.732,0,0,0,1.353-.561A2.489,2.489,0,0,0,79.489,103.5Z" transform="translate(-69.568 -93.392)"/>
          <path id="Path_1077477" data-name="Path 1077477" d="M80.086,387.99a.732.732,0,0,0,.732-.732V386.7a.732.732,0,1,0-1.465,0v.553A.732.732,0,0,0,80.086,387.99Z" transform="translate(-71.605 -348.279)"/>
          <path id="Path_1077478" data-name="Path 1077478" d="M109.553,387.99a.732.732,0,0,0,.732-.732V386.7a.732.732,0,1,0-1.465,0v.553A.732.732,0,0,0,109.553,387.99Z" transform="translate(-98.194 -348.279)"/>
          <path id="Path_1077479" data-name="Path 1077479" d="M79.491,418.02a2.489,2.489,0,0,0,2.336-1.561.732.732,0,0,0-1.353-.561,1.063,1.063,0,0,1-1.964,0,.732.732,0,1,0-1.353.561A2.489,2.489,0,0,0,79.491,418.02Z" transform="translate(-69.57 -374.875)"/>
          <path id="Path_1077480" data-name="Path 1077480" d="M311.4,298.374a.733.733,0,0,0-.123,1.028,8.448,8.448,0,0,1,.143,10.247,10.013,10.013,0,0,0-2.239-1.585,5.713,5.713,0,1,0-9.112,0,10.012,10.012,0,0,0-2.239,1.585A8.455,8.455,0,0,1,308.9,297.328a.732.732,0,0,0,.742-1.263,9.9,9.9,0,0,0-4.287-1.334v-.824a.732.732,0,0,0-1.465,0v.823a9.936,9.936,0,0,0-9.161,9.161h-.823a.732.732,0,0,0,0,1.465h.823a9.921,9.921,0,0,0,19.815-.732,9.821,9.821,0,0,0-2.117-6.126A.732.732,0,0,0,311.4,298.374Zm-6.776,2a4.248,4.248,0,1,1-4.248,4.248A4.253,4.253,0,0,1,304.622,300.375ZM298.8,310.748a8.53,8.53,0,0,1,2.361-1.585,5.7,5.7,0,0,0,6.927,0,8.528,8.528,0,0,1,2.361,1.585,8.441,8.441,0,0,1-11.649,0Z" transform="translate(-264.543 -264.543)"/>
          <path id="Path_1077481" data-name="Path 1077481" d="M388.911,387.99a.732.732,0,0,0,.732-.732V386.7a.732.732,0,1,0-1.465,0v.553A.732.732,0,0,0,388.911,387.99Z" transform="translate(-350.271 -348.279)"/>
          <path id="Path_1077482" data-name="Path 1077482" d="M418.378,387.99a.732.732,0,0,0,.732-.732V386.7a.732.732,0,1,0-1.465,0v.553A.732.732,0,0,0,418.378,387.99Z" transform="translate(-376.86 -348.279)"/>
          <path id="Path_1077483" data-name="Path 1077483" d="M386.657,419.965h3.318a.732.732,0,1,0,0-1.465h-3.318a.732.732,0,1,0,0,1.465Z" transform="translate(-348.237 -377.63)"/>
          <path id="Path_1077484" data-name="Path 1077484" d="M403.645,258.175a.732.732,0,0,0-.732.732v.977a.732.732,0,0,0,1.465,0v-.977A.732.732,0,0,0,403.645,258.175Z" transform="translate(-363.566 -232.962)"/>
          <path id="Path_1077485" data-name="Path 1077485" d="M404.378,223.907a.732.732,0,0,0-1.465,0v.977a.732.732,0,0,0,1.465,0Z" transform="translate(-363.566 -201.38)"/>
        </g>
      </g>
    </g>
  </g>
</svg>
