<svg xmlns="http://www.w3.org/2000/svg" xmlns:xlink="http://www.w3.org/1999/xlink" width="103" height="103" viewBox="0 0 103 103">
  <defs>
    <filter id="Path_978624" x="0" y="0" width="103" height="103" filterUnits="userSpaceOnUse">
      <feOffset dy="3" input="SourceAlpha"/>
      <feGaussianBlur stdDeviation="3" result="blur"/>
      <feFlood flood-opacity="0.161"/>
      <feComposite operator="in" in2="blur"/>
      <feComposite in="SourceGraphic"/>
    </filter>
  </defs>
  <g id="Group_1215581" data-name="Group 1215581" transform="translate(-612 -2805)">
    <g id="Group_1214550" data-name="Group 1214550" transform="translate(0 -257)">
      <g id="Group_1208646" data-name="Group 1208646" transform="translate(621 3060)">
        <g id="Group_1180764" data-name="Group 1180764" transform="translate(0 8)">
          <g id="Group_1179463" data-name="Group 1179463">
            <g id="Group_1144531" data-name="Group 1144531">
              <g transform="matrix(1, 0, 0, 1, -9, -6)" filter="url(#Path_978624)">
                <g id="Path_978624-2" data-name="Path 978624" transform="translate(9 6)" fill="#f2f7e5">
                  <path d="M 42.5 83.5 C 36.96437835693359 83.5 31.59512901306152 82.41617584228516 26.54141235351562 80.27863311767578 C 21.65934181213379 78.21369171142578 17.27447128295898 75.25723266601562 13.50862312316895 71.49137878417969 C 9.742764472961426 67.72553253173828 6.786305904388428 63.34066009521484 4.721364498138428 58.45858764648438 C 2.583823442459106 53.40486907958984 1.5 48.03562164306641 1.5 42.5 C 1.5 36.96437835693359 2.583823442459106 31.59512901306152 4.721364498138428 26.54141235351562 C 6.786305904388428 21.65934181213379 9.742764472961426 17.27447128295898 13.50862312316895 13.50862312316895 C 17.27447128295898 9.742764472961426 21.65934181213379 6.786305904388428 26.54141235351562 4.721364498138428 C 31.59512901306152 2.583823442459106 36.96437835693359 1.5 42.5 1.5 C 48.03562164306641 1.5 53.40486907958984 2.583823442459106 58.45858764648438 4.721364498138428 C 63.34066009521484 6.786305904388428 67.72553253173828 9.742764472961426 71.49137878417969 13.50862312316895 C 75.25723266601562 17.27447128295898 78.21369171142578 21.65934181213379 80.27863311767578 26.54141235351562 C 82.41617584228516 31.59512901306152 83.5 36.96437835693359 83.5 42.5 C 83.5 48.03562164306641 82.41617584228516 53.40486907958984 80.27863311767578 58.45858764648438 C 78.21369171142578 63.34066009521484 75.25723266601562 67.72553253173828 71.49137878417969 71.49137878417969 C 67.72553253173828 75.25723266601562 63.34066009521484 78.21369171142578 58.45858764648438 80.27863311767578 C 53.40486907958984 82.41617584228516 48.03562164306641 83.5 42.5 83.5 Z" stroke="none"/>
                  <path d="M 42.5 3 C 37.16621398925781 3 31.99356079101562 4.043960571289062 27.125732421875 6.102882385253906 C 22.42246627807617 8.092185974121094 18.19785308837891 10.94070434570312 14.56928253173828 14.56928253173828 C 10.94070434570312 18.19785308837891 8.092185974121094 22.42246627807617 6.102882385253906 27.125732421875 C 4.043960571289062 31.99356079101562 3 37.16621398925781 3 42.5 C 3 47.83378601074219 4.043960571289062 53.00643920898438 6.102882385253906 57.87425231933594 C 8.092185974121094 62.57753372192383 10.94070434570312 66.80213165283203 14.56928253173828 70.43071746826172 C 18.19786834716797 74.05929565429688 22.42246627807617 76.90781402587891 27.125732421875 78.89711761474609 C 31.99356079101562 80.95603942871094 37.16621398925781 82 42.5 82 C 47.83378601074219 82 53.00642395019531 80.95603942871094 57.87425231933594 78.89711761474609 C 62.57753372192383 76.90781402587891 66.80213165283203 74.05929565429688 70.43071746826172 70.43071746826172 C 74.05929565429688 66.80213165283203 76.90781402587891 62.57753372192383 78.89711761474609 57.87425231933594 C 80.95603942871094 53.00642395019531 82 47.83378601074219 82 42.5 C 82 37.16621398925781 80.95603942871094 31.99356079101562 78.89711761474609 27.125732421875 C 76.90781402587891 22.42246627807617 74.05929565429688 18.19786834716797 70.43071746826172 14.56928253173828 C 66.80213165283203 10.94070434570312 62.57753372192383 8.092185974121094 57.87425231933594 6.102882385253906 C 53.00643920898438 4.043960571289062 47.83378601074219 3 42.5 3 M 42.5 0 C 65.97209167480469 0 85 19.02789306640625 85 42.5 C 85 65.97209167480469 65.97209167480469 85 42.5 85 C 19.02789306640625 85 0 65.97209167480469 0 42.5 C 0 19.02789306640625 19.02789306640625 0 42.5 0 Z" stroke="none" fill="#496406"/>
                </g>
              </g>
            </g>
          </g>
        </g>
      </g>
      <g id="proceso-de-aprendizaje" transform="translate(606.337 3082.572)">
        <g id="Group_1214548" data-name="Group 1214548" transform="translate(33.434 0.818)">
          <g id="Group_1214546" data-name="Group 1214546">
            <g id="Group_1214544" data-name="Group 1214544">
              <path id="Path_1077372" data-name="Path 1077372" d="M81.361,32.214c0,8.946-.561,25.8-8.74,25.746,0,0-2.118-.42-2.147-.422h0c-1.238-.3-1.329,1.314-1.292,1.346l-.7,2.442a.546.546,0,0,1-.524.4H48.475a.545.545,0,0,1-.535-.651l1.623-8.248a7.348,7.348,0,0,0-2.745-7.236,21.079,21.079,0,0,1-8.33-16.717c0-11.8,9.893-21.368,22.1-21.368a22.118,22.118,0,0,1,12.75,3.711c4.82,4.662,8.027,12.493,8.027,21Z" transform="translate(-38.487 -7.5)" fill="#d78878"/>
              <path id="Path_1077373" data-name="Path 1077373" d="M363.232,75.2l-1.1.587a1.46,1.46,0,0,0-.6,1.969l.515.973a1.674,1.674,0,0,1-.453,2.1l-.123.1a.587.587,0,0,0-.053.879l.067.065a1.672,1.672,0,0,1-.02,2.392l-.374.359a1.869,1.869,0,0,0-.573,1.28l-.019.55a3.073,3.073,0,0,1-3.679,2.9l-5.443-1.085a40,40,0,0,0,.712-46.748,22.845,22.845,0,0,1,8.449,11.605l1.091,3.452a9.068,9.068,0,0,1-.44,6.593l0,.01a3.96,3.96,0,0,0,.043,3.457l2.89,5.778A2.1,2.1,0,0,1,363.232,75.2Z" transform="translate(-317.243 -37.809)" fill="#ca6e59"/>
            </g>
            <g id="Group_1214545" data-name="Group 1214545" transform="translate(5.114 4.403)">
              <path id="Path_1077374" data-name="Path 1077374" d="M98.33,80.141c-1.387.286-7.645-2.348-8.8-4.1A17.025,17.025,0,0,1,112.407,51.12c.711,1.609,4.472,5.48,4.356,7.3C115.757,74.243,112.151,77.289,98.33,80.141Z" transform="translate(-85.363 -47.86)" fill="#eaf6ff"/>
              <path id="Path_1077375" data-name="Path 1077375" d="M153.435,91.5a17.024,17.024,0,0,1-29.88,11.159,18.38,18.38,0,0,0,4.069.891,11.244,11.244,0,0,0,1.907.1c7.274-.487,7.769-2.381,10.93-4.915,1.112-.89,2.726-1.041,3.605-2.161a18.481,18.481,0,0,0,2.367-18.833,17,17,0,0,1,7,13.762Z" transform="translate(-119.388 -74.479)" fill="#d8ecfe"/>
            </g>
          </g>
          <g id="Group_1214547" data-name="Group 1214547" transform="translate(10.493 6.86)">
            <path id="Path_1077376" data-name="Path 1077376" d="M156.83,130.605v15.646c0,.3-.8.542-1.086.542h-7.552a.462.462,0,0,0-.3.113,2.307,2.307,0,0,1-1.518.572h-.156a2.3,2.3,0,0,1-.746-.125l-.062-.022a2.352,2.352,0,0,1-.71-.425.46.46,0,0,0-.3-.113h-9.2a.534.534,0,0,1-.525-.542V130.605a.534.534,0,0,1,.525-.542h9.178a.513.513,0,0,0,.339-.127l.495-.431a.525.525,0,0,1,.261-.12.454.454,0,0,1,.077-.007h1.492a.521.521,0,0,1,.339.127l.495.431a.51.51,0,0,0,.338.127h7.531C156.034,130.063,156.83,130.306,156.83,130.605Z" transform="translate(-134.673 -122.941)" fill="#73788c"/>
            <path id="Path_1077377" data-name="Path 1077377" d="M329.988,136.2v15.646a.534.534,0,0,1-.526.542h-1.647a.534.534,0,0,0,.526-.542V136.2a.534.534,0,0,0-.526-.542h1.647A.534.534,0,0,1,329.988,136.2Z" transform="translate(-306.744 -128.535)" fill="#5e6577"/>
            <path id="Path_1077378" data-name="Path 1077378" d="M176.538,119.277v13.914c0,.115-.853.527-.938.591h-5.228a.794.794,0,0,0-.338.075.786.786,0,0,0-.17.107,1.734,1.734,0,0,1-.388.25l-.663-.217-.993.217a1.735,1.735,0,0,1-.388-.25.8.8,0,0,0-.508-.182h-6.828a.331.331,0,0,1-.332-.331V119.043a.33.33,0,0,1,.245-.32l.821-.223a12.813,12.813,0,0,1,6.662-.012l.513.136c-.118.142.4,1.018.4,1.214l.189,6.607.3-6.835c0-.205.5-.856.38-1l.465-.125a12.828,12.828,0,0,1,6-.169Z" transform="translate(-157.026 -112.84)" fill="#d8ecfe"/>
            <path id="Path_1077379" data-name="Path 1077379" d="M300.277,121.288V135.7c0,.183-.211.331-.473.331h-2.2a.334.334,0,0,0,.2-.283V120.569c.493.073.985.16,1.471.262l.67.14C300.139,121.013,300.277,121.142,300.277,121.288Z" transform="translate(-279.826 -115.093)" fill="#c4e2ff"/>
            <path id="Path_1077380" data-name="Path 1077380" d="M199.4,73.957c0,3.023-2.907,6.54-5.93,6.54-.8,0-1.773-.663-3.15-1.958a5.621,5.621,0,0,1,6.937-7.822C198.444,71.728,199.4,72.921,199.4,73.957Z" transform="translate(-183.71 -70.378)" fill="#ffe177"/>
            <path id="Path_1077381" data-name="Path 1077381" d="M205.911,78.766a5.593,5.593,0,0,1-1.429,3.744,6.782,6.782,0,0,0-1.36,4.044v.835l-5.656.019v-.794a6.8,6.8,0,0,0-1.334-4.075,5.593,5.593,0,0,1-.847-1.228,5.475,5.475,0,0,0,6.937-7.822A5.62,5.62,0,0,1,205.911,78.766Z" transform="translate(-188.673 -73.149)" fill="#ffd15b"/>
            <path id="Path_1077382" data-name="Path 1077382" d="M219.326,194.525l.82,1.518c0,.968-.861,1.912-2.522,1.912a1.821,1.821,0,0,1-1.7-1.818v-1.612Z" transform="translate(-207.057 -180.981)" fill="#5e6577"/>
            <path id="Path_1077383" data-name="Path 1077383" d="M235.345,194.525v1.612a1.822,1.822,0,0,1-1.823,1.823h-1.87c-.04,0-.08,0-.119,0a1.82,1.82,0,0,0,1.7-1.818v-1.612Z" transform="translate(-220.966 -180.981)" fill="#4d5263"/>
            <path id="Path_1077384" data-name="Path 1077384" d="M209.892,175.942a1.4,1.4,0,0,1-.411.993,5.066,5.066,0,0,1-2,.412h-3.512a1.405,1.405,0,0,1,0-2.81h3.512C208.257,174.537,209.892,175.167,209.892,175.942Z" transform="translate(-195.158 -163.174)" fill="#73788c"/>
            <path id="Path_1077385" data-name="Path 1077385" d="M251.137,175.943a1.4,1.4,0,0,1-1.405,1.405h-2.11a1.405,1.405,0,0,0,0-2.81h2.11A1.4,1.4,0,0,1,251.137,175.943Z" transform="translate(-235.3 -163.175)" fill="#5e6577"/>
          </g>
        </g>
        <g id="Group_1214549" data-name="Group 1214549" transform="translate(32.815 0)">
          <path id="Path_1077386" data-name="Path 1077386" d="M110.927,55.927A18.178,18.178,0,1,0,92.748,74.106,18.2,18.2,0,0,0,110.927,55.927ZM92.748,72.47a16.542,16.542,0,1,1,16.542-16.542A16.561,16.561,0,0,1,92.748,72.47Z" transform="translate(-70.015 -33.631)"/>
          <path id="Path_1077387" data-name="Path 1077387" d="M311.931,459.121l-2.428-.484a1.869,1.869,0,0,0-2.17,1.319l-.982,3.426a.818.818,0,1,0,1.573.451l.981-3.422a.239.239,0,0,1,.278-.169l2.428.484a.818.818,0,0,0,.32-1.6Z" transform="translate(-276.481 -408.57)"/>
          <path id="Path_1077388" data-name="Path 1077388" d="M82.085,35.058l-2.89-5.777a3.123,3.123,0,0,1-.034-2.743l.007-.015a9.867,9.867,0,0,0,.477-7.182l-1.091-3.451-.008-.024A23.679,23.679,0,0,0,70.105,4.078,22.73,22.73,0,0,0,56.574,0C44.947,0,35.162,8.42,33.815,19.585a.818.818,0,1,0,1.625.2C36.688,9.437,45.774,1.636,56.574,1.636c9.835,0,17.088,5.241,20.423,14.757l1.087,3.439a8.235,8.235,0,0,1-.4,6l-.007.015a4.749,4.749,0,0,0,.054,4.166l2.89,5.777a1.271,1.271,0,0,1-.541,1.7l-1.1.587a2.283,2.283,0,0,0-.942,3.073l.514.972a.853.853,0,0,1-.231,1.072,1.458,1.458,0,0,0-.664,1.122,1.425,1.425,0,0,0,.479,1.146.853.853,0,0,1-.011,1.221l-.374.359a2.676,2.676,0,0,0-.824,1.841l-.019.55a2.254,2.254,0,0,1-2.7,2.129L72.9,51.3a.818.818,0,0,0-.32,1.6l1.316.262a3.891,3.891,0,0,0,4.657-3.676l.019-.549a1.047,1.047,0,0,1,.322-.719l.374-.359a2.49,2.49,0,0,0,.145-3.441A2.488,2.488,0,0,0,80,41.355l-.514-.972a.643.643,0,0,1,.266-.866l1.1-.588a2.9,2.9,0,0,0,1.232-3.872Z" transform="translate(-33.701 0)"/>
          <path id="Path_1077389" data-name="Path 1077389" d="M42.422,223.551a20.369,20.369,0,0,1-7.972-14.8.818.818,0,1,0-1.633.1,22.006,22.006,0,0,0,8.606,15.991,6.5,6.5,0,0,1,2.441,6.431l-1.751,8.9a.818.818,0,1,0,1.606.316l1.751-8.9A8.127,8.127,0,0,0,42.422,223.551Z" transform="translate(-32.815 -185.296)"/>
          <path id="Path_1077390" data-name="Path 1077390" d="M152.264,81.69a.818.818,0,0,0,.818-.818V72.658a1.347,1.347,0,0,0-1.337-1.354h-1.421v-.341a.818.818,0,0,0-.584-.784l-.7-.209a13.591,13.591,0,0,0-1.988-.433,6.364,6.364,0,0,0-12.54.011,13.607,13.607,0,0,0-1.663.339l-1.054.285a.818.818,0,0,0-.6.79V71.3h-1.367a1.347,1.347,0,0,0-1.337,1.354V88.109a1.347,1.347,0,0,0,1.337,1.354h8.953a3.1,3.1,0,0,0,1.929.677h.154a3.1,3.1,0,0,0,1.929-.677h8.953a1.347,1.347,0,0,0,1.337-1.354V84.69a.818.818,0,1,0-1.636,0v3.136H142.66a1.273,1.273,0,0,0-.835.313,1.468,1.468,0,0,1-.962.364h-.154a1.468,1.468,0,0,1-.962-.364,1.272,1.272,0,0,0-.835-.313h-8.786V72.94h1.067v2.849a.818.818,0,1,0,1.636,0v-4.2l.449-.121c.384-.1.775-.186,1.167-.251a6.349,6.349,0,0,0,1.595,3.663,5.694,5.694,0,0,1,.623,1.075,2.2,2.2,0,0,0,.58,3.809v.292a2.621,2.621,0,0,0,2.618,2.618h.105V85.22a1.607,1.607,0,0,0-.885-.267H132.83V79.608a.818.818,0,0,0-1.636,0v6.164a.818.818,0,0,0,.818.818h7.061a2.7,2.7,0,0,0,3.428,0h7.006a.818.818,0,0,0,.818-.818V72.94h1.121v7.931A.818.818,0,0,0,152.264,81.69ZM140.786,65.907a4.735,4.735,0,0,1,4.729,4.73,4.854,4.854,0,0,1-1.25,3.209,6.018,6.018,0,0,0-.937,1.648H141.6V72.947h1.031a.818.818,0,0,0,0-1.636h-3.552a.818.818,0,1,0,0,1.636h.884v2.546h-1.721a5.478,5.478,0,0,0-.917-1.622,4.8,4.8,0,0,1-1.274-3.235A4.735,4.735,0,0,1,140.786,65.907ZM138.01,78.268a.569.569,0,0,1,0-1.139h5.552a.569.569,0,1,1,0,1.139Zm.871,1.789V79.9h3.81v.152a.983.983,0,0,1-.982.982h-1.847A.983.983,0,0,1,138.881,80.056Zm9.807,4.9h-6.2a1.607,1.607,0,0,0-.885.267V82.674h.105a2.621,2.621,0,0,0,2.618-2.618v-.292a2.2,2.2,0,0,0,.584-3.807,6.061,6.061,0,0,1,.647-1.109,6.352,6.352,0,0,0,1.568-3.645,11.968,11.968,0,0,1,1.448.334l.113.034Z" transform="translate(-118.052 -57.259)"/>
        </g>
      </g>
    </g>
  </g>
</svg>
