<svg xmlns="http://www.w3.org/2000/svg" xmlns:xlink="http://www.w3.org/1999/xlink" width="113" height="113" viewBox="0 0 113 113">
  <defs>
    <filter id="Path_982547" x="0" y="0" width="113" height="113" filterUnits="userSpaceOnUse">
      <feOffset dy="3" input="SourceAlpha"/>
      <feGaussianBlur stdDeviation="3" result="blur"/>
      <feFlood flood-opacity="0.161"/>
      <feComposite operator="in" in2="blur"/>
      <feComposite in="SourceGraphic"/>
    </filter>
  </defs>
  <g id="Group_1215526" data-name="Group 1215526" transform="translate(-195 -302)">
    <g id="Group_1214493" data-name="Group 1214493">
      <g id="Group_1214144" data-name="Group 1214144" transform="translate(4 7)">
        <g id="Group_1200897" data-name="Group 1200897" transform="translate(36 -5344)">
          <g id="Group_1200342" data-name="Group 1200342" transform="translate(0 606)">
            <g id="Group_1185978" data-name="Group 1185978" transform="translate(164 5039)">
              <g id="Group_1180760" data-name="Group 1180760">
                <g id="Group_1174888" data-name="Group 1174888">
                  <g id="Group_1166845" data-name="Group 1166845">
                    <g id="Group_1166720" data-name="Group 1166720">
                      <g id="Group_1164305" data-name="Group 1164305">
                        <g id="Group_1163948" data-name="Group 1163948">
                          <g id="Group_1158168" data-name="Group 1158168">
                            <g id="Group_1152576" data-name="Group 1152576">
                              <g id="Group_1148633" data-name="Group 1148633">
                                <g id="Group_1148525" data-name="Group 1148525">
                                  <g transform="matrix(1, 0, 0, 1, -9, -6)" filter="url(#Path_982547)">
                                    <g id="Path_982547-2" data-name="Path 982547" transform="translate(9 6)" fill="#e9f9fd">
                                      <path d="M 47.5 93.5 C 41.28937149047852 93.5 35.26533508300781 92.28397369384766 29.59518623352051 89.88570404052734 C 24.11771965026855 87.56893157958984 19.19813346862793 84.25196075439453 14.97309303283691 80.02691650390625 C 10.74804019927979 75.80186462402344 7.431066513061523 70.88229370117188 5.114293098449707 65.40481567382812 C 2.716026782989502 59.73468017578125 1.5 53.71062850952148 1.5 47.5 C 1.5 41.28937149047852 2.716026782989502 35.26533508300781 5.114293098449707 29.59518623352051 C 7.431066513061523 24.11771965026855 10.74804019927979 19.19813346862793 14.97309303283691 14.97309303283691 C 19.19813346862793 10.74804019927979 24.11771965026855 7.431066513061523 29.59518623352051 5.114293098449707 C 35.26533508300781 2.716026782989502 41.28937149047852 1.5 47.5 1.5 C 53.71062850952148 1.5 59.73468017578125 2.716026782989502 65.40481567382812 5.114293098449707 C 70.88229370117188 7.431066513061523 75.80186462402344 10.74804019927979 80.02691650390625 14.97309303283691 C 84.25196075439453 19.19813346862793 87.56893157958984 24.11771965026855 89.88570404052734 29.59518623352051 C 92.28397369384766 35.26533508300781 93.5 41.28937149047852 93.5 47.5 C 93.5 53.71062850952148 92.28397369384766 59.73468017578125 89.88570404052734 65.40481567382812 C 87.56893157958984 70.88229370117188 84.25196075439453 75.80186462402344 80.02691650390625 80.02691650390625 C 75.80186462402344 84.25196075439453 70.88229370117188 87.56893157958984 65.40481567382812 89.88570404052734 C 59.73468017578125 92.28397369384766 53.71062850952148 93.5 47.5 93.5 Z" stroke="none"/>
                                      <path d="M 47.5 3 C 41.49121475219727 3 35.66376876831055 4.176155090332031 30.17950439453125 6.495796203613281 C 24.88084411621094 8.736953735351562 20.12152099609375 11.94598388671875 16.03375244140625 16.03375244140625 C 11.94598388671875 20.12152099609375 8.736953735351562 24.88084411621094 6.495796203613281 30.17950439453125 C 4.176155090332031 35.66376876831055 3 41.49121475219727 3 47.5 C 3 53.50878524780273 4.176155090332031 59.33623123168945 6.495796203613281 64.82049560546875 C 8.736953735351562 70.11915588378906 11.94598388671875 74.87847900390625 16.03375244140625 78.96624755859375 C 20.12152099609375 83.05401611328125 24.88084411621094 86.26304626464844 30.17950439453125 88.50419616699219 C 35.66376876831055 90.82384490966797 41.49121475219727 92 47.5 92 C 53.50878524780273 92 59.33623123168945 90.82384490966797 64.82049560546875 88.50419616699219 C 70.11915588378906 86.26304626464844 74.87847900390625 83.05401611328125 78.96624755859375 78.96624755859375 C 83.05401611328125 74.87847900390625 86.26304626464844 70.11915588378906 88.50419616699219 64.82049560546875 C 90.82384490966797 59.33623123168945 92 53.50878524780273 92 47.5 C 92 41.49121475219727 90.82384490966797 35.66376876831055 88.50419616699219 30.17950439453125 C 86.26304626464844 24.88084411621094 83.05401611328125 20.12152099609375 78.96624755859375 16.03375244140625 C 74.87847900390625 11.94598388671875 70.11915588378906 8.736953735351562 64.82049560546875 6.495796203613281 C 59.33623123168945 4.176155090332031 53.50878524780273 3 47.5 3 M 47.5 0 C 73.7335205078125 0 95 21.2664794921875 95 47.5 C 95 73.7335205078125 73.7335205078125 95 47.5 95 C 21.2664794921875 95 0 73.7335205078125 0 47.5 C 0 21.2664794921875 21.2664794921875 0 47.5 0 Z" stroke="none" fill="#1d7083"/>
                                    </g>
                                  </g>
                                </g>
                              </g>
                            </g>
                          </g>
                        </g>
                      </g>
                    </g>
                  </g>
                </g>
              </g>
            </g>
          </g>
        </g>
      </g>
      <g id="layer1-0" transform="translate(214.392 322.392)">
        <path id="path7922" d="M9.753,26.368c1.843,4.541-2.057,3.575,1.39,7.068s2.545-.408,7.072,1.505,1.084,3.977,6,4.019,1.51-2.081,6.069-3.916,3.59,2.049,7.1-1.385-.41-2.535,1.511-7.043,3.993-1.079,4.035-6.209c-.042-5.13-2.115-1.7-4.035-6.209s2-3.61-1.511-7.043-2.538.451-7.1-1.385-1.152-3.958-6.069-3.916-1.474,2.106-6,4.019-3.625-1.987-7.072,1.505S11.6,9.9,9.753,14.445s-3.974,1.147-3.932,5.962c-.042,4.814,2.089,1.421,3.932,5.962Z" transform="translate(-4.584 -0.616)" fill="#ff5151"/>
        <path id="ellipse7924" d="M12.362,6.181A6.181,6.181,0,1,1,6.181,0a6.181,6.181,0,0,1,6.181,6.181Z" transform="translate(13.606 13.61)" fill="#e4eff8"/>
        <path id="ellipse7954" d="M13.9,4.5a6.177,6.177,0,0,1,2.96,11.6,6.174,6.174,0,0,0-8.4-8.364A6.181,6.181,0,0,1,13.9,4.5Z" transform="translate(5.885 9.11)" fill="#c4dcf0"/>
        <g id="Group_1214492" data-name="Group 1214492" transform="translate(18.553 1.236)">
          <path id="path7935" d="M15.477,5.769a8.608,8.608,0,0,0,.92.312A4.384,4.384,0,0,1,13,5.769C8.978,4.15,11.137,2.313,8.328,1.93a9.564,9.564,0,0,1,1.08-.077C14.325,1.811,10.918,3.934,15.477,5.769Z" transform="translate(-8.328 -1.852)" fill="#f5f9fb"/>
          <path id="path7938" d="M7.28,2.675c.527.042,1.185.4,2.281,1.471,3.507,3.433-.408,2.536,1.512,7.045s3.993,1.079,4.035,6.209c-.042,5.13-2.114,1.7-4.035,6.209s1.994,3.611-1.512,7.045c-2.17,2.124-2.628,1.446-3.74,1.056a8.526,8.526,0,0,0,1.263-1.056c3.507-3.433-.409-2.536,1.512-7.045s3.993-1.079,4.035-6.209c-.042-5.13-2.114-1.7-4.035-6.209S10.591,7.58,7.084,4.146A8.537,8.537,0,0,0,5.821,3.091,3.59,3.59,0,0,1,7.28,2.675Z" transform="translate(4.684 1.155)" fill="#f5f9fb"/>
          <path id="path7940" d="M16.4,9.049a8.594,8.594,0,0,0-.92.312c-4.559,1.836-1.151,3.958-6.069,3.916a9.486,9.486,0,0,1-1.08-.077c2.809-.382.65-2.219,4.672-3.839a6.428,6.428,0,0,1,2.046-.515A3.272,3.272,0,0,1,16.4,9.049Z" transform="translate(-8.328 23.832)" fill="#f5f9fb"/>
        </g>
        <path id="path7944" d="M17.683,2.027c-2.215.536-.425,2.242-4.221,3.846-2.373,1-3.254.418-4.051.128.116-.044.222-.076.345-.128,4.527-1.913,1.084-3.978,6-4.02a7.439,7.439,0,0,1,1.925.174Z" transform="translate(3.875 -0.616)" fill="#ff2929"/>
        <path id="path7946" d="M19.177,2.716c.787-.076,1.3.555,2.522.558a9.649,9.649,0,0,0-1.07.954c-3.447,3.493.453,2.526-1.389,7.067s-3.975,1.148-3.933,5.962c-.042,4.814,2.09,1.422,3.933,5.962s-2.058,3.574,1.389,7.067a9.639,9.639,0,0,0,1.07.954c-2.037.005-2.09,1.77-4.779-.954-3.447-3.493.454-2.526-1.389-7.067s-3.975-1.148-3.933-5.962c-.042-4.814,2.09-1.422,3.933-5.962S13.473,7.721,16.92,4.228C18,3.137,18.651,2.766,19.177,2.716Z" transform="translate(-10.362 2.534)" fill="#ff2929"/>
        <path id="path7948" d="M13.462,9.37c3.8,1.6,2.006,3.311,4.221,3.846a7.437,7.437,0,0,1-1.925.174c-4.917-.042-1.474-2.107-6-4.02-.124-.052-.23-.084-.345-.128a4.942,4.942,0,0,1,1.522-.423A5.529,5.529,0,0,1,13.462,9.37Z" transform="translate(3.876 24.956)" fill="#ff2929"/>
        <path id="path7785" d="M3.393,34.758c2.334,5.751-2.606,4.529,1.761,8.953s3.224-.516,8.958,1.906,1.373,5.037,7.6,5.09,1.913-2.635,7.688-4.96,4.547,2.6,8.989-1.754-.518-3.211,1.914-8.922,5.058-1.367,5.111-7.865c-.053-6.5-2.678-2.154-5.111-7.865s2.528-4.573-1.914-8.922-3.214.571-8.989-1.754-1.459-5.013-7.688-4.96-1.867,2.668-7.6,5.09S9.521,6.278,5.154,10.7s.573,3.2-1.761,8.953-5.034,1.453-4.981,7.551c-.053,6.1,2.646,1.8,4.981,7.551Z" transform="translate(27.564 6.191)" fill="#a0bf05"/>
        <path id="path7799" d="M1.058,17.483A11.133,11.133,0,1,0,12.19,6.351,11.132,11.132,0,0,0,1.058,17.483Z" transform="translate(37.288 15.915)" fill="#e4eff8"/>
        <path id="path7831" d="M2.381,9.526v6.585a2.063,2.063,0,0,0,2.062,2.073h5.771a2.063,2.063,0,0,0,2.062-2.073V9.526Z" transform="translate(42.145 27.583)" fill="#38668c"/>
        <path id="circle7803" d="M10.057,6.351A11.124,11.124,0,0,1,16.58,26.492,11.118,11.118,0,0,0,1.058,10.95a11.133,11.133,0,0,1,9-4.6Z" transform="translate(39.421 15.915)" fill="#c4dcf0"/>
        <path id="path966" d="M-.143,4.746c.667.053,1.5.508,2.889,1.868,4.442,4.349-.519,3.209,1.913,8.92S9.718,16.9,9.772,23.4c-.053,6.5-2.679,2.155-5.112,7.866s2.528,4.571-1.913,8.92c-2.462,2.411-3.2,1.973-4.334,1.5a9.558,9.558,0,0,0,1.86-1.5c4.442-4.349-.519-3.209,1.913-8.92S7.245,29.9,7.3,23.4c-.053-6.5-2.679-2.155-5.112-7.866S4.714,10.963.272,6.613a9.558,9.558,0,0,0-1.86-1.5A3.075,3.075,0,0,1-.143,4.746Z" transform="translate(63.208 9.998)" fill="#f5f9fb"/>
        <path id="path7795" d="M10.449,12.563a4.085,4.085,0,0,1,1.421.167,10.008,10.008,0,0,0-1.541.486C4.554,15.54,8.87,18.23,2.641,18.178c-.429,0-.8-.024-1.133-.051,4.207-.355,1.059-2.783,6.347-4.912a8.159,8.159,0,0,1,2.595-.652Z" transform="translate(46.636 38.722)" fill="#f5f9fb"/>
        <path id="path970" d="M15.519,4.8c.787-.076,1.353.41,2.317.621a11.692,11.692,0,0,0-1.467,1.295c-4.367,4.424.576,3.2-1.759,8.951s-5.035,1.454-4.982,7.552c-.053,6.1,2.647,1.8,4.982,7.552S12,35.3,16.369,39.72a11.692,11.692,0,0,0,1.467,1.295c-1.78.389-2.2,1.721-5.175-1.295-4.367-4.424.573-3.2-1.761-8.951s-5.035-1.454-4.982-7.552c-.053-6.1,2.647-1.8,4.982-7.552s-2.605-4.527,1.761-8.951c1.365-1.382,2.191-1.852,2.858-1.916Z" transform="translate(20.058 10.181)" fill="#809804"/>
        <path id="path7789" d="M7.686,13.228c5.074,2.144,2.258,4.433,5.854,4.97a11.666,11.666,0,0,1-1.962.121c-6.229-.053-1.866-2.667-7.6-5.09-.329-.139-.63-.247-.916-.341a4.3,4.3,0,0,1,2.044-.358,8.156,8.156,0,0,1,2.58.7Z" transform="translate(37.699 38.581)" fill="#809804"/>
        <path id="path7433" d="M-.794,11.386V29.94H1.68c3.711,0,11.133,8.659,14.843,8.659H46.21a3.711,3.711,0,1,0,0-7.422H30.847l-.13-.047a3.714,3.714,0,0,0,1.609-6.665L19.526,15.1c-5.6-4.1-9.188-3.711-20.32-3.711Z" transform="translate(19.349 34.381)" fill="#ffd1b5"/>
        <path id="path7569" d="M2.643,11.121c11.133,0,14.716-.392,20.32,3.711l12.8,9.369a3.7,3.7,0,0,1-1.152,6.547,3.693,3.693,0,0,0-1.044-4.783L20.767,16.6c-5.17-3.785-8.881-3.74-18.124-3.711Z" transform="translate(15.911 33.409)" fill="#f5f9fb"/>
        <path id="rect7437" d="M23.481,36.56H11.112V10.584H23.481Z" transform="translate(-9.875 31.472)" fill="#38668c"/>
        <path id="path7873" d="M13.594,10.584c0,16.08.256,23.656,8.915,25.976H11.377V10.584Z" transform="translate(-10.139 31.472)" fill="#2c5170"/>
        <path id="path7443" d="M13.586,10.584V36.56H11.112V10.584Z" transform="translate(0.02 31.472)" fill="#f5f9fb"/>
        <path id="path7457" d="M10.054,34.086H15v-23.5H10.054Z" transform="translate(3.553 31.472)" fill="#e4eff8"/>
        <path id="path7466" d="M10.583,34.086v-23.5h2.474v23.5Z" transform="translate(3.024 31.472)" fill="#c4dcf0"/>
        <path id="path7853" d="M6.916,9.526v6.586a2.064,2.064,0,0,1-2.063,2.073H2.381a2.064,2.064,0,0,0,2.063-2.073V9.526Z" transform="translate(47.507 27.583)" fill="#f5f9fb"/>
        <path id="path7857" d="M4.9,9.526c-.064,6.252,4.271,7.992,6.429,8.465a2.045,2.045,0,0,1-.862.193H4.7a2.062,2.062,0,0,1-2.061-2.073V9.526Z" transform="translate(41.89 27.583)" fill="#2c5170"/>
        <path id="path7342" d="M2.646,7.409,6.36,11.033l3.707-3.624" transform="translate(43.118 19.803)" fill="none" stroke="#333" stroke-linecap="round" stroke-linejoin="round" stroke-width="0.529"/>
        <path id="path7957" d="M8.219,30.672C8.219,25.966.79,24.729.79,16.018a12.386,12.386,0,0,1,24.771,0c0,8.711-7.429,9.948-7.429,14.654Z" transform="translate(36.302 6.191)" fill="#ffca28"/>
        <path id="path7959" d="M15.066,16.019c0,8.711-7.429,9.947-7.429,14.652H5.252c2.071-3.325,7.337-5.716,7.337-13.408A13.639,13.639,0,0,0,.79,3.859,12.8,12.8,0,0,1,2.682,3.7,12.389,12.389,0,0,1,15.066,16.019Z" transform="translate(46.796 6.191)" fill="#f5f9fb"/>
        <path id="path7961" d="M20.03,27.89a4.277,4.277,0,0,0-.394,1.768H9.724c0-4.706-7.429-5.941-7.429-14.652A12.525,12.525,0,0,1,9.166,3.98C4.989,20.66,14.643,26.153,20.03,27.89Z" transform="translate(34.797 7.203)" fill="#ecb200"/>
        <path id="path972" d="M.1,11.642c2.457,9.04,13.93,28.279,49.425,23.782a3.7,3.7,0,0,1-3.382,2.194H16.456c-3.711,0-11.133-8.659-14.843-8.659H-.724V11.642H.1Z" transform="translate(19.416 35.362)" fill="#ffb98d"/>
        <path id="path8298" d="M20.722,2.055a2.9,2.9,0,0,1,1.36,1.524,3.275,3.275,0,0,0,.522.959A4.268,4.268,0,0,0,24.312,5.6a4.288,4.288,0,0,0,1.971.42,3.332,3.332,0,0,0,1.051-.329,2.781,2.781,0,0,1,2.034-.145,6.265,6.265,0,0,1,2.447,1.7A6.263,6.263,0,0,1,33.57,9.653a2.816,2.816,0,0,1-.118,2.044,2.964,2.964,0,0,0-.312,1.041,4.219,4.219,0,0,0,.457,1.945,5.832,5.832,0,0,0,.348.674,4.155,4.155,0,0,1,1.341.268A5.151,5.151,0,0,0,36.541,16a13.555,13.555,0,0,1,22.011-.222,6.319,6.319,0,0,0,1.085-.365,3.845,3.845,0,0,1,1.679-.3,2.942,2.942,0,0,1,.684.126,7.7,7.7,0,0,1,2.969,2.073A7.671,7.671,0,0,1,67.1,20.235,3.518,3.518,0,0,1,66.97,22.6a4.417,4.417,0,0,0-.42,1.416,5.679,5.679,0,0,0,.6,2.621A5.763,5.763,0,0,0,68.629,28.9a5.093,5.093,0,0,0,1.343.73,3.652,3.652,0,0,1,1.79,1.645,8.506,8.506,0,0,1,.6,3.711,8.506,8.506,0,0,1-.6,3.711,3.652,3.652,0,0,1-1.79,1.645,5.093,5.093,0,0,0-1.343.73,5.763,5.763,0,0,0-1.479,2.264,5.679,5.679,0,0,0-.6,2.621,4.417,4.417,0,0,0,.42,1.416,3.518,3.518,0,0,1,.135,2.365,7.671,7.671,0,0,1-2.136,2.921A7.7,7.7,0,0,1,62,54.731a3.541,3.541,0,0,1-2.363-.174,4.432,4.432,0,0,0-1.416-.437,5.762,5.762,0,0,0-2.648.556A5.762,5.762,0,0,0,53.281,56.1a4.427,4.427,0,0,0-.713,1.3A3.514,3.514,0,0,1,51,59.169a4.173,4.173,0,0,1-.546.193l.1.072a4.947,4.947,0,0,1,1.372,6.472H63.708a4.949,4.949,0,1,1,0,9.9H34.014a8.1,8.1,0,0,1-4.027-1.541c-1.352-.86-2.761-1.969-4.153-3.051s-2.765-2.141-3.964-2.9a5.988,5.988,0,0,0-2.691-1.16H17.939V68.4A1.239,1.239,0,0,1,16.7,69.635H12.991a1.239,1.239,0,0,1-1.242,1.237H-.61a1.239,1.239,0,0,1-1.242-1.239v-26A1.239,1.239,0,0,1-.61,42.393H11.75a1.239,1.239,0,0,1,1.242,1.237H16.7a1.239,1.239,0,0,1,1.242,1.239v1.251a101.129,101.129,0,0,1,10.41.256,2.822,2.822,0,0,0,.169-.739A5.72,5.72,0,0,0,27.96,43a5.672,5.672,0,0,0-1.433-2.273,4.225,4.225,0,0,0-1.288-.693A3.5,3.5,0,0,1,23.45,38.5a4.112,4.112,0,0,1-.287-.734,2.86,2.86,0,0,0-.56.459,3.276,3.276,0,0,0-.522.959A2.89,2.89,0,0,1,20.722,40.7a6.327,6.327,0,0,1-2.952.466,6.3,6.3,0,0,1-2.94-.522A2.8,2.8,0,0,1,13.5,39.107a3.284,3.284,0,0,0-.51-.969A4.277,4.277,0,0,0,11.3,37.052a4.3,4.3,0,0,0-1.962-.457,3.306,3.306,0,0,0-1.051.312,3.088,3.088,0,0,1-2.037.118A6.283,6.283,0,0,1,3.83,35.281a6.277,6.277,0,0,1-1.718-2.438A3.1,3.1,0,0,1,2.267,30.8,3.236,3.236,0,0,0,2.6,29.765a4.243,4.243,0,0,0-.42-1.962,4.237,4.237,0,0,0-1.061-1.7,2.915,2.915,0,0,0-.949-.5,2.773,2.773,0,0,1-1.544-1.334,6.012,6.012,0,0,1-.476-2.889,6.038,6.038,0,0,1,.478-2.889A2.774,2.774,0,0,1,.17,17.157a2.915,2.915,0,0,0,.949-.5,4.242,4.242,0,0,0,1.058-1.7,4.243,4.243,0,0,0,.42-1.962,3.225,3.225,0,0,0-.329-1.032,3.1,3.1,0,0,1-.155-2.046A6.266,6.266,0,0,1,3.83,7.479,6.288,6.288,0,0,1,6.251,5.734a3.088,3.088,0,0,1,2.037.118,3.293,3.293,0,0,0,1.048.312A4.3,4.3,0,0,0,11.3,5.708a4.262,4.262,0,0,0,1.689-1.087,3.286,3.286,0,0,0,.512-.969,2.8,2.8,0,0,1,1.331-1.541,6.3,6.3,0,0,1,2.94-.522,6.318,6.318,0,0,1,2.95.466ZM15.984,4.3c-.136.071-.145.2-.21.309a5.427,5.427,0,0,1-.887,1.6,6.771,6.771,0,0,1-2.621,1.771,6.818,6.818,0,0,1-3.1.647,5.5,5.5,0,0,1-1.771-.474c-.323-.125-.228-.123-.374-.075A5.061,5.061,0,0,0,5.594,9.223a4.98,4.98,0,0,0-1.116,1.433c-.045.143-.049.048.082.367a5.486,5.486,0,0,1,.5,1.761,6.686,6.686,0,0,1-.592,3.095,6.753,6.753,0,0,1-1.735,2.648,5.355,5.355,0,0,1-1.609.9c-.322.136-.268.148-.3.193a4.688,4.688,0,0,0-.2,1.756,4.72,4.72,0,0,0,.2,1.756c.032.045-.022.057.3.193a5.355,5.355,0,0,1,1.609.9,6.753,6.753,0,0,1,1.735,2.648,6.686,6.686,0,0,1,.592,3.095,5.487,5.487,0,0,1-.5,1.761c-.131.319-.127.224-.082.367a4.98,4.98,0,0,0,1.116,1.433,5.062,5.062,0,0,0,1.423,1.143c.146.048.054.05.377-.075a5.5,5.5,0,0,1,1.771-.474,6.818,6.818,0,0,1,3.1.647,6.771,6.771,0,0,1,2.621,1.771,5.427,5.427,0,0,1,.887,1.6c.065.113.072.238.208.309a4.879,4.879,0,0,0,1.807.237,4.99,4.99,0,0,0,1.817-.2c.137-.069.141-.189.21-.309a5.519,5.519,0,0,1,.923-1.59,6.33,6.33,0,0,1,2.148-1.5c0-.04,0-.071,0-.111a7.4,7.4,0,0,1,.566-3.51,3.506,3.506,0,0,1,1.79-1.534,4.225,4.225,0,0,0,1.288-.693,5.672,5.672,0,0,0,1.433-2.273,5.72,5.72,0,0,0,.558-2.641,4.377,4.377,0,0,0-.437-1.406,3.522,3.522,0,0,1-.184-2.365,7.669,7.669,0,0,1,2.09-2.947,13.149,13.149,0,0,1,1.6-1.421c-.088-.178-.178-.344-.263-.544a6.707,6.707,0,0,1-.647-3.087,5.49,5.49,0,0,1,.474-1.771c.048-.181.122-.222.075-.365a5.007,5.007,0,0,0-1.143-1.416A4.993,4.993,0,0,0,28.639,7.9c-.147-.046-.246.043-.374.082a5.492,5.492,0,0,1-1.761.5,6.814,6.814,0,0,1-3.114-.594,6.755,6.755,0,0,1-2.648-1.725,5.52,5.52,0,0,1-.923-1.59c-.07-.12-.073-.241-.21-.309a4.993,4.993,0,0,0-1.817-.2,4.88,4.88,0,0,0-1.807.237Zm.345,8.064-1.592,1.6h3.206a7.418,7.418,0,1,1-7.424,7.412,1.237,1.237,0,1,1,2.474,0,4.948,4.948,0,1,0,4.95-4.938h-3.2l1.582,1.587a1.234,1.234,0,1,1-1.744,1.744L10.87,16.062a1.243,1.243,0,0,1,0-1.735l3.716-3.706a1.233,1.233,0,1,1,1.744,1.744ZM36.5,23.8a9.636,9.636,0,0,0,3.351,7.523,21.756,21.756,0,0,1,2.684,2.959,7.628,7.628,0,0,1,1.283,3.179h2.575V32.94L43.074,29.7a1.24,1.24,0,1,1,1.735-1.771l2.822,2.757,2.819-2.757A1.24,1.24,0,1,1,52.184,29.7l-3.322,3.249v4.51H51.44a7.625,7.625,0,0,1,1.28-3.179A21.757,21.757,0,0,1,55.4,31.321,9.636,9.636,0,0,0,58.756,23.8a11.13,11.13,0,0,0-22.26,0Zm11.13-8.605a8.668,8.668,0,0,1,6.482,2.921,1.237,1.237,0,1,1-1.853,1.636,6.182,6.182,0,0,0-4.629-2.082,1.237,1.237,0,1,1,0-2.474Zm13.355,2.363a2.645,2.645,0,0,0-.4.15c-.176.072-.427.177-.705.278A13.494,13.494,0,0,1,61.229,23.8a11.522,11.522,0,0,1-2.012,6.873q.009.023.017.046A12.378,12.378,0,0,1,53.7,45.749a3.7,3.7,0,0,1-2.37,2.619c0,.328,0,.645,0,1.464a3.7,3.7,0,1,1-7.407,0V48.368a3.689,3.689,0,0,1-2.365-2.614,12.372,12.372,0,0,1-5.52-15.08A11.524,11.524,0,0,1,34.022,23.8a13.461,13.461,0,0,1,1.23-5.537c-.365-.115-.658-.243-.872-.326-.426-.165-.421-.191-.693-.1a6.265,6.265,0,0,0-1.935,1.517,6.34,6.34,0,0,0-1.5,1.962c-.084.269-.055.256.118.676a6.665,6.665,0,0,1,.611,2.136,8.156,8.156,0,0,1-.73,3.771,8.2,8.2,0,0,1-2.109,3.223,6.516,6.516,0,0,1-1.945,1.1c-.423.179-.428.162-.548.394a5.941,5.941,0,0,0-.292,2.377,5.942,5.942,0,0,0,.292,2.377c.12.232.125.215.548.394a6.516,6.516,0,0,1,1.945,1.1,8.2,8.2,0,0,1,2.109,3.223,8.156,8.156,0,0,1,.73,3.771,5.151,5.151,0,0,1-.172.916,17.833,17.833,0,0,1,6.938,3.3l9.813,7.182a6.134,6.134,0,0,0,2.322-.29c.256-.128.237-.14.42-.556a6.667,6.667,0,0,1,1.114-1.928,8.242,8.242,0,0,1,3.232-2.1,8.254,8.254,0,0,1,3.788-.722,6.678,6.678,0,0,1,2.138.614c.423.172.42.194.693.109a6.309,6.309,0,0,0,1.964-1.488,6.275,6.275,0,0,0,1.524-1.928c.089-.268.064-.26-.1-.684a6.658,6.658,0,0,1-.575-2.145,8.171,8.171,0,0,1,.795-3.762,8.286,8.286,0,0,1,2.155-3.187,7.153,7.153,0,0,1,1.918-1.1c.408-.186.435-.17.585-.476a7.027,7.027,0,0,0,.355-2.624,7.027,7.027,0,0,0-.355-2.624c-.15-.306-.176-.29-.585-.476a7.152,7.152,0,0,1-1.918-1.1A8.286,8.286,0,0,1,64.877,27.6a8.171,8.171,0,0,1-.795-3.762,6.658,6.658,0,0,1,.575-2.145c.166-.423.191-.416.1-.684a6.275,6.275,0,0,0-1.524-1.928A6.309,6.309,0,0,0,61.27,17.6a.558.558,0,0,0-.29-.041Zm-5.931,5.02a1.237,1.237,0,1,1-1.237,1.237A1.237,1.237,0,0,1,55.05,22.576ZM57.3,32.925l-.138.14a21.287,21.287,0,0,0-2.4,2.621,4.859,4.859,0,0,0-.94,3H53.81v1.244c0,.854,0,1.8,0,2.769A9.865,9.865,0,0,0,57.3,32.925Zm-19.342,0a9.874,9.874,0,0,0,3.486,9.784V38.69h-.007a4.859,4.859,0,0,0-.94-3,21.287,21.287,0,0,0-2.4-2.621l-.138-.14Zm13.382,7.008H43.915v4.948a1.217,1.217,0,0,0,1.232,1.232H50.1a1.223,1.223,0,0,0,1.232-1.232c0-1.541,0-3.366,0-4.948ZM10.517,44.881H.622v23.5h9.9Zm4.948,1.237H12.991V67.146h2.474ZM48.853,48.59H46.393v1.242a1.23,1.23,0,1,0,2.459,0C48.853,49.059,48.853,48.819,48.853,48.59Zm-30.914,0v16.08h1.239A7.968,7.968,0,0,1,23.2,66.218c1.352.86,2.764,1.957,4.155,3.039s2.763,2.15,3.962,2.914a6.1,6.1,0,0,0,2.694,1.16H63.708a2.475,2.475,0,1,0,0-4.95H48.113a4.966,4.966,0,0,1-3.406-.962l-7.195-5.474a1.238,1.238,0,1,1,1.5-1.964l7.175,5.453a2.472,2.472,0,0,0,2.9-4l-12.8-9.369A15.314,15.314,0,0,0,28.765,48.9a88.941,88.941,0,0,0-10.826-.3ZM5.57,63.435a1.237,1.237,0,1,1-1.237,1.237A1.237,1.237,0,0,1,5.57,63.435Z" transform="translate(1.853 -1.588)" fill="#333"/>
      </g>
    </g>
  </g>
</svg>
