<svg xmlns="http://www.w3.org/2000/svg" xmlns:xlink="http://www.w3.org/1999/xlink" width="110" height="110" viewBox="0 0 110 110">
  <defs>
    <filter id="Path_982547" x="0" y="0" width="110" height="110" filterUnits="userSpaceOnUse">
      <feOffset dy="3" input="SourceAlpha"/>
      <feGaussianBlur stdDeviation="3" result="blur"/>
      <feFlood flood-opacity="0.161"/>
      <feComposite operator="in" in2="blur"/>
      <feComposite in="SourceGraphic"/>
    </filter>
  </defs>
  <g id="Group_1218568" data-name="Group 1218568" transform="translate(1045 -3156.715)">
    <g id="Group_1217954" data-name="Group 1217954">
      <g id="Group_1217659" data-name="Group 1217659" transform="translate(-2158 453.715)">
        <g id="Group_1185952" data-name="Group 1185952" transform="translate(-0.461 1749)">
          <g id="Group_1184115" data-name="Group 1184115" transform="translate(-33.519 -1471.333)">
            <g id="Group_1183744" data-name="Group 1183744" transform="translate(458.936 -388.667)">
              <g id="Group_1181546" data-name="Group 1181546" transform="translate(-4.696 -130.677)">
                <g id="Group_1177563" data-name="Group 1177563" transform="translate(0.279 -12113.323)">
                  <g id="Group_1173148" data-name="Group 1173148" transform="translate(701.461 15064)">
                    <g id="Group_1163803" data-name="Group 1163803" transform="translate(0 0)">
                      <g id="Group_1163015" data-name="Group 1163015">
                        <g id="Group_1157017" data-name="Group 1157017" transform="translate(0 0)">
                          <g id="Group_1155793" data-name="Group 1155793" transform="translate(0 0)">
                            <g id="Group_1154704" data-name="Group 1154704">
                              <g id="Group_1150790" data-name="Group 1150790">
                                <g id="Group_1154214" data-name="Group 1154214">
                                  <g id="Group_1152583" data-name="Group 1152583">
                                    <g id="Group_1146973" data-name="Group 1146973" transform="translate(0 0)">
                                      <g id="Group_1146954" data-name="Group 1146954">
                                        <g transform="matrix(1, 0, 0, 1, -9, -6)" filter="url(#Path_982547)">
                                          <g id="Path_982547-2" data-name="Path 982547" transform="translate(9 6)" fill="#f2f7e5">
                                            <path d="M 46.00000381469727 90.49988555908203 C 39.99188232421875 90.49988555908203 34.16427230834961 89.32352447509766 28.67905807495117 87.00347137451172 C 23.38020324707031 84.76226043701172 18.62103080749512 81.55342864990234 14.53375053405762 77.46615600585938 C 10.44645690917969 73.37887573242188 7.237643718719482 68.61971282958984 4.996417045593262 63.32085800170898 C 2.676363706588745 57.83565902709961 1.500003814697266 52.00806045532227 1.500003814697266 45.99993896484375 C 1.500003814697266 39.99181747436523 2.676363706588745 34.16421890258789 4.996417045593262 28.67901802062988 C 7.237643718719482 23.38017845153809 10.44645690917969 18.62101936340332 14.53375053405762 14.53373908996582 C 18.62103080749512 10.44645881652832 23.38020324707031 7.237632274627686 28.67905807495117 4.996418952941895 C 34.16427230834961 2.676365613937378 39.99188232421875 1.500005602836609 46.00000381469727 1.500005602836609 C 52.00812530517578 1.500005602836609 57.83573532104492 2.676365613937378 63.32094955444336 4.996418952941895 C 68.61980438232422 7.237632274627686 73.37896728515625 10.44645881652832 77.46625518798828 14.53373908996582 C 81.55353546142578 18.62101936340332 84.76236724853516 23.38017845153809 87.00359344482422 28.67901802062988 C 89.32364654541016 34.16421890258789 90.5 39.99181747436523 90.5 45.99993896484375 C 90.5 52.00806045532227 89.32364654541016 57.83565902709961 87.00359344482422 63.32085800170898 C 84.76236724853516 68.61971282958984 81.55353546142578 73.37887573242188 77.46625518798828 77.46615600585938 C 73.37896728515625 81.55342864990234 68.61980438232422 84.76226043701172 63.32094955444336 87.00347137451172 C 57.83573532104492 89.32352447509766 52.00812530517578 90.49988555908203 46.00000381469727 90.49988555908203 Z" stroke="none"/>
                                            <path d="M 46.00000381469727 2.999992370605469 C 40.19371795654297 2.999992370605469 34.56270217895508 4.136497497558594 29.26338958740234 6.377906799316406 C 24.14333343505859 8.543510437011719 19.54441833496094 11.64437866210938 15.59440612792969 15.59439849853516 C 11.64440155029297 19.54439544677734 8.54351806640625 24.14329528808594 6.377914428710938 29.26335144042969 C 4.136505126953125 34.56266784667969 3.000007629394531 40.19366836547852 3.000007629394531 45.99993896484375 C 3.000007629394531 51.80620956420898 4.136505126953125 57.43722534179688 6.377914428710938 62.73654174804688 C 8.54351806640625 67.85658264160156 11.64440155029297 72.45548248291016 15.59440612792969 76.40549468994141 C 19.54441833496094 80.35549926757812 24.14333343505859 83.45636749267578 29.26337432861328 85.62196350097656 C 34.56270217895508 87.86338043212891 40.19371795654297 88.9998779296875 46.00000381469727 88.9998779296875 C 51.80628967285156 88.9998779296875 57.43730545043945 87.86338043212891 62.73663330078125 85.62196350097656 C 67.85667419433594 83.45636749267578 72.45558929443359 80.35549926757812 76.40560150146484 76.40549468994141 C 80.35560607910156 72.45548248291016 83.45648956298828 67.85658264160156 85.62208557128906 62.73654174804688 C 87.86350250244141 57.43722534179688 89 51.80620956420898 89 45.99993896484375 C 89 40.19366836547852 87.86350250244141 34.56266784667969 85.62208557128906 29.26335144042969 C 83.45648956298828 24.14329528808594 80.35560607910156 19.54439544677734 76.40560150146484 15.59439849853516 C 72.45558929443359 11.64437866210938 67.85667419433594 8.543510437011719 62.73661804199219 6.377906799316406 C 57.43730545043945 4.136497497558594 51.80628967285156 2.999992370605469 46.00000381469727 2.999992370605469 M 46.00000381469727 -7.62939453125e-06 C 71.40510559082031 -7.62939453125e-06 92 20.59487915039062 92 45.99993896484375 C 92 71.40501403808594 71.40510559082031 91.99988555908203 46.00000381469727 91.99988555908203 C 20.59490203857422 91.99988555908203 7.62939453125e-06 71.40501403808594 7.62939453125e-06 45.99993896484375 C 7.62939453125e-06 20.59487915039062 20.59490203857422 -7.62939453125e-06 46.00000381469727 -7.62939453125e-06 Z" stroke="none" fill="#86b60c"/>
                                          </g>
                                        </g>
                                      </g>
                                    </g>
                                  </g>
                                </g>
                              </g>
                            </g>
                          </g>
                        </g>
                      </g>
                    </g>
                  </g>
                </g>
              </g>
            </g>
          </g>
        </g>
      </g>
      <g id="calendario" transform="translate(-1026.857 3182)">
        <g id="Group_1217952" data-name="Group 1217952" transform="translate(2.157 2.157)">
          <g id="Group_1217945" data-name="Group 1217945" transform="translate(12.342)">
            <path id="Path_1090230" data-name="Path 1090230" d="M12.67,15.88,16.522,2H65.1a2.32,2.32,0,0,1,2.313,2.313V46.868a16.129,16.129,0,0,0-4.627-4.939V15.88H12.67Z" transform="translate(-12.67 -2)" fill="#e6e9ed"/>
          </g>
          <g id="Group_1217946" data-name="Group 1217946" transform="translate(0 15.037)">
            <path id="Path_1090231" data-name="Path 1090231" d="M6.627,15V48.544H39.685a16.1,16.1,0,0,0-.671,4.627H4.313A2.32,2.32,0,0,1,2,50.857V19.627A4.625,4.625,0,0,1,6.627,15Z" transform="translate(-2 -15)" fill="#e6e9ed"/>
          </g>
          <g id="Group_1217947" data-name="Group 1217947" transform="translate(4.627 13.88)">
            <path id="Path_1090232" data-name="Path 1090232" d="M6,14H63.835V48.7H6Z" transform="translate(-6 -14)" fill="#ffeaa7"/>
          </g>
          <g id="Group_1217948" data-name="Group 1217948" transform="translate(18.507 4.627)">
            <path id="Path_1090233" data-name="Path 1090233" d="M18,6H61.954v4.627H18Z" transform="translate(-18 -6)" fill="#ff826e"/>
          </g>
          <g id="Group_1217949" data-name="Group 1217949">
            <path id="Path_1090234" data-name="Path 1090234" d="M2,19.35,18.194,2,14.342,15.88,12.41,22.82H11.254V21.664a4.627,4.627,0,0,0-9.254,0Z" transform="translate(-2 -2)" fill="#b4dd7f"/>
          </g>
          <g id="Group_1217950" data-name="Group 1217950" transform="translate(37.014 37.014)">
            <path id="Path_1090235" data-name="Path 1090235" d="M64.074,41.854a16.189,16.189,0,1,1-29.4,3.713h.012a15.681,15.681,0,0,1,1.631-3.713A16.215,16.215,0,0,1,47.88,34.162,16.887,16.887,0,0,1,50.194,34a16.251,16.251,0,0,1,13.88,7.854Z" transform="translate(-34 -34)" fill="#69d6f4"/>
          </g>
          <g id="Group_1217951" data-name="Group 1217951" transform="translate(50.894 50.894)">
            <path id="Path_1090236" data-name="Path 1090236" d="M49.944,49.944a2.262,2.262,0,0,1-1.631.682,2.313,2.313,0,1,1,2.313-2.313A2.262,2.262,0,0,1,49.944,49.944Z" transform="translate(-46 -46)" fill="#ff826e"/>
          </g>
        </g>
        <g id="Group_1217953" data-name="Group 1217953" transform="translate(1 1)">
          <path id="Path_1090237" data-name="Path 1090237" d="M51.94,49.1a3.465,3.465,0,0,0-2.313-3.257V41H47.313v4.84a3.462,3.462,0,0,0,1.157,6.727,3.413,3.413,0,0,0,1.486-.348L53.436,55.7l1.636-1.636-3.479-3.479A3.413,3.413,0,0,0,51.94,49.1Zm-4.627,0a1.157,1.157,0,1,1,1.157,1.157A1.157,1.157,0,0,1,47.313,49.1Z" transform="translate(5.894 5.268)"/>
          <ellipse id="Ellipse_14458" data-name="Ellipse 14458" cx="1.5" cy="1" rx="1.5" ry="1" transform="translate(53 42)"/>
          <path id="Path_1090238" data-name="Path 1090238" d="M40.339,40.339a1.157,1.157,0,1,0,1.636,0A1.155,1.155,0,0,0,40.339,40.339Z" transform="translate(5.111 5.111)"/>
          <ellipse id="Ellipse_14459" data-name="Ellipse 14459" cx="1" cy="1.5" rx="1" ry="1.5" transform="translate(42 53)"/>
          <path id="Path_1090239" data-name="Path 1090239" d="M40.339,54.339a1.157,1.157,0,1,0,1.636,0A1.155,1.155,0,0,0,40.339,54.339Z" transform="translate(5.111 7.305)"/>
          <ellipse id="Ellipse_14460" data-name="Ellipse 14460" cx="1.5" cy="1" rx="1.5" ry="1" transform="translate(53 65)"/>
          <path id="Path_1090240" data-name="Path 1090240" d="M54.339,54.339a1.157,1.157,0,1,0,1.636,0A1.155,1.155,0,0,0,54.339,54.339Z" transform="translate(7.305 7.305)"/>
          <ellipse id="Ellipse_14461" data-name="Ellipse 14461" cx="1" cy="1.5" rx="1" ry="1.5" transform="translate(65 53)"/>
          <path id="Path_1090241" data-name="Path 1090241" d="M54.339,40.339a1.157,1.157,0,1,0,1.636,0A1.155,1.155,0,0,0,54.339,40.339Z" transform="translate(7.305 5.111)"/>
          <path id="Path_1090242" data-name="Path 1090242" d="M63.268,11.94V5H17v6.94ZM19.313,7.313H60.954V9.627H19.313Z" transform="translate(1.507 -0.373)"/>
          <path id="Path_1090243" data-name="Path 1090243" d="M70.4,46.745V4.47A3.474,3.474,0,0,0,66.931,1H17.847L1,19.049v34a3.474,3.474,0,0,0,3.47,3.47h33.6A17.339,17.339,0,1,0,70.4,46.745ZM68.088,4.47V43.608a17.482,17.482,0,0,0-2.313-2.091V14.88H16.016L19.229,3.313h47.7A1.158,1.158,0,0,1,68.088,4.47ZM63.461,26.447H54.208V17.194h9.254Zm-11.567,0H42.641V17.194h9.254Zm0,11.567H42.641V28.761h9.254ZM7.94,28.761h9.254v9.254H7.94Zm11.567,0h9.254v9.254H19.507Zm11.567,0h9.254v9.254H31.074Zm9.254-2.313H31.074V17.194h9.254Zm-11.567,0H19.507V17.194h9.254Zm-11.567,0H7.94V18.563a3.465,3.465,0,0,1,2.313,3.257v2.313h3.192l1.928-6.94h1.819Zm-4.965-6.576a5.79,5.79,0,0,0-5.266-3.821L15.97,6.4ZM7.94,40.327h9.254v9.254H7.94Zm11.567,0h9.254v9.254H19.507Zm11.567,0h9.254v6.417a17.216,17.216,0,0,0-1.3,2.836H31.074Zm11.567,0h4.1a17.442,17.442,0,0,0-4.1,3.28ZM54.208,28.761h9.254V40.03a17.234,17.234,0,0,0-8.1-2.016c-.391,0-.773.034-1.157.059ZM3.313,53.051V21.82a3.465,3.465,0,0,1,2.313-3.257V51.894H38.363a17.3,17.3,0,0,0-.291,2.313H4.47a1.157,1.157,0,0,1-1.157-1.157ZM55.364,70.4A15.037,15.037,0,1,1,70.4,55.364,15.054,15.054,0,0,1,55.364,70.4Z" transform="translate(-1 -1)"/>
          <path id="Path_1090244" data-name="Path 1090244" d="M55.869,27.929l-1.636-1.636L50.424,30.1l-1.5-1.5-1.636,1.636,3.131,3.131Z" transform="translate(6.254 2.963)"/>
          <path id="Path_1090245" data-name="Path 1090245" d="M20.424,23.373l5.445-5.445-1.636-1.636L20.424,20.1l-1.5-1.5-1.636,1.636Z" transform="translate(1.553 1.396)"/>
          <path id="Path_1090246" data-name="Path 1090246" d="M35.869,37.929l-1.636-1.636L30.424,40.1l-1.5-1.5-1.636,1.636,3.131,3.131Z" transform="translate(3.12 4.53)"/>
        </g>
      </g>
    </g>
  </g>
</svg>
