<svg xmlns="http://www.w3.org/2000/svg" xmlns:xlink="http://www.w3.org/1999/xlink" width="108" height="108" viewBox="0 0 108 108">
  <defs>
    <filter id="Path_904820" x="0" y="0" width="108" height="108" filterUnits="userSpaceOnUse">
      <feOffset dy="3" input="SourceAlpha"/>
      <feGaussianBlur stdDeviation="3" result="blur"/>
      <feFlood flood-opacity="0.161"/>
      <feComposite operator="in" in2="blur"/>
      <feComposite in="SourceGraphic"/>
    </filter>
  </defs>
  <g id="Group_1215606" data-name="Group 1215606" transform="translate(-197 -4067.131)">
    <g id="Group_1214683" data-name="Group 1214683" transform="translate(0 35)">
      <g id="Group_1209015" data-name="Group 1209015" transform="translate(0 1366.077)">
        <g id="Group_1207774" data-name="Group 1207774" transform="translate(206 2670.713)">
          <g id="Group_1206630" data-name="Group 1206630" transform="translate(0 1.342)">
            <g id="Group_1185091" data-name="Group 1185091" transform="translate(0 0)">
              <g id="Group_1179560" data-name="Group 1179560">
                <g id="Group_1173787" data-name="Group 1173787" transform="translate(0)">
                  <g id="Group_1171910" data-name="Group 1171910">
                    <g id="Group_1167341" data-name="Group 1167341">
                      <g id="Group_1166792" data-name="Group 1166792">
                        <g transform="matrix(1, 0, 0, 1, -9, -6)" filter="url(#Path_904820)">
                          <g id="Path_904820-2" data-name="Path 904820" transform="translate(9 6)" fill="#fff4e6">
                            <path d="M 44.99999618530273 88.50006866455078 C 39.12687301635742 88.50006866455078 33.43022155761719 87.35014343261719 28.06829643249512 85.08222961425781 C 22.88852119445801 82.89136505126953 18.23629570007324 79.75465393066406 14.24084663391113 75.75919342041016 C 10.24540901184082 71.76374053955078 7.108683586120605 67.11151885986328 4.917821407318115 61.93174362182617 C 2.649921178817749 56.56980514526367 1.499996185302734 50.87315368652344 1.499996185302734 45.00003051757812 C 1.499996185302734 39.12690734863281 2.649921178817749 33.43025588989258 4.917821407318115 28.06831741333008 C 7.108683586120605 22.88854217529297 10.24540901184082 18.23631858825684 14.24084663391113 14.24086761474609 C 18.23629570007324 10.24541759490967 22.88852119445801 7.10869312286377 28.06829643249512 4.917842864990234 C 33.43022155761719 2.649930477142334 39.12687301635742 1.500005483627319 44.99999618530273 1.500005483627319 C 50.87311935424805 1.500005483627319 56.56977081298828 2.649930477142334 61.93169784545898 4.917842864990234 C 67.11147308349609 7.10869312286377 71.76369476318359 10.24541759490967 75.75914764404297 14.24086761474609 C 79.75458526611328 18.23631858825684 82.89131164550781 22.88854217529297 85.08216857910156 28.06831741333008 C 87.35007476806641 33.43025588989258 88.5 39.12690734863281 88.5 45.00003051757812 C 88.5 50.87315368652344 87.35007476806641 56.56980514526367 85.08216857910156 61.93174362182617 C 82.89131164550781 67.11151885986328 79.75458526611328 71.76374053955078 75.75914764404297 75.75919342041016 C 71.76369476318359 79.75465393066406 67.11147308349609 82.89136505126953 61.93169784545898 85.08222961425781 C 56.56977081298828 87.35014343261719 50.87311935424805 88.50006866455078 44.99999618530273 88.50006866455078 Z" stroke="none"/>
                            <path d="M 44.99999618530273 3 C 39.32870864868164 3 33.82865142822266 4.110061645507812 28.65262603759766 6.299346923828125 C 23.65165710449219 8.414573669433594 19.15968322753906 11.44334411621094 15.301513671875 15.30152893066406 C 11.44333648681641 19.15969848632812 8.414566040039062 23.65167236328125 6.299339294433594 28.65264511108398 C 4.110054016113281 33.82868576049805 2.999992370605469 39.32874298095703 2.999992370605469 45.00003051757812 C 2.999992370605469 50.67131805419922 4.110054016113281 56.1713752746582 6.299339294433594 61.34741592407227 C 8.414566040039062 66.348388671875 11.44333648681641 70.84036254882812 15.301513671875 74.69853210449219 C 19.15968322753906 78.55671691894531 23.65165710449219 81.58548736572266 28.65262603759766 83.70071411132812 C 33.82865142822266 85.88999938964844 39.32870864868164 87.00006103515625 44.99999618530273 87.00006103515625 C 50.67128372192383 87.00006103515625 56.17134094238281 85.88999938964844 61.34736633300781 83.70071411132812 C 66.34834289550781 81.58548736572266 70.84030914306641 78.55671691894531 74.69847869873047 74.69853210449219 C 78.55665588378906 70.84036254882812 81.58542633056641 66.348388671875 83.70065307617188 61.34741592407227 C 85.88993835449219 56.1713752746582 87 50.67131805419922 87 45.00003051757812 C 87 39.32874298095703 85.88993835449219 33.82868576049805 83.70065307617188 28.65264511108398 C 81.58542633056641 23.65167236328125 78.55665588378906 19.15969848632812 74.69847869873047 15.30152893066406 C 70.84030914306641 11.44334411621094 66.34834289550781 8.414573669433594 61.34736633300781 6.299346923828125 C 56.17134094238281 4.110061645507812 50.67128372192383 3 44.99999618530273 3 M 44.99999618530273 0 C 69.85281372070312 0 90 20.14720153808594 90 45.00003051757812 C 90 69.85285949707031 69.85281372070312 90.00006103515625 44.99999618530273 90.00006103515625 C 20.14717864990234 90.00006103515625 -7.62939453125e-06 69.85285949707031 -7.62939453125e-06 45.00003051757812 C -7.62939453125e-06 20.14720153808594 20.14717864990234 0 44.99999618530273 0 Z" stroke="none" fill="#ff9d1c"/>
                          </g>
                        </g>
                      </g>
                    </g>
                  </g>
                </g>
              </g>
            </g>
          </g>
        </g>
      </g>
      <g id="sistema" transform="translate(216.873 4048.97)">
        <path id="Path_1077669" data-name="Path 1077669" d="M64.887,39.611l-2.514-.824a1.07,1.07,0,0,1-.727-1.166,27.812,27.812,0,0,0,0-7.06,1.07,1.07,0,0,1,.727-1.166l2.514-.824a1.07,1.07,0,0,0,.685-1.348l-1.99-6.1a1.07,1.07,0,0,0-1.348-.7l-2.5.824a1.07,1.07,0,0,1-1.273-.513,27.449,27.449,0,0,0-4.15-5.723,1.07,1.07,0,0,1-.1-1.369l1.551-2.139a1.07,1.07,0,0,0-.235-1.5l-5.2-3.733a1.07,1.07,0,0,0-1.5.235L47.279,8.654a1.07,1.07,0,0,1-1.337.332,27.17,27.17,0,0,0-6.718-2.139,1.07,1.07,0,0,1-.888-1.07V3.07A1.07,1.07,0,0,0,37.267,2H30.849a1.07,1.07,0,0,0-1.07,1.07V5.712a1.07,1.07,0,0,1-.888,1.07,27.17,27.17,0,0,0-6.718,2.172,1.07,1.07,0,0,1-1.337-.332L19.285,6.482a1.07,1.07,0,0,0-1.5-.2L12.6,10.012a1.07,1.07,0,0,0-.235,1.5l1.551,2.139a1.07,1.07,0,0,1-.1,1.369,27.449,27.449,0,0,0-4.15,5.723,1.07,1.07,0,0,1-1.284.513l-2.514-.824a1.07,1.07,0,0,0-1.348.7l-1.99,6.1a1.07,1.07,0,0,0,.685,1.348l2.514.824a1.07,1.07,0,0,1,.727,1.166,27.813,27.813,0,0,0,0,7.06,1.07,1.07,0,0,1-.727,1.166l-2.514.824a1.07,1.07,0,0,0-.685,1.348l1.99,6.1a1.07,1.07,0,0,0,1.348.7l2.514-.824a1.07,1.07,0,0,1,1.273.513,27.449,27.449,0,0,0,4.15,5.723,1.07,1.07,0,0,1,.1,1.369l-1.551,2.139a1.07,1.07,0,0,0,.235,1.5l5.2,3.733a1.07,1.07,0,0,0,1.5-.235l1.551-2.139a1.07,1.07,0,0,1,1.337-.332,27.171,27.171,0,0,0,6.718,2.139,1.07,1.07,0,0,1,.888,1.07v2.706a1.07,1.07,0,0,0,1.07,1.07h6.418a1.07,1.07,0,0,0,1.07-1.07V62.471a1.07,1.07,0,0,1,.888-1.07,27.171,27.171,0,0,0,6.718-2.139,1.07,1.07,0,0,1,1.337.332l1.551,2.139a1.07,1.07,0,0,0,1.5.235L55.516,58.2a1.07,1.07,0,0,0,.235-1.5L54.2,54.565a1.07,1.07,0,0,1,.1-1.369,27.448,27.448,0,0,0,4.15-5.723,1.07,1.07,0,0,1,1.284-.546l2.514.824a1.07,1.07,0,0,0,1.348-.7l1.99-6.1a1.07,1.07,0,0,0-.7-1.348ZM34.058,55.485A21.394,21.394,0,1,1,55.452,34.091,21.394,21.394,0,0,1,34.058,55.485Z" transform="translate(0.069 0.07)" fill="#8ea0b3"/>
        <circle id="Ellipse_13461" data-name="Ellipse 13461" cx="3.209" cy="3.209" r="3.209" transform="translate(30.918 24.534)" fill="#ffc173"/>
        <path id="Path_1077670" data-name="Path 1077670" d="M27,40.7V34.279A4.279,4.279,0,0,1,31.279,30h2.139A4.279,4.279,0,0,1,37.7,34.279V40.7Z" transform="translate(1.778 2.022)" fill="#4992f2"/>
        <circle id="Ellipse_13462" data-name="Ellipse 13462" cx="2.674" cy="2.674" r="2.674" transform="translate(41.08 26.673)" fill="#ffc173"/>
        <path id="Path_1077671" data-name="Path 1077671" d="M37,39.558V34.209A3.209,3.209,0,0,1,40.209,31h2.139a3.209,3.209,0,0,1,3.209,3.209v5.349Z" transform="translate(2.475 2.091)" fill="#4183d9"/>
        <circle id="Ellipse_13463" data-name="Ellipse 13463" cx="2.674" cy="2.674" r="2.674" transform="translate(21.825 26.673)" fill="#ffc173"/>
        <path id="Path_1077672" data-name="Path 1077672" d="M19,39.558V34.209A3.209,3.209,0,0,1,22.209,31h2.139a3.209,3.209,0,0,1,3.209,3.209v5.349Z" transform="translate(1.221 2.091)" fill="#4183d9"/>
        <path id="Path_1077673" data-name="Path 1077673" d="M65.287,38.664l-2.514-.834a28.166,28.166,0,0,0,.235-3.669,28.454,28.454,0,0,0-.235-3.68l2.514-.824a2.139,2.139,0,0,0,1.369-2.7l-1.979-6.1a2.165,2.165,0,0,0-2.738-1.38l-2.482.77a28.476,28.476,0,0,0-4.279-5.948l1.551-2.139a2.139,2.139,0,0,0-.471-3L51.017,5.45a2.139,2.139,0,0,0-2.984.471L46.471,8.06a28.315,28.315,0,0,0-7-2.278V3.139A2.139,2.139,0,0,0,37.336,1H30.918a2.139,2.139,0,0,0-2.139,2.139V5.782A28.187,28.187,0,0,0,21.772,8.06L20.221,5.921a2.139,2.139,0,0,0-2.984-.471l-5.2,3.765a2.139,2.139,0,0,0-.471,3l1.54,2.139a28.593,28.593,0,0,0-4.279,5.958l-2.514-.824a2.139,2.139,0,0,0-2.7,1.38l-1.979,6.1a2.139,2.139,0,0,0,1.369,2.7l2.514.834a28.164,28.164,0,0,0-.278,3.669,28.454,28.454,0,0,0,.235,3.68l-2.514.824A2.139,2.139,0,0,0,1.6,41.36l1.979,6.1a2.165,2.165,0,0,0,2.738,1.38l2.482-.77a28.475,28.475,0,0,0,4.279,5.948l-1.551,2.139a2.139,2.139,0,0,0,.471,3l5.2,3.765a2.139,2.139,0,0,0,3.027-.513l1.562-2.139a28.315,28.315,0,0,0,7,2.278v2.642a2.139,2.139,0,0,0,2.139,2.139h6.418a2.139,2.139,0,0,0,2.139-2.139V62.54a28.187,28.187,0,0,0,7-2.278L48.022,62.4a2.139,2.139,0,0,0,2.984.471l5.2-3.765a2.139,2.139,0,0,0,.471-3l-1.54-2.139a28.593,28.593,0,0,0,4.279-5.958l2.525.824a2.139,2.139,0,0,0,2.7-1.38l1.979-6.1A2.139,2.139,0,0,0,65.287,38.664Zm-2.653,8.13-2.514-.813a2.139,2.139,0,0,0-2.535,1.07,27.053,27.053,0,0,1-4,5.509,2.139,2.139,0,0,0-.2,2.674l1.551,2.139-5.188,3.765L48.193,59a2.139,2.139,0,0,0-2.664-.663,26.261,26.261,0,0,1-6.418,2.139,2.139,2.139,0,0,0-1.754,2.139v2.567h-6.44V62.54A2.139,2.139,0,0,0,29.163,60.4a26.486,26.486,0,0,1-6.472-2.139,2.139,2.139,0,0,0-2.642.663l-1.562,2.139L13.3,57.374l1.551-2.139a2.139,2.139,0,0,0-.182-2.728,27.053,27.053,0,0,1-4-5.509,2.139,2.139,0,0,0-2.535-1.07l-2.514.824L3.629,40.7l2.514-.824A2.139,2.139,0,0,0,7.6,37.563a27.149,27.149,0,0,1,0-6.8,2.139,2.139,0,0,0-1.455-2.311l-2.514-.824,1.99-6.1,2.514.866a2.139,2.139,0,0,0,2.535-1.07,27.053,27.053,0,0,1,4-5.509,2.139,2.139,0,0,0,.2-2.728l-1.551-2.139,5.188-3.765L20.06,9.322a2.139,2.139,0,0,0,2.664.663,26.261,26.261,0,0,1,6.418-2.139A2.139,2.139,0,0,0,30.9,5.707V3.139h6.418V5.782a2.139,2.139,0,0,0,1.754,2.139,26.486,26.486,0,0,1,6.418,2.139A2.139,2.139,0,0,0,48.129,9.4l1.562-2.139,5.188,3.776-1.5,2.054a2.139,2.139,0,0,0,.182,2.728,27.053,27.053,0,0,1,4.022,5.509,2.139,2.139,0,0,0,2.535,1.07l2.514-.824,1.99,6.108L62.11,28.5a2.139,2.139,0,0,0-1.455,2.311,27.149,27.149,0,0,1,0,6.8,2.139,2.139,0,0,0,1.455,2.311l2.514.824Z" transform="translate(0 0)"/>
        <path id="Path_1077674" data-name="Path 1077674" d="M19.091,19.088A20.442,20.442,0,0,1,45.32,16.949H42.346v2.139h6.525a1.07,1.07,0,0,0,1.006-1.433l-2.225-6.14-2.011.738,1.07,3.091a22.464,22.464,0,0,0-32.5,29.77l1.829-1.07a20.324,20.324,0,0,1,3.049-24.956Z" transform="translate(0.659 0.696)"/>
        <path id="Path_1077675" data-name="Path 1077675" d="M50.452,22.222A20.324,20.324,0,0,1,21.3,49.265h2.963V47.125H17.74a1.07,1.07,0,0,0-1.006,1.444L18.959,54.7l2.011-.727-1.134-3.113A22.464,22.464,0,0,0,52.324,21.11Z" transform="translate(1.058 1.402)"/>
        <path id="Path_1077676" data-name="Path 1077676" d="M18,34.839v5.349a1.07,1.07,0,0,0,1.07,1.07h7.488a1.07,1.07,0,0,0,1.07,1.07h10.7a1.07,1.07,0,0,0,1.07-1.07h7.488a1.07,1.07,0,0,0,1.07-1.07V34.839a4.279,4.279,0,0,0-3-4.065,3.744,3.744,0,1,0-4.707,0,4.279,4.279,0,0,0-1.776,1.07A5.349,5.349,0,0,0,35.5,29.7a4.279,4.279,0,1,0-5.049,0,5.349,5.349,0,0,0-2.974,2.139,4.279,4.279,0,0,0-1.776-1.07,3.744,3.744,0,1,0-4.707,0A4.279,4.279,0,0,0,18,34.839Zm24.6-8.558a1.6,1.6,0,1,1-1.6,1.6A1.6,1.6,0,0,1,42.6,26.281Zm-3.209,8.558A2.139,2.139,0,0,1,41.534,32.7h2.139a2.139,2.139,0,0,1,2.139,2.139v4.279H39.394Zm-6.418-10.7a2.139,2.139,0,1,1-2.139,2.139A2.139,2.139,0,0,1,32.976,24.141ZM28.7,34.839a3.209,3.209,0,0,1,3.209-3.209h2.139a3.209,3.209,0,0,1,3.209,3.209v5.349H28.7Zm-5.349-8.558a1.6,1.6,0,1,1-1.6,1.6A1.6,1.6,0,0,1,23.349,26.281Zm-3.209,8.558A2.139,2.139,0,0,1,22.279,32.7h2.139a2.139,2.139,0,0,1,2.139,2.139v4.279H20.139Z" transform="translate(1.151 1.462)"/>
      </g>
    </g>
  </g>
</svg>
