<svg xmlns="http://www.w3.org/2000/svg" xmlns:xlink="http://www.w3.org/1999/xlink" width="113" height="113" viewBox="0 0 113 113">
  <defs>
    <filter id="Path_982547" x="0" y="0" width="113" height="113" filterUnits="userSpaceOnUse">
      <feOffset dy="3" input="SourceAlpha"/>
      <feGaussianBlur stdDeviation="3" result="blur"/>
      <feFlood flood-opacity="0.161"/>
      <feComposite operator="in" in2="blur"/>
      <feComposite in="SourceGraphic"/>
    </filter>
  </defs>
  <g id="Group_1215544" data-name="Group 1215544" transform="translate(-158 -2648)">
    <g id="Group_1214515" data-name="Group 1214515" transform="translate(0 7)">
      <g id="Group_1214373" data-name="Group 1214373" transform="translate(3.458 -4474.674)">
        <g id="Group_1207777" data-name="Group 1207777" transform="translate(163.542 7121.674)">
          <g id="Group_1200358" data-name="Group 1200358">
            <g id="Group_1185978" data-name="Group 1185978">
              <g id="Group_1180760" data-name="Group 1180760">
                <g id="Group_1174888" data-name="Group 1174888">
                  <g id="Group_1166845" data-name="Group 1166845">
                    <g id="Group_1166720" data-name="Group 1166720">
                      <g id="Group_1164305" data-name="Group 1164305">
                        <g id="Group_1163948" data-name="Group 1163948">
                          <g id="Group_1158168" data-name="Group 1158168">
                            <g id="Group_1152576" data-name="Group 1152576">
                              <g id="Group_1148633" data-name="Group 1148633">
                                <g id="Group_1148525" data-name="Group 1148525">
                                  <g transform="matrix(1, 0, 0, 1, -9, -6)" filter="url(#Path_982547)">
                                    <g id="Path_982547-2" data-name="Path 982547" transform="translate(9 6)" fill="#f2f7e5">
                                      <path d="M 47.5 93.5 C 41.28937149047852 93.5 35.26533508300781 92.28397369384766 29.59518623352051 89.88570404052734 C 24.11771965026855 87.56893157958984 19.19813346862793 84.25196075439453 14.97309303283691 80.02691650390625 C 10.74804019927979 75.80186462402344 7.431066513061523 70.88229370117188 5.114293098449707 65.40481567382812 C 2.716026782989502 59.73468017578125 1.5 53.71062850952148 1.5 47.5 C 1.5 41.28937149047852 2.716026782989502 35.26533508300781 5.114293098449707 29.59518623352051 C 7.431066513061523 24.11771965026855 10.74804019927979 19.19813346862793 14.97309303283691 14.97309303283691 C 19.19813346862793 10.74804019927979 24.11771965026855 7.431066513061523 29.59518623352051 5.114293098449707 C 35.26533508300781 2.716026782989502 41.28937149047852 1.5 47.5 1.5 C 53.71062850952148 1.5 59.73468017578125 2.716026782989502 65.40481567382812 5.114293098449707 C 70.88229370117188 7.431066513061523 75.80186462402344 10.74804019927979 80.02691650390625 14.97309303283691 C 84.25196075439453 19.19813346862793 87.56893157958984 24.11771965026855 89.88570404052734 29.59518623352051 C 92.28397369384766 35.26533508300781 93.5 41.28937149047852 93.5 47.5 C 93.5 53.71062850952148 92.28397369384766 59.73468017578125 89.88570404052734 65.40481567382812 C 87.56893157958984 70.88229370117188 84.25196075439453 75.80186462402344 80.02691650390625 80.02691650390625 C 75.80186462402344 84.25196075439453 70.88229370117188 87.56893157958984 65.40481567382812 89.88570404052734 C 59.73468017578125 92.28397369384766 53.71062850952148 93.5 47.5 93.5 Z" stroke="none"/>
                                      <path d="M 47.5 3 C 41.49121475219727 3 35.66376876831055 4.176155090332031 30.17950439453125 6.495796203613281 C 24.88084411621094 8.736953735351562 20.12152099609375 11.94598388671875 16.03375244140625 16.03375244140625 C 11.94598388671875 20.12152099609375 8.736953735351562 24.88084411621094 6.495796203613281 30.17950439453125 C 4.176155090332031 35.66376876831055 3 41.49121475219727 3 47.5 C 3 53.50878524780273 4.176155090332031 59.33623123168945 6.495796203613281 64.82049560546875 C 8.736953735351562 70.11915588378906 11.94598388671875 74.87847900390625 16.03375244140625 78.96624755859375 C 20.12152099609375 83.05401611328125 24.88084411621094 86.26304626464844 30.17950439453125 88.50419616699219 C 35.66376876831055 90.82384490966797 41.49121475219727 92 47.5 92 C 53.50878524780273 92 59.33623123168945 90.82384490966797 64.82049560546875 88.50419616699219 C 70.11915588378906 86.26304626464844 74.87847900390625 83.05401611328125 78.96624755859375 78.96624755859375 C 83.05401611328125 74.87847900390625 86.26304626464844 70.11915588378906 88.50419616699219 64.82049560546875 C 90.82384490966797 59.33623123168945 92 53.50878524780273 92 47.5 C 92 41.49121475219727 90.82384490966797 35.66376876831055 88.50419616699219 30.17950439453125 C 86.26304626464844 24.88084411621094 83.05401611328125 20.12152099609375 78.96624755859375 16.03375244140625 C 74.87847900390625 11.94598388671875 70.11915588378906 8.736953735351562 64.82049560546875 6.495796203613281 C 59.33623123168945 4.176155090332031 53.50878524780273 3 47.5 3 M 47.5 0 C 73.7335205078125 0 95 21.2664794921875 95 47.5 C 95 73.7335205078125 73.7335205078125 95 47.5 95 C 21.2664794921875 95 0 73.7335205078125 0 47.5 C 0 21.2664794921875 21.2664794921875 0 47.5 0 Z" stroke="none" fill="#496406"/>
                                    </g>
                                  </g>
                                </g>
                              </g>
                            </g>
                          </g>
                        </g>
                      </g>
                    </g>
                  </g>
                </g>
              </g>
            </g>
          </g>
        </g>
      </g>
      <g id="charla" transform="translate(182 2662.001)">
        <path id="Path_1077143" data-name="Path 1077143" d="M24.015,21.853A10.058,10.058,0,0,0,31.835,10H58.154a4.018,4.018,0,0,1,4.018,4.018V30.091a4.018,4.018,0,0,1-4.018,4.018h-1v8.036L47.1,34.109H28.018A4.018,4.018,0,0,1,24,30.091V21.853Z" transform="translate(0.104 0.041)" fill="#c0dafc"/>
        <path id="Path_1077144" data-name="Path 1077144" d="M24.015,21.835H24v8.237a4.018,4.018,0,0,0,4.018,4.018H47.1l10.045,8.036V34.091H57.2V14H31.827a10.052,10.052,0,0,1-7.812,7.835Z" transform="translate(0.104 0.059)" fill="#d7ecff"/>
        <path id="Path_1077145" data-name="Path 1077145" d="M41.757,34.036H28.118A4.018,4.018,0,0,1,24.1,30.018v-4c-.332-.011-.668-.017-1-.017C11.443,26,2,32.746,2,41.068,2,47.357,7.394,52.747,15.059,55v7.159l10.173-6.1h.02C35.89,55.286,44.19,48.87,44.19,41.068A11.753,11.753,0,0,0,41.757,34.036Z" transform="translate(0.005 0.113)" fill="#78a0d4"/>
        <circle id="Ellipse_13427" data-name="Ellipse 13427" cx="10.045" cy="10.045" r="10.045" transform="translate(12.05 2.005)" fill="#f0ae42"/>
        <path id="Path_1077146" data-name="Path 1077146" d="M20.8,12.046l-.772-3.859A1.871,1.871,0,0,1,20,7.828,1.828,1.828,0,0,1,21.828,6h.362a1.828,1.828,0,0,1,1.828,1.828,1.87,1.87,0,0,1-.035.359l-.768,3.859a1.23,1.23,0,0,1-2.411,0Z" transform="translate(0.086 0.023)" fill="#fce797"/>
        <circle id="Ellipse_13428" data-name="Ellipse 13428" cx="2.009" cy="2.009" r="2.009" transform="translate(20.086 15.063)" fill="#fce797"/>
        <g id="Group_1214513" data-name="Group 1214513" transform="translate(33.145 22.095)">
          <circle id="Ellipse_13429" data-name="Ellipse 13429" cx="2.009" cy="2.009" r="2.009" fill="#78a0d4"/>
          <circle id="Ellipse_13430" data-name="Ellipse 13430" cx="2.009" cy="2.009" r="2.009" transform="translate(8.036)" fill="#78a0d4"/>
          <circle id="Ellipse_13431" data-name="Ellipse 13431" cx="2.009" cy="2.009" r="2.009" transform="translate(16.072)" fill="#78a0d4"/>
        </g>
        <g id="Group_1214514" data-name="Group 1214514" transform="translate(13.054 41.181)">
          <path id="Path_1077147" data-name="Path 1077147" d="M15.009,45.018a2.009,2.009,0,1,1,2.009-2.009A2.009,2.009,0,0,1,15.009,45.018Z" transform="translate(-13 -41)" fill="#c0dafc"/>
          <path id="Path_1077148" data-name="Path 1077148" d="M23.009,45.018a2.009,2.009,0,1,1,2.009-2.009A2.009,2.009,0,0,1,23.009,45.018Z" transform="translate(-12.964 -41)" fill="#c0dafc"/>
          <path id="Path_1077149" data-name="Path 1077149" d="M31.009,45.018a2.009,2.009,0,1,1,2.009-2.009A2.009,2.009,0,0,1,31.009,45.018Z" transform="translate(-12.928 -41)" fill="#c0dafc"/>
        </g>
        <path id="Path_1077150" data-name="Path 1077150" d="M58.258,9.036H32.717A11.05,11.05,0,1,0,22.1,23.1c.34,0,.673-.021,1-.051v2.06C10.914,25.109,1,32.319,1,41.181c0,6.395,5.1,12.094,13.059,14.676v6.419a1,1,0,0,0,1.522.861l9.967-5.984C36.761,56.263,45.2,49.418,45.2,41.181a12.444,12.444,0,0,0-1.607-6.027h3.264l9.77,7.816a1,1,0,0,0,1.632-.785V35.154a5.029,5.029,0,0,0,5.023-5.023V14.059a5.029,5.029,0,0,0-5.023-5.023Zm-45.2,3.014A9.041,9.041,0,1,1,22.1,21.091a9.041,9.041,0,0,1-9.041-9.041ZM43.19,41.181c0,7.233-7.741,13.244-18,13.988a1,1,0,0,0-.469.142L16.068,60.5V55.117a1,1,0,0,0-.721-.963c-7.495-2.207-12.338-7.3-12.338-12.972,0-7.755,9.013-14.063,20.091-14.063v3.014a5.029,5.029,0,0,0,5.023,5.023H41.234a10.558,10.558,0,0,1,1.956,6.027Zm18.081-11.05a3.014,3.014,0,0,1-3.014,3.014h-1a1,1,0,0,0-1,1V40.1l-8.413-6.73a1,1,0,0,0-.628-.22H28.122a3.014,3.014,0,0,1-3.014-3.014v-7.46A11.063,11.063,0,0,0,33.145,12.05c0-.34-.021-.673-.051-1H58.258a3.014,3.014,0,0,1,3.014,3.014Z"/>
        <path id="Path_1077151" data-name="Path 1077151" d="M22.2,5h-.364A2.836,2.836,0,0,0,19,7.833a2.878,2.878,0,0,0,.055.556l.771,3.86a2.23,2.23,0,0,0,4.374,0l.771-3.861A2.831,2.831,0,0,0,22.2,5ZM23,7.993l-.771,3.86a.23.23,0,0,1-.434,0l-.771-3.859a.8.8,0,0,1-.013-.162.824.824,0,0,1,.823-.824H22.2a.824.824,0,0,1,.823.824A.778.778,0,0,1,23,7.993Z" transform="translate(0.081 0.018)"/>
        <circle id="Ellipse_13432" data-name="Ellipse 13432" cx="2.009" cy="2.009" r="2.009" transform="translate(20.086 15.063)"/>
        <circle id="Ellipse_13433" data-name="Ellipse 13433" cx="2.009" cy="2.009" r="2.009" transform="translate(33.145 22.095)"/>
        <circle id="Ellipse_13434" data-name="Ellipse 13434" cx="2.009" cy="2.009" r="2.009" transform="translate(41.181 22.095)"/>
        <circle id="Ellipse_13435" data-name="Ellipse 13435" cx="2.009" cy="2.009" r="2.009" transform="translate(49.217 22.095)"/>
        <circle id="Ellipse_13436" data-name="Ellipse 13436" cx="2.009" cy="2.009" r="2.009" transform="translate(13.054 41.181)"/>
        <circle id="Ellipse_13437" data-name="Ellipse 13437" cx="2.009" cy="2.009" r="2.009" transform="translate(21.091 41.181)"/>
        <circle id="Ellipse_13438" data-name="Ellipse 13438" cx="2.009" cy="2.009" r="2.009" transform="translate(29.127 41.181)"/>
      </g>
    </g>
  </g>
</svg>
