<svg xmlns="http://www.w3.org/2000/svg" xmlns:xlink="http://www.w3.org/1999/xlink" width="93.934" height="93.934" viewBox="0 0 93.934 93.934">
  <defs>
    <filter id="Path_982547" x="0" y="0" width="93.934" height="93.934" filterUnits="userSpaceOnUse">
      <feOffset dy="3" input="SourceAlpha"/>
      <feGaussianBlur stdDeviation="3" result="blur"/>
      <feFlood flood-opacity="0.161"/>
      <feComposite operator="in" in2="blur"/>
      <feComposite in="SourceGraphic"/>
    </filter>
  </defs>
  <g id="Group_1215558" data-name="Group 1215558" transform="translate(-615.5 -6056.533)">
    <g id="Group_1214526" data-name="Group 1214526" transform="translate(0 60)">
      <g id="Group_1214401" data-name="Group 1214401" transform="translate(6.5 5099.669)">
        <g id="Group_1206326" data-name="Group 1206326" transform="translate(420 -3717.169)">
          <g id="Group_1183815" data-name="Group 1183815" transform="translate(0 4267.973)">
            <g id="Group_1181939" data-name="Group 1181939" transform="translate(0 -388.939)">
              <g id="Group_1175133" data-name="Group 1175133" transform="translate(-0.033 -1251)">
                <g id="Group_1167337" data-name="Group 1167337" transform="translate(198.033 1992)">
                  <g id="Group_1166720" data-name="Group 1166720">
                    <g id="Group_1164305" data-name="Group 1164305">
                      <g id="Group_1163948" data-name="Group 1163948">
                        <g id="Group_1158168" data-name="Group 1158168">
                          <g id="Group_1152576" data-name="Group 1152576">
                            <g id="Group_1148633" data-name="Group 1148633">
                              <g id="Group_1148525" data-name="Group 1148525">
                                <g transform="matrix(1, 0, 0, 1, -9, -6)" filter="url(#Path_982547)">
                                  <g id="Path_982547-2" data-name="Path 982547" transform="translate(9 6)" fill="#f2f7e5">
                                    <path d="M 37.966796875 74.43359375 C 33.04315185546875 74.43359375 28.26757431030273 73.46962738037109 23.77274131774902 71.56847381591797 C 19.43047523498535 69.73184967041016 15.53040790557861 67.10224914550781 12.18087482452393 63.75271987915039 C 8.831341743469238 60.4031867980957 6.201741218566895 56.50312042236328 4.365118980407715 52.16086196899414 C 2.463963508605957 47.66601943969727 1.499996900558472 42.89044189453125 1.499996900558472 37.966796875 C 1.499996900558472 33.04315185546875 2.463963508605957 28.26757431030273 4.365118980407715 23.77274131774902 C 6.201741218566895 19.43047523498535 8.831341743469238 15.53040790557861 12.18087482452393 12.18087482452393 C 15.53040790557861 8.831341743469238 19.43047523498535 6.201741218566895 23.77274131774902 4.365118980407715 C 28.26757431030273 2.463963508605957 33.04315185546875 1.499996900558472 37.966796875 1.499996900558472 C 42.89044189453125 1.499996900558472 47.66601943969727 2.463963508605957 52.16086196899414 4.365118980407715 C 56.50312042236328 6.201741218566895 60.4031867980957 8.831341743469238 63.75271987915039 12.18087482452393 C 67.10224914550781 15.53040790557861 69.73184967041016 19.43047523498535 71.56847381591797 23.77274131774902 C 73.46962738037109 28.26757431030273 74.43359375 33.04315185546875 74.43359375 37.966796875 C 74.43359375 42.89044189453125 73.46962738037109 47.66601943969727 71.56847381591797 52.16086196899414 C 69.73184967041016 56.50313186645508 67.10224914550781 60.4031867980957 63.75271987915039 63.75271987915039 C 60.4031867980957 67.10224914550781 56.50313186645508 69.73184967041016 52.16086196899414 71.56847381591797 C 47.66601943969727 73.46962738037109 42.89044189453125 74.43359375 37.966796875 74.43359375 Z" stroke="none"/>
                                    <path d="M 37.966796875 3 C 33.2449836730957 3 28.66600799560547 3.924095153808594 24.35705947875977 5.746635437011719 C 20.19359588623047 7.507637023925781 16.45379638671875 10.02928161621094 13.24153518676758 13.24153518676758 C 10.02927398681641 16.45379638671875 7.507621765136719 20.19359588623047 5.746635437011719 24.35705947875977 C 3.924095153808594 28.66600799560547 3 33.2449836730957 3 37.966796875 C 3 42.6886100769043 3.924095153808594 47.26758575439453 5.746635437011719 51.57653427124023 C 7.507621765136719 55.73999786376953 10.02927398681641 59.47979736328125 13.24153518676758 62.69205856323242 C 16.45379638671875 65.90431976318359 20.19359588623047 68.42597198486328 24.35705947875977 70.18695831298828 C 28.66600799560547 72.00949859619141 33.2449836730957 72.93359375 37.966796875 72.93359375 C 42.6886100769043 72.93359375 47.26758575439453 72.00949859619141 51.57653427124023 70.18695831298828 C 55.73999786376953 68.42597198486328 59.47979736328125 65.90431976318359 62.69205856323242 62.69205856323242 C 65.90431976318359 59.47979736328125 68.42597198486328 55.73999786376953 70.18695831298828 51.57653427124023 C 72.00949859619141 47.26758575439453 72.93359375 42.6886100769043 72.93359375 37.966796875 C 72.93359375 33.2449836730957 72.00949859619141 28.66600799560547 70.18695831298828 24.35705947875977 C 68.42597198486328 20.19359588623047 65.90431976318359 16.45379638671875 62.69205856323242 13.24153518676758 C 59.47979736328125 10.02928161621094 55.73999786376953 7.507637023925781 51.57653427124023 5.746635437011719 C 47.26758575439453 3.924095153808594 42.6886100769043 3 37.966796875 3 M 37.966796875 0 C 58.93528366088867 0 75.93359375 16.99832153320312 75.93359375 37.966796875 C 75.93359375 58.93528366088867 58.93528366088867 75.93359375 37.966796875 75.93359375 C 16.99831008911133 75.93359375 0 58.93528366088867 0 37.966796875 C 0 16.99832153320312 16.99831008911133 0 37.966796875 0 Z" stroke="none" fill="#86b60c"/>
                                  </g>
                                </g>
                              </g>
                            </g>
                          </g>
                        </g>
                      </g>
                    </g>
                  </g>
                </g>
              </g>
            </g>
          </g>
        </g>
      </g>
      <g id="escucha-activa" transform="translate(628.576 6014.424)">
        <g id="Group_1214524" data-name="Group 1214524" transform="translate(7.188 0.795)">
          <path id="Path_1077249" data-name="Path 1077249" d="M76.732,60.859l.6,3H74.821a2.813,2.813,0,0,0-2.86,2.966v7.419h24.6V67.17a5.664,5.664,0,0,0-5.713-5.819H85.705a13.676,13.676,0,0,1-6.973-1.911A1.343,1.343,0,0,0,76.732,60.859Z" transform="translate(-65.788 -53.753)" fill="#dc8758"/>
          <path id="Path_1077250" data-name="Path 1077250" d="M231.425,84.859V91.93h-2.872V84.859a5.664,5.664,0,0,0-5.713-5.819h2.872A5.664,5.664,0,0,1,231.425,84.859Z" transform="translate(-200.648 -71.442)" fill="#d77f4a"/>
          <path id="Path_1077251" data-name="Path 1077251" d="M58.694,194.023,50.573,184l-3.509-4.33-1.416-5.188a1.878,1.878,0,0,0-2.144-1.353,1.96,1.96,0,0,0-1.591,1.945V180.4a3.6,3.6,0,0,0,.659,2.075l2.906,4.456,3.963,6.565H20.388a6.5,6.5,0,0,0-6.5,6.5v6.325a1.985,1.985,0,0,0,1.985,1.985H40.934a1.985,1.985,0,0,0,1.985-1.985v-3.7l12.392-1.871a4.608,4.608,0,0,0,3.383-6.718Z" transform="translate(-13.891 -155.514)" fill="#fceba4"/>
          <g id="Group_1214521" data-name="Group 1214521" transform="translate(24.171 17.588)">
            <path id="Path_1077252" data-name="Path 1077252" d="M243.457,452.023v2.624a1.985,1.985,0,0,1-1.985,1.985h2.872a1.985,1.985,0,0,0,1.985-1.985v-3.7h-1.793A1.079,1.079,0,0,0,243.457,452.023Z" transform="translate(-241.472 -421.435)" fill="#ffe177"/>
            <path id="Path_1077253" data-name="Path 1077253" d="M298.6,194.023,290.474,184l-3.509-4.33-1.416-5.188a1.882,1.882,0,0,0-3.25-.717,1.874,1.874,0,0,1,.378.717l1.416,5.188,11.63,14.35a4.61,4.61,0,0,1-.576,5.167,10.388,10.388,0,0,1-1.821,1.836l1.887-.285a4.609,4.609,0,0,0,3.383-6.718Z" transform="translate(-277.963 -173.102)" fill="#ffe177"/>
          </g>
          <path id="Path_1077254" data-name="Path 1077254" d="M286.4,184l-5.095,2.924-2.906-4.456a3.6,3.6,0,0,1-.659-2.075v-5.37a1.924,1.924,0,0,1,1.924-1.924,1.876,1.876,0,0,1,1.811,1.382l1.416,5.188Z" transform="translate(-249.714 -155.514)" fill="#ffcebf"/>
          <path id="Path_1077255" data-name="Path 1077255" d="M282.62,174.484l1.416,5.188,4.421,5.455,1.96-1.125-3.509-4.331-1.416-5.188a1.876,1.876,0,0,0-1.811-1.382,1.918,1.918,0,0,0-1.446.658A1.873,1.873,0,0,1,282.62,174.484Z" transform="translate(-253.735 -155.514)" fill="#ffb09e"/>
          <g id="Group_1214522" data-name="Group 1214522" transform="translate(5.039 16.049)">
            <path id="Path_1077256" data-name="Path 1077256" d="M97.946,163.052v6.664a6.947,6.947,0,0,0,5.917,6.827v4h7.261v-4a6.946,6.946,0,0,0,5.917-6.827v-6.761a4.342,4.342,0,0,0-4.342-4.342H101.662A5.044,5.044,0,0,1,97.946,163.052Z" transform="translate(-94.058 -158.613)" fill="#ffcebf"/>
            <path id="Path_1077257" data-name="Path 1077257" d="M203.77,162.953v6.761a6.946,6.946,0,0,1-5.917,6.827v4H194.98v-3a1.267,1.267,0,0,1,.894-1.215,6.882,6.882,0,0,0,5.024-6.612v-6.761a4.343,4.343,0,0,0-4.343-4.343h2.872A4.343,4.343,0,0,1,203.77,162.953Z" transform="translate(-180.786 -158.61)" fill="#ffb09e"/>
            <path id="Path_1077258" data-name="Path 1077258" d="M65.222,204.724h-2.7a1.192,1.192,0,0,1-1.192-1.192V201.6a1.192,1.192,0,0,1,1.192-1.192h2.7Z" transform="translate(-61.334 -195.971)" fill="#ffb09e"/>
            <path id="Path_1077259" data-name="Path 1077259" d="M277.739,204.724h2.7a1.192,1.192,0,0,0,1.192-1.192V201.6a1.192,1.192,0,0,0-1.192-1.192h-2.7Z" transform="translate(-254.755 -195.971)" fill="#ffa08a"/>
          </g>
          <g id="Group_1214523" data-name="Group 1214523" transform="translate(26.376)">
            <path id="Path_1077260" data-name="Path 1077260" d="M272.2,12.485a4.985,4.985,0,1,0-8.762,3.252,4.278,4.278,0,0,1,1.068,2.787v.018h5.418v-.018A4.275,4.275,0,0,1,271,15.737,4.963,4.963,0,0,0,272.2,12.485Z" transform="translate(-262.235 -7.5)" fill="#fceba4"/>
            <path id="Path_1077261" data-name="Path 1077261" d="M302.124,12.483a4.961,4.961,0,0,1-1.208,3.252,4.272,4.272,0,0,0-1.067,2.786v.018h-2.873v-.018a4.277,4.277,0,0,1,1.067-2.786A4.984,4.984,0,0,0,295.71,7.71a4.875,4.875,0,0,1,1.477-.212A4.984,4.984,0,0,1,302.124,12.483Z" transform="translate(-292.155 -7.497)" fill="#ffe177"/>
            <path id="Path_1077262" data-name="Path 1077262" d="M285.065,114.991h2.61a1.4,1.4,0,0,0,1.4-1.4v-2.127H283.66v2.127A1.4,1.4,0,0,0,285.065,114.991Z" transform="translate(-281.384 -100.418)" fill="#adbbc4"/>
            <path id="Path_1077263" data-name="Path 1077263" d="M299.8,111.46v2.127a1.4,1.4,0,0,1-1.405,1.4h-2.609q-.067,0-.131-.006a1.4,1.4,0,0,0,1.272-1.4V111.46Z" transform="translate(-292.101 -100.418)" fill="#8d9ca8"/>
          </g>
        </g>
        <g id="Group_1214525" data-name="Group 1214525" transform="translate(6.391 -0.002)">
          <path id="Path_1077264" data-name="Path 1077264" d="M181.139,230.146a.8.8,0,0,0,.8-.8v-1.084a.8.8,0,0,0-1.593,0v1.084A.8.8,0,0,0,181.139,230.146Z" transform="translate(-161.867 -203.309)"/>
          <path id="Path_1077265" data-name="Path 1077265" d="M164.7,266.881a.8.8,0,0,0-.953-.6,9.393,9.393,0,0,1-4.19.011.8.8,0,0,0-.441,1.531,9.623,9.623,0,0,0,2.473.29,11.4,11.4,0,0,0,2.509-.278A.8.8,0,0,0,164.7,266.881Z" transform="translate(-142.383 -237.981)"/>
          <path id="Path_1077266" data-name="Path 1077266" d="M52.609,38.8,41.085,24.582l-1.372-5.027a2.687,2.687,0,0,0-.953-1.417V16.164h1.092a2.2,2.2,0,0,0,2.2-2.2V11.819a3.489,3.489,0,0,1,.874-2.266,5.781,5.781,0,1,0-9.851-1.9c-.422-.1-5.417-.035-5.973-.053a12.884,12.884,0,0,1-6.567-1.8,2.144,2.144,0,0,0-1.088-.3,2.174,2.174,0,0,0-1.663.793,2.122,2.122,0,0,0-.436,1.769L17.76,10.1H16.22a3.715,3.715,0,0,0-2.7,1.161,3.508,3.508,0,0,0-.952,2.625v6.795a1.989,1.989,0,0,0-1.134,1.793V24.4a1.991,1.991,0,0,0,1.989,1.989h1.9v1.555a7.7,7.7,0,0,0,5.917,7.467v3.358a.8.8,0,0,0,.8.8H42.314l1.43,2.152a.8.8,0,0,0,1.327-.882l-1.684-2.534-3.509-5.813,3.8-2.181,7.642,9.43a3.838,3.838,0,0,1-2.832,5.491L37.012,46.966v-1.4a.8.8,0,0,0-1.593,0V51.6a1.19,1.19,0,0,1-1.188,1.188H15.906v-6.75a.8.8,0,0,0-1.593,0v6.75H9.173A1.19,1.19,0,0,1,7.984,51.6V45.27a5.707,5.707,0,0,1,5.7-5.7H18.31a.8.8,0,1,0,0-1.593H13.685A7.3,7.3,0,0,0,6.391,45.27V51.6a2.785,2.785,0,0,0,2.782,2.782H34.23A2.785,2.785,0,0,0,37.012,51.6V48.578l11.715-1.769A5.427,5.427,0,0,0,52.609,38.8ZM36.007,22.08h1.9a.4.4,0,0,1,.4.4V24.4a.4.4,0,0,1-.4.4h-1.9Zm1.9-1.593h-1.9a1.119,1.119,0,0,1,2.17-.512l.152.558a1.986,1.986,0,0,0-.422-.046Zm2.555-6.524a.608.608,0,0,1-.608.608h-2.61a.608.608,0,0,1-.608-.608V12.633h3.825v1.331ZM34.364,5.6a4.188,4.188,0,1,1,7.358,2.913,5.163,5.163,0,0,0-1.2,2.528H36.572a5.167,5.167,0,0,0-1.2-2.528A4.175,4.175,0,0,1,34.364,5.6ZM14.678,12.353A2.116,2.116,0,0,1,16.22,11.7h2.511a.8.8,0,0,0,.781-.953l-.6-3a.52.52,0,0,1,.106-.447.548.548,0,0,1,.707-.129A14.477,14.477,0,0,0,27.1,9.19h5.147a2.391,2.391,0,0,1,2.791,2.647v2.127a2.2,2.2,0,0,0,2.125,2.2v1.427a2.715,2.715,0,0,0-1.98.821,5.138,5.138,0,0,0-4.32-2.361H19.831a.8.8,0,0,0-.789.685,4.243,4.243,0,0,1-3.063,3.755H14.157V13.864c0-.017,0-.034,0-.052a1.932,1.932,0,0,1,.523-1.46ZM13.418,24.8a.4.4,0,0,1-.4-.4V22.476a.4.4,0,0,1,.4-.4h1.9V24.8Zm9.41,13.177v-3.2a.8.8,0,0,0-.655-.784,6.171,6.171,0,0,1-5.262-6.043V21.841a5.693,5.693,0,0,0,3.582-4.2H30.868a3.549,3.549,0,0,1,3.545,3.535v6.772a6.171,6.171,0,0,1-5.262,6.043.8.8,0,0,0-.655.784v3.2H22.828Zm7.261,0V35.415A7.741,7.741,0,0,0,35.9,29.253c1.384,2.019,4.158,6.579,5.43,8.723Zm12.572-8.918-3.631,2.084-2.5-3.825-.017-.024a2.791,2.791,0,0,1-.419-.9h1.806a1.99,1.99,0,0,0,1.756-1.058.8.8,0,0,0,.079.12Z" transform="translate(-6.391 0.002)"/>
          <path id="Path_1077267" data-name="Path 1077267" d="M400.406,86.177a.8.8,0,1,0-1.126-1.126,15.049,15.049,0,0,0,0,21.259.8.8,0,1,0,1.126-1.126A13.455,13.455,0,0,1,400.406,86.177Z" transform="translate(-353.623 -75.809)"/>
          <path id="Path_1077268" data-name="Path 1077268" d="M438.023,197.64a.8.8,0,1,0-1.566.292,10.717,10.717,0,0,0,2.97,5.634.8.8,0,0,0,1.126-1.126,9.131,9.131,0,0,1-2.531-4.8Z" transform="translate(-390.769 -176.068)"/>
          <path id="Path_1077269" data-name="Path 1077269" d="M437.142,119.852a.8.8,0,0,0,.931-.634,9.132,9.132,0,0,1,2.526-4.774.8.8,0,1,0-1.126-1.126,10.719,10.719,0,0,0-2.965,5.6A.8.8,0,0,0,437.142,119.852Z" transform="translate(-390.813 -101.074)"/>
          <path id="Path_1077270" data-name="Path 1077270" d="M476.36,146.208a4.916,4.916,0,0,1,1.449-3.5.8.8,0,1,0-1.126-1.126,6.541,6.541,0,0,0,0,9.25.8.8,0,0,0,1.126-1.126A4.916,4.916,0,0,1,476.36,146.208Z" transform="translate(-425.022 -126.337)"/>
          <path id="Path_1077271" data-name="Path 1077271" d="M294.916,42.783a.794.794,0,0,0,.563-.233l1.6-1.6a.8.8,0,0,0-1.126-1.126l-1.6,1.6a.8.8,0,0,0,.563,1.36Z" transform="translate(-263.56 -35.382)"/>
        </g>
      </g>
    </g>
  </g>
</svg>
