<svg xmlns="http://www.w3.org/2000/svg" width="113" height="112" viewBox="0 0 113 112">
  <g id="Group_1218527" data-name="Group 1218527" transform="translate(-601 -6136)">
    <g id="Group_1218310" data-name="Group 1218310">
      <rect id="Rectangle_420735" data-name="Rectangle 420735" width="81" height="112" transform="translate(633 6136)" fill="#f6f3ef"/>
      <g id="pensamiento_2_" data-name="pensamiento (2)" transform="translate(601 6142.749)">
        <g id="Group_1218298" data-name="Group 1218298" transform="translate(1.542 1.542)">
          <g id="Group_1218296" data-name="Group 1218296">
            <path id="Path_1090435" data-name="Path 1090435" d="M34.564,389.726l-14.73,5.624C13.5,397.769,7.5,400.9,7.5,407.684v5.509H18.4l17.021-14.628ZM56.5,401.35l-2,11.843H86.541v-5.509c0-6.782-5.993-9.927-12.334-12.334l-15.236-5.784,1.987,4.094a3.657,3.657,0,0,1-.586,4.5Z" transform="translate(-7.5 -311.025)" fill="#ffee89" fill-rule="evenodd"/>
            <path id="Path_1090436" data-name="Path 1090436" d="M175.09,450.95l-5.812,1.863-6.283,5.92h15.028l2-11.843Z" transform="translate(-131.03 -356.565)" fill="#7a797f" fill-rule="evenodd"/>
            <path id="Path_1090437" data-name="Path 1090437" d="M93.7,335.221l8.812-7.245a3.657,3.657,0,0,0,.586-4.5l-4.9-10.1,8.092-6.653a3.107,3.107,0,0,0-3.947-4.8l-16.785,13.8,1.372-8.675a3.471,3.471,0,0,0-2.5-3.727l-2.24-.656-5.776,13.922,1.148,11.793L60.545,343H81.606l6.283-5.92Z" transform="translate(-49.641 -240.837)" fill="#ffdaaa" fill-rule="evenodd"/>
            <path id="Path_1090438" data-name="Path 1090438" d="M109.751,190.245a18.527,18.527,0,0,0,8.533,15.565l3-7.23,2.24.656a3.471,3.471,0,0,1,2.5,3.727l-1.372,8.676,16.785-13.8a3.12,3.12,0,0,1,3.747-.151,18.328,18.328,0,0,0,1.573-7.441V177.912l-21.583,0a7.732,7.732,0,0,1-7.709-7.712,7.733,7.733,0,0,0-7.71,7.709Z" transform="translate(-88.731 -136.756)" fill="#ffdaaa" fill-rule="evenodd"/>
            <path id="Path_1090439" data-name="Path 1090439" d="M70.918,220.038H74V207.7H67.835a3.093,3.093,0,0,0-3.084,3.084v3.084A6.185,6.185,0,0,0,70.918,220.038ZM111,207.7v12.333h3.084a6.185,6.185,0,0,0,6.167-6.167v-3.084a3.093,3.093,0,0,0-3.084-3.084Z" transform="translate(-52.982 -166.548)" fill="#ffb680" fill-rule="evenodd"/>
            <path id="Path_1090440" data-name="Path 1090440" d="M79.751,78.447h6.167a7.733,7.733,0,0,1,7.71-7.709,7.732,7.732,0,0,0,7.709,7.712l21.583,0h6.167V69.668a24.668,24.668,0,0,0-49.336,0Zm11.924,34.59,2.776-6.691a18.527,18.527,0,0,1-8.533-15.565H82.835a6.115,6.115,0,0,1-3.084-.832v30.7l12.212-4.662ZM122.92,90.781a18.328,18.328,0,0,1-1.573,7.441,3.106,3.106,0,0,1,.2,4.951l-8.092,6.653,2.915,6.006,12.718,4.828V89.949a6.115,6.115,0,0,1-3.084.832Z" transform="translate(-64.898 -37.291)" fill="#bababe" fill-rule="evenodd"/>
            <path id="Path_1090441" data-name="Path 1090441" d="M13.235,432.889C9.885,435,7.5,437.824,7.5,442.1v5.509h4.625V437.476A9.528,9.528,0,0,1,13.235,432.889Z" transform="translate(-7.5 -345.442)" fill="#ffe200" fill-rule="evenodd"/>
            <path id="Path_1090442" data-name="Path 1090442" d="M65.926,482l-5.382,4.625H81.6L86.513,482Z" transform="translate(-49.64 -384.458)" fill="#ffb680" fill-rule="evenodd"/>
            <path id="Path_1090443" data-name="Path 1090443" d="M109.751,192.753a18.527,18.527,0,0,0,8.533,15.565l1.183-2.853a18.429,18.429,0,0,1-5.092-12.712V173.358a7.736,7.736,0,0,0-4.625,7.06Z" transform="translate(-88.731 -139.263)" fill="#ffb680" fill-rule="evenodd"/>
            <path id="Path_1090444" data-name="Path 1090444" d="M79.751,78.449h4.625V69.67a24.734,24.734,0,0,1,22.355-24.558A24.717,24.717,0,0,0,79.751,69.67Zm4.625,12.334H82.835a6.115,6.115,0,0,1-3.084-.832v30.7l4.625-1.766Z" transform="translate(-64.898 -37.294)" fill="#7a797f" fill-rule="evenodd"/>
            <circle id="Ellipse_14465" data-name="Ellipse 14465" cx="3.084" cy="3.084" r="3.084" transform="translate(73.544 38.494)" fill="#9ee6fa"/>
            <path id="Path_1090445" data-name="Path 1090445" d="M361.341,35.731A6.168,6.168,0,0,0,373.137,38a15.419,15.419,0,1,0-11.8-2.266Z" transform="translate(-283.167 -7.5)" fill="#fff" fill-rule="evenodd"/>
            <path id="Path_1090446" data-name="Path 1090446" d="M361.342,35.855a6.171,6.171,0,0,0,7.8,5.7c-3.191-2.355-3.138-4.731-3.275-8.232-11.431-7.665-6.753-22.38,3.062-25.668a15.418,15.418,0,0,0-7.592,28.2Z" transform="translate(-283.168 -7.624)" fill="#9ee6fa" fill-rule="evenodd"/>
          </g>
          <g id="Group_1218297" data-name="Group 1218297" transform="translate(43.718 13.714)">
            <path id="Path_1090447" data-name="Path 1090447" d="M229.418,80.38h-3.084V77.3h3.084ZM223.251,77.3h-3.084V74.213h3.084Z" transform="translate(-220.167 -74.213)" fill="#fff"/>
          </g>
        </g>
        <g id="Group_1218299" data-name="Group 1218299" transform="translate(0)">
          <path id="Path_1090448" data-name="Path 1090448" d="M77.788,119.006a31.073,31.073,0,0,0-8.993-4.79l-1.524-.578V84.818a7.7,7.7,0,0,0,3.083-6.163V75.572a4.633,4.633,0,0,0-3.084-4.36v-7.5A26.183,26.183,0,0,0,23.78,44.037l2.037,2.315A23.1,23.1,0,0,1,64.189,63.71v7.237l-26.208,0h0a6.19,6.19,0,0,1-6.166-6.168V57.073H28.73v6.294a9.276,9.276,0,0,0-7.581,7.58H17.936V63.71A23.075,23.075,0,0,1,23.7,48.465L21.39,46.428A26.158,26.158,0,0,0,14.853,63.71v7.5a4.633,4.633,0,0,0-3.083,4.36v3.084a7.7,7.7,0,0,0,3.084,6.163v28.816l-1.527.583C6.4,116.86,0,120.357,0,127.991v7.051H62.082v-3.084H50.359l1.6-9.476,3.429-2.819a5.156,5.156,0,0,0,.994-6.369l-.292-.6L67.7,117.1c6.806,2.584,11.339,5.425,11.339,10.893v3.967H71.332v3.084H82.124v-7.051a11.378,11.378,0,0,0-4.336-8.986ZM61.1,74.031H65.73a1.543,1.543,0,0,1,1.542,1.542v3.084a4.631,4.631,0,0,1-4.625,4.625H61.1Zm-37-1.542a6.179,6.179,0,0,1,4.782-6.01,9.286,9.286,0,0,0,9.094,7.554h0l20.041,0V84.823a16.721,16.721,0,0,1-.9,5.435c-.148-.029-.3-.051-.449-.066a4.619,4.619,0,0,0-3.4,1.032L39.615,102.445l.738-4.666a5.012,5.012,0,0,0-3.585-5.447L33.2,91.289,30.417,98A16.888,16.888,0,0,1,24.1,84.822Zm-9.251,6.167V75.572a1.543,1.543,0,0,1,1.542-1.542H21.02v9.251H19.478A4.631,4.631,0,0,1,14.853,78.656Zm3.084,7.554a7.714,7.714,0,0,0,1.542.155h1.6a19.976,19.976,0,0,0,8.115,14.582l-2.447,5.9.211,2.168-9.022,3.444V86.209ZM3.084,127.991c0-5.447,4.534-8.294,11.342-10.894l12.842-4.9.587,6.03L11.874,131.959H3.084Zm44.148,3.967H37.391l3.2-3.017,5.76-1.846,1.977-1.626Zm6.2-14.677-8.584,7.058-5.864,1.879-6.092,5.74H16.605l14.474-12.439L29.89,107.313l5.1-12.288.913.267A1.933,1.933,0,0,1,37.307,97.3l-1.28,8.1-1.463,1.2,1.958,2.382,18.7-15.375a1.566,1.566,0,0,1,1.988,2.419l-12.516,10.29,1.958,2.382,2.912-2.394,4.047,8.339a2.21,2.21,0,0,1-.178,2.64Zm-1.419-12.994,7.154-5.882a4.657,4.657,0,0,0,.645-6.535,19.727,19.727,0,0,0,1.232-5.506h1.6a7.716,7.716,0,0,0,1.542-.155v26.258l-10.056-3.817Z" transform="translate(0 -29.791)"/>
          <path id="Path_1090449" data-name="Path 1090449" d="M317,497h3.083v3.083H317Z" transform="translate(-251.835 -394.833)"/>
          <path id="Path_1090450" data-name="Path 1090450" d="M363.959,0a16.96,16.96,0,0,0-10.045,30.625,7.71,7.71,0,0,0,14.312,2.752A16.961,16.961,0,0,0,363.959,0Zm2.9,30.531-.768.163-.32.717a4.626,4.626,0,0,1-8.847-1.7l-.031-.784-.651-.437a13.875,13.875,0,1,1,10.617,2.039Z" transform="translate(-275.668)"/>
          <path id="Path_1090451" data-name="Path 1090451" d="M362.383,187.258a4.625,4.625,0,1,0,4.625,4.625A4.631,4.631,0,0,0,362.383,187.258Zm0,6.167a1.542,1.542,0,1,1,1.542-1.542A1.543,1.543,0,0,1,362.383,193.425Z" transform="translate(-284.214 -148.764)"/>
          <path id="Path_1090452" data-name="Path 1090452" d="M452,75h3.084v3.084H452Z" transform="translate(-359.083 -59.582)"/>
          <path id="Path_1090453" data-name="Path 1090453" d="M392,75h3.084v3.084H392Z" transform="translate(-311.417 -59.582)"/>
          <path id="Path_1090454" data-name="Path 1090454" d="M422,75h3.084v3.084H422Z" transform="translate(-335.25 -59.582)"/>
        </g>
      </g>
    </g>
  </g>
</svg>
