<svg xmlns="http://www.w3.org/2000/svg" xmlns:xlink="http://www.w3.org/1999/xlink" width="110" height="110" viewBox="0 0 110 110">
  <defs>
    <filter id="Path_982547" x="0" y="0" width="110" height="110" filterUnits="userSpaceOnUse">
      <feOffset dy="3" input="SourceAlpha"/>
      <feGaussianBlur stdDeviation="3" result="blur"/>
      <feFlood flood-opacity="0.161"/>
      <feComposite operator="in" in2="blur"/>
      <feComposite in="SourceGraphic"/>
    </filter>
  </defs>
  <g id="Group_1218518" data-name="Group 1218518" transform="translate(-1114 -3156.715)">
    <g id="Group_1217934" data-name="Group 1217934">
      <g id="Group_1200151" data-name="Group 1200151" transform="translate(1 453.715)">
        <g id="Group_1185952" data-name="Group 1185952" transform="translate(-0.461 1749)">
          <g id="Group_1184115" data-name="Group 1184115" transform="translate(-33.519 -1471.333)">
            <g id="Group_1183744" data-name="Group 1183744" transform="translate(458.936 -388.667)">
              <g id="Group_1181546" data-name="Group 1181546" transform="translate(-4.696 -130.677)">
                <g id="Group_1177563" data-name="Group 1177563" transform="translate(0.279 -12113.323)">
                  <g id="Group_1173148" data-name="Group 1173148" transform="translate(701.461 15064)">
                    <g id="Group_1163803" data-name="Group 1163803" transform="translate(0 0)">
                      <g id="Group_1163015" data-name="Group 1163015">
                        <g id="Group_1157017" data-name="Group 1157017" transform="translate(0 0)">
                          <g id="Group_1155793" data-name="Group 1155793" transform="translate(0 0)">
                            <g id="Group_1154704" data-name="Group 1154704">
                              <g id="Group_1150790" data-name="Group 1150790">
                                <g id="Group_1154214" data-name="Group 1154214">
                                  <g id="Group_1152583" data-name="Group 1152583">
                                    <g id="Group_1146973" data-name="Group 1146973" transform="translate(0 0)">
                                      <g id="Group_1146954" data-name="Group 1146954">
                                        <g transform="matrix(1, 0, 0, 1, -9, -6)" filter="url(#Path_982547)">
                                          <g id="Path_982547-2" data-name="Path 982547" transform="translate(9 6)" fill="#f2f7e5">
                                            <path d="M 46.00000381469727 90.49988555908203 C 39.99188232421875 90.49988555908203 34.16427230834961 89.32352447509766 28.67905807495117 87.00347137451172 C 23.38020324707031 84.76226043701172 18.62103080749512 81.55342864990234 14.53375053405762 77.46615600585938 C 10.44645690917969 73.37887573242188 7.237643718719482 68.61971282958984 4.996417045593262 63.32085800170898 C 2.676363706588745 57.83565902709961 1.500003814697266 52.00806045532227 1.500003814697266 45.99993896484375 C 1.500003814697266 39.99181747436523 2.676363706588745 34.16421890258789 4.996417045593262 28.67901802062988 C 7.237643718719482 23.38017845153809 10.44645690917969 18.62101936340332 14.53375053405762 14.53373908996582 C 18.62103080749512 10.44645881652832 23.38020324707031 7.237632274627686 28.67905807495117 4.996418952941895 C 34.16427230834961 2.676365613937378 39.99188232421875 1.500005602836609 46.00000381469727 1.500005602836609 C 52.00812530517578 1.500005602836609 57.83573532104492 2.676365613937378 63.32094955444336 4.996418952941895 C 68.61980438232422 7.237632274627686 73.37896728515625 10.44645881652832 77.46625518798828 14.53373908996582 C 81.55353546142578 18.62101936340332 84.76236724853516 23.38017845153809 87.00359344482422 28.67901802062988 C 89.32364654541016 34.16421890258789 90.5 39.99181747436523 90.5 45.99993896484375 C 90.5 52.00806045532227 89.32364654541016 57.83565902709961 87.00359344482422 63.32085800170898 C 84.76236724853516 68.61971282958984 81.55353546142578 73.37887573242188 77.46625518798828 77.46615600585938 C 73.37896728515625 81.55342864990234 68.61980438232422 84.76226043701172 63.32094955444336 87.00347137451172 C 57.83573532104492 89.32352447509766 52.00812530517578 90.49988555908203 46.00000381469727 90.49988555908203 Z" stroke="none"/>
                                            <path d="M 46.00000381469727 2.999992370605469 C 40.19371795654297 2.999992370605469 34.56270217895508 4.136497497558594 29.26338958740234 6.377906799316406 C 24.14333343505859 8.543510437011719 19.54441833496094 11.64437866210938 15.59440612792969 15.59439849853516 C 11.64440155029297 19.54439544677734 8.54351806640625 24.14329528808594 6.377914428710938 29.26335144042969 C 4.136505126953125 34.56266784667969 3.000007629394531 40.19366836547852 3.000007629394531 45.99993896484375 C 3.000007629394531 51.80620956420898 4.136505126953125 57.43722534179688 6.377914428710938 62.73654174804688 C 8.54351806640625 67.85658264160156 11.64440155029297 72.45548248291016 15.59440612792969 76.40549468994141 C 19.54441833496094 80.35549926757812 24.14333343505859 83.45636749267578 29.26337432861328 85.62196350097656 C 34.56270217895508 87.86338043212891 40.19371795654297 88.9998779296875 46.00000381469727 88.9998779296875 C 51.80628967285156 88.9998779296875 57.43730545043945 87.86338043212891 62.73663330078125 85.62196350097656 C 67.85667419433594 83.45636749267578 72.45558929443359 80.35549926757812 76.40560150146484 76.40549468994141 C 80.35560607910156 72.45548248291016 83.45648956298828 67.85658264160156 85.62208557128906 62.73654174804688 C 87.86350250244141 57.43722534179688 89 51.80620956420898 89 45.99993896484375 C 89 40.19366836547852 87.86350250244141 34.56266784667969 85.62208557128906 29.26335144042969 C 83.45648956298828 24.14329528808594 80.35560607910156 19.54439544677734 76.40560150146484 15.59439849853516 C 72.45558929443359 11.64437866210938 67.85667419433594 8.543510437011719 62.73661804199219 6.377906799316406 C 57.43730545043945 4.136497497558594 51.80628967285156 2.999992370605469 46.00000381469727 2.999992370605469 M 46.00000381469727 -7.62939453125e-06 C 71.40510559082031 -7.62939453125e-06 92 20.59487915039062 92 45.99993896484375 C 92 71.40501403808594 71.40510559082031 91.99988555908203 46.00000381469727 91.99988555908203 C 20.59490203857422 91.99988555908203 7.62939453125e-06 71.40501403808594 7.62939453125e-06 45.99993896484375 C 7.62939453125e-06 20.59487915039062 20.59490203857422 -7.62939453125e-06 46.00000381469727 -7.62939453125e-06 Z" stroke="none" fill="#86b60c"/>
                                          </g>
                                        </g>
                                      </g>
                                    </g>
                                  </g>
                                </g>
                              </g>
                            </g>
                          </g>
                        </g>
                      </g>
                    </g>
                  </g>
                </g>
              </g>
            </g>
          </g>
        </g>
      </g>
      <g id="pensamiento-critico" transform="translate(1108.063 3181.121)">
        <circle id="Ellipse_14452" data-name="Ellipse 14452" cx="7.938" cy="7.938" r="7.938" transform="translate(52.5 11)" fill="#fcee56"/>
        <path id="Path_1090198" data-name="Path 1090198" d="M219.9,76.584a7.938,7.938,0,0,1-6.121,12.992q-.186,0-.371-.008A7.938,7.938,0,1,0,219.9,76.584Z" transform="translate(-159.095 -65.575)" fill="#fbe709"/>
        <path id="Path_1090199" data-name="Path 1090199" d="M141.518,170.353h-1.046a3.765,3.765,0,0,1-3.765-3.765V149.716a18.109,18.109,0,0,0-.454-4.04.163.163,0,0,0-.159-.126H101.2a.163.163,0,0,0-.159.126,18.111,18.111,0,0,0-.454,4.04v16.872a3.765,3.765,0,0,1-3.765,3.765H95.781a.186.186,0,0,0-.155.289l1.5,2.248a11.681,11.681,0,0,0,9.719,5.2h23.611a11.681,11.681,0,0,0,9.719-5.2l1.5-2.248a.186.186,0,0,0-.155-.29Z" transform="translate(-58.213 -124.628)" fill="#fb0363"/>
        <circle id="Ellipse_14453" data-name="Ellipse 14453" cx="4.961" cy="4.961" r="4.961" transform="translate(28.687 7.031)" fill="#1dd0b0"/>
        <circle id="Ellipse_14454" data-name="Ellipse 14454" cx="2.977" cy="2.977" r="2.977" transform="translate(70.357 1.078)" fill="#62b4fd"/>
        <circle id="Ellipse_14455" data-name="Ellipse 14455" cx="5.953" cy="5.953" r="5.953" transform="translate(80.281 7.031)" fill="#4f66ce"/>
        <circle id="Ellipse_14456" data-name="Ellipse 14456" cx="1.984" cy="1.984" r="1.984" transform="translate(58.453 1.078)" fill="#fcee56"/>
        <circle id="Ellipse_14457" data-name="Ellipse 14457" cx="3.969" cy="3.969" r="3.969" transform="translate(42.576 1.078)" fill="#fb0363"/>
        <path id="Path_1090200" data-name="Path 1090200" d="M195.916,352.626c4.945,0,9.078-3.044,10.084-7.108a3.955,3.955,0,0,1-2.344-3.612v-4.573a13.694,13.694,0,0,1-15.478,0v4.573a3.954,3.954,0,0,1-2.346,3.613C186.838,349.582,190.971,352.626,195.916,352.626Z" transform="translate(-135.48 -288.843)" fill="#ffcbbe"/>
        <path id="Path_1090201" data-name="Path 1090201" d="M146.583,409.121c8.677,0,16.007-5.046,18.366-11.967a14.929,14.929,0,0,0-3.394-1.442l-4.364-1.247a3.98,3.98,0,0,1-.524-.19c-1.006,4.064-5.139,7.108-10.084,7.108s-9.078-3.044-10.084-7.107a3.96,3.96,0,0,1-.522.19l-4.364,1.247a14.915,14.915,0,0,0-3.4,1.443C130.577,404.075,137.906,409.121,146.583,409.121Z" transform="translate(-86.147 -337.599)" fill="#eff3f5"/>
        <path id="Path_1090202" data-name="Path 1090202" d="M128.12,427.215a14.929,14.929,0,0,0-7.432-12.91c-2.359,6.921-9.689,11.967-18.366,11.967s-16.006-5.046-18.366-11.966a14.93,14.93,0,0,0-7.43,12.909.052.052,0,0,0,.052.052h51.491a.052.052,0,0,0,.052-.052h0Z" transform="translate(-41.886 -354.751)" fill="#62b4fd"/>
        <path id="Path_1090203" data-name="Path 1090203" d="M186.892,156.4a12.485,12.485,0,0,0-5.28-6.191,15.471,15.471,0,0,1-4.615-4.1l-.416-.555h-5.359l-.416.555a15.469,15.469,0,0,1-4.615,4.1,12.485,12.485,0,0,0-5.28,6.191,11.033,11.033,0,0,0-.767,4.8l.1,1.5a13.69,13.69,0,0,0,27.325,0l.1-1.495a11.031,11.031,0,0,0-.767-4.8Z" transform="translate(-113.465 -124.628)" fill="#ffece3"/>
        <path id="Path_1090204" data-name="Path 1090204" d="M216.428,156.4l0,0a12.485,12.485,0,0,0-5.28-6.191,15.471,15.471,0,0,1-4.615-4.1l-.416-.555h-3.191a15.471,15.471,0,0,0,2.472,1.781,12.485,12.485,0,0,1,5.28,6.191l0,0a11.031,11.031,0,0,1,.767,4.8l-.1,1.495a13.7,13.7,0,0,1-16.735,12.472,13.69,13.69,0,0,0,22.485-9.6l.1-1.495A11.027,11.027,0,0,0,216.428,156.4Z" transform="translate(-142.999 -124.628)" fill="#ffddce"/>
        <path id="Path_1090205" data-name="Path 1090205" d="M86.234,20.016A7.031,7.031,0,1,0,79.2,12.984q0,.258.019.512l-10.3,2.378a9.043,9.043,0,0,0-2.343-3.535L71.333,7.58a4.056,4.056,0,1,0-1.525-1.525l-5,5a8.947,8.947,0,0,0-3.294-1.069V5.929a3.062,3.062,0,1,0-2.156,0V9.986a8.972,8.972,0,0,0-4.487,1.863L50.792,7.77a5.05,5.05,0,1,0-1.525,1.525l4.08,4.079a9.02,9.02,0,0,0-1.281,2.216l-12.386-3.3a6.041,6.041,0,0,0-8.562-5.779,1.078,1.078,0,1,0,.9,1.958,3.884,3.884,0,1,1-2.242,3.183,1.078,1.078,0,0,0-2.148-.189,6.039,6.039,0,0,0,11.559,2.93L51.51,17.673a9.066,9.066,0,0,0-.088,1.265q0,.455.045.906H42.992a1.235,1.235,0,0,0-1.21.964,19.236,19.236,0,0,0-.481,4.28V41.96a2.69,2.69,0,0,1-2.687,2.687H37.567a1.264,1.264,0,0,0-1.052,1.965l1.5,2.248A12.733,12.733,0,0,0,48.63,54.542h2.58a3.271,3.271,0,0,1-2.316,1.469,1.078,1.078,0,1,0,.592,2.073l.168-.048A10.249,10.249,0,0,0,53.29,62.63a12.561,12.561,0,0,0,14.291,0,10.249,10.249,0,0,0,3.636-4.594l3.894,1.113a13.9,13.9,0,0,1,2.348.908c-2.555,6.158-9.412,10.387-17.024,10.387S45.967,66.216,43.412,60.058a13.834,13.834,0,0,1,1.418-.607,1.078,1.078,0,1,0-.737-2.027,16.034,16.034,0,0,0-10.531,15.04,1.131,1.131,0,0,0,1.13,1.13H86.182a1.131,1.131,0,0,0,1.13-1.13A16.026,16.026,0,0,0,75.7,57.075c-4.6-1.325-4.42-1.24-4.746-1.386a2.889,2.889,0,0,1-1.295-1.148h2.578a12.733,12.733,0,0,0,10.616-5.682l1.5-2.248A1.264,1.264,0,0,0,83.3,44.647H82.258a2.69,2.69,0,0,1-2.687-2.687V31.949a1.078,1.078,0,1,0-2.156,0V41.96a4.851,4.851,0,0,0,4.247,4.807l-.6.9a10.582,10.582,0,0,1-8.822,4.721H69.254V49.031a14.76,14.76,0,0,0,5.921-10.895l.1-1.495a12.174,12.174,0,0,0-.838-5.26l-.005-.013a13.613,13.613,0,0,0-5.74-6.723A14.315,14.315,0,0,1,65.371,22H69.2a23.665,23.665,0,0,1,2.9,1.98,1.078,1.078,0,0,0,1.384-1.654q-.2-.166-.4-.327h4.051a17.133,17.133,0,0,1,.28,3.088v1.83a1.078,1.078,0,1,0,2.156,0v-1.83a19.235,19.235,0,0,0-.481-4.281,1.235,1.235,0,0,0-1.21-.964H69.407a9.1,9.1,0,0,0-.006-1.869l10.3-2.378a7.043,7.043,0,0,0,6.528,4.419Zm-12.9-17.86a1.9,1.9,0,1,1-1.9,1.9A1.9,1.9,0,0,1,73.334,2.156ZM35.757,71.438a13.908,13.908,0,0,1,5.789-10.264,18.438,18.438,0,0,0,6.744,7.858,21.123,21.123,0,0,0,4.934,2.406Zm49.361,0H67.649a21.116,21.116,0,0,0,4.934-2.406,18.437,18.437,0,0,0,6.744-7.859A13.906,13.906,0,0,1,85.118,71.438ZM60.437,2.156a.906.906,0,1,1-.906.906A.907.907,0,0,1,60.437,2.156ZM43.654,5.047a2.891,2.891,0,1,1,2.891,2.891A2.894,2.894,0,0,1,43.654,5.047ZM39.808,47.665l-.6-.9a4.851,4.851,0,0,0,4.247-4.807V25.088A17.131,17.131,0,0,1,43.737,22H55.5a14.317,14.317,0,0,1-3.316,2.645,13.613,13.613,0,0,0-5.74,6.723,12.184,12.184,0,0,0-.841,5.269l.1,1.5A14.76,14.76,0,0,0,51.62,49.031v3.355h-2.99a10.582,10.582,0,0,1-8.822-4.722ZM69.237,57.18c-1.211,3.243-4.776,5.524-8.8,5.524s-7.589-2.28-8.8-5.523a5.038,5.038,0,0,0,2.141-4.119V50.37a14.716,14.716,0,0,0,13.322,0v2.692a5.037,5.037,0,0,0,2.139,4.118ZM62.669,22.124a16.465,16.465,0,0,0,4.936,4.387,11.441,11.441,0,0,1,4.817,5.65l.005.013a10.017,10.017,0,0,1,.692,4.331L73.024,38A12.612,12.612,0,0,1,47.85,38l-.1-1.5a10.019,10.019,0,0,1,.692-4.331,11.448,11.448,0,0,1,4.82-5.659A16.467,16.467,0,0,0,58.2,22.124L58.3,22h4.28Zm-9.032-2.28a6.859,6.859,0,1,1,13.6,0Zm32.6-11.735a4.875,4.875,0,1,1-4.875,4.875A4.881,4.881,0,0,1,86.234,8.109Z" transform="translate(0 0)"/>
        <path id="Path_1090206" data-name="Path 1090206" d="M239.518,227.563a1.078,1.078,0,0,0,1.078,1.078h.347a3.314,3.314,0,0,0,3.31-3.31V222.4a1.078,1.078,0,1,0-2.156,0v2.927a1.156,1.156,0,0,1-1.154,1.154H240.6A1.078,1.078,0,0,0,239.518,227.563Z" transform="translate(-181.449 -189.512)"/>
        <path id="Path_1090207" data-name="Path 1090207" d="M232.38,292.972a1.078,1.078,0,0,0-1.525,1.525,4.731,4.731,0,0,0,6.684,0,1.078,1.078,0,0,0-1.525-1.525A2.573,2.573,0,0,1,232.38,292.972Z" transform="translate(-173.761 -250.588)"/>
      </g>
    </g>
  </g>
</svg>
