<svg xmlns="http://www.w3.org/2000/svg" xmlns:xlink="http://www.w3.org/1999/xlink" width="93.934" height="93.934" viewBox="0 0 93.934 93.934">
  <defs>
    <filter id="Path_982547" x="0" y="0" width="93.934" height="93.934" filterUnits="userSpaceOnUse">
      <feOffset dy="3" input="SourceAlpha"/>
      <feGaussianBlur stdDeviation="3" result="blur"/>
      <feFlood flood-opacity="0.161"/>
      <feComposite operator="in" in2="blur"/>
      <feComposite in="SourceGraphic"/>
    </filter>
  </defs>
  <g id="Group_1215549" data-name="Group 1215549" transform="translate(-188.467 -4314.073)">
    <g id="Group_1214518" data-name="Group 1214518" transform="translate(0 24)">
      <g id="Group_1214376" data-name="Group 1214376" transform="translate(197.467 4296.073)">
        <g id="Group_1207744" data-name="Group 1207744">
          <g id="Group_1206679" data-name="Group 1206679">
            <g id="Group_1183665" data-name="Group 1183665">
              <g id="Group_1181743" data-name="Group 1181743">
                <g id="Group_1175133" data-name="Group 1175133">
                  <g id="Group_1167337" data-name="Group 1167337">
                    <g id="Group_1166720" data-name="Group 1166720">
                      <g id="Group_1164305" data-name="Group 1164305">
                        <g id="Group_1163948" data-name="Group 1163948">
                          <g id="Group_1158168" data-name="Group 1158168">
                            <g id="Group_1152576" data-name="Group 1152576">
                              <g id="Group_1148633" data-name="Group 1148633">
                                <g id="Group_1148525" data-name="Group 1148525">
                                  <g transform="matrix(1, 0, 0, 1, -9, -6)" filter="url(#Path_982547)">
                                    <g id="Path_982547-2" data-name="Path 982547" transform="translate(9 6)" fill="#f2f7e5">
                                      <path d="M 37.966796875 74.43359375 C 33.04315185546875 74.43359375 28.26757431030273 73.46962738037109 23.77274131774902 71.56847381591797 C 19.43047523498535 69.73184967041016 15.53040790557861 67.10224914550781 12.18087482452393 63.75271987915039 C 8.831341743469238 60.4031867980957 6.201741218566895 56.50312042236328 4.365118980407715 52.16086196899414 C 2.463963508605957 47.66601943969727 1.499996900558472 42.89044189453125 1.499996900558472 37.966796875 C 1.499996900558472 33.04315185546875 2.463963508605957 28.26757431030273 4.365118980407715 23.77274131774902 C 6.201741218566895 19.43047523498535 8.831341743469238 15.53040790557861 12.18087482452393 12.18087482452393 C 15.53040790557861 8.831341743469238 19.43047523498535 6.201741218566895 23.77274131774902 4.365118980407715 C 28.26757431030273 2.463963508605957 33.04315185546875 1.499996900558472 37.966796875 1.499996900558472 C 42.89044189453125 1.499996900558472 47.66601943969727 2.463963508605957 52.16086196899414 4.365118980407715 C 56.50312042236328 6.201741218566895 60.4031867980957 8.831341743469238 63.75271987915039 12.18087482452393 C 67.10224914550781 15.53040790557861 69.73184967041016 19.43047523498535 71.56847381591797 23.77274131774902 C 73.46962738037109 28.26757431030273 74.43359375 33.04315185546875 74.43359375 37.966796875 C 74.43359375 42.89044189453125 73.46962738037109 47.66601943969727 71.56847381591797 52.16086196899414 C 69.73184967041016 56.50313186645508 67.10224914550781 60.4031867980957 63.75271987915039 63.75271987915039 C 60.4031867980957 67.10224914550781 56.50313186645508 69.73184967041016 52.16086196899414 71.56847381591797 C 47.66601943969727 73.46962738037109 42.89044189453125 74.43359375 37.966796875 74.43359375 Z" stroke="none"/>
                                      <path d="M 37.966796875 3 C 33.2449836730957 3 28.66600799560547 3.924095153808594 24.35705947875977 5.746635437011719 C 20.19359588623047 7.507637023925781 16.45379638671875 10.02928161621094 13.24153518676758 13.24153518676758 C 10.02927398681641 16.45379638671875 7.507621765136719 20.19359588623047 5.746635437011719 24.35705947875977 C 3.924095153808594 28.66600799560547 3 33.2449836730957 3 37.966796875 C 3 42.6886100769043 3.924095153808594 47.26758575439453 5.746635437011719 51.57653427124023 C 7.507621765136719 55.73999786376953 10.02927398681641 59.47979736328125 13.24153518676758 62.69205856323242 C 16.45379638671875 65.90431976318359 20.19359588623047 68.42597198486328 24.35705947875977 70.18695831298828 C 28.66600799560547 72.00949859619141 33.2449836730957 72.93359375 37.966796875 72.93359375 C 42.6886100769043 72.93359375 47.26758575439453 72.00949859619141 51.57653427124023 70.18695831298828 C 55.73999786376953 68.42597198486328 59.47979736328125 65.90431976318359 62.69205856323242 62.69205856323242 C 65.90431976318359 59.47979736328125 68.42597198486328 55.73999786376953 70.18695831298828 51.57653427124023 C 72.00949859619141 47.26758575439453 72.93359375 42.6886100769043 72.93359375 37.966796875 C 72.93359375 33.2449836730957 72.00949859619141 28.66600799560547 70.18695831298828 24.35705947875977 C 68.42597198486328 20.19359588623047 65.90431976318359 16.45379638671875 62.69205856323242 13.24153518676758 C 59.47979736328125 10.02928161621094 55.73999786376953 7.507637023925781 51.57653427124023 5.746635437011719 C 47.26758575439453 3.924095153808594 42.6886100769043 3 37.966796875 3 M 37.966796875 0 C 58.93528366088867 0 75.93359375 16.99832153320312 75.93359375 37.966796875 C 75.93359375 58.93528366088867 58.93528366088867 75.93359375 37.966796875 75.93359375 C 16.99831008911133 75.93359375 0 58.93528366088867 0 37.966796875 C 0 16.99832153320312 16.99831008911133 0 37.966796875 0 Z" stroke="none" fill="#86b60c"/>
                                    </g>
                                  </g>
                                </g>
                              </g>
                            </g>
                          </g>
                        </g>
                      </g>
                    </g>
                  </g>
                </g>
              </g>
            </g>
          </g>
        </g>
      </g>
      <g id="organizacion" transform="translate(204.4 4301.62)">
        <path id="Path_1077218" data-name="Path 1077218" d="M257.073,165.066A12.107,12.107,0,0,0,245,152.972v2.016a6.042,6.042,0,0,1,4.917,9.525,9.082,9.082,0,0,1,4.129,7.607v.935A12.043,12.043,0,0,0,257.073,165.066Z" transform="translate(-212.684 -132.647)" fill="#71d1d1"/>
        <path id="Path_1077219" data-name="Path 1077219" d="M165.231,152.969a12.087,12.087,0,0,0-9.07,20.084v-.935a9.081,9.081,0,0,1,4.129-7.607,6.042,6.042,0,0,1,4.941-9.526h.024v-2.016Z" transform="translate(-132.936 -132.644)" fill="#a0e0e0"/>
        <path id="Path_1077220" data-name="Path 1077220" d="M80.221,343.971h0v.93h0a4.687,4.687,0,0,1,3.985,7.159,6.907,6.907,0,0,1,2.913,5.549,8.561,8.561,0,0,0-6.9-13.639Z" transform="translate(-69.639 -298.451)" fill="#71d1d1"/>
        <path id="Path_1077221" data-name="Path 1077221" d="M15.28,352.536a8.52,8.52,0,0,0,1.668,5.072,6.9,6.9,0,0,1,2.913-5.549,4.687,4.687,0,0,1,3.985-7.159v-.93A8.577,8.577,0,0,0,15.28,352.536Z" transform="translate(-13.264 -298.449)" fill="#a0e0e0"/>
        <path id="Path_1077222" data-name="Path 1077222" d="M409.106,343.971v.93a4.687,4.687,0,0,1,3.982,7.159A6.908,6.908,0,0,1,416,357.609a8.561,8.561,0,0,0-6.895-13.638Z" transform="translate(-355.139 -298.451)" fill="#71d1d1"/>
        <path id="Path_1077223" data-name="Path 1077223" d="M352.706,343.971a8.561,8.561,0,0,0-6.9,13.638,6.9,6.9,0,0,1,2.913-5.549,4.687,4.687,0,0,1,3.985-7.159h0v-.93Z" transform="translate(-298.743 -298.451)" fill="#a0e0e0"/>
        <path id="Path_1077224" data-name="Path 1077224" d="M413.793,21.068a4.661,4.661,0,0,1-.7,2.469A6.908,6.908,0,0,1,416,29.085a8.561,8.561,0,0,0-6.895-13.638v.93A4.7,4.7,0,0,1,413.793,21.068Z" transform="translate(-355.139 -13.263)" fill="#71d1d1"/>
        <path id="Path_1077225" data-name="Path 1077225" d="M345.807,29.086a6.9,6.9,0,0,1,2.913-5.549,4.687,4.687,0,0,1,3.985-7.159h0v-.93h0a8.561,8.561,0,0,0-6.9,13.638Z" transform="translate(-298.742 -13.264)" fill="#a0e0e0"/>
        <path id="Path_1077226" data-name="Path 1077226" d="M88.811,24.015a8.576,8.576,0,0,0-8.563-8.567v.93a4.687,4.687,0,0,1,3.982,7.159,6.907,6.907,0,0,1,2.913,5.549A8.519,8.519,0,0,0,88.811,24.015Z" transform="translate(-69.662 -13.264)" fill="#71d1d1"/>
        <path id="Path_1077227" data-name="Path 1077227" d="M23.847,15.448a8.561,8.561,0,0,0-6.9,13.638,6.9,6.9,0,0,1,2.913-5.549,4.687,4.687,0,0,1,3.985-7.159h0v-.93Z" transform="translate(-13.264 -13.264)" fill="#a0e0e0"/>
        <path id="Path_1077228" data-name="Path 1077228" d="M194.919,251.578a7.064,7.064,0,0,0-3.581,6.141v2.762a12.064,12.064,0,0,0,3.625,1.78c.02-6.049.906-8.807,1.439-9.92A6.053,6.053,0,0,1,194.919,251.578Z" transform="translate(-166.098 -218.246)" fill="#fdd089"/>
        <path id="Path_1077229" data-name="Path 1077229" d="M229.3,260.481v-2.762a7.065,7.065,0,0,0-3.581-6.141,6.025,6.025,0,0,1-5.465.763c-.533,1.112-1.42,3.87-1.439,9.92a12.07,12.07,0,0,0,10.485-1.78Z" transform="translate(-189.951 -218.246)" fill="#fbb03b"/>
        <path id="Path_1077230" data-name="Path 1077230" d="M224.092,191.612a4.031,4.031,0,0,0,.117-8.06,3.656,3.656,0,0,1-3.266,6.54A4.025,4.025,0,0,0,224.092,191.612Z" transform="translate(-191.797 -159.193)" fill="#fbb03b"/>
        <path id="Path_1077231" data-name="Path 1077231" d="M220.349,186.763a3.655,3.655,0,0,0-1.943-3.23l-.117,0a4.028,4.028,0,0,0-3.15,6.543,3.657,3.657,0,0,0,5.209-3.311Zm-4.557,0a.9.9,0,1,1,.9.9A.9.9,0,0,1,215.791,186.763Z" transform="translate(-185.994 -159.174)" fill="#fdd089"/>
        <path id="Path_1077232" data-name="Path 1077232" d="M45.461,416.415a4.89,4.89,0,0,0-2.338,4.166l-.011,1.869a8.56,8.56,0,0,0,2.195,1.1,19.192,19.192,0,0,1,1.02-6.7A4.69,4.69,0,0,1,45.461,416.415Z" transform="translate(-37.425 -361.338)" fill="#fdd089"/>
        <path id="Path_1077233" data-name="Path 1077233" d="M62.45,423.991a8.515,8.515,0,0,0,4.9-1.547l-.018-1.854A4.895,4.895,0,0,0,65,416.414a4.673,4.673,0,0,1-4.227.442,19.192,19.192,0,0,0-1.02,6.7A8.509,8.509,0,0,0,62.45,423.991Z" transform="translate(-51.868 -361.337)" fill="#fbb03b"/>
        <path id="Path_1077234" data-name="Path 1077234" d="M66.962,374.228a2.672,2.672,0,0,0,1.386-4.958,2.911,2.911,0,0,1-3.4,4.037A2.668,2.668,0,0,0,66.962,374.228Z" transform="translate(-56.38 -320.412)" fill="#fbb03b"/>
        <path id="Path_1077235" data-name="Path 1077235" d="M64.277,367.923a2.9,2.9,0,0,0-.271-1.228,2.67,2.67,0,0,0-3.4,4.037,2.911,2.911,0,0,0,3.672-2.809Zm-2.379-.251a.531.531,0,1,1-.531.531A.531.531,0,0,1,61.9,367.671Z" transform="translate(-52.037 -317.838)" fill="#fdd089"/>
        <path id="Path_1077236" data-name="Path 1077236" d="M374.321,416.415a4.89,4.89,0,0,0-2.338,4.166l-.011,1.869a8.561,8.561,0,0,0,2.269,1.129,19.363,19.363,0,0,1,1.011-6.7A4.689,4.689,0,0,1,374.321,416.415Z" transform="translate(-322.904 -361.338)" fill="#fdd089"/>
        <path id="Path_1077237" data-name="Path 1077237" d="M396.7,422.444l-.018-1.854a4.895,4.895,0,0,0-2.337-4.175,4.667,4.667,0,0,1-4.161.466,19.362,19.362,0,0,0-1.011,6.7,8.545,8.545,0,0,0,7.528-1.134Z" transform="translate(-337.838 -361.337)" fill="#fbb03b"/>
        <path id="Path_1077238" data-name="Path 1077238" d="M394.472,373.824a2.909,2.909,0,0,1-.863-.13,2.673,2.673,0,1,0,3.53-3.945,2.911,2.911,0,0,1-2.668,4.075Z" transform="translate(-341.687 -320.828)" fill="#fbb03b"/>
        <path id="Path_1077239" data-name="Path 1077239" d="M388.8,368.978a2.661,2.661,0,0,0,.634,1.725,2.911,2.911,0,0,0,3.53-3.945,2.673,2.673,0,0,0-4.164,2.22Zm1.709-1.269a.531.531,0,1,1-.531.531A.531.531,0,0,1,390.514,367.709Z" transform="translate(-337.516 -317.837)" fill="#fdd089"/>
        <path id="Path_1077240" data-name="Path 1077240" d="M374.321,87.892a4.89,4.89,0,0,0-2.338,4.166l-.011,1.869a8.56,8.56,0,0,0,2.268,1.129,19.767,19.767,0,0,1,.99-6.705A4.7,4.7,0,0,1,374.321,87.892Z" transform="translate(-322.904 -76.152)" fill="#fdd089"/>
        <path id="Path_1077241" data-name="Path 1077241" d="M396.691,93.921l-.018-1.854a4.895,4.895,0,0,0-2.337-4.175,4.671,4.671,0,0,1-4.184.458,19.766,19.766,0,0,0-.99,6.705,8.543,8.543,0,0,0,7.529-1.134Z" transform="translate(-337.826 -76.151)" fill="#fbb03b"/>
        <path id="Path_1077242" data-name="Path 1077242" d="M394.023,45.418a2.906,2.906,0,0,1-.931-.153,2.672,2.672,0,1,0,3.636-3.832,2.91,2.91,0,0,1-2.7,3.985Z" transform="translate(-341.238 -35.822)" fill="#fbb03b"/>
        <path id="Path_1077243" data-name="Path 1077243" d="M388.8,40.456a2.659,2.659,0,0,0,.566,1.639,2.911,2.911,0,0,0,3.636-3.832,2.671,2.671,0,0,0-4.2,2.193Zm2.028-1.464a.531.531,0,1,1-.531.531A.531.531,0,0,1,390.833,38.992Z" transform="translate(-337.516 -32.651)" fill="#fdd089"/>
        <path id="Path_1077244" data-name="Path 1077244" d="M45.461,87.892a4.89,4.89,0,0,0-2.338,4.166l-.011,1.869a8.562,8.562,0,0,0,2.193,1.1,19.588,19.588,0,0,1,1-6.705A4.694,4.694,0,0,1,45.461,87.892Z" transform="translate(-37.425 -76.152)" fill="#fdd089"/>
        <path id="Path_1077245" data-name="Path 1077245" d="M62.439,95.47a8.516,8.516,0,0,0,4.9-1.547l-.018-1.854a4.894,4.894,0,0,0-2.338-4.175,4.669,4.669,0,0,1-4.249.433,19.591,19.591,0,0,0-1,6.705A8.516,8.516,0,0,0,62.439,95.47Z" transform="translate(-51.857 -76.153)" fill="#fbb03b"/>
        <path id="Path_1077246" data-name="Path 1077246" d="M66.5,45.862a2.672,2.672,0,0,0,1.425-4.934,2.911,2.911,0,0,1-3.51,3.93A2.669,2.669,0,0,0,66.5,45.862Z" transform="translate(-55.915 -35.383)" fill="#fbb03b"/>
        <path id="Path_1077247" data-name="Path 1077247" d="M64.276,39.337a2.9,2.9,0,0,0-.232-1.141,2.671,2.671,0,0,0-3.51,3.93,2.911,2.911,0,0,0,3.743-2.789Zm-2.384-.21a.531.531,0,1,1-.531.531A.531.531,0,0,1,61.892,39.127Z" transform="translate(-52.037 -32.651)" fill="#fdd089"/>
        <path id="Path_1077248" data-name="Path 1077248" d="M53.963,43.5a10.533,10.533,0,0,0-6.733,2.424l-4.276-4.276a14.084,14.084,0,0,0,0-18.469l4.276-4.276a10.593,10.593,0,1,0-1.425-1.425l-4.276,4.276a14.084,14.084,0,0,0-18.469,0l-4.3-4.3a10.6,10.6,0,1,0-1.421,1.429l4.3,4.3a14.084,14.084,0,0,0,0,18.469l-4.3,4.3a10.591,10.591,0,1,0,1.421,1.429l4.3-4.3a14.084,14.084,0,0,0,18.469,0L45.8,47.354A10.578,10.578,0,1,0,53.963,43.5Zm0-41.321h0a8.561,8.561,0,0,1,6.895,13.638,6.908,6.908,0,0,0-2.913-5.549,4.687,4.687,0,0,0-3.982-7.159h0a4.687,4.687,0,0,0-3.985,7.159,6.9,6.9,0,0,0-2.913,5.549,8.561,8.561,0,0,1,6.9-13.639ZM51.336,18.9a8.558,8.558,0,0,1-2.268-1.129l.011-1.869a4.89,4.89,0,0,1,2.338-4.166,4.674,4.674,0,0,0,5.093,0,4.894,4.894,0,0,1,2.338,4.175l.018,1.854A8.544,8.544,0,0,1,51.336,18.9ZM53.963,5.13A2.67,2.67,0,1,1,51.289,7.8,2.657,2.657,0,0,1,53.963,5.13ZM5.687,17.774,5.7,15.906A4.89,4.89,0,0,1,8.036,11.74a4.7,4.7,0,0,0,.844.433,4.669,4.669,0,0,0,4.249-.433,4.894,4.894,0,0,1,2.338,4.175l.018,1.854a8.54,8.54,0,0,1-9.8,0ZM7.908,7.8A2.681,2.681,0,1,1,8.5,9.475,2.678,2.678,0,0,1,7.908,7.8Zm6.66,2.469a4.687,4.687,0,0,0-3.982-7.159h0A4.687,4.687,0,0,0,6.6,10.273a6.9,6.9,0,0,0-2.913,5.549,8.561,8.561,0,0,1,6.9-13.638h0A8.561,8.561,0,0,1,17.48,15.822,6.907,6.907,0,0,0,14.567,10.273Zm2.913,48.885a6.907,6.907,0,0,0-2.913-5.549,4.687,4.687,0,0,0-3.985-7.159h0A4.687,4.687,0,0,0,6.6,53.61a6.9,6.9,0,0,0-2.913,5.549,8.561,8.561,0,0,1,6.9-13.638h0a8.561,8.561,0,0,1,6.9,13.638ZM5.687,61.111,5.7,59.242a4.889,4.889,0,0,1,2.338-4.166,4.674,4.674,0,0,0,5.093,0,4.894,4.894,0,0,1,2.338,4.175l.018,1.854a8.54,8.54,0,0,1-9.8,0Zm2.22-9.97a2.684,2.684,0,1,1,.66,1.754A2.678,2.678,0,0,1,7.908,51.141Zm20.957-7.126a12.061,12.061,0,0,1-3.625-1.78V39.473a7.065,7.065,0,0,1,3.581-6.141,6.027,6.027,0,0,0,6.947,0,7.065,7.065,0,0,1,3.581,6.141v2.762a12.072,12.072,0,0,1-10.485,1.78Zm-.6-15.628a4.036,4.036,0,0,1,4.031-4.031l.117,0a4.027,4.027,0,1,1-4.148,4.029Zm8.973,3.479a6.042,6.042,0,0,0-4.917-9.525h-.024a6.042,6.042,0,0,0-4.941,9.526,9.081,9.081,0,0,0-4.129,7.607v.935a12.087,12.087,0,0,1,9.07-20.084h.024a12.087,12.087,0,0,1,9.046,20.084v-.935A9.081,9.081,0,0,0,37.236,31.866ZM60.861,59.159a6.908,6.908,0,0,0-2.913-5.549,4.687,4.687,0,0,0-3.982-7.159h0a4.687,4.687,0,0,0-3.985,7.159,6.9,6.9,0,0,0-2.913,5.549,8.561,8.561,0,0,1,6.9-13.638h0a8.561,8.561,0,0,1,6.895,13.638ZM51.337,62.24a8.557,8.557,0,0,1-2.269-1.129l.011-1.869a4.889,4.889,0,0,1,2.338-4.166,4.674,4.674,0,0,0,5.093,0,4.894,4.894,0,0,1,2.338,4.175l.018,1.854a8.544,8.544,0,0,1-7.528,1.134Zm2.626-13.774a2.672,2.672,0,1,1-2.674,2.675A2.659,2.659,0,0,1,53.963,48.466Z" transform="translate(0 0)"/>
        <circle id="Ellipse_13439" data-name="Ellipse 13439" cx="0.901" cy="0.901" r="0.901" transform="translate(29.797 26.688)" fill="#fff"/>
        <circle id="Ellipse_13440" data-name="Ellipse 13440" cx="0.531" cy="0.531" r="0.531" transform="translate(9.324 6.476)" fill="#fff"/>
        <circle id="Ellipse_13441" data-name="Ellipse 13441" cx="0.531" cy="0.531" r="0.531" transform="translate(9.329 49.834)" fill="#fff"/>
        <circle id="Ellipse_13442" data-name="Ellipse 13442" cx="0.531" cy="0.531" r="0.531" transform="translate(52.466 49.872)" fill="#fff"/>
        <circle id="Ellipse_13443" data-name="Ellipse 13443" cx="0.531" cy="0.531" r="0.531" transform="translate(52.785 6.34)" fill="#fff"/>
      </g>
    </g>
  </g>
</svg>
