<svg xmlns="http://www.w3.org/2000/svg" xmlns:xlink="http://www.w3.org/1999/xlink" width="93.934" height="93.934" viewBox="0 0 93.934 93.934">
  <defs>
    <filter id="Path_982547" x="0" y="0" width="93.934" height="93.934" filterUnits="userSpaceOnUse">
      <feOffset dy="3" input="SourceAlpha"/>
      <feGaussianBlur stdDeviation="3" result="blur"/>
      <feFlood flood-opacity="0.161"/>
      <feComposite operator="in" in2="blur"/>
      <feComposite in="SourceGraphic"/>
    </filter>
  </defs>
  <g id="Group_1215529" data-name="Group 1215529" transform="translate(-821.066 -1250)">
    <g id="Group_1214499" data-name="Group 1214499">
      <g id="Group_1214140" data-name="Group 1214140" transform="translate(830.066 1256)">
        <g id="Group_1183158" data-name="Group 1183158" transform="translate(0 0)">
          <g id="Group_1179614" data-name="Group 1179614">
            <g id="Group_1175227" data-name="Group 1175227">
              <g id="Group_1167337" data-name="Group 1167337">
                <g id="Group_1166720" data-name="Group 1166720">
                  <g id="Group_1164305" data-name="Group 1164305">
                    <g id="Group_1163948" data-name="Group 1163948">
                      <g id="Group_1158168" data-name="Group 1158168">
                        <g id="Group_1152576" data-name="Group 1152576">
                          <g id="Group_1148633" data-name="Group 1148633">
                            <g id="Group_1148525" data-name="Group 1148525">
                              <g transform="matrix(1, 0, 0, 1, -9, -6)" filter="url(#Path_982547)">
                                <g id="Path_982547-2" data-name="Path 982547" transform="translate(9 6)" fill="#f5f5f5">
                                  <path d="M 37.966796875 74.43359375 C 33.04315185546875 74.43359375 28.26757431030273 73.46962738037109 23.77274131774902 71.56847381591797 C 19.43047523498535 69.73184967041016 15.53040790557861 67.10224914550781 12.18087482452393 63.75271987915039 C 8.831341743469238 60.4031867980957 6.201741218566895 56.50312042236328 4.365118980407715 52.16086196899414 C 2.463963508605957 47.66601943969727 1.499996900558472 42.89044189453125 1.499996900558472 37.966796875 C 1.499996900558472 33.04315185546875 2.463963508605957 28.26757431030273 4.365118980407715 23.77274131774902 C 6.201741218566895 19.43047523498535 8.831341743469238 15.53040790557861 12.18087482452393 12.18087482452393 C 15.53040790557861 8.831341743469238 19.43047523498535 6.201741218566895 23.77274131774902 4.365118980407715 C 28.26757431030273 2.463963508605957 33.04315185546875 1.499996900558472 37.966796875 1.499996900558472 C 42.89044189453125 1.499996900558472 47.66601943969727 2.463963508605957 52.16086196899414 4.365118980407715 C 56.50312042236328 6.201741218566895 60.4031867980957 8.831341743469238 63.75271987915039 12.18087482452393 C 67.10224914550781 15.53040790557861 69.73184967041016 19.43047523498535 71.56847381591797 23.77274131774902 C 73.46962738037109 28.26757431030273 74.43359375 33.04315185546875 74.43359375 37.966796875 C 74.43359375 42.89044189453125 73.46962738037109 47.66601943969727 71.56847381591797 52.16086196899414 C 69.73184967041016 56.50313186645508 67.10224914550781 60.4031867980957 63.75271987915039 63.75271987915039 C 60.4031867980957 67.10224914550781 56.50313186645508 69.73184967041016 52.16086196899414 71.56847381591797 C 47.66601943969727 73.46962738037109 42.89044189453125 74.43359375 37.966796875 74.43359375 Z" stroke="none"/>
                                  <path d="M 37.966796875 3 C 33.2449836730957 3 28.66600799560547 3.924095153808594 24.35705947875977 5.746635437011719 C 20.19359588623047 7.507637023925781 16.45379638671875 10.02928161621094 13.24153518676758 13.24153518676758 C 10.02927398681641 16.45379638671875 7.507621765136719 20.19359588623047 5.746635437011719 24.35705947875977 C 3.924095153808594 28.66600799560547 3 33.2449836730957 3 37.966796875 C 3 42.6886100769043 3.924095153808594 47.26758575439453 5.746635437011719 51.57653427124023 C 7.507621765136719 55.73999786376953 10.02927398681641 59.47979736328125 13.24153518676758 62.69205856323242 C 16.45379638671875 65.90431976318359 20.19359588623047 68.42597198486328 24.35705947875977 70.18695831298828 C 28.66600799560547 72.00949859619141 33.2449836730957 72.93359375 37.966796875 72.93359375 C 42.6886100769043 72.93359375 47.26758575439453 72.00949859619141 51.57653427124023 70.18695831298828 C 55.73999786376953 68.42597198486328 59.47979736328125 65.90431976318359 62.69205856323242 62.69205856323242 C 65.90431976318359 59.47979736328125 68.42597198486328 55.73999786376953 70.18695831298828 51.57653427124023 C 72.00949859619141 47.26758575439453 72.93359375 42.6886100769043 72.93359375 37.966796875 C 72.93359375 33.2449836730957 72.00949859619141 28.66600799560547 70.18695831298828 24.35705947875977 C 68.42597198486328 20.19359588623047 65.90431976318359 16.45379638671875 62.69205856323242 13.24153518676758 C 59.47979736328125 10.02928161621094 55.73999786376953 7.507637023925781 51.57653427124023 5.746635437011719 C 47.26758575439453 3.924095153808594 42.6886100769043 3 37.966796875 3 M 37.966796875 0 C 58.93528366088867 0 75.93359375 16.99832153320312 75.93359375 37.966796875 C 75.93359375 58.93528366088867 58.93528366088867 75.93359375 37.966796875 75.93359375 C 16.99831008911133 75.93359375 0 58.93528366088867 0 37.966796875 C 0 16.99832153320312 16.99831008911133 0 37.966796875 0 Z" stroke="none" fill="#86b60c"/>
                                </g>
                              </g>
                            </g>
                          </g>
                        </g>
                      </g>
                    </g>
                  </g>
                </g>
              </g>
            </g>
          </g>
        </g>
      </g>
      <g id="idea_1_" data-name="idea (1)" transform="translate(833.024 1263.847)">
        <path id="Path_1077058" data-name="Path 1077058" d="M139.05,318.54a2.893,2.893,0,0,0-3.262-1.852l-14.624,2.8a2.89,2.89,0,0,0-.7-5.73L117.1,314a7.908,7.908,0,0,1-4.661-1.12l-3.976-2.4a8.245,8.245,0,0,0-7.952-.319L94,313.412l-2.3,1.581v10.649l2.3,2.482,3.77,1.538a24.313,24.313,0,0,0,17.24.426l22.283-7.828A2.893,2.893,0,0,0,139.05,318.54Z" transform="translate(-81.137 -273.666)" fill="#f1d0a5"/>
        <path id="Path_1077059" data-name="Path 1077059" d="M156.747,342.452a2.889,2.889,0,0,0-.278-.56,2.885,2.885,0,0,1-1.724,1.649l-22.283,7.828a24.25,24.25,0,0,1-15.286.259,4.882,4.882,0,0,1-3.448-4.669V336.307l-2.033,1.016v14.712l3.77,1.538a24.312,24.312,0,0,0,17.24.426l22.283-7.828a2.893,2.893,0,0,0,1.759-3.72Z" transform="translate(-98.834 -297.577)" fill="#f1b986"/>
        <path id="Path_1077060" data-name="Path 1077060" d="M18.006,329.813H8.993A1.492,1.492,0,0,1,7.5,328.321V308.574a1.492,1.492,0,0,1,1.492-1.492h9.013a1.492,1.492,0,0,1,1.492,1.492v19.747A1.492,1.492,0,0,1,18.006,329.813Z" transform="translate(-6.637 -271.717)" fill="#365e7d"/>
        <path id="Path_1077061" data-name="Path 1077061" d="M78.844,307.081H76.255a1.492,1.492,0,0,1,1.492,1.492V328.32a1.492,1.492,0,0,1-1.492,1.492h2.589a1.492,1.492,0,0,0,1.492-1.492V308.573A1.492,1.492,0,0,0,78.844,307.081Z" transform="translate(-67.475 -271.716)" fill="#2b4d66"/>
        <path id="Path_1077062" data-name="Path 1077062" d="M244.5,94.4a9.636,9.636,0,1,0-15.005,8,1.463,1.463,0,0,1,.65,1.213v1.4l1.375,1.4h6.065l2-1.4v-1.4a1.46,1.46,0,0,1,.648-1.211,9.626,9.626,0,0,0,4.27-8Z" transform="translate(-199.293 -74.996)" fill="#f6e266"/>
        <path id="Path_1077063" data-name="Path 1077063" d="M298.8,84.764a9.606,9.606,0,0,0-1.467.092,9.635,9.635,0,0,1,4.043,17.547,1.46,1.46,0,0,0-.648,1.211v1.4l-2,1.4h2.658l2-1.4v-1.4a1.46,1.46,0,0,1,.648-1.211,9.637,9.637,0,0,0-5.233-17.64Z" transform="translate(-263.101 -74.996)" fill="#ecbe6b"/>
        <path id="Path_1077064" data-name="Path 1077064" d="M274.36,266.589h-3.405a3.016,3.016,0,0,1-3.016-3.016V260.65h9.437v2.923A3.016,3.016,0,0,1,274.36,266.589Z" transform="translate(-237.088 -230.631)" fill="#365e7d"/>
        <path id="Path_1077065" data-name="Path 1077065" d="M303.638,260.65v2.923a3.016,3.016,0,0,1-3.016,3.016h2.658a3.016,3.016,0,0,0,3.016-3.016V260.65Z" transform="translate(-266.008 -230.631)" fill="#2b4d66"/>
        <g id="Group_1214498" data-name="Group 1214498" transform="translate(0 0.008)">
          <path id="Path_1077066" data-name="Path 1077066" d="M58.724,309.659a3.741,3.741,0,0,0-4.235-2.4l-11.467,2.192a3.754,3.754,0,0,0-3.756-5.14l-3.363.243a7.01,7.01,0,0,1-4.152-1l-3.976-2.4a9.062,9.062,0,0,0-8.784-.352l-5.267,2.633v-1.492a2.358,2.358,0,0,0-2.355-2.356H2.355A2.358,2.358,0,0,0,0,301.937V306.5a.864.864,0,0,0,1.727,0v-4.561a.629.629,0,0,1,.628-.628h9.013a.629.629,0,0,1,.628.628v19.747a.629.629,0,0,1-.628.628H2.355a.629.629,0,0,1-.628-.628V309.95a.864.864,0,1,0-1.727,0v11.734a2.358,2.358,0,0,0,2.356,2.356h9.013a2.358,2.358,0,0,0,2.355-2.356v-.861l2.58,1.053a25.155,25.155,0,0,0,17.853.441l10.505-3.69A.864.864,0,1,0,44.09,317l-10.505,3.69a23.43,23.43,0,0,1-16.628-.411l-3.233-1.319v-13.6l6.04-3.019a7.343,7.343,0,0,1,7.119.285l3.976,2.4a8.729,8.729,0,0,0,5.169,1.242l3.363-.243a2.026,2.026,0,0,1,.495,4.017l-.012,0-7.124,1.228a18.765,18.765,0,0,1-6.4,0l-2.766-.477a.864.864,0,1,0-.294,1.7l2.766.477a20.482,20.482,0,0,0,6.983,0l7.143-1.232h0l14.624-2.8a2.029,2.029,0,0,1,1.054,3.908l-8.479,2.979a.864.864,0,1,0,.572,1.629l8.479-2.979a3.754,3.754,0,0,0,2.285-4.83Z" transform="translate(0 -265.088)"/>
          <path id="Path_1077067" data-name="Path 1077067" d="M65.861,437.421V435.24a.864.864,0,1,0-1.727,0v2.181a.864.864,0,1,0,1.727,0Z" transform="translate(-56.75 -384.363)"/>
          <path id="Path_1077068" data-name="Path 1077068" d="M302.283,5.449a.863.863,0,0,0,.864-.864V.872a.864.864,0,0,0-1.727,0V4.586A.863.863,0,0,0,302.283,5.449Z" transform="translate(-266.713 -0.008)"/>
          <path id="Path_1077069" data-name="Path 1077069" d="M390.555,49.868l2.626-2.626a.864.864,0,1,0-1.221-1.221l-2.626,2.626a.864.864,0,0,0,1.221,1.221Z" transform="translate(-344.281 -40.498)"/>
          <path id="Path_1077070" data-name="Path 1077070" d="M193.826,49.868a.864.864,0,0,0,1.221-1.221L192.42,46.02a.864.864,0,0,0-1.221,1.221Z" transform="translate(-168.961 -40.498)"/>
          <path id="Path_1077071" data-name="Path 1077071" d="M146.052,157.966h3.714a.864.864,0,1,0,0-1.727h-3.714a.864.864,0,1,0,0,1.727Z" transform="translate(-128.471 -138.25)"/>
          <path id="Path_1077072" data-name="Path 1077072" d="M426.255,157.966h3.714a.864.864,0,1,0,0-1.727h-3.714a.864.864,0,1,0,0,1.727Z" transform="translate(-376.411 -138.25)"/>
          <path id="Path_1077073" data-name="Path 1077073" d="M222.373,96.482a.6.6,0,0,1,.269.5V101.3a3.884,3.884,0,0,0,3.879,3.879h3.405a3.884,3.884,0,0,0,3.879-3.879V96.978a.6.6,0,0,1,.266-.495,10.494,10.494,0,0,0-11.316-17.671.863.863,0,1,0,.9,1.472,8.767,8.767,0,0,1,9.449,14.766,2.32,2.32,0,0,0-1.03,1.928v.536h-2.991V92.293a2.909,2.909,0,0,0,2.04-2.772.864.864,0,1,0-1.727,0,1.176,1.176,0,1,1-2.353,0,.864.864,0,1,0-1.727,0,2.909,2.909,0,0,0,2.04,2.772v5.222h-2.991v-.536a2.324,2.324,0,0,0-1.032-1.93,8.752,8.752,0,0,1-3.884-7.443,8.664,8.664,0,0,1,1.856-5.222.864.864,0,1,0-1.361-1.064,10.479,10.479,0,0,0,2.426,15.163Zm9.706,2.76V101.3a2.155,2.155,0,0,1-2.152,2.152h-3.405a2.155,2.155,0,0,1-2.152-2.152V99.242Z" transform="translate(-192.655 -68.368)"/>
        </g>
      </g>
    </g>
  </g>
</svg>
