<svg xmlns="http://www.w3.org/2000/svg" xmlns:xlink="http://www.w3.org/1999/xlink" width="113" height="113" viewBox="0 0 113 113">
  <defs>
    <filter id="Path_982547" x="0" y="0" width="113" height="113" filterUnits="userSpaceOnUse">
      <feOffset dy="3" input="SourceAlpha"/>
      <feGaussianBlur stdDeviation="3" result="blur"/>
      <feFlood flood-opacity="0.161"/>
      <feComposite operator="in" in2="blur"/>
      <feComposite in="SourceGraphic"/>
    </filter>
  </defs>
  <g id="Group_1215603" data-name="Group 1215603" transform="translate(-158 -2775)">
    <g id="Group_1214682" data-name="Group 1214682" transform="translate(0 53)">
      <g id="Group_1214448" data-name="Group 1214448" transform="translate(3.457 -4393.674)">
        <g id="Group_1207777" data-name="Group 1207777" transform="translate(163.542 7121.674)">
          <g id="Group_1200358" data-name="Group 1200358">
            <g id="Group_1185978" data-name="Group 1185978">
              <g id="Group_1180760" data-name="Group 1180760">
                <g id="Group_1174888" data-name="Group 1174888">
                  <g id="Group_1166845" data-name="Group 1166845">
                    <g id="Group_1166720" data-name="Group 1166720">
                      <g id="Group_1164305" data-name="Group 1164305">
                        <g id="Group_1163948" data-name="Group 1163948">
                          <g id="Group_1158168" data-name="Group 1158168">
                            <g id="Group_1152576" data-name="Group 1152576">
                              <g id="Group_1148633" data-name="Group 1148633">
                                <g id="Group_1148525" data-name="Group 1148525">
                                  <g transform="matrix(1, 0, 0, 1, -9, -6)" filter="url(#Path_982547)">
                                    <g id="Path_982547-2" data-name="Path 982547" transform="translate(9 6)" fill="#f6f3ef">
                                      <path d="M 47.5 93.5 C 41.28937149047852 93.5 35.26533508300781 92.28397369384766 29.59518623352051 89.88570404052734 C 24.11771965026855 87.56893157958984 19.19813346862793 84.25196075439453 14.97309303283691 80.02691650390625 C 10.74804019927979 75.80186462402344 7.431066513061523 70.88229370117188 5.114293098449707 65.40481567382812 C 2.716026782989502 59.73468017578125 1.5 53.71062850952148 1.5 47.5 C 1.5 41.28937149047852 2.716026782989502 35.26533508300781 5.114293098449707 29.59518623352051 C 7.431066513061523 24.11771965026855 10.74804019927979 19.19813346862793 14.97309303283691 14.97309303283691 C 19.19813346862793 10.74804019927979 24.11771965026855 7.431066513061523 29.59518623352051 5.114293098449707 C 35.26533508300781 2.716026782989502 41.28937149047852 1.5 47.5 1.5 C 53.71062850952148 1.5 59.73468017578125 2.716026782989502 65.40481567382812 5.114293098449707 C 70.88229370117188 7.431066513061523 75.80186462402344 10.74804019927979 80.02691650390625 14.97309303283691 C 84.25196075439453 19.19813346862793 87.56893157958984 24.11771965026855 89.88570404052734 29.59518623352051 C 92.28397369384766 35.26533508300781 93.5 41.28937149047852 93.5 47.5 C 93.5 53.71062850952148 92.28397369384766 59.73468017578125 89.88570404052734 65.40481567382812 C 87.56893157958984 70.88229370117188 84.25196075439453 75.80186462402344 80.02691650390625 80.02691650390625 C 75.80186462402344 84.25196075439453 70.88229370117188 87.56893157958984 65.40481567382812 89.88570404052734 C 59.73468017578125 92.28397369384766 53.71062850952148 93.5 47.5 93.5 Z" stroke="none"/>
                                      <path d="M 47.5 3 C 41.49121475219727 3 35.66376876831055 4.176155090332031 30.17950439453125 6.495796203613281 C 24.88084411621094 8.736953735351562 20.12152099609375 11.94598388671875 16.03375244140625 16.03375244140625 C 11.94598388671875 20.12152099609375 8.736953735351562 24.88084411621094 6.495796203613281 30.17950439453125 C 4.176155090332031 35.66376876831055 3 41.49121475219727 3 47.5 C 3 53.50878524780273 4.176155090332031 59.33623123168945 6.495796203613281 64.82049560546875 C 8.736953735351562 70.11915588378906 11.94598388671875 74.87847900390625 16.03375244140625 78.96624755859375 C 20.12152099609375 83.05401611328125 24.88084411621094 86.26304626464844 30.17950439453125 88.50419616699219 C 35.66376876831055 90.82384490966797 41.49121475219727 92 47.5 92 C 53.50878524780273 92 59.33623123168945 90.82384490966797 64.82049560546875 88.50419616699219 C 70.11915588378906 86.26304626464844 74.87847900390625 83.05401611328125 78.96624755859375 78.96624755859375 C 83.05401611328125 74.87847900390625 86.26304626464844 70.11915588378906 88.50419616699219 64.82049560546875 C 90.82384490966797 59.33623123168945 92 53.50878524780273 92 47.5 C 92 41.49121475219727 90.82384490966797 35.66376876831055 88.50419616699219 30.17950439453125 C 86.26304626464844 24.88084411621094 83.05401611328125 20.12152099609375 78.96624755859375 16.03375244140625 C 74.87847900390625 11.94598388671875 70.11915588378906 8.736953735351562 64.82049560546875 6.495796203613281 C 59.33623123168945 4.176155090332031 53.50878524780273 3 47.5 3 M 47.5 0 C 73.7335205078125 0 95 21.2664794921875 95 47.5 C 95 73.7335205078125 73.7335205078125 95 47.5 95 C 21.2664794921875 95 0 73.7335205078125 0 47.5 C 0 21.2664794921875 21.2664794921875 0 47.5 0 Z" stroke="none" fill="#7b776f"/>
                                    </g>
                                  </g>
                                </g>
                              </g>
                            </g>
                          </g>
                        </g>
                      </g>
                    </g>
                  </g>
                </g>
              </g>
            </g>
          </g>
        </g>
      </g>
      <g id="motivacion_1_" data-name="motivacion (1)" transform="translate(173.446 2741.264)">
        <g id="Group_1214664" data-name="Group 1214664" transform="translate(1.419 34.845)">
          <path id="Path_1077628" data-name="Path 1077628" d="M9.321,257.955a1.6,1.6,0,0,1-1.6-1.664,39.669,39.669,0,0,1,79.267,0,1.6,1.6,0,0,1-1.6,1.664Z" transform="translate(-7.723 -218.287)" fill="#d9ecfd"/>
          <path id="Path_1077629" data-name="Path 1077629" d="M282.19,256.295a1.6,1.6,0,0,1-1.6,1.665h-5.118a1.6,1.6,0,0,0,1.6-1.665A39.67,39.67,0,0,0,240,218.373q1.269-.081,2.557-.081A39.669,39.669,0,0,1,282.19,256.295Z" transform="translate(-202.92 -218.291)" fill="#c4e1ff"/>
        </g>
        <g id="Group_1214665" data-name="Group 1214665" transform="translate(6.253 39.712)">
          <path id="Path_1077630" data-name="Path 1077630" d="M38.006,283.576a34.8,34.8,0,1,1,69.6,0Z" transform="translate(-38.006 -248.775)" fill="#31a7fb"/>
          <path id="Path_1077631" data-name="Path 1077631" d="M274.986,283.574h-6.015A34.807,34.807,0,0,0,237.178,248.9q1.487-.127,3.007-.128A34.8,34.8,0,0,1,274.986,283.574Z" transform="translate(-205.384 -248.772)" fill="#1c96f9"/>
          <path id="Path_1077632" data-name="Path 1077632" d="M61.651,316.971H38.008a34.762,34.762,0,0,1,14.764-28.459Z" transform="translate(-38.008 -282.168)" fill="#fb4a59"/>
          <path id="Path_1077633" data-name="Path 1077633" d="M170.571,255.116l-8.879,28.459H139.377L130.5,255.116a34.815,34.815,0,0,1,40.073,0Z" transform="translate(-115.734 -248.772)" fill="#83d167"/>
          <path id="Path_1077634" data-name="Path 1077634" d="M260.247,255.116l-1.259,4.035a34.7,34.7,0,0,0-21.78-10.251q1.485-.127,3-.128A34.636,34.636,0,0,1,260.247,255.116Z" transform="translate(-205.409 -248.772)" fill="#54c032"/>
          <path id="Path_1077635" data-name="Path 1077635" d="M223.373,348.775a6.2,6.2,0,0,1-5.123-11.293c2.178-.988,20.42-5.942,31.224-8.84a1.37,1.37,0,0,1,1.117,2.461C241.294,337.324,225.551,347.787,223.373,348.775Z" transform="translate(-186.419 -315.849)" fill="#fb4a59"/>
        </g>
        <g id="Group_1214677" data-name="Group 1214677" transform="translate(11.341 1.203)">
          <g id="Group_1214667" data-name="Group 1214667" transform="translate(0 51.87)">
            <path id="Path_1077636" data-name="Path 1077636" d="M112.044,332.47l1.352.208a14.725,14.725,0,0,1,12.09,11.156l3.82,16.1H69.88l3.82-16.1a14.725,14.725,0,0,1,12.09-11.156l1.352-.208Z" transform="translate(-69.88 -332.47)" fill="#fcb44d"/>
            <g id="Group_1214666" data-name="Group 1214666" transform="translate(16.382)">
              <path id="Path_1077637" data-name="Path 1077637" d="M181.237,332.47v8.238c-2.257-1.324-5.708.049-7.588,1a.787.787,0,0,1-1.132-.837,15.552,15.552,0,0,1,3.9-8.4Z" transform="translate(-172.506 -332.47)" fill="#fb9927"/>
              <path id="Path_1077638" data-name="Path 1077638" d="M292.412,341.708c-1.88-.952-5.331-2.325-7.588-1V332.47h4.82a15.574,15.574,0,0,1,3.9,8.4A.789.789,0,0,1,292.412,341.708Z" transform="translate(-266.895 -332.47)" fill="#fb9927"/>
            </g>
            <path id="Path_1077639" data-name="Path 1077639" d="M227.209,332.485h9.2v27.464h-9.2Z" transform="translate(-202.095 -332.483)" fill="#ffd496"/>
            <path id="Path_1077640" data-name="Path 1077640" d="M324.177,359.94h-5.149l-3.818-16.1a14.729,14.729,0,0,0-12.091-11.155l-1.351-.208h5.149l1.351.208a14.729,14.729,0,0,1,12.09,11.155Z" transform="translate(-264.752 -332.473)" fill="#fb9927"/>
          </g>
          <g id="Group_1214670" data-name="Group 1214670" transform="translate(22.94 41.604)">
            <g id="Group_1214669" data-name="Group 1214669">
              <path id="Path_1077641" data-name="Path 1077641" d="M227.134,276.361a5.444,5.444,0,0,1-2.791-4.771v-3.427h-7.895v3.426a5.485,5.485,0,0,1-2.86,4.81v.326a6.773,6.773,0,0,0,13.547,0v-.364Z" transform="translate(-213.587 -268.163)" fill="#fda79b"/>
              <g id="Group_1214668" data-name="Group 1214668" transform="translate(1.732 0.001)">
                <path id="Path_1077642" data-name="Path 1077642" d="M234.58,274.923a18.807,18.807,0,0,1-10.143,0,5.468,5.468,0,0,0,1.129-3.326v-3.425h7.894V271.6A5.494,5.494,0,0,0,234.58,274.923Z" transform="translate(-224.437 -268.169)" fill="#fc9085"/>
              </g>
            </g>
          </g>
          <g id="Group_1214671" data-name="Group 1214671" transform="translate(16.382 47.439)">
            <path id="Path_1077643" data-name="Path 1077643" d="M181.237,314.082v-8.42a.788.788,0,0,0-.706-.784l-1.407-.147a3.046,3.046,0,0,0-2.442.847,15.321,15.321,0,0,0-4.166,8.669.788.788,0,0,0,1.132.836C175.529,314.132,178.98,312.757,181.237,314.082Z" transform="translate(-172.505 -304.715)" fill="#fee7c9"/>
            <path id="Path_1077644" data-name="Path 1077644" d="M284.828,314.082v-8.42a.788.788,0,0,1,.706-.784l1.406-.147a3.046,3.046,0,0,1,2.442.847,15.321,15.321,0,0,1,4.166,8.669.788.788,0,0,1-1.132.836C290.536,314.132,287.085,312.757,284.828,314.082Z" transform="translate(-266.898 -304.715)" fill="#fee7c9"/>
          </g>
          <g id="Group_1214676" data-name="Group 1214676" transform="translate(8.507)">
            <path id="Path_1077645" data-name="Path 1077645" d="M139.221,33.408c6.292-7.324,17.982-2.749,19.552-2.121v14.42l-19.55,3.821S134.126,39.338,139.221,33.408Z" transform="translate(-134.757 -25.826)" fill="#6c3328"/>
            <g id="Group_1214672" data-name="Group 1214672" transform="translate(1.506 28.026)">
              <path id="Path_1077646" data-name="Path 1077646" d="M158.165,183.1h.019C158.2,183.206,158.2,183.213,158.165,183.1Z" transform="translate(-154.085 -183.101)" fill="#873f30"/>
              <path id="Path_1077647" data-name="Path 1077647" d="M353.767,183.1c-.022.082-.025.079-.014,0Z" transform="translate(-318.446 -183.101)" fill="#873f30"/>
              <path id="Path_1077648" data-name="Path 1077648" d="M132.606,183.1h.019C132.642,183.206,132.637,183.213,132.606,183.1Z" transform="translate(-132.606 -183.101)" fill="#873f30"/>
              <path id="Path_1077649" data-name="Path 1077649" d="M328.194,183.1h.014C328.186,183.183,328.183,183.18,328.194,183.1Z" transform="translate(-296.967 -183.101)" fill="#873f30"/>
            </g>
            <g id="Group_1214675" data-name="Group 1214675" transform="translate(0 14.288)">
              <g id="Group_1214673" data-name="Group 1214673" transform="translate(0 5.385)">
                <ellipse id="Ellipse_13457" data-name="Ellipse 13457" cx="5.091" cy="4.339" rx="5.091" ry="4.339" transform="matrix(0.338, -0.941, 0.941, 0.338, 30.831, 9.638)" fill="#fda79b"/>
                <ellipse id="Ellipse_13458" data-name="Ellipse 13458" cx="4.339" cy="5.091" rx="4.339" ry="5.091" transform="matrix(0.941, -0.338, 0.338, 0.941, 0, 2.933)" fill="#fda79b"/>
              </g>
              <path id="Path_1077650" data-name="Path 1077650" d="M198.063,102.636v9s0,16.235-13.589,16.235-13.591-16.235-13.591-16.235v-9a5.593,5.593,0,0,1,5.594-5.594H192.47A5.594,5.594,0,0,1,198.063,102.636Z" transform="translate(-163.268 -97.042)" fill="#fcb3a9"/>
              <g id="Group_1214674" data-name="Group 1214674" transform="translate(20.326)">
                <path id="Path_1077651" data-name="Path 1077651" d="M264.972,102.636v4.957H252.843a1.613,1.613,0,0,1-1.557-2.02,12.861,12.861,0,0,0-.784-8.531h8.877a5.594,5.594,0,0,1,5.594,5.594Z" transform="translate(-250.502 -97.042)" fill="#fda79b"/>
              </g>
            </g>
            <path id="Path_1077652" data-name="Path 1077652" d="M235.721,221.887a3.856,3.856,0,0,1-3.856-3.856V216.78h7.711v1.252A3.855,3.855,0,0,1,235.721,221.887Z" transform="translate(-214.514 -183.378)" fill="#f8f3f1"/>
            <path id="Path_1077653" data-name="Path 1077653" d="M211.4,28.633h12.531a3.22,3.22,0,0,0,3.039-2.149,17.415,17.415,0,0,0,.441-8.491C225.845,7.94,212.422,5.033,205.06,9.7c-2.934,1.862-3.844,5.049-3.876,8.213h7.794a12.866,12.866,0,0,1,.862,8.7,1.613,1.613,0,0,0,1.557,2.019Z" transform="translate(-188.731 -7.532)" fill="#6c3328"/>
            <path id="Path_1077654" data-name="Path 1077654" d="M278.115,26.487a3.218,3.218,0,0,1-3.038,2.151h-4.509a3.218,3.218,0,0,0,3.038-2.151,17.423,17.423,0,0,0,.441-8.49c-.95-6.12-6.3-9.593-12-10.317,7.082-.923,15.306,2.581,16.508,10.317A17.421,17.421,0,0,1,278.115,26.487Z" transform="translate(-239.879 -7.535)" fill="#54231d"/>
          </g>
        </g>
        <g id="Group_1214680" data-name="Group 1214680" transform="translate(2.945 25.855)">
          <g id="Group_1214678" data-name="Group 1214678" transform="translate(63.133)">
            <circle id="Ellipse_13459" data-name="Ellipse 13459" cx="6.543" cy="6.543" r="6.543" transform="translate(0 0.001)" fill="#31a7fb"/>
            <path id="Path_1077655" data-name="Path 1077655" d="M442.291,168.51a6.542,6.542,0,0,1-9.966,5.576,5.576,5.576,0,0,0,0-11.152,6.542,6.542,0,0,1,9.966,5.576Z" transform="translate(-429.205 -161.967)" fill="#1c96f9"/>
          </g>
          <g id="Group_1214679" data-name="Group 1214679">
            <circle id="Ellipse_13460" data-name="Ellipse 13460" cx="6.543" cy="6.543" r="6.543" transform="translate(0 0.001)" fill="#fb4a59"/>
            <path id="Path_1077656" data-name="Path 1077656" d="M46.791,168.51a6.542,6.542,0,0,1-9.966,5.576,5.576,5.576,0,0,0,0-11.152,6.542,6.542,0,0,1,9.966,5.576Z" transform="translate(-33.705 -161.967)" fill="#f82f40"/>
          </g>
        </g>
        <g id="Group_1214681" data-name="Group 1214681" transform="translate(0.221 0)">
          <path id="Path_1077657" data-name="Path 1077657" d="M34.1,3.482c-4.544.031-8.142,1.553-10.694,4.523-3.737,4.349-2.557,10.628-1.446,14.144a5.459,5.459,0,0,0-1.535,2.23,6.728,6.728,0,0,0,.012,4.645,6.263,6.263,0,0,0,5.666,4.34c.157,0,.315-.01.472-.025a25.359,25.359,0,0,0,.594,2.73A40.89,40.89,0,0,0,.224,72.8a2.8,2.8,0,0,0,2.793,2.91h8.239l-1.08,4.551a1.2,1.2,0,1,0,2.33.552l3.82-16.1a13.51,13.51,0,0,1,1.42-3.592,1.2,1.2,0,1,0-2.078-1.189A15.913,15.913,0,0,0,14,64.159l-2.172,9.157H7.472A33.509,33.509,0,0,1,20.369,48l1.781,5.71a15.892,15.892,0,0,0-2.366,1.5,1.2,1.2,0,1,0,1.459,1.9,13.572,13.572,0,0,1,6.188-2.647l.02,0a20.435,20.435,0,0,0-.9,3.518,1.982,1.982,0,0,0,2.853,2.1c2.417-1.224,4.5-1.671,5.851-1.284V80.538a1.2,1.2,0,1,0,2.394,0V58.58a8,8,0,0,0,6.8,0V80.539a1.2,1.2,0,0,0,2.394,0V58.8c1.356-.388,3.434.06,5.851,1.284a1.985,1.985,0,0,0,2.853-2.1,20.424,20.424,0,0,0-.9-3.519l.02,0A13.476,13.476,0,0,1,65.783,64.713l3.82,16.1a1.2,1.2,0,1,0,2.33-.552l-1.08-4.551h8.238A2.8,2.8,0,0,0,81.884,72.8a40.83,40.83,0,0,0-5.99-19.653,1.2,1.2,0,0,0-2.04,1.254,38.431,38.431,0,0,1,5.638,18.5.4.4,0,0,1-.4.417h-2.06a35.846,35.846,0,0,0-5.409-17.822A2.57,2.57,0,0,0,69,51.35l-.317.085A35.959,35.959,0,0,0,53.11,40.586a24.68,24.68,0,0,0,1.069-2.244,38.511,38.511,0,0,1,16.407,11.52,1.2,1.2,0,0,0,1.838-1.535A40.9,40.9,0,0,0,54.94,36.071a25.39,25.39,0,0,0,.594-2.732c.158.015.315.025.472.025a6.267,6.267,0,0,0,5.667-4.34c1.134-3.164-.134-6.545-2.831-7.687a4.372,4.372,0,0,0,.37-.785,18.773,18.773,0,0,0,.495-9.072,12.911,12.911,0,0,0-7.855-9.876C46.578-.786,40.02-.482,35.535,2.364A9.209,9.209,0,0,0,34.1,3.482ZM59.42,28.217a3.8,3.8,0,0,1-3.614,2.746c.033-.518.035-.836.035-.881v-6.53a2.716,2.716,0,0,1,1.936-.061C59.407,24.075,60.144,26.2,59.42,28.217Zm-36.731,0a4.334,4.334,0,0,1-.026-2.99,2.841,2.841,0,0,1,1.669-1.736,2.715,2.715,0,0,1,1.935.061v6.53c0,.046,0,.364.035.881a3.8,3.8,0,0,1-3.612-2.746Zm5.239,10.125A24.749,24.749,0,0,0,29,40.585,36.008,36.008,0,0,0,5.077,73.317H3.016a.4.4,0,0,1-.288-.123.4.4,0,0,1-.112-.3A38.719,38.719,0,0,1,27.928,38.341Zm6.29,11.508,1.04.109v6.384a11.328,11.328,0,0,0-6.2,1.246,13.868,13.868,0,0,1,3.673-7.224A2.326,2.326,0,0,1,34.218,49.849Zm1.5-2.251-1.251-.131a4.23,4.23,0,0,0-3.4,1.18,14.067,14.067,0,0,0-2.446,3.228H28.6a1.192,1.192,0,0,0-.182.014l-1.353.208a15.9,15.9,0,0,0-2.7.666l-1.946-6.239a33.717,33.717,0,0,1,7.962-3.884,12.516,12.516,0,0,0,5.54,4.017,4.278,4.278,0,0,1-.2.941Zm8.739,1.991v6.2a5.6,5.6,0,0,1-6.8.007V49.589a9.107,9.107,0,0,0,.6-2.311,16.69,16.69,0,0,0,5.669-.012,9.849,9.849,0,0,0,.535,2.323Zm-3.4-4.469c-5.086,0-8.707-2.464-10.763-7.323a22.56,22.56,0,0,1-1.631-7.715v-9A4.406,4.406,0,0,1,32.742,16.7a1.2,1.2,0,1,0-.168-2.389,6.809,6.809,0,0,0-6.307,6.747,5.073,5.073,0,0,0-2.138,0c-.921-3.081-1.778-8.158,1.091-11.5a10.634,10.634,0,0,1,7.062-3.573A12.88,12.88,0,0,0,31.1,11.575a1.2,1.2,0,0,0,1.185,1.209H32.3A1.2,1.2,0,0,0,33.5,11.6c.035-3.41,1.152-5.838,3.32-7.214,3.771-2.392,9.547-2.639,14.046-.6a10.589,10.589,0,0,1,6.477,8.063,16.454,16.454,0,0,1-.387,7.91,2.025,2.025,0,0,1-1.909,1.349H53.721c2.987-7.44-1.833-13.741-2.051-14.02A1.2,1.2,0,0,0,49.782,8.56c.189.244,4.565,6.024,1.316,12.547H42.514a.4.4,0,0,1-.323-.158.419.419,0,0,1-.075-.368,14.036,14.036,0,0,0-.942-9.513,1.2,1.2,0,0,0-2.159,1.036,11.7,11.7,0,0,1,.788,2.189H38.45a1.2,1.2,0,0,0,0,2.394h1.7a11.471,11.471,0,0,1-.352,3.3A2.81,2.81,0,0,0,42.513,23.5H53.446v6.58a22.418,22.418,0,0,1-1.606,7.656C49.79,42.636,46.161,45.12,41.054,45.12Zm6.853,11.14a6.618,6.618,0,0,0-1.058.082V49.958l1.04-.109a1.844,1.844,0,0,1,1.482.514,13.87,13.87,0,0,1,3.674,7.224,12.835,12.835,0,0,0-5.138-1.327Zm9.838-3.5a16.1,16.1,0,0,0-2.706-.662l-1.352-.208a1.192,1.192,0,0,0-.182-.014h-.017a14.07,14.07,0,0,0-2.446-3.228,4.233,4.233,0,0,0-3.4-1.18l-1.188.124a4.337,4.337,0,0,1-.2-.957,12.517,12.517,0,0,0,5.474-3.993,33.459,33.459,0,0,1,7.958,3.9Zm2.511.95a1.2,1.2,0,0,0-.161.058L59.96,53.7l1.771-5.678a33.788,33.788,0,0,1,4.381,4.1C64.159,52.65,62.175,53.187,60.256,53.708Zm4.392,3.676a15.812,15.812,0,0,0-1.921-1.865c2.3-.624,4.65-1.257,6.89-1.857a.173.173,0,0,1,.141.31c-1.555,1.039-3.29,2.2-5.111,3.412Zm5.636,15.933L68.113,64.16a16,16,0,0,0-2.036-4.851c1.253-.835,2.464-1.643,3.6-2.4a33.455,33.455,0,0,1,4.957,16.412Z" transform="translate(-0.221 0)"/>
          <path id="Path_1077658" data-name="Path 1077658" d="M224.365,210.477v1.252a5.053,5.053,0,1,0,10.105,0v-1.252a1.2,1.2,0,0,0-1.2-1.2h-7.711a1.2,1.2,0,0,0-1.2,1.2Zm2.394,1.2h5.317v.055a2.658,2.658,0,1,1-5.316,0v-.055Z" transform="translate(-188.585 -175.873)"/>
          <path id="Path_1077659" data-name="Path 1077659" d="M279.452,158.928a1.192,1.192,0,0,0,.7-.229,2.282,2.282,0,0,1,2.5,0,1.2,1.2,0,0,0,1.408-1.937,4.67,4.67,0,0,0-5.319,0,1.2,1.2,0,0,0,.7,2.166Z" transform="translate(-233.872 -131.039)"/>
          <path id="Path_1077660" data-name="Path 1077660" d="M194.5,158.435a1.2,1.2,0,0,0,1.672.265,2.282,2.282,0,0,1,2.5,0,1.2,1.2,0,0,0,1.407-1.937,4.669,4.669,0,0,0-5.319,0A1.2,1.2,0,0,0,194.5,158.435Z" transform="translate(-163.296 -131.04)"/>
          <path id="Path_1077661" data-name="Path 1077661" d="M246.823,187.011h.923a1.2,1.2,0,0,0,0-2.394h-.923a1.2,1.2,0,1,0,0,2.394Z" transform="translate(-206.452 -155.147)"/>
          <path id="Path_1077662" data-name="Path 1077662" d="M291.319,82.559a1.2,1.2,0,0,0,1.468-.843,14.4,14.4,0,0,0,.03-4.876,1.2,1.2,0,0,0-2.366.368,12.223,12.223,0,0,1,.025,3.884A1.2,1.2,0,0,0,291.319,82.559Z" transform="translate(-244.108 -63.722)"/>
          <path id="Path_1077663" data-name="Path 1077663" d="M413.021,169.951a7.74,7.74,0,1,0-7.74-7.74A7.748,7.748,0,0,0,413.021,169.951Zm0-13.085a5.345,5.345,0,1,1-5.345,5.345A5.351,5.351,0,0,1,413.021,156.865Z" transform="translate(-340.622 -129.813)"/>
          <path id="Path_1077664" data-name="Path 1077664" d="M434.056,186.583H435v.943a1.2,1.2,0,1,0,2.394,0v-.943h.943a1.2,1.2,0,1,0,0-2.394h-.943v-.943a1.2,1.2,0,1,0-2.394,0v.943h-.943a1.2,1.2,0,1,0,0,2.394Z" transform="translate(-363.797 -152.988)"/>
          <path id="Path_1077665" data-name="Path 1077665" d="M17.521,169.951a7.74,7.74,0,1,0-7.74-7.74A7.749,7.749,0,0,0,17.521,169.951Zm0-13.085a5.345,5.345,0,1,1-5.345,5.345A5.351,5.351,0,0,1,17.521,156.865Z" transform="translate(-8.255 -129.813)"/>
          <path id="Path_1077666" data-name="Path 1077666" d="M38.555,197.851h4.281a1.2,1.2,0,1,0,0-2.394H38.555a1.2,1.2,0,1,0,0,2.394Z" transform="translate(-31.43 -164.256)"/>
          <path id="Path_1077667" data-name="Path 1077667" d="M364.242,416.087a1.2,1.2,0,0,0-1.2,1.2v12.529a1.2,1.2,0,0,0,2.394,0V417.284A1.2,1.2,0,0,0,364.242,416.087Z" transform="translate(-305.128 -349.667)"/>
          <path id="Path_1077668" data-name="Path 1077668" d="M135.188,416.087a1.2,1.2,0,0,0-1.2,1.2v12.529a1.2,1.2,0,0,0,2.394,0V417.284A1.2,1.2,0,0,0,135.188,416.087Z" transform="translate(-112.637 -349.667)"/>
        </g>
      </g>
    </g>
  </g>
</svg>
