<svg xmlns="http://www.w3.org/2000/svg" xmlns:xlink="http://www.w3.org/1999/xlink" width="93.934" height="93.934" viewBox="0 0 93.934 93.934">
  <defs>
    <filter id="Path_982547" x="0" y="0" width="93.934" height="93.934" filterUnits="userSpaceOnUse">
      <feOffset dy="3" input="SourceAlpha"/>
      <feGaussianBlur stdDeviation="3" result="blur"/>
      <feFlood flood-opacity="0.161"/>
      <feComposite operator="in" in2="blur"/>
      <feComposite in="SourceGraphic"/>
    </filter>
  </defs>
  <g id="Group_1215592" data-name="Group 1215592" transform="translate(-500.066 -5021)">
    <g id="Group_1214638" data-name="Group 1214638" transform="translate(0 -257)">
      <g id="Group_1214436" data-name="Group 1214436" transform="translate(308 -2588.674)">
        <g id="Group_1183196" data-name="Group 1183196" transform="translate(1 1016.674)">
          <g id="Group_1179610" data-name="Group 1179610" transform="translate(8 4723.467)">
            <g id="Group_1175227" data-name="Group 1175227" transform="translate(-5.967 140.533)">
              <g id="Group_1167337" data-name="Group 1167337" transform="translate(198.033 1992)">
                <g id="Group_1166720" data-name="Group 1166720">
                  <g id="Group_1164305" data-name="Group 1164305">
                    <g id="Group_1163948" data-name="Group 1163948">
                      <g id="Group_1158168" data-name="Group 1158168">
                        <g id="Group_1152576" data-name="Group 1152576">
                          <g id="Group_1148633" data-name="Group 1148633">
                            <g id="Group_1148525" data-name="Group 1148525">
                              <g transform="matrix(1, 0, 0, 1, -9, -6)" filter="url(#Path_982547)">
                                <g id="Path_982547-2" data-name="Path 982547" transform="translate(9 6)" fill="#f5f5f5">
                                  <path d="M 37.966796875 74.43359375 C 33.04315185546875 74.43359375 28.26757431030273 73.46962738037109 23.77274131774902 71.56847381591797 C 19.43047523498535 69.73184967041016 15.53040790557861 67.10224914550781 12.18087482452393 63.75271987915039 C 8.831341743469238 60.4031867980957 6.201741218566895 56.50312042236328 4.365118980407715 52.16086196899414 C 2.463963508605957 47.66601943969727 1.499996900558472 42.89044189453125 1.499996900558472 37.966796875 C 1.499996900558472 33.04315185546875 2.463963508605957 28.26757431030273 4.365118980407715 23.77274131774902 C 6.201741218566895 19.43047523498535 8.831341743469238 15.53040790557861 12.18087482452393 12.18087482452393 C 15.53040790557861 8.831341743469238 19.43047523498535 6.201741218566895 23.77274131774902 4.365118980407715 C 28.26757431030273 2.463963508605957 33.04315185546875 1.499996900558472 37.966796875 1.499996900558472 C 42.89044189453125 1.499996900558472 47.66601943969727 2.463963508605957 52.16086196899414 4.365118980407715 C 56.50312042236328 6.201741218566895 60.4031867980957 8.831341743469238 63.75271987915039 12.18087482452393 C 67.10224914550781 15.53040790557861 69.73184967041016 19.43047523498535 71.56847381591797 23.77274131774902 C 73.46962738037109 28.26757431030273 74.43359375 33.04315185546875 74.43359375 37.966796875 C 74.43359375 42.89044189453125 73.46962738037109 47.66601943969727 71.56847381591797 52.16086196899414 C 69.73184967041016 56.50313186645508 67.10224914550781 60.4031867980957 63.75271987915039 63.75271987915039 C 60.4031867980957 67.10224914550781 56.50313186645508 69.73184967041016 52.16086196899414 71.56847381591797 C 47.66601943969727 73.46962738037109 42.89044189453125 74.43359375 37.966796875 74.43359375 Z" stroke="none"/>
                                  <path d="M 37.966796875 3 C 33.2449836730957 3 28.66600799560547 3.924095153808594 24.35705947875977 5.746635437011719 C 20.19359588623047 7.507637023925781 16.45379638671875 10.02928161621094 13.24153518676758 13.24153518676758 C 10.02927398681641 16.45379638671875 7.507621765136719 20.19359588623047 5.746635437011719 24.35705947875977 C 3.924095153808594 28.66600799560547 3 33.2449836730957 3 37.966796875 C 3 42.6886100769043 3.924095153808594 47.26758575439453 5.746635437011719 51.57653427124023 C 7.507621765136719 55.73999786376953 10.02927398681641 59.47979736328125 13.24153518676758 62.69205856323242 C 16.45379638671875 65.90431976318359 20.19359588623047 68.42597198486328 24.35705947875977 70.18695831298828 C 28.66600799560547 72.00949859619141 33.2449836730957 72.93359375 37.966796875 72.93359375 C 42.6886100769043 72.93359375 47.26758575439453 72.00949859619141 51.57653427124023 70.18695831298828 C 55.73999786376953 68.42597198486328 59.47979736328125 65.90431976318359 62.69205856323242 62.69205856323242 C 65.90431976318359 59.47979736328125 68.42597198486328 55.73999786376953 70.18695831298828 51.57653427124023 C 72.00949859619141 47.26758575439453 72.93359375 42.6886100769043 72.93359375 37.966796875 C 72.93359375 33.2449836730957 72.00949859619141 28.66600799560547 70.18695831298828 24.35705947875977 C 68.42597198486328 20.19359588623047 65.90431976318359 16.45379638671875 62.69205856323242 13.24153518676758 C 59.47979736328125 10.02928161621094 55.73999786376953 7.507637023925781 51.57653427124023 5.746635437011719 C 47.26758575439453 3.924095153808594 42.6886100769043 3 37.966796875 3 M 37.966796875 0 C 58.93528366088867 0 75.93359375 16.99832153320312 75.93359375 37.966796875 C 75.93359375 58.93528366088867 58.93528366088867 75.93359375 37.966796875 75.93359375 C 16.99831008911133 75.93359375 0 58.93528366088867 0 37.966796875 C 0 16.99832153320312 16.99831008911133 0 37.966796875 0 Z" stroke="none" fill="#86b60c"/>
                                </g>
                              </g>
                            </g>
                          </g>
                        </g>
                      </g>
                    </g>
                  </g>
                </g>
              </g>
            </g>
          </g>
        </g>
      </g>
      <g id="acuerdo" transform="translate(520.008 5292.948)">
        <g id="Group_1214618" data-name="Group 1214618" transform="translate(1.055 1.056)">
          <g id="Group_1214617" data-name="Group 1214617" transform="translate(0 19.064)">
            <g id="Group_1214616" data-name="Group 1214616" transform="translate(9.334 0)">
              <path id="Path_1077532" data-name="Path 1077532" d="M103.907,374.671a2.27,2.27,0,0,0-3.22,0l-1.61,1.623a2.316,2.316,0,0,0,0,3.246,2.27,2.27,0,0,0,3.22,0l.8-.812.8-.812a2.316,2.316,0,0,0,0-3.246Z" transform="translate(-98.413 -354.637)" fill="#ffdcd5" fill-rule="evenodd"/>
              <path id="Path_1077533" data-name="Path 1077533" d="M138.812,397.734l-.8.812-.8.812a2.315,2.315,0,0,0,0,3.246,2.27,2.27,0,0,0,3.22,0l.8-.812.8-.812a2.316,2.316,0,0,0,0-3.246A2.27,2.27,0,0,0,138.812,397.734Z" transform="translate(-132.513 -375.266)" fill="#ffdcd5" fill-rule="evenodd"/>
              <path id="Path_1077534" data-name="Path 1077534" d="M176.937,420.8l-.8.812-.8.812a2.316,2.316,0,0,0,0,3.246,2.27,2.27,0,0,0,3.22,0l.8-.812.8-.812a2.316,2.316,0,0,0,0-3.246A2.27,2.27,0,0,0,176.937,420.8Z" transform="translate(-166.613 -395.895)" fill="#ffdcd5" fill-rule="evenodd"/>
              <path id="Path_1077535" data-name="Path 1077535" d="M215.062,443.86l-.805.812-.8.812a2.316,2.316,0,0,0,0,3.246,2.27,2.27,0,0,0,3.22,0l1.61-1.623a2.275,2.275,0,0,0,.384-.515,2.319,2.319,0,0,0-.384-2.732,2.27,2.27,0,0,0-3.22,0Z" transform="translate(-200.713 -416.522)" fill="#ffdcd5" fill-rule="evenodd"/>
              <path id="Path_1077536" data-name="Path 1077536" d="M173.8,200.647a7.662,7.662,0,0,0,4.636,2.118l8.432,8.579,5.909-.6L191.1,193.875l-2.846.287-4.741-2.832a3.481,3.481,0,0,0-2.887-.7l-6.366.608-1.112.106a3.115,3.115,0,0,0-2.815,1.868c-1.988,3.508-3.506,5.828-5.473,9.263a1.48,1.48,0,0,0,1.322,2.321c3.884,0,4.775-.78,6.138-2.4Z" transform="translate(-157.624 -190.578)" fill="#ffdcd5" fill-rule="evenodd"/>
            </g>
            <path id="Path_1077537" data-name="Path 1077537" d="M89.749,202.475c1.967-3.435,3.485-5.755,5.473-9.263a3.115,3.115,0,0,1,2.815-1.868l1.112-.106-6.366-.608a3.48,3.48,0,0,0-2.887.7l-4.741,2.832-2.846-.287-1.673,16.873,3.65.368.5-.5a2.27,2.27,0,0,1,3.22,0,2.316,2.316,0,0,1,0,3.246l.8-.812a2.27,2.27,0,0,1,3.22,0,2.316,2.316,0,0,1,0,3.246l.8-.812a2.27,2.27,0,0,1,3.22,0,2.316,2.316,0,0,1,0,3.246l.805-.812a2.27,2.27,0,0,1,3.22,0,2.319,2.319,0,0,1,.384,2.732,2.775,2.775,0,0,0,4.959-1.744,2.5,2.5,0,0,0,4.24-2.238c2.593,1.509,5.721-1.665,3.512-3.874l-1.423-1.447-8.432-8.579a7.664,7.664,0,0,1-4.636-2.118L97.208,202.4c-1.363,1.618-2.253,2.4-6.137,2.4a1.48,1.48,0,0,1-1.322-2.321Z" transform="translate(-73.178 -190.578)" fill="#f5c6af" fill-rule="evenodd"/>
            <path id="Path_1077538" data-name="Path 1077538" d="M17.458,214.808l1.674-16.873a2.3,2.3,0,0,0-2.039-2.513l-2.914-.294a2.288,2.288,0,0,0-2.492,2.056l-1.674,16.873a2.3,2.3,0,0,0,2.039,2.513l2.914.294a2.288,2.288,0,0,0,2.492-2.056Z" transform="translate(-10.002 -194.638)" fill="#ff5d7d" fill-rule="evenodd"/>
            <path id="Path_1077539" data-name="Path 1077539" d="M415.417,197.936l1.674,16.873a2.288,2.288,0,0,0,2.492,2.056l2.914-.294a2.3,2.3,0,0,0,2.039-2.513l-1.674-16.873a2.288,2.288,0,0,0-2.492-2.056l-2.914.294A2.3,2.3,0,0,0,415.417,197.936Z" transform="translate(-372.607 -194.639)" fill="#99ebfa" fill-rule="evenodd"/>
          </g>
          <path id="Path_1077540" data-name="Path 1077540" d="M199.265,68.633a2.111,2.111,0,0,0,0,2.986L202,74.353a2.111,2.111,0,0,0,2.986,0l5.153-5.153a2.111,2.111,0,1,0-2.986-2.986l-3.66,3.66-1.242-1.242A2.111,2.111,0,0,0,199.265,68.633Z" transform="translate(-178.731 -59.727)" fill="#fff" fill-rule="evenodd"/>
          <path id="Path_1077541" data-name="Path 1077541" d="M166.841,24.626a2.111,2.111,0,0,1-2.986,0l-2.734-2.734a2.111,2.111,0,0,1,2.986-2.986l1.242,1.242,3.66-3.66a2.111,2.111,0,0,1,2.986,2.986Zm10.273-4.069a10.555,10.555,0,1,0-4.4,8.58A10.557,10.557,0,0,0,177.115,20.557Z" transform="translate(-140.588 -10)" fill="#b8ecbc" fill-rule="evenodd"/>
        </g>
        <g id="Group_1214619" data-name="Group 1214619" transform="translate(-0.001)">
          <path id="Path_1077542" data-name="Path 1077542" d="M54.035,39.434,52.361,22.561A3.332,3.332,0,0,0,51.146,20.3a3.3,3.3,0,0,0-2.434-.737l-2.914.294h0a3.345,3.345,0,0,0-2.918,2.6l-1.619.163L36.82,19.964a10.147,10.147,0,0,0-1.144-.613,11.613,11.613,0,1,0-17.3,0,10.138,10.138,0,0,0-1.144.613L12.79,22.618l-1.619-.163a3.345,3.345,0,0,0-2.918-2.6l-2.914-.294A3.3,3.3,0,0,0,2.9,20.3,3.332,3.332,0,0,0,1.69,22.561l-.6,6.021a1.056,1.056,0,0,0,2.1.208l.6-6.021a1.235,1.235,0,0,1,.451-.839,1.2,1.2,0,0,1,.885-.27l2.914.294a1.236,1.236,0,0,1,1.094,1.358L7.461,40.185a1.235,1.235,0,0,1-.451.839,1.2,1.2,0,0,1-.885.27L3.211,41a1.236,1.236,0,0,1-1.094-1.358l.139-1.4a1.056,1.056,0,1,0-2.1-.208l-.139,1.4A3.35,3.35,0,0,0,3,43.1l2.914.294a3.358,3.358,0,0,0,.336.017,3.3,3.3,0,0,0,2.1-.754,3.342,3.342,0,0,0,.941-1.23l.635.064a3.372,3.372,0,0,0,.38,4.273,3.3,3.3,0,0,0,2.359.982,3.36,3.36,0,0,0,.795-.095,3.333,3.333,0,0,0,.871,1.548,3.3,3.3,0,0,0,2.359.982h0a3.354,3.354,0,0,0,.795-.095,3.334,3.334,0,0,0,.871,1.548,3.3,3.3,0,0,0,2.359.982,3.36,3.36,0,0,0,.795-.095,3.334,3.334,0,0,0,.871,1.548,3.326,3.326,0,0,0,4.719,0l1.383-1.394a3.891,3.891,0,0,0,2.088.62,3.828,3.828,0,0,0,3.467-2.237,3.315,3.315,0,0,0,2.932-.331,3.729,3.729,0,0,0,1.556-2.1,4.063,4.063,0,0,0,3.594-1.535,3.3,3.3,0,0,0-.195-4.378l2.84-.286a3.342,3.342,0,0,0,.941,1.229,3.3,3.3,0,0,0,2.1.754,3.358,3.358,0,0,0,.336-.017l2.914-.294a3.35,3.35,0,0,0,2.984-3.667ZM40.477,24.61a1.055,1.055,0,0,0,.541.149c.035,0,.071,0,.106-.005l1.794-.181,1.465,14.772-4.357.439-6.42-6.532q.4-.078.8-.195a1.056,1.056,0,1,0-.6-2.023,6.763,6.763,0,0,1-6.494-1.589,1.056,1.056,0,0,0-1.557.063L24.278,31.26c-1.134,1.346-1.7,2.022-5.33,2.022a.511.511,0,0,1-.469-.2.562.562,0,0,1,.063-.543c.93-1.624,1.773-3.021,2.589-4.372.9-1.5,1.837-3.043,2.886-4.895.082-.145.16-.272.236-.384a11.6,11.6,0,0,0,9.292-1.672,2.487,2.487,0,0,1,2.192.56ZM27.025,2.111a9.5,9.5,0,1,1-9.5,9.5,9.512,9.512,0,0,1,9.5-9.5ZM12.663,44.636a1.2,1.2,0,0,1-.86-.357,1.253,1.253,0,0,1,0-1.76l1.61-1.623a1.215,1.215,0,0,1,1.721,0,1.253,1.253,0,0,1,0,1.76l-.8.812h0l0,0-.8.807a1.2,1.2,0,0,1-.86.357Zm4.025,2.435a1.2,1.2,0,0,1-.86-.357,1.253,1.253,0,0,1,0-1.759h0l.8-.812h0l.8-.811a1.215,1.215,0,0,1,1.721,0,1.253,1.253,0,0,1,0,1.76l-.8.812h0l-.8.811A1.2,1.2,0,0,1,16.688,47.071Zm4.025,2.435a1.2,1.2,0,0,1-.86-.357,1.253,1.253,0,0,1,0-1.759h0l.8-.812h0l.8-.811a1.215,1.215,0,0,1,1.721,0,1.253,1.253,0,0,1,0,1.759h0l-.8.812h0l-.8.811a1.2,1.2,0,0,1-.86.357ZM25.6,51.583a1.215,1.215,0,0,1-1.721,0,1.253,1.253,0,0,1,0-1.757l0,0h0l.8-.812h0l.8-.811a1.214,1.214,0,0,1,1.721,0,1.253,1.253,0,0,1,0,1.759ZM40.444,44.8a1.821,1.821,0,0,1-2.373.49,1.056,1.056,0,0,0-1.554,1.174,1.5,1.5,0,0,1-.689,1.481,1.572,1.572,0,0,1-1.863-.324,1.056,1.056,0,0,0-1.721.856,1.639,1.639,0,0,1-1.014,1.564,1.708,1.708,0,0,1-1.648-.167,3.367,3.367,0,0,0-.876-3.164,3.3,3.3,0,0,0-2.36-.982,3.358,3.358,0,0,0-.795.095,3.334,3.334,0,0,0-.871-1.548,3.3,3.3,0,0,0-2.359-.982h0a3.359,3.359,0,0,0-.795.095,3.336,3.336,0,0,0-.871-1.548,3.3,3.3,0,0,0-2.36-.982,3.358,3.358,0,0,0-.795.095,3.335,3.335,0,0,0-.871-1.548h0a3.326,3.326,0,0,0-4.719,0l-.146.147-2.1-.212,1.465-14.772,1.794.181a1.057,1.057,0,0,0,.647-.144l4.741-2.832a2.487,2.487,0,0,1,2.192-.56,11.611,11.611,0,0,0,1.706.962l-.031.054c-1.035,1.827-1.961,3.361-2.857,4.845-.822,1.362-1.672,2.77-2.614,4.414a2.633,2.633,0,0,0-.057,2.651,2.6,2.6,0,0,0,2.3,1.25c4.155,0,5.357-.888,6.945-2.773l.788-.935a8.816,8.816,0,0,0,4.031,1.632l9.594,9.761a1.2,1.2,0,0,1,.139,1.726Zm10.4-3.8-2.914.294a1.2,1.2,0,0,1-.885-.271,1.235,1.235,0,0,1-.451-.839L44.916,23.312a1.236,1.236,0,0,1,1.094-1.358h0l2.915-.294a1.2,1.2,0,0,1,.885.27,1.235,1.235,0,0,1,.451.839l1.674,16.873A1.236,1.236,0,0,1,50.839,41Z" transform="translate(0.001)"/>
          <path id="Path_1077543" data-name="Path 1077543" d="M192.308,66.155a3.167,3.167,0,0,0,4.479,0L201.94,61a3.167,3.167,0,0,0-4.479-4.479l-2.914,2.914-.5-.5a3.167,3.167,0,1,0-4.479,4.479Zm-1.241-5.72a1.055,1.055,0,0,1,1.493,0l1.242,1.242a1.056,1.056,0,0,0,1.493,0l3.66-3.66a1.055,1.055,0,1,1,1.493,1.493l-5.153,5.153a1.055,1.055,0,0,1-1.493,0l-2.734-2.734A1.056,1.056,0,0,1,191.067,60.435Z" transform="translate(-168.731 -49.727)"/>
          <path id="Path_1077544" data-name="Path 1077544" d="M6.916,308.625a1.056,1.056,0,1,0,0-2.111h0a1.056,1.056,0,0,0,0,2.111Z" transform="translate(-5.241 -274.155)"/>
          <path id="Path_1077545" data-name="Path 1077545" d="M349.42,267.737a1.056,1.056,0,1,0,0-2.111h0a1.056,1.056,0,0,0,0,2.111Z" transform="translate(-311.587 -237.584)"/>
        </g>
      </g>
    </g>
  </g>
</svg>
