<svg xmlns="http://www.w3.org/2000/svg" xmlns:xlink="http://www.w3.org/1999/xlink" width="108" height="108" viewBox="0 0 108 108">
  <defs>
    <filter id="Path_904820" x="0" y="0" width="108" height="108" filterUnits="userSpaceOnUse">
      <feOffset dy="3" input="SourceAlpha"/>
      <feGaussianBlur stdDeviation="3" result="blur"/>
      <feFlood flood-opacity="0.161"/>
      <feComposite operator="in" in2="blur"/>
      <feComposite in="SourceGraphic"/>
    </filter>
  </defs>
  <g id="Group_1218543" data-name="Group 1218543" transform="translate(-198.999 -12350)">
    <g id="Group_1218375" data-name="Group 1218375">
      <g id="Group_1217680" data-name="Group 1217680" transform="translate(207.999 12356)">
        <g id="Group_1216209" data-name="Group 1216209" transform="translate(0 0)">
          <g id="Group_1214441" data-name="Group 1214441">
            <g id="Group_1207774" data-name="Group 1207774">
              <g id="Group_1206630" data-name="Group 1206630">
                <g id="Group_1185091" data-name="Group 1185091">
                  <g id="Group_1179560" data-name="Group 1179560">
                    <g id="Group_1173787" data-name="Group 1173787">
                      <g id="Group_1171910" data-name="Group 1171910">
                        <g id="Group_1167341" data-name="Group 1167341">
                          <g id="Group_1166792" data-name="Group 1166792">
                            <g transform="matrix(1, 0, 0, 1, -9, -6)" filter="url(#Path_904820)">
                              <g id="Path_904820-2" data-name="Path 904820" transform="translate(9 6)" fill="#f2f7e5">
                                <path d="M 44.99999618530273 88.50005340576172 C 39.12687301635742 88.50005340576172 33.43022155761719 87.35012817382812 28.06829643249512 85.08221435546875 C 22.88852119445801 82.89136505126953 18.23629570007324 79.754638671875 14.24084663391113 75.75918579101562 C 10.24540901184082 71.76374053955078 7.108683586120605 67.11151123046875 4.917821407318115 61.93173980712891 C 2.649921178817749 56.56980133056641 1.499996185302734 50.87314987182617 1.499996185302734 45.00002670288086 C 1.499996185302734 39.12690353393555 2.649921178817749 33.43025207519531 4.917821407318115 28.06831359863281 C 7.108683586120605 22.8885383605957 10.24540901184082 18.23631477355957 14.24084663391113 14.24086380004883 C 18.23629570007324 10.2454137802124 22.88852119445801 7.108689308166504 28.06829643249512 4.917839050292969 C 33.43022155761719 2.649926662445068 39.12687301635742 1.500001668930054 44.99999618530273 1.500001668930054 C 50.87311935424805 1.500001668930054 56.56977081298828 2.649926662445068 61.93169784545898 4.917839050292969 C 67.11147308349609 7.108689308166504 71.76369476318359 10.2454137802124 75.75914764404297 14.24086380004883 C 79.75458526611328 18.23631477355957 82.89131164550781 22.8885383605957 85.08216857910156 28.06831359863281 C 87.35007476806641 33.43025207519531 88.5 39.12690353393555 88.5 45.00002670288086 C 88.5 50.87314987182617 87.35007476806641 56.56980133056641 85.08216857910156 61.93173980712891 C 82.89131164550781 67.11151123046875 79.75458526611328 71.76374053955078 75.75914764404297 75.75918579101562 C 71.76369476318359 79.754638671875 67.11147308349609 82.89136505126953 61.93169784545898 85.08221435546875 C 56.56977081298828 87.35012817382812 50.87311935424805 88.50005340576172 44.99999618530273 88.50005340576172 Z" stroke="none"/>
                                <path d="M 44.99999618530273 3 C 39.32870864868164 3 33.82865142822266 4.110054016113281 28.65262603759766 6.299339294433594 C 23.65165710449219 8.414566040039062 19.15968322753906 11.44334411621094 15.301513671875 15.30152893066406 C 11.44333648681641 19.15969848632812 8.414566040039062 23.65167236328125 6.299339294433594 28.65264129638672 C 4.110054016113281 33.82868194580078 2.999992370605469 39.32873916625977 2.999992370605469 45.00002670288086 C 2.999992370605469 50.67131423950195 4.110054016113281 56.17137145996094 6.299339294433594 61.347412109375 C 8.414566040039062 66.34838104248047 11.44333648681641 70.84035491943359 15.301513671875 74.69852447509766 C 19.15968322753906 78.55670928955078 23.65165710449219 81.58547973632812 28.65262603759766 83.70071411132812 C 33.82865142822266 85.88999938964844 39.32870864868164 87.00005340576172 44.99999618530273 87.00005340576172 C 50.67128372192383 87.00005340576172 56.17134094238281 85.88999938964844 61.34736633300781 83.70071411132812 C 66.34834289550781 81.58547973632812 70.84030914306641 78.55670928955078 74.69847869873047 74.69852447509766 C 78.55665588378906 70.84035491943359 81.58542633056641 66.34838104248047 83.70065307617188 61.347412109375 C 85.88993835449219 56.17137145996094 87 50.67131423950195 87 45.00002670288086 C 87 39.32873916625977 85.88993835449219 33.82868194580078 83.70065307617188 28.65264129638672 C 81.58542633056641 23.65167236328125 78.55665588378906 19.15969848632812 74.69847869873047 15.30152893066406 C 70.84030914306641 11.44334411621094 66.34834289550781 8.414566040039062 61.34736633300781 6.299339294433594 C 56.17134094238281 4.110054016113281 50.67128372192383 3 44.99999618530273 3 M 44.99999618530273 0 C 69.85281372070312 0 90 20.14720153808594 90 45.00002670288086 C 90 69.85285949707031 69.85281372070312 90.00005340576172 44.99999618530273 90.00005340576172 C 20.14717864990234 90.00005340576172 -7.62939453125e-06 69.85285949707031 -7.62939453125e-06 45.00002670288086 C -7.62939453125e-06 20.14720153808594 20.14717864990234 0 44.99999618530273 0 Z" stroke="none" fill="#496406"/>
                              </g>
                            </g>
                          </g>
                        </g>
                      </g>
                    </g>
                  </g>
                </g>
              </g>
            </g>
          </g>
        </g>
      </g>
      <g id="determinacion" transform="translate(209.394 12364.121)">
        <path id="Path_1090659" data-name="Path 1090659" d="M36.086,62.577a25.342,25.342,0,0,0,25.281,0l5.138,3.446,7.1-7.1-3.446-5.138,2.664-6.422,6.066-1.2V36.119l-6.066-1.2L70.162,28.5l3.446-5.138-7.1-7.1-5.138,3.446-6.422-2.664-1.2-6.066H43.7l-1.2,6.066-6.422,2.664L30.948,16.26l-7.1,7.1L27.291,28.5l-2.664,6.422-6.066,1.2V46.164l6.066,1.2,2.664,6.422L23.845,58.92l7.1,7.1Z" transform="translate(-5.114 -5.219)" fill="#2a93fc" fill-rule="evenodd"/>
        <path id="Path_1090660" data-name="Path 1090660" d="M64.748,64.844l5.926-5.926L67.228,53.78l2.664-6.422,6.066-1.2V36.117l-6.066-1.2L67.228,28.5l3.446-5.138-5.926-5.926-4.5,3.02L52.011,17.04l-1.2-6.066H43.7l-1.2,6.066-8.234,3.415-4.5-3.02-5.926,5.926L27.289,28.5l-2.664,6.422-6.066,1.2V46.162l6.066,1.2,2.664,6.422-3.446,5.138,5.969,5.969,4.857-3.064q.7.4,1.416.753A24.863,24.863,0,0,0,59.61,61.4l5.138,3.446Z" transform="translate(-5.112 -5.217)" fill="#4eb1fc" fill-rule="evenodd"/>
        <circle id="Ellipse_14469" data-name="Ellipse 14469" cx="19.837" cy="19.837" r="19.837" transform="translate(13.061 35.898) rotate(-45)" fill="#2a93fc"/>
        <circle id="Ellipse_14470" data-name="Ellipse 14470" cx="19.837" cy="19.837" r="19.837" transform="translate(15.556 35.898) rotate(-45)" fill="#f3f3ff"/>
        <g id="Group_1218374" data-name="Group 1218374" transform="translate(12.703 4.998)">
          <path id="Path_1090661" data-name="Path 1090661" d="M175.712,223.967l-.24,15.884,16.392-.006-.264-11.91a9.666,9.666,0,0,1,1.1-4.8c2.5-4.917,5.164-6.034,5.974-12.356a10.838,10.838,0,0,0-.876-6.679,4.039,4.039,0,0,0-3.242-1.925,7.2,7.2,0,0,0-.788-.042h-19.4a26.03,26.03,0,0,0-.793,3.536c-2,16.294,2.225,12.983,2.144,18.3Z" transform="translate(-152.664 -177.092)" fill="#fdb0a0" fill-rule="evenodd"/>
          <path id="Path_1090662" data-name="Path 1090662" d="M175.712,223.967l-.24,15.883,14.055-.005-.264-11.91a9.667,9.667,0,0,1,1.1-4.8c2.5-4.917,5.164-6.034,5.974-12.356a10.839,10.839,0,0,0-.876-6.679,4.039,4.039,0,0,0-3.242-1.925,7.2,7.2,0,0,0-.776-.042H174.36a26.029,26.029,0,0,0-.793,3.536c-2,16.294,2.225,12.983,2.144,18.3Z" transform="translate(-152.664 -177.092)" fill="#ffcec0" fill-rule="evenodd"/>
          <path id="Path_1090663" data-name="Path 1090663" d="M257.678,147.576a2.857,2.857,0,0,1,2.849,2.849v4.081H258.3A2.848,2.848,0,0,0,255.527,158a2.835,2.835,0,0,1-.7-1.861v-5.713a2.857,2.857,0,0,1,2.849-2.849Z" transform="translate(-224.077 -129.467)" fill="#fdb0a0" fill-rule="evenodd"/>
          <path id="Path_1090664" data-name="Path 1090664" d="M257.678,154.575a2.86,2.86,0,0,0-2.226,2.779q0,.08,0,.159a2.055,2.055,0,0,1-.49-.5,2.826,2.826,0,0,1-.137-.872v-5.713a2.857,2.857,0,0,1,2.849-2.849Z" transform="translate(-224.076 -129.468)" fill="#ffcec0" fill-rule="evenodd"/>
          <path id="Path_1090665" data-name="Path 1090665" d="M302.4,154.945a2.726,2.726,0,0,1,2.718,2.718v3.781a4.952,4.952,0,0,0-1.669-.465,7.2,7.2,0,0,0-.776-.042h-2.993v-3.275A2.726,2.726,0,0,1,302.4,154.945Z" transform="translate(-263.234 -135.9)" fill="#fdb0a0" fill-rule="evenodd"/>
          <path id="Path_1090666" data-name="Path 1090666" d="M302.4,160.938h-2.718v-3.275a2.726,2.726,0,0,1,2.718-2.718Z" transform="translate(-263.234 -135.9)" fill="#ffcec0" fill-rule="evenodd"/>
          <path id="Path_1090667" data-name="Path 1090667" d="M176.772,165.413a2.435,2.435,0,0,1,2.428,2.428v4.483a2.428,2.428,0,1,1-4.856,0v-4.483A2.435,2.435,0,0,1,176.772,165.413Z" transform="translate(-153.813 -145.038)" fill="#fdb0a0" fill-rule="evenodd"/>
          <path id="Path_1090668" data-name="Path 1090668" d="M176.772,173.166a1.613,1.613,0,0,1-2.36-.271,2.411,2.411,0,0,1-.068-.57v-4.483a2.435,2.435,0,0,1,2.428-2.428v7.752Z" transform="translate(-153.813 -145.039)" fill="#ffcec0" fill-rule="evenodd"/>
          <path id="Path_1090669" data-name="Path 1090669" d="M215.258,153.973a2.691,2.691,0,0,1,2.684,2.684v5.382a2.683,2.683,0,1,1-5.367,0v-5.382A2.691,2.691,0,0,1,215.258,153.973Z" transform="translate(-187.189 -135.051)" fill="#fdb0a0" fill-rule="evenodd"/>
          <path id="Path_1090670" data-name="Path 1090670" d="M215.258,163.06a1.833,1.833,0,0,1-1.026.314,1.852,1.852,0,0,1-1.635-.99,2.682,2.682,0,0,1-.022-.346v-5.382a2.691,2.691,0,0,1,2.683-2.684v9.088Z" transform="translate(-187.188 -135.05)" fill="#ffcec0" fill-rule="evenodd"/>
          <path id="Path_1090671" data-name="Path 1090671" d="M255.864,198.209H255.3a4.517,4.517,0,1,1,0-9.035h6.875q.128,0,.256,0v1.669q-.126,0-.256,0H255.3a2.849,2.849,0,0,0,0,5.7h3.564c1.1,0,.8.525.343.922-1.852,1.593-4.677,3.664-5.41,8.18a7.017,7.017,0,0,0-.088,1.161.835.835,0,0,1-1.376.642.808.808,0,0,1-.293-.627,8.6,8.6,0,0,1,.109-1.441,12.467,12.467,0,0,1,2.63-5.968,14.467,14.467,0,0,1,1.087-1.2Z" transform="translate(-220.543 -165.781)" fill="#fdb0a0" fill-rule="evenodd"/>
          <path id="Path_1090672" data-name="Path 1090672" d="M197.272,403.38H182.815a2.382,2.382,0,0,0-2.377,2.377l.032,10.019h19.211l-.032-10.019a2.387,2.387,0,0,0-2.377-2.377Z" transform="translate(-159.133 -352.78)" fill="#f2671f" fill-rule="evenodd"/>
          <path id="Path_1090673" data-name="Path 1090673" d="M192.76,403.38h-9.946a2.382,2.382,0,0,0-2.377,2.377l.032,10.019h14.7l-.032-10.019A2.387,2.387,0,0,0,192.76,403.38Z" transform="translate(-159.132 -352.78)" fill="#ff8748" fill-rule="evenodd"/>
          <path id="Path_1090674" data-name="Path 1090674" d="M72.983,40.293l-5.446,1.074a.765.765,0,0,0-.556.455L64.32,48.238a.76.76,0,0,0,.071.717l3.094,4.614L61.274,59.78,56.66,56.686a.763.763,0,0,0-.717-.071l-2.006.832a3.158,3.158,0,0,0-1.53-2.089c.007-.292.028-.579.062-.861a20.6,20.6,0,1,0-17.549.085l-.01.719a3.158,3.158,0,0,0-1.637,2.146l-2.006-.832a.761.761,0,0,0-.716.071L25.937,59.78l-6.21-6.211,3.094-4.614a.767.767,0,0,0,.07-.717l-2.661-6.417a.764.764,0,0,0-.556-.455l-5.446-1.074V31.509l5.446-1.074a.764.764,0,0,0,.556-.457l2.661-6.417a.767.767,0,0,0-.07-.716l-3.094-4.613,6.21-6.211,4.614,3.094a.765.765,0,0,0,.716.071l6.417-2.662a.763.763,0,0,0,.456-.556l1.074-5.446H48l1.073,5.446a.762.762,0,0,0,.456.556l6.417,2.662a.766.766,0,0,0,.717-.071l4.614-3.094,6.211,6.211-3.094,4.613a.76.76,0,0,0-.071.716l2.661,6.417a.765.765,0,0,0,.556.457l5.446,1.074v8.783ZM53.42,51.442a9.824,9.824,0,0,0-.478,1.094,19.074,19.074,0,1,0-18,.363l.015-.975a4.983,4.983,0,0,0-.917-3.187c-1.137-1.891-2.552-4.244-1.257-14.983a3.179,3.179,0,0,1-.349-1.448V27.814a3.194,3.194,0,0,1,5.135-2.536,3.449,3.449,0,0,1,5.6-1.125,3.614,3.614,0,0,1,6.308.094,3.483,3.483,0,0,1,5.884,2.526V29.45A4.651,4.651,0,0,1,58.5,31.636a11.541,11.541,0,0,1,.978,7.177,16.621,16.621,0,0,1-3.588,8.666,30.545,30.545,0,0,0-2.474,3.963Zm-16.1-19.136c-.009-.1-.014-.2-.014-.3V27.814a1.671,1.671,0,0,0-3.342,0v4.492a1.671,1.671,0,0,0,3.342,0Zm1.51-5.693v5.393a1.927,1.927,0,0,0,3.853,0V26.613a1.927,1.927,0,1,0-3.853,0Zm9.563,2.679V25.966a2.093,2.093,0,1,0-4.185,0v4.558a3.607,3.607,0,0,1,2.716-1.232h1.47Zm3.485-4.481a1.963,1.963,0,0,0-1.961,1.962v2.52h3.924v-2.52A1.965,1.965,0,0,0,51.876,24.811ZM50.859,54.95H50.9a10.418,10.418,0,0,1,1.162-4.2A32.155,32.155,0,0,1,54.649,46.6a15.18,15.18,0,0,0,3.321-7.98,10.084,10.084,0,0,0-.777-6.207,3.618,3.618,0,0,0-3.383-1.6H46.922a2.092,2.092,0,0,0,0,4.184h3.571c.786,0,1.278.249,1.461.739.127.343.122.885-.621,1.524-.141.124-.289.248-.441.376-1.823,1.542-4.091,3.46-4.725,7.366a.762.762,0,1,1-1.5-.245c.716-4.415,3.285-6.626,5.187-8.235H46.922A3.622,3.622,0,0,1,43.5,34.089a3.446,3.446,0,0,1-5.352.179,3.189,3.189,0,0,1-3.989.872c-.992,9.184.212,11.187,1.187,12.811a6.438,6.438,0,0,1,1.134,3.994l-.045,3h14.42Zm1.623,12.285V58.1a1.625,1.625,0,0,0-1.623-1.622H36.351A1.625,1.625,0,0,0,34.728,58.1v9.138Zm21.411-37.1-5.66-1.116-2.35-5.663,3.216-4.8a.76.76,0,0,0-.094-.963l-7.1-7.1a.763.763,0,0,0-.963-.094l-4.795,3.216-5.663-2.348L49.372,5.613A.763.763,0,0,0,48.624,5H38.587a.763.763,0,0,0-.748.615l-1.115,5.661L31.06,13.622l-4.795-3.216a.763.763,0,0,0-.963.094l-7.1,7.1a.764.764,0,0,0-.094.963l3.216,4.8-2.35,5.663-5.659,1.116a.761.761,0,0,0-.615.747V40.919a.762.762,0,0,0,.615.748l5.659,1.116,2.35,5.663L18.112,53.24a.765.765,0,0,0,.094.964l7.1,7.1a.76.76,0,0,0,.963.094L31.06,58.18l2.144.889V68a.763.763,0,0,0,.762.763H53.244A.764.764,0,0,0,54.007,68V59.069l2.144-.889,4.795,3.215a.753.753,0,0,0,.424.13.762.762,0,0,0,.539-.223l7.1-7.1a.761.761,0,0,0,.094-.964l-3.216-4.795,2.35-5.663,5.66-1.116a.761.761,0,0,0,.614-.748V30.882a.76.76,0,0,0-.614-.747Z" transform="translate(-12.703 -4.998)" fill="#021047" fill-rule="evenodd"/>
        </g>
      </g>
    </g>
  </g>
</svg>
