<svg xmlns="http://www.w3.org/2000/svg" xmlns:xlink="http://www.w3.org/1999/xlink" width="110" height="110" viewBox="0 0 110 110">
  <defs>
    <filter id="Path_982547" x="0" y="0" width="110" height="110" filterUnits="userSpaceOnUse">
      <feOffset dy="3" input="SourceAlpha"/>
      <feGaussianBlur stdDeviation="3" result="blur"/>
      <feFlood flood-opacity="0.161"/>
      <feComposite operator="in" in2="blur"/>
      <feComposite in="SourceGraphic"/>
    </filter>
  </defs>
  <g id="Group_1218517" data-name="Group 1218517" transform="translate(-799 -3155.715)">
    <g id="Group_1217933" data-name="Group 1217933">
      <g id="Group_1200150" data-name="Group 1200150" transform="translate(1 453.715)">
        <g id="Group_1185951" data-name="Group 1185951" transform="translate(-0.461 1748.71)">
          <g id="Group_1184083" data-name="Group 1184083" transform="translate(-32.778 -1471.71)">
            <g id="Group_1183743" data-name="Group 1183743" transform="translate(459.195 -389)">
              <g id="Group_1181545" data-name="Group 1181545" transform="translate(-5.417 -130)">
                <g id="Group_1177562" data-name="Group 1177562" transform="translate(0 -12113)">
                  <g id="Group_1173147" data-name="Group 1173147" transform="translate(386.461 15063)">
                    <g id="Group_1163801" data-name="Group 1163801" transform="translate(0 0)">
                      <g id="Group_1163014" data-name="Group 1163014">
                        <g id="Group_1157015" data-name="Group 1157015" transform="translate(0 0)">
                          <g id="Group_1155792" data-name="Group 1155792" transform="translate(0 0)">
                            <g id="Group_1154703" data-name="Group 1154703">
                              <g id="Group_1150789" data-name="Group 1150789">
                                <g id="Group_1154212" data-name="Group 1154212">
                                  <g id="Group_1152583" data-name="Group 1152583">
                                    <g id="Group_1146973" data-name="Group 1146973" transform="translate(0 0)">
                                      <g id="Group_1146954" data-name="Group 1146954">
                                        <g transform="matrix(1, 0, 0, 1, -9, -6)" filter="url(#Path_982547)">
                                          <g id="Path_982547-2" data-name="Path 982547" transform="translate(9 6)" fill="#f2f7e5">
                                            <path d="M 46.00000381469727 90.49988555908203 C 39.99188232421875 90.49988555908203 34.16427230834961 89.32352447509766 28.67905807495117 87.00347137451172 C 23.38020324707031 84.76226043701172 18.62103080749512 81.55342864990234 14.53375053405762 77.46615600585938 C 10.44645690917969 73.37887573242188 7.237643718719482 68.61971282958984 4.996417045593262 63.32085800170898 C 2.676363706588745 57.83565902709961 1.500003814697266 52.00806045532227 1.500003814697266 45.99993896484375 C 1.500003814697266 39.99181747436523 2.676363706588745 34.16421890258789 4.996417045593262 28.67901802062988 C 7.237643718719482 23.38017845153809 10.44645690917969 18.62101936340332 14.53375053405762 14.53373908996582 C 18.62103080749512 10.44645881652832 23.38020324707031 7.237632274627686 28.67905807495117 4.996418952941895 C 34.16427230834961 2.676365613937378 39.99188232421875 1.500005602836609 46.00000381469727 1.500005602836609 C 52.00812530517578 1.500005602836609 57.83573532104492 2.676365613937378 63.32094955444336 4.996418952941895 C 68.61980438232422 7.237632274627686 73.37896728515625 10.44645881652832 77.46625518798828 14.53373908996582 C 81.55353546142578 18.62101936340332 84.76236724853516 23.38017845153809 87.00359344482422 28.67901802062988 C 89.32364654541016 34.16421890258789 90.5 39.99181747436523 90.5 45.99993896484375 C 90.5 52.00806045532227 89.32364654541016 57.83565902709961 87.00359344482422 63.32085800170898 C 84.76236724853516 68.61971282958984 81.55353546142578 73.37887573242188 77.46625518798828 77.46615600585938 C 73.37896728515625 81.55342864990234 68.61980438232422 84.76226043701172 63.32094955444336 87.00347137451172 C 57.83573532104492 89.32352447509766 52.00812530517578 90.49988555908203 46.00000381469727 90.49988555908203 Z" stroke="none"/>
                                            <path d="M 46.00000381469727 2.999992370605469 C 40.19371795654297 2.999992370605469 34.56270217895508 4.136497497558594 29.26338958740234 6.377906799316406 C 24.14333343505859 8.543510437011719 19.54441833496094 11.64437866210938 15.59440612792969 15.59439849853516 C 11.64440155029297 19.54439544677734 8.54351806640625 24.14329528808594 6.377914428710938 29.26335144042969 C 4.136505126953125 34.56266784667969 3.000007629394531 40.19366836547852 3.000007629394531 45.99993896484375 C 3.000007629394531 51.80620956420898 4.136505126953125 57.43722534179688 6.377914428710938 62.73654174804688 C 8.54351806640625 67.85658264160156 11.64440155029297 72.45548248291016 15.59440612792969 76.40549468994141 C 19.54441833496094 80.35549926757812 24.14333343505859 83.45636749267578 29.26337432861328 85.62196350097656 C 34.56270217895508 87.86338043212891 40.19371795654297 88.9998779296875 46.00000381469727 88.9998779296875 C 51.80628967285156 88.9998779296875 57.43730545043945 87.86338043212891 62.73663330078125 85.62196350097656 C 67.85667419433594 83.45636749267578 72.45558929443359 80.35549926757812 76.40560150146484 76.40549468994141 C 80.35560607910156 72.45548248291016 83.45648956298828 67.85658264160156 85.62208557128906 62.73654174804688 C 87.86350250244141 57.43722534179688 89 51.80620956420898 89 45.99993896484375 C 89 40.19366836547852 87.86350250244141 34.56266784667969 85.62208557128906 29.26335144042969 C 83.45648956298828 24.14329528808594 80.35560607910156 19.54439544677734 76.40560150146484 15.59439849853516 C 72.45558929443359 11.64437866210938 67.85667419433594 8.543510437011719 62.73661804199219 6.377906799316406 C 57.43730545043945 4.136497497558594 51.80628967285156 2.999992370605469 46.00000381469727 2.999992370605469 M 46.00000381469727 -7.62939453125e-06 C 71.40510559082031 -7.62939453125e-06 92 20.59487915039062 92 45.99993896484375 C 92 71.40501403808594 71.40510559082031 91.99988555908203 46.00000381469727 91.99988555908203 C 20.59490203857422 91.99988555908203 7.62939453125e-06 71.40501403808594 7.62939453125e-06 45.99993896484375 C 7.62939453125e-06 20.59487915039062 20.59490203857422 -7.62939453125e-06 46.00000381469727 -7.62939453125e-06 Z" stroke="none" fill="#86b60c"/>
                                          </g>
                                        </g>
                                      </g>
                                    </g>
                                  </g>
                                </g>
                              </g>
                            </g>
                          </g>
                        </g>
                      </g>
                    </g>
                  </g>
                </g>
              </g>
            </g>
          </g>
        </g>
      </g>
      <g id="conciencia-de-si-mismo" transform="translate(774.365 3176.825)">
        <g id="Group_1217931" data-name="Group 1217931" transform="translate(49.595 1.126)">
          <g id="Group_1217930" data-name="Group 1217930" transform="translate(0)">
            <path id="Path_1090165" data-name="Path 1090165" d="M221.018,279.508v-6.115a9.559,9.559,0,0,1-3.43.635H209.43a9.559,9.559,0,0,1-3.43-.635v6.115Z" transform="translate(-183.469 -233.462)" fill="#9857bd"/>
            <path id="Path_1090166" data-name="Path 1090166" d="M277.492,274.028v5.48h4.281v-6.115a9.559,9.559,0,0,1-3.43.635h-.851Z" transform="translate(-244.224 -233.462)" fill="#814aa0"/>
            <path id="Path_1090167" data-name="Path 1090167" d="M119.816,341.854H65a1.5,1.5,0,0,1-1.5-1.5v-18.23a9.011,9.011,0,0,1,9.011-9.011h39.8a9.011,9.011,0,0,1,9.011,9.011v18.23A1.5,1.5,0,0,1,119.816,341.854Z" transform="translate(-62.369 -267.216)" fill="#af66da"/>
            <path id="Path_1090168" data-name="Path 1090168" d="M117.113,322.367v21.645a1.5,1.5,0,0,1-1.5,1.5H63.5v2.7a1.5,1.5,0,0,0,1.5,1.5h54.814a1.5,1.5,0,0,0,1.5-1.5v-18.23A9,9,0,0,0,117.113,322.367Z" transform="translate(-62.369 -275.082)" fill="#9857bd"/>
            <g id="Group_1217924" data-name="Group 1217924" transform="translate(10.702 49.931)">
              <g id="Group_1217922" data-name="Group 1217922" transform="translate(15.997 0.567)">
                <path id="Path_1090169" data-name="Path 1090169" d="M240.541,343.819c-.021-.021-.044-.04-.066-.06l-6.066,6.066a2.23,2.23,0,0,0,0,3.154l6.132-6.132A2.141,2.141,0,0,0,240.541,343.819Z" transform="translate(-233.756 -343.759)" fill="#ffcebf"/>
              </g>
              <path id="Path_1090170" data-name="Path 1090170" d="M280.8,384.083l-6.066,6.066a2.23,2.23,0,0,0,0,3.154l6.132-6.132a2.141,2.141,0,0,0-.062-3.088Z" transform="translate(-252.027 -377.46)" fill="#ffcebf"/>
              <path id="Path_1090171" data-name="Path 1090171" d="M157.248,351.541a2.141,2.141,0,0,0-3.028,0l1.849-1.849a2.141,2.141,0,0,0-3.028-3.028l1.265-1.265a2.141,2.141,0,0,0-3.028-3.028l-1.265,1.265a2.141,2.141,0,0,0-3.028-3.028l-8.2,8.2v-3.8a2.181,2.181,0,0,0-2.038-2.2,2.141,2.141,0,0,0-2.245,2.139l-.071,9.877a6.545,6.545,0,0,1-1.917,4.575l-5.285,5.285h18.119a10.126,10.126,0,0,0,4.344-2.566l7.553-7.553a2.141,2.141,0,0,0,0-3.028Z" transform="translate(-127.232 -339.981)" fill="#ffdfcf"/>
              <g id="Group_1217923" data-name="Group 1217923" transform="translate(19.025 2.33)">
                <path id="Path_1090172" data-name="Path 1090172" d="M261.9,355.5l-7.331,7.331a2.23,2.23,0,0,0,0,3.154l7.4-7.4a2.141,2.141,0,0,0-.062-3.088Z" transform="translate(-253.918 -355.497)" fill="#ffcebf"/>
              </g>
            </g>
            <path id="Path_1090173" data-name="Path 1090173" d="M140.465,28.682h3.45a1.5,1.5,0,0,0,1.415-1l1.556-4.371a2.1,2.1,0,0,1,1.981-1.4h14.559a2.107,2.107,0,0,1,1.981,1.4l1.52,4.271a1.656,1.656,0,0,0,1.556,1.1h3.344a4.5,4.5,0,0,1,1.965.45V21.016A13.516,13.516,0,0,0,160.275,7.5h-8.26A13.516,13.516,0,0,0,138.5,21.016v8.116a4.5,4.5,0,0,1,1.966-.45Z" transform="translate(-126.105 -7.5)" fill="#d88a55"/>
            <g id="Group_1217925" data-name="Group 1217925" transform="translate(32.35)">
              <path id="Path_1090174" data-name="Path 1090174" d="M273.2,7.5h-1.82a13.505,13.505,0,0,1,6.274,11.413v3.459a2.1,2.1,0,0,1,.676.941l1.52,4.271a1.656,1.656,0,0,0,1.556,1.1h3.344a4.5,4.5,0,0,1,1.965.45V21.016A13.516,13.516,0,0,0,273.2,7.5Z" transform="translate(-271.382 -7.5)" fill="#c57a44"/>
            </g>
            <g id="Group_1217926" data-name="Group 1217926" transform="translate(9.686 21.032)">
              <path id="Path_1090175" data-name="Path 1090175" d="M127.13,147.55h-1.99a4.674,4.674,0,1,0,0,9.347h1.99Z" transform="translate(-120.466 -147.55)" fill="#ffcebf"/>
            </g>
            <path id="Path_1090176" data-name="Path 1090176" d="M349.149,147.55h-1.99V156.9h1.99a4.674,4.674,0,0,0,0-9.347Z" transform="translate(-303.429 -126.518)" fill="#ffb09e"/>
            <path id="Path_1090177" data-name="Path 1090177" d="M190.017,109.26a1.5,1.5,0,0,1-1.415-1l-1.52-4.271a2.253,2.253,0,0,0-2.122-1.5H170.4a2.253,2.253,0,0,0-2.122,1.5l-1.52,4.271a1.5,1.5,0,0,1-1.415,1h-1.5v9.922a9.761,9.761,0,0,0,9.761,9.761h8.157a9.761,9.761,0,0,0,9.761-9.761V109.26Z" transform="translate(-147.64 -88.228)" fill="#ffdfcf"/>
            <path id="Path_1090178" data-name="Path 1090178" d="M286.6,111.617a1.5,1.5,0,0,1-1.415-1l-1.52-4.271a2.25,2.25,0,0,0-.818-1.081V122.59a9.759,9.759,0,0,1-5.356,8.71h.851a9.762,9.762,0,0,0,9.761-9.761v-9.922Z" transform="translate(-244.224 -90.585)" fill="#ffcebf"/>
            <g id="Group_1217929" data-name="Group 1217929" transform="translate(0 30.522)">
              <path id="Path_1090179" data-name="Path 1090179" d="M61.745,210.978l1.617,2.956a.451.451,0,0,0,.179.179L66.5,215.73a.45.45,0,0,1,0,.791l-2.956,1.617a.451.451,0,0,0-.179.179l-1.617,2.956a.45.45,0,0,1-.791,0l-1.617-2.956a.451.451,0,0,0-.179-.179L56.2,216.52a.45.45,0,0,1,0-.791l2.956-1.617a.451.451,0,0,0,.179-.179l1.617-2.956A.451.451,0,0,1,61.745,210.978Z" transform="translate(-55.968 -210.743)" fill="#ffe177"/>
              <path id="Path_1090180" data-name="Path 1090180" d="M390.135,210.978l1.617,2.956a.451.451,0,0,0,.179.179l2.956,1.617a.45.45,0,0,1,0,.791l-2.956,1.617a.451.451,0,0,0-.179.179l-1.617,2.956a.45.45,0,0,1-.79,0l-1.617-2.956a.451.451,0,0,0-.179-.179l-2.956-1.617a.45.45,0,0,1,0-.791l2.956-1.617a.451.451,0,0,0,.179-.179l1.617-2.956A.45.45,0,0,1,390.135,210.978Z" transform="translate(-335.042 -210.743)" fill="#ffe177"/>
              <g id="Group_1217927" data-name="Group 1217927" transform="translate(53.072 3.756)">
                <path id="Path_1090181" data-name="Path 1090181" d="M416.141,236.983l-2.25-1.231-2.538,1.388a1.5,1.5,0,0,0-.6.6l-1.388,2.538,1.231,2.251a.45.45,0,0,0,.791,0l1.617-2.956a.451.451,0,0,1,.179-.179l2.956-1.617A.451.451,0,0,0,416.141,236.983Z" transform="translate(-409.367 -235.752)" fill="#ffd15b"/>
              </g>
              <g id="Group_1217928" data-name="Group 1217928" transform="translate(3.756 3.756)">
                <path id="Path_1090182" data-name="Path 1090182" d="M87.751,236.983,85.5,235.752l-2.538,1.388a1.5,1.5,0,0,0-.6.6l-1.388,2.538,1.231,2.251a.45.45,0,0,0,.791,0l1.617-2.956a.451.451,0,0,1,.179-.179l2.956-1.617A.451.451,0,0,0,87.751,236.983Z" transform="translate(-80.977 -235.752)" fill="#ffd15b"/>
              </g>
            </g>
          </g>
          <path id="Path_1090183" data-name="Path 1090183" d="M157.186,416.557h0l-7.906,7.9a3.755,3.755,0,0,1-2.654,1.1H131.437l-4.2,4.2h18.12A10.126,10.126,0,0,0,149.7,427.2l7.553-7.553a2.141,2.141,0,0,0-.063-3.088Z" transform="translate(-116.53 -355.126)" fill="#ffcebf"/>
        </g>
        <g id="Group_1217932" data-name="Group 1217932" transform="translate(48.469 0)">
          <path id="Path_1090184" data-name="Path 1090184" d="M70.355,32.632h.728A10.9,10.9,0,0,0,77.4,41.966V45.9H66.137A10.148,10.148,0,0,0,56,56.032v4.8a1.126,1.126,0,1,0,2.253,0v-4.8a7.893,7.893,0,0,1,7.884-7.884H98.423a1.126,1.126,0,0,0,0-2.253H94.67v-3.93a10.9,10.9,0,0,0,6.317-9.333h.728a5.8,5.8,0,0,0,3.092-10.7V14.642A14.659,14.659,0,0,0,90.165,0h-8.26A14.659,14.659,0,0,0,67.263,14.641a1.126,1.126,0,0,0,2.253,0A12.4,12.4,0,0,1,81.905,2.253h8.26a12.4,12.4,0,0,1,12.39,12.39v6.451a5.812,5.812,0,0,0-.839-.061H98.372a.376.376,0,0,1-.354-.25L96.5,16.512a3.386,3.386,0,0,0-3.183-2.246H78.756a3.385,3.385,0,0,0-3.183,2.246l-1.52,4.271a.376.376,0,0,1-.354.25H70.355a5.834,5.834,0,0,0-.839.061V19.9a1.126,1.126,0,0,0-2.253,0v2.031a5.8,5.8,0,0,0,3.092,10.7ZM101,23.285h.714a3.547,3.547,0,0,1,0,7.095H101ZM92.418,45.9H79.653V42.721a10.877,10.877,0,0,0,2.3.248h8.157a10.877,10.877,0,0,0,2.3-.248Zm-19.1-22.611H73.7a2.633,2.633,0,0,0,2.476-1.747l1.52-4.271a1.129,1.129,0,0,1,1.061-.749H93.315a1.129,1.129,0,0,1,1.061.748l1.52,4.271a2.633,2.633,0,0,0,2.476,1.747h.377v8.8a8.645,8.645,0,0,1-8.635,8.635H81.956a8.645,8.645,0,0,1-8.635-8.635v-8.8Zm-2.967,0h.714V30.38h-.714a3.547,3.547,0,0,1,0-7.095Z" transform="translate(-54.869 0)"/>
          <path id="Path_1090185" data-name="Path 1090185" d="M236.062,160.311l1.106.527a1.126,1.126,0,0,0,.969-2.034l-1.106-.527a.645.645,0,0,1-.022-1.153,3.293,3.293,0,0,0,1.77-2.926v-.733a1.126,1.126,0,1,0-2.253,0v.733a1.047,1.047,0,0,1-.563.93,2.9,2.9,0,0,0,.1,5.183Z" transform="translate(-206.486 -129.46)"/>
          <path id="Path_1090186" data-name="Path 1090186" d="M226.27,225.692a1.126,1.126,0,0,0-1.075,1.98,8.616,8.616,0,0,0,8.251,0,1.126,1.126,0,0,0-1.075-1.98A6.372,6.372,0,0,1,226.27,225.692Z" transform="translate(-198.155 -191.682)"/>
          <path id="Path_1090187" data-name="Path 1090187" d="M279.235,153.284a3.476,3.476,0,0,0,2.474-1.025,1.126,1.126,0,0,0-1.593-1.593,1.246,1.246,0,0,1-1.762,0,1.126,1.126,0,0,0-1.593,1.593A3.475,3.475,0,0,0,279.235,153.284Z" transform="translate(-242.197 -127.76)"/>
          <path id="Path_1090188" data-name="Path 1090188" d="M201.031,153.284a3.476,3.476,0,0,0,2.474-1.025,1.126,1.126,0,0,0-1.593-1.593,1.246,1.246,0,0,1-1.762,0,1.126,1.126,0,0,0-1.593,1.593A3.475,3.475,0,0,0,201.031,153.284Z" transform="translate(-175.737 -127.76)"/>
          <path id="Path_1090189" data-name="Path 1090189" d="M91.338,111.775l-1.412.815a1.126,1.126,0,1,0,1.126,1.951l1.412-.815a1.126,1.126,0,0,0-1.126-1.951Z" transform="translate(-83.222 -94.861)"/>
          <path id="Path_1090190" data-name="Path 1090190" d="M79.009,76.462H80.64a1.126,1.126,0,0,0,0-2.253H79.009a1.126,1.126,0,0,0,0,2.253Z" transform="translate(-73.466 -63.065)"/>
          <path id="Path_1090191" data-name="Path 1090191" d="M89.925,33.465l1.412.815a1.126,1.126,0,0,0,1.126-1.951l-1.412-.815a1.126,1.126,0,1,0-1.126,1.951Z" transform="translate(-83.221 -26.653)"/>
          <path id="Path_1090192" data-name="Path 1090192" d="M399.922,111.775a1.126,1.126,0,1,0-1.126,1.951l1.412.815a1.126,1.126,0,0,0,1.126-1.951Z" transform="translate(-345.706 -94.86)"/>
          <path id="Path_1090193" data-name="Path 1090193" d="M408.258,75.335a1.126,1.126,0,0,0,1.126,1.126h1.631a1.126,1.126,0,0,0,0-2.253h-1.631A1.126,1.126,0,0,0,408.258,75.335Z" transform="translate(-354.226 -63.065)"/>
          <path id="Path_1090194" data-name="Path 1090194" d="M399.359,34.433a1.121,1.121,0,0,0,.562-.151l1.412-.815a1.126,1.126,0,1,0-1.126-1.951l-1.412.815a1.126,1.126,0,0,0,.564,2.1Z" transform="translate(-345.705 -26.654)"/>
          <path id="Path_1090195" data-name="Path 1090195" d="M53.594,215.44a1.576,1.576,0,0,0,1.383.82h0a1.577,1.577,0,0,0,1.384-.82l1.522-2.782,2.783-1.522a1.577,1.577,0,0,0,0-2.767l-2.783-1.522-1.522-2.782h0a1.576,1.576,0,0,0-1.383-.82h0a1.576,1.576,0,0,0-1.383.82l-1.522,2.782-2.782,1.522a1.577,1.577,0,0,0,0,2.767l2.783,1.522Zm-.267-6.712a1.573,1.573,0,0,0,.627-.627l1.024-1.872L56,208.1a1.573,1.573,0,0,0,.627.627l1.872,1.024-1.872,1.024A1.573,1.573,0,0,0,56,211.4l-1.024,1.872L53.953,211.4a1.573,1.573,0,0,0-.627-.627l-1.872-1.024Z" transform="translate(-48.469 -172.722)"/>
          <path id="Path_1090196" data-name="Path 1090196" d="M389.055,208.369l-2.783-1.522-1.522-2.782a1.576,1.576,0,0,0-1.383-.82h0a1.577,1.577,0,0,0-1.384.82l-1.522,2.782-2.783,1.522a1.577,1.577,0,0,0,0,2.767l2.783,1.522,1.522,2.783a1.576,1.576,0,0,0,1.383.82h0a1.576,1.576,0,0,0,1.383-.82l1.522-2.782,2.782-1.522a1.577,1.577,0,0,0,0-2.767Zm-4.037,2.407a1.573,1.573,0,0,0-.627.627l-1.024,1.872-1.024-1.872a1.573,1.573,0,0,0-.627-.627l-1.872-1.024,1.872-1.024a1.574,1.574,0,0,0,.627-.627l1.024-1.872,1.024,1.872a1.573,1.573,0,0,0,.627.627l1.872,1.024Z" transform="translate(-327.543 -172.722)"/>
          <path id="Path_1090197" data-name="Path 1090197" d="M105.934,305.611h-2.254a1.126,1.126,0,0,0,0,2.253h2.254a7.893,7.893,0,0,1,7.884,7.884v18.23a.376.376,0,0,1-.375.375H107.06v-12.9a1.126,1.126,0,0,0-2.253,0v12.9H89.255c.243-.2.477-.418.7-.643l7.553-7.553a3.26,3.26,0,0,0-.87-5.24,3.267,3.267,0,0,0-1.373-4.97,3.264,3.264,0,0,0-4.281-4.278,3.267,3.267,0,0,0-5.331-1.066l-5.676,5.676h0l-.6.6V315.8a3.294,3.294,0,0,0-3.111-3.324,3.236,3.236,0,0,0-2.412.9,3.278,3.278,0,0,0-1.012,2.356l-.071,9.876a5.388,5.388,0,0,1-1.587,3.788l-3.923,3.923V321.454a1.126,1.126,0,0,0-2.253,0v12.9H58.628a.376.376,0,0,1-.375-.375v-8.171a1.126,1.126,0,0,0-2.253,0v8.171a2.631,2.631,0,0,0,2.628,2.628h54.814a2.631,2.631,0,0,0,2.628-2.628v-18.23A10.148,10.148,0,0,0,105.934,305.611ZM84.652,334.353H69.417l3.362-3.363a7.628,7.628,0,0,0,2.247-5.364l.071-9.885a1.015,1.015,0,0,1,1.065-1.013,1.058,1.058,0,0,1,.964,1.074v3.8a1.126,1.126,0,0,0,1.923.8l8.2-8.2a1.015,1.015,0,1,1,1.435,1.435l-6.132,6.132a1.126,1.126,0,0,0,1.593,1.593l7.4-7.4a1.015,1.015,0,0,1,1.435,1.435l-7.4,7.4a1.126,1.126,0,0,0,1.593,1.593l6.132-6.132a1.015,1.015,0,0,1,1.435,1.435l-6.132,6.132a1.126,1.126,0,0,0,1.593,1.593l4.282-4.282a1.015,1.015,0,0,1,1.435,1.435l-7.553,7.553A9.032,9.032,0,0,1,84.652,334.353Z" transform="translate(-54.869 -259.716)"/>
        </g>
      </g>
    </g>
  </g>
</svg>
