<svg xmlns="http://www.w3.org/2000/svg" xmlns:xlink="http://www.w3.org/1999/xlink" width="108" height="108" viewBox="0 0 108 108">
  <defs>
    <filter id="Path_904820" x="0" y="0" width="108" height="108" filterUnits="userSpaceOnUse">
      <feOffset dy="3" input="SourceAlpha"/>
      <feGaussianBlur stdDeviation="3" result="blur"/>
      <feFlood flood-opacity="0.161"/>
      <feComposite operator="in" in2="blur"/>
      <feComposite in="SourceGraphic"/>
    </filter>
  </defs>
  <g id="Group_1218560" data-name="Group 1218560" transform="translate(-616.999 -4629.635)">
    <g id="Group_1218471" data-name="Group 1218471">
      <g id="Group_1217749" data-name="Group 1217749" transform="translate(625.999 4635.635)">
        <g id="Group_1216209" data-name="Group 1216209" transform="translate(0 0)">
          <g id="Group_1214441" data-name="Group 1214441">
            <g id="Group_1207774" data-name="Group 1207774">
              <g id="Group_1206630" data-name="Group 1206630">
                <g id="Group_1185091" data-name="Group 1185091">
                  <g id="Group_1179560" data-name="Group 1179560">
                    <g id="Group_1173787" data-name="Group 1173787">
                      <g id="Group_1171910" data-name="Group 1171910">
                        <g id="Group_1167341" data-name="Group 1167341">
                          <g id="Group_1166792" data-name="Group 1166792">
                            <g transform="matrix(1, 0, 0, 1, -9, -6)" filter="url(#Path_904820)">
                              <g id="Path_904820-2" data-name="Path 904820" transform="translate(9 6)" fill="#f2f7e5">
                                <path d="M 44.99999618530273 88.50005340576172 C 39.12687301635742 88.50005340576172 33.43022155761719 87.35012817382812 28.06829643249512 85.08221435546875 C 22.88852119445801 82.89136505126953 18.23629570007324 79.754638671875 14.24084663391113 75.75918579101562 C 10.24540901184082 71.76374053955078 7.108683586120605 67.11151123046875 4.917821407318115 61.93173980712891 C 2.649921178817749 56.56980133056641 1.499996185302734 50.87314987182617 1.499996185302734 45.00002670288086 C 1.499996185302734 39.12690353393555 2.649921178817749 33.43025207519531 4.917821407318115 28.06831359863281 C 7.108683586120605 22.8885383605957 10.24540901184082 18.23631477355957 14.24084663391113 14.24086380004883 C 18.23629570007324 10.2454137802124 22.88852119445801 7.108689308166504 28.06829643249512 4.917839050292969 C 33.43022155761719 2.649926662445068 39.12687301635742 1.500001668930054 44.99999618530273 1.500001668930054 C 50.87311935424805 1.500001668930054 56.56977081298828 2.649926662445068 61.93169784545898 4.917839050292969 C 67.11147308349609 7.108689308166504 71.76369476318359 10.2454137802124 75.75914764404297 14.24086380004883 C 79.75458526611328 18.23631477355957 82.89131164550781 22.8885383605957 85.08216857910156 28.06831359863281 C 87.35007476806641 33.43025207519531 88.5 39.12690353393555 88.5 45.00002670288086 C 88.5 50.87314987182617 87.35007476806641 56.56980133056641 85.08216857910156 61.93173980712891 C 82.89131164550781 67.11151123046875 79.75458526611328 71.76374053955078 75.75914764404297 75.75918579101562 C 71.76369476318359 79.754638671875 67.11147308349609 82.89136505126953 61.93169784545898 85.08221435546875 C 56.56977081298828 87.35012817382812 50.87311935424805 88.50005340576172 44.99999618530273 88.50005340576172 Z" stroke="none"/>
                                <path d="M 44.99999618530273 3 C 39.32870864868164 3 33.82865142822266 4.110054016113281 28.65262603759766 6.299339294433594 C 23.65165710449219 8.414566040039062 19.15968322753906 11.44334411621094 15.301513671875 15.30152893066406 C 11.44333648681641 19.15969848632812 8.414566040039062 23.65167236328125 6.299339294433594 28.65264129638672 C 4.110054016113281 33.82868194580078 2.999992370605469 39.32873916625977 2.999992370605469 45.00002670288086 C 2.999992370605469 50.67131423950195 4.110054016113281 56.17137145996094 6.299339294433594 61.347412109375 C 8.414566040039062 66.34838104248047 11.44333648681641 70.84035491943359 15.301513671875 74.69852447509766 C 19.15968322753906 78.55670928955078 23.65165710449219 81.58547973632812 28.65262603759766 83.70071411132812 C 33.82865142822266 85.88999938964844 39.32870864868164 87.00005340576172 44.99999618530273 87.00005340576172 C 50.67128372192383 87.00005340576172 56.17134094238281 85.88999938964844 61.34736633300781 83.70071411132812 C 66.34834289550781 81.58547973632812 70.84030914306641 78.55670928955078 74.69847869873047 74.69852447509766 C 78.55665588378906 70.84035491943359 81.58542633056641 66.34838104248047 83.70065307617188 61.347412109375 C 85.88993835449219 56.17137145996094 87 50.67131423950195 87 45.00002670288086 C 87 39.32873916625977 85.88993835449219 33.82868194580078 83.70065307617188 28.65264129638672 C 81.58542633056641 23.65167236328125 78.55665588378906 19.15969848632812 74.69847869873047 15.30152893066406 C 70.84030914306641 11.44334411621094 66.34834289550781 8.414566040039062 61.34736633300781 6.299339294433594 C 56.17134094238281 4.110054016113281 50.67128372192383 3 44.99999618530273 3 M 44.99999618530273 0 C 69.85281372070312 0 90 20.14720153808594 90 45.00002670288086 C 90 69.85285949707031 69.85281372070312 90.00005340576172 44.99999618530273 90.00005340576172 C 20.14717864990234 90.00005340576172 -7.62939453125e-06 69.85285949707031 -7.62939453125e-06 45.00002670288086 C -7.62939453125e-06 20.14720153808594 20.14717864990234 0 44.99999618530273 0 Z" stroke="none" fill="#496406"/>
                              </g>
                            </g>
                          </g>
                        </g>
                      </g>
                    </g>
                  </g>
                </g>
              </g>
            </g>
          </g>
        </g>
      </g>
      <g id="recompensa" transform="translate(623.701 4598.992)">
        <g id="Group_1218429" data-name="Group 1218429" transform="translate(21.291 62.087)">
          <path id="Path_1091220" data-name="Path 1091220" d="M152,100.536l-6.32,6.981-5.444-2.981a6.752,6.752,0,0,0-2.285-.763l-5.179-.747a6.777,6.777,0,0,0-2.033.016l-8.545,1.365a3.6,3.6,0,0,0-3.028,3.288l-1.127,11.486a1.443,1.443,0,0,0,1.33,1.58l2.522.186a1.443,1.443,0,0,0,1.542-1.294l1.007-9.988a.18.18,0,0,1,.151-.16l3.726-.6a.18.18,0,0,1,.2.224,19.745,19.745,0,0,0-.543,7.19l.492,4.528,6.494-.812a6.765,6.765,0,0,0,4.214-4.184l1.442-4.695a.18.18,0,0,1,.259-.105l3.455,1.892a3.6,3.6,0,0,0,4.407-.744l7.306-8.07a1.443,1.443,0,0,0-.121-2.056l-1.9-1.661a1.443,1.443,0,0,0-2.019.119Z" transform="translate(-118.03 -100.061)" fill="#e28086"/>
        </g>
        <g id="Group_1218431" data-name="Group 1218431" transform="translate(24.265 71.532)">
          <g id="Group_1218430" data-name="Group 1218430">
            <path id="Path_1091221" data-name="Path 1091221" d="M137.354,152.543a1.786,1.786,0,0,0-1.5,1.584l-.458,4.541h0l-.43,4.217a1.422,1.422,0,0,1-.355.809c-.033.037-.069.071-.105.1l.885.065a1.443,1.443,0,0,0,1.542-1.294l1.007-9.988a.18.18,0,0,1,.144-.158Z" transform="translate(-134.516 -152.425)" fill="#dd636e"/>
          </g>
        </g>
        <g id="Group_1218433" data-name="Group 1218433" transform="translate(31.497 63.68)">
          <g id="Group_1218432" data-name="Group 1218432" transform="translate(0 0)">
            <path id="Path_1091222" data-name="Path 1091222" d="M202.294,109.316l-.485-.424-2.016,2.227-5.029,5.554a4,4,0,0,1-4.9.827l-3.045-1.667a.94.94,0,0,0-1.351.549l-1.337,4.352a7.521,7.521,0,0,1-4.685,4.652l-4.836.6.228,2.1,6.494-.812a6.765,6.765,0,0,0,4.214-4.184l1.442-4.695a.18.18,0,0,1,.259-.105l3.455,1.892a3.6,3.6,0,0,0,4.407-.744l7.306-8.07A1.443,1.443,0,0,0,202.294,109.316Z" transform="translate(-174.611 -108.892)" fill="#dd636e"/>
          </g>
        </g>
        <g id="Group_1218434" data-name="Group 1218434" transform="translate(37.026 59.676)">
          <path id="Path_1091223" data-name="Path 1091223" d="M208.411,94.453l-2.138-.4a1.245,1.245,0,0,1-.994-1.453l1.108-5.9,4.584.861-1.108,5.9A1.245,1.245,0,0,1,208.411,94.453Z" transform="translate(-205.258 -86.697)" fill="#ffcbbe"/>
        </g>
        <g id="Group_1218435" data-name="Group 1218435" transform="translate(38.911 60.171)">
          <path id="Path_1091224" data-name="Path 1091224" d="M217.589,89.44l-1.147,6.11a1.243,1.243,0,0,1-.732.914l1.268.238a1.245,1.245,0,0,0,1.453-.994l1.108-5.9Z" transform="translate(-215.71 -89.44)" fill="#eaac9d"/>
        </g>
        <g id="Group_1218436" data-name="Group 1218436" transform="translate(35.445 55.083)">
          <path id="Path_1091225" data-name="Path 1091225" d="M205.726,67.591l-.551-2.432a4.35,4.35,0,1,0-4.655,4.763,3.842,3.842,0,0,1,1.226.29,3.726,3.726,0,0,0,2.076.248l.126-.021A2.384,2.384,0,0,0,205.726,67.591Z" transform="translate(-196.496 -61.234)" fill="#ffcbbe"/>
        </g>
        <g id="Group_1218437" data-name="Group 1218437" transform="translate(38.517 55.083)">
          <path id="Path_1091226" data-name="Path 1091226" d="M219.687,67.591l-.551-2.432a4.35,4.35,0,0,0-5.034-3.867,4.259,4.259,0,0,0-.572.139,4.351,4.351,0,0,1,3.036,3.728l.551,2.432a2.383,2.383,0,0,1-1.283,2.67,3.722,3.722,0,0,0,1.949.2l.126-.021A2.384,2.384,0,0,0,219.687,67.591Z" transform="translate(-213.529 -61.234)" fill="#eaac9d"/>
        </g>
        <g id="Group_1218439" data-name="Group 1218439" transform="translate(12.359 79.501)">
          <g id="Group_1218438" data-name="Group 1218438" transform="translate(0 0)">
            <path id="Path_1091227" data-name="Path 1091227" d="M102.64,217.862a2.692,2.692,0,0,1-1.392-.387L98.9,216.062a2.706,2.706,0,0,1-1.227-2.986l2.221-8.729a.361.361,0,0,0-.216-.424l-4.6-1.824a2.447,2.447,0,0,0-2.924.893s-3.6,5.739-4.748,7.418c-1.474,2.151-2.32,2.438-3.5,2.56l-9.551.52a.361.361,0,0,0-.331.275l-.176.725a2.706,2.706,0,1,1-5.259-1.276l.713-2.94a2.706,2.706,0,0,1,2.482-2.064l10.285-.56a.36.36,0,0,0,.3-.19l5.162-9.677a.361.361,0,0,1,.282-.189l9.827-.988a.542.542,0,0,1,.324.069l5.945,3.419a3.585,3.585,0,0,1,1.637,3.981l-2.068,8.127a.361.361,0,0,0,.164.4l.333.2a2.753,2.753,0,0,1,1.074,3.592A2.7,2.7,0,0,1,102.64,217.862Z" transform="translate(-68.514 -196.603)" fill="#5e54ac"/>
          </g>
        </g>
        <g id="Group_1218441" data-name="Group 1218441" transform="translate(37.978 79.502)">
          <g id="Group_1218440" data-name="Group 1218440" transform="translate(0 0)">
            <path id="Path_1091228" data-name="Path 1091228" d="M220.314,200.094l-5.945-3.419a.54.54,0,0,0-.324-.069l-3.509.353,7,4.082a3.585,3.585,0,0,1,1.637,3.981L217.2,212.8a.85.85,0,0,0,.386.938,2.8,2.8,0,0,1,1.35,2.836,2.63,2.63,0,0,1-.541,1.21,2.7,2.7,0,0,0,3.059-1.389,2.753,2.753,0,0,0-1.074-3.592l-.333-.2a.361.361,0,0,1-.164-.4l2.068-8.127a3.585,3.585,0,0,0-1.637-3.981Z" transform="translate(-210.536 -196.604)" fill="#524798"/>
          </g>
        </g>
        <g id="Group_1218442" data-name="Group 1218442" transform="translate(74.155 58.398)">
          <path id="Path_1091229" data-name="Path 1091229" d="M427.259,84.844l-16.165-5.232v12.18l16.165-5.232A.9.9,0,0,0,427.259,84.844Z" transform="translate(-411.094 -79.612)" fill="#e28086"/>
        </g>
        <g id="Group_1218443" data-name="Group 1218443" transform="translate(74.155 61.887)">
          <path id="Path_1091230" data-name="Path 1091230" d="M427.259,100.7l-5.384-1.743-10.781,3.489v5.2l16.165-5.232a.9.9,0,0,0,0-1.716Z" transform="translate(-411.094 -98.956)" fill="#dd636e"/>
        </g>
        <g id="Group_1218444" data-name="Group 1218444" transform="translate(4.927 116.275)">
          <path id="Path_1091231" data-name="Path 1091231" d="M46.513,409.479h-17.4a1.8,1.8,0,0,1-1.8-1.8v-5.407a1.8,1.8,0,0,1,1.8-1.8h17.4a1.8,1.8,0,0,1,1.8,1.8v5.407A1.8,1.8,0,0,1,46.513,409.479Z" transform="translate(-27.313 -400.464)" fill="#ffd064"/>
        </g>
        <g id="Group_1218445" data-name="Group 1218445" transform="translate(34.29 116.275)">
          <path id="Path_1091232" data-name="Path 1091232" d="M209.293,409.479H191.9a1.8,1.8,0,0,1-1.8-1.8v-5.407a1.8,1.8,0,0,1,1.8-1.8h17.4a1.8,1.8,0,0,1,1.8,1.8v5.407A1.8,1.8,0,0,1,209.293,409.479Z" transform="translate(-190.093 -400.464)" fill="#ffd064"/>
        </g>
        <g id="Group_1218446" data-name="Group 1218446" transform="translate(63.653 116.275)">
          <path id="Path_1091233" data-name="Path 1091233" d="M372.075,409.479h-17.4a1.8,1.8,0,0,1-1.8-1.8v-5.407a1.8,1.8,0,0,1,1.8-1.8h17.4a1.8,1.8,0,0,1,1.8,1.8v5.407A1.8,1.8,0,0,1,372.075,409.479Z" transform="translate(-352.875 -400.464)" fill="#ffd064"/>
        </g>
        <g id="Group_1218447" data-name="Group 1218447" transform="translate(4.927 116.275)">
          <path id="Path_1091234" data-name="Path 1091234" d="M46.513,400.464H44.6v3.494a1.8,1.8,0,0,1-1.8,1.8H27.313v1.914a1.8,1.8,0,0,0,1.8,1.8h17.4a1.8,1.8,0,0,0,1.8-1.8v-5.407A1.8,1.8,0,0,0,46.513,400.464Z" transform="translate(-27.313 -400.464)" fill="#ffc250"/>
        </g>
        <g id="Group_1218448" data-name="Group 1218448" transform="translate(34.29 116.275)">
          <path id="Path_1091235" data-name="Path 1091235" d="M209.294,400.464H207.38v3.494a1.8,1.8,0,0,1-1.8,1.8H190.094v1.914a1.8,1.8,0,0,0,1.8,1.8h17.4a1.8,1.8,0,0,0,1.8-1.8v-5.407a1.8,1.8,0,0,0-1.8-1.8Z" transform="translate(-190.094 -400.464)" fill="#ffc250"/>
        </g>
        <g id="Group_1218449" data-name="Group 1218449" transform="translate(63.654 116.275)">
          <path id="Path_1091236" data-name="Path 1091236" d="M372.076,400.464h-1.914v3.494a1.8,1.8,0,0,1-1.8,1.8H352.876v1.914a1.8,1.8,0,0,0,1.8,1.8h17.4a1.8,1.8,0,0,0,1.8-1.8v-5.407a1.8,1.8,0,0,0-1.8-1.8Z" transform="translate(-352.876 -400.464)" fill="#ffc250"/>
        </g>
        <g id="Group_1218450" data-name="Group 1218450" transform="translate(4.927 107.26)">
          <path id="Path_1091237" data-name="Path 1091237" d="M46.513,359.5h-17.4a1.8,1.8,0,0,1-1.8-1.8v-5.407a1.8,1.8,0,0,1,1.8-1.8h17.4a1.8,1.8,0,0,1,1.8,1.8V357.7A1.8,1.8,0,0,1,46.513,359.5Z" transform="translate(-27.313 -350.488)" fill="#ffd064"/>
        </g>
        <g id="Group_1218451" data-name="Group 1218451" transform="translate(34.29 107.26)">
          <path id="Path_1091238" data-name="Path 1091238" d="M209.293,359.5H191.9a1.8,1.8,0,0,1-1.8-1.8v-5.407a1.8,1.8,0,0,1,1.8-1.8h17.4a1.8,1.8,0,0,1,1.8,1.8V357.7A1.8,1.8,0,0,1,209.293,359.5Z" transform="translate(-190.093 -350.488)" fill="#ffd064"/>
        </g>
        <g id="Group_1218452" data-name="Group 1218452" transform="translate(63.653 107.26)">
          <path id="Path_1091239" data-name="Path 1091239" d="M372.075,359.5h-17.4a1.8,1.8,0,0,1-1.8-1.8v-5.407a1.8,1.8,0,0,1,1.8-1.8h17.4a1.8,1.8,0,0,1,1.8,1.8V357.7A1.8,1.8,0,0,1,372.075,359.5Z" transform="translate(-352.875 -350.488)" fill="#ffd064"/>
        </g>
        <g id="Group_1218453" data-name="Group 1218453" transform="translate(4.927 107.26)">
          <path id="Path_1091240" data-name="Path 1091240" d="M46.513,350.488H44.6v3.493a1.8,1.8,0,0,1-1.8,1.8H27.313V357.7a1.8,1.8,0,0,0,1.8,1.8h17.4a1.8,1.8,0,0,0,1.8-1.8v-5.407A1.8,1.8,0,0,0,46.513,350.488Z" transform="translate(-27.313 -350.488)" fill="#ffc250"/>
        </g>
        <g id="Group_1218454" data-name="Group 1218454" transform="translate(34.29 107.26)">
          <path id="Path_1091241" data-name="Path 1091241" d="M209.294,350.488H207.38v3.493a1.8,1.8,0,0,1-1.8,1.8H190.094V357.7a1.8,1.8,0,0,0,1.8,1.8h17.4a1.8,1.8,0,0,0,1.8-1.8v-5.407a1.8,1.8,0,0,0-1.8-1.8Z" transform="translate(-190.094 -350.488)" fill="#ffc250"/>
        </g>
        <g id="Group_1218455" data-name="Group 1218455" transform="translate(63.654 107.26)">
          <path id="Path_1091242" data-name="Path 1091242" d="M372.076,350.488h-1.914v3.493a1.8,1.8,0,0,1-1.8,1.8H352.876V357.7a1.8,1.8,0,0,0,1.8,1.8h17.4a1.8,1.8,0,0,0,1.8-1.8v-5.407a1.8,1.8,0,0,0-1.8-1.8Z" transform="translate(-352.876 -350.488)" fill="#ffc250"/>
        </g>
        <g id="Group_1218456" data-name="Group 1218456" transform="translate(34.29 98.245)">
          <path id="Path_1091243" data-name="Path 1091243" d="M209.293,309.527H191.9a1.8,1.8,0,0,1-1.8-1.8v-5.407a1.8,1.8,0,0,1,1.8-1.8h17.4a1.8,1.8,0,0,1,1.8,1.8v5.407A1.8,1.8,0,0,1,209.293,309.527Z" transform="translate(-190.093 -300.512)" fill="#ffd064"/>
        </g>
        <g id="Group_1218457" data-name="Group 1218457" transform="translate(63.653 98.245)">
          <path id="Path_1091244" data-name="Path 1091244" d="M372.075,309.527h-17.4a1.8,1.8,0,0,1-1.8-1.8v-5.407a1.8,1.8,0,0,1,1.8-1.8h17.4a1.8,1.8,0,0,1,1.8,1.8v5.407A1.8,1.8,0,0,1,372.075,309.527Z" transform="translate(-352.875 -300.512)" fill="#ffd064"/>
        </g>
        <g id="Group_1218458" data-name="Group 1218458" transform="translate(34.29 98.245)">
          <path id="Path_1091245" data-name="Path 1091245" d="M209.294,300.512H207.38v3.494a1.8,1.8,0,0,1-1.8,1.8H190.094v1.914a1.8,1.8,0,0,0,1.8,1.8h17.4a1.8,1.8,0,0,0,1.8-1.8v-5.407a1.8,1.8,0,0,0-1.8-1.8Z" transform="translate(-190.094 -300.512)" fill="#ffc250"/>
        </g>
        <g id="Group_1218459" data-name="Group 1218459" transform="translate(63.654 98.245)">
          <path id="Path_1091246" data-name="Path 1091246" d="M372.076,300.512h-1.914v3.494a1.8,1.8,0,0,1-1.8,1.8H352.876v1.914a1.8,1.8,0,0,0,1.8,1.8h17.4a1.8,1.8,0,0,0,1.8-1.8v-5.407a1.8,1.8,0,0,0-1.8-1.8Z" transform="translate(-352.876 -300.512)" fill="#ffc250"/>
        </g>
        <g id="Group_1218460" data-name="Group 1218460" transform="translate(63.653 89.23)">
          <path id="Path_1091247" data-name="Path 1091247" d="M372.075,259.551h-17.4a1.8,1.8,0,0,1-1.8-1.8V252.34a1.8,1.8,0,0,1,1.8-1.8h17.4a1.8,1.8,0,0,1,1.8,1.8v5.407A1.8,1.8,0,0,1,372.075,259.551Z" transform="translate(-352.875 -250.536)" fill="#ffd064"/>
        </g>
        <g id="Group_1218461" data-name="Group 1218461" transform="translate(63.654 89.23)">
          <path id="Path_1091248" data-name="Path 1091248" d="M372.076,250.536h-1.914v3.493a1.8,1.8,0,0,1-1.8,1.8H352.876v1.914a1.8,1.8,0,0,0,1.8,1.8h17.4a1.8,1.8,0,0,0,1.8-1.8V252.34a1.8,1.8,0,0,0-1.8-1.8Z" transform="translate(-352.876 -250.536)" fill="#ffc250"/>
        </g>
        <g id="Group_1218462" data-name="Group 1218462" transform="translate(63.653 80.215)">
          <path id="Path_1091249" data-name="Path 1091249" d="M372.075,209.575h-17.4a1.8,1.8,0,0,1-1.8-1.8v-5.407a1.8,1.8,0,0,1,1.8-1.8h17.4a1.8,1.8,0,0,1,1.8,1.8v5.407A1.8,1.8,0,0,1,372.075,209.575Z" transform="translate(-352.875 -200.56)" fill="#ffd064"/>
        </g>
        <g id="Group_1218463" data-name="Group 1218463" transform="translate(63.654 80.215)">
          <path id="Path_1091250" data-name="Path 1091250" d="M372.076,200.56h-1.914v3.494a1.8,1.8,0,0,1-1.8,1.8H352.876v1.914a1.8,1.8,0,0,0,1.8,1.8h17.4a1.8,1.8,0,0,0,1.8-1.8v-5.407a1.8,1.8,0,0,0-1.8-1.8Z" transform="translate(-352.876 -200.56)" fill="#ffc250"/>
        </g>
        <g id="Group_1218464" data-name="Group 1218464" transform="translate(52.441 62.087)">
          <path id="Path_1091251" data-name="Path 1091251" d="M297.455,102.077l-1.9-1.661a1.443,1.443,0,0,0-2.019.119l-2.818,3.113,4.078,3.559,2.783-3.074A1.443,1.443,0,0,0,297.455,102.077Z" transform="translate(-290.715 -100.061)" fill="#ffcbbe"/>
        </g>
        <g id="Group_1218466" data-name="Group 1218466" transform="translate(21.291 77.119)">
          <g id="Group_1218465" data-name="Group 1218465" transform="translate(0 0)">
            <path id="Path_1091252" data-name="Path 1091252" d="M123.861,183.738l-5.414-.342-.409,4.088a1.443,1.443,0,0,0,1.33,1.58l2.522.186a1.443,1.443,0,0,0,1.542-1.294Z" transform="translate(-118.03 -183.396)" fill="#ffcbbe"/>
          </g>
        </g>
        <g id="Group_1218468" data-name="Group 1218468" transform="translate(21.291 77.119)">
          <g id="Group_1218467" data-name="Group 1218467" transform="translate(0 0)">
            <path id="Path_1091253" data-name="Path 1091253" d="M123.861,183.738l-5.414-.342-.409,4.088a1.443,1.443,0,0,0,1.33,1.58l2.522.186a1.443,1.443,0,0,0,1.542-1.294Z" transform="translate(-118.03 -183.396)" fill="#ffcbbe"/>
          </g>
        </g>
        <g id="Group_1218469" data-name="Group 1218469" transform="translate(24.265 77.34)">
          <path id="Path_1091254" data-name="Path 1091254" d="M135.4,185.055h0l-.43,4.217a1.422,1.422,0,0,1-.355.809c-.033.037-.069.071-.106.1l.885.065a1.443,1.443,0,0,0,1.542-1.294l.43-4.217-1.927-.122Z" transform="translate(-134.515 -184.618)" fill="#eaac9d"/>
        </g>
        <g id="Group_1218470" data-name="Group 1218470" transform="translate(54.926 63.68)">
          <path id="Path_1091255" data-name="Path 1091255" d="M308.749,109.316l-.485-.424-2.016,2.227-1.753,1.936,1.593,1.39,2.783-3.074A1.443,1.443,0,0,0,308.749,109.316Z" transform="translate(-304.494 -108.892)" fill="#eaac9d"/>
        </g>
        <path id="Path_1091256" data-name="Path 1091256" d="M90.737,62.343,74.572,57.111A1.364,1.364,0,0,0,72.8,58.4V78.862H65.457A3.16,3.16,0,0,0,62.3,82.019v5.407a3.137,3.137,0,0,0,.57,1.8,3.137,3.137,0,0,0-.57,1.8v5.407a3.137,3.137,0,0,0,.57,1.8,3.137,3.137,0,0,0-.57,1.8v5.407a3.137,3.137,0,0,0,.57,1.8,3.137,3.137,0,0,0-.57,1.8v5.407a3.137,3.137,0,0,0,.57,1.8,3.137,3.137,0,0,0-.57,1.8v5.407a3.152,3.152,0,0,0,.036.451H36.094a.451.451,0,0,1-.451-.451v-5.407a.451.451,0,0,1,.451-.451h17.4a.451.451,0,0,1,.451.451v.548a1.353,1.353,0,1,0,2.706,0v-.548a3.137,3.137,0,0,0-.57-1.8,3.137,3.137,0,0,0,.57-1.8v-5.407a3.137,3.137,0,0,0-.57-1.8,3.137,3.137,0,0,0,.57-1.8v-5.407a3.16,3.16,0,0,0-3.157-3.157H50.358a4.194,4.194,0,0,0-1.545-2.158l1.89-7.428a4.93,4.93,0,0,0-2.251-5.474l-.023-.013-4.959-2.851a7.345,7.345,0,0,0,.255-.69l1.02-3.32,2.194,1.2A4.946,4.946,0,0,0,53,75.137L60.3,67.067a2.8,2.8,0,0,0-.234-3.983h0l-1.9-1.661a2.812,2.812,0,0,0-3.549-.1A1.352,1.352,0,0,0,52.045,62l.146,1.937-3.538,3.908-4.508-2.468c-.043-.023-.086-.044-.13-.067a3.749,3.749,0,0,0,1.98-4.167l-.534-2.356a5.726,5.726,0,0,0-2.188-3.872,5.657,5.657,0,0,0-4.4-1.108A5.7,5.7,0,0,0,36,63.685a8.135,8.135,0,0,0-2.217.047L25.239,65.1a4.945,4.945,0,0,0-4.162,4.5L19.951,81.075a2.8,2.8,0,0,0,2.577,3.062l2.522.186.213.008a2.776,2.776,0,0,0,2.749-2.342,1.347,1.347,0,0,0,1.261-.235l-3.988,7.476-9.727.529a4.034,4.034,0,0,0-3.724,3.1l-.713,2.94a4.059,4.059,0,1,0,7.888,1.914l0-.008,8.815-.48c1.676-.161,2.857-.694,4.544-3.146,1.124-1.64,4.459-6.955,4.762-7.437a1.1,1.1,0,0,1,1.3-.382l3.785,1.5-2.006,7.884a4.043,4.043,0,0,0-.116,1.252h-4a3.16,3.16,0,0,0-3.157,3.157v5.407a3.137,3.137,0,0,0,.57,1.8,3.137,3.137,0,0,0-.57,1.8v5.407a3.137,3.137,0,0,0,.57,1.8,3.137,3.137,0,0,0-.57,1.8v5.407a3.15,3.15,0,0,0,.036.451H27.247a3.151,3.151,0,0,0,.036-.451v-5.407a3.137,3.137,0,0,0-.57-1.8,3.137,3.137,0,0,0,.57-1.8v-5.407a3.16,3.16,0,0,0-3.157-3.157H6.731a3.16,3.16,0,0,0-3.157,3.157v5.407a3.137,3.137,0,0,0,.57,1.8,3.137,3.137,0,0,0-.57,1.8v5.407a3.151,3.151,0,0,0,.036.451H1.353a1.353,1.353,0,0,0,0,2.706H88.231a1.353,1.353,0,0,0,0-2.706H85.974a3.15,3.15,0,0,0,.036-.451v-5.407a3.137,3.137,0,0,0-.57-1.8,3.137,3.137,0,0,0,.57-1.8v-5.407a3.137,3.137,0,0,0-.57-1.8,3.137,3.137,0,0,0,.57-1.8V100.05a3.137,3.137,0,0,0-.57-1.8,3.137,3.137,0,0,0,.57-1.8V91.035a3.137,3.137,0,0,0-.57-1.8,3.137,3.137,0,0,0,.57-1.8V82.019a3.16,3.16,0,0,0-3.157-3.157H75.508v-7.3l15.229-4.929a2.255,2.255,0,0,0,0-4.291ZM36.094,114.922a.451.451,0,0,1-.451-.451v-5.407a.451.451,0,0,1,.451-.451h17.4a.451.451,0,0,1,.451.451v5.407a.451.451,0,0,1-.451.451ZM56.323,63.44a.091.091,0,0,1,.065.022l1.9,1.661a.1.1,0,0,1,.007.128L56.408,67.34l-2.039-1.779,1.894-2.092A.089.089,0,0,1,56.323,63.44ZM39.306,56.476a2.976,2.976,0,0,1,2.316.581,3.409,3.409,0,0,1,1.155,2.082c.176.806.578,2.6.578,2.6A1.088,1.088,0,0,1,42.071,63a1.363,1.363,0,0,0-1.378,1.1l-.371,1.977L38.4,65.721l.44-2.344a1.353,1.353,0,0,0-.617-1.4,2.994,2.994,0,0,1,1.086-5.5ZM23.773,69.823a2.248,2.248,0,0,1,1.892-2.055L34.21,66.4a5.43,5.43,0,0,1,1.527-.023,2.6,2.6,0,0,0,2.054,1.98l2.138.4a2.59,2.59,0,0,0,2.66-1.146l5.7,3.112a1.352,1.352,0,0,0,1.653-.279l2.61-2.883,2.039,1.779-3.6,3.974a2.249,2.249,0,0,1-2.754.465l-3.456-1.892a1.533,1.533,0,0,0-2.2.9L41.14,77.484a4.569,4.569,0,0,1-.3.726l-8.176.822-.09-.829a18.324,18.324,0,0,1,.506-6.7A1.532,1.532,0,0,0,31.361,69.6l-3.725.6a1.534,1.534,0,0,0-1.284,1.36L25.9,76.028l-2.719-.172.589-6C23.772,69.843,23.773,69.833,23.773,69.823Zm1.476,11.8-2.522-.186c-.054.008-.1-.088-.08-.132l.276-2.754,2.706.171-.284,2.82A.092.092,0,0,1,25.249,81.623Zm4.131-1.88-1.027-1.027.6-5.993,1.133-.181a21.012,21.012,0,0,0-.2,5.953l.19,1.748-.308.577A1.351,1.351,0,0,0,29.38,79.743ZM42.829,96.308l2.221-8.729a1.717,1.717,0,0,0-1.028-2.016l-4.6-1.824a3.8,3.8,0,0,0-4.54,1.387c-.01.015-3.626,5.78-4.747,7.416-1.25,1.823-1.753,1.9-2.492,1.976l-9.518.518a1.7,1.7,0,0,0-1.572,1.307l-.176.725a1.353,1.353,0,0,1-2.63-.638l.713-2.94A1.345,1.345,0,0,1,15.7,92.459L25.99,91.9a1.723,1.723,0,0,0,1.419-.9l4.913-9.21,9.04-.909,5.707,3.281a2.24,2.24,0,0,1,1.013,2.482l-2.068,8.127a1.7,1.7,0,0,0,.778,1.892l.332.2c.017.011.033.023.05.035H42.812a1.359,1.359,0,0,1,.017-.584Zm-7.186,3.741a.451.451,0,0,1,.451-.451h17.4a.451.451,0,0,1,.451.451v5.407a.451.451,0,0,1-.451.451h-17.4a.451.451,0,0,1-.451-.451Zm47.661,0v5.407a.451.451,0,0,1-.451.451h-17.4a.451.451,0,0,1-.451-.451v-5.407a.451.451,0,0,1,.451-.451h17.4A.451.451,0,0,1,83.3,100.049Zm0,9.015v5.407a.451.451,0,0,1-.451.451h-17.4a.451.451,0,0,1-.451-.451v-5.407a.451.451,0,0,1,.451-.451h17.4A.451.451,0,0,1,83.3,109.064ZM6.731,123.937a.451.451,0,0,1-.451-.451v-5.407a.451.451,0,0,1,.451-.451h6.708a1.353,1.353,0,0,0,0-2.706H6.731a.451.451,0,0,1-.451-.451v-5.407a.451.451,0,0,1,.451-.451h17.4a.451.451,0,0,1,.451.451v5.407a.451.451,0,0,1-.451.451h-4.16a1.353,1.353,0,0,0,0,2.706h4.16a.451.451,0,0,1,.451.451v5.407a.451.451,0,0,1-.451.451Zm58.727,0a.451.451,0,0,1-.451-.451v-5.407a.451.451,0,0,1,.451-.451h17.4a.451.451,0,0,1,.451.451v5.407a.451.451,0,0,1-.451.451ZM83.3,82.019v5.407a.451.451,0,0,1-.451.451H74.7a1.353,1.353,0,0,0,0,2.706h8.151a.451.451,0,0,1,.451.451v5.407a.451.451,0,0,1-.451.451h-17.4a.451.451,0,0,1-.451-.451V91.034a.451.451,0,0,1,.451-.451h2.773a1.353,1.353,0,1,0,0-2.706H65.457a.451.451,0,0,1-.451-.451V82.019a.451.451,0,0,1,.451-.451h17.4a.451.451,0,0,1,.451.451Zm-7.8-13.3v-8.46l13.07,4.23Z" transform="translate(0 0)"/>
      </g>
    </g>
  </g>
</svg>
