<svg xmlns="http://www.w3.org/2000/svg" xmlns:xlink="http://www.w3.org/1999/xlink" width="110" height="110" viewBox="0 0 110 110">
  <defs>
    <filter id="Path_982547" x="0" y="0" width="110" height="110" filterUnits="userSpaceOnUse">
      <feOffset dy="3" input="SourceAlpha"/>
      <feGaussianBlur stdDeviation="3" result="blur"/>
      <feFlood flood-opacity="0.161"/>
      <feComposite operator="in" in2="blur"/>
      <feComposite in="SourceGraphic"/>
    </filter>
  </defs>
  <g id="Group_1218570" data-name="Group 1218570" transform="translate(1360 -3155.715)">
    <g id="Group_1217944" data-name="Group 1217944">
      <g id="Group_1217658" data-name="Group 1217658" transform="translate(-2158 453.715)">
        <g id="Group_1185951" data-name="Group 1185951" transform="translate(-0.461 1748.71)">
          <g id="Group_1184083" data-name="Group 1184083" transform="translate(-32.778 -1471.71)">
            <g id="Group_1183743" data-name="Group 1183743" transform="translate(459.195 -389)">
              <g id="Group_1181545" data-name="Group 1181545" transform="translate(-5.417 -130)">
                <g id="Group_1177562" data-name="Group 1177562" transform="translate(0 -12113)">
                  <g id="Group_1173147" data-name="Group 1173147" transform="translate(386.461 15063)">
                    <g id="Group_1163801" data-name="Group 1163801" transform="translate(0 0)">
                      <g id="Group_1163014" data-name="Group 1163014">
                        <g id="Group_1157015" data-name="Group 1157015" transform="translate(0 0)">
                          <g id="Group_1155792" data-name="Group 1155792" transform="translate(0 0)">
                            <g id="Group_1154703" data-name="Group 1154703">
                              <g id="Group_1150789" data-name="Group 1150789">
                                <g id="Group_1154212" data-name="Group 1154212">
                                  <g id="Group_1152583" data-name="Group 1152583">
                                    <g id="Group_1146973" data-name="Group 1146973" transform="translate(0 0)">
                                      <g id="Group_1146954" data-name="Group 1146954">
                                        <g transform="matrix(1, 0, 0, 1, -9, -6)" filter="url(#Path_982547)">
                                          <g id="Path_982547-2" data-name="Path 982547" transform="translate(9 6)" fill="#f2f7e5">
                                            <path d="M 46.00000381469727 90.49988555908203 C 39.99188232421875 90.49988555908203 34.16427230834961 89.32352447509766 28.67905807495117 87.00347137451172 C 23.38020324707031 84.76226043701172 18.62103080749512 81.55342864990234 14.53375053405762 77.46615600585938 C 10.44645690917969 73.37887573242188 7.237643718719482 68.61971282958984 4.996417045593262 63.32085800170898 C 2.676363706588745 57.83565902709961 1.500003814697266 52.00806045532227 1.500003814697266 45.99993896484375 C 1.500003814697266 39.99181747436523 2.676363706588745 34.16421890258789 4.996417045593262 28.67901802062988 C 7.237643718719482 23.38017845153809 10.44645690917969 18.62101936340332 14.53375053405762 14.53373908996582 C 18.62103080749512 10.44645881652832 23.38020324707031 7.237632274627686 28.67905807495117 4.996418952941895 C 34.16427230834961 2.676365613937378 39.99188232421875 1.500005602836609 46.00000381469727 1.500005602836609 C 52.00812530517578 1.500005602836609 57.83573532104492 2.676365613937378 63.32094955444336 4.996418952941895 C 68.61980438232422 7.237632274627686 73.37896728515625 10.44645881652832 77.46625518798828 14.53373908996582 C 81.55353546142578 18.62101936340332 84.76236724853516 23.38017845153809 87.00359344482422 28.67901802062988 C 89.32364654541016 34.16421890258789 90.5 39.99181747436523 90.5 45.99993896484375 C 90.5 52.00806045532227 89.32364654541016 57.83565902709961 87.00359344482422 63.32085800170898 C 84.76236724853516 68.61971282958984 81.55353546142578 73.37887573242188 77.46625518798828 77.46615600585938 C 73.37896728515625 81.55342864990234 68.61980438232422 84.76226043701172 63.32094955444336 87.00347137451172 C 57.83573532104492 89.32352447509766 52.00812530517578 90.49988555908203 46.00000381469727 90.49988555908203 Z" stroke="none"/>
                                            <path d="M 46.00000381469727 2.999992370605469 C 40.19371795654297 2.999992370605469 34.56270217895508 4.136497497558594 29.26338958740234 6.377906799316406 C 24.14333343505859 8.543510437011719 19.54441833496094 11.64437866210938 15.59440612792969 15.59439849853516 C 11.64440155029297 19.54439544677734 8.54351806640625 24.14329528808594 6.377914428710938 29.26335144042969 C 4.136505126953125 34.56266784667969 3.000007629394531 40.19366836547852 3.000007629394531 45.99993896484375 C 3.000007629394531 51.80620956420898 4.136505126953125 57.43722534179688 6.377914428710938 62.73654174804688 C 8.54351806640625 67.85658264160156 11.64440155029297 72.45548248291016 15.59440612792969 76.40549468994141 C 19.54441833496094 80.35549926757812 24.14333343505859 83.45636749267578 29.26337432861328 85.62196350097656 C 34.56270217895508 87.86338043212891 40.19371795654297 88.9998779296875 46.00000381469727 88.9998779296875 C 51.80628967285156 88.9998779296875 57.43730545043945 87.86338043212891 62.73663330078125 85.62196350097656 C 67.85667419433594 83.45636749267578 72.45558929443359 80.35549926757812 76.40560150146484 76.40549468994141 C 80.35560607910156 72.45548248291016 83.45648956298828 67.85658264160156 85.62208557128906 62.73654174804688 C 87.86350250244141 57.43722534179688 89 51.80620956420898 89 45.99993896484375 C 89 40.19366836547852 87.86350250244141 34.56266784667969 85.62208557128906 29.26335144042969 C 83.45648956298828 24.14329528808594 80.35560607910156 19.54439544677734 76.40560150146484 15.59439849853516 C 72.45558929443359 11.64437866210938 67.85667419433594 8.543510437011719 62.73661804199219 6.377906799316406 C 57.43730545043945 4.136497497558594 51.80628967285156 2.999992370605469 46.00000381469727 2.999992370605469 M 46.00000381469727 -7.62939453125e-06 C 71.40510559082031 -7.62939453125e-06 92 20.59487915039062 92 45.99993896484375 C 92 71.40501403808594 71.40510559082031 91.99988555908203 46.00000381469727 91.99988555908203 C 20.59490203857422 91.99988555908203 7.62939453125e-06 71.40501403808594 7.62939453125e-06 45.99993896484375 C 7.62939453125e-06 20.59487915039062 20.59490203857422 -7.62939453125e-06 46.00000381469727 -7.62939453125e-06 Z" stroke="none" fill="#86b60c"/>
                                          </g>
                                        </g>
                                      </g>
                                    </g>
                                  </g>
                                </g>
                              </g>
                            </g>
                          </g>
                        </g>
                      </g>
                    </g>
                  </g>
                </g>
              </g>
            </g>
          </g>
        </g>
      </g>
      <g id="Artboard21" transform="translate(-1384.922 3166.707)">
        <g id="Group_1217943" data-name="Group 1217943" transform="translate(52.613 7)">
          <g id="Group_1217942" data-name="Group 1217942" transform="translate(1.291 1.236)">
            <g id="Group_1217939" data-name="Group 1217939" transform="translate(0 14.448)">
              <g id="Group_1217935" data-name="Group 1217935">
                <g id="CorelEMF">
                  <path id="Path_1090208" data-name="Path 1090208" d="M62.05,104.23h37.6a1.386,1.386,0,0,1,1.013.42l6.824,6.824a1.386,1.386,0,0,1,.42,1.014V164.1a1.433,1.433,0,0,1-1.43,1.43H62.05a1.434,1.434,0,0,1-1.434-1.43V105.664A1.437,1.437,0,0,1,62.05,104.23Z" transform="translate(-60.616 -104.23)" fill="#eceff1" fill-rule="evenodd"/>
                  <path id="Path_1090209" data-name="Path 1090209" d="M306.3,104.993v6.824a.718.718,0,0,0,.717.717h6.824a1.437,1.437,0,0,0-.3-.42l-6.824-6.824A1.505,1.505,0,0,0,306.3,104.993Z" transform="translate(-266.673 -104.87)" fill="#a79ba7" fill-rule="evenodd"/>
                  <path id="Path_1090210" data-name="Path 1090210" d="M62.05,104.23h1.43v61.3H62.05a1.434,1.434,0,0,1-1.434-1.43V105.664A1.437,1.437,0,0,1,62.05,104.23Z" transform="translate(-60.616 -104.23)" fill="#d1d1d6" fill-rule="evenodd"/>
                </g>
              </g>
              <g id="Group_1217936" data-name="Group 1217936" transform="translate(8.512 15.69)">
                <path id="Path_1090211" data-name="Path 1090211" d="M114.432,201.5h8a1.047,1.047,0,0,1,1.044,1.044v8a1.047,1.047,0,0,1-1.044,1.044h-8a1.047,1.047,0,0,1-1.044-1.044v-8A1.047,1.047,0,0,1,114.432,201.5Z" transform="translate(-113.388 -201.5)" fill="#8ac9fe" fill-rule="evenodd"/>
                <path id="Path_1090212" data-name="Path 1090212" d="M161.462,201.5h1.29a1.047,1.047,0,0,1,1.044,1.044v8a1.047,1.047,0,0,1-1.044,1.044h-1.29a1.047,1.047,0,0,0,1.044-1.044v-8A1.047,1.047,0,0,0,161.462,201.5Z" transform="translate(-153.707 -201.5)" fill="#60b7ff" fill-rule="evenodd"/>
              </g>
              <g id="Group_1217937" data-name="Group 1217937" transform="translate(8.512 30.092)">
                <path id="Path_1090213" data-name="Path 1090213" d="M114.432,290.779h8a1.047,1.047,0,0,1,1.044,1.044v8a1.046,1.046,0,0,1-1.044,1.044h-8a1.047,1.047,0,0,1-1.044-1.044v-8A1.047,1.047,0,0,1,114.432,290.779Z" transform="translate(-113.388 -290.779)" fill="#6cf5c2" fill-rule="evenodd"/>
                <path id="Path_1090214" data-name="Path 1090214" d="M161.462,290.779h1.29a1.047,1.047,0,0,1,1.044,1.044v8a1.046,1.046,0,0,1-1.044,1.044h-1.29a1.046,1.046,0,0,0,1.044-1.044v-8A1.047,1.047,0,0,0,161.462,290.779Z" transform="translate(-153.707 -290.779)" fill="#00e499" fill-rule="evenodd"/>
              </g>
              <g id="Group_1217938" data-name="Group 1217938" transform="translate(8.512 44.493)">
                <path id="Path_1090215" data-name="Path 1090215" d="M114.432,380.058h8a1.049,1.049,0,0,1,1.044,1.047v8a1.047,1.047,0,0,1-1.044,1.044h-8a1.047,1.047,0,0,1-1.044-1.044v-8A1.05,1.05,0,0,1,114.432,380.058Z" transform="translate(-113.388 -380.058)" fill="#ffe177" fill-rule="evenodd"/>
                <path id="Path_1090216" data-name="Path 1090216" d="M161.462,380.058h1.29a1.049,1.049,0,0,1,1.044,1.047v8a1.047,1.047,0,0,1-1.044,1.044h-1.29a1.047,1.047,0,0,0,1.044-1.044v-8A1.049,1.049,0,0,0,161.462,380.058Z" transform="translate(-153.707 -380.058)" fill="#ffd064" fill-rule="evenodd"/>
              </g>
            </g>
            <g id="Group_1217940" data-name="Group 1217940" transform="translate(28.042 42.904)">
              <path id="Path_1090217" data-name="Path 1090217" d="M250.07,332.983a15.613,15.613,0,1,0-15.614-15.614A15.645,15.645,0,0,0,250.07,332.983Z" transform="translate(-234.456 -298.351)" fill="#fe646f" fill-rule="evenodd"/>
              <path id="Path_1090218" data-name="Path 1090218" d="M325.749,301.757a15.613,15.613,0,1,1,0,31.226c-.356,0-.709-.012-1.059-.036a15.613,15.613,0,0,0,0-31.154C325.04,301.769,325.392,301.757,325.749,301.757Z" transform="translate(-310.135 -298.351)" fill="#fd4755" fill-rule="evenodd"/>
              <path id="Path_1090219" data-name="Path 1090219" d="M279.085,356.418a10.033,10.033,0,1,0-10.034-10.034A10.053,10.053,0,0,0,279.085,356.418Z" transform="translate(-263.471 -327.365)" fill="#eceff1" fill-rule="evenodd"/>
              <path id="Path_1090220" data-name="Path 1090220" d="M279.085,336.352c.238,0,.472.008.707.024a10.034,10.034,0,0,0,0,20.018c-.234.016-.468.024-.707.024a10.033,10.033,0,1,1,0-20.066Z" transform="translate(-263.471 -327.365)" fill="#d1d1d6" fill-rule="evenodd"/>
              <path id="Path_1090221" data-name="Path 1090221" d="M308.1,379.851a4.452,4.452,0,1,0-4.454-4.453A4.462,4.462,0,0,0,308.1,379.851Z" transform="translate(-292.484 -356.379)" fill="#fe646f" fill-rule="evenodd"/>
              <path id="Path_1090222" data-name="Path 1090222" d="M308.1,370.946a4.452,4.452,0,1,0,0,8.9,4.331,4.331,0,0,0,.707-.056,4.453,4.453,0,0,1,0-8.793,4.331,4.331,0,0,0-.707-.056Z" transform="translate(-292.484 -356.379)" fill="#fd4755" fill-rule="evenodd"/>
              <path id="Path_1090223" data-name="Path 1090223" d="M388.756,286.593l-5.478,5.48a.689.689,0,0,1-.649.19l-4.435-.957-.957-4.435a.686.686,0,0,1,.192-.649l5.478-5.478a.354.354,0,0,1,.594.176l.9,4.177,4.177.9a.352.352,0,0,1,.176.595Z" transform="translate(-354.191 -280.64)" fill="#e3a76f" fill-rule="evenodd"/>
              <path id="Path_1090224" data-name="Path 1090224" d="M392.518,313.639l-5.478,5.48a.689.689,0,0,1-.649.19l-4.435-.957-.25-1.161,4.241.915a.692.692,0,0,0,.648-.192l5.024-5.026.723.156a.352.352,0,0,1,.176.595Z" transform="translate(-357.954 -307.686)" fill="#c48958" fill-rule="evenodd"/>
            </g>
            <g id="Group_1217941" data-name="Group 1217941" transform="translate(7.064)">
              <path id="Path_1090225" data-name="Path 1090225" d="M120.3,16.856a11.3,11.3,0,0,1,3.312,1.373l2.152-.955,2.536,2.536-.955,2.152a11.3,11.3,0,0,1,1.373,3.312l2.2.845v3.587l-2.2.845a11.3,11.3,0,0,1-1.373,3.31l.955,2.152-2.536,2.537-2.152-.956a11.3,11.3,0,0,1-3.312,1.374l-.845,2.194h-3.587l-.845-2.2a11.305,11.305,0,0,1-3.31-1.373l-2.152.956-2.537-2.537.956-2.151a11.336,11.336,0,0,1-1.374-3.312l-2.194-.845V26.118l2.194-.845a11.3,11.3,0,0,1,1.374-3.312l-.956-2.152,2.537-2.536,2.151.955a11.332,11.332,0,0,1,3.312-1.373l.845-2.2h3.587Z" transform="translate(-104.411 -14.66)" fill="#ffe177" fill-rule="evenodd"/>
              <path id="Path_1090226" data-name="Path 1090226" d="M150.146,17.595l.723-.321,2.536,2.536-.955,2.152a11.3,11.3,0,0,1,1.373,3.312l2.2.845v3.587l-2.2.845a11.3,11.3,0,0,1-1.373,3.31l.955,2.152-2.536,2.537-.723-.321,2.216-2.216-.956-2.152a11.3,11.3,0,0,0,1.373-3.31l2.2-.845V26.118l-2.2-.845a11.3,11.3,0,0,0-1.373-3.312l.956-2.152Zm-15.8,0,.321-.321,2.151.955c-.152.085-.3.172-.449.265Zm11.061-.739a11.3,11.3,0,0,1,3.312,1.373l-.593.265a14.78,14.78,0,0,0-3.763-1.637l-.845-2.2h1.044Zm-8.588,20.738-2.152.956-.321-.321,2.022-.9Q136.587,37.467,136.817,37.594Zm11.9,0a11.3,11.3,0,0,1-3.312,1.374l-.845,2.194h-1.044l.845-2.194a14.815,14.815,0,0,0,3.764-1.637Z" transform="translate(-129.516 -14.66)" fill="#ffd064" fill-rule="evenodd"/>
              <path id="Path_1090227" data-name="Path 1090227" d="M152.79,56.544a6.5,6.5,0,1,1-6.495,6.5,6.5,6.5,0,0,1,6.495-6.5Z" transform="translate(-139.539 -49.788)" fill="#eceff1" fill-rule="evenodd"/>
              <path id="Path_1090228" data-name="Path 1090228" d="M152.79,56.544c.148,0,.294.005.441.016a6.495,6.495,0,0,0,0,12.96c-.146.009-.293.015-.441.015a6.5,6.5,0,0,1,0-12.99Z" transform="translate(-139.539 -49.788)" fill="#d1d1d6" fill-rule="evenodd"/>
            </g>
          </g>
          <path id="Path_1090229" data-name="Path 1090229" d="M90.029,85.288H53.861a1.248,1.248,0,0,1-1.248-1.248v-61.3A1.248,1.248,0,0,1,53.861,21.5h5.77V19.753a1.29,1.29,0,0,1,.827-1.2l1.584-.61a12.639,12.639,0,0,1,1.005-2.423l-.69-1.552a1.29,1.29,0,0,1,.267-1.437l2.535-2.535A1.29,1.29,0,0,1,66.6,9.726l1.551.69a12.565,12.565,0,0,1,2.42-1l.612-1.587A1.29,1.29,0,0,1,72.383,7h3.586a1.291,1.291,0,0,1,1.2.828l.609,1.585a12.564,12.564,0,0,1,2.419,1l1.552-.69a1.29,1.29,0,0,1,1.437.267l2.535,2.535a1.291,1.291,0,0,1,.267,1.435l-.688,1.552a12.542,12.542,0,0,1,1,2.425l1.582.609a1.29,1.29,0,0,1,.827,1.2V21.5h4.773a1.248,1.248,0,0,1,.882.366l7.665,7.665a1.247,1.247,0,0,1,.366.882V54.289a16.631,16.631,0,0,1,2.425.977l5.082-5.085a1.291,1.291,0,0,1,2.174.64l.529,2.455a1.291,1.291,0,0,1,1.817,1.817l2.455.529a1.29,1.29,0,0,1,.641,2.174l-5.1,5.1a16.731,16.731,0,0,1-22.4,22.4Zm-30.221-61.3h-4.7v58.8H86.32a16.822,16.822,0,0,1-4.781-7.19h-2.7a1.248,1.248,0,0,1,0-2.5h2.069q-.14-.81-.2-1.645H78.838a1.248,1.248,0,1,1,0-2.5h1.877A16.625,16.625,0,0,1,83.346,61.2H78.838a1.248,1.248,0,1,1,0-2.5h6.483a16.917,16.917,0,0,1,1.821-1.645h-8.3a1.248,1.248,0,0,1,0-2.5H91.615a16.744,16.744,0,0,1,8.293-.848V31.656H93.491a1.248,1.248,0,0,1-1.248-1.248V23.991h-3.7a1.289,1.289,0,0,1-.65.552l-1.583.609a12.671,12.671,0,0,1-1,2.419l.688,1.553a1.291,1.291,0,0,1-.267,1.435L83.191,33.1a1.291,1.291,0,0,1-1.435.267L80.2,32.675a12.533,12.533,0,0,1-2.422,1l-.609,1.582a1.29,1.29,0,0,1-1.2.827H72.383a1.29,1.29,0,0,1-1.2-.827l-.609-1.582a12.65,12.65,0,0,1-2.423-1l-1.554.688a1.29,1.29,0,0,1-1.435-.267L62.623,30.56a1.29,1.29,0,0,1-.267-1.437l.69-1.551a12.634,12.634,0,0,1-1-2.42l-1.584-.61a1.289,1.289,0,0,1-.65-.552ZM98.144,29.16l-3.4-3.4v3.4Zm5.264,28.285a14.171,14.171,0,1,0,6.836,6.852l-.043-.008-3.892-.839a11.237,11.237,0,1,1-2.051-2.059l-.837-3.879C103.415,57.49,103.411,57.467,103.407,57.445Zm7.034-2-.379-1.76-3.971,3.974.379,1.758Zm-2.146,5.8,1.761.38,3.971-3.971-1.761-.38Zm-5.745,2.1a8.653,8.653,0,1,0,1.82,1.83l-2.112,2.112a5.7,5.7,0,1,1-1.817-1.833Zm-4.024,4.024a3.114,3.114,0,1,0,1.809,1.841l-2,2a1.29,1.29,0,0,1-1.825-1.825ZM75.61,10.953l-.527-1.372H73.268l-.53,1.373a1.29,1.29,0,0,1-.906.791A9.989,9.989,0,0,0,68.9,12.961a1.291,1.291,0,0,1-1.2.081l-1.342-.6-1.281,1.282.6,1.342a1.29,1.29,0,0,1-.08,1.2,10.077,10.077,0,0,0-1.22,2.939,1.29,1.29,0,0,1-.791.9l-1.369.527v1.814l1.369.527a1.29,1.29,0,0,1,.791.9,10.051,10.051,0,0,0,1.219,2.935,1.291,1.291,0,0,1,.082,1.2l-.6,1.342,1.282,1.283L67.7,30.05a1.29,1.29,0,0,1,1.2.08,10.065,10.065,0,0,0,2.939,1.217,1.291,1.291,0,0,1,.907.792l.527,1.369h1.814l.527-1.369a1.291,1.291,0,0,1,.906-.792,9.941,9.941,0,0,0,2.931-1.214,1.29,1.29,0,0,1,1.2-.082l1.343.595,1.283-1.284-.595-1.343a1.29,1.29,0,0,1,.08-1.2,10.087,10.087,0,0,0,1.217-2.936,1.29,1.29,0,0,1,.792-.906l1.369-.527V20.639l-1.369-.527a1.29,1.29,0,0,1-.792-.907,9.972,9.972,0,0,0-1.215-2.936,1.29,1.29,0,0,1-.081-1.2l.595-1.343-1.282-1.283-1.342.6a1.291,1.291,0,0,1-1.2-.081,9.987,9.987,0,0,0-2.933-1.215A1.291,1.291,0,0,1,75.61,10.953ZM74.175,14a7.547,7.547,0,1,1-7.545,7.545A7.546,7.546,0,0,1,74.175,14Zm0,2.581a4.966,4.966,0,1,0,4.968,4.964,4.963,4.963,0,0,0-4.968-4.964ZM63.417,37.186h8a2.3,2.3,0,0,1,2.292,2.292v8a2.3,2.3,0,0,1-2.292,2.292h-8a2.3,2.3,0,0,1-2.292-2.292v-8A2.3,2.3,0,0,1,63.417,37.186Zm.2,2.5v7.593h7.593V39.681Zm.785,4.473a1.248,1.248,0,1,1,1.763-1.766l.774.773,1.63-2.016a1.248,1.248,0,0,1,1.941,1.569l-2.5,3.093a1.248,1.248,0,0,1-1.852.1Zm-.989,21.834h8a2.3,2.3,0,0,1,2.292,2.3v8a2.3,2.3,0,0,1-2.292,2.292h-8a2.3,2.3,0,0,1-2.292-2.292v-8A2.3,2.3,0,0,1,63.417,65.988Zm.2,2.5v7.6h7.593v-7.6Zm.785,4.477a1.248,1.248,0,1,1,1.763-1.766l.774.773,1.63-2.016a1.248,1.248,0,0,1,1.941,1.569l-2.5,3.093a1.248,1.248,0,0,1-1.852.1ZM78.838,46.8a1.248,1.248,0,1,1,0-2.5h8.527a1.248,1.248,0,1,1,0,2.5ZM63.417,51.587h8a2.3,2.3,0,0,1,2.292,2.292v8a2.3,2.3,0,0,1-2.292,2.292h-8a2.3,2.3,0,0,1-2.292-2.292v-8A2.3,2.3,0,0,1,63.417,51.587Zm.2,2.5v7.593h7.593V54.082Zm.784,4.472A1.248,1.248,0,0,1,66.17,56.79l.774.774,1.629-2.015a1.248,1.248,0,0,1,1.941,1.569l-2.5,3.093a1.248,1.248,0,0,1-1.853.1Zm14.432-15.9a1.248,1.248,0,1,1,0-2.5h13.1a1.248,1.248,0,0,1,0,2.5Z" transform="translate(-52.613 -7)" fill-rule="evenodd"/>
        </g>
      </g>
    </g>
  </g>
</svg>
