<svg xmlns="http://www.w3.org/2000/svg" xmlns:xlink="http://www.w3.org/1999/xlink" width="113" height="113" viewBox="0 0 113 113">
  <defs>
    <filter id="Path_982547" x="0" y="0" width="113" height="113" filterUnits="userSpaceOnUse">
      <feOffset dy="3" input="SourceAlpha"/>
      <feGaussianBlur stdDeviation="3" result="blur"/>
      <feFlood flood-opacity="0.161"/>
      <feComposite operator="in" in2="blur"/>
      <feComposite in="SourceGraphic"/>
    </filter>
  </defs>
  <g id="Group_1218500" data-name="Group 1218500" transform="translate(-190 -495)">
    <g id="Group_1217847" data-name="Group 1217847">
      <g id="Group_1217635" data-name="Group 1217635" transform="translate(199 501)">
        <g id="Group_1215694" data-name="Group 1215694">
          <g id="Group_1215521" data-name="Group 1215521">
            <g id="Group_1214144" data-name="Group 1214144">
              <g id="Group_1200897" data-name="Group 1200897">
                <g id="Group_1200342" data-name="Group 1200342">
                  <g id="Group_1185978" data-name="Group 1185978">
                    <g id="Group_1180760" data-name="Group 1180760">
                      <g id="Group_1174888" data-name="Group 1174888">
                        <g id="Group_1166845" data-name="Group 1166845">
                          <g id="Group_1166720" data-name="Group 1166720">
                            <g id="Group_1164305" data-name="Group 1164305">
                              <g id="Group_1163948" data-name="Group 1163948">
                                <g id="Group_1158168" data-name="Group 1158168">
                                  <g id="Group_1152576" data-name="Group 1152576">
                                    <g id="Group_1148633" data-name="Group 1148633">
                                      <g id="Group_1148525" data-name="Group 1148525">
                                        <g transform="matrix(1, 0, 0, 1, -9, -6)" filter="url(#Path_982547)">
                                          <g id="Path_982547-2" data-name="Path 982547" transform="translate(9 6)" fill="#e9f9fd">
                                            <path d="M 47.5 93.5 C 41.28937149047852 93.5 35.26533508300781 92.28397369384766 29.59518623352051 89.88570404052734 C 24.11771965026855 87.56893157958984 19.19813346862793 84.25196075439453 14.97309303283691 80.02691650390625 C 10.74804019927979 75.80186462402344 7.431066513061523 70.88229370117188 5.114293098449707 65.40481567382812 C 2.716026782989502 59.73468017578125 1.5 53.71062850952148 1.5 47.5 C 1.5 41.28937149047852 2.716026782989502 35.26533508300781 5.114293098449707 29.59518623352051 C 7.431066513061523 24.11771965026855 10.74804019927979 19.19813346862793 14.97309303283691 14.97309303283691 C 19.19813346862793 10.74804019927979 24.11771965026855 7.431066513061523 29.59518623352051 5.114293098449707 C 35.26533508300781 2.716026782989502 41.28937149047852 1.5 47.5 1.5 C 53.71062850952148 1.5 59.73468017578125 2.716026782989502 65.40481567382812 5.114293098449707 C 70.88229370117188 7.431066513061523 75.80186462402344 10.74804019927979 80.02691650390625 14.97309303283691 C 84.25196075439453 19.19813346862793 87.56893157958984 24.11771965026855 89.88570404052734 29.59518623352051 C 92.28397369384766 35.26533508300781 93.5 41.28937149047852 93.5 47.5 C 93.5 53.71062850952148 92.28397369384766 59.73468017578125 89.88570404052734 65.40481567382812 C 87.56893157958984 70.88229370117188 84.25196075439453 75.80186462402344 80.02691650390625 80.02691650390625 C 75.80186462402344 84.25196075439453 70.88229370117188 87.56893157958984 65.40481567382812 89.88570404052734 C 59.73468017578125 92.28397369384766 53.71062850952148 93.5 47.5 93.5 Z" stroke="none"/>
                                            <path d="M 47.5 3 C 41.49121475219727 3 35.66376876831055 4.176155090332031 30.17950439453125 6.495796203613281 C 24.88084411621094 8.736953735351562 20.12152099609375 11.94598388671875 16.03375244140625 16.03375244140625 C 11.94598388671875 20.12152099609375 8.736953735351562 24.88084411621094 6.495796203613281 30.17950439453125 C 4.176155090332031 35.66376876831055 3 41.49121475219727 3 47.5 C 3 53.50878524780273 4.176155090332031 59.33623123168945 6.495796203613281 64.82049560546875 C 8.736953735351562 70.11915588378906 11.94598388671875 74.87847900390625 16.03375244140625 78.96624755859375 C 20.12152099609375 83.05401611328125 24.88084411621094 86.26304626464844 30.17950439453125 88.50419616699219 C 35.66376876831055 90.82384490966797 41.49121475219727 92 47.5 92 C 53.50878524780273 92 59.33623123168945 90.82384490966797 64.82049560546875 88.50419616699219 C 70.11915588378906 86.26304626464844 74.87847900390625 83.05401611328125 78.96624755859375 78.96624755859375 C 83.05401611328125 74.87847900390625 86.26304626464844 70.11915588378906 88.50419616699219 64.82049560546875 C 90.82384490966797 59.33623123168945 92 53.50878524780273 92 47.5 C 92 41.49121475219727 90.82384490966797 35.66376876831055 88.50419616699219 30.17950439453125 C 86.26304626464844 24.88084411621094 83.05401611328125 20.12152099609375 78.96624755859375 16.03375244140625 C 74.87847900390625 11.94598388671875 70.11915588378906 8.736953735351562 64.82049560546875 6.495796203613281 C 59.33623123168945 4.176155090332031 53.50878524780273 3 47.5 3 M 47.5 0 C 73.7335205078125 0 95 21.2664794921875 95 47.5 C 95 73.7335205078125 73.7335205078125 95 47.5 95 C 21.2664794921875 95 0 73.7335205078125 0 47.5 C 0 21.2664794921875 21.2664794921875 0 47.5 0 Z" stroke="none" fill="#1d7083"/>
                                          </g>
                                        </g>
                                      </g>
                                    </g>
                                  </g>
                                </g>
                              </g>
                            </g>
                          </g>
                        </g>
                      </g>
                    </g>
                  </g>
                </g>
              </g>
            </g>
          </g>
        </g>
      </g>
      <g id="motivacion_4_" data-name="motivacion (4)" transform="translate(198.134 514.057)">
        <g id="Group_1217844" data-name="Group 1217844" transform="translate(10.004 1.2)">
          <g id="Group_1217842" data-name="Group 1217842" transform="translate(0)">
            <g id="Group_1217831" data-name="Group 1217831" transform="translate(0 11.228)">
              <path id="Path_1089822" data-name="Path 1089822" d="M33.873,81.684,37.46,78a1.139,1.139,0,0,1,1.92.514L40.643,83.5l4.949-1.4A1.139,1.139,0,0,1,47,83.506l-1.4,4.949,4.985,1.264a1.139,1.139,0,0,1,.514,1.92l-3.686,3.587L51.1,98.813a1.139,1.139,0,0,1-.514,1.92L45.6,102l1.4,4.949a1.139,1.139,0,0,1-1.406,1.406l-4.949-1.4-1.264,4.985a1.139,1.139,0,0,1-1.92.514l-3.587-3.686-3.587,3.686a1.139,1.139,0,0,1-1.92-.514L27.1,106.953l-4.949,1.4a1.139,1.139,0,0,1-1.406-1.406l1.4-4.949-4.985-1.264a1.139,1.139,0,0,1-.514-1.92l3.686-3.587-3.686-3.587a1.139,1.139,0,0,1,.514-1.92l4.985-1.264-1.4-4.949A1.139,1.139,0,0,1,22.153,82.1L27.1,83.5l1.264-4.985A1.139,1.139,0,0,1,30.286,78Z" transform="translate(-16.3 -77.653)" fill="#fb4a59"/>
              <path id="Path_1089823" data-name="Path 1089823" d="M157.426,98.813a1.139,1.139,0,0,1-.515,1.92L151.927,102l1.4,4.949a1.138,1.138,0,0,1-1.405,1.405l-4.949-1.4-1.264,4.986a1.139,1.139,0,0,1-1.92.515l-.74-.761L144.8,104a.569.569,0,0,1,.709-.421l3.27.924a.57.57,0,0,0,.7-.7l-.928-3.283a.569.569,0,0,1,.408-.707l3.308-.838a.569.569,0,0,0,.257-.96l-2.446-2.38a.57.57,0,0,1,0-.815l2.446-2.38a.569.569,0,0,0-.257-.96l-3.308-.838a.57.57,0,0,1-.408-.707l.928-3.283a.57.57,0,0,0-.7-.7l-3.282.927a.57.57,0,0,1-.707-.409l-1.9-7.543.9-.924a1.139,1.139,0,0,1,1.92.515L146.97,83.5l4.949-1.4a1.139,1.139,0,0,1,1.405,1.405l-1.4,4.949,4.984,1.264a1.139,1.139,0,0,1,.515,1.92l-3.685,3.587Z" transform="translate(-122.627 -77.653)" fill="#f82f40"/>
            </g>
            <g id="Group_1217841" data-name="Group 1217841" transform="translate(24.478)">
              <g id="Group_1217835" data-name="Group 1217835" transform="translate(0 41.63)">
                <path id="Path_1089824" data-name="Path 1089824" d="M169.246,360.229h52.247l-3.823-16.116a14.738,14.738,0,0,0-12.1-11.165l-1.354-.208H179.292l-1.354.208a14.727,14.727,0,0,0-8.692,4.687Z" transform="translate(-169.246 -322.317)" fill="#64b9fc"/>
                <path id="Path_1089825" data-name="Path 1089825" d="M234.151,332.74V341.1c-2.292-1.344-5.8.05-7.7,1.016a.8.8,0,0,1-1.149-.85,15.789,15.789,0,0,1,3.961-8.53Z" transform="translate(-216.317 -322.317)" fill="#31a7fb"/>
                <path id="Path_1089826" data-name="Path 1089826" d="M346.736,342.12c-1.909-.967-5.413-2.361-7.7-1.016V332.74h4.894a15.813,15.813,0,0,1,3.961,8.53.8.8,0,0,1-1.151.85Z" transform="translate(-311.858 -322.317)" fill="#31a7fb"/>
                <path id="Path_1089827" data-name="Path 1089827" d="M280.681,332.74h9.339v27.489h-9.339Z" transform="translate(-262.846 -322.317)" fill="#f8f3f1"/>
                <path id="Path_1089828" data-name="Path 1089828" d="M377.981,360.229h-5.153l-3.822-16.116a14.742,14.742,0,0,0-12.1-11.165l-1.352-.208h5.153l1.352.208a14.742,14.742,0,0,1,12.1,11.165Z" transform="translate(-325.735 -322.317)" fill="#31a7fb"/>
                <g id="Group_1217834" data-name="Group 1217834" transform="translate(15.596)">
                  <g id="Group_1217833" data-name="Group 1217833">
                    <path id="Path_1089829" data-name="Path 1089829" d="M280.448,275.94a5.528,5.528,0,0,1-2.834-4.844v-3.48H269.6V271.1a5.569,5.569,0,0,1-2.9,4.883v.331a6.877,6.877,0,0,0,13.755,0v-.37Z" transform="translate(-266.693 -267.616)" fill="#fc9085"/>
                    <g id="Group_1217832" data-name="Group 1217832" transform="translate(1.759 0.001)">
                      <path id="Path_1089830" data-name="Path 1089830" d="M287.981,274.478a19.1,19.1,0,0,1-10.3,0,5.552,5.552,0,0,0,1.146-3.377V267.62h8.015V271.1A5.577,5.577,0,0,0,287.981,274.478Z" transform="translate(-277.682 -267.62)" fill="#fc7c6a"/>
                    </g>
                  </g>
                </g>
              </g>
              <g id="Group_1217840" data-name="Group 1217840" transform="translate(0.973)">
                <g id="Group_1217837" data-name="Group 1217837" transform="translate(1.532 2.731)">
                  <path id="Path_1089831" data-name="Path 1089831" d="M200.913,34.117c-1.258,3.226,1.662,16.822,1.313,15.562h31.721c-.309,1.2,3.143-13.919.481-19.951-2.415-5.47-13.926-5.686-17.614-4.713C211.576,26.4,202.881,29.07,200.913,34.117Z" transform="translate(-198.084 -24.567)" fill="#6c3328"/>
                  <g id="Group_1217836" data-name="Group 1217836" transform="translate(0 25.112)">
                    <path id="Path_1089832" data-name="Path 1089832" d="M210.786,181.472h.019C210.822,181.579,210.817,181.585,210.786,181.472Z" transform="translate(-206.643 -181.472)" fill="#873f30"/>
                    <path id="Path_1089833" data-name="Path 1089833" d="M408.873,181.472c-.022.083-.025.08-.014,0Z" transform="translate(-373.011 -181.472)" fill="#873f30"/>
                    <path id="Path_1089834" data-name="Path 1089834" d="M184.9,181.472h.019C184.938,181.579,184.933,181.585,184.9,181.472Z" transform="translate(-184.902 -181.472)" fill="#873f30"/>
                    <path id="Path_1089835" data-name="Path 1089835" d="M382.976,181.472h.014C382.968,181.555,382.965,181.552,382.976,181.472Z" transform="translate(-351.27 -181.472)" fill="#873f30"/>
                  </g>
                </g>
                <g id="Group_1217839" data-name="Group 1217839" transform="translate(0 14.221)">
                  <g id="Group_1217838" data-name="Group 1217838" transform="translate(0 5.137)">
                    <ellipse id="Ellipse_14424" data-name="Ellipse 14424" cx="5.17" cy="4.405" rx="5.17" ry="4.405" transform="matrix(0.338, -0.941, 0.941, 0.338, 31.312, 9.792)" fill="#fc9085"/>
                    <path id="Path_1089836" data-name="Path 1089836" d="M210.787,181.48h.019C210.822,181.587,210.817,181.592,210.787,181.48Z" transform="translate(-205.112 -172.994)" fill="#fc9085"/>
                    <ellipse id="Ellipse_14425" data-name="Ellipse 14425" cx="4.405" cy="5.17" rx="4.405" ry="5.17" transform="matrix(0.941, -0.338, 0.338, 0.941, 0, 2.978)" fill="#fc9085"/>
                  </g>
                  <path id="Path_1089837" data-name="Path 1089837" d="M229.343,96.359a5.68,5.68,0,0,0-5.68,5.68v8.808s0,16.484,13.8,16.484,13.8-16.484,13.8-16.484v-8.808a5.681,5.681,0,0,0-5.68-5.68Z" transform="translate(-215.927 -96.359)" fill="#fda79b"/>
                  <path id="Path_1089838" data-name="Path 1089838" d="M250.4,97.139c-.845,3.332-3.444,6.237-9.84,6.237-6.1,0-9.864-2.205-14.58-3.358a5.68,5.68,0,0,1,5.31-3.659h16.237a5.64,5.64,0,0,1,2.873.779Z" transform="translate(-217.873 -96.36)" fill="#fc9085"/>
                </g>
                <path id="Path_1089839" data-name="Path 1089839" d="M216.068,7.5c10.567,0,10.35,5.128,10.35,8.786,0,4.355-1.923,9.2-10.186,9.2-7.23,0-11.177-3.1-17.321-3.871a2.185,2.185,0,0,1-1.676-3.121c1.967-4.092,7.036-11,18.833-11Z" transform="translate(-193.545 -7.5)" fill="#ba5d4f"/>
                <path id="Path_1089840" data-name="Path 1089840" d="M316.024,16.287c0,4.355-1.923,9.2-10.186,9.2-.747,0-1.46-.033-2.143-.093,6.787-.7,8.438-5.184,8.438-9.25,0-3.208.165-7.532-6.712-8.645.083,0,.168,0,.253,0,10.566,0,10.349,5.128,10.349,8.787Z" transform="translate(-283.15 -7.5)" fill="#a34f41"/>
                <path id="Path_1089841" data-name="Path 1089841" d="M289.337,220.765a3.915,3.915,0,0,1-3.915-3.915v-1.271h7.829v1.271a3.914,3.914,0,0,1-3.915,3.915Z" transform="translate(-267.802 -182.277)" fill="#f8f3f1"/>
              </g>
            </g>
          </g>
          <g id="Group_1217843" data-name="Group 1217843" transform="translate(33.447 47.555)">
            <path id="Path_1089842" data-name="Path 1089842" d="M234.149,314.144v-8.549a.8.8,0,0,0-.717-.8L232,304.65a3.092,3.092,0,0,0-2.479.86,15.556,15.556,0,0,0-4.23,8.8.8.8,0,0,0,1.149.849C228.354,314.195,231.857,312.8,234.149,314.144Z" transform="translate(-225.283 -304.633)" fill="#b5dbfd"/>
            <path id="Path_1089843" data-name="Path 1089843" d="M339.034,314.144v-8.549a.8.8,0,0,1,.717-.8l1.428-.149a3.092,3.092,0,0,1,2.479.86,15.557,15.557,0,0,1,4.23,8.8.8.8,0,0,1-1.149.849C344.83,314.195,341.326,312.8,339.034,314.144Z" transform="translate(-320.829 -304.633)" fill="#b5dbfd"/>
          </g>
        </g>
        <g id="Group_1217846" data-name="Group 1217846" transform="translate(8.804)">
          <path id="Path_1089844" data-name="Path 1089844" d="M119.856,329.889v8.257a3.518,3.518,0,0,1-.907,2.36l-2.031,2.257V354.6H105.16v-9l-5.325-5.325a5.11,5.11,0,0,1-1.505-3.721,5.273,5.273,0,0,1,1.574-3.618l2.994-2.994v-.81a2.911,2.911,0,0,1,2.776-2.935,2.853,2.853,0,0,1,2.05.78,2.779,2.779,0,0,1,4.27.131,2.689,2.689,0,0,1,3.92.6,2.521,2.521,0,0,1,1.568-.413A2.584,2.584,0,0,1,119.856,329.889Z" transform="translate(-84.001 -273.859)" fill="#fda79b"/>
          <path id="Path_1089845" data-name="Path 1089845" d="M192.613,332.3v8.319a3.518,3.518,0,0,1-.907,2.36l-2.031,2.257v11.838H184.95V345.931a1.8,1.8,0,0,1,.462-1.2l1.571-1.745a3.524,3.524,0,0,0,.905-2.36v-9.139a2.613,2.613,0,0,0-1.75-2.478,2.542,2.542,0,0,1,.3-.018,2.7,2.7,0,0,1,2.234,1.19,2.543,2.543,0,0,1,3.942,2.125Z" transform="translate(-156.759 -276.335)" fill="#fc9085"/>
          <g id="Group_1217845" data-name="Group 1217845">
            <path id="Path_1089846" data-name="Path 1089846" d="M73.914,159.27h-2.49a1.2,1.2,0,1,0,0,2.4h1.26a1.518,1.518,0,0,1-3.005-.3v-2.6a1.518,1.518,0,0,1,2.861-.707,1.2,1.2,0,0,0,2.123-1.121,3.919,3.919,0,0,0-7.385,1.828v2.6a3.918,3.918,0,0,0,7.837,0v-.9A1.2,1.2,0,0,0,73.914,159.27Z" transform="translate(-57.919 -130.069)"/>
            <path id="Path_1089847" data-name="Path 1089847" d="M125.682,154.851a3.923,3.923,0,0,0-3.918,3.918v2.6a3.918,3.918,0,0,0,7.837,0v-2.6A3.923,3.923,0,0,0,125.682,154.851Zm1.518,6.517a1.518,1.518,0,0,1-3.035,0v-2.6a1.518,1.518,0,0,1,3.035,0Z" transform="translate(-103.685 -130.068)"/>
            <path id="Path_1089848" data-name="Path 1089848" d="M454.77,381.823l-3.823-16.116a16.017,16.017,0,0,0-3.241-6.495,1.2,1.2,0,0,0-1.848,1.533,13.6,13.6,0,0,1,2.753,5.516l3.823,16.116a1.2,1.2,0,1,0,2.336-.554Z" transform="translate(-375.678 -301.357)"/>
            <path id="Path_1089849" data-name="Path 1089849" d="M412.817,417.515a1.2,1.2,0,0,0-1.2,1.2v12.721a1.2,1.2,0,1,0,2.4,0V418.715A1.2,1.2,0,0,0,412.817,417.515Z" transform="translate(-347.149 -350.694)"/>
            <path id="Path_1089850" data-name="Path 1089850" d="M68.354,3.917a6.375,6.375,0,0,0-.919-1.164C65.584.9,62.491,0,57.978,0,45.536,0,40.16,7.317,38.063,11.679a3.412,3.412,0,0,0,.078,3.1,3.456,3.456,0,0,0,.193.312c-.01.211-.032.58-.034.816l-3.093.874-.961-3.79A2.339,2.339,0,0,0,30.3,11.936l-2.726,2.8-2.726-2.8a2.339,2.339,0,0,0-3.945,1.057l-.961,3.79L16.182,15.72A2.339,2.339,0,0,0,13.3,18.606l1.062,3.763-3.791.96a2.34,2.34,0,0,0-1.055,3.944L12.314,30l-2.8,2.727a2.338,2.338,0,0,0,1.055,3.943l3.79.961L13.3,41.393a2.338,2.338,0,0,0,2.886,2.888l3.762-1.062.961,3.791a2.34,2.34,0,0,0,3.944,1.055l2.726-2.8,2.726,2.8a2.34,2.34,0,0,0,3.945-1.055l.961-3.79,3.761,1.062a2.338,2.338,0,0,0,2.888-2.886l-1.062-3.762,2.422-.614c.172.526.369,1.061.593,1.6a13.8,13.8,0,0,0,7.951,8.1,4.361,4.361,0,0,1-.213.992l-1.25-.13a4.279,4.279,0,0,0-3.442,1.193,14.641,14.641,0,0,0-2.844,3.978,3.65,3.65,0,0,0-1.644-.516,3.71,3.71,0,0,0-1.354.155,3.881,3.881,0,0,0-4.039-.629,3.98,3.98,0,0,0-4.508-.152,4.042,4.042,0,0,0-2.025-.47A4.132,4.132,0,0,0,26.5,55.272v.313l-2.643,2.643a6.434,6.434,0,0,0-1.925,4.447,6.3,6.3,0,0,0,1.857,4.59l4.973,4.973v8.505a1.2,1.2,0,1,0,2.4,0v-9a1.2,1.2,0,0,0-.352-.849l-5.324-5.324a3.914,3.914,0,0,1-1.154-2.854,4.046,4.046,0,0,1,1.223-2.789l.945-.945v3.393a1.2,1.2,0,0,0,2.4,0V56.085s0-.813,0-.813a1.714,1.714,0,0,1,1.611-1.735,1.657,1.657,0,0,1,1.19.453,1.2,1.2,0,0,0,1.721-.075,1.579,1.579,0,0,1,2.429.074,1.2,1.2,0,0,0,1.7.195,1.48,1.48,0,0,1,.934-.331,1.5,1.5,0,0,1,1.24.663,1.2,1.2,0,0,0,1.656.33,1.331,1.331,0,0,1,.829-.217,1.379,1.379,0,0,1,1.252,1.4v8.257a2.319,2.319,0,0,1-.6,1.558L40.828,68.1a1.2,1.2,0,0,0-.308.8v2.844a1.2,1.2,0,0,0,2.4,0V69.366l1.722-1.914a4.715,4.715,0,0,0,1.216-3.165V60.019c2.157-.982,4.016-1.317,5.257-.963V80.742a1.2,1.2,0,0,0,2.4,0V58.836a8.1,8.1,0,0,0,6.938-.028V80.742a1.2,1.2,0,0,0,2.4,0V59.053c1.38-.4,3.5.054,5.963,1.3a2,2,0,0,0,2.875-2.117,20.745,20.745,0,0,0-.91-3.562,13.5,13.5,0,0,1,4.045,1.352A1.2,1.2,0,1,0,75.941,53.9a15.9,15.9,0,0,0-4.953-1.625l-1.379-.211a14.282,14.282,0,0,0-2.491-3.292,4.283,4.283,0,0,0-3.441-1.194l-1.247.13a4.416,4.416,0,0,1-.21-.991,13.8,13.8,0,0,0,7.951-8.1A24.058,24.058,0,0,0,71.68,33.2c.164.016.329.027.493.027a6.349,6.349,0,0,0,5.739-4.4,6.819,6.819,0,0,0,.012-4.706,5.309,5.309,0,0,0-2.674-2.987c.584-5.757.309-9.971-.82-12.529-.911-2.064-3.083-3.674-6.076-4.692Zm1.174,5.854A19.438,19.438,0,0,0,69.382,6.9a5.744,5.744,0,0,1,2.852,2.676c.932,2.111,1.155,5.933.652,11.077a5.288,5.288,0,0,0-.905.114,6.844,6.844,0,0,0-3.5-5.667,12.756,12.756,0,0,0,1.049-5.332ZM40.005,23.2a2.807,2.807,0,0,1,1.986.068v6.638c0,.047,0,.376.036.91a3.868,3.868,0,0,1-3.7-2.8,4.418,4.418,0,0,1-.026-3.046,2.9,2.9,0,0,1,1.7-1.771Zm2-2.433a5.277,5.277,0,0,0-.963-.117c-.2-1.639-.309-3.025-.332-4.139a23.146,23.146,0,0,1,2.636.5A6.858,6.858,0,0,0,42,20.77ZM39.009,35.608a1.2,1.2,0,0,0-.86,1.49l1.367,4.842-4.842-1.367a1.2,1.2,0,0,0-1.49.86l-1.237,4.879L28.436,42.7a1.2,1.2,0,0,0-1.72,0l-3.51,3.607-1.237-4.879a1.2,1.2,0,0,0-1.49-.86L15.636,41.94,17,37.1a1.2,1.2,0,0,0-.86-1.49l-4.878-1.237,3.606-3.511a1.2,1.2,0,0,0,0-1.72l-3.608-3.51,4.878-1.236A1.2,1.2,0,0,0,17,22.9L15.636,18.06l4.842,1.369a1.2,1.2,0,0,0,1.49-.86l1.238-4.88,3.51,3.607a1.2,1.2,0,0,0,1.72,0l3.51-3.607,1.238,4.88a1.2,1.2,0,0,0,1.49.86L38.4,18.376q.1,1.262.283,2.785a5.318,5.318,0,0,0-2.624,2.964,6.819,6.819,0,0,0,.012,4.706,6.348,6.348,0,0,0,5.739,4.4c.164,0,.329-.011.493-.027.075.469.169.971.285,1.5Zm6.669,19.263a13.333,13.333,0,0,1,2.851-4.38,1.888,1.888,0,0,1,1.518-.526l1.069.111v6.517a10.445,10.445,0,0,0-5.257.818V56.03a3.841,3.841,0,0,0-.181-1.159Zm17.178-4.794,1.069-.112a1.887,1.887,0,0,1,1.517.526,14.113,14.113,0,0,1,3.74,7.372A13.047,13.047,0,0,0,63.945,56.5a6.694,6.694,0,0,0-1.089.086Zm-9.34-.361a9.443,9.443,0,0,0,.582-2.371,16.909,16.909,0,0,0,5.782,0,9.549,9.549,0,0,0,.575,2.371v6.291a5.709,5.709,0,0,1-6.939.038S53.516,49.716,53.516,49.716Zm6.876-29.461a10.724,10.724,0,0,0,6.753-3.143A4.46,4.46,0,0,1,69.588,21.1v8.806a22.916,22.916,0,0,1-1.657,7.84c-2.089,4.941-5.77,7.446-10.94,7.446s-8.853-2.505-10.942-7.446a22.915,22.915,0,0,1-1.657-7.839V21.1A4.465,4.465,0,0,1,45.9,17.755c.514.166,1.028.338,1.549.513a39.225,39.225,0,0,0,6.961,1.848,1.2,1.2,0,0,0,.352-2.375,36.8,36.8,0,0,1-6.549-1.749,36.328,36.328,0,0,0-7.241-1.864.941.941,0,0,1-.721-.5.993.993,0,0,1-.023-.914C42.08,8.865,46.85,2.4,57.978,2.4c3.79,0,6.4.69,7.758,2.05,1.4,1.4,1.394,3.391,1.391,5.318,0,4.645-2.317,7.514-6.886,8.1a1.2,1.2,0,0,0,.15,2.391Zm15.26,7.764a3.869,3.869,0,0,1-3.7,2.8c.035-.534.036-.863.036-.91V23.271a2.806,2.806,0,0,1,1.986-.068,2.9,2.9,0,0,1,1.7,1.771A4.42,4.42,0,0,1,75.652,28.02Z" transform="translate(-8.804)"/>
            <path id="Path_1089851" data-name="Path 1089851" d="M286.953,208.079h-7.829a1.2,1.2,0,0,0-1.2,1.2v1.271a5.115,5.115,0,0,0,10.23,0v-1.271A1.2,1.2,0,0,0,286.953,208.079Zm-1.2,2.471a2.714,2.714,0,0,1-5.429,0v-.071h5.429Z" transform="translate(-234.852 -174.777)"/>
            <path id="Path_1089852" data-name="Path 1089852" d="M338.375,154.893a4.726,4.726,0,0,0-5.383,0,1.2,1.2,0,0,0,1.411,1.942,2.332,2.332,0,0,1,2.561,0,1.2,1.2,0,1,0,1.411-1.942Z" transform="translate(-280.691 -129.397)"/>
            <path id="Path_1089853" data-name="Path 1089853" d="M253.59,156.57a1.2,1.2,0,0,0-.266-1.677,4.726,4.726,0,0,0-5.383,0,1.2,1.2,0,1,0,1.411,1.942,2.332,2.332,0,0,1,2.561,0,1.2,1.2,0,0,0,1.677-.266Z" transform="translate(-209.253 -129.397)"/>
            <path id="Path_1089854" data-name="Path 1089854" d="M300.654,185.5h.937a1.2,1.2,0,1,0,0-2.4h-.937a1.2,1.2,0,1,0,0,2.4Z" transform="translate(-252.937 -153.798)"/>
            <path id="Path_1089855" data-name="Path 1089855" d="M208.175,477.094a1.2,1.2,0,0,0-1.2,1.2v3.186a1.2,1.2,0,1,0,2.4,0v-3.186A1.2,1.2,0,0,0,208.175,477.094Z" transform="translate(-175.259 -400.738)"/>
          </g>
        </g>
      </g>
    </g>
  </g>
</svg>
