<svg xmlns="http://www.w3.org/2000/svg" xmlns:xlink="http://www.w3.org/1999/xlink" width="103" height="103" viewBox="0 0 103 103">
  <defs>
    <filter id="Path_978624" x="0" y="0" width="103" height="103" filterUnits="userSpaceOnUse">
      <feOffset dy="3" input="SourceAlpha"/>
      <feGaussianBlur stdDeviation="3" result="blur"/>
      <feFlood flood-opacity="0.161"/>
      <feComposite operator="in" in2="blur"/>
      <feComposite in="SourceGraphic"/>
    </filter>
  </defs>
  <g id="Group_1218524" data-name="Group 1218524" transform="translate(-191 -5489)">
    <g id="Group_1218309" data-name="Group 1218309">
      <g id="Group_1217666" data-name="Group 1217666" transform="translate(0 3073)">
        <g id="Group_1215797" data-name="Group 1215797" transform="translate(200 2422)">
          <g id="Group_1208646" data-name="Group 1208646">
            <g id="Group_1180764" data-name="Group 1180764">
              <g id="Group_1179463" data-name="Group 1179463">
                <g id="Group_1144531" data-name="Group 1144531">
                  <g transform="matrix(1, 0, 0, 1, -9, -6)" filter="url(#Path_978624)">
                    <g id="Path_978624-2" data-name="Path 978624" transform="translate(9 6)" fill="#e9f9fd">
                      <path d="M 42.5 83.5 C 36.96437835693359 83.5 31.59512901306152 82.41617584228516 26.54141235351562 80.27863311767578 C 21.65934181213379 78.21369171142578 17.27447128295898 75.25723266601562 13.50862312316895 71.49137878417969 C 9.742764472961426 67.72553253173828 6.786305904388428 63.34066009521484 4.721364498138428 58.45858764648438 C 2.583823442459106 53.40486907958984 1.5 48.03562164306641 1.5 42.5 C 1.5 36.96437835693359 2.583823442459106 31.59512901306152 4.721364498138428 26.54141235351562 C 6.786305904388428 21.65934181213379 9.742764472961426 17.27447128295898 13.50862312316895 13.50862312316895 C 17.27447128295898 9.742764472961426 21.65934181213379 6.786305904388428 26.54141235351562 4.721364498138428 C 31.59512901306152 2.583823442459106 36.96437835693359 1.5 42.5 1.5 C 48.03562164306641 1.5 53.40486907958984 2.583823442459106 58.45858764648438 4.721364498138428 C 63.34066009521484 6.786305904388428 67.72553253173828 9.742764472961426 71.49137878417969 13.50862312316895 C 75.25723266601562 17.27447128295898 78.21369171142578 21.65934181213379 80.27863311767578 26.54141235351562 C 82.41617584228516 31.59512901306152 83.5 36.96437835693359 83.5 42.5 C 83.5 48.03562164306641 82.41617584228516 53.40486907958984 80.27863311767578 58.45858764648438 C 78.21369171142578 63.34066009521484 75.25723266601562 67.72553253173828 71.49137878417969 71.49137878417969 C 67.72553253173828 75.25723266601562 63.34066009521484 78.21369171142578 58.45858764648438 80.27863311767578 C 53.40486907958984 82.41617584228516 48.03562164306641 83.5 42.5 83.5 Z" stroke="none"/>
                      <path d="M 42.5 3 C 37.16621398925781 3 31.99356079101562 4.043960571289062 27.125732421875 6.102882385253906 C 22.42246627807617 8.092185974121094 18.19785308837891 10.94070434570312 14.56928253173828 14.56928253173828 C 10.94070434570312 18.19785308837891 8.092185974121094 22.42246627807617 6.102882385253906 27.125732421875 C 4.043960571289062 31.99356079101562 3 37.16621398925781 3 42.5 C 3 47.83378601074219 4.043960571289062 53.00643920898438 6.102882385253906 57.87425231933594 C 8.092185974121094 62.57753372192383 10.94070434570312 66.80213165283203 14.56928253173828 70.43071746826172 C 18.19786834716797 74.05929565429688 22.42246627807617 76.90781402587891 27.125732421875 78.89711761474609 C 31.99356079101562 80.95603942871094 37.16621398925781 82 42.5 82 C 47.83378601074219 82 53.00642395019531 80.95603942871094 57.87425231933594 78.89711761474609 C 62.57753372192383 76.90781402587891 66.80213165283203 74.05929565429688 70.43071746826172 70.43071746826172 C 74.05929565429688 66.80213165283203 76.90781402587891 62.57753372192383 78.89711761474609 57.87425231933594 C 80.95603942871094 53.00642395019531 82 47.83378601074219 82 42.5 C 82 37.16621398925781 80.95603942871094 31.99356079101562 78.89711761474609 27.125732421875 C 76.90781402587891 22.42246627807617 74.05929565429688 18.19786834716797 70.43071746826172 14.56928253173828 C 66.80213165283203 10.94070434570312 62.57753372192383 8.092185974121094 57.87425231933594 6.102882385253906 C 53.00643920898438 4.043960571289062 47.83378601074219 3 42.5 3 M 42.5 0 C 65.97209167480469 0 85 19.02789306640625 85 42.5 C 85 65.97209167480469 65.97209167480469 85 42.5 85 C 19.02789306640625 85 0 65.97209167480469 0 42.5 C 0 19.02789306640625 19.02789306640625 0 42.5 0 Z" stroke="none" fill="#36ceef"/>
                    </g>
                  </g>
                </g>
              </g>
            </g>
          </g>
        </g>
      </g>
      <g id="filosofia_3_" data-name="filosofia (3)" transform="translate(209.049 5510.771)">
        <g id="Group_1218307" data-name="Group 1218307" transform="translate(9.712 1.405)">
          <g id="Group_1218300" data-name="Group 1218300" transform="translate(41.005 41.005)">
            <path id="Path_1090455" data-name="Path 1090455" d="M49.158,39.3a4.316,4.316,0,1,1,0,8.633H47V39.3Z" transform="translate(-47 -39.302)" fill="#f0d0b4"/>
          </g>
          <g id="Group_1218301" data-name="Group 1218301" transform="translate(6.474 36.689)">
            <path id="Path_1090456" data-name="Path 1090456" d="M49.53,48.251v2.158A12.945,12.945,0,0,1,36.582,63.358H27.949A12.945,12.945,0,0,1,15,50.409V36.381A1.082,1.082,0,0,1,16.079,35.3H48.451a1.082,1.082,0,0,1,1.079,1.079v11.87Z" transform="translate(-15 -35.302)" fill="#f0d0b4"/>
          </g>
          <g id="Group_1218302" data-name="Group 1218302" transform="translate(0 41.005)">
            <path id="Path_1090457" data-name="Path 1090457" d="M15.474,44.7v3.237H13.316a4.316,4.316,0,1,1,0-8.633h2.158Z" transform="translate(-9 -39.302)" fill="#f0d0b4"/>
          </g>
          <g id="Group_1218303" data-name="Group 1218303" transform="translate(8.633 21.582)">
            <path id="Path_1090458" data-name="Path 1090458" d="M40.74,26.7H40.6a3.946,3.946,0,0,0,.14-1.079,4.316,4.316,0,0,0-8.633,0,4.316,4.316,0,1,0-8.633,0,3.946,3.946,0,0,0,.14,1.079h-.14a6.48,6.48,0,0,0-5.611,9.712H46.351A6.48,6.48,0,0,0,40.74,26.7Z" transform="translate(-17 -21.302)" fill="#dfb28b"/>
          </g>
          <g id="Group_1218304" data-name="Group 1218304" transform="translate(23.74 4.316)">
            <path id="Path_1090459" data-name="Path 1090459" d="M43.949,5.3v5.4A7.548,7.548,0,0,1,36.4,18.251H31l2.083-1.036A7.947,7.947,0,0,0,36.719,6.726,5.748,5.748,0,0,0,36.126,5.7l.011-.011A7.82,7.82,0,0,1,38.554,5.3Z" transform="translate(-31 -5.302)" fill="#b4dd7f"/>
          </g>
          <g id="Group_1218305" data-name="Group 1218305" transform="translate(10.791 4.316)">
            <path id="Path_1090460" data-name="Path 1090460" d="M29.866,17.215l2.083,1.036h-5.4A7.548,7.548,0,0,1,19,10.7V5.3h5.4a7.82,7.82,0,0,1,2.417.388l.011.011a7.846,7.846,0,0,0-1.349,4.4,7.964,7.964,0,0,0,4.392,7.111Z" transform="translate(-19 -5.302)" fill="#b4dd7f"/>
          </g>
          <g id="Group_1218306" data-name="Group 1218306" transform="translate(17.265)">
            <path id="Path_1090461" data-name="Path 1090461" d="M31.474,18.567l-2.083-1.036A7.964,7.964,0,0,1,25,10.42a7.846,7.846,0,0,1,1.349-4.4,7.3,7.3,0,0,1,1.511-1.7L31.474,1.3l3.615,3.011a7.3,7.3,0,0,1,1.511,1.7,5.747,5.747,0,0,1,.593,1.025,7.947,7.947,0,0,1-3.636,10.489Z" transform="translate(-25 -1.302)" fill="#a0d468"/>
          </g>
        </g>
        <g id="Group_1218308" data-name="Group 1218308" transform="translate(0 0)">
          <path id="Path_1090462" data-name="Path 1090462" d="M24.316,44.618A4.321,4.321,0,0,0,28.633,40.3H26.474a2.158,2.158,0,0,1-4.316,0H20A4.321,4.321,0,0,0,24.316,44.618Z" transform="translate(1.582 3.187)"/>
          <path id="Path_1090463" data-name="Path 1090463" d="M38.316,44.618A4.321,4.321,0,0,0,42.633,40.3H40.474a2.158,2.158,0,0,1-4.316,0H34A4.321,4.321,0,0,0,38.316,44.618Z" transform="translate(2.689 3.187)"/>
          <path id="Path_1090464" data-name="Path 1090464" d="M26,55.776h6.474A6.481,6.481,0,0,0,38.949,49.3H36.791a4.321,4.321,0,0,1-4.316,4.316H26Z" transform="translate(2.056 3.899)"/>
          <path id="Path_1090465" data-name="Path 1090465" d="M52.242,41.331H51.163V39.173A2.16,2.16,0,0,0,49,37.015h-.326a7.509,7.509,0,0,0-6.157-9.626c0-.029.009-.056.009-.085a5.4,5.4,0,0,0-5.4-5.4A5.34,5.34,0,0,0,33.9,23.015V19.749h4.316a8.643,8.643,0,0,0,8.633-8.633V4.642H40.372A8.582,8.582,0,0,0,38.4,4.9a9.114,9.114,0,0,0-1.272-1.31L32.819,0,28.512,3.588A9,9,0,0,0,27.24,4.9a8.6,8.6,0,0,0-1.975-.256H18.791v6.474a8.643,8.643,0,0,0,8.633,8.633H31.74v3.265A5.34,5.34,0,0,0,28.5,21.907a5.4,5.4,0,0,0-5.4,5.4c0,.029.009.056.009.085a7.509,7.509,0,0,0-6.157,9.626h-.326a2.16,2.16,0,0,0-2.158,2.158v2.158H13.4a5.4,5.4,0,1,0,0,10.791h1.079V53.2A14.044,14.044,0,0,0,28.5,67.229h8.633A14.044,14.044,0,0,0,51.163,53.2V52.122h1.079a5.4,5.4,0,0,0,0-10.791ZM37.135,24.066a3.237,3.237,0,1,1-.81,6.372l-.537,2.091a5.387,5.387,0,0,0,6.253-3.008,5.361,5.361,0,0,1,4.351,7.494h-1.7A4.321,4.321,0,0,0,40.372,32.7v2.158a2.16,2.16,0,0,1,2.158,2.158H33.9V27.3A3.24,3.24,0,0,1,37.135,24.066ZM40.372,6.8h4.316v4.316a6.481,6.481,0,0,1-6.474,6.474H36.929a8.929,8.929,0,0,0,3.1-4.61l3.26-3.26L41.768,8.2,40.324,9.639a8.989,8.989,0,0,0-.733-2.776,6.5,6.5,0,0,1,.781-.063ZM29.894,5.246,32.819,2.81l2.924,2.438a6.865,6.865,0,0,1-1.325,11.416l-.52.261V12.642l2.921-2.921L35.293,8.2l-1.4,1.4V6.8H31.74v4.949l-1.4-1.4L28.819,11.88,31.74,14.8v2.124l-.52-.26A6.867,6.867,0,0,1,29.894,5.246Zm-8.946,5.87V6.8h4.316a6.5,6.5,0,0,1,.781.063,9.019,9.019,0,0,0-.733,2.776L23.87,8.2,22.344,9.721l3.26,3.26a8.934,8.934,0,0,0,3.1,4.61H27.423A6.482,6.482,0,0,1,20.949,11.117Zm-2.158,23.74A5.384,5.384,0,0,1,23.6,29.52a5.387,5.387,0,0,0,6.253,3.008l-.537-2.091A3.238,3.238,0,1,1,31.74,27.3v9.712H23.107a2.16,2.16,0,0,1,2.158-2.158V32.7a4.321,4.321,0,0,0-4.316,4.316h-1.7a5.4,5.4,0,0,1-.455-2.158ZM13.4,49.963a3.237,3.237,0,1,1,0-6.474h1.079v2.3l-1.559-1.04-1.2,1.8,2.756,1.838v1.581ZM49,53.2a11.884,11.884,0,0,1-11.87,11.87H28.5A11.884,11.884,0,0,1,16.633,53.2V39.173l32.372,0Zm3.237-3.237H51.163V48.383l2.757-1.838-1.2-1.8-1.56,1.039v-2.3h1.079a3.238,3.238,0,0,1,0,6.476Z" transform="translate(0.633 0)"/>
          <path id="Path_1090466" data-name="Path 1090466" d="M0,28.3H4.316V30.46H0Z" transform="translate(0 2.238)"/>
          <path id="Path_1090467" data-name="Path 1090467" d="M6,28.3h6.474V30.46H6Z" transform="translate(0.474 2.238)"/>
          <path id="Path_1090468" data-name="Path 1090468" d="M0,0H2.157V12.949H0Z" transform="matrix(0.195, -0.981, 0.981, 0.195, 0.436, 26.148)"/>
          <path id="Path_1090469" data-name="Path 1090469" d="M0,0H2.158V4.317H0Z" transform="translate(2.137 19.818) rotate(-67.486)"/>
          <path id="Path_1090470" data-name="Path 1090470" d="M0,0H2.158V6.474H0Z" transform="translate(8.121 22.293) rotate(-67.486)"/>
          <path id="Path_1090471" data-name="Path 1090471" d="M0,0H2.158V4.316H0Z" transform="translate(9.033 8.729) rotate(-45)"/>
          <path id="Path_1090472" data-name="Path 1090472" d="M0,0H2.158V6.476H0Z" transform="translate(13.61 13.306) rotate(-45)"/>
          <path id="Path_1090473" data-name="Path 1090473" d="M0,0H12.949V2.157H0Z" transform="matrix(0.981, -0.195, 0.195, 0.981, 0.429, 37.094)"/>
          <path id="Path_1090474" data-name="Path 1090474" d="M0,0H2.157V12.949H0Z" transform="matrix(0.556, -0.832, 0.832, 0.556, 5.049, 13.93)"/>
          <path id="Path_1090475" data-name="Path 1090475" d="M58,28.3h4.316V30.46H58Z" transform="translate(4.587 2.238)"/>
          <path id="Path_1090476" data-name="Path 1090476" d="M50,28.3h6.474V30.46H50Z" transform="translate(3.954 2.238)"/>
          <path id="Path_1090477" data-name="Path 1090477" d="M0,0H12.949V2.157H0Z" transform="matrix(0.981, -0.195, 0.195, 0.981, 53.359, 26.57)"/>
          <path id="Path_1090478" data-name="Path 1090478" d="M0,0H4.317V2.158H0Z" transform="translate(59.969 19.459) rotate(-22.514)"/>
          <path id="Path_1090479" data-name="Path 1090479" d="M0,0H6.474V2.158H0Z" transform="translate(51.993 22.771) rotate(-22.514)"/>
          <path id="Path_1090480" data-name="Path 1090480" d="M0,0H4.316V2.158H0Z" transform="translate(53.283 10.259) rotate(-45)"/>
          <path id="Path_1090481" data-name="Path 1090481" d="M0,0H6.476V2.158H0Z" transform="translate(47.179 16.362) rotate(-45)"/>
          <path id="Path_1090482" data-name="Path 1090482" d="M0,0H2.157V12.949H0Z" transform="matrix(0.195, -0.981, 0.981, 0.195, 53.352, 36.663)"/>
          <path id="Path_1090483" data-name="Path 1090483" d="M0,0H12.949V2.157H0Z" transform="matrix(0.832, -0.556, 0.556, 0.832, 49.933, 19.319)"/>
        </g>
      </g>
    </g>
  </g>
</svg>
